<svg width="244" height="102" viewBox="0 0 244 102" version="1.1" xmlns="http://www.w3.org/2000/svg" xmlns:xlink="http://www.w3.org/1999/xlink">
<title>Dream Team</title>
<desc>Created using Figma</desc>
<g id="Canvas" transform="translate(-9310 -1224)">
<g id="Dream Team">
<use xlink:href="#path0_fill" transform="translate(9305.89 1216.37)" fill="url(#paint0_linear)"/>
</g>
</g>
<defs>
<linearGradient id="paint0_linear" x1="0" y1="0" x2="1" y2="0" gradientUnits="userSpaceOnUse" gradientTransform="matrix(-241.019 -97.1832 227.661 -564.61 130.75 390.305)">
<stop offset="0" stop-color="#217CE8"/>
<stop offset="1" stop-color="#8FD5FF"/>
</linearGradient>
<path id="path0_fill" d="M 4.32 53.856L 4.32 8.928C 6.48 8.688 8.856 8.472 11.448 8.28C 14.04 8.04 16.728 7.92 19.512 7.92C 23.016 7.92 26.376 8.424 29.592 9.432C 32.808 10.44 35.64 11.928 38.088 13.896C 40.536 15.864 42.48 18.288 43.92 21.168C 45.408 24 46.152 27.288 46.152 31.032C 46.152 35.16 45.408 38.712 43.92 41.688C 42.48 44.664 40.488 47.112 37.944 49.032C 35.448 50.952 32.52 52.368 29.16 53.28C 25.848 54.192 22.296 54.648 18.504 54.648C 17.208 54.648 15.84 54.624 14.4 54.576C 12.96 54.576 11.592 54.528 10.296 54.432C 9 54.384 7.824 54.312 6.768 54.216C 5.712 54.12 4.896 54 4.32 53.856ZM 10.656 14.832L 10.656 47.88C 11.664 48.12 12.864 48.312 14.256 48.456C 15.648 48.552 16.872 48.6 17.928 48.6C 20.856 48.6 23.64 48.264 26.28 47.592C 28.92 46.92 31.248 45.888 33.264 44.496C 35.28 43.056 36.888 41.232 38.088 39.024C 39.288 36.816 39.888 34.152 39.888 31.032C 39.888 28.008 39.24 25.44 37.944 23.328C 36.696 21.216 35.04 19.488 32.976 18.144C 30.96 16.8 28.68 15.816 26.136 15.192C 23.64 14.568 21.144 14.256 18.648 14.256C 17.112 14.256 15.648 14.328 14.256 14.472C 12.864 14.568 11.664 14.688 10.656 14.832ZM 74.2967 23.184L 70.8407 23.184C 69.3527 23.184 67.8887 23.424 66.4487 23.904C 65.0567 24.384 63.8087 25.104 62.7047 26.064C 61.6487 26.976 60.7847 28.104 60.1127 29.448C 59.4887 30.792 59.1767 32.328 59.1767 34.056L 59.1767 54.072L 52.6247 54.072L 52.6247 18L 59.1047 18L 59.1047 21.744C 59.5847 20.688 60.2807 19.824 61.1927 19.152C 62.1047 18.48 63.1127 17.976 64.2167 17.64C 65.3207 17.256 66.4247 17.016 67.5287 16.92C 68.6807 16.776 69.6887 16.704 70.5527 16.704L 74.2247 16.704L 74.2967 23.184ZM 111.559 50.256C 109.88 51.456 107.912 52.536 105.656 53.496C 103.4 54.408 100.832 54.864 97.9515 54.864C 95.5995 54.864 93.4155 54.528 91.3995 53.856C 89.4315 53.136 87.7035 52.128 86.2155 50.832C 84.7755 49.536 83.5995 47.928 82.6875 46.008C 81.8235 44.088 81.3435 41.904 81.2475 39.456L 81.2475 39.096C 80.4795 39.192 79.6875 39.264 78.8715 39.312C 78.1035 39.312 77.3355 39.456 76.5675 39.744L 76.5675 33.192C 77.3835 32.952 78.1755 32.808 78.9435 32.76C 79.7115 32.712 80.5035 32.64 81.3195 32.544C 81.4635 30.24 81.9915 28.128 82.9035 26.208C 83.8155 24.288 85.0395 22.632 86.5755 21.24C 88.1115 19.848 89.9355 18.768 92.0475 18C 94.1595 17.232 96.4875 16.848 99.0315 16.848C 101.767 16.848 104.239 17.448 106.447 18.648C 108.127 19.608 109.52 20.928 110.624 22.608C 111.728 24.288 112.279 26.184 112.279 28.296C 112.279 30.504 111.535 32.568 110.047 34.488C 108.511 36.504 106.663 37.824 104.504 38.448C 102.392 39.024 100.087 39.312 97.5915 39.312C 96.4875 39.312 95.1915 39.264 93.7035 39.168C 92.2635 39.072 90.9435 39.024 89.7435 39.024C 89.4075 39.024 89.0955 39.048 88.8075 39.096C 88.5195 39.096 88.2555 39.12 88.0155 39.168L 88.0155 39.528C 88.0155 42.36 88.9515 44.52 90.8235 46.008C 92.7435 47.448 95.1195 48.168 97.9515 48.168C 99.3915 48.168 100.712 48.048 101.912 47.808C 103.16 47.568 104.312 47.232 105.368 46.8C 106.472 46.368 107.528 45.864 108.535 45.288C 109.543 44.712 110.552 44.088 111.559 43.416L 111.559 50.256ZM 99.8955 23.112C 98.4075 23.112 96.9675 23.304 95.5755 23.688C 94.2315 24.072 93.0075 24.648 91.9035 25.416C 90.8475 26.184 89.9595 27.168 89.2395 28.368C 88.5675 29.52 88.1595 30.912 88.0155 32.544L 91.9035 32.4C 92.7195 32.496 93.7035 32.568 94.8555 32.616C 96.0555 32.616 97.2075 32.616 98.3115 32.616C 99.2715 32.616 100.231 32.568 101.192 32.472C 102.152 32.328 102.992 32.088 103.712 31.752C 104.48 31.368 105.079 30.864 105.511 30.24C 105.992 29.616 106.232 28.824 106.232 27.864C 106.232 26.136 105.584 24.912 104.287 24.192C 102.992 23.472 101.528 23.112 99.8955 23.112ZM 146.844 39.24C 146.844 41.064 146.844 42.864 146.844 44.64C 146.844 46.368 146.82 47.928 146.772 49.32C 146.772 50.664 146.772 51.768 146.772 52.632C 146.772 53.448 146.772 53.88 146.772 53.928L 140.148 53.928L 140.148 50.112C 138.756 51.84 137.076 53.064 135.108 53.784C 133.14 54.504 131.124 54.864 129.06 54.864C 127.38 54.864 125.7 54.6 124.02 54.072C 122.34 53.592 120.828 52.848 119.484 51.84C 118.14 50.832 117.06 49.584 116.244 48.096C 115.428 46.56 115.02 44.784 115.02 42.768C 115.02 40.704 115.356 38.928 116.028 37.44C 116.748 35.952 117.708 34.752 118.908 33.84C 120.156 32.88 121.596 32.184 123.228 31.752C 124.908 31.32 126.732 31.104 128.7 31.104C 130.428 31.104 132.252 31.248 134.172 31.536C 136.14 31.824 138.132 32.28 140.148 32.904L 140.148 32.616C 140.244 32.232 140.292 31.896 140.292 31.608C 140.292 31.32 140.292 31.008 140.292 30.672C 140.292 29.376 140.028 28.248 139.5 27.288C 139.02 26.328 138.372 25.536 137.556 24.912C 136.74 24.288 135.804 23.832 134.748 23.544C 133.74 23.208 132.684 23.04 131.58 23.04C 130.524 23.04 129.492 23.16 128.484 23.4C 127.476 23.64 126.564 24.024 125.748 24.552C 124.932 25.08 124.26 25.752 123.732 26.568C 123.204 27.336 122.916 28.272 122.868 29.376L 116.244 29.376C 116.388 27.264 116.892 25.416 117.756 23.832C 118.668 22.248 119.796 20.952 121.14 19.944C 122.532 18.888 124.092 18.096 125.82 17.568C 127.548 17.04 129.324 16.776 131.148 16.776C 133.26 16.776 135.252 17.064 137.124 17.64C 138.996 18.216 140.628 19.128 142.02 20.376C 143.46 21.624 144.588 23.232 145.404 25.2C 146.268 27.12 146.724 29.472 146.772 32.256L 146.772 32.616C 147.492 32.52 148.212 32.4 148.932 32.256C 149.7 32.112 150.492 31.944 151.308 31.752L 151.308 38.52L 146.844 39.24ZM 140.22 39.384C 139.932 39.384 139.404 39.288 138.636 39.096C 137.916 38.904 137.052 38.712 136.044 38.52C 135.084 38.28 134.028 38.064 132.876 37.872C 131.772 37.68 130.692 37.584 129.636 37.584C 128.82 37.584 127.932 37.68 126.972 37.872C 126.06 38.016 125.196 38.304 124.38 38.736C 123.612 39.168 122.964 39.72 122.436 40.392C 121.908 41.064 121.644 41.904 121.644 42.912C 121.644 43.728 121.86 44.472 122.292 45.144C 122.772 45.816 123.396 46.416 124.164 46.944C 124.932 47.424 125.82 47.808 126.828 48.096C 127.836 48.384 128.916 48.528 130.068 48.528C 131.412 48.528 132.684 48.312 133.884 47.88C 135.084 47.4 136.14 46.824 137.052 46.152C 138.012 45.48 138.756 44.76 139.284 43.992C 139.86 43.224 140.172 42.528 140.22 41.904L 140.22 39.384ZM 164.364 21.456C 164.892 20.448 165.564 19.632 166.38 19.008C 167.244 18.384 168.108 17.904 168.972 17.568C 169.884 17.232 170.748 17.016 171.564 16.92C 172.428 16.776 173.124 16.704 173.652 16.704C 177.108 16.704 179.892 17.136 182.004 18C 184.116 18.864 185.652 19.968 186.612 21.312C 187.284 20.4 188.076 19.656 188.988 19.08C 189.948 18.456 190.908 17.976 191.868 17.64C 192.828 17.256 193.716 17.016 194.532 16.92C 195.348 16.776 195.948 16.704 196.332 16.704C 198.828 16.704 200.964 17.04 202.74 17.712C 204.564 18.336 206.052 19.392 207.204 20.88C 208.356 22.32 209.196 24.216 209.724 26.568C 210.3 28.872 210.588 31.68 210.588 34.992L 210.588 53.928L 204.108 53.928L 204.108 34.776C 204.108 33.288 204.036 31.872 203.892 30.528C 203.748 29.136 203.412 27.912 202.884 26.856C 202.404 25.8 201.66 24.96 200.652 24.336C 199.692 23.664 198.348 23.28 196.62 23.184C 195.66 23.184 194.652 23.328 193.596 23.616C 192.588 23.904 191.652 24.408 190.788 25.128C 189.972 25.8 189.276 26.736 188.7 27.936C 188.172 29.136 187.908 30.624 187.908 32.4L 187.908 53.928L 181.428 53.928L 181.428 32.4C 181.428 31.536 181.356 30.6 181.212 29.592C 181.068 28.536 180.732 27.552 180.204 26.64C 179.724 25.728 178.98 24.96 177.972 24.336C 177.012 23.664 175.668 23.28 173.94 23.184C 172.788 23.184 171.636 23.352 170.484 23.688C 169.332 23.976 168.3 24.528 167.388 25.344C 166.476 26.112 165.732 27.216 165.156 28.656C 164.628 30.048 164.364 31.848 164.364 34.056L 164.364 54.072L 157.812 54.072L 157.812 18L 164.364 18L 164.364 21.456ZM 116.496 62.784C 116.448 64.368 116.184 65.856 115.704 67.248C 115.272 68.592 114.624 69.792 113.76 70.848C 112.896 71.856 111.792 72.672 110.448 73.296C 109.152 73.872 107.64 74.16 105.912 74.16C 103.272 74.16 100.512 73.632 97.632 72.576L 97.632 108L 91.512 108L 91.512 70.056C 90.456 69.672 89.328 69.36 88.128 69.12C 86.928 68.88 85.752 68.76 84.6 68.76C 83.352 68.76 82.2 68.976 81.144 69.408C 80.136 69.84 79.608 70.8 79.56 72.288L 73.44 72.288C 73.44 70.704 73.728 69.312 74.304 68.112C 74.928 66.912 75.744 65.928 76.752 65.16C 77.76 64.344 78.936 63.744 80.28 63.36C 81.672 62.928 83.16 62.712 84.744 62.712C 87.144 62.712 89.28 63 91.152 63.576C 93.072 64.104 94.824 64.704 96.408 65.376C 98.04 66.048 99.6 66.672 101.088 67.248C 102.624 67.776 104.208 68.04 105.84 68.04C 106.752 68.04 107.496 67.944 108.072 67.752C 108.648 67.56 109.08 67.272 109.368 66.888C 109.704 66.456 109.92 65.904 110.016 65.232C 110.16 64.56 110.256 63.744 110.304 62.784L 116.496 62.784ZM 151.286 104.256C 149.606 105.456 147.638 106.536 145.382 107.496C 143.126 108.408 140.558 108.864 137.678 108.864C 135.326 108.864 133.142 108.528 131.126 107.856C 129.158 107.136 127.43 106.128 125.942 104.832C 124.502 103.536 123.326 101.928 122.414 100.008C 121.55 98.088 121.07 95.904 120.974 93.456L 120.974 93.096C 120.206 93.192 119.414 93.264 118.598 93.312C 117.83 93.312 117.062 93.456 116.294 93.744L 116.294 87.192C 117.11 86.952 117.902 86.808 118.67 86.76C 119.438 86.712 120.23 86.64 121.046 86.544C 121.19 84.24 121.718 82.128 122.63 80.208C 123.542 78.288 124.766 76.632 126.302 75.24C 127.838 73.848 129.662 72.768 131.774 72C 133.886 71.232 136.214 70.848 138.758 70.848C 141.494 70.848 143.966 71.448 146.174 72.648C 147.854 73.608 149.246 74.928 150.35 76.608C 151.454 78.288 152.006 80.184 152.006 82.296C 152.006 84.504 151.262 86.568 149.774 88.488C 148.238 90.504 146.39 91.824 144.23 92.448C 142.118 93.024 139.814 93.312 137.318 93.312C 136.214 93.312 134.918 93.264 133.43 93.168C 131.99 93.072 130.67 93.024 129.47 93.024C 129.134 93.024 128.822 93.048 128.534 93.096C 128.246 93.096 127.982 93.12 127.742 93.168L 127.742 93.528C 127.742 96.36 128.678 98.52 130.55 100.008C 132.47 101.448 134.846 102.168 137.678 102.168C 139.118 102.168 140.438 102.048 141.638 101.808C 142.886 101.568 144.038 101.232 145.094 100.8C 146.198 100.368 147.254 99.864 148.262 99.288C 149.27 98.712 150.278 98.088 151.286 97.416L 151.286 104.256ZM 139.622 77.112C 138.134 77.112 136.694 77.304 135.302 77.688C 133.958 78.072 132.734 78.648 131.63 79.416C 130.574 80.184 129.686 81.168 128.966 82.368C 128.294 83.52 127.886 84.912 127.742 86.544L 131.63 86.4C 132.446 86.496 133.43 86.568 134.582 86.616C 135.782 86.616 136.934 86.616 138.038 86.616C 138.998 86.616 139.958 86.568 140.918 86.472C 141.878 86.328 142.718 86.088 143.438 85.752C 144.206 85.368 144.806 84.864 145.238 84.24C 145.718 83.616 145.958 82.824 145.958 81.864C 145.958 80.136 145.31 78.912 144.014 78.192C 142.718 77.472 141.254 77.112 139.622 77.112ZM 184.039 93.24C 184.039 95.064 184.039 96.864 184.039 98.64C 184.039 100.368 184.015 101.928 183.967 103.32C 183.967 104.664 183.967 105.768 183.967 106.632C 183.967 107.448 183.967 107.88 183.967 107.928L 177.343 107.928L 177.343 104.112C 175.951 105.84 174.271 107.064 172.303 107.784C 170.335 108.504 168.319 108.864 166.255 108.864C 164.575 108.864 162.895 108.6 161.215 108.072C 159.535 107.592 158.023 106.848 156.679 105.84C 155.335 104.832 154.255 103.584 153.439 102.096C 152.623 100.56 152.215 98.784 152.215 96.768C 152.215 94.704 152.551 92.928 153.223 91.44C 153.943 89.952 154.903 88.752 156.103 87.84C 157.351 86.88 158.791 86.184 160.423 85.752C 162.103 85.32 163.927 85.104 165.895 85.104C 167.623 85.104 169.447 85.248 171.367 85.536C 173.335 85.824 175.327 86.28 177.343 86.904L 177.343 86.616C 177.439 86.232 177.487 85.896 177.487 85.608C 177.487 85.32 177.487 85.008 177.487 84.672C 177.487 83.376 177.223 82.248 176.695 81.288C 176.215 80.328 175.567 79.536 174.751 78.912C 173.935 78.288 172.999 77.832 171.943 77.544C 170.935 77.208 169.879 77.04 168.775 77.04C 167.719 77.04 166.687 77.16 165.679 77.4C 164.671 77.64 163.759 78.024 162.943 78.552C 162.127 79.08 161.455 79.752 160.927 80.568C 160.399 81.336 160.111 82.272 160.063 83.376L 153.439 83.376C 153.583 81.264 154.087 79.416 154.951 77.832C 155.863 76.248 156.991 74.952 158.335 73.944C 159.727 72.888 161.287 72.096 163.015 71.568C 164.743 71.04 166.519 70.776 168.343 70.776C 170.455 70.776 172.447 71.064 174.319 71.64C 176.191 72.216 177.823 73.128 179.215 74.376C 180.655 75.624 181.783 77.232 182.599 79.2C 183.463 81.12 183.919 83.472 183.967 86.256L 183.967 86.616C 184.687 86.52 185.407 86.4 186.127 86.256C 186.895 86.112 187.687 85.944 188.503 85.752L 188.503 92.52L 184.039 93.24ZM 177.415 93.384C 177.127 93.384 176.599 93.288 175.831 93.096C 175.111 92.904 174.247 92.712 173.239 92.52C 172.279 92.28 171.223 92.064 170.071 91.872C 168.967 91.68 167.887 91.584 166.831 91.584C 166.015 91.584 165.127 91.68 164.167 91.872C 163.255 92.016 162.391 92.304 161.575 92.736C 160.807 93.168 160.159 93.72 159.631 94.392C 159.103 95.064 158.839 95.904 158.839 96.912C 158.839 97.728 159.055 98.472 159.487 99.144C 159.967 99.816 160.591 100.416 161.359 100.944C 162.127 101.424 163.015 101.808 164.023 102.096C 165.031 102.384 166.111 102.528 167.263 102.528C 168.607 102.528 169.879 102.312 171.079 101.88C 172.279 101.4 173.335 100.824 174.247 100.152C 175.207 99.48 175.951 98.76 176.479 97.992C 177.055 97.224 177.367 96.528 177.415 95.904L 177.415 93.384ZM 201.56 75.456C 202.088 74.448 202.76 73.632 203.576 73.008C 204.44 72.384 205.303 71.904 206.167 71.568C 207.079 71.232 207.944 71.016 208.76 70.92C 209.624 70.776 210.32 70.704 210.847 70.704C 214.303 70.704 217.088 71.136 219.2 72C 221.311 72.864 222.847 73.968 223.808 75.312C 224.48 74.4 225.272 73.656 226.184 73.08C 227.144 72.456 228.103 71.976 229.064 71.64C 230.024 71.256 230.912 71.016 231.728 70.92C 232.544 70.776 233.144 70.704 233.528 70.704C 236.024 70.704 238.159 71.04 239.935 71.712C 241.76 72.336 243.248 73.392 244.399 74.88C 245.551 76.32 246.392 78.216 246.919 80.568C 247.495 82.872 247.784 85.68 247.784 88.992L 247.784 107.928L 241.304 107.928L 241.304 88.776C 241.304 87.288 241.232 85.872 241.088 84.528C 240.944 83.136 240.607 81.912 240.079 80.856C 239.6 79.8 238.856 78.96 237.847 78.336C 236.887 77.664 235.543 77.28 233.815 77.184C 232.855 77.184 231.847 77.328 230.792 77.616C 229.784 77.904 228.847 78.408 227.983 79.128C 227.167 79.8 226.471 80.736 225.895 81.936C 225.368 83.136 225.103 84.624 225.103 86.4L 225.103 107.928L 218.624 107.928L 218.624 86.4C 218.624 85.536 218.552 84.6 218.407 83.592C 218.263 82.536 217.927 81.552 217.399 80.64C 216.919 79.728 216.175 78.96 215.167 78.336C 214.207 77.664 212.864 77.28 211.136 77.184C 209.983 77.184 208.831 77.352 207.679 77.688C 206.527 77.976 205.496 78.528 204.584 79.344C 203.672 80.112 202.927 81.216 202.351 82.656C 201.823 84.048 201.56 85.848 201.56 88.056L 201.56 108.072L 195.007 108.072L 195.007 72L 201.56 72L 201.56 75.456Z"/>
</defs>
</svg>
