<svg id="Layer_3" data-name="Layer 3" xmlns="http://www.w3.org/2000/svg" viewBox="0 0 351.93038 101.3638"><defs><style>.cls-1{fill:#1a171b;}</style></defs><title>kravchenko</title><path class="cls-1" d="M184.61549,100.77812h-4.81495l-.13833-2.93242h-.08279s-1.62681,3.43128-7.16972,3.43128a6.41623,6.41623,0,0,1-6.62131-6.381c0-9.21632,13.50646-6.234,13.50646-6.234,0-6.61254-6.50978-4.38412-9.8048-3.10414L168.32861,81.569c12.97165-4.62921,16.28687,1.19032,16.28687,7.00137Zm-5.32065-6.55653V91.48932a22.52962,22.52962,0,0,0-4.78769.063c-2.1224.2841-3.45016,1.64368-3.28521,3.27994C171.65237,99.102,178.13983,97.2225,179.29484,94.22158Z"/><path class="cls-1" d="M220.14185,57.36916h-4.81495l-.13833-2.93242h-.08279S213.479,57.868,207.93606,57.868a6.41623,6.41623,0,0,1-6.62131-6.381c0-9.21632,13.50646-6.234,13.50646-6.234,0-6.61254-6.50978-4.38412-9.8048-3.10414L203.855,38.16008c12.97165-4.62921,16.28687,1.19032,16.28687,7.00137Zm-5.32065-6.55653V48.08037a22.52962,22.52962,0,0,0-4.78769.063c-2.1224.2841-3.45016,1.64368-3.28521,3.27994C207.17874,55.69306,213.6662,53.81354,214.82121,50.81263Z"/><path class="cls-1" d="M123.53534,100.77767V71.43009H129.623V85.37234l10.99454-13.94225h7.08987L136.363,85.76269l11.93691,15.015h-7.50551L129.623,86.56107v14.21659Z"/><polygon class="cls-1" points="70.013 30.767 98.298 2.482 81.145 2.482 52.859 30.767 70.013 30.767"/><polygon class="cls-1" points="0 0 0 100.778 12.486 100.778 12.489 37.561 12.265 29.824 81.443 100.778 98.298 100.778 0 0"/><path class="cls-1" d="M164.08094,36.64009c5.28172,0,8.17437,3.60575,8.17437,8.259V57.351H166.4277V45.65446c0-2.72546-1.63367-3.98345-3.89783-3.98345a5.64868,5.64868,0,0,0-4.486,2.55726V57.351h-5.78047V37.22728H157.373v2.55726A8.706,8.706,0,0,1,164.08094,36.64009Z"/><path class="cls-1" d="M189.75954,36.64009c5.28172,0,8.17437,3.60575,8.17437,8.259V57.351H192.1063V45.65446c0-2.72546-1.63367-3.98345-3.89783-3.98345a5.64868,5.64868,0,0,0-4.486,2.55726V57.351l-5.78109-.04652V37.18076l5.1103.04652v2.55726A8.706,8.706,0,0,1,189.75954,36.64009Z"/><path class="cls-1" d="M163.90431,80.00191l1.34122,5.25766a7.99269,7.99269,0,0,0-8.80451,7.48811v8.02895h-5.82762V80.65292h4.977v5.67892C156.24635,83.614,159.765,79.69425,163.90431,80.00191Z"/><path class="cls-1" d="M210.202,80.65292l-8.30128,20.1237H195.779l-8.30128-20.1237H193.684l5.15683,13.96069,5.15481-13.96069Z"/><path class="cls-1" d="M240.90808,71.42905v11.069a8.719,8.719,0,0,1,6.03711-2.43237c5.28172,0,8.17437,3.60575,8.17437,8.259v12.45192h-5.82762V89.0801c0-2.72546-1.63367-3.98345-3.89783-3.98345a5.64868,5.64868,0,0,0-4.486,2.55726v13.12271H235.1427V71.42905Z"/><path class="cls-1" d="M296.10033,80.06573c5.28172,0,8.17437,3.60575,8.17437,8.259v12.45192h-5.82762V89.0801c0-2.72546-1.63367-3.98345-3.89783-3.98345a5.64868,5.64868,0,0,0-4.486,2.55726v13.12271H284.2798V80.65292h5.11262v2.55726A8.706,8.706,0,0,1,296.10033,80.06573Z"/><path class="cls-1" d="M341.28482,80.06571c-5.58322,0-10.6436,3.60584-10.6436,10.649,0,7.04339,5.06038,10.64911,10.6436,10.64911,5.62383,0,10.64556-3.60572,10.64556-10.64911C351.93038,83.67155,346.90865,80.06571,341.28482,80.06571ZM341.284,96.41484c-3.221,0-5.01562-2.45546-5.01562-5.70014,0-3.24444,1.79466-5.7,5.01562-5.7,3.262,0,5.05671,2.45559,5.05671,5.7C346.34067,93.95937,344.546,96.41484,341.284,96.41484Z"/><path class="cls-1" d="M269.94915,80.08331c-6.72268-.15718-10.80869,4.74413-10.80869,10.60221,0,6.49765,4.9715,10.66441,11.139,10.66441a12.18655,12.18655,0,0,0,7.34537-2.72647l.49971-.42376-2.36386-3.47534a7.8432,7.8432,0,0,1-5.48025,1.96034c-2.21543-.07788-5.16982-1.46463-5.66062-4.59033l15.16948.00007C279.8908,89.85235,279.74548,80.31236,269.94915,80.08331Zm-.24727,4.414a4.63962,4.63962,0,0,1,4.75269,4.68526h-9.8347A4.93321,4.93321,0,0,1,269.70188,84.49733Z"/><path class="cls-1" d="M222.13494,95.99164a5.36167,5.36167,0,0,1-.06012-10.7217,5.90057,5.90057,0,0,1,4.64248,2.4109l4.62235-2.62588a10.96024,10.96024,0,0,0-9.26483-5.0453A10.62254,10.62254,0,1,0,231.302,96.18508l-4.60091-2.62495A5.635,5.635,0,0,1,222.13494,95.99164Z"/><path class="cls-1" d="M142.72771,57.351h6.2686l-14.341-29.65443H134.219L119.93974,57.351h6.18764l2.40079-4.97783H140.345Zm-12.19134-9.142,3.15442-6.54073.66936-1.87312.16963-.00086.69125,1.87447,3.13069,6.54024Z"/><polygon class="cls-1" points="321.249 89.873 328.027 80.639 322.189 80.639 315.291 89.828 315.291 71.429 309.511 71.429 309.511 100.777 315.291 100.777 315.291 90.733 322.802 100.777 329.645 100.777 321.249 89.873"/></svg>