<svg id="Layer_1" data-name="Layer 1" xmlns="http://www.w3.org/2000/svg" viewBox="0 0 399.7104 219.25162"><title>maxim-gilyov</title><path d="M100.268,105.47312c-1.52885,1.66841-3.15223,3.26063-4.56957,5.01891a43.01378,43.01378,0,0,0-8.95029,21.783c-1.25456,9.35887-.75042,18.61753,2.46292,27.56477,5.33319,14.84974,16.06307,23.39906,31.44481,26.10729a61.59668,61.59668,0,0,0,25.47062-.91548c3.65335-.89124,3.63434-.96916,3.63434-4.695V149.79359H126.67952V138.05568h37.48131v1.27794q0,26.038.02528,52.076a1.53914,1.53914,0,0,1-1.25254,1.75635,105.21111,105.21111,0,0,1-36.51773,5.7582c-9.97862-.27085-19.62125-2.06191-28.542-6.78986-12.31274-6.5257-20.26506-16.66-24.22936-29.9043-4.71166-15.74115-4.34376-31.34065,2.23244-46.53422A51.67828,51.67828,0,0,1,98.73522,90.64053a1.60741,1.60741,0,0,0,.97081-1.76389c-1.03968-18.9662-2.24251-37.92672-2.24147-56.934a1.84972,1.84972,0,0,0-.32834-1.13769,5.278,5.278,0,0,0-.37665.79112C90.30668,53.858,82.05939,75.50233,74.15974,97.26609c-3.74588,10.32-7.52474,20.628-11.25357,30.95411-.30039.83186-.64365,1.18583-1.58585,1.16436-3.0382-.06932-6.07912-.04255-9.11859-.01257a1.03985,1.03985,0,0,1-1.20887-.8171C42.42874,102.87908,33.77113,77.23414,25.31159,51.524c-2.13069-6.47558-3.6355-13.157-5.43166-19.74287a2.16338,2.16338,0,0,0-.44566-.87723c-.91331,33.08061-3.37884,66.062-5.365,99.11055H0L7.949,16.14523c.44011-.02275.79-.0564,1.14-.05661,5.55958-.0033,11.11919.0076,16.67868-.01511.67988-.00278,1.064.13678,1.31356.85341,7.53521,21.63966,15.22633,43.22624,22.58538,64.92546,2.95839,8.72323,5.19571,17.691,7.76413,26.54661.11269.38852.25447.7686.38271,1.15263l.29506-.02606a6.5507,6.5507,0,0,0,.3315-.82055c4.291-16.60789,10.01074-32.74734,15.96318-48.81242q7.90638-21.33859,15.7239-42.71a1.41537,1.41537,0,0,1,1.609-1.11974c5.63918.047,11.27895.02372,16.91851.02714.19378.00012.38755.036.70446.0674q2.13717,34.24452,4.27554,68.50844c16.02672-3.42253,31.70657-2.908,47.18764,3.01782-1.23286,4.15618-2.40639,8.11238-3.50377,11.81184-4.03336-1.14587-7.88036-2.54226-11.84909-3.30658a63.01936,63.01936,0,0,0-29.68185.96413c-1.1546.33114-1.36654.838-1.29394,1.91712q.96609,14.36223,1.84339,28.73039c.04452.70923.00584,1.4237.00584,2.20692H102.06512q-.70316-12.13684-1.40938-24.32657Z"/><path d="M276.48083,76.03507c-.34693.01855-.57729.0414-.80769.04159-2.91671.00243-5.83342.0016-9.02786.0016V21.42533h8.35239c.16061,2.89978.319,5.75918.47739,8.61859l.26065.12093c.24876-.363.50877-.71879.74464-1.09A18.807,18.807,0,0,1,297.73987,20.859a15.77224,15.77224,0,0,1,10.17472,8.9922c.15246.32474.29089.65609.44473.98014a1.42567,1.42567,0,0,0,.2165.23976c.24812-.3771.49087-.73151.71909-1.095,5.43864-8.66388,14.29957-11.33275,22.28728-9.08639,6.461,1.817,9.99264,6.54541,11.85771,12.73046A35.62212,35.62212,0,0,1,344.75541,43.932q.02281,15.538.004,31.076c-.00009.31368-.03961.62736-.065,1.004h-9.65355V74.64265q0-14.69811.00126-29.39622a28.10608,28.10608,0,0,0-1.20536-8.87143c-1.28933-3.92281-3.60542-6.88036-7.84547-7.791a11.546,11.546,0,0,0-11.59538,3.80358,14.81136,14.81136,0,0,0-3.72293,10.46771c.02792,10.55856.00943,21.11726.0094,31.6759v1.48213h-9.72152V74.63949c0-10.39866.06606-20.79806-.04887-31.19544a25.91816,25.91816,0,0,0-1.07687-7.30422c-2.91557-9.3957-12.95818-9.67482-18.262-4.64066a15.518,15.518,0,0,0-5.08688,11.62773q-.02514,15.65793-.00536,31.316Z"/><path d="M331.965,165.87476c-.00442,6.08521-.87542,11.12982-3.32757,15.79409-4.27705,8.13546-11.202,12.45333-20.16357,13.68233a26.42808,26.42808,0,0,1-15.19626-2.24871A24.23741,24.23741,0,0,1,280.15475,177.696a34.32783,34.32783,0,0,1,.333-21.67941,25.43125,25.43125,0,0,1,24.05089-17.51931c8.72678-.20376,16.18811,2.52587,21.70553,9.5741A28.97006,28.97006,0,0,1,331.965,165.87476Zm-43.29018,1.37382a24.05613,24.05613,0,0,0,4.145,14.18679c2.94234,4.16033,6.93059,6.61443,12.10055,6.68982,6.25523.0912,10.86231-2.98887,13.6894-8.33061,4.67915-8.84117,4.38132-17.80592-.418-26.56337a13.86323,13.86323,0,0,0-6.29206-5.89047,15.32826,15.32826,0,0,0-19.96383,6.49251A26.548,26.548,0,0,0,288.67486,167.24858Z"/><path d="M172.424,76.0229h-8.707c-.27561-2.28475-.54561-4.523-.84976-7.04436-.42306.47651-.67819.7476-.91544,1.03352a21.022,21.022,0,0,1-22.53533,6.21535,15.2107,15.2107,0,0,1-10.16525-14.8882c.15674-7.11943,3.536-12.19168,9.70058-15.52438a37.91931,37.91931,0,0,1,14.43907-4.03652c2.81405-.28575,5.64669-.38854,8.47343-.57393.72211-7.67528-3.05092-13.10748-10.41883-13.6177a26.4814,26.4814,0,0,0-15.183,3.50757c-.23769.13469-.4858.25094-.8194.42212-.7496-2.16621-1.47735-4.26924-2.22429-6.42772a5.34269,5.34269,0,0,1,.64585-.49482,33.18257,33.18257,0,0,1,24.2-3.59216c7.41814,1.71575,11.49984,6.8484,13.00163,14.10454a38.79988,38.79988,0,0,1,.74084,7.25406c.098,6.63572-.03693,13.27483.05821,19.91063C171.93048,66.81861,172.22641,71.363,172.424,76.0229Zm-10.24-27.894c-2.6561.13384-5.17585.16579-7.67489.40983a24.62885,24.62885,0,0,0-9.84308,2.75321,10.06207,10.06207,0,0,0-5.37558,7.62654c-.74253,4.98081,1.64814,9.23155,6.00183,10.55485,7.44938,2.26425,15.99094-3.1155,16.82993-10.84424A99.62208,99.62208,0,0,0,162.184,48.12886Z"/><path d="M223.24224,139.6794c3.50288,0,6.82137-.03148,10.13733.04515.36056.00834.87814.57674,1.03425.99349,3.40295,9.08438,6.82,18.16424,10.11229,27.289,1.71961,4.766,3.20587,9.6162,4.798,14.42823.05889.178.12267.35442.20446.59013,4.83006-14.47392,9.63173-28.86277,14.44395-43.28314h10.44785a3.45746,3.45746,0,0,1-.11906.62553c-6.46125,16.71935-12.88187,33.45461-19.42061,50.14364a77.74814,77.74814,0,0,1-7.95158,15.414c-4.03863,5.94614-9.2182,10.47855-16.14334,12.78957-.631.21057-1.289.34025-2.04683.53662-.84082-2.81533-1.64723-5.51544-2.47409-8.284.34206-.15549.61469-.29508.89848-.40616,7.98255-3.12489,13.294-8.89824,16.60269-16.68207.58371-1.37319.11446-2.59061-.37014-3.81253q-3.15708-7.96025-6.35689-15.90356-6.66927-16.617-13.34511-33.23147C223.54778,140.568,223.427,140.19393,223.24224,139.6794Z"/><path d="M205.41722,54.28463c-3.30568,5.24671-6.55915,10.41892-9.82222,15.58505q-1.72857,2.73665-3.5044,5.44315c-.19939.30253-.54107.7236-.82225.72765-3.45948.05-6.91992.03259-10.55728.03259.33891-.52583.55885-.89086.80152-1.24011q8.929-12.85111,17.87963-25.687a1.45033,1.45033,0,0,0,.013-1.97453q-8.4578-12.15616-16.84882-24.35878c-.28808-.41724-.56077-.84512-.96357-1.45387,2.92534,0,5.67328.15221,8.39486-.05028a3.98363,3.98363,0,0,1,4.17067,2.25948c3.71212,6.01832,7.60482,11.92526,11.43107,17.87312.12636.19645.27434.379.49425.68041.22966-.31185.42041-.54077.57876-.79026Q212.764,31.71785,218.8819,22.115a1.72129,1.72129,0,0,1,1.19271-.72331c3.23747-.059,6.4765-.03279,10.00935-.03279L211.47663,47.816c6.37115,9.39153,12.69426,18.71229,19.17322,28.26278h-2.40272c-2.5996,0-5.19993-.03464-7.79837.02025a1.74916,1.74916,0,0,1-1.72422-.94467Q212.25987,64.91813,205.73491,54.72C205.65152,54.58907,205.552,54.46839,205.41722,54.28463Z"/><path d="M337.00592,139.67921c3.375,0,6.61321.03313,9.85-.02152.89613-.01512.9237.60513,1.10745,1.13109,2.58041,7.38718,5.19715,14.76223,7.70566,22.17384,2.35418,6.95581,4.59059,13.95148,6.88046,20.92907.049.14925.11774.292.24932.61427a6.527,6.527,0,0,0,.39826-.76765q5.90832-17.34416,11.80764-34.69137c.95238-2.79664,1.9495-5.57833,2.87358-8.38418.23215-.70484.51574-1.01895,1.32038-1.00521,3.07717.05254,6.15571.02124,9.35763.02124-.131.40894-.21732.73975-.34107,1.05589q-10.30293,26.3234-20.598,52.64982c-.28225.72294-.58939,1.0643-1.44571,1.03985-2.51786-.07188-5.03936-.046-7.5588-.01163a1.07813,1.07813,0,0,1-1.22906-.79963Q347.3248,167.004,337.22652,140.40983C337.15747,140.22778,337.11291,140.03646,337.00592,139.67921Z"/><path d="M213.76423,194.34066h-9.81656V114.28887h9.81656Z"/><path d="M240.43111,21.38829h9.80165V75.9917h-9.80165Z"/><path d="M177.57187,139.73278h9.80593v54.604h-9.80593Z"/><path d="M251.31959,6.22c.0319,3.6213-2.45991,6.044-6.22925,6.05654A5.87469,5.87469,0,0,1,239.04206,6.239,6.05046,6.05046,0,0,1,245.21151.00011C248.81793-.01886,251.28678,2.49516,251.31959,6.22Z"/><path d="M188.43956,124.52867c.03523,3.6253-2.45082,6.05136-6.21788,6.06785a5.87514,5.87514,0,0,1-6.05962-6.02621,6.05034,6.05034,0,0,1,6.15812-6.2502C185.92892,118.29669,188.40339,120.80722,188.43956,124.52867Z"/><path d="M269.0014,205.71687h2.07287v11.41771H256.86874v-11.359h1.95012V215.47h4.10736v-9.73078h2.02266v9.72167h4.05252Z"/><path d="M153.36083,221.93565h-2.02846a3.58264,3.58264,0,0,1-.08013-.51015c-.00372-5.191-.00309-10.38209-.00309-15.65979h1.78006l.15129,1.68606c.24435-.20947.443-.35506.61267-.529a4.71005,4.71005,0,0,1,7.623,1.011,6.9535,6.9535,0,0,1-.10953,6.99732c-1.667,2.92619-5.21517,3.34652-7.9458.81757v6.187Zm-.236-10.40054.23616.07383c0,.23914-.00289.47833.00045.71742a3.29106,3.29106,0,0,0,6.47247.99461,5.57825,5.57825,0,0,0-.31843-4.52,3.12334,3.12334,0,0,0-5.42515-.24661A12.53129,12.53129,0,0,0,153.12483,211.53511Z"/><path d="M388.97957,205.80829c-1.48822,1.71951-2.89236,3.34189-4.30934,4.97908,2.69317,1.2893,3.0058,1.73638,4.4245,6.26-1.88707.38622-1.94692.35049-2.60429-1.35447a14.4803,14.4803,0,0,0-.83109-1.9824,2.9266,2.9266,0,0,0-3.21413-1.48934v4.89246h-2.05014V212.2337c-1.84011-.12677-2.77107.38326-3.48489,1.87652-.24053.50316-.41915,1.036-.62552,1.55542-.65628,1.65211-.65616,1.65215-2.69859,1.43568,1.23809-2.309,1.204-5.4115,4.66488-6.20568l-4.4228-5.105c1.33257-.20544,2.38972-.32933,3.17229.97664a34.24827,34.24827,0,0,0,2.37419,3.16153,1.93178,1.93178,0,0,0,.97181.73959v-4.90607h2.09563V210.642l.28509.11626c.43283-.53153.87311-1.05721,1.29653-1.59612a15.91025,15.91025,0,0,0,1.51436-2.00818A2.6607,2.6607,0,0,1,388.97957,205.80829Z"/><path d="M123.65655,211.01676a10.75335,10.75335,0,0,1,1.47715.73891,2.84245,2.84245,0,0,1-.774,4.94137c-2.35334,1.03232-4.83192.82611-7.389.52737V205.90768c2.01215,0,3.99078-.05927,5.96215.03428a3.80806,3.80806,0,0,1,1.85805.7325,2.20508,2.20508,0,0,1,.0034,3.66316A12.20076,12.20076,0,0,1,123.65655,211.01676Zm-4.72421.752v4.37528a23.05687,23.05687,0,0,0,3.929-.62713,2.13292,2.13292,0,0,0,1.12418-1.67732,2.16823,2.16823,0,0,0-1.2423-1.60115A21.75024,21.75024,0,0,0,118.93234,211.76877Zm-.03817-1.13355a26.344,26.344,0,0,0,3.7152-.59084,1.809,1.809,0,0,0,.94828-1.39727,1.63709,1.63709,0,0,0-1.02233-1.20576,28.36471,28.36471,0,0,0-3.64115-.36981Z"/><path d="M327.89544,217.41472v-11.4438a15.271,15.271,0,0,1,6.76553.15308c1.8.56921,2.59714,2.11185,1.7272,3.45914a8.7476,8.7476,0,0,1-1.65861,1.51437c.22761.09135.54188.19667.83795.33964a2.74146,2.74146,0,0,1,.36615,4.84862,10.64959,10.64959,0,0,1-3.844,1.08892A32.47191,32.47191,0,0,1,327.89544,217.41472Zm2.00147-5.64113v4.37594a23.09981,23.09981,0,0,0,3.936-.63816,2.12911,2.12911,0,0,0,1.11237-1.6841,2.17311,2.17311,0,0,0-1.25435-1.59275A21.648,21.648,0,0,0,329.89691,211.77359Zm-.012-4.728v3.5855a25.97831,25.97831,0,0,0,3.6849-.587,1.80876,1.80876,0,0,0,.94775-1.39753,1.64362,1.64362,0,0,0-1.02328-1.206A27.60051,27.60051,0,0,0,329.88493,207.0456Z"/><path d="M339.90224,217.078V205.76928h1.81014v9.251c.34444-.5452.52178-.81208.68537-1.08712,1.5116-2.54073,3.011-5.08879,4.53659-7.621.4752-.7887.56511-.78129,2.76375-.53208v11.35726h-1.87327v-9.27845c-1.38249,2.33086-2.63426,4.44186-3.88676,6.55244a8.56125,8.56125,0,0,0-.72674,1.23905C342.60405,217.24219,341.42819,217.47357,339.90224,217.078Z"/><path d="M205.45272,217.1082v-4.53346c-2.70149-.57385-3.908.0612-4.83722,2.48-.05733.14924-.11769.29732-.17464.44667-.69776,1.82944-.69768,1.82947-2.92966,1.60137,1.25146-1.75956,1.12324-4.28848,3.53916-5.30906-.211-.103-.34-.17783-.47733-.23125-1.65464-.6433-2.40557-1.59261-2.32676-2.94754a3.06987,3.06987,0,0,1,2.56141-2.80211,16.33732,16.33732,0,0,1,6.68925-.10236V217.1082Zm-.11043-6.029v-4.27592c-1.21261.10373-2.32739.119-3.40885.31657-.886.16185-1.66761.79317-1.46682,1.73023a2.6216,2.6216,0,0,0,1.35168,1.71353A17.0311,17.0311,0,0,0,205.34229,211.07921Z"/><path d="M296.40036,211.41353c-.0397,3.55106-2.44811,6.0589-5.78256,6.02133-3.27381-.0369-5.52519-2.486-5.49656-5.97921.02927-3.57253,2.41658-6.06012,5.77-6.01226C294.1796,205.49029,296.43921,207.939,296.40036,211.41353Zm-9.16233.10254c.01512,2.50185,1.49924,4.36137,3.48779,4.37005,1.9115.00835,3.44273-1.84417,3.51363-4.2508.07831-2.65765-1.37162-4.61278-3.44306-4.64266C288.68022,206.96213,287.22171,208.8162,287.238,211.51607Z"/><path d="M148.56022,211.464c-.06313,3.54309-2.50358,6.04116-5.83286,5.97064-3.27463-.06936-5.49576-2.52845-5.446-6.02947.05061-3.56536,2.46806-6.04135,5.82041-5.96139C146.38639,205.52212,148.62216,207.988,148.56022,211.464Zm-9.16217.023c.0068,2.50739,1.46769,4.365,3.45876,4.398,1.94972.03236,3.50421-1.87172,3.54353-4.34038.04144-2.60388-1.38006-4.4982-3.41495-4.55077C140.86848,206.93922,139.39073,208.7901,139.398,211.487Z"/><path d="M111.50141,209.455c-.09987-2.47613-1.85872-3.087-5.705-1.76829l-.52126-1.20989a6.82462,6.82462,0,0,1,6.25576-.53124c1.68444.75312,2.07176,2.32559,2.08762,4.00374.02228,2.355.00562,4.71044.00562,7.15783h-1.67588l-.18116-1.063a18.20206,18.20206,0,0,1-2.761,1.25411,3.4933,3.4933,0,0,1-2.434-6.543A34.607,34.607,0,0,1,111.50141,209.455Zm.09853,1.47974a30.65934,30.65934,0,0,0-3.93443,1.02785,1.97311,1.97311,0,0,0-1.04711,2.43416,1.85222,1.85222,0,0,0,1.80842,1.47886,2.9171,2.9171,0,0,0,3.16834-2.72476C111.62478,212.5579,111.59994,211.96219,111.59994,210.93478Z"/><path d="M195.41633,217.15194h-1.628l-.17629-1.10486a18.38251,18.38251,0,0,1-2.77966,1.2549,3.49374,3.49374,0,0,1-2.40776-6.55362,33.89717,33.89717,0,0,1,4.86674-1.2751c.19107-2.385-1.75318-3.09277-5.66111-1.79333l-.50719-1.19944a6.9741,6.9741,0,0,1,6.04471-.63083A3.4591,3.4591,0,0,1,195.397,209.247C195.46737,211.83888,195.41633,214.43408,195.41633,217.15194Zm-1.97911-6.22374a32.08929,32.08929,0,0,0-3.88106,1.002,1.9883,1.9883,0,0,0-1.11111,2.40836,1.81787,1.81787,0,0,0,1.64457,1.50958,2.93281,2.93281,0,0,0,3.33787-2.51824C193.48589,212.66574,193.43723,211.99216,193.43723,210.9282Z"/><path d="M319.54548,217.14738h-1.68454l-.1749-1.10856a17.9728,17.9728,0,0,1-2.67516,1.23847,3.50855,3.50855,0,0,1-2.38705-6.59823,33.866,33.866,0,0,1,4.75693-1.18906c.133-2.424-1.706-3.08729-5.57414-1.85152-.7367-1.17958-.72533-1.28918.54272-1.70467a9.58572,9.58572,0,0,1,2.21728-.46966c3.19992-.248,4.90649,1.31643,4.97373,4.51748.0252,1.19859.00489,2.39815.00507,3.59728C319.54563,214.73237,319.54548,215.88582,319.54548,217.14738Zm-2.03739-6.19132a31.15854,31.15854,0,0,0-3.88014.98035,1.98116,1.98116,0,0,0-1.10083,2.4117,1.81928,1.81928,0,0,0,1.65214,1.50171,2.93316,2.93316,0,0,0,3.31506-2.41121A24.4555,24.4555,0,0,0,317.50809,210.95606Z"/><path d="M363.99944,207.67627c-.126-.31274-.23766-.56612-.3283-.82682a2.3,2.3,0,0,1-.04875-.43156,6.94548,6.94548,0,0,1,5.9659-.55923,3.4729,3.4729,0,0,1,2.21186,3.41063c.06873,2.58949.0189,5.18212.0189,7.85188h-1.64215l-.1713-1.08218a17.96722,17.96722,0,0,1-2.67894,1.23939,3.50876,3.50876,0,0,1-2.37926-6.60149,33.89185,33.89185,0,0,1,4.75582-1.186C369.82284,207.0619,368.00808,206.4086,363.99944,207.67627Zm5.83772,3.25238a32.11833,32.11833,0,0,0-3.87981,1.00088,1.98838,1.98838,0,0,0-1.11264,2.40769,1.81763,1.81763,0,0,0,1.64353,1.51058,2.9328,2.9328,0,0,0,3.33914-2.5165C369.88606,212.66706,369.83717,211.99332,369.83717,210.92865Z"/><path d="M391.82641,207.637l-.44628-1.16788a6.78088,6.78088,0,0,1,6.22479-.526c1.6868.74963,2.077,2.32134,2.09347,3.99967.02309,2.35507.0058,4.71057.0058,7.16112h-1.66954c-.06363-.35339-.13184-.73235-.1909-1.0605a18.10574,18.10574,0,0,1-2.75124,1.25323,3.47462,3.47462,0,0,1-4.29357-1.91851,3.59421,3.59421,0,0,1,1.83812-4.646,9.66243,9.66243,0,0,1,2.37981-.74673c.81316-.17165,1.655-.20755,2.4806-.30255C397.77376,207.14356,396.15613,206.55391,391.82641,207.637Zm5.85311,3.30757a30.97515,30.97515,0,0,0-3.91,1.00289,1.97737,1.97737,0,0,0-1.07771,2.42162,1.84591,1.84591,0,0,0,1.78676,1.50246,2.91836,2.91836,0,0,0,3.19562-2.69208C397.70708,212.58434,397.67951,211.98589,397.67951,210.94455Z"/><path d="M305.80029,207.39535h-4.11858c0,1.613.05593,3.19746-.021,4.77539a11.42361,11.42361,0,0,1-.482,2.81515,3.36,3.36,0,0,1-3.51958,2.39027c-.07008-.45259-.14194-.917-.23068-1.4902,2.08022-.58472,2.27358-2.31015,2.31539-4.06978.04729-1.99085.0109-3.9837.0109-6.05626h8.025v11.358h-1.97944Z"/><path d="M185.04795,217.11441c-2.58475.149-2.04688.41539-3.05747-1.91322-1.02209-2.35513-2.1664-3.18735-4.361-2.93048v4.83595h-2.0803V205.77338h2.00993v5.17126a6.94536,6.94536,0,0,0,.92613-.68511,33.12932,33.12932,0,0,0,2.80217-3.26852c.91352-1.34433,2.07094-1.51528,3.87772-1.13473l-5.26346,4.62809.17.38177C183.44625,211.64112,183.805,214.67153,185.04795,217.11441Z"/><path d="M278.91921,210.87715c3.41235.76475,3.75123,3.80162,4.9974,6.19862-2.16325.30995-2.16325.30995-3.04412-1.8398-.97963-2.39079-2.09725-3.178-4.38217-2.992v4.89565h-2.051V205.73917H276.455v5.20223a7.92916,7.92916,0,0,0,.96735-.7476,29.86548,29.86548,0,0,0,2.722-3.17892c.9063-1.36018,2.07864-1.52709,3.65763-1.233C282.15174,207.50394,280.57141,209.153,278.91921,210.87715Z"/><path d="M354.44655,211.95195c-.07216-.50145-.12762-.887-.19289-1.34046.84012-.115,1.62759-.16288,2.38415-.34163.91477-.21612,1.6984-.7334,1.60148-1.78724a1.66162,1.66162,0,0,0-1.90479-1.45148,25.48083,25.48083,0,0,0-3.18308.46644l-.41115-.84237a6.10447,6.10447,0,0,1,6.344-.58679,2.52767,2.52767,0,0,1,.05423,4.49089c-.26344.168-.54524.30725-.8652.48584,2.11315.7741,2.8686,1.639,2.77963,3.14027a2.874,2.874,0,0,1-1.82575,2.59686,7.983,7.983,0,0,1-6.8816-.24875c.18451-.47624.336-.8673.51316-1.32448.58875.18051,1.10329.38164,1.63667.48973a7.22491,7.22491,0,0,0,1.66063.17552c1.56062-.053,2.58375-.82315,2.63947-1.91317.05622-1.10083-.84258-1.83658-2.51739-2C355.69179,211.90387,355.09519,211.95195,354.44655,211.95195Z"/><path d="M172.8845,215.27294l.32087,1.39225a6.47291,6.47291,0,0,1-7.752-1.15645,6.66132,6.66132,0,0,1,.01982-7.91341,6.50576,6.50576,0,0,1,7.77327-1.46833l-.4109,1.42c-2.20288-.62165-4.3793-.89609-5.82146,1.2918a4.49827,4.49827,0,0,0-.01107,5.20065C168.46788,216.22882,170.62793,215.96776,172.8845,215.27294Z"/><path d="M136.50687,205.74716v1.58089h-3.50137v9.79764h-2.13284V207.386h-3.53834v-1.63881Z"/></svg>