<svg id="_Слой_" data-name="&lt;Слой&gt;" xmlns="http://www.w3.org/2000/svg" viewBox="0 0 488.87 187.78"><defs><style>.cls-1,.cls-2{fill:#3b8bc6;}.cls-2{fill-rule:evenodd;}</style></defs><title>nouvelle_logo</title><polygon class="cls-1" points="373.36 52.7 381.41 52.7 381.41 142.21 373.36 142.21 373.36 52.7 373.36 52.7"/><path class="cls-2" d="M471.5,34.2a5.05,5.05,0,1,0-5.06,5.06,5.07,5.07,0,0,0,5.06-5.06Zm1.29,0a6.35,6.35,0,1,1-6.35-6.37,6.37,6.37,0,0,1,6.35,6.37Z"/><path class="cls-2" d="M463.72,37.93V30.41h3.33a4.47,4.47,0,0,1,1.53.2,1.67,1.67,0,0,1,.83.72,2.13,2.13,0,0,1,.31,1.13,1.91,1.91,0,0,1-.51,1.35,2.63,2.63,0,0,1-1.6.7,2.48,2.48,0,0,1,.6.37,5.16,5.16,0,0,1,.83,1l1.3,2h-1.24l-1-1.56c-.29-.45-.53-.8-.72-1a2.21,2.21,0,0,0-.51-.5,1.46,1.46,0,0,0-.45-.2,3,3,0,0,0-.55,0h-1.15v3.34Zm1-4.2h2.14a3.21,3.21,0,0,0,1.06-.14,1.12,1.12,0,0,0,.58-.45,1.21,1.21,0,0,0,.2-.67,1.13,1.13,0,0,0-.38-.88,1.82,1.82,0,0,0-1.22-.34h-2.38v2.49Z"/><path class="cls-2" d="M463.72,37.93V30.41h3.33a4.47,4.47,0,0,1,1.53.2,1.67,1.67,0,0,1,.83.72,2.13,2.13,0,0,1,.31,1.13,1.91,1.91,0,0,1-.51,1.35,2.63,2.63,0,0,1-1.6.7,2.48,2.48,0,0,1,.6.37,5.16,5.16,0,0,1,.83,1l1.3,2h-1.24l-1-1.56c-.29-.45-.53-.8-.72-1a2.21,2.21,0,0,0-.51-.5,1.46,1.46,0,0,0-.45-.2,3,3,0,0,0-.55,0h-1.15v3.34Zm1-4.2h2.14a3.21,3.21,0,0,0,1.06-.14,1.12,1.12,0,0,0,.58-.45,1.21,1.21,0,0,0,.2-.67,1.13,1.13,0,0,0-.38-.88,1.82,1.82,0,0,0-1.22-.34h-2.38v2.49Z"/><polygon class="cls-1" points="62.14 50.15 70.46 48.53 70.46 144.36 70.19 144.36 8.59 70.01 8.32 70.01 8.32 142.21 0 143.29 0 48 0.27 48 61.87 121.95 62.14 121.95 62.14 50.15 62.14 50.15"/><path class="cls-1" d="M154.48,108.53c0,18.12-14.63,35.3-34.49,35.3S85.5,126.65,85.5,108.53s14.63-35.3,34.49-35.3,34.49,17.18,34.49,35.3Zm-61.2,0c0,14.36,11.54,27.51,26.7,27.51s26.71-13.15,26.71-27.51S135.15,81,120,81s-26.7,13.15-26.7,27.51Z"/><path class="cls-1" d="M175,73.23v44.7c0,12.08,4.83,18.92,16.37,18.92,12.62,0,20.67-4.56,20.67-31.68V74.84l7.79-1.61v69L212,143.29V132.15h-.27c-2.68,6-10.73,11.68-21.07,11.68-17,0-23.49-9.66-23.49-25v-44L175,73.23Z"/><polygon class="cls-1" points="259.57 125.04 283.86 73.23 292.18 74.84 259.7 143.82 259.43 143.82 226.96 74.84 234.47 73.23 259.57 125.04 259.57 125.04"/><path class="cls-1" d="M351.48,140.87a72.74,72.74,0,0,1-21.07,2.82c-20,0-32.74-13-32.74-34.62,0-28.19,19.19-34.63,32.74-34.63,8.05,0,26.44,4,26.44,31.27H305.72v3.36c0,14.76,6.44,28.72,24.69,28.72,13.29,0,15.84-1.75,22.28-4l-1.21,7.11Zm-2.68-40.4c0-13.42-7.65-20.8-19.19-20.8-13.16,0-21.74,8.05-23.49,20.8Z"/><polygon class="cls-1" points="403.54 52.7 411.59 52.7 411.59 142.21 403.54 142.21 403.54 52.7 403.54 52.7"/><path class="cls-1" d="M483.5,140.87a72.75,72.75,0,0,1-21.07,2.82c-20,0-32.75-13-32.75-34.62,0-28.19,19.19-34.63,32.75-34.63,8.05,0,26.44,4,26.44,31.27H437.74v3.36c0,14.76,6.44,28.72,24.7,28.72,13.29,0,15.84-1.75,22.28-4l-1.21,7.11Zm-2.68-40.4c0-13.42-7.65-20.8-19.19-20.8-13.15,0-21.74,8.05-23.49,20.8Z"/><path class="cls-1" d="M448.79,8.74C427.52-.16,398-.8,368.11,8.89c-30.1,9.76-53.75,27.81-65.66,47.67l1.16-.1c15.68-17,42.5-29.93,73.95-33.4,31.22-3.45,60,3.16,79,16.18l-7.8-30.5Z"/><path class="cls-1" d="M17.15,179.33c0,.41-.07.52-.52.52h-3.7c-.45,0-.52-.11-.52-.52V167.8c0-1.42-.19-3.14-2.1-3.14A5.12,5.12,0,0,0,7,166.2v13.13c0,.41-.08.52-.52.52H2.78c-.45,0-.52-.11-.52-.52V168c0-5.27-.71-5-.71-5.84,0-.19.15-.34.41-.41l2.84-.94a1.81,1.81,0,0,1,.56-.11c.49,0,.79.82,1.2,2.58a8.07,8.07,0,0,1,5.72-2.58c2.06,0,4.86.94,4.86,5.46Z"/><path class="cls-1" d="M54.93,177.87a.76.76,0,0,1,.11.41c0,1-3.74,2.21-6.7,2.21-4.94,0-8.38-2.81-8.38-9.69,0-5.95,3.18-10.06,8.19-10.06,6.36,0,7.48,5.69,7.48,10.21,0,.71-.15.93-.86.93H44.72c0,2.1.6,4.68,4.12,4.68,2.69,0,4.23-1.23,4.75-1.23a.49.49,0,0,1,.41.3Zm-4.34-9.46c0-1.53-.11-4.19-2.69-4.19-2.92,0-3.07,3.14-3.18,4.19Z"/><path class="cls-1" d="M82.13,169.86a63.27,63.27,0,0,1,.82,6.32H83a43.65,43.65,0,0,1,.71-5.84L85.46,162c.11-.56.15-.6.71-.6H89.5c.56,0,.6,0,.71.6l1.65,8.38a44.44,44.44,0,0,1,.71,5.84h.07a51.27,51.27,0,0,1,.82-6.32l1.8-8.08c.07-.37.22-.75.52-.75l.6,0,2.54.34c.56.07.82.11.82.38a5.23,5.23,0,0,1-.19.71l-5.2,17.17c-.15.49-.22.52-.71.52H90.74c-.49,0-.6-.22-.67-.6l-1.83-9.5c-.22-1.2-.41-3.14-.49-4.19h-.08a30.33,30.33,0,0,1-.67,4.19l-2.24,9.5c-.07.38-.19.6-.67.6H81.16c-.49,0-.56,0-.71-.52L76,162.49c-.07-.26-.15-.53-.19-.71s.26-.3.82-.37l2.81-.34.64,0c.26,0,.41.38.49.75Z"/><path class="cls-1" d="M165,172.59c0,2.47.19,6.32.19,8.42,0,4.08-2,6.77-7.22,6.77-2.92,0-7.74-1.2-7.74-2a2,2,0,0,1,.15-.75l.71-2.28c.07-.26.22-.37.41-.37.45,0,2.73,1.46,6.06,1.46,2.62,0,3.07-1.08,3.07-3.18,0-1.31-.11-2.21-.11-2.47a7.48,7.48,0,0,1-4.53,1.42c-4.19,0-6.4-3.52-6.4-9.13,0-6,2.62-9.77,7.07-9.77a5.9,5.9,0,0,1,4.45,1.76c.11-.34.79-1.76,1.31-1.76a1.28,1.28,0,0,1,.37.08l2.92,1.08c.15.07.34.19.34.34,0,.49-1,1.83-1,4.79Zm-4.49-6.81a4.23,4.23,0,0,0-3-1.12c-2.25,0-3.22,2.1-3.22,5.69,0,3.4.75,5.54,3,5.54a4.27,4.27,0,0,0,3.18-1.27Z"/><path class="cls-1" d="M202.37,177.87a.75.75,0,0,1,.11.41c0,1-3.74,2.21-6.7,2.21-4.94,0-8.38-2.81-8.38-9.69,0-5.95,3.18-10.06,8.19-10.06,6.36,0,7.48,5.69,7.48,10.21,0,.71-.15.93-.86.93H192.16c0,2.1.6,4.68,4.12,4.68,2.69,0,4.23-1.23,4.75-1.23a.49.49,0,0,1,.41.3ZM198,168.4c0-1.53-.11-4.19-2.69-4.19-2.92,0-3.07,3.14-3.18,4.19Z"/><path class="cls-1" d="M240.72,179.33c0,.41-.07.52-.52.52h-3.7c-.45,0-.52-.11-.52-.52V167.8c0-1.42-.19-3.14-2.09-3.14a5.12,5.12,0,0,0-3.29,1.54v13.13c0,.41-.07.52-.52.52h-3.7c-.45,0-.52-.11-.52-.52V168c0-5.27-.71-5-.71-5.84,0-.19.15-.34.41-.41l2.84-.94a1.81,1.81,0,0,1,.56-.11c.49,0,.79.82,1.2,2.58a8.07,8.07,0,0,1,5.72-2.58c2.06,0,4.86.94,4.86,5.46Z"/><path class="cls-1" d="M278.51,177.87a.75.75,0,0,1,.11.41c0,1-3.74,2.21-6.7,2.21-4.94,0-8.38-2.81-8.38-9.69,0-5.95,3.18-10.06,8.19-10.06,6.36,0,7.48,5.69,7.48,10.21,0,.71-.15.93-.86.93H268.29c0,2.1.6,4.68,4.12,4.68,2.69,0,4.23-1.23,4.75-1.23a.5.5,0,0,1,.41.3Zm-4.34-9.46c0-1.53-.11-4.19-2.69-4.19-2.92,0-3.07,3.14-3.18,4.19Z"/><path class="cls-1" d="M306.75,179.33c0,.41-.08.52-.52.52h-3.7c-.45,0-.52-.11-.52-.52V168c0-4.12-1-4.79-1-5.65,0-.15.15-.26.34-.34l2.84-1.16a2.46,2.46,0,0,1,.49-.15c.45,0,1.2,1.68,1.38,3,.71-.86,2.09-3,4.64-3,1.09,0,2.17.38,2.17.86a.94.94,0,0,1-.07.37l-1.16,3.14c0,.11-.15.34-.3.34a7,7,0,0,0-1.76-.41c-1.16,0-2.36,1.27-2.84,1.79Z"/><path class="cls-1" d="M343.9,180.34a2.32,2.32,0,0,1-.49.15c-.34,0-.9-1.31-1.09-2.24a6.23,6.23,0,0,1-4.86,2.24c-3.44,0-5.61-2.24-5.61-5.76,0-6.32,6.81-6.32,9.76-6.32v-1.16c0-1.68-.3-2.77-2.66-2.77-2.09,0-4.15,1.12-4.64,1.12-.19,0-.34-.22-.37-.37l-.75-2.28a1,1,0,0,1-.11-.45c0-.86,3.7-1.76,6.58-1.76,4.68,0,6.44,2.13,6.44,6V174c0,3.63,1,4.12,1,4.86,0,.15-.15.26-.34.34Zm-2.28-8.87c-.93,0-5.27-.3-5.27,3a2.44,2.44,0,0,0,2.47,2.54,4.07,4.07,0,0,0,2.81-1.42Z"/><path class="cls-1" d="M380.9,178.77c0,.19.07.19.07.3,0,.71-2.73,1.42-5.28,1.42-4.83,0-4.83-3.78-4.83-7.22v-8.42h-2.66c-.45,0-.52-.11-.52-.52v-2.43c0-.41.08-.52.52-.52h2.66v-4.71c0-.49.08-.6.6-.67l3.29-.45c.11,0,.26,0,.49,0s.37.19.37.64v5.24h4.26c.34,0,.64,0,.64.41a1.06,1.06,0,0,1,0,.3l-.49,2.21c-.11.52-.22.56-.67.56h-3.7v9.05c0,1.2,0,2.28,1.27,2.28,1.5,0,2.43-.71,3-.71a.29.29,0,0,1,.3.22Z"/><path class="cls-1" d="M408.48,179.33c0,.41-.08.52-.52.52h-3.7c-.45,0-.52-.11-.52-.52V164.85h-2.88c-.45,0-.52-.11-.52-.52v-2.43c0-.41.08-.52.52-.52H408c.45,0,.52.11.52.52Zm-2.39-20.39a3.1,3.1,0,0,1-3.11-3.11,3.09,3.09,0,1,1,3.11,3.11Z"/><path class="cls-1" d="M439.86,180.49c-5.05,0-8.12-3.85-8.12-9.88s3.07-9.88,8.12-9.88,8.12,3.85,8.12,9.88S444.92,180.49,439.86,180.49Zm3.07-9.88c0-3.48-.49-6.13-3.07-6.13s-3.07,2.66-3.07,6.13.45,6.14,3.07,6.14S442.93,174.13,442.93,170.61Z"/><path class="cls-1" d="M485.73,179.33c0,.41-.08.52-.52.52h-3.7c-.45,0-.52-.11-.52-.52V167.8c0-1.42-.19-3.14-2.1-3.14a5.12,5.12,0,0,0-3.29,1.54v13.13c0,.41-.08.52-.52.52h-3.7c-.45,0-.52-.11-.52-.52V168c0-5.27-.71-5-.71-5.84,0-.19.15-.34.41-.41l2.84-.94a1.8,1.8,0,0,1,.56-.11c.49,0,.79.82,1.2,2.58a8.07,8.07,0,0,1,5.72-2.58c2.06,0,4.86.94,4.86,5.46Z"/></svg>