<?xml version="1.0" encoding="utf-8"?>
<!-- Generator: Adobe Illustrator 21.0.2, SVG Export Plug-In . SVG Version: 6.00 Build 0)  -->
<svg version="1.1" id="Слой_1" xmlns="http://www.w3.org/2000/svg" xmlns:xlink="http://www.w3.org/1999/xlink" x="0px" y="0px"
	 viewBox="0 0 338.8 120.4" style="enable-background:new 0 0 338.8 120.4;" xml:space="preserve">
<style type="text/css">
	.st0{fill:#606062;}
</style>
<path class="st0" d="M49.2,53c-0.7,2.8-1.2,4.8-1.5,6.1c-1.4,5-3.6,8.9-6.6,11.9c-4.5,4.6-10.2,6.8-17.1,6.8
	c-6.6,0-12.2-2.4-16.8-7.3C2.4,65.3,0,59.1,0,52s2.4-13,7.1-17.6c3.6-3.5,8.4-5.9,14.2-7.1c4.5-4.5,10.2-6.8,17.3-6.8
	c7.2,0,13.5,2.6,19,7.8c2.2-1.4,4.5-2.2,6.6-2.2c0.7,0,1.5,0.1,2.4,0.3l-0.2,1c-0.9-0.1-1.6-0.3-2.1-0.3c-2.1,0-4.1,0.7-5.9,2.1
	c1.6,1.9,2.7,3.5,3.4,4.9c1.3,2.6,2,5.4,2,8.4c0,3.3-0.8,6.2-2.4,8.7c-2.1,3.2-4.7,4.9-7.7,4.9c-2,0-3.5-1.1-4.2-3.2L49.2,53z
	 M57.2,30c-1.5,1.6-2.9,3.9-4,6.8c-0.7,2.2-1.5,4.8-2.4,8.1c1.3-1.3,2.7-2.1,4.4-2.4l0.1,0.9c-3.7,1.2-5.6,3.5-5.6,6.9
	c0,1.4,0.4,2.6,1.2,3.5c0.5,0.6,1.2,0.9,1.9,0.9c1.8,0,3.4-1.6,4.8-4.7c1.5-3.6,2.3-7,2.3-10.3C59.9,36.2,59,32.9,57.2,30L57.2,30z
	 M56.5,29c-4.7-5-10.8-7.5-18.3-7.5c-6,0-11.2,1.9-15.3,5.7c0.9-0.1,1.4-0.1,1.9-0.1c2.6,0,5.2,0.6,7.8,1.9c6,2.8,9.4,7.7,10.1,14.8
	c1.6-2.5,2.4-5.4,2.4-8.5c0-1.6-0.2-3.3-0.7-5.2l0.9-0.1c0.5,1.7,0.8,3.5,0.8,5.1c0,3.1-0.6,5.8-1.7,8c-0.4,0.6-0.9,1.5-1.6,2.6
	c0,3-0.6,5.8-1.7,8.4c-1.4,3.1-3.1,5.5-5.3,7.3c-2.8,2.2-6,3.2-9.8,3.2c-4.2,0-7.6-1.5-10.2-4.4c-2.2-2.5-3.4-5.5-3.4-8.9
	c0-1.4,0.2-2.7,0.7-4.2l0.9,0.3c-0.4,1.5-0.6,2.9-0.6,4.1c0,3,1,5.6,3,8c2.4,2.7,5.3,4,8.9,4c3.5,0,6.8-1.4,9.9-4.2
	c3.5-3.1,5.5-7.1,6.2-12c-3.4,3.4-7.1,5-11.2,5c-3.7,0-7-1.4-9.6-4s-4-6-4-9.8c0-3.3,1.2-6.5,3.5-9.6c-2.3,0.6-4.1,1.4-5.5,2.1
	c-1.4,0.7-3,1.8-4.5,3.2C4.3,39.3,1.4,45.6,1.4,53s2.7,13.5,7.9,18.3c4.2,3.7,8.6,5.6,13.5,5.6c4.5,0,8.5-1.8,12.1-5.3
	c2.4-2.4,4.5-6.1,6.6-11.3c0.6-1.5,1.8-5.2,3.7-11.2c1.4-4,2.4-7.1,3.4-9.1c0.9-2.2,2-4,3.2-5.8C53,32.6,54.5,30.9,56.5,29L56.5,29z
	 M41.7,45.4c-0.1-3.7-0.9-6.6-2.2-8.9c-1.7-2.8-4-5-7.1-6.5c-2.4-1.2-5-1.8-7.6-1.8c-0.6,0-1.7,0.1-3.1,0.2c-2.7,3-4,6.4-4,9.9
	c0,3.8,1.4,7.1,4.3,9.6c2.4,2.2,5.3,3.2,8.5,3.2C34.7,51.1,38.4,49.2,41.7,45.4L41.7,45.4z"/>
<path class="st0" d="M78.8,60.6c-1.2,2.9-2.3,5-3.1,6.2c-1.2,1.7-2.7,3.2-4.6,4.6l-3.4,11.7c-1.4,4.8-3.7,7.1-6.9,7.1
	c-1.4,0-2.4-0.6-3.3-1.9c-0.8-1.2-1.2-2.4-1.2-3.7c0-1.8,0.4-3.5,1.4-5.2c0.9-1.7,2.2-3,3.8-4.2c1.4-1,3.2-2,5.3-3l1.4-5
	c-0.9,1.4-1.6,2.4-2.1,3c-1.1,1.2-2.2,1.7-3.4,1.7c-1,0-1.9-0.4-2.5-1.2c-0.5-0.6-0.7-1.4-0.7-2.2c0-0.7,0.2-1.8,0.6-3.2l4.2-14.7
	c0.5,0.1,1,0.1,1.4,0.1c0.8,0,1.7-0.1,2.6-0.1l-4.5,16.8c-0.4,1.2-0.5,1.9-0.5,2.2c0,0.6,0.3,1,0.7,1c0.5,0,1.3-0.8,2.3-2.3
	c1-1.5,1.9-3.3,2.7-5.3c0.7-1.9,1.7-4.9,2.9-9c0.4-1.6,0.8-2.7,1-3.4c1,0.1,1.6,0.1,1.9,0.1c0.3,0,1-0.1,2.1-0.1l-5.3,19.2
	c2.4-1.7,4.5-4.9,6.3-9.5l0.9,0.4L78.8,60.6z M66.4,73.5c-2.9,1.4-4.8,2.6-5.8,3.7c-2.2,2.2-3.3,4.7-3.3,7.5c0,1.2,0.3,2.2,0.7,3
	c0.6,1,1.4,1.5,2.3,1.5c0.8,0,1.4-0.3,1.7-0.9c0.4-0.5,0.6-1.4,1-2.5L66.4,73.5L66.4,73.5z"/>
<path class="st0" d="M96,60.4c-0.9,2.5-1.8,4.8-2.8,6.8c-0.9,1.7-1.7,2.8-2.4,3.5c-0.8,0.7-1.8,1.2-3,1.2c-1.2,0-2.1-0.4-2.8-1.2
	c-0.6-0.7-0.9-1.5-0.9-2.4c0-1.1,0.9-4,2.5-8.9c0.1-0.5,0.3-0.9,0.3-1.3c0-1.1-0.9-1.7-2.5-1.7c-0.3,0-0.6,0.1-1.2,0.1l-4.2,15
	c-0.8-0.1-1.4-0.1-1.9-0.1c-0.6,0-1.3,0.1-2.2,0.3l5.7-21c0.6,0.1,1.2,0.1,1.7,0.1c0.6,0,1.4-0.1,2.5-0.3l-1.3,4.9
	c1,0,1.7-0.1,2-0.1c0.5-0.1,1.1-0.5,1.6-1.2c0.7-0.8,1.4-1.7,2-2.5c1-1.3,2.2-1.9,3.7-1.9c0.9,0,1.5,0.3,2,0.9
	c0.4,0.4,0.5,0.9,0.5,1.4c0,0.6-0.2,1.1-0.6,1.5c-0.5,0.6-1.1,0.9-1.8,0.9s-1.5-0.4-2.3-1.4c-0.1-0.1-0.3-0.2-0.5-0.2
	c-0.4,0-0.8,0.3-1.3,0.9c-0.6,0.7-1.2,1.4-1.9,1.9c2.4,0.8,3.5,2.1,3.5,3.9c0,1-0.4,2.5-1.2,4.5c-1,2.5-1.4,4.2-1.4,5
	c0,1,0.4,1.5,1,1.5c1.2,0,2.6-1.7,4.2-4.9c0.3-0.6,1.1-2.5,2.3-5.7l0.8,0.4L96,60.4z"/>
<path class="st0" d="M114.3,60.6c-1.4,3.3-2.5,5.7-3.3,7.1c-1.5,2.8-3.2,4.2-4.9,4.2c-1.3,0-2.2-0.6-2.9-1.9c-0.4-0.8-0.6-1.8-0.6-3
	c0-0.2,0-0.5,0.1-0.9c-1.1,1.9-1.9,3.1-2.4,3.7c-1,1.3-2.2,1.9-3.6,1.9c-1.2,0-2-0.5-2.6-1.4c-0.3-0.5-0.4-1.2-0.4-1.9
	c0-0.9,0.2-2.1,0.6-3.7l3.9-14.3c0.7,0.1,1.4,0.1,2,0.1s1.4-0.1,2.2-0.1l-4.4,16c-0.4,1.6-0.6,2.7-0.6,3.2s0.2,0.7,0.6,0.7
	c1.2,0,2.8-2.2,4.7-6.5c0.9-2.1,1.9-4.9,2.9-8.4c0.6-2.4,1.2-4,1.4-5c0.4,0,1.2,0.1,2.7,0.1c0.6-0.1,1.1-0.1,1.4-0.2l-4.6,16.9
	c-0.3,0.9-0.4,1.6-0.4,1.9c0,0.9,0.4,1.3,1,1.3c0.9,0,2.1-1.2,3.4-3.7c0.8-1.5,1.8-3.7,3.1-6.8L114.3,60.6L114.3,60.6z"/>
<g id="_149409216">
	<path class="st0" d="M265.4,59.9l0.1-0.9c3,0,5.5,0,8.4,0l-0.1,0.9C270.6,59.9,268.2,59.9,265.4,59.9z"/>
	<path class="st0" d="M219,73.2c-0.4,1.5-0.8,2.7-1.4,3.8c-1.4,2.2-3.1,3.3-5.1,3.3c-2.2,0-4-1.1-5.4-3.2c-1.8-2.5-2.7-5.5-2.7-9
		c0-4,1.2-10.2,3.5-18.8l-6.3,1.4c-0.9,4.2-1.7,7.3-2.3,9.5c-1.2,4-3.1,7.3-5.8,10.1c-2.2,2.2-4.8,4-7.8,5.2c-3,1.2-6.2,1.9-9.5,1.9
		c-7.6,0-13.8-3-18.4-8.9c-3.9-4.9-5.8-10.6-5.8-17.1c0-8.6,3.5-15.3,10.3-20.2c2.8-1.9,5.8-3.3,8.8-4c0.7-0.1,1.9-0.4,3.5-0.6
		c1.4-1.5,2.8-2.6,4.2-3.2c1.9-0.9,4-1.4,6.3-1.4c2.1,0,4,0.4,5.8,1.3c0.4,0.1,1.9,1.1,4.7,2.7c2.6,1.5,5.2,2.3,7.7,2.3
		c1.9,0,4.2-0.6,7.1-1.8c2-0.9,3.5-1.3,4.6-1.3c0.1,0,0.4,0,0.6,0.1v1c-0.3,0-0.5,0-0.6,0c-1.6,0-3.2,0.6-4.8,1.7
		c-2.3,1.7-4.2,5.2-5.8,10.2c-0.7,2.4-1.6,6.2-2.7,11.4l6.5-1.7c1.7-6,4-11,7.1-14.9c3.8-5,7.6-7.5,11.5-7.5c1.6,0,2.9,0.4,3.8,1.4
		c0.9,0.9,1.4,1.9,1.4,3c0,0.6-0.2,1.2-0.6,1.6c-0.4,0.5-0.9,0.7-1.6,0.7c-0.8,0-1.4-0.4-1.8-1c-0.3-0.4-0.4-1.2-0.4-2.2
		c-0.1-1.4-0.6-2.2-1.8-2.2c-2.4,0-4.8,2.4-7.3,7.3c-1.5,3-3.2,7.5-4.9,13.3h0.1c2.2,0,4.1,1,5.8,3l-0.8,0.6
		c-1.5-1.7-3.2-2.6-5.3-2.6h-0.1c-0.3,0.9-0.7,2.5-1.2,4.8c-0.1,0.5-0.6,2.5-1.5,6.1c-1.3,5.2-1.9,9.2-1.9,12c0,5,1.3,7.4,3.8,7.4
		c2.7,0,4.5-2.1,5.7-6.2l0.9,0.1L219,73.2z M196.7,50.3c0.4-1.2,0.6-2,0.9-2.5c1.7-5.4,2.9-8.7,3.4-9.9c1.7-3.7,4-6.8,7-9.3
		c-1.7,0.6-3.5,0.9-5.2,0.9c-2.1,0-4.2-0.4-6.3-1.4c-0.7-0.3-2.2-1.2-4.6-2.6c-2.6-1.6-5-2.4-7.1-2.4c-3.7,0-6.6,1.2-8.6,3.6
		c0.6,0,0.9-0.1,1.2-0.1c2.7,0,5.5,0.7,8.3,2.2c3.5,1.9,6.1,4.7,7.7,8.4c1.1,2.4,1.6,5.1,1.6,7.9c0,1.7-0.2,3.4-0.7,5.1
		c0.5,0.1,0.8,0.1,0.9,0.1l0.9-0.1C196.1,50.3,196.3,50.3,196.7,50.3L196.7,50.3z M193,49.8c0.6-1.7,0.9-3.4,0.9-5.1
		c0-5.4-1.9-9.7-5.8-13c-3.2-2.7-7-4.1-11.2-4.1c-0.4,0-0.9,0-1.7,0.1c-2.2,3.2-3.3,6.4-3.3,9.9c0,4.1,1.3,7.5,4,10.1
		c2.1,2.1,4.5,3.1,7,3.1c1.8,0,3.5-0.5,5.1-1.5c0.5-0.3,1.1-0.8,1.6-1.4c-0.1-0.6-0.2-1.1-0.2-1.5c0-1.4,0.4-2.1,1.2-2.1
		c0.6,0,0.9,0.5,0.9,1.5c0,0.6-0.2,1.3-0.7,2c0.2,0.5,0.5,0.9,0.9,1.3C192,49.4,192.4,49.6,193,49.8L193,49.8z M196.3,51.3
		c-0.6,0-1,0.1-1.3,0.1s-0.6-0.1-1-0.1c-0.6,2-1.5,3.9-2.7,5.7c-1.1,1.7-2.5,3.1-4.2,4.2c-2.8,1.9-5.8,2.8-9.1,2.8
		c-4.3,0-7.8-1.6-10.4-4.8c-2.1-2.4-3.1-5.3-3.1-8.7c0-1.4,0.2-2.7,0.7-4.1l0.9,0.3c-0.4,1.5-0.6,2.8-0.6,4c0,3.3,1.1,6.2,3.3,8.6
		c2.3,2.4,5.2,3.7,8.5,3.7c2.2,0,4.5-0.6,6.6-1.9c2.2-1.2,4.2-3,5.9-5.3c1.1-1.4,1.9-3,2.6-4.8c-1.2-0.6-2-1.3-2.6-2.2
		c-0.9,0.9-1.9,1.6-3.3,2.1c-1.3,0.5-2.7,0.8-4,0.8c-2.7,0-5.3-1.1-7.5-3.2c-3-2.8-4.5-6.4-4.5-10.9c0-3.5,1-6.8,3-9.8
		c-4,0.8-7.6,2.3-10.5,4.7c-3,2.4-5.4,5.3-7.1,8.6c-1.8,3.6-2.7,7.4-2.7,11.4c0,6.8,2.4,12.7,7.1,17.3c4.3,4.2,9.2,6.3,14.8,6.3
		c2.9,0,5.7-0.9,8.4-2.6c2.7-1.7,5-4.2,6.8-7.3C192,63.7,194,58.6,196.3,51.3L196.3,51.3z"/>
	<path class="st0" d="M233.1,60.8c-0.9,3-2.4,4.6-4.2,4.6c-0.1,0-0.1,0-0.3,0c-1.7,4.3-3.8,6.5-6.1,6.5c-1.6,0-2.9-0.7-4-2.2
		c-0.9-1.2-1.4-2.7-1.4-4.5c0-3.9,1.2-7.5,3.6-10.9c1.9-2.7,4-4.1,6.3-4.1c1.3,0,2.3,0.5,3,1.6c0.6,1,0.9,2.2,0.9,3.6
		c0,1.7-0.6,4.7-1.8,8.9h0.1c0.6,0,1.2-0.4,1.7-1c0.4-0.5,0.9-1.5,1.4-2.9L233.1,60.8L233.1,60.8z M227.7,65.3
		c-1.1-0.4-1.7-1.4-1.7-2.7c0-1.1,0.3-2,0.7-2.9c0.6-0.9,1.3-1.4,2.1-1.4c0.2,0,0.4,0,0.7,0.1c0.2-1,0.3-1.9,0.3-2.5
		c0-1.4-0.2-2.5-0.7-3.4c-0.4-0.7-1-1.2-1.7-1.2c-0.9,0-1.7,0.7-2.4,2.2c-1,2-1.9,4.5-2.8,7.6c-1,3.6-1.5,6-1.5,7.3
		c0,0.7,0.2,1.3,0.5,1.7c0.4,0.4,0.9,0.6,1.4,0.6C224.6,70.8,226.2,68.9,227.7,65.3L227.7,65.3z"/>
	<path class="st0" d="M273.7,57.8c-0.7,1-1.4,1.8-2,2.3c-1.1,0.9-2.2,1.3-3.7,1.3c-1.9,0-3.3-0.7-4.1-2.2c-0.2-0.4-0.4-0.9-0.4-1.4
		h4.2c-0.1,0.5-0.2,0.9-0.2,1.1c0,0.9,0.4,1.4,1.3,1.4c1.1,0,2.2-0.8,3.5-2.4h1.3H273.7z"/>
	<path class="st0" d="M299.5,60.6c-1.4,3.3-2.5,5.7-3.3,7.1c-1.5,2.8-3.2,4.2-4.9,4.2c-1.3,0-2.2-0.6-2.9-1.9
		c-0.4-0.8-0.6-1.8-0.6-3c0-0.2,0-0.5,0.1-0.9c-1.1,1.9-1.9,3.1-2.4,3.7c-1,1.3-2.2,1.9-3.6,1.9c-1.2,0-2-0.5-2.6-1.4
		c-0.3-0.5-0.4-1.2-0.4-1.9c0-0.9,0.2-2.1,0.6-3.7l3.9-14.3c0.7,0.1,1.4,0.1,2,0.1c0.6,0,1.4-0.1,2.2-0.1l-4.4,16
		c-0.4,1.6-0.6,2.7-0.6,3.2s0.2,0.7,0.6,0.7c1.2,0,2.8-2.2,4.7-6.5c0.9-2.1,1.9-4.9,2.9-8.4c0.6-2.4,1.2-4,1.4-5
		c0.4,0,1.2,0.1,2.7,0.1c0.6-0.1,1.1-0.1,1.4-0.2l-4.6,16.9c-0.3,0.9-0.4,1.6-0.4,1.9c0,0.9,0.4,1.3,1,1.3c0.9,0,2.1-1.2,3.4-3.7
		c0.8-1.5,1.8-3.7,3.1-6.8L299.5,60.6L299.5,60.6z"/>
	<path class="st0" d="M321,50.6l-2.2,7.5c1.4-2.1,2.8-3.1,4.2-3.1c1.3,0,2.2,0.7,3,2c1.2,2.2,0,10.2-3.6,13.2
		c-1.3,1.1-2.7,1.6-4.2,1.6c-1.5,0-2.8-0.6-3.8-1.9s-1.5-2.5-1.5-4c0-1.2,0.4-3.5,1.4-6.8l2.4-8.6c0.5,0.1,0.9,0.1,1.3,0.1
		C318,50.7,318.9,50.6,321,50.6L321,50.6z M322.4,56.2c-3.2,0-6.2,9.1-6.2,12.2c0,1.6,0.5,2.3,1.7,2.3c3.2,0,5.6-10.7,5.6-13.2
		C323.5,56.6,323.1,56.2,322.4,56.2z"/>
	<path class="st0" d="M338.8,60.3c-0.4,0.9-0.6,1.7-0.9,2.2c-1.2,2.9-2.2,5-3.2,6.6c-1.2,1.9-2.4,2.8-3.7,2.8
		c-1.2,0-2.3-0.6-3.1-1.8c-0.6-0.8-0.9-1.7-0.9-2.8c0-0.9,0.4-2.5,0.9-4.8l3.2-11.9c0.7,0.1,1.4,0.1,2,0.1c0.6,0,1.4-0.1,2.2-0.2
		l-4.2,15.1c-0.6,2.2-0.7,3.5-0.7,3.9c0,0.3,0.1,0.6,0.3,0.8c0.2,0.3,0.4,0.4,0.6,0.4c1,0,2.2-1.4,3.6-4c0.4-0.7,1.4-3,2.9-6.6
		L338.8,60.3z"/>
	<path class="st0" d="M263.9,60.1c-0.9,2.5-1.8,4.8-2.8,6.8c-0.9,1.7-1.7,2.8-2.4,3.5c-0.8,0.7-1.8,1.2-3,1.2
		c-1.2,0-2.1-0.4-2.8-1.2c-0.6-0.7-0.9-1.5-0.9-2.4c0-1.1,0.9-4,2.5-8.9c0.1-0.5,0.3-0.9,0.3-1.3c0-1.1-0.9-1.7-2.5-1.7
		c-0.3,0-0.6,0.1-1.2,0.1l-4.2,15h-0.1v0.1c-0.7-0.1-1.4-0.2-1.9-0.3l0,0c-0.6,0-1.2,0.1-2.1,0.3v-0.1h-0.1l4.2-15
		c-0.4-0.1-0.8-0.1-1.1-0.1c-1.7,0-2.9,0.6-3.5,1.7c-0.2,0.4-0.4,0.8-0.4,1.3c-1.1,4.9-1.9,7.8-2.4,8.9c-0.5,0.9-1.3,1.7-2.3,2.4
		c-1.2,0.8-2.2,1.2-3.5,1.2c-1.2,0-2-0.4-2.4-1.2c-0.4-0.6-0.5-1.8-0.4-3.5c0.1-2,0.4-4.2,0.9-6.8l1-0.4c-0.5,3.2-0.8,5-0.9,5.7
		c-0.2,3.2,0.2,4.9,1.4,4.9c0.6,0,1.3-0.5,1.9-1.5c0.4-0.8,0.9-2.4,1.3-5c0.4-2.1,0.8-3.5,1.4-4.5c0.9-1.7,2.9-3,5.7-3.9
		c-0.4-0.6-0.6-1.3-0.8-1.9c-0.1-0.6-0.4-0.9-0.8-0.9c-0.2,0-0.4,0.1-0.6,0.2c-1.4,0.9-2.4,1.4-3.1,1.4c-0.7,0-1.2-0.3-1.3-0.9
		c-0.1-0.4-0.1-0.9,0.3-1.5c0.3-0.5,0.7-1,1.3-1.4c0.8-0.6,1.6-0.9,2.4-0.9c1.5,0,2.4,0.6,2.7,1.9c0.2,0.9,0.4,1.7,0.6,2.5
		c0.2,0.6,0.6,1,1,1.2c0.3,0.1,0.9,0.1,1.9,0.1l0.2-0.8l0.9-3.2l0,0c1.4,0.2,2.7,0.2,4.1,0l0,0l-0.9,3.2l-0.2,0.8c1,0,1.7-0.1,2-0.1
		c0.5-0.1,1.1-0.5,1.6-1.2c0.7-0.8,1.4-1.7,2-2.5c1-1.3,2.2-1.9,3.7-1.9c0.9,0,1.5,0.3,2,0.9c0.4,0.4,0.5,0.9,0.5,1.4
		c0,0.6-0.2,1.1-0.6,1.5c-0.5,0.6-1.1,0.9-1.8,0.9c-0.7,0-1.5-0.4-2.3-1.4c-0.1-0.1-0.3-0.2-0.5-0.2c-0.4,0-0.8,0.3-1.3,0.9
		c-0.6,0.7-1.2,1.4-1.9,1.9c2.4,0.8,3.5,2.1,3.5,3.9c0,1-0.4,2.5-1.2,4.5c-1,2.5-1.4,4.2-1.4,5c0,1,0.4,1.5,1,1.5
		c1.2,0,2.6-1.7,4.2-4.9c0.3-0.6,1.1-2.5,2.3-5.7l0.8,0.4H263.9z"/>
	<path class="st0" d="M263.9,71.7c-1.2-0.1-2-0.1-2.5-0.1c-0.5,0-1.1,0.1-1.8,0.2l5.9-20.9c1.2,0.1,2.1,0.2,2.4,0.2
		c0.4,0,1-0.1,1.7-0.1C267.8,57.7,265.5,64.9,263.9,71.7L263.9,71.7z"/>
	<path class="st0" d="M281.4,60.9c-1.4,3.3-2.5,5.7-3.3,7.1c-1.5,2.8-3.2,4.2-4.9,4.2c-1.3,0-2.2-0.6-2.9-1.9
		c-0.4-0.8-0.6-1.8-0.6-3c0-2.3,2.1-9.1,2.8-11.5c0.6-2.4,1.2-4,1.4-5c0.4,0,1.2,0.1,2.7,0.1c0.6-0.1,1.1-0.1,1.4-0.2l-4.6,16.9
		c-0.3,0.9-0.4,1.6-0.4,1.9c0,0.9,0.4,1.3,1,1.3c0.9,0,2.1-1.2,3.4-3.7c0.8-1.5,1.8-3.7,3.1-6.8L281.4,60.9L281.4,60.9z"/>
	<path class="st0" d="M309.8,71.6l3.7-9.6l0.9,0.4l-3.7,10c1,0.9,1.4,1.9,1.4,2.9c0,0.8-0.3,1.6-0.7,2.3c-0.4,0.6-0.9,0.9-1.6,0.9
		c-0.9,0-1.4-0.5-1.4-1.6c0-0.9,0.4-2.2,1.1-4.1c-1.1-0.7-1.9-1.4-2.3-1.7c-0.3-0.3-0.6-0.6-0.7-0.9c-0.4-0.7-0.6-1.6-0.6-2.4v-0.1
		c0-0.2,0-0.4,0-0.6c0-0.2,0-0.5,0.1-0.9c-1.1,1.9-1.9,3.1-2.4,3.7c-1,1.3-2.2,1.9-3.6,1.9c-1.2,0-2-0.5-2.6-1.4
		c-0.3-0.5-0.4-1.2-0.4-1.9c0-0.9,0.2-2.1,0.6-3.7l3.9-14.3c0.7,0.1,1.4,0.1,2,0.1c0.6,0,1.4-0.1,2.2-0.1l-4.4,16
		c-0.4,1.6-0.6,2.7-0.6,3.2s0.2,0.7,0.6,0.7c1.2,0,2.8-2.2,4.7-6.5c0.9-2.1,1.9-4.9,2.9-8.4c0.6-2.4,1.2-4,1.4-5
		c0.4,0,1.2,0.1,2.7,0.1c0.6-0.1,1.1-0.1,1.4-0.2l-4.6,16.9c-0.1,0.5-0.2,0.9-0.3,1.2c-0.2,1.2-0.2,1.9,0.8,3L309.8,71.6z"/>
</g>
<g>
	<path class="st0" d="M157.9,89.9c-0.6,0-1.2,0.1-1.7,0.1c-0.2,0.1-0.5,0.1-0.7,0.1c-0.8,0-2.2-0.5-3.5-3.4c-0.9-1.9-1.4-2.5-3.5-6
		c-0.5-0.8-0.5-3.2-1.2-4.3c-0.6-0.9-1.5,0.2-2.8-2.4c-2.5-5.1-5-11.5-6.6-16.3c-0.5,1.6-1.2,3.6-1.5,5.2c-0.4,1.9-1.1,4.5-1.5,6.3
		c1.2,0.6,3.1,2,4.2,3.7c1.7,2.4,6.2,10.7,9,15.6c1.7,3,1.5,4.6,1.2,5.5c-0.2,0.3-0.4,0.6-0.6,0.9c-1.4,1.9-2.2,4.4-2.2,7.1
		c0,0.4,0.1,0.6,0.1,1l-0.7,0.2l-0.1,0.1c-1.3,0.4-2,1.8-1.6,3.1c0.4,1.3,1.8,2,3.1,1.6l0.6-0.1c1.9,3.7,5.7,6.3,10,6.3
		c6.3,0,11.4-5.4,11.4-12.1S164.2,89.9,157.9,89.9z M161,110.8c-3.4,1.2-7.5-1.9-9.2-6.8c-1.7-4.9-0.4-9.9,3-11
		c3.4-1.2,7.5,1.9,9.2,6.8C165.7,104.7,164.4,109.7,161,110.8z"/>
	<path class="st0" d="M134.9,31.1c0-3.8-1.5-4.4-2.6-9.6c-0.3-1.4,0.1-1.5-0.1-2.8c-0.2-1.3-0.8-3.5-1.4-4.2
		c-0.6-0.8-1.9-0.1-1.9-0.1s0.1-1.3,0-1.9c-0.1-0.6,0.2-2.6,1.4-6c1.2-3.4,1-4.2,0.5-5.4c-0.2-0.5-1-1.1-1.1-0.9
		c-0.4,0.7-1.1,2.1-1.4,3.4c-1.3,1.9-3.2,5.5-4.2,7.6c-1,2.1-0.8,2.7-1.1,5.3c-0.3,2.6-0.8,6.3-1.2,7.4c-0.4,1.2,0.9,3.5,1.4,4.5
		c0.4,0.9,1,3,1.4,5.1c0,0.3,0.1,0.6,0.1,0.9c0,0.1,0.1,0.3,0.1,0.4c0.1,0.8,0.3,1.4,0.5,2c1.2,5.3,2.3,13.2,3.4,19.2
		c1.7-3.4,3.3-7.4,4-9.6c0.6-1.7,1.1-3.2,1.4-4.2c-0.1-0.7-0.4-1.4-0.5-2.1C132.9,33.8,134.9,36.1,134.9,31.1z"/>
</g>
<path class="st0" d="M155.6,4.9c-1.5,0.4-2.4,0.9-3,4.5c-0.1,1.1-0.3,0.9-0.6,1.6c-0.6,1.1-2.3,5.3-2.3,6.1c0,1.2-2.5,1.9-3.8,5.2
	c-1.2,0.8-3,2.4-4.2,2.1c-0.3-0.1,0.4-1.7,0.6-2.3c0.6-0.9,1.8-5.8,0-6.6c-0.4-0.2-1.7-0.7-2.2,0c-0.4,0.3-0.9,2.2-1,2.7
	c-0.2,0.8-0.3,1.6-0.4,2.2c-0.6,2.4-1.4,4.6-2,6.9c-0.2,0.8,0,4.8,0.1,5.8c0.4,2.5,0.5,4,0.4,4.8c-1.4,3-3.3,7.3-4.5,10.2
	c-1.9,4.9-9.9,21.4-11,24c-1.1,2.7-1.7,4.2-3.3,4.1s-1.7,1.1-2.2,4.2c-0.5,3.1-1.4,5.6-3.2,6.8c-0.6,0.4-1.2,0.4-1.9,0.4
	c-0.4-0.1-0.7-0.1-1.1-0.1l0.1-0.1c-6.3,0-11.4,5.4-11.4,12.1c0,3.7,1.5,7.1,4,9.3c0.3,0.4,0.4,0.8,0.1,1.8
	c-0.8,3.2-6.5,4.5-5.8,7.8c0.8,3.2,4.2,1.9,5.7-0.5c1.4-2.3,1.4-6.1,3.7-6.3c0.5,0,1.2,0,2-0.1c0.5,0.1,1,0.1,1.5,0.1
	c6.3,0,11.4-5.4,11.4-12.1c0-3-1.1-5.8-2.8-7.9c-1.6-2-0.8-4.7,2.4-10.1c3.2-5.3,5.2-10.5,8.4-11.3c3.2-0.8,5-1.1,5.2-2.5
	c0.1-1.4,2.8-11.6,5.3-17.3l2.5-5.7c0.4-0.4,0.8-0.7,0.9-1.2c0.1-0.4,0.8-2.3,1.2-3.7c0.2-0.7,0.4-1.2,0.4-1.4
	c0.1-2.2,2.8-6,3.1-7.4c0.6-3.4,4.8-10.7,4.9-11.2c0.1-0.4,0.7-3.1,0.7-3.1c0.5-1.1,1.3-2.7,1.2-3.9c0.3-1.9,1-2.2,0.8-4.7
	c-0.1-0.6,0.1-0.7,0.2-1.3S155.9,5,155.6,4.9z M116.1,101.9c-1.7,4.9-5.8,7.9-9.2,6.8c-3.4-1.2-4.7-6.1-3-11
	c1.7-4.9,5.8-7.9,9.2-6.8C116.5,92,117.8,97,116.1,101.9z M131.5,63.5c-1.1,0-1.9-0.9-1.9-1.9c0-0.6,0.3-1.2,0.8-1.6l1.3,3.5
	C131.5,63.5,131.5,63.5,131.5,63.5z M132.8,62.9L132.8,62.9l-1.7-3.3c0.1,0,0.3-0.1,0.4-0.1c1.1,0,1.9,0.9,1.9,1.9
	C133.4,62,133.1,62.5,132.8,62.9z"/>
</svg>
