<svg width="77" height="15" fill="none" xmlns="http://www.w3.org/2000/svg"><path d="M12.849 0l-5.5 6.817 6.373 7.906H9.231L3.515 7.567v7.156H0V0h3.515v6.427L8.655 0h4.194zm5.715 6.93c-1.35.123-2.042.969-2.076 2.536.034 1.622.73 2.474 2.086 2.557 1.343-.083 2.032-.938 2.066-2.567-.034-1.56-.726-2.403-2.076-2.526zm-.01 8.07c-1.515 0-2.817-.537-3.906-1.612C13.572 12.3 13.034 11 13.034 9.487c0-1.527.538-2.827 1.614-3.902 1.09-1.088 2.391-1.632 3.906-1.632 1.528 0 2.833.544 3.916 1.632 1.076 1.075 1.614 2.375 1.614 3.902 0 1.512-.538 2.813-1.614 3.901C21.387 14.463 20.082 15 18.554 15zm17.71-.277H32.8V9.405c0-1.595-.603-2.393-1.809-2.393s-1.809.794-1.809 2.382l.01 5.329h-3.35V4.138h3.36V5.4c.693-.828 1.474-1.242 2.344-1.242 3.146 0 4.718 1.848 4.718 5.544v5.02zm7.031.082c-.247.02-.48.03-.699.03-2.693 0-4.04-1.512-4.04-4.537v-9.25h3.33v3.038h2.694v3.05h-2.693v2.782c0 1.3.462 1.95 1.388 1.95h1.305v2.711c-.637.13-1.066.205-1.285.226zm7.668-7.875c-1.35.123-2.042.969-2.076 2.536.034 1.622.73 2.474 2.087 2.557 1.343-.083 2.031-.938 2.066-2.567-.035-1.56-.727-2.403-2.077-2.526zm-.01 8.07c-1.515 0-2.817-.537-3.906-1.612C45.971 12.3 45.433 11 45.433 9.487c0-1.527.538-2.827 1.614-3.902 1.09-1.088 2.392-1.632 3.906-1.632 1.528 0 2.833.544 3.916 1.632 1.076 1.075 1.614 2.375 1.614 3.902 0 1.512-.538 2.813-1.614 3.901C53.786 14.463 52.481 15 50.953 15zm10.628-8.778c.535-1.349 1.412-2.023 2.632-2.023.411 0 .863.079 1.357.236l-.01 2.69h-.278c-2.433 0-3.666 1.133-3.7 3.399v4.199H58.24V4.22h3.34v2.002zm10.105 5.595c1.322-.075 2.004-.876 2.045-2.402-.04-1.479-.726-2.273-2.055-2.382-1.33.11-2.012.903-2.046 2.382.034 1.533.72 2.334 2.056 2.402zM77 4.137v10.586h-3.351v-1.314c-.781.828-1.549 1.242-2.302 1.242-1.44 0-2.673-.51-3.7-1.53-1.022-1.027-1.532-2.259-1.532-3.696 0-1.444.51-2.676 1.531-3.696 1.028-1.027 2.261-1.54 3.7-1.54.754 0 1.522.414 2.303 1.242V4.138H77z" fill="#BDBDBD"/></svg>