<svg width="155" height="20" fill="none" xmlns="http://www.w3.org/2000/svg"><path d="M.656.935c.2.21.401.315.602.526L2.46 2.722c2.908 3.155 5.816 6.204 8.724 9.359 1.605 1.787 3.31 3.47 4.914 5.257.3.316.602.631.902 1.052-1.103 1.367-3.008.841-3.71-1.052-1.905.316-3.81-.946-4.111-3.365h-.803c-.1 1.052-.501 1.998-1.303 2.63-.702.525-1.605.84-2.708.63-.2.631-.501 1.262-1.103 1.472-.401.21-.902.316-1.303.21-.903-.105-1.705-.946-1.906-1.997-.2-1.052.401-1.998 1.705-2.63-.3-2.207.702-3.574 3.109-4.31v-.736C3.865 9.032 2.962 8.61 2.36 7.77c-.602-.842-.803-1.788-.602-2.84C-.046 3.88-.547 2.091.656.935z" fill="#BE1F0C"/><path d="M17.006 18.38c-.2-.21-.401-.315-.602-.526l-1.203-1.261c-2.908-3.155-5.816-6.204-8.725-9.359-1.604-1.787-3.309-3.47-4.913-5.257C1.262 1.66.96 1.346.66.925 1.763-.442 3.67.084 4.37 1.977c1.906-.316 3.811.946 4.112 3.364h.802c.1-1.051.502-1.997 1.304-2.628.702-.526 1.604-.842 2.707-.631.201-.631.502-1.262 1.103-1.472.402-.21.903-.316 1.304-.21.903.104 1.705.946 1.905 1.997.2 1.052-.4 1.998-1.704 2.629.3 2.208-.702 3.575-3.109 4.311v.736c1.003.21 1.905.631 2.507 1.472.602.842.802 1.788.602 2.84 1.805 1.05 2.306 2.838 1.103 3.995z" fill="#E42013"/><path d="M33.912 4.26v8.676H32.49V7.332c0-.224.012-.466.036-.726l-2.622 4.926c-.124.236-.314.354-.57.354h-.228c-.256 0-.446-.118-.57-.354l-2.652-4.944c.012.132.022.262.03.39s.012.246.012.354v5.604h-1.422V4.26h1.218c.072 0 .134.002.186.006a.467.467 0 0 1 .138.03.278.278 0 0 1 .114.078c.036.036.07.084.102.144l2.598 4.818a10.195 10.195 0 0 1 .36.816 8.565 8.565 0 0 1 .366-.828l2.562-4.806a.606.606 0 0 1 .102-.144.342.342 0 0 1 .114-.078.541.541 0 0 1 .144-.03c.052-.004.114-.006.186-.006h1.218zm4.801 6.048c-.428.02-.788.058-1.08.114-.292.052-.526.12-.702.204a.923.923 0 0 0-.378.294.639.639 0 0 0-.114.366c0 .26.076.446.228.558.156.112.358.168.606.168.304 0 .566-.054.786-.162.224-.112.442-.28.654-.504v-1.038zm-3.396-2.67c.708-.648 1.56-.972 2.556-.972.36 0 .682.06.966.18.284.116.524.28.72.492.196.208.344.458.444.75.104.292.156.612.156.96v3.888h-.672a.708.708 0 0 1-.324-.06c-.076-.044-.136-.13-.18-.258l-.132-.444c-.156.14-.308.264-.456.372a2.804 2.804 0 0 1-.462.264c-.16.072-.332.126-.516.162-.18.04-.38.06-.6.06-.26 0-.5-.034-.72-.102a1.618 1.618 0 0 1-.57-.318 1.414 1.414 0 0 1-.372-.522 1.852 1.852 0 0 1-.132-.726 1.419 1.419 0 0 1 .33-.906c.12-.14.274-.272.462-.396s.418-.232.69-.324c.276-.092.596-.166.96-.222.364-.06.78-.096 1.248-.108v-.36c0-.412-.088-.716-.264-.912-.176-.2-.43-.3-.762-.3-.24 0-.44.028-.6.084-.156.056-.294.12-.414.192l-.33.186a.631.631 0 0 1-.324.084.439.439 0 0 1-.264-.078.716.716 0 0 1-.174-.192l-.264-.474zm10.102.714a1.451 1.451 0 0 0-.552-.432 1.597 1.597 0 0 0-.636-.126c-.224 0-.426.042-.606.126a1.21 1.21 0 0 0-.462.384 1.8 1.8 0 0 0-.294.648c-.068.26-.102.568-.102.924 0 .36.028.666.084.918.06.248.144.452.252.612.108.156.24.27.396.342.156.068.33.102.522.102.308 0 .57-.064.786-.192.216-.128.42-.31.612-.546v-2.76zm1.482-4.332v8.916h-.906c-.196 0-.32-.09-.372-.27l-.126-.594a3.09 3.09 0 0 1-.858.69c-.32.176-.694.264-1.122.264-.336 0-.644-.07-.924-.21a2.098 2.098 0 0 1-.726-.606 3.033 3.033 0 0 1-.468-.99 5.072 5.072 0 0 1-.162-1.344c0-.456.062-.88.186-1.272s.302-.732.534-1.02c.232-.288.51-.512.834-.672a2.384 2.384 0 0 1 1.092-.246c.344 0 .638.054.882.162.244.108.462.254.654.438V4.02h1.482zm5.428 5.13c0-.192-.028-.372-.084-.54a1.25 1.25 0 0 0-.24-.45 1.095 1.095 0 0 0-.413-.3 1.358 1.358 0 0 0-.576-.114c-.428 0-.766.122-1.014.366-.245.244-.4.59-.468 1.038h2.795zm-2.825.894c.023.316.08.59.168.822.087.228.204.418.348.57a1.4 1.4 0 0 0 .51.336c.2.072.42.108.66.108.24 0 .446-.028.618-.084a2.76 2.76 0 0 0 .456-.186c.132-.068.246-.13.341-.186a.59.59 0 0 1 .289-.084c.124 0 .216.046.276.138l.426.54a2.536 2.536 0 0 1-.552.486 3.281 3.281 0 0 1-1.32.474 4.79 4.79 0 0 1-.666.048 3.33 3.33 0 0 1-1.194-.21 2.727 2.727 0 0 1-.96-.63 2.993 2.993 0 0 1-.642-1.032c-.156-.412-.234-.888-.234-1.428 0-.42.068-.814.204-1.182.136-.372.33-.694.582-.966.256-.276.566-.494.93-.654.368-.16.782-.24 1.242-.24.388 0 .746.062 1.074.186.328.124.61.306.846.546.236.236.42.528.552.876.136.344.204.738.204 1.182 0 .224-.024.376-.072.456-.048.076-.14.114-.276.114h-3.81zm9.724-3.264v6.156H57.74V6.78h1.488zm.204-1.794a.844.844 0 0 1-.078.36.963.963 0 0 1-.21.294.995.995 0 0 1-.3.204.963.963 0 0 1-.372.072.948.948 0 0 1-.366-.072 1.018 1.018 0 0 1-.498-.498.963.963 0 0 1 0-.732.995.995 0 0 1 .204-.3.929.929 0 0 1 .294-.198.899.899 0 0 1 .738 0 .912.912 0 0 1 .3.198.943.943 0 0 1 .288.672zm2.692 2.55c.124-.124.255-.238.39-.342a2.398 2.398 0 0 1 .937-.444 2.37 2.37 0 0 1 .576-.066c.336 0 .634.058.894.174.26.112.475.272.648.48.176.204.308.45.395.738.093.284.139.598.139.942v3.918H64.62V9.018c0-.376-.087-.666-.258-.87-.172-.208-.434-.312-.786-.312-.256 0-.496.058-.72.174a2.58 2.58 0 0 0-.637.474v4.452H60.74V6.78h.906c.192 0 .318.09.377.27l.102.486zm10.16 5.4h-1.62V4.26h1.62v8.676zm7.13-6.156l-2.443 6.156h-1.343L73.185 6.78h1.224a.46.46 0 0 1 .277.078.364.364 0 0 1 .15.198l1.187 3.288a8.846 8.846 0 0 1 .295 1.116 13.8 13.8 0 0 1 .132-.552c.047-.184.106-.372.174-.564l1.212-3.288a.406.406 0 0 1 .15-.198.429.429 0 0 1 .258-.078h1.17zm3.889 3.528c-.428.02-.788.058-1.08.114-.292.052-.526.12-.702.204a.924.924 0 0 0-.378.294.639.639 0 0 0-.114.366c0 .26.076.446.228.558.156.112.358.168.606.168.304 0 .566-.054.786-.162.224-.112.442-.28.654-.504v-1.038zm-3.396-2.67c.708-.648 1.56-.972 2.556-.972.36 0 .682.06.966.18.284.116.524.28.72.492.196.208.344.458.444.75.104.292.156.612.156.96v3.888h-.672a.708.708 0 0 1-.324-.06c-.076-.044-.136-.13-.18-.258l-.132-.444c-.156.14-.308.264-.456.372a2.805 2.805 0 0 1-.462.264c-.16.072-.332.126-.516.162-.18.04-.38.06-.6.06-.26 0-.5-.034-.72-.102a1.617 1.617 0 0 1-.57-.318 1.414 1.414 0 0 1-.372-.522 1.85 1.85 0 0 1-.132-.726 1.419 1.419 0 0 1 .33-.906c.12-.14.274-.272.462-.396s.418-.232.69-.324c.276-.092.596-.166.96-.222.364-.06.78-.096 1.248-.108v-.36c0-.412-.088-.716-.264-.912-.176-.2-.43-.3-.762-.3-.24 0-.44.028-.6.084-.156.056-.294.12-.414.192l-.33.186a.63.63 0 0 1-.324.084.438.438 0 0 1-.264-.078.713.713 0 0 1-.174-.192l-.264-.474zm7.624-.102c.124-.124.254-.238.39-.342a2.395 2.395 0 0 1 .936-.444c.176-.044.368-.066.576-.066.336 0 .634.058.894.174.26.112.476.272.648.48.176.204.308.45.396.738.092.284.138.598.138.942v3.918h-1.482V9.018c0-.376-.086-.666-.258-.87-.172-.208-.434-.312-.786-.312-.256 0-.496.058-.72.174a2.58 2.58 0 0 0-.636.474v4.452h-1.482V6.78h.906c.192 0 .318.09.378.27l.102.486zm8.111-.852c.456 0 .87.074 1.242.222a2.692 2.692 0 0 1 1.578 1.626c.144.392.216.83.216 1.314 0 .488-.072.928-.216 1.32-.144.392-.35.726-.618 1.002a2.653 2.653 0 0 1-.96.636 3.333 3.333 0 0 1-1.242.222c-.46 0-.878-.074-1.254-.222a2.712 2.712 0 0 1-.966-.636 2.922 2.922 0 0 1-.618-1.002 3.807 3.807 0 0 1-.216-1.32c0-.484.072-.922.216-1.314.148-.392.354-.724.618-.996.268-.272.59-.482.966-.63a3.397 3.397 0 0 1 1.254-.222zm0 5.202c.512 0 .89-.172 1.134-.516.248-.344.372-.848.372-1.512s-.124-1.17-.372-1.518c-.244-.348-.622-.522-1.134-.522-.52 0-.906.176-1.158.528-.248.348-.372.852-.372 1.512s.124 1.164.372 1.512c.252.344.638.516 1.158.516zm4.119-3.192h3.108V9.93H99.76V8.694zm6.378-3.15v2.568h3.252v1.29h-3.252v3.534h-1.62V4.26h5.472v1.284h-3.852zM112 7.848c.193-.368.42-.656.685-.864a1.45 1.45 0 0 1 .936-.318c.284 0 .512.062.684.186l-.096 1.11a.294.294 0 0 1-.09.156.239.239 0 0 1-.15.042c-.06 0-.15-.01-.27-.03a2.01 2.01 0 0 0-.342-.03 1.11 1.11 0 0 0-.786.282c-.1.088-.19.196-.27.324a3.44 3.44 0 0 0-.216.438v3.792h-1.482V6.78h.87c.152 0 .258.028.318.084.06.052.1.148.12.288l.09.696zm6.25 2.46a7.76 7.76 0 0 0-1.08.114 2.8 2.8 0 0 0-.703.204.923.923 0 0 0-.378.294.639.639 0 0 0-.114.366c0 .26.076.446.228.558.156.112.358.168.606.168.304 0 .566-.054.786-.162.224-.112.442-.28.654-.504v-1.038zm-3.397-2.67c.708-.648 1.56-.972 2.556-.972.36 0 .682.06.966.18.284.116.524.28.72.492.196.208.344.458.444.75.104.292.156.612.156.96v3.888h-.672a.708.708 0 0 1-.324-.06c-.076-.044-.136-.13-.18-.258l-.132-.444c-.156.14-.308.264-.456.372a2.804 2.804 0 0 1-.462.264c-.16.072-.332.126-.516.162-.18.04-.38.06-.6.06-.26 0-.5-.034-.72-.102a1.618 1.618 0 0 1-.57-.318 1.414 1.414 0 0 1-.372-.522 1.852 1.852 0 0 1-.132-.726 1.419 1.419 0 0 1 .33-.906c.12-.14.274-.272.462-.396s.418-.232.69-.324c.276-.092.596-.166.96-.222.364-.06.78-.096 1.248-.108v-.36c0-.412-.088-.716-.264-.912-.176-.2-.43-.3-.762-.3-.24 0-.44.028-.6.084-.156.056-.294.12-.414.192l-.33.186a.631.631 0 0 1-.324.084.439.439 0 0 1-.264-.078.716.716 0 0 1-.174-.192l-.264-.474zm7.624-.102c.124-.124.254-.238.39-.342a2.395 2.395 0 0 1 .936-.444c.176-.044.368-.066.576-.066.336 0 .634.058.894.174.26.112.476.272.648.48.176.204.308.45.396.738.092.284.138.598.138.942v3.918h-1.482V9.018c0-.376-.086-.666-.258-.87-.172-.208-.434-.312-.786-.312-.256 0-.496.058-.72.174a2.58 2.58 0 0 0-.636.474v4.452h-1.482V6.78h.906c.192 0 .318.09.378.27l.102.486zm6.87-3.516v5.106h.276a.61.61 0 0 0 .234-.036.507.507 0 0 0 .18-.162l1.53-1.89a.723.723 0 0 1 .21-.192.63.63 0 0 1 .306-.066h1.356l-1.914 2.286a1.59 1.59 0 0 1-.444.414c.084.06.158.13.222.21.068.08.132.166.192.258l2.052 2.988h-1.338a.758.758 0 0 1-.3-.054.483.483 0 0 1-.21-.21l-1.572-2.334a.443.443 0 0 0-.174-.18.667.667 0 0 0-.27-.042h-.336v2.82h-1.482V4.02h1.482zm6.464 2.76v6.156h-1.488V6.78h1.488zm.204-1.794a.844.844 0 0 1-.078.36.963.963 0 0 1-.21.294.995.995 0 0 1-.3.204.963.963 0 0 1-.372.072.948.948 0 0 1-.366-.072 1.018 1.018 0 0 1-.498-.498.963.963 0 0 1 0-.732.995.995 0 0 1 .204-.3.929.929 0 0 1 .294-.198.899.899 0 0 1 .738 0 .912.912 0 0 1 .3.198.943.943 0 0 1 .288.672zm6.857 1.794l-2.442 6.156h-1.344l-2.442-6.156h1.224a.46.46 0 0 1 .276.078.363.363 0 0 1 .15.198l1.188 3.288a8.846 8.846 0 0 1 .294 1.116c.04-.184.084-.368.132-.552.048-.184.106-.372.174-.564l1.212-3.288a.405.405 0 0 1 .15-.198.429.429 0 0 1 .258-.078h1.17zm4.405 1.2a.429.429 0 0 1-.126.138.348.348 0 0 1-.168.036.548.548 0 0 1-.234-.06 6.955 6.955 0 0 0-.282-.132 2.343 2.343 0 0 0-.372-.138 1.735 1.735 0 0 0-.486-.06c-.292 0-.522.062-.69.186a.581.581 0 0 0-.246.486.48.48 0 0 0 .126.336c.088.088.202.166.342.234.144.068.306.13.486.186.18.052.362.11.546.174.188.064.372.138.552.222.18.08.34.184.48.312.144.124.258.274.342.45.088.176.132.388.132.636 0 .296-.054.57-.162.822-.104.248-.26.464-.468.648-.208.18-.466.322-.774.426-.304.1-.656.15-1.056.15-.212 0-.42-.02-.624-.06a3.391 3.391 0 0 1-1.098-.396 2.56 2.56 0 0 1-.414-.3l.342-.564a.484.484 0 0 1 .156-.156.437.437 0 0 1 .228-.054c.092 0 .178.026.258.078.084.052.18.108.288.168.108.06.234.116.378.168.148.052.334.078.558.078.176 0 .326-.02.45-.06a.958.958 0 0 0 .312-.168.587.587 0 0 0 .18-.234.7.7 0 0 0 .06-.282.491.491 0 0 0-.132-.354 1.081 1.081 0 0 0-.342-.24 2.954 2.954 0 0 0-.486-.18c-.18-.056-.366-.116-.558-.18a5.996 5.996 0 0 1-.558-.222 2.042 2.042 0 0 1-.486-.33 1.541 1.541 0 0 1-.342-.486 1.731 1.731 0 0 1-.126-.696c0-.252.05-.492.15-.72.1-.228.246-.426.438-.594a2.16 2.16 0 0 1 .726-.408 2.997 2.997 0 0 1 1.008-.156c.424 0 .81.07 1.158.21.348.14.638.324.87.552l-.336.534zm2.999-3.96v5.106h.276a.61.61 0 0 0 .234-.036.507.507 0 0 0 .18-.162l1.53-1.89a.723.723 0 0 1 .21-.192.63.63 0 0 1 .306-.066h1.356l-1.914 2.286a1.59 1.59 0 0 1-.444.414c.084.06.158.13.222.21.068.08.132.166.192.258l2.052 2.988h-1.338a.758.758 0 0 1-.3-.054.483.483 0 0 1-.21-.21l-1.572-2.334a.443.443 0 0 0-.174-.18.667.667 0 0 0-.27-.042h-.336v2.82h-1.482V4.02h1.482z" fill="#BDBDBD"/></svg>