<svg width="190" height="19" fill="none" xmlns="http://www.w3.org/2000/svg"><g id="made_in_IF-ru"><g id="Group"><path id="Vector" d="M.656 0c.2.21.401.315.602.526L2.46 1.788c2.908 3.154 5.816 6.203 8.724 9.358 1.605 1.787 3.31 3.47 4.914 5.258.3.315.602.63.902 1.051-1.103 1.367-3.008.841-3.71-1.051-1.905.315-3.81-.947-4.111-3.365h-.803c-.1 1.051-.501 1.998-1.303 2.628-.702.526-1.605.842-2.708.631-.2.631-.501 1.262-1.103 1.472-.401.21-.902.316-1.303.21-.903-.104-1.705-.946-1.906-1.997-.2-1.052.401-1.998 1.705-2.629-.3-2.208.702-3.575 3.109-4.311v-.736c-1.003-.21-1.906-.631-2.507-1.472-.602-.841-.803-1.788-.602-2.84C-.046 2.946-.547 1.158.656 0z" transform="translate(0 .777)" fill="#BE1F0C"/><path id="Vector_2" d="M.656 0c.2.21.401.315.602.526L2.46 1.788c2.908 3.154 5.816 6.203 8.724 9.358 1.605 1.787 3.31 3.47 4.914 5.258.3.315.602.63.902 1.051-1.103 1.367-3.008.841-3.71-1.051-1.905.315-3.81-.947-4.111-3.365h-.803c-.1 1.051-.501 1.998-1.303 2.628-.702.526-1.605.842-2.708.631-.2.631-.501 1.262-1.103 1.472-.401.21-.902.316-1.303.21-.903-.104-1.705-.946-1.906-1.997-.2-1.052.401-1.998 1.705-2.629-.3-2.208.702-3.575 3.109-4.311v-.736c-1.003-.21-1.906-.631-2.507-1.472-.602-.841-.803-1.788-.602-2.84C-.046 2.946-.547 1.158.656 0z" transform="rotate(180 8.83 9.111)" fill="#E42013"/></g><path id="Создано в Ивано-Франковске" d="M6.924 9.954c.088 0 .166.034.234.102l.636.69c-.352.436-.786.77-1.302 1.002-.512.232-1.128.348-1.848.348-.644 0-1.224-.11-1.74-.33a3.836 3.836 0 0 1-1.314-.918 4.056 4.056 0 0 1-.84-1.404 5.32 5.32 0 0 1-.288-1.782c0-.652.104-1.248.312-1.788.208-.544.5-1.012.876-1.404.38-.392.832-.696 1.356-.912a4.452 4.452 0 0 1 1.74-.33c.632 0 1.192.104 1.68.312.492.208.91.48 1.254.816l-.54.75a.472.472 0 0 1-.126.126.335.335 0 0 1-.204.054.415.415 0 0 1-.186-.048 4.846 4.846 0 0 1-.21-.126 5.302 5.302 0 0 0-.264-.168c-.1-.06-.216-.114-.348-.162a2.473 2.473 0 0 0-.462-.126 2.955 2.955 0 0 0-.6-.054c-.388 0-.744.07-1.068.21-.32.136-.596.336-.828.6a2.73 2.73 0 0 0-.54.96 3.995 3.995 0 0 0-.192 1.29c0 .488.068.922.204 1.302.14.38.328.7.564.96.236.26.514.46.834.6.32.136.664.204 1.032.204.22 0 .418-.012.594-.036.18-.024.344-.062.492-.114.152-.052.294-.118.426-.198.136-.084.27-.186.402-.306a.495.495 0 0 1 .126-.084.284.284 0 0 1 .138-.036zm4.337-4.206c.456 0 .87.074 1.242.222a2.692 2.692 0 0 1 1.578 1.626c.144.392.216.83.216 1.314 0 .488-.072.928-.216 1.32-.144.392-.35.726-.618 1.002a2.653 2.653 0 0 1-.96.636 3.333 3.333 0 0 1-1.242.222c-.46 0-.878-.074-1.254-.222a2.712 2.712 0 0 1-.966-.636 2.922 2.922 0 0 1-.618-1.002 3.807 3.807 0 0 1-.216-1.32c0-.484.072-.922.216-1.314.148-.392.354-.724.618-.996.268-.272.59-.482.966-.63a3.397 3.397 0 0 1 1.254-.222zm0 5.202c.512 0 .89-.172 1.134-.516.248-.344.372-.848.372-1.512s-.124-1.17-.372-1.518c-.244-.348-.622-.522-1.134-.522-.52 0-.906.176-1.158.528-.248.348-.372.852-.372 1.512s.124 1.164.372 1.512c.252.344.638.516 1.158.516zm3.69-4.44c.231-.224.52-.406.863-.546.344-.144.756-.216 1.236-.216.38 0 .718.046 1.014.138.296.088.544.21.744.366.204.152.358.328.462.528a1.262 1.262 0 0 1 .108.984 1.406 1.406 0 0 1-.474.702c-.128.1-.286.186-.474.258.336.128.606.316.81.564.208.248.312.554.312.918 0 .3-.07.566-.21.798-.136.232-.318.43-.546.594-.228.16-.49.282-.786.366a3.26 3.26 0 0 1-.906.126c-.176 0-.366-.016-.57-.048a3.17 3.17 0 0 1-.606-.162 3.302 3.302 0 0 1-.6-.312 2.545 2.545 0 0 1-.534-.486l.426-.54a.3.3 0 0 1 .27-.138c.092 0 .18.03.264.09l.288.192c.112.068.244.132.396.192.152.056.342.084.57.084.372 0 .654-.084.846-.252a.803.803 0 0 0 .288-.63c0-.248-.1-.442-.3-.582-.196-.14-.516-.21-.96-.21h-.696v-.966h.696c.388 0 .686-.068.894-.204.208-.136.312-.316.312-.54 0-.204-.092-.372-.276-.504-.18-.132-.448-.198-.804-.198-.212 0-.392.022-.54.066a2.597 2.597 0 0 0-.384.144 2.61 2.61 0 0 0-.264.138.386.386 0 0 1-.378.03.527.527 0 0 1-.156-.174l-.336-.57zm9.842 4.434V6.978h-1.512c-.04.516-.09.982-.15 1.398-.06.412-.13.78-.21 1.104-.08.324-.168.606-.264.846-.092.24-.192.446-.3.618h2.436zm2.568-.042v2.718c0 .136-.04.244-.12.324a.395.395 0 0 1-.3.12h-.924V12h-4.608v1.644c0 .104-.034.2-.102.288-.064.088-.166.132-.306.132h-.936v-3.12h.174c.14 0 .276-.018.408-.054a.915.915 0 0 0 .378-.24c.124-.12.24-.292.348-.516.112-.228.212-.53.3-.906.088-.38.164-.846.228-1.398.068-.552.122-1.214.162-1.986h4.17v5.058h1.128zm4.186-1.53c-.428.02-.788.058-1.08.114-.293.052-.526.12-.702.204a.923.923 0 0 0-.378.294.639.639 0 0 0-.114.366c0 .26.076.446.227.558.157.112.358.168.607.168.303 0 .566-.054.785-.162.224-.112.442-.28.655-.504V9.372zm-3.396-2.67c.707-.648 1.56-.972 2.555-.972.36 0 .683.06.966.18.284.116.524.28.72.492.197.208.344.458.444.75.105.292.157.612.157.96V12h-.672a.708.708 0 0 1-.324-.06c-.076-.044-.137-.13-.18-.258l-.133-.444c-.155.14-.308.264-.456.372a2.804 2.804 0 0 1-.462.264c-.16.072-.331.126-.515.162-.18.04-.38.06-.6.06-.26 0-.5-.034-.72-.102a1.618 1.618 0 0 1-.57-.318 1.414 1.414 0 0 1-.373-.522 1.852 1.852 0 0 1-.131-.726 1.419 1.419 0 0 1 .33-.906c.12-.14.273-.272.461-.396.189-.124.419-.232.69-.324.276-.092.596-.166.96-.222.365-.06.78-.096 1.249-.108v-.36c0-.412-.088-.716-.265-.912-.175-.2-.43-.3-.762-.3-.24 0-.44.028-.6.084-.155.056-.294.12-.414.192l-.33.186a.631.631 0 0 1-.323.084.439.439 0 0 1-.265-.078.716.716 0 0 1-.174-.192l-.264-.474zm11.601-.858V12H38.27V9.276h-2.4V12h-1.482V5.844h1.482v2.334h2.4V5.844h1.482zm4.192-.096c.456 0 .87.074 1.242.222a2.692 2.692 0 0 1 1.578 1.626c.144.392.216.83.216 1.314 0 .488-.072.928-.216 1.32-.144.392-.35.726-.618 1.002a2.653 2.653 0 0 1-.96.636 3.333 3.333 0 0 1-1.242.222c-.46 0-.878-.074-1.254-.222a2.712 2.712 0 0 1-.966-.636 2.922 2.922 0 0 1-.618-1.002 3.807 3.807 0 0 1-.216-1.32c0-.484.072-.922.216-1.314.148-.392.354-.724.618-.996.268-.272.59-.482.966-.63a3.397 3.397 0 0 1 1.254-.222zm0 5.202c.512 0 .89-.172 1.134-.516.248-.344.372-.848.372-1.512s-.124-1.17-.372-1.518c-.244-.348-.622-.522-1.134-.522-.52 0-.906.176-1.158.528-.248.348-.372.852-.372 1.512s.124 1.164.372 1.512c.252.344.638.516 1.158.516zm9.599.036c.312 0 .558-.076.738-.228.184-.152.276-.36.276-.624a.98.98 0 0 0-.048-.312.556.556 0 0 0-.156-.258.771.771 0 0 0-.312-.168 1.683 1.683 0 0 0-.492-.06h-1.11v1.65h1.104zM52.439 6.81v1.614h.972c.144 0 .276-.02.396-.06a.854.854 0 0 0 .516-.456.862.862 0 0 0 .024-.624.57.57 0 0 0-.162-.24.772.772 0 0 0-.306-.168 1.416 1.416 0 0 0-.468-.066h-.972zm1.014-.966c.388 0 .722.038 1.002.114.284.076.518.18.702.312.184.132.32.29.408.474.088.18.132.376.132.588 0 .132-.018.27-.054.414a1.342 1.342 0 0 1-.528.768 1.671 1.671 0 0 1-.564.252c.204.044.39.106.558.186.168.076.312.174.432.294.12.116.212.254.276.414.068.156.102.332.102.528a1.589 1.589 0 0 1-.72 1.374 2.32 2.32 0 0 1-.756.33 3.625 3.625 0 0 1-.894.108h-2.52V5.844h2.424zm14.077-2.52V12h-1.62V6.564c0-.204.004-.418.012-.642.012-.224.036-.462.072-.714-.08.224-.168.432-.264.624a6.114 6.114 0 0 1-.27.498l-3.318 5.172c-.036.06-.08.12-.132.18-.048.06-.102.114-.162.162-.06.044-.126.082-.198.114a.608.608 0 0 1-.222.042h-1.212V3.324h1.62V8.76c0 .204-.006.42-.018.648a6.77 6.77 0 0 1-.066.714c.08-.224.166-.432.258-.624.096-.192.19-.36.282-.504l3.312-5.172a1.023 1.023 0 0 1 .294-.336.785.785 0 0 1 .192-.114.555.555 0 0 1 .228-.048h1.212zm4.118 7.662c.312 0 .558-.076.738-.228.184-.152.276-.36.276-.624a.98.98 0 0 0-.048-.312.556.556 0 0 0-.156-.258.771.771 0 0 0-.312-.168 1.683 1.683 0 0 0-.492-.06h-1.11v1.65h1.104zM70.544 6.81v1.614h.972c.144 0 .276-.02.396-.06a.854.854 0 0 0 .516-.456.862.862 0 0 0 .024-.624.57.57 0 0 0-.162-.24.772.772 0 0 0-.306-.168 1.416 1.416 0 0 0-.468-.066h-.972zm1.014-.966c.388 0 .722.038 1.002.114.284.076.518.18.702.312.184.132.32.29.408.474.088.18.132.376.132.588 0 .132-.018.27-.054.414a1.342 1.342 0 0 1-.528.768 1.671 1.671 0 0 1-.564.252c.204.044.39.106.558.186.168.076.312.174.432.294.12.116.212.254.276.414.068.156.102.332.102.528a1.589 1.589 0 0 1-.72 1.374 2.32 2.32 0 0 1-.756.33 3.625 3.625 0 0 1-.894.108h-2.52V5.844h2.424zm6.863 3.528c-.428.02-.788.058-1.08.114-.291.052-.525.12-.701.204a.923.923 0 0 0-.379.294.639.639 0 0 0-.114.366c0 .26.076.446.228.558.156.112.359.168.606.168.305 0 .567-.054.787-.162a2.36 2.36 0 0 0 .653-.504V9.372zm-3.396-2.67c.709-.648 1.56-.972 2.556-.972.36 0 .682.06.966.18.285.116.525.28.72.492.197.208.345.458.445.75.103.292.156.612.156.96V12h-.672a.708.708 0 0 1-.325-.06c-.075-.044-.135-.13-.18-.258l-.132-.444c-.156.14-.308.264-.456.372a2.804 2.804 0 0 1-.462.264c-.16.072-.332.126-.516.162-.18.04-.38.06-.6.06-.26 0-.5-.034-.72-.102a1.618 1.618 0 0 1-.57-.318 1.414 1.414 0 0 1-.371-.522 1.852 1.852 0 0 1-.133-.726 1.419 1.419 0 0 1 .33-.906c.12-.14.274-.272.462-.396.189-.124.419-.232.69-.324.277-.092.597-.166.96-.222.364-.06.78-.096 1.248-.108v-.36c0-.412-.088-.716-.264-.912-.175-.2-.43-.3-.761-.3-.24 0-.44.028-.6.084a2.32 2.32 0 0 0-.415.192l-.33.186a.631.631 0 0 1-.323.084.439.439 0 0 1-.264-.078.716.716 0 0 1-.174-.192l-.265-.474zm11.602-.858V12h-1.482V9.276h-2.4V12h-1.482V5.844h1.482v2.334h2.4V5.844h1.482zm4.192-.096c.456 0 .87.074 1.242.222a2.692 2.692 0 0 1 1.578 1.626c.144.392.216.83.216 1.314 0 .488-.072.928-.216 1.32-.144.392-.35.726-.618 1.002a2.653 2.653 0 0 1-.96.636 3.333 3.333 0 0 1-1.242.222c-.46 0-.878-.074-1.254-.222a2.712 2.712 0 0 1-.966-.636 2.922 2.922 0 0 1-.618-1.002 3.807 3.807 0 0 1-.216-1.32c0-.484.072-.922.216-1.314.148-.392.354-.724.618-.996.268-.272.59-.482.966-.63a3.397 3.397 0 0 1 1.254-.222zm0 5.202c.512 0 .89-.172 1.134-.516.248-.344.372-.848.372-1.512s-.124-1.17-.372-1.518c-.244-.348-.622-.522-1.134-.522-.52 0-.906.176-1.158.528-.248.348-.372.852-.372 1.512s.124 1.164.372 1.512c.252.344.638.516 1.158.516zm4.119-3.192h3.108v1.236h-3.108V7.758zm9.384 1.962a2.1 2.1 0 0 0 1.506-.672c.184-.204.326-.44.426-.708.104-.272.156-.564.156-.876 0-.304-.052-.59-.156-.858-.1-.272-.242-.51-.426-.714a2.05 2.05 0 0 0-1.506-.678V9.72zm-1.53-4.506a2.113 2.113 0 0 0-.852.192 2.07 2.07 0 0 0-.654.486 2.174 2.174 0 0 0-.426.714c-.1.268-.15.554-.15.858 0 .312.05.604.15.876.1.268.242.504.426.708.184.2.402.36.654.48.256.12.54.184.852.192V5.214zm1.53-1.242c.54.016 1.036.118 1.488.306.452.188.84.44 1.164.756.328.316.584.682.768 1.098.184.416.276.86.276 1.332 0 .476-.092.924-.276 1.344-.184.416-.44.782-.768 1.098a3.658 3.658 0 0 1-1.164.756c-.452.188-.948.29-1.488.306V12h-1.53v-1.032a4.149 4.149 0 0 1-1.482-.306 3.878 3.878 0 0 1-1.17-.756 3.453 3.453 0 0 1-.767-1.098 3.312 3.312 0 0 1-.276-1.344c0-.472.092-.916.276-1.332.183-.416.44-.78.767-1.092a3.732 3.732 0 0 1 1.17-.756 4.24 4.24 0 0 1 1.482-.312V2.958h1.53v1.014zm6.185 6.432c.168.204.35.348.546.432.2.084.416.126.648.126.224 0 .426-.042.606-.126.18-.084.332-.212.456-.384.128-.172.226-.388.294-.648.068-.264.102-.574.102-.93 0-.36-.03-.664-.09-.912a1.73 1.73 0 0 0-.246-.612.978.978 0 0 0-.396-.342 1.206 1.206 0 0 0-.522-.108c-.308 0-.57.066-.786.198-.216.128-.42.31-.612.546v2.76zm-.078-3.72a3.21 3.21 0 0 1 .858-.69c.32-.176.696-.264 1.128-.264a2 2 0 0 1 .918.21c.28.14.52.344.72.612.204.264.36.592.468.984.112.388.168.834.168 1.338 0 .46-.062.886-.186 1.278a3.095 3.095 0 0 1-.534 1.02 2.447 2.447 0 0 1-.834.678c-.324.16-.688.24-1.092.24-.344 0-.638-.052-.882-.156a2.201 2.201 0 0 1-.654-.444v2.52h-1.482V5.844h.906c.192 0 .318.09.378.27l.12.57zm8.657 2.688c-.428.02-.788.058-1.08.114-.292.052-.526.12-.702.204a.923.923 0 0 0-.378.294.639.639 0 0 0-.114.366c0 .26.076.446.228.558.156.112.358.168.606.168.304 0 .566-.054.786-.162.224-.112.442-.28.654-.504V9.372zm-3.396-2.67c.708-.648 1.56-.972 2.556-.972.36 0 .682.06.966.18.284.116.524.28.72.492.196.208.344.458.444.75.104.292.156.612.156.96V12h-.672a.708.708 0 0 1-.324-.06c-.076-.044-.136-.13-.18-.258l-.132-.444c-.156.14-.308.264-.456.372a2.804 2.804 0 0 1-.462.264c-.16.072-.332.126-.516.162-.18.04-.38.06-.6.06-.26 0-.5-.034-.72-.102a1.618 1.618 0 0 1-.57-.318 1.414 1.414 0 0 1-.372-.522 1.852 1.852 0 0 1-.132-.726 1.419 1.419 0 0 1 .33-.906c.12-.14.274-.272.462-.396s.418-.232.69-.324c.276-.092.596-.166.96-.222.364-.06.78-.096 1.248-.108v-.36c0-.412-.088-.716-.264-.912-.176-.2-.43-.3-.762-.3-.24 0-.44.028-.6.084-.156.056-.294.12-.414.192l-.33.186a.631.631 0 0 1-.324.084.439.439 0 0 1-.264-.078.716.716 0 0 1-.174-.192l-.264-.474zm11.601-.858V12h-1.482V9.276h-2.4V12h-1.482V5.844h1.482v2.334h2.4V5.844h1.482zm5.146.39a.83.83 0 0 1 .69-.39h1.164l-1.434 2.286c-.1.16-.202.29-.306.39a1.15 1.15 0 0 1-.378.228c.2.06.364.15.492.27.128.116.244.264.348.444l1.44 2.538h-1.026c-.26 0-.462-.044-.606-.132a1.107 1.107 0 0 1-.366-.378l-.906-1.704a.805.805 0 0 0-.312-.33.857.857 0 0 0-.438-.108h-.558V12h-1.482V5.844h1.482v2.538h.48c.168 0 .302-.03.402-.09a.772.772 0 0 0 .264-.288l1.05-1.77zm5.339-.486c.456 0 .87.074 1.242.222a2.692 2.692 0 0 1 1.578 1.626c.144.392.216.83.216 1.314 0 .488-.072.928-.216 1.32-.144.392-.35.726-.618 1.002a2.653 2.653 0 0 1-.96.636 3.333 3.333 0 0 1-1.242.222c-.46 0-.878-.074-1.254-.222a2.712 2.712 0 0 1-.966-.636 2.922 2.922 0 0 1-.618-1.002 3.807 3.807 0 0 1-.216-1.32c0-.484.072-.922.216-1.314.148-.392.354-.724.618-.996.268-.272.59-.482.966-.63a3.397 3.397 0 0 1 1.254-.222zm0 5.202c.512 0 .89-.172 1.134-.516.248-.344.372-.848.372-1.512s-.124-1.17-.372-1.518c-.244-.348-.622-.522-1.134-.522-.52 0-.906.176-1.158.528-.248.348-.372.852-.372 1.512s.124 1.164.372 1.512c.252.344.638.516 1.158.516zm6.681.036c.312 0 .558-.076.738-.228.184-.152.276-.36.276-.624a.98.98 0 0 0-.048-.312.556.556 0 0 0-.156-.258.771.771 0 0 0-.312-.168 1.683 1.683 0 0 0-.492-.06h-1.11v1.65h1.104zm-1.104-4.176v1.614h.972c.144 0 .276-.02.396-.06a.854.854 0 0 0 .516-.456.862.862 0 0 0 .024-.624.57.57 0 0 0-.162-.24.772.772 0 0 0-.306-.168 1.416 1.416 0 0 0-.468-.066h-.972zm1.014-.966c.388 0 .722.038 1.002.114.284.076.518.18.702.312.184.132.32.29.408.474.088.18.132.376.132.588 0 .132-.018.27-.054.414a1.342 1.342 0 0 1-.528.768 1.671 1.671 0 0 1-.564.252c.204.044.39.106.558.186.168.076.312.174.432.294.12.116.212.254.276.414.068.156.102.332.102.528a1.589 1.589 0 0 1-.72 1.374 2.32 2.32 0 0 1-.756.33 3.625 3.625 0 0 1-.894.108h-2.52V5.844h2.424zm8.021 1.302a.685.685 0 0 1-.132.132c-.04.032-.1.048-.18.048a.42.42 0 0 1-.222-.066 3.947 3.947 0 0 0-.258-.156c-.1-.06-.22-.112-.36-.156a1.55 1.55 0 0 0-.51-.072c-.26 0-.488.048-.684.144-.196.092-.36.226-.492.402-.128.176-.224.39-.288.642-.064.248-.096.53-.096.846 0 .328.034.62.102.876.072.256.174.472.306.648.132.172.292.304.48.396.188.088.4.132.636.132s.426-.028.57-.084c.148-.06.272-.124.372-.192.1-.072.186-.136.258-.192.076-.06.16-.09.252-.09a.3.3 0 0 1 .27.138l.426.54a2.76 2.76 0 0 1-.534.486 3.06 3.06 0 0 1-.6.312 3.09 3.09 0 0 1-.636.162 4.416 4.416 0 0 1-.648.048c-.38 0-.738-.07-1.074-.21a2.572 2.572 0 0 1-.882-.624 3.01 3.01 0 0 1-.6-.996 3.934 3.934 0 0 1-.216-1.35c0-.452.064-.87.192-1.254.132-.388.324-.722.576-1.002a2.61 2.61 0 0 1 .936-.666c.372-.16.8-.24 1.284-.24.46 0 .862.074 1.206.222.348.148.66.36.936.636l-.39.54zm5.057-.912a.83.83 0 0 1 .69-.39h1.164l-1.434 2.286c-.1.16-.202.29-.306.39a1.15 1.15 0 0 1-.378.228c.2.06.364.15.492.27.128.116.244.264.348.444l1.44 2.538h-1.026c-.26 0-.462-.044-.606-.132a1.107 1.107 0 0 1-.366-.378l-.906-1.704a.805.805 0 0 0-.312-.33.857.857 0 0 0-.438-.108h-.558V12h-1.482V5.844h1.482v2.538h.48c.168 0 .302-.03.402-.09a.772.772 0 0 0 .264-.288l1.05-1.77zm6.581 1.98c0-.192-.028-.372-.084-.54a1.25 1.25 0 0 0-.24-.45 1.096 1.096 0 0 0-.414-.3 1.358 1.358 0 0 0-.576-.114c-.428 0-.766.122-1.014.366-.244.244-.4.59-.468 1.038h2.796zm-2.826.894c.024.316.08.59.168.822.088.228.204.418.348.57.144.148.314.26.51.336.2.072.42.108.66.108.24 0 .446-.028.618-.084a2.76 2.76 0 0 0 .456-.186 7.55 7.55 0 0 0 .342-.186.59.59 0 0 1 .288-.084c.124 0 .216.046.276.138l.426.54a2.536 2.536 0 0 1-.552.486 3.281 3.281 0 0 1-1.32.474 4.79 4.79 0 0 1-.666.048 3.33 3.33 0 0 1-1.194-.21 2.726 2.726 0 0 1-.96-.63 2.993 2.993 0 0 1-.642-1.032c-.156-.412-.234-.888-.234-1.428 0-.42.068-.814.204-1.182.136-.372.33-.694.582-.966.256-.276.566-.494.93-.654.368-.16.782-.24 1.242-.24.388 0 .746.062 1.074.186.328.124.61.306.846.546.236.236.42.528.552.876.136.344.204.738.204 1.182 0 .224-.024.376-.072.456-.048.076-.14.114-.276.114h-3.81z" transform="translate(23.538 .778)" fill="#BDBDBD"/></g></svg>