<svg width="195" height="19" fill="none" xmlns="http://www.w3.org/2000/svg"><g id="made-in"><g id="Group"><path id="Vector" d="M.654 0c.2.2.4.3.6.5l1.2 1.2c2.9 3 5.8 5.9 8.7 8.9 1.6 1.7 3.3 3.3 4.9 5 .3.3.6.6.9 1-1.1 1.3-3 .8-3.7-1-1.9.3-3.8-.9-4.1-3.2h-.8c-.1 1-.5 1.9-1.3 2.5-.7.5-1.6.8-2.7.6-.2.6-.5 1.2-1.1 1.4-.4.2-.9.3-1.3.2-.9-.1-1.7-.9-1.9-1.9-.2-1 .4-1.9 1.7-2.5-.3-2.1.7-3.4 3.1-4.1v-.7c-1-.2-1.9-.6-2.5-1.4-.6-.8-.8-1.7-.6-2.7-1.8-1-2.3-2.7-1.1-3.8z" transform="translate(.68 1.45)" fill="#BE1F0C"/><path id="Vector_2" d="M.654 0c.2.2.4.3.6.5l1.2 1.2c2.9 3 5.8 5.9 8.7 8.9 1.6 1.7 3.3 3.3 4.9 5 .3.3.6.6.9 1-1.1 1.3-3 .8-3.7-1-1.9.3-3.8-.9-4.1-3.2h-.8c-.1 1-.5 1.9-1.3 2.5-.7.5-1.6.8-2.7.6-.2.6-.5 1.2-1.1 1.4-.4.2-.9.3-1.3.2-.9-.1-1.7-.9-1.9-1.9-.2-1 .4-1.9 1.7-2.5-.3-2.1.7-3.4 3.1-4.1v-.7c-1-.2-1.9-.6-2.5-1.4-.6-.8-.8-1.7-.6-2.7-1.8-1-2.3-2.7-1.1-3.8z" transform="rotate(180 9.146 9.02)" fill="#E42013"/></g><path id="Зроблено в Івано-Франківську" d="M.468 4.14a3.66 3.66 0 0 1 1.194-.672c.464-.16.978-.24 1.542-.24.468 0 .89.056 1.266.168.38.112.702.27.966.474.264.2.466.44.606.72.144.276.216.58.216.912 0 .408-.094.778-.282 1.11a2.054 2.054 0 0 1-.84.798c.2.096.382.21.546.342.168.128.31.272.426.432.12.156.212.326.276.51.068.184.102.38.102.588 0 .392-.074.758-.222 1.098-.144.34-.356.636-.636.888a3.046 3.046 0 0 1-1.02.6 4.116 4.116 0 0 1-1.386.216c-.304 0-.602-.028-.894-.084a4.68 4.68 0 0 1-1.572-.588 3.53 3.53 0 0 1-.618-.468l.474-.774a.57.57 0 0 1 .156-.138.389.389 0 0 1 .21-.06c.104 0 .218.042.342.126.124.08.274.17.45.27s.384.192.624.276c.244.08.536.12.876.12.54 0 .958-.116 1.254-.348.296-.232.444-.588.444-1.068 0-.196-.04-.372-.12-.528a1.117 1.117 0 0 0-.342-.396 1.6 1.6 0 0 0-.54-.246c-.208-.06-.44-.09-.696-.09H2.046L2.04 6.792h1.116c.5 0 .89-.098 1.17-.294.284-.2.426-.488.426-.864a.931.931 0 0 0-.402-.792c-.264-.2-.648-.3-1.152-.3-.292 0-.544.032-.756.096-.208.064-.39.134-.546.21a4.83 4.83 0 0 0-.39.204.551.551 0 0 1-.282.096.342.342 0 0 1-.204-.06.589.589 0 0 1-.156-.18L.468 4.14zm8.601 6.264c.168.204.35.348.546.432.2.084.416.126.649.126.224 0 .426-.042.606-.126.18-.084.332-.212.456-.384.127-.172.226-.388.293-.648.069-.264.103-.574.103-.93 0-.36-.03-.664-.09-.912a1.73 1.73 0 0 0-.246-.612.978.978 0 0 0-.396-.342 1.206 1.206 0 0 0-.523-.108c-.308 0-.57.066-.786.198-.216.128-.42.31-.612.546v2.76zm-.078-3.72a3.21 3.21 0 0 1 .858-.69c.32-.176.697-.264 1.128-.264a2 2 0 0 1 .918.21c.28.14.52.344.72.612.204.264.36.592.469.984.111.388.168.834.168 1.338 0 .46-.063.886-.187 1.278a3.095 3.095 0 0 1-.534 1.02 2.447 2.447 0 0 1-.834.678c-.323.16-.688.24-1.091.24-.345 0-.639-.052-.883-.156a2.201 2.201 0 0 1-.654-.444v2.52H7.587V5.844h.906c.192 0 .318.09.378.27l.12.57zm8.13-.936c.455 0 .87.074 1.241.222a2.692 2.692 0 0 1 1.578 1.626c.144.392.216.83.216 1.314 0 .488-.072.928-.216 1.32-.144.392-.35.726-.618 1.002a2.653 2.653 0 0 1-.96.636 3.333 3.333 0 0 1-1.242.222c-.46 0-.878-.074-1.254-.222a2.712 2.712 0 0 1-.966-.636 2.922 2.922 0 0 1-.618-1.002 3.807 3.807 0 0 1-.216-1.32c0-.484.072-.922.216-1.314.148-.392.354-.724.618-.996.268-.272.59-.482.966-.63a3.397 3.397 0 0 1 1.254-.222zm0 5.202c.511 0 .89-.172 1.133-.516.248-.344.372-.848.372-1.512s-.124-1.17-.372-1.518c-.244-.348-.622-.522-1.134-.522-.52 0-.906.176-1.158.528-.248.348-.372.852-.372 1.512s.124 1.164.372 1.512c.252.344.638.516 1.158.516zm7.058.06c.512 0 .894-.164 1.146-.492.252-.328.378-.808.378-1.44 0-.628-.124-1.106-.372-1.434-.244-.328-.618-.492-1.122-.492-.504 0-.888.156-1.152.468-.264.308-.396.77-.396 1.386 0 .652.124 1.15.372 1.494.252.34.634.51 1.146.51zm.432-6.282a2.704 2.704 0 0 0-.966.222c-.264.12-.484.284-.66.492a2.14 2.14 0 0 0-.396.738c-.088.284-.14.6-.156.948.1-.156.222-.298.366-.426.148-.132.312-.244.492-.336.184-.096.382-.17.594-.222a2.94 2.94 0 0 1 .69-.078c.408 0 .776.072 1.104.216.328.144.606.348.834.612.232.264.408.582.528.954.124.368.186.776.186 1.224 0 .464-.074.882-.222 1.254-.144.372-.35.69-.618.954a2.68 2.68 0 0 1-.96.6c-.376.14-.792.21-1.248.21-.444 0-.854-.072-1.23-.216a2.363 2.363 0 0 1-.966-.702c-.272-.324-.484-.744-.636-1.26-.152-.52-.228-1.154-.228-1.902 0-.628.058-1.212.174-1.752a4.16 4.16 0 0 1 .57-1.416c.264-.408.61-.736 1.038-.984.428-.248.956-.396 1.584-.444l2.19-.168.078.768a.71.71 0 0 1-.072.42c-.064.112-.178.172-.342.18l-1.728.114zM33.948 12h-1.482V6.978h-1.512a17.108 17.108 0 0 1-.222 1.956c-.1.544-.22 1.006-.36 1.386a3.56 3.56 0 0 1-.462.918 2.196 2.196 0 0 1-.54.534c-.192.128-.39.212-.594.252-.204.044-.41.066-.618.066-.22 0-.382-.02-.486-.06-.1-.036-.15-.088-.15-.156v-.924h.354c.132 0 .264-.02.396-.06a.934.934 0 0 0 .384-.246c.124-.124.242-.3.354-.528.112-.232.214-.536.306-.912.096-.38.18-.844.252-1.392.072-.548.128-1.204.168-1.968h4.212V12zm5.426-3.786c0-.192-.028-.372-.084-.54a1.25 1.25 0 0 0-.24-.45 1.096 1.096 0 0 0-.414-.3 1.358 1.358 0 0 0-.576-.114c-.428 0-.766.122-1.014.366-.244.244-.4.59-.468 1.038h2.796zm-2.826.894c.024.316.08.59.168.822.088.228.204.418.348.57.144.148.314.26.51.336.2.072.42.108.66.108.24 0 .446-.028.618-.084a2.76 2.76 0 0 0 .456-.186 7.55 7.55 0 0 0 .342-.186.59.59 0 0 1 .288-.084c.124 0 .216.046.276.138l.426.54a2.536 2.536 0 0 1-.552.486 3.281 3.281 0 0 1-1.32.474 4.79 4.79 0 0 1-.666.048 3.33 3.33 0 0 1-1.194-.21 2.726 2.726 0 0 1-.96-.63 2.993 2.993 0 0 1-.642-1.032c-.156-.412-.234-.888-.234-1.428 0-.42.068-.814.204-1.182.136-.372.33-.694.582-.966.256-.276.566-.494.93-.654.368-.16.782-.24 1.242-.24.388 0 .746.062 1.074.186.328.124.61.306.846.546.236.236.42.528.552.876.136.344.204.738.204 1.182 0 .224-.024.376-.072.456-.048.076-.14.114-.276.114h-3.81zm10.634-3.264V12H45.7V9.276h-2.4V12h-1.482V5.844H43.3v2.334h2.4V5.844h1.482zm4.192-.096c.456 0 .87.074 1.242.222a2.692 2.692 0 0 1 1.578 1.626c.144.392.216.83.216 1.314 0 .488-.072.928-.216 1.32-.144.392-.35.726-.618 1.002a2.653 2.653 0 0 1-.96.636 3.333 3.333 0 0 1-1.242.222c-.46 0-.878-.074-1.254-.222a2.712 2.712 0 0 1-.966-.636 2.922 2.922 0 0 1-.618-1.002 3.807 3.807 0 0 1-.216-1.32c0-.484.072-.922.216-1.314.148-.392.354-.724.618-.996.268-.272.59-.482.966-.63a3.397 3.397 0 0 1 1.254-.222zm0 5.202c.512 0 .89-.172 1.134-.516.248-.344.372-.848.372-1.512s-.124-1.17-.372-1.518c-.244-.348-.622-.522-1.134-.522-.52 0-.906.176-1.158.528-.248.348-.372.852-.372 1.512s.124 1.164.372 1.512c.252.344.638.516 1.158.516zm9.599.036c.312 0 .558-.076.738-.228.184-.152.276-.36.276-.624a.98.98 0 0 0-.048-.312.556.556 0 0 0-.156-.258.771.771 0 0 0-.312-.168 1.683 1.683 0 0 0-.492-.06h-1.11v1.65h1.104zM59.869 6.81v1.614h.972c.144 0 .276-.02.396-.06a.854.854 0 0 0 .516-.456.862.862 0 0 0 .024-.624.57.57 0 0 0-.162-.24.772.772 0 0 0-.306-.168 1.416 1.416 0 0 0-.468-.066h-.972zm1.014-.966c.388 0 .722.038 1.002.114.284.076.518.18.702.312.184.132.32.29.408.474.088.18.132.376.132.588 0 .132-.018.27-.054.414a1.342 1.342 0 0 1-.528.768 1.671 1.671 0 0 1-.564.252c.204.044.39.106.558.186.168.076.312.174.432.294.12.116.212.254.276.414.068.156.102.332.102.528a1.589 1.589 0 0 1-.72 1.374 2.32 2.32 0 0 1-.756.33 3.625 3.625 0 0 1-.894.108h-2.52V5.844h2.424zM69.266 12h-1.62V3.324h1.62V12zm4.128-1.014c.312 0 .558-.076.738-.228.184-.152.276-.36.276-.624a.98.98 0 0 0-.048-.312.556.556 0 0 0-.156-.258.771.771 0 0 0-.312-.168 1.683 1.683 0 0 0-.492-.06h-1.11v1.65h1.104zM72.29 6.81v1.614h.972c.144 0 .276-.02.396-.06a.854.854 0 0 0 .516-.456.862.862 0 0 0 .024-.624.57.57 0 0 0-.162-.24.772.772 0 0 0-.306-.168 1.416 1.416 0 0 0-.468-.066h-.972zm1.014-.966c.388 0 .722.038 1.002.114.284.076.518.18.702.312.184.132.32.29.408.474.088.18.132.376.132.588 0 .132-.018.27-.054.414a1.342 1.342 0 0 1-.528.768 1.671 1.671 0 0 1-.564.252c.204.044.39.106.558.186.168.076.312.174.432.294.12.116.212.254.276.414.068.156.102.332.102.528a1.589 1.589 0 0 1-.72 1.374 2.32 2.32 0 0 1-.756.33A3.625 3.625 0 0 1 73.4 12h-2.52V5.844h2.424zm6.864 3.528c-.428.02-.788.058-1.08.114-.292.052-.526.12-.702.204a.923.923 0 0 0-.378.294.639.639 0 0 0-.114.366c0 .26.076.446.228.558.156.112.358.168.606.168.304 0 .566-.054.786-.162.224-.112.442-.28.654-.504V9.372zm-3.396-2.67c.708-.648 1.56-.972 2.556-.972.36 0 .682.06.966.18.284.116.524.28.72.492.196.208.344.458.444.75.104.292.156.612.156.96V12h-.672a.708.708 0 0 1-.324-.06c-.076-.044-.136-.13-.18-.258l-.132-.444c-.156.14-.308.264-.456.372a2.804 2.804 0 0 1-.462.264c-.16.072-.332.126-.516.162-.18.04-.38.06-.6.06-.26 0-.5-.034-.72-.102a1.618 1.618 0 0 1-.57-.318 1.414 1.414 0 0 1-.372-.522 1.852 1.852 0 0 1-.132-.726 1.419 1.419 0 0 1 .33-.906c.12-.14.274-.272.462-.396s.418-.232.69-.324c.276-.092.596-.166.96-.222.364-.06.78-.096 1.248-.108v-.36c0-.412-.088-.716-.264-.912-.176-.2-.43-.3-.762-.3-.24 0-.44.028-.6.084-.156.056-.294.12-.414.192l-.33.186a.631.631 0 0 1-.324.084.439.439 0 0 1-.264-.078.716.716 0 0 1-.174-.192l-.264-.474zm11.601-.858V12h-1.482V9.276h-2.4V12H83.01V5.844h1.482v2.334h2.4V5.844h1.482zm4.192-.096c.456 0 .87.074 1.242.222a2.692 2.692 0 0 1 1.578 1.626c.144.392.216.83.216 1.314 0 .488-.072.928-.216 1.32-.144.392-.35.726-.618 1.002a2.653 2.653 0 0 1-.96.636 3.333 3.333 0 0 1-1.242.222c-.46 0-.878-.074-1.254-.222a2.712 2.712 0 0 1-.966-.636 2.922 2.922 0 0 1-.618-1.002 3.807 3.807 0 0 1-.216-1.32c0-.484.072-.922.216-1.314.148-.392.354-.724.618-.996.268-.272.59-.482.966-.63a3.397 3.397 0 0 1 1.254-.222zm0 5.202c.512 0 .89-.172 1.134-.516.248-.344.372-.848.372-1.512s-.124-1.17-.372-1.518c-.244-.348-.622-.522-1.134-.522-.52 0-.906.176-1.158.528-.248.348-.372.852-.372 1.512s.124 1.164.372 1.512c.252.344.638.516 1.158.516zm4.119-3.192h3.108v1.236h-3.108V7.758zm9.385 1.962a2.1 2.1 0 0 0 1.506-.672c.184-.204.326-.44.426-.708.104-.272.156-.564.156-.876 0-.304-.052-.59-.156-.858-.1-.272-.242-.51-.426-.714a2.05 2.05 0 0 0-1.506-.678V9.72zm-1.53-4.506a2.113 2.113 0 0 0-.852.192 2.07 2.07 0 0 0-.654.486 2.174 2.174 0 0 0-.426.714c-.1.268-.15.554-.15.858 0 .312.05.604.15.876.1.268.242.504.426.708.184.2.402.36.654.48.256.12.54.184.852.192V5.214zm1.53-1.242c.54.016 1.036.118 1.488.306.452.188.84.44 1.164.756.328.316.584.682.768 1.098.184.416.276.86.276 1.332 0 .476-.092.924-.276 1.344-.184.416-.44.782-.768 1.098a3.658 3.658 0 0 1-1.164.756c-.452.188-.948.29-1.488.306V12h-1.53v-1.032a4.149 4.149 0 0 1-1.482-.306 3.878 3.878 0 0 1-1.17-.756 3.447 3.447 0 0 1-.768-1.098 3.312 3.312 0 0 1-.276-1.344c0-.472.092-.916.276-1.332.184-.416.44-.78.768-1.092a3.732 3.732 0 0 1 1.17-.756 4.24 4.24 0 0 1 1.482-.312V2.958h1.53v1.014zm6.184 6.432c.168.204.35.348.546.432.2.084.416.126.648.126.224 0 .426-.042.606-.126.18-.084.332-.212.456-.384.128-.172.226-.388.294-.648.068-.264.102-.574.102-.93 0-.36-.03-.664-.09-.912a1.73 1.73 0 0 0-.246-.612.978.978 0 0 0-.396-.342 1.206 1.206 0 0 0-.522-.108c-.308 0-.57.066-.786.198-.216.128-.42.31-.612.546v2.76zm-.078-3.72a3.21 3.21 0 0 1 .858-.69c.32-.176.696-.264 1.128-.264a2 2 0 0 1 .918.21c.28.14.52.344.72.612.204.264.36.592.468.984.112.388.168.834.168 1.338 0 .46-.062.886-.186 1.278a3.095 3.095 0 0 1-.534 1.02 2.447 2.447 0 0 1-.834.678c-.324.16-.688.24-1.092.24-.344 0-.638-.052-.882-.156a2.201 2.201 0 0 1-.654-.444v2.52h-1.482V5.844h.906c.192 0 .318.09.378.27l.12.57zm8.657 2.688c-.428.02-.788.058-1.08.114-.292.052-.526.12-.702.204a.923.923 0 0 0-.378.294.639.639 0 0 0-.114.366c0 .26.076.446.228.558.156.112.358.168.606.168.304 0 .566-.054.786-.162.224-.112.442-.28.654-.504V9.372zm-3.396-2.67c.708-.648 1.56-.972 2.556-.972.36 0 .682.06.966.18.284.116.524.28.72.492.196.208.344.458.444.75.104.292.156.612.156.96V12h-.672a.708.708 0 0 1-.324-.06c-.076-.044-.136-.13-.18-.258l-.132-.444c-.156.14-.308.264-.456.372a2.804 2.804 0 0 1-.462.264c-.16.072-.332.126-.516.162-.18.04-.38.06-.6.06-.26 0-.5-.034-.72-.102a1.618 1.618 0 0 1-.57-.318 1.414 1.414 0 0 1-.372-.522 1.852 1.852 0 0 1-.132-.726 1.419 1.419 0 0 1 .33-.906c.12-.14.274-.272.462-.396s.418-.232.69-.324c.276-.092.596-.166.96-.222.364-.06.78-.096 1.248-.108v-.36c0-.412-.088-.716-.264-.912-.176-.2-.43-.3-.762-.3-.24 0-.44.028-.6.084-.156.056-.294.12-.414.192l-.33.186a.631.631 0 0 1-.324.084.439.439 0 0 1-.264-.078.716.716 0 0 1-.174-.192l-.264-.474zm11.601-.858V12h-1.482V9.276h-2.4V12h-1.482V5.844h1.482v2.334h2.4V5.844h1.482zm5.146.39a.83.83 0 0 1 .69-.39h1.164l-1.434 2.286c-.1.16-.202.29-.306.39a1.15 1.15 0 0 1-.378.228c.2.06.364.15.492.27.128.116.244.264.348.444l1.44 2.538h-1.026c-.26 0-.462-.044-.606-.132a1.107 1.107 0 0 1-.366-.378l-.906-1.704a.805.805 0 0 0-.312-.33.857.857 0 0 0-.438-.108h-.558V12h-1.482V5.844h1.482v2.538h.48c.168 0 .302-.03.402-.09a.772.772 0 0 0 .264-.288l1.05-1.77zm4.374-.39V12h-1.488V5.844h1.488zm.204-1.794a.844.844 0 0 1-.078.36.963.963 0 0 1-.21.294.995.995 0 0 1-.3.204.963.963 0 0 1-.372.072.948.948 0 0 1-.366-.072 1.018 1.018 0 0 1-.498-.498.963.963 0 0 1 0-.732.995.995 0 0 1 .204-.3.929.929 0 0 1 .294-.198.899.899 0 0 1 .738 0 .912.912 0 0 1 .3.198.943.943 0 0 1 .288.672zm3.821 6.936c.312 0 .558-.076.738-.228.184-.152.276-.36.276-.624a.98.98 0 0 0-.048-.312.556.556 0 0 0-.156-.258.771.771 0 0 0-.312-.168 1.683 1.683 0 0 0-.492-.06h-1.11v1.65h1.104zm-1.104-4.176v1.614h.972c.144 0 .276-.02.396-.06a.854.854 0 0 0 .516-.456.862.862 0 0 0 .024-.624.57.57 0 0 0-.162-.24.772.772 0 0 0-.306-.168 1.416 1.416 0 0 0-.468-.066h-.972zm1.014-.966c.388 0 .722.038 1.002.114.284.076.518.18.702.312.184.132.32.29.408.474.088.18.132.376.132.588 0 .132-.018.27-.054.414a1.342 1.342 0 0 1-.528.768 1.671 1.671 0 0 1-.564.252c.204.044.39.106.558.186.168.076.312.174.432.294.12.116.212.254.276.414.068.156.102.332.102.528a1.589 1.589 0 0 1-.72 1.374 2.32 2.32 0 0 1-.756.33 3.625 3.625 0 0 1-.894.108h-2.52V5.844h2.424zm8.021 1.302a.685.685 0 0 1-.132.132c-.04.032-.1.048-.18.048a.42.42 0 0 1-.222-.066 3.947 3.947 0 0 0-.258-.156c-.1-.06-.22-.112-.36-.156a1.55 1.55 0 0 0-.51-.072c-.26 0-.488.048-.684.144-.196.092-.36.226-.492.402-.128.176-.224.39-.288.642-.064.248-.096.53-.096.846 0 .328.034.62.102.876.072.256.174.472.306.648.132.172.292.304.48.396.188.088.4.132.636.132s.426-.028.57-.084c.148-.06.272-.124.372-.192.1-.072.186-.136.258-.192.076-.06.16-.09.252-.09a.3.3 0 0 1 .27.138l.426.54a2.76 2.76 0 0 1-.534.486 3.06 3.06 0 0 1-.6.312 3.09 3.09 0 0 1-.636.162 4.416 4.416 0 0 1-.648.048c-.38 0-.738-.07-1.074-.21a2.572 2.572 0 0 1-.882-.624 3.01 3.01 0 0 1-.6-.996 3.934 3.934 0 0 1-.216-1.35c0-.452.064-.87.192-1.254.132-.388.324-.722.576-1.002a2.61 2.61 0 0 1 .936-.666c.372-.16.8-.24 1.284-.24.46 0 .862.074 1.206.222.348.148.66.36.936.636l-.39.54zm3.893 3.792c.336 0 .586-.084.75-.252a.877.877 0 0 0 .252-.648c0-.112-.02-.22-.06-.324a.719.719 0 0 0-.174-.276.801.801 0 0 0-.312-.186 1.319 1.319 0 0 0-.462-.072h-1.098v1.758h1.104zm-.012-2.814c.428 0 .79.052 1.086.156.296.104.536.244.72.42.184.176.316.38.396.612.084.228.126.468.126.72 0 .288-.052.554-.156.798-.1.24-.25.448-.45.624a2.085 2.085 0 0 1-.726.402 3.05 3.05 0 0 1-.978.144h-2.52V5.844h1.41v2.28h1.092zm7-1.89a.83.83 0 0 1 .69-.39h1.164l-1.434 2.286c-.1.16-.202.29-.306.39a1.15 1.15 0 0 1-.378.228c.2.06.364.15.492.27.128.116.244.264.348.444L163.41 12h-1.026c-.26 0-.462-.044-.606-.132a1.107 1.107 0 0 1-.366-.378l-.906-1.704a.805.805 0 0 0-.312-.33.857.857 0 0 0-.438-.108h-.558V12h-1.482V5.844h1.482v2.538h.48c.168 0 .302-.03.402-.09a.772.772 0 0 0 .264-.288l1.05-1.77zm8.43-.39l-3.354 7.848a.538.538 0 0 1-.174.234c-.068.056-.174.084-.318.084h-1.104l1.152-2.472-2.49-5.694h1.302c.116 0 .206.028.27.084.068.056.118.12.15.192l1.308 3.192c.044.108.08.216.108.324.032.108.062.218.09.33a32.3 32.3 0 0 1 .108-.33c.036-.112.076-.222.12-.33l1.236-3.186a.437.437 0 0 1 .408-.276h1.188z" transform="translate(24.152 1.45)" fill="#959191"/></g></svg>