<svg width="77" height="15" viewBox="0 0 77 15" fill="none" xmlns="http://www.w3.org/2000/svg">
<path d="M12.8488 -1.32156e-07L7.34948 6.81723L13.7224 14.7227H9.23056L3.51541 7.56668V14.7227H-5.80488e-08V-1.32156e-07H3.51541V6.42704L8.65492 -1.32156e-07H12.8488ZM18.5638 6.93018C17.2139 7.05333 16.5218 7.8987 16.4875 9.46609C16.5218 11.0882 17.2174 11.9404 18.5742 12.0225C19.9173 11.9404 20.6059 11.0848 20.6402 9.45578C20.6059 7.8953 19.9138 7.05333 18.5638 6.93018ZM18.5536 15C17.0391 15 15.7371 14.4626 14.6476 13.3881C13.5717 12.2998 13.0337 10.9992 13.0337 9.48662C13.0337 7.96028 13.5717 6.65984 14.6476 5.58517C15.7371 4.49691 17.0391 3.95276 18.5536 3.95276C20.0818 3.95276 21.3871 4.49691 22.4699 5.58517C23.5458 6.65984 24.0837 7.96028 24.0837 9.48662C24.0837 10.9992 23.5458 12.2998 22.4699 13.3881C21.3871 14.4626 20.0818 15 18.5536 15ZM36.2643 14.7227H32.8003V9.40451C32.8003 7.80969 32.1972 7.01228 30.9912 7.01228C29.7851 7.01228 29.1821 7.80629 29.1821 9.3942L29.1924 14.7227H25.8414V4.13756H29.2026V5.40044C29.8947 4.57219 30.6759 4.1581 31.5462 4.1581C34.6916 4.1581 36.2643 6.00611 36.2643 9.70219V14.7227ZM43.2951 14.8049C43.0484 14.8254 42.8155 14.8357 42.5962 14.8357C39.903 14.8357 38.5566 13.3231 38.5566 10.2977V1.04723H41.8869V4.08623H44.5801V7.13554H41.8869V9.91786C41.8869 11.2183 42.3495 11.8685 43.2746 11.8685H44.5801V14.579C43.9427 14.709 43.5145 14.7843 43.2951 14.8049ZM50.9632 6.93018C49.6133 7.05333 48.9212 7.8987 48.8869 9.46609C48.9212 11.0882 49.6168 11.9404 50.9736 12.0225C52.3166 11.9404 53.0053 11.0848 53.0396 9.45578C53.0053 7.8953 52.3132 7.05333 50.9632 6.93018ZM50.953 15C49.4385 15 48.1365 14.4626 47.047 13.3881C45.9712 12.2998 45.4331 10.9992 45.4331 9.48662C45.4331 7.96028 45.9712 6.65984 47.047 5.58517C48.1365 4.49691 49.4385 3.95276 50.953 3.95276C52.4812 3.95276 53.7865 4.49691 54.8693 5.58517C55.9452 6.65984 56.4831 7.96028 56.4831 9.48662C56.4831 10.9992 55.9452 12.2998 54.8693 13.3881C53.7865 14.4626 52.4812 15 50.953 15ZM61.5815 6.22178C62.116 4.87337 62.9931 4.19917 64.2129 4.19917C64.6241 4.19917 65.0763 4.27788 65.5697 4.43531L65.5595 7.12523H65.2819C62.8493 7.12523 61.6157 8.25806 61.5815 10.5236V14.7227H58.2408V4.2197H61.5815V6.22178ZM71.6857 11.8172C73.0083 11.7419 73.6901 10.9411 73.7312 9.41473C73.6901 7.93635 73.0049 7.14235 71.6755 7.03281C70.3461 7.14235 69.6642 7.93635 69.6299 9.41473C69.6642 10.948 70.3495 11.7488 71.6857 11.8172ZM77 4.13756V14.7227H73.649V13.4086C72.8678 14.2367 72.1003 14.6509 71.3465 14.6509C69.9075 14.6509 68.674 14.1409 67.6461 13.1211C66.6251 12.0944 66.1145 10.8624 66.1145 9.42504C66.1145 7.98081 66.6251 6.74875 67.6461 5.72896C68.674 4.70225 69.9075 4.1889 71.3465 4.1889C72.1003 4.1889 72.8678 4.603 73.649 5.43118V4.13756H77Z" fill="#BDBDBD"/>
</svg>
