<svg width="122" height="30" viewBox="0 0 122 30" fill="none" xmlns="http://www.w3.org/2000/svg">
<path d="M10.886 16.4884L11.0817 15.9992C11.1457 15.844 11.2192 15.6928 11.3019 15.5467L19.8639 0.308228C19.9178 0.203031 20.0034 0.117451 20.1086 0.0636301C20.2219 0.0439976 20.3377 0.0439976 20.4511 0.0636301H21.5519V21.943H20.2798V3.25564C20.2649 2.97047 20.2649 2.68472 20.2798 2.39954L11.6933 17.7236C11.6405 17.8447 11.5531 17.9476 11.4422 18.0194C11.3312 18.0911 11.2016 18.1286 11.0695 18.1272H10.8249C10.6934 18.1256 10.5651 18.0869 10.4547 18.0154C10.3443 17.944 10.2564 17.8429 10.2011 17.7236L1.33323 2.38732C1.34833 2.67656 1.34833 2.9664 1.33323 3.25564V21.943H4.66594e-07V0.0147104H1.10083C1.21826 -0.00490348 1.33812 -0.00490348 1.45555 0.0147104C1.56582 0.0656683 1.65613 0.151669 1.71241 0.259309L10.568 15.51C10.7003 15.827 10.8067 16.1542 10.886 16.4884Z" transform="translate(36.384 4.20459)" fill="url(#paint0_linear)"/>
<path d="M7.03386 0.00125622C8.05276 -0.0175038 9.06458 0.174009 10.0061 0.563833C10.8568 0.921808 11.6141 1.46986 12.22 2.16595C12.8343 2.88242 13.3 3.71387 13.5899 4.61194C13.9189 5.67293 14.0798 6.77883 14.067 7.88956C14.08 8.99628 13.919 10.0982 13.5899 11.1549C13.2997 12.0529 12.834 12.8843 12.22 13.6009C11.6159 14.299 10.8581 14.8474 10.0061 15.203C8.09852 15.9462 5.98143 15.9462 4.07384 15.203C3.22318 14.8451 2.46585 14.297 1.85994 13.6009C1.23964 12.8867 0.769575 12.0548 0.47778 11.1549C0.148515 10.0982 -0.0124609 8.99629 0.000752217 7.88956C0.00192103 6.79803 0.171064 5.71318 0.502243 4.67309C0.794039 3.77324 1.26411 2.94137 1.8844 2.2271C2.49206 1.53292 3.24892 0.985211 4.0983 0.624983C5.02405 0.219109 6.02304 0.00685057 7.03386 0.00125622ZM7.03386 14.6772C7.87443 14.6998 8.70966 14.5369 9.48016 14.2002C10.157 13.8948 10.749 13.4288 11.2048 12.8427C11.6851 12.2086 12.0344 11.4852 12.2322 10.7147C12.4704 9.80048 12.5856 8.85864 12.5747 7.91402C12.5842 6.9735 12.469 6.03587 12.2322 5.12559C12.0344 4.34763 11.6853 3.61623 11.2048 2.97313C10.749 2.38396 10.1573 1.91397 9.48016 1.60338C8.71635 1.28647 7.89751 1.12334 7.07055 1.12334C6.2436 1.12334 5.42476 1.28647 4.66095 1.60338C3.98403 1.92562 3.39616 2.40845 2.94854 3.00982C2.46374 3.65193 2.11043 4.3834 1.90887 5.16228C1.66521 6.07147 1.54589 7.00948 1.55415 7.95071C1.54448 8.89604 1.66381 9.83828 1.90887 10.7514C2.11342 11.5217 2.4666 12.2446 2.94854 12.8794C3.40437 13.4655 3.99638 13.9315 4.67318 14.2369C5.41734 14.5615 6.22204 14.724 7.03386 14.7139V14.6772Z" transform="translate(62.6688 10.4798)" fill="url(#paint1_linear)"/>
<path d="M1.48001 -2.79921e-07V22.552H-1.86638e-06V-2.79921e-07H1.48001Z" transform="translate(81.0291 3.59561)" fill="url(#paint2_linear)"/>
<path d="M2.58084 22.259V8.4514L0.452565 8.30464C0.150855 8.30464 -3.35948e-06 8.17419 -3.35948e-06 7.91328V7.31401H2.61754V5.36946C2.58354 4.58472 2.67858 3.79973 2.89886 3.04577C3.09941 2.42913 3.42879 1.86218 3.86515 1.3825C4.26921 0.920761 4.77619 0.560476 5.34516 0.330729C5.9637 0.103275 6.61876 -0.00865071 7.27774 0.000521349C7.60169 0.00137139 7.92498 0.0300131 8.24403 0.086131C8.53749 0.136227 8.8246 0.218247 9.10023 0.330729V1.04006C9.10023 1.18682 8.99015 1.2602 8.80668 1.2602H8.30518C8.04457 1.24179 7.78298 1.24179 7.52237 1.2602C7.04442 1.25363 6.56882 1.32806 6.11574 1.48034C5.69121 1.62607 5.30899 1.87385 5.00268 2.20191C4.66861 2.57493 4.42206 3.01783 4.28102 3.49828C4.09638 4.13369 4.00977 4.79354 4.02416 5.45507V7.36293H9.01461V8.46363H4.04863V22.259H2.58084Z" transform="translate(85.9584 3.88858)" fill="url(#paint3_linear)"/>
<path d="M10.655 15.7291C10.5228 15.7436 10.39 15.7075 10.2833 15.6281C10.1766 15.5487 10.104 15.4318 10.0801 15.301L9.85991 13.3687C9.4714 13.7602 9.06315 14.1317 8.63676 14.4816C8.23012 14.8029 7.79156 15.0815 7.32799 15.3132C6.86125 15.5431 6.3684 15.7155 5.8602 15.8269C5.28981 15.952 4.70729 16.0136 4.12333 16.0103C3.60485 16.0108 3.08931 15.9325 2.5944 15.778C2.11123 15.6318 1.66212 15.3906 1.27339 15.0686C0.880862 14.7339 0.567539 14.3162 0.356033 13.8456C0.106891 13.2755 -0.0141911 12.6576 0.00131822 12.0356C0.0020182 11.3893 0.198159 10.7584 0.563975 10.2256C1.01549 9.60127 1.61704 9.10075 2.31308 8.77023C3.28101 8.29863 4.31034 7.96518 5.37095 7.77961C6.82957 7.48073 8.3107 7.30481 9.79875 7.25372V5.68829C9.87309 4.5027 9.53612 3.32777 8.84469 2.36175C8.5102 1.96867 8.0879 1.6598 7.61194 1.46009C7.13598 1.26038 6.61971 1.17544 6.10484 1.21214C5.45933 1.19487 4.8163 1.29857 4.20895 1.51789C3.74469 1.69672 3.30165 1.92642 2.88795 2.20276C2.57933 2.411 2.28512 2.63981 2.00729 2.88764C1.85745 3.05381 1.65397 3.16203 1.43241 3.19338C1.3361 3.1961 1.24104 3.17101 1.15861 3.12113C1.07618 3.07124 1.00987 2.99867 0.967607 2.9121L0.698513 2.45959C1.43199 1.70317 2.29326 1.08214 3.24267 0.625101C4.19178 0.198129 5.22322 -0.0148137 6.26385 0.00137432C7.00449 -0.0151803 7.74086 0.117932 8.42883 0.392733C9.02686 0.641877 9.55565 1.03213 9.96999 1.53011C10.3959 2.0555 10.7083 2.66349 10.8873 3.31568C11.138 4.08238 11.274 4.88187 11.291 5.68829V15.7291H10.655ZM4.45359 14.9096C5.01005 14.9141 5.56484 14.8484 6.10484 14.714C6.58989 14.5923 7.05819 14.4116 7.49923 14.1759C7.93577 13.9436 8.34588 13.6648 8.72238 13.3442C9.09748 13.0262 9.46443 12.6797 9.82322 12.3047V8.29326C8.55319 8.31575 7.28623 8.42608 6.03145 8.62347C5.13177 8.75813 4.25245 9.00463 3.41391 9.35726C2.82388 9.59678 2.30268 9.97923 1.8972 10.4702C1.57387 10.8905 1.40152 11.4075 1.40794 11.9378C1.39636 12.3994 1.48395 12.8582 1.6648 13.2831C1.81424 13.6346 2.03988 13.9487 2.32543 14.2025C2.61099 14.4563 2.94934 14.6435 3.31606 14.7507C3.6855 14.8586 4.0687 14.9122 4.45359 14.9096Z" transform="translate(97.1366 10.4185)" fill="url(#paint4_linear)"/>
<path d="M2.61293e-06 15.6912V0.269289H0.770583C0.90624 0.257829 1.04133 0.297044 1.14976 0.379358C1.239 0.480478 1.28702 0.61142 1.2843 0.746256L1.40663 3.99941C1.82633 2.88591 2.51056 1.89116 3.40036 1.10092C4.23612 0.380419 5.30583 -0.0108878 6.4093 0.000231069C6.84179 -0.00334346 7.27309 0.0459414 7.69361 0.14699C8.08052 0.244335 8.45424 0.388058 8.80667 0.575037L8.61097 1.60235C8.60177 1.67485 8.5647 1.74093 8.50762 1.78658C8.45055 1.83223 8.37795 1.85389 8.30519 1.84695C8.21271 1.84169 8.12176 1.82102 8.03609 1.7858L7.63245 1.65127C7.42751 1.59351 7.21917 1.54858 7.00864 1.51674C6.72538 1.47312 6.43903 1.45267 6.15244 1.45559C5.62498 1.43649 5.099 1.52293 4.6054 1.70985C4.1118 1.89676 3.66052 2.18038 3.27804 2.54405C2.45557 3.43192 1.85236 4.49995 1.51671 5.66268V15.6912H2.61293e-06Z" transform="translate(113.027 10.4563)" fill="url(#paint5_linear)"/>
<path d="M25.3804 6.27395L25.2336 6.37179L19.5704 12.0832C19.5338 12.1243 19.4884 12.1566 19.4376 12.1778C19.3867 12.1989 19.3318 12.2084 19.2768 12.2055H14.0051L14.4943 12.658L13.9806 13.1839H19.3013C19.3515 13.1813 19.4016 13.1899 19.4481 13.2089C19.4946 13.2279 19.5364 13.257 19.5704 13.2939L25.2336 19.0542L25.3559 19.1765H20.0596C20.0029 19.1796 19.9461 19.1702 19.8933 19.1491C19.8405 19.128 19.7929 19.0956 19.7539 19.0542L14.054 13.3551L13.9684 13.2572L13.2345 14.0033H13.3201L17.8213 18.5039L19.0444 19.7269C19.0885 19.7734 19.1145 19.8341 19.1178 19.8981C19.1178 21.6755 19.1178 23.4488 19.1178 25.2181C19.1178 25.2181 19.1178 25.2181 19.1178 25.3282L18.9955 25.2181L15.1304 21.3534L13.2712 19.4945C13.2352 19.4623 13.2066 19.4227 13.1876 19.3783C13.1686 19.3339 13.1595 19.2859 13.1611 19.2377C13.1611 17.5173 13.1611 15.797 13.1611 14.0766C13.1611 14.0766 13.1611 13.991 13.1611 13.9177L12.6596 14.4313L12.1948 13.9177V14.1622C12.1948 15.8826 12.1948 17.5989 12.1948 19.311C12.1973 19.3612 12.1888 19.4113 12.1697 19.4578C12.1507 19.5043 12.1217 19.5461 12.0847 19.5801L6.37261 25.2915C6.33992 25.3292 6.31122 25.3702 6.28699 25.4138C6.28699 25.4138 6.28699 25.3404 6.28699 25.3037C6.28699 23.5426 6.28699 21.7815 6.28699 20.0204C6.28638 19.9835 6.29372 19.947 6.30849 19.9132C6.32326 19.8795 6.34513 19.8493 6.37261 19.8247L12.1092 14.0889L12.207 14.0033L11.4731 13.2817L11.3875 13.3551L5.66318 19.0542C5.62416 19.0956 5.57659 19.128 5.52378 19.1491C5.47097 19.1702 5.41419 19.1796 5.35739 19.1765H0L0.0856207 19.0542L5.83442 13.3062C5.86719 13.2717 5.90728 13.245 5.95174 13.2281C5.99619 13.2111 6.04388 13.2044 6.09128 13.2083H11.412L10.9227 12.7069L11.412 12.2544H6.09128C6.0411 12.2569 5.99098 12.2483 5.94448 12.2293C5.89797 12.2103 5.85622 12.1813 5.82219 12.1443L0.110084 6.37179L0 6.24949H5.38186C5.43217 6.23897 5.48432 6.2413 5.53349 6.25626C5.58266 6.27123 5.62726 6.29834 5.66318 6.3351L10.4579 11.1415L11.3998 12.0832L11.4731 12.1565L12.1826 11.4472L12.1092 11.3738L6.33591 5.6013C6.30307 5.56989 6.27734 5.53181 6.26046 5.48961C6.24358 5.44742 6.23594 5.4021 6.23806 5.35671C6.23806 3.62006 6.23806 1.87933 6.23806 0.134529V0L6.33591 0.0856094L12.0969 5.8459C12.1295 5.87493 12.1552 5.91085 12.1721 5.95105C12.189 5.99124 12.1968 6.0347 12.1948 6.07827C12.1948 7.79861 12.1948 9.51896 12.1948 11.2393C12.1948 11.2393 12.1948 11.3371 12.1948 11.4227L12.6963 10.9213L13.1611 11.4105V11.276C13.1611 9.55565 13.1611 7.83938 13.1611 6.12719C13.1576 6.07509 13.1657 6.02287 13.1847 5.97424C13.2037 5.92562 13.2332 5.8818 13.2712 5.8459L18.9955 0.122299L19.1178 0.0122299V0.171219C19.1178 1.92417 19.1178 3.67713 19.1178 5.43009C19.1356 5.48577 19.1356 5.54562 19.1178 5.6013L13.3813 11.3371L13.2712 11.4105L14.0295 12.1688C14.0538 12.1252 14.0825 12.0842 14.1151 12.0465L19.8272 6.32287C19.8587 6.29003 19.8968 6.2643 19.939 6.24743C19.9812 6.23055 20.0265 6.22291 20.0719 6.22503H25.417L25.3804 6.27395ZM12.6841 13.3918L13.369 12.7069L12.6963 12.0342L12.0113 12.7191L12.6841 13.3918Z" transform="translate(2.46619 2.28699)" fill="url(#paint6_linear)"/>
<path d="M2.27506 4.57399L1.16649e-08 2.29922L2.31175 -5.13188e-07L4.59904 2.27477L2.27506 4.57399Z" transform="translate(0.166626 12.7069)" fill="url(#paint7_linear)"/>
<path d="M2.31175 4.61068L0 2.31146L2.32398 0L4.59904 2.31146L2.31175 4.61068Z" transform="translate(25.547 12.6824)" fill="url(#paint8_linear)"/>
<path d="M4.59904 2.29922L2.31175 4.58622L-4.19935e-07 2.27477L2.28729 -9.33069e-08L4.59904 2.29922Z" transform="translate(12.8507 25.4138)" fill="url(#paint9_linear)"/>
<path d="M4.58681 2.29923L2.29952 4.59845L1.39978e-07 2.287L2.28729 -5.83168e-08L4.58681 2.29923Z" transform="translate(12.8751)" fill="url(#paint10_linear)"/>
<defs>
<linearGradient id="paint0_linear" x2="1" gradientUnits="userSpaceOnUse" gradientTransform="translate(0 0.13701) scale(21.6742 21.6714)">
<stop stop-color="#D8291E"/>
<stop offset="1" stop-color="#C5001E"/>
</linearGradient>
<linearGradient id="paint1_linear" x2="1" gradientUnits="userSpaceOnUse" gradientTransform="translate(725.612 171.158) scale(161.779 181.244)">
<stop stop-color="#D8291E"/>
<stop offset="1" stop-color="#C5001E"/>
</linearGradient>
<linearGradient id="paint2_linear" x2="1" gradientUnits="userSpaceOnUse" gradientTransform="translate(98.5687 295.544) scale(1.79081 27.2879)">
<stop stop-color="#D8291E"/>
<stop offset="1" stop-color="#C5001E"/>
</linearGradient>
<linearGradient id="paint3_linear" x2="1" gradientUnits="userSpaceOnUse" gradientTransform="translate(642.476 224.816) scale(68.2517 166.942)">
<stop stop-color="#D8291E"/>
<stop offset="1" stop-color="#C5001E"/>
</linearGradient>
<linearGradient id="paint4_linear" x2="1" gradientUnits="userSpaceOnUse" gradientTransform="translate(900.231 192.206) scale(104.216 147.777)">
<stop stop-color="#D8291E"/>
<stop offset="1" stop-color="#C5001E"/>
</linearGradient>
<linearGradient id="paint5_linear" x2="1" gradientUnits="userSpaceOnUse" gradientTransform="translate(816.907 202.417) scale(63.7603 113.604)">
<stop stop-color="#D8291E"/>
<stop offset="1" stop-color="#C5001E"/>
</linearGradient>
<linearGradient id="paint6_linear" x2="1" gradientUnits="userSpaceOnUse" gradientTransform="translate(59.9842 86.9151) scale(528.166 528.098)">
<stop stop-color="#D8291E"/>
<stop offset="1" stop-color="#C5001E"/>
</linearGradient>
<linearGradient id="paint7_linear" x2="1" gradientUnits="userSpaceOnUse" gradientTransform="translate(2.25353 54.5677) scale(17.2924 17.1982)">
<stop stop-color="#D8291E"/>
<stop offset="1" stop-color="#C5001E"/>
</linearGradient>
<linearGradient id="paint8_linear" x2="1" gradientUnits="userSpaceOnUse" gradientTransform="translate(97.6836 54.9593) scale(17.3844 17.4284)">
<stop stop-color="#D8291E"/>
<stop offset="1" stop-color="#C5001E"/>
</linearGradient>
<linearGradient id="paint9_linear" x2="1" gradientUnits="userSpaceOnUse" gradientTransform="translate(49.9916 102.387) scale(17.2464 17.1983)">
<stop stop-color="#D8291E"/>
<stop offset="1" stop-color="#C5001E"/>
</linearGradient>
<linearGradient id="paint10_linear" x2="1" gradientUnits="userSpaceOnUse" gradientTransform="translate(49.9045 7.15059) scale(17.2005 17.2442)">
<stop stop-color="#D8291E"/>
<stop offset="1" stop-color="#C5001E"/>
</linearGradient>
</defs>
</svg>
