<svg width="26" height="26" viewBox="0 0 26 26" fill="none" xmlns="http://www.w3.org/2000/svg">
<path fill-rule="evenodd" clip-rule="evenodd" d="M14.4511 6.70989H11.9554V11.5884H6.96387V14.0276H11.9554V18.9061H14.4511V14.0276H19.4426V11.5884H14.4511V6.70989ZM13.2032 0.611816C6.32743 0.611816 0.724487 6.0879 0.724487 12.808C0.724487 19.5281 6.32743 25.0042 13.2032 25.0042H23.1862C24.5588 25.0042 25.6819 23.9065 25.6819 22.5649V12.808C25.6819 6.0879 20.079 0.611816 13.2032 0.611816ZM13.2031 22.5648C7.69995 22.5648 3.22009 18.1864 3.22009 12.8079C3.22009 7.42936 7.69995 3.05094 13.2031 3.05094C18.7062 3.05094 23.186 7.42936 23.186 12.8079C23.186 18.1864 18.7062 22.5648 13.2031 22.5648Z" fill="#F2F2F2"/>
</svg>
