<svg width="1024" height="589" fill="none" xmlns="http://www.w3.org/2000/svg"><path fill-rule="evenodd" clip-rule="evenodd" d="M0 500.69C156.302 557.454 329.388 589 511.5 589c182.501 0 355.936-31.681 512.5-88.673v-69.993C935.803 462.421 840.061 480 740 480 403.701 480 116.173 281.43 0 .859V500.69z" fill="#F3F9FB"/><path fill-rule="evenodd" clip-rule="evenodd" d="M0 500.69C156.302 557.454 329.388 589 511.5 589c182.501 0 355.936-31.681 512.5-88.673v-69.993C935.803 462.421 840.061 480 740 480 403.701 480 116.173 281.43 0 .859V500.69z" fill="url(#paint0_linear)"/><defs><linearGradient id="paint0_linear" x1="-55" y1="589" x2="-55" y2="-116" gradientUnits="userSpaceOnUse"><stop stop-color="#217CE8"/><stop offset="1" stop-color="#8FD5FF"/></linearGradient></defs></svg>