<svg version="1" xmlns="http://www.w3.org/2000/svg" width="682.667" height="682.667" viewBox="0 0 512.000000 512.000000"><path d="M258 20c0 .5-.4 1-1 1-1.5 0-4.9 3.7-4.2 4.6.4.4-.2.4-1.3 0s-1.6-.4-1.2 0c1 1-1.3 3.5-2.6 2.7-.5-.3-.7-.2-.4.4.3.5-.3 1.5-1.3 2.3-1 .8-1.6 1.8-1.3 2.4.4.6-.1.7-1.3.2-1-.4-1.5-.4-1.1 0 1 1-1.3 3.5-2.6 2.7-.6-.3-.7-.1-.3.5.4.7.2 1.2-.4 1.2-.6 0-.8.4-.5 1 .3.5.2 1-.4 1-.5 0-2.2 1.3-3.7 2.9-1.5 1.7-3.2 2.7-3.7 2.4-.6-.3-.7-.1-.4.4.8 1.3-1.7 3.6-2.7 2.6-.4-.4-.4.1 0 1.1.5 1.4.4 1.7-.4 1.2-.7-.4-1.2-.2-1.2.4 0 .6-.5.8-1 .5-.6-.4-.9-.3-.8.2.1.4-.3 1.8-1 3-1.1 1.9-1 2.3.3 2.3s1.9 1.2 1.6 3.2c0 .5.7.8 1.7.8 2.7 0 3.4 1.1 1.9 2.8-.9 1.3-.9 1.4 0 .8.7-.4 2.1-.2 3 .4 1.3.7 1.4 1 .3.8-.8-.2-1.5.2-1.6.7 0 .6.7.9 1.8.7 1.2-.2 2.1.5 2.8 2.2.5 1.4 1.2 2.6 1.5 2.6.4 0 .3-.4 0-1-.4-.6.1-.7 1.1-.3 1.6.6 1.5.8-.4 1.6-2.5 1.1-2.9 2.4-.7 2.4.8 0 1.2-.4.9-.9-.6-1-.1-1 2-.2.9.3 1.6 1 1.6 1.6 0 .5-.5.6-1.2.2-.7-.4-.8-.3-.4.4.4.6 1.4.8 2.4.5 1.4-.6 1.5-.4.5.8-.8 1-.9 1.9-.1 2.9.8 1.2.9 1.1.4-.4-.5-1.4-.2-1.7 1-1.2.8.3 2 .6 2.5.6.6 0 .7.5.4 1-.4.6-1.1.7-1.7.4-.7-.4-.8-.2-.4.4.4.6 1.4.9 2.4.6 1.5-.5 1.5-.4-.1.9s-1.6 1.5-.2 2.1c.9.3 1.3.2 1-.4-.3-.6.4-1 1.6-1 1.6 0 2 .5 1.6 2-.3 1 .1 2.4.9 3.1 1 .8 1.4.8 1.4 0 0-.6-.5-1.1-1.2-1.1-.6 0-.8-.3-.5-.7 1-.9 5.7 3.7 5.8 5.6 0 1.1.2 1.2.6.3.2-.6 1.1-1.2 1.9-1.2.8 0 1.7-.6 2-1.4.3-.9 1.2-1.2 2.2-.9 1.2.5 1.4.2.9-1.2-.6-1.4-.5-1.6.7-.6 1.1.9 1.5.8 2-.4.3-.9.2-1.3-.4-1-.6.3-1 .1-1-.4 0-1.5 2.7-1.4 3.4.1.3.7.3.3.1-.9-.4-1.4.1-2.6 1.5-3.6 1.1-.7 1.7-1.6 1.4-2-.3-.3.4-1.1 1.6-1.7 1.8-1 2.4-.9 3.2.1.7 1 .8.8.3-.8-.4-1.5 0-2.6 1.5-3.6 1.1-.7 1.7-1.7 1.3-2.1-.4-.4 0-.4 1 0 .9.3 1.7 1.4 1.8 2.3 0 1 .2 1.2.6.3.3-.7 0-1.9-.6-2.6-1.5-1.8 1.1-2.9 2.9-1.3 1 1 1 .7.1-1.1-1-1.8-.9-2.5.4-3.8.8-.8 1.5-1.2 1.5-.7 0 .4.5 0 1.1-1 .8-1.3 1.4-1.5 2.9-.7 1.3.7 2.1.7 2.6-.2.4-.6.3-.8-.2-.5-.6.3-1.6.2-2.4-.3-1.1-.7-1.1-1.1.2-2.4.9-.8 1.8-1.3 2-1.1.3.3.5-.2.5-1.2 0-.9-2.7-4.2-5.9-7.4S283 42.6 283 42c0-.6-.4-.9-.8-.6-1.3.8-6.4-5.2-5.6-6.5.4-.8.3-.9-.4-.5-1.2.7-5.9-3.3-5.4-4.7.1-.4-.3-.7-.8-.7-.6 0-3.3-2.3-6-5-5-5.1-6-5.8-6-4z"/><path d="M156.9 57.3c-.1 1.2-.1 3.4 0 4.9 0 1.6-.3 2.8-.9 2.8-.5 0-1 .5-1 1.1 0 .5.4.8.9.5 1.2-.8.8 11.7-.4 12.6-.6.5-.4.8.5.8 1.3 0 1.3.1 0 1-.8.5-1 1-.5 1 1.3 0 1.3 6.9.1 8.9-.6.9-.5 1.2.1.8 1.3-.8 1.1 5.2-.2 7.3-.5.8-.4 1.1.2.7 1.3-.8 1.1 10.6-.2 11.5-.6.5-.4.8.5.8 1.3 0 1.3.1 0 1-.8.5-1 1-.5 1 1.3 0 1.3 6.9.1 8.9-.6.9-.5 1.2 0 .8.6-.3 1 1.5 1 4.3 0 2.7-.3 4.7-.7 4.4-.9-.5-.6 1.7.4 3.3.5.8.3 1.3-.5 1.3-.9 0-.9.3-.2.8.6.4 1 1.7.9 2.9-.1 1.3.2 2.3.7 2.3.5 0 .7 1 .4 2.2-.3 1.3-.3 1.8 0 1.1s1.2-.9 2-.6c1.7.6 1.9 3.3.2 3.3-.6 0-.8.3-.5.6.4.4 1.4.1 2.3-.7 1.6-1.3 1.7-1.1 1 1.6-.5 2.1-.4 2.6.3 1.5.6-.8 1.3-1.1 1.7-.7.4.3.1 1.3-.6 2.2-.7.8-.8 1.5-.2 1.5.5 0 1.2-.7 1.6-1.5.5-1.3.8-1.3 2.4.2 1.9 1.8 1.8 4.8-.1 3.6-.6-.3-.7-.1-.3.6.4.6 1.1.9 1.6.6.5-.3 1.3.3 1.9 1.2.6 1 1.1 1.3 1.1.8 0-.6-.6-1.7-1.2-2.4-1.1-1.1-.9-1.1.9 0 1.2.7 2 1.5 1.8 1.8-.3.2 1.1 1.5 3.2 2.9l3.6 2.5-2.4 1.9c-1.4 1-1.7 1.7-.9 1.6.8-.2 1.8-.7 2.1-1.1 1-1.3 3.9.4 3.9 2.4 0 1 .3 1.8.8 1.7.4 0 1.5.2 2.6.7 1.7.8 1.7.9-.5 2.6-2.1 1.6-2.2 1.7-.4 1.6 1.1-.1 2 .3 2 1 0 .6.3 1.4.8 1.7.4.3.5.3.2-.1-.3-.3.1-1.3.8-2.1.8-1.1.8-1.4 0-.9-.6.4-1.4.3-1.8-.3-.3-.5.1-1 1-1 2.2 0 2.8 2.1 1.5 5.4-.6 1.7-.6 2.5 0 2.1.6-.3 1-1.2 1-2 0-3.1 2.1-2.3 4.2 1.7 1.2 2.4 2.2 4.6 2.3 5 0 .3.4 1 .9 1.5.5.4.6.3.3-.3-.4-.7 0-1.4.8-1.8 1.8-.7 2 1.5.3 3.2-.7.7-.8 1.2-.4 1.2.5 0 1.4-.7 2-1.6 1-1.4 1.3-1.3 2.4.8.7 1.3 2.9 3.4 4.9 4.7 3.3 2.1 3.5 2.5 1.9 3.6-1 .8-1.3 1.6-.7 1.9.5.3 1.1.1 1.3-.5.6-1.7 3.8.1 3.8 2.2 0 1 .3 1.8.8 1.7.4 0 1.5.2 2.6.7 1.7.8 1.7.9-.5 2.6-2.1 1.6-2.2 1.7-.4 1.6 1.1-.1 2 .3 2 1 0 .6.3 1.4.7 1.8.9.9.5-1.6-.5-3.3-.5-.7-.3-1.2.6-1.2 2.1 0 2.8 2.6 1.7 5.6-.7 1.7-.7 2.3 0 1.9.6-.3 1-1.2 1-2 0-3.1 2.1-2.3 4.2 1.7 1.2 2.4 2.2 4.6 2.3 5 0 .3.4 1 .9 1.5.5.4.6.3.3-.3-.4-.7 0-1.4.8-1.8 1.8-.7 2 1.5.3 3.2-.8.8-.8 1.2-.1 1.2.6 0 1.4-.7 1.7-1.7.6-1.4.8-1.4 2.1.3.8 1 1.4 2.3 1.4 2.9 0 .5-.6.1-1.4-.9-.8-1.1-1.5-1.5-1.5-.9 0 .7.5 1.5 1 1.8.6.4.8 1 .5 1.5-.3.5 0 1.2.6 1.6.7.4.9.3.6-.3-.4-.6 0-1.6.8-2.3 1.8-1.5 1.9-.3.5 3.5-.7 1.7-.7 2.4 0 2 .6-.3 1-1.2 1-2 0-2.6 2-2.6 3.1-.1.7 1.4 1.6 2.3 2 2 .5-.3.9.2.9 1 0 .9.3 1.6.8 1.6 3.2.1 3.7 5 .5 5-.8 0-1.2.4-.8.9.8 1.4-4.6 4.8-7.3 4.6-1.4-.1-6.2-4.2-13-11.1-5.9-6-11-10.8-11.4-10.6-.5.1-.8-.3-.8-.8 0-.6-3.8-4.7-8.5-9.3-5-4.7-8.3-8.7-8-9.5.3-.7 0-1-.6-.7-.5.4-3.9-2.3-7.4-5.9-3.6-3.6-7-6.6-7.6-6.6-.7 0-1-.3-.6-.6.3-.3-3.2-4.3-7.9-8.7-4.6-4.5-8.2-8.7-8-9.4.3-.7-.1-1-.9-.6-.9.3-1.8-.4-2.4-1.8-.5-1.3-1-2-1-1.6-.1.5-3.2-2.2-6.9-6l-6.8-6.9-8.5-.3c-4.6-.2-9.1-.3-9.9-.2h-16c-10.8.2-14.2.1-15-.4-.6-.3-1-.3-1 .2 0 .4-8.3.8-18.5.7-10.2-.1-18.5.3-18.5.8 0 .4.5.8 1 .8.6 0 1 .7 1 1.7 0 .9.3 1.4.6 1 .9-.9 5.3 4.6 4.6 5.8-1.8 2.8.3 4.4 2.5 2 .4-.4.3-.5-.4-.1-.6.3-1.4.2-1.8-.4-1.3-2.2 1.8-.9 4.6 1.9 1.8 1.9 2.3 2.8 1.3 2.7-.9-.1-2-.9-2.4-1.7-.7-1-.9-.9-.8.6.2 1.5.9 2.1 3 2.2 1.5 0 3.5.7 4.4 1.4 1.4 1.2 1.4 1.4-.2 2.6-1.5 1.1-1.6 1.5-.4 2.6 1 .9 1.2.9.6-.1-1-1.7 2.1-2.7 4-1.2.8.7 1.3 1.9 1 2.6-.3.9.1 1.1 1.2.8 1.4-.5 1.3-.2-.3 1.1l-2 1.7 2-.6c1.3-.4 3 .3 5 2 1.7 1.4 2.5 2.3 2 2-.6-.2-1.1.5-1.2 1.7 0 1.2.1 1.6.4.9.3-.6 1.2-1.2 2.1-1.2 1.5 0 1.5.2.2 1-1.2.8-1.1 1 .6 1 2.2 0 4.8 2.2 3.9 3.2-.3.3.8 1.1 2.4 1.8 1.7.7 3.3 2.1 3.6 3.1.4 1.1 1.5 2.4 2.6 2.9 1.3.8 1.8 1.8 1.5 3.5-.3 1.4 0 2.5.6 2.5.5 0 .8-.7.4-1.5-.3-.8-.2-1.5.3-1.5s1.4.7 2.1 1.5c.7.8.9 1.5.4 1.5s.2.6 1.6 1.3c1.4.7 2.4 2 2.4 2.9-.1 1.1.4 1.5 1.5 1.1 1.2-.3 1.1 0-.4 1.2l-2 1.7 2-.6c1.3-.4 3 .3 5 2 1.7 1.4 2.5 2.3 1.9 2-.6-.3-1.1.1-1.1.9 0 1.1.5 1.2 2.1.3 1.9-1 2-1 .7.5-1.2 1.5-1.1 1.7.6 1.7 2.5 0 7.3 5 7.3 7.6 0 1.6.2 1.7 1 .4.8-1.3 1-1.3 1 .2 0 .9-.6 1.9-1.2 2.1-1 .4-1 .6-.1.6.6.1 1.5-.4 1.8-.9.5-.8 1.1-.7 2.1.1 1.5 1.2 2 4.4.6 3.5-.5-.3-.9.1-.9.8 0 1.5 2.1 1.5 3.4.1.4-.4.2-.5-.6 0-1 .6-1.2.4-.7-.4.6-.9 1.3-.8 2.8.6 2.1 1.9 4.6 5.9 3.1 5-.5-.4-1 0-1 .8 0 1 .5 1.1 1.8.4 1.4-.7 1.9-.4 2.4 1.2.4 1.1.9 1.8 1.2 1.5 1.1-1.1 4.2 3.1 3.8 5.2-.2 1.3 0 2 .6 1.7.5-.4.7-1.1.4-1.6-.4-.5-.1-.9.5-.9s.8-.5.4-1.3c-.5-.7-.1-.7 1 .2 1.5 1.3 1.9 1.3 2.7 0 .7-1.1.9-1.1.9 0 0 .8.6 1.1 1.8.6 2.7-1.1 6.2-1.3 5.6-.4-.3.5.1.9 1 .9.8 0 1.6-.5 1.8-1.2.3-.7.7-.5 1.1.6.4.9.3 1.5-.2 1.1-.5-.3-1.2-.1-1.5.4-.4.5.2.8 1.1.7 1-.2 1.8-.8 1.8-1.4 0-.6.4-1.4.9-1.9s.6-.3.2.5c-.6.9 0 1.1 2.5.7 1.8-.3 3.7-.9 4.2-1.2.6-.3.8-.2.5.3-.3.5 0 1.5.8 2.2 1.2 1.1 1.4.9 1.5-1 0-1.3.3-1.7.6-1.1.2.7 1.4 1.3 2.4 1.3 1.3 0 1.8.4 1.3 1.2-.4.7-.3.8.5.4.6-.4.9-1.1.6-1.6-.3-.5 0-1.2.6-1.6.7-.4.9-.3.6.3-.7 1.1 1.7 2.6 4.3 2.7.8 0 1.8.7 2.2 1.6.6 1.1.7 1 .5-.5-.2-1.4-.9-2-2.5-1.9-3 .2-2.8-1.3.3-1.8 1.3-.3 2.3-.2 2.1.1-.2.3.2 1.2 1 1.9 1.2 1.1 1.4.9 1.5-1 0-1.3.3-1.7.6-1.1.2.7 1.4 1.3 2.4 1.3 1.3 0 1.8.4 1.3 1.2-.4.7-.3.8.5.4.6-.4.9-1.1.6-1.6-.3-.5 0-1.2.6-1.6.7-.4.9-.3.6.3-.7 1.1 1.7 2.6 4.3 2.7.8 0 1.8.7 2.2 1.6.6 1.1.7 1 .5-.5-.2-1.4-.9-2-2.5-1.9-3 .2-2.8-1.3.3-1.8 1.3-.3 2.3-.2 2.1.1-.2.3.2 1.2 1 1.9 1.2 1.1 1.4.9 1.5-1 0-1.3.3-1.7.6-1.1.2.7 1.4 1.3 2.4 1.3 1.3 0 1.8.4 1.3 1.2-.4.7-.3.8.5.4.6-.4.9-1.1.6-1.6-.3-.5 0-1.2.6-1.6.7-.4.9-.3.6.3-.7 1.1 1.7 2.6 4.3 2.7.8 0 1.8.5 2.2 1.1.5.6.8.5.8-.3 0-.7.4-1.1.9-.7.5.3 1.2.1 1.5-.3.3-.5-1.3-.8-3.4-.7-2.2.1-4-.1-4-.5 0-1.3 4.8-1.8 5.9-.7.8.8 1.1.7 1.1-.3 0-.9.5-.8 1.6.6.8 1 1.3 1.4 1 .7-.4-.6-.1-1.5.5-1.9.8-.4.9-.3.5.4-.8 1.3.6 1.7 1.8.5.3-.4 1.4-.8 2.4-.9 1-.2.1 1.2-2.5 3.6-4.1 3.9-4.1 3.9-2.2 6.1 1 1.2 1.9 2.6 1.9 3.1s.4.7.9.3c.5-.3 1.3 0 1.7.6.4.7.3.9-.4.5-.6-.3-1.3-.2-1.6.3-.9 1.4-78.6 1.3-78.6-.2 0-.7-.5-.4-1.1.6-.6.9-1.5 1.5-2 1.1-.5-.3-3.2 1.8-5.9 4.6-3 3.2-5.4 4.9-6.1 4.4-.8-.4-.9-.3-.5.4.9 1.5-26.1 28.5-27.6 27.6-.7-.4-.8-.3-.4.5.8 1.2-6.7 9.1-8.5 9.1-.5 0-.8.3-.7.7.5 1.5-21.1 22.4-22.3 21.7-.8-.4-.9-.3-.5.5.8 1.2-6.7 9.1-8.5 9.1-.5 0-.8.3-.7.7.2.5-2.6 3.7-6 7.1-3.5 3.5-6.2 6.6-6 6.8.2.2 1.5.5 2.9.7 1.5.3 2.3 1.1 2.3 2.1-.1.9.3 1.3.8 1 .5-.3.7-1.2.4-2-.4-1 .4-1.3 3.3-1.1 2.2.1 3.7.5 3.4 1-.2.4-1 .4-1.6 0-.7-.4-.6 0 .2 1 1.5 1.8 2.6 2.3 1.6.7-.4-.6.3-.8 1.7-.6 1.3.3 2.3.5 2.3.7 0 .1 1 .3 2.3.4 1.7.2 2-.1 1.2-1s-.6-1.4.5-1.9c.9-.3 1.3-.2 1 .4-.5.9.8 1.2 3.1.9.4 0 1.1.5 1.5 1.3.7 1 .9.8.9-.6 0-1.2-.5-1.6-1.5-1.3-.8.4-1.7.2-1.9-.2-.9-1.4 5-.7 6.8.8 1.4 1.2 1.6 1.2 1.1-.1-.4-1 .3-1.4 3.2-1.3 4 0 6.7 1.1 5.9 2.4-.3.4.1.8.9.8 1 0 1.2-.4.5-1.2-.5-.7-.7-1.5-.3-1.9.4-.4 1.3.4 2 1.6 1.2 2 1.3 2 1.1.4-.2-1.6.4-2 3.1-2.2 2.6-.1 3.1 0 1.8.8-.9.5-1.7 1.4-1.7 2.1 0 .8.3.7.9-.2.5-.8 1.6-1.1 2.6-.8.9.4 1.3.3 1-.2-.3-.5-.1-1.3.5-1.6 1.2-.8 4.2 1.3 3.5 2.4-.2.4.2.8 1 .8 1 0 1.2-.4.5-1.2-.5-.7-.7-1.5-.3-1.9.4-.4 1.3.4 2 1.6 1.2 2 1.3 2 1.1.4-.2-1.6.4-2 3.1-2.2 2.6-.1 3.1 0 1.8.8-.9.5-1.7 1.4-1.7 2.1 0 .8.3.7.9-.2.5-.8 1.6-1.1 2.5-.8.9.4 1.5.1 1.3-.5-.1-.7 1.2-1.2 3.1-1.4 1.7-.1 3.2.2 3.2.7 0 .5 1 .9 2.3.9 1.8 0 1.9-.2.7-1-.8-.5-1-1-.4-1 1.7 0 2.5 1.2 1.4 2.5-.7.8-.5 1.2.5 1.2.8 0 1.2-.4 1-.8-.3-.3.3-1.3 1.2-2 1.5-1.2 1.6-1.2 1 .3-.3 1-.1 2 .5 2.4.7.5.8.3.4-.5-.6-.8-.2-1.1 1-.9 1.4.2 1.8-.2 1.6-1.7l-.3-2 1.7 2c1.2 1.5 1.5 1.6 1.1.3-.8-2.3 1.6-5.3 3.7-4.5 1.4.6 1.5.3.5-1.4-.7-1.4-.7-1.9-.1-1.5.6.4 1.6-.2 2.2-1.1 1-1.5 1.1-1.5.6-.1-.5 1.7 1.7 1.9 3.1.3.4-.4.2-.5-.4-.1-.9.5-1.3 0-1.3-1.3 0-2.5 1.7-3.6 3.5-2.1 1 .8 1.5.8 2.1-.1.4-.7.3-.9-.3-.6-.6.4-1.3.1-1.6-.7-.3-.8.1-1.7.9-2 .9-.3 1.2-1 .9-1.6-.3-.5 0-.7.8-.4.9.3 1.6-.3 2-1.5.3-1.2 1.3-2.1 2.2-2.1 1.1 0 1.5-.5 1.1-1.6-.3-.8-.2-1.2.4-.9.6.3 1.3-.1 1.6-1 .6-1.4.8-1.4 1.9.1.9 1.4 1.4 1.4 2 .4.5-.9.4-1.1-.3-.6-.8.5-1.2 0-1.2-1.3 0-1.1 1-2.5 2.1-3.2 1.7-.9 2-.8 1.4.2-.5.8-.4 1 .4.5.9-.6.9-1.1-.1-2.4-1-1.2-1-1.4 0-.8.7.4 1.5.1 1.8-.9.6-1.4.8-1.4 1.9.1.9 1.4 1.4 1.4 2 .4.5-.9.4-1.1-.3-.6-.8.4-1.2 0-1.2-1.1 0-2.5 9.1-11.1 11-10.5 1.3.5 1.3.3.1-1.2-1.2-1.4-1.2-1.6.4-1 1.3.5 1.6.4 1.1-.4-.4-.7-.3-1.2.1-1.2.5 0 1.6-1.2 2.5-2.8 1-1.5 1.8-2.2 1.8-1.5 0 .7.9.9 2.2.5 1.8-.4 1.9-.6.6-1.1-1.5-.5-1.5-.8-.1-2.6 1.2-1.5 1.4-1.6 1-.3-.4 1.3-.2 1.5 1 1.1 1-.4 1.4-.2 1 .4-.3.5 0 1 .8 1 1.2 0 1.2-.4-.2-1.9-1.3-1.4-1.4-2.1-.5-3 .9-.9 1.2-.9 1.2 0 0 .7.5 1.2 1 1.2.7 0 .8-.6.2-1.6-.7-1.2-.2-2.3 1.7-4.2 1.4-1.5 2.9-2.6 3.4-2.4.4.1.7-.3.7-.9 0-.5.5-.7 1-.4.6.4.7 1.1.4 1.7-.4.7-.2.8.4.4.8-.5.9-1.3.3-2.5-.7-1.3-.5-2 1-2.9 2.3-1.5 3.2-1.5 2.4-.2-.3.5-.1 1 .5 1 .8 0 1-.9.5-2.7-.5-2.3-.4-2.5.8-1.4 1.2.9 1.7.9 2.3 0 .4-.8.3-.9-.4-.5s-1.2.5-1.2.3c0-.7 5.8-7.8 6.6-8 1.1-.3 9.2-8.5 10.4-10.5.6-1.1 1-1.2 1-.4 0 .7.5 1 1 .7.6-.3 1.3.1 1.6.9.3.9 1.1 1.3 1.6 1 .6-.4.5.2-.1 1.4-1.6 2.9-1.4 3.9.3 1.6 1.4-1.9 1.5-1.9 3.9.4 2.6 2.4 3.2 5.2 1 5.2-.7 0-1.3.3-1.3.7-.1 1.6-4 5.5-5.7 5.7-1 .2-1.9.8-1.9 1.4-.1.7-.2 1.7-.3 2.3 0 .5-.5.7-1.1.4-.5-.3-1.5.5-2.1 1.9-.7 1.4-1.6 2.3-2 2-.5-.3-.9.2-.9 1.1 0 .9-.4 1.4-.9 1.1-.5-.3-1.6.6-2.5 1.9-.9 1.4-2.1 2.3-2.6 2-.6-.3-.7.1-.4.9.4 1 .1 1.6-.9 1.6-.9 0-1.9.9-2.2 2.1-.4 1.1-.9 1.8-1.3 1.5-.3-.3-1.2.3-1.9 1.4-.8 1.1-1.9 1.8-2.4 1.4-.5-.3-.8-.1-.7.4.2.5-1.8 3.3-4.4 6.1-2.7 2.9-4.8 4.8-4.8 4.4 0-.4-.7.3-1.6 1.6-1.3 1.8-1.8 2-2.6 1-.7-1.1-.9-1.1-.7.1.3 2.9-.1 4.1-1.1 3.5-.5-.3-1-.2-1 .4 0 1.5-4.2 5.1-5.1 4.5-.5-.3-.6.2-.3 1 .5 1.4-.5 2-2.7 1.8-.4-.1-1 1-1.3 2.4-.5 2-1.2 2.5-2.7 2.1-1.7-.4-1.8-.3-.8.9 1.1 1.3.2 1.9-2.4 1.5-.4 0-.6.2-.5.6.3 1.6-1.5 4.3-2.8 4.3-.8 0-1.4.7-1.4 1.6 0 1-.6 1.4-1.5 1-.8-.3-1.4-.2-1.3.2.2 1.3-1.4 4.2-2.2 3.7-.4-.3-1.6.8-2.6 2.3-2 3.2-5.5 5.8-6.9 5.4-.5-.2-.7 0-.3.4 1 .9-1.2 3.5-2.3 2.8-.5-.3-.9-.2-.8.3.3 2-.2 3.4-1.1 2.8-.5-.3-1-.2-1 .4 0 .5-.8 1.7-1.7 2.6-.9 1-1.7 3.1-1.6 4.9 0 1.7-.5 3.4-1.1 3.8-.7.5-.6.8.4.8 1.3 0 1.3.1 0 1-.8.5-1 1-.5 1 1.3 0 1.3 6.9.1 8.9-.6.9-.5 1.2.1.8 1.3-.8 1.1 10.6-.2 11.5-.6.5-.4.8.5.8 1.3 0 1.3.1 0 1-.8.5-1 1-.5 1 1.3 0 1.3 6.9.1 8.9-.6.9-.5 1.2.1.8 1.3-.8 1.1 5.2-.2 7.3-.5.8-.4 1.1.1.7.6-.3 1 2 1 5.4 0 3.4-.5 5.9-1.1 5.9-.5 0-.3.5.5 1 1.3.9 1.3 1 0 1-.9 0-1.1.3-.5.8 1.2.8 1.5 8.3.3 7.6-.4-.3-.8 0-.8.5 0 .6.4 1.1.9 1.1 1.1 0 .8 6.1-.4 8-.6.9-.4 1.1.5.5 1-.6 1.2-.1.7 2.6-.4 1.9-.3 2.8.1 2.1.5-.7 1.7-1 2.8-.6 1.3.4 1.5.3.6-.3-1-.7-.8-1.4.6-3.1 2-2.3 3.8-3 2.6-1-.4.7-.3.8.4.4s1.2-1.3 1.2-2 .8-2 1.8-2.9c1.9-1.8 3.7-2.3 2.8-.9-.2.4 0 1.4.6 2.2.8 1.2.9 1.2.4-.2-.3-1.1 0-1.8.7-1.8s.8-.3.2-.8c-1.8-1.3-1.5-3.1.5-3.7 1.1-.4 2-1.3 2-2.1s.5-1.2 1-.9c.6.4.8 1 .5 1.5-.3.5 0 1.2.6 1.6.7.4.9.3.5-.4-.3-.6-.2-1.4.4-1.7.8-.5.7-1.2-.2-2.3-.7-.9-.8-1.3-.2-.9.6.3 1.7-.5 2.4-1.8.7-1.4 1.8-2.5 2.3-2.5.6 0 .2.9-.8 2-1.7 1.8-1.7 2-.2 1.4 1.7-.6 2.1-1.6 1.7-4.4-.1-1.2.1-1.2 1.1-.3.7.7 1.8.9 2.8.4.9-.5 2.4-.7 3.4-.6.9.2 1.5-.1 1.2-.5-.3-.5-1.6-.7-3-.4-1.3.2-2.7-.1-3.1-.7-.4-.8-.3-.9.4-.5s1.2.2 1.2-.4c0-.7.7-.9 1.6-.6 1.3.5 1.4.3.6-.7-1.7-2 2.4-4.3 4.6-2.5 1.1.8 1 .5-.3-1.1-1.1-1.4-1.5-2.1-.8-1.8.7.4 1.4-.1 1.8-1.3.6-2 2.4-2.3 3.7-.5.5.6.8.5.8-.3 0-.7.5-1 1.2-.6s.8.3.4-.5c-.4-.6-1.2-.9-1.7-.6-1.2.8-1.1-.6.1-2.5.8-1.2 1-1.2 1.5.3.6 1.4.9 1.5 2.1.2.8-.7 2.3-1.2 3.4-1 1.1.2 1.8 0 1.5-.5-.3-.5-1.6-.7-3-.4-1.3.2-2.7-.1-3.1-.7-.4-.7-.3-.9.4-.5.6.3 1.3-.2 1.6-1.1.3-1 1.5-2.4 2.7-3.1 1.7-1.1 2.4-1.1 3.7 0 1.1.8 1 .5-.3-1.1-1.1-1.4-1.5-2.1-.8-1.8.7.4 1.4-.1 1.8-1.3.6-2 2.4-2.3 3.7-.5.5.6.8.5.8-.3 0-.7.5-1 1.2-.6s.8.3.4-.5c-.4-.6-1.2-.8-1.8-.5-.6.4-.8.1-.6-.7.3-.8 1.1-1.3 1.7-1.2.6.2 1-.2.8-.8-.1-.6.3-1.3 1-1.6.8-.3 1.1.3.8 1.6-.2 1.2.1 2.1.7 2.1.5 0 .8-.7.4-1.5-.3-.8 0-1.5.7-1.5s.8-.3.2-.8c-1.8-1.3-1.5-3.1.5-3.7 1.1-.4 2-1.3 2-2.1s.5-1.2 1-.9c.6.4.8 1 .5 1.5-.3.5 0 1.2.6 1.6.7.4.9.3.5-.4-.3-.6-.2-1.4.4-1.7.8-.5.7-1.2-.2-2.3-1-1.2-1-1.4 0-.8.6.4 1.2.3 1.2-.2 0-1.2 6.1-7.2 7.2-7.2.5 0 .7.4.3.9-.3.5 0 1.3.6 1.7.8.4.9.3.5-.4s-.1-1.2.6-1.2c.8 0 .9-.3.3-.8-1.8-1.3-1.5-3.1.5-3.7 1.1-.4 2-1.3 2-2.1s.5-1.2 1-.9c.6.4.8 1 .5 1.5-.3.5 0 1.2.6 1.6.7.4.9.3.5-.4-.3-.6-.2-1.4.4-1.7.8-.5.7-1.2-.2-2.3-1-1.2-1-1.4 0-.8.6.4 1.2.3 1.2-.3s1.7-2.7 3.8-4.8c4-3.9 5.7-6.8 5.3-9.1-.1-.8.6-2.4 1.6-3.5 1.3-1.6 1.4-1.8.2-.9-1.4 1.1-1.6.9-1.6-1.3 0-2 .4-2.5 1.6-2.1 1.3.5 1.3.4-.1-.8-1.7-1.3-2.6-4.2-1-3.2.4.2.8-.4.9-1.4.1-1.1-.2-2.2-.8-2.5-.5-.4-.9-1.1-.9-1.6 0-.6.5-.7 1-.4.6.3 1 .1 1-.4 0-.6-.4-1.1-1-1.1-.5 0-1-.7-1-1.5s.6-1.5 1.3-1.5c.8 0 .9-.3.1-.8-.6-.4-1.1-2.6-1.1-5 0-3.5.3-4.2 1.6-3.7 1.3.4 1.3.2-.1-.9-1.7-1.3-2.6-4.2-1-3.2.4.2.8-.4.9-1.4.1-1.1-.2-2.2-.8-2.5-.5-.4-.9-1.1-.9-1.6 0-.6.5-.7 1-.4.6.3 1 .1 1-.4 0-.6-.4-1.1-1-1.1-.5 0-1-.7-1-1.5s.6-1.5 1.3-1.5c.8 0 .9-.3.1-.8-.6-.4-1.1-2.6-1.1-5 0-3.5.3-4.2 1.6-3.7 1.3.4 1.3.2-.1-.9-2-1.5-2.5-4.1-.5-3 .6.4.9.4.5-.1-.4-.4-.2-1.5.5-2.4 1-1.4 1-1.4-.4-.3-1.4 1.1-1.6.9-1.6-1.3 0-1.3.3-2.3.7-2 .3.2.7-.2.7-1s-.4-1.2-.9-.9c-.4.3-.8-.7-.8-2.1 0-1.5.4-2.4 1-2 .6.4.7 1.1.4 1.7-.4.7-.2.8.4.4 1.1-.7.6-3.6-.7-3.6-.4 0-.8-.6-.8-1.3 0-.8 1.2-1.4 2.9-1.4 3.1 0 3.8 1.3 1.1 2-1.6.4-1.6.5-.1.6.9 0 2-.3 2.3-.9.9-1.5 2.5-1.2 2.5.4 0 .8.5 1.8 1.2 2.2.7.4.8.3.4-.5-.5-.7-.5-2.4-.1-3.9.5-2 .8-2.3 1.5-1.2.5.9.4 2-.3 2.9-1 1.2-.9 1.3.2.6 1.1-.6 1.3-.4.8.9-.4 1-.3 1.5.3 1.1.5-.3.8-2.3.6-4.5-.2-2.2.1-3.7.6-3.4.4.3.6 1 .3 1.5-.4.5-.2.9.2.9 1 0 1 4.1 0 5.7-.4.7-.3 1.4.3 1.8 1.7 1 1.1 2.5-1.2 3.5-2.3.9-2.3.9.2 1 2 0 2.2.2 1 1-1.3.9-1.3 1 0 1s1.3.1 0 1c-1 .6-1.1 1-.2 1 .6 0 1.2.5 1.2 1.1 0 .5-.4.8-.9.4-.6-.3-.6.7-.1 2.6 1.1 3.6.1 6.4-1.1 3.3-.7-1.7-.8-1.7-.8-.1-.1 1 .6 2 1.5 2.4 1.3.5 1.3.7.2 1.4-1 .7-1 .9 0 .9.6 0 1.2.5 1.2 1.1 0 .5-.6.7-1.2.3-1-.5-1-.4-.2.5 1.3 1.4.7 5.4-.6 4.6-.5-.3-1.2 0-1.6.6-.4.7-.3.9.2.6.6-.3 1.6-.2 2.4.3 1.1.7 1.1 1.1.1 2.4-.9 1.1-1 1.6-.2 1.6.6 0 1.1.5 1.1 1.1 0 .5-.4.8-.9.4-.6-.3-.7.6-.3 2.2 1.2 4.7.8 8.8-.8 8.5-1.1-.2-1 .2.3 1.2 1.4 1 1.5 1.5.5 1.9-1 .4-1 .6 0 .6.6.1 1.2.6 1.2 1.2 0 .5-.4.7-1 .4-.7-.4-.7.3 0 1.9.9 2.4.6 3-1.2 2.7-.4 0-.5.6-.2 1.4.4.8 1.1 1.2 1.6.9.6-.4.5.2-.1 1.4-1.3 2.4-1.4 3.5-.3 2.9.4-.3.7.6.7 1.9 0 1.5-.6 2.4-1.5 2.4-1.2.1-1.1.3.3 1.1 1.3.8 1.5 1.4.7 2.9-.7 1.3-.7 2.1 0 2.5.5.3 1 1.4 1 2.4s.8 2.5 1.8 3.2c1.6 1.3 1.6 1.3.2-.6-1.4-1.9-1.4-1.9.3-.6.9.7 1.7 2.3 1.7 3.5 0 1.7.2 1.8 1 .6.8-1.3 1-1.2 1 .3 0 .9.5 1.6 1.1 1.5.7-.2 2.7 1.6 4.5 4 1.9 2.4 3.4 4 3.4 3.7 0-.4.7-.2 1.5.5s1.5 1.8 1.5 2.4c0 .6-.5.4-1-.4-.7-1.2-.9-1-.7.7.1 1.7.5 2 1.9 1.2 1.7-.9 2.2-.5 1.9 1.4 0 .4.5.7 1.2.7 2.2 0 6.1 4.7 4.6 5.5-.8.6-1 .4-.4-.6.5-.8.4-1 0-.6-.5.4-1 1.5-1.1 2.4-.2 1.2 0 1.3.9.4 1.3-1.3 4.1-1.5 3.2-.2-.3.5.4 1.3 1.5 1.6 1.7.5 1.9.9.9 2.1-.6.8-.9 1.7-.5 2.1.3.3.6.2.6-.4 0-.6.7-1.4 1.6-1.7 1.5-.6 1.5-.4.3 1.1-1 1.2-1 1.5-.1.9 1.4-.9 4.5 1.2 3.7 2.4-.3.5.4 1.2 1.5 1.5 1.6.5 1.9 1 1 2-.9 1.1-.7 1.2.9.8 1.3-.3 2.1-.1 2.1.6s-.4 1-.8.7c-.4-.2-1.4 0-2.2.6-1.2.8-1.2.9.2.4 1-.3 2.2.2 2.8 1.2 1.1 1.6 1.1 1.6.6 0-.3-1-.1-2 .5-2.3.5-.4.9-.3.8.2-.4 2.1.2 4.3 1.2 4.3.5 0 .7-.5.3-1.2-.4-.7-.3-.8.5-.4.6.4.9 1.2.6 1.7-.4.5-.1.9.4.9 1.7 0 4.8 3.5 4.3 4.8-.2.7.2 1 1.2.6s1.6-.1 1.6 1c0 .8-.6 1.4-1.2 1.2-.7-.1-1-.1-.5.1.4.3.5.8.2 1.3-.7 1.1 2.2.7 3.2-.5.4-.4.2-.5-.6 0-1 .5-1.2.4-.7-.4 1-1.5 2.2-.7 5.7 4.1 1.6 2.3 2.9 3.8 2.9 3.3 0-.4.7-.2 1.5.5s1.5 1.8 1.5 2.4c0 .6-.5.4-1-.4-.7-1.2-.9-1-.7.7.1 1.7.5 2 1.8 1.3 2.1-1.2 6.5 3.2 5.3 5.2-.6 1-.4 1 .9-.1 1.5-1.2 1.7-1.2 1.1.3-.3.9-1.1 1.6-1.7 1.6-.6 0-.7.3-.4.6.4.4 1.3.1 2.1-.5 1.2-1 1.6-.8 2.1.9.3 1.1 1.1 1.8 1.6 1.5 1.3-.9 1.1 1.9-.2 3.2-.9.9-.8 1.1.4.9.9-.1 2-.6 2.4-1.1.4-.4.2-.5-.6 0-1 .6-1.2.4-.6-.5.6-1 1.7-.4 4.2 2.5 3.2 3.7 3.8 6.3 1.4 5.7-.7-.1-.9.3-.6.9.5.8 1 .8 1.8 0 .6-.6 2-1.1 3.1-1.1 1 0 1.7.3 1.3.6-.8.8 1.8 3.4 3.3 3.4.6 0 .9-.4.6-.9-.4-.5 0-1.2.6-1.4.9-.4.9-.6.1-.6-.6-.1-.9-1-.6-2.1.3-1.1.9-1.8 1.2-1.5.4.2.8-.2.8-1s-.4-1.2-.8-1c-.4.3-.9-1.5-1.1-4-.2-2.9.1-4.6.9-4.9.9-.4.9-1.2-.2-3.3-1-1.9-1.1-2.9-.4-3.4.8-.4.7-.8-.2-1.2-.8-.3-.9-.6-.3-.6.8-.1.9-1.2.4-3.5-.6-2.7-.4-3.6.7-4.1 1.1-.3 1.2-.9.5-1.8-1.4-1.8-2.1-6.7-.9-6.7.5 0 .3-.8-.4-1.7-1.2-1.5-1.2-1.6.4-1 .9.3 1.7.2 1.7-.3 0-.6-.8-1-1.7-1-1.5 0-1.6-.2-.3-1 1.3-.9 1.3-1 0-1-.9 0-1.1-.3-.5-.8 1.3-.9 1.3-7.2 0-7.3-.5 0-.1-.4 1-.9 1.4-.6 1.5-.9.5-.9-1.8-.1-2.2-5.1-.5-6.3.6-.5.5-.8-.2-.8-.9 0-1-.7-.4-2.3.5-1.3.5-3 .1-3.8-.6-.8-.5-1.6.2-2 .7-.4 1.3-1.5 1.4-2.3.1-.9-.1-1.4-.6-1.1-.4.3-1-1.1-1.2-3-.2-2 0-3.5.7-3.5s.7-.3 0-.8c-.6-.4-1-1.7-.9-2.9.1-1.2-.2-2-.6-1.8-.4.3-1.3-.1-1.9-.9-.9-1.1-.9-1.5.1-2 .8-.3.7-.5-.3-.3-.9.1-4.7-2.9-8.5-6.8-3.8-3.8-7.2-6.9-7.6-6.7-.5.1-.8-.3-.8-.8 0-.6-3.8-4.7-8.5-9.3-5-4.7-8.3-8.7-8-9.5.2-.7 0-1-.5-.7-.6.4-3.9-2.2-7.3-5.7-3.4-3.4-6.5-6.2-6.9-6-.5.1-.8-.3-.8-.8 0-.6-3.8-4.7-8.5-9.3-5-4.7-8.3-8.7-8-9.5.3-.7 0-1-.6-.6-.6.3-6.2-4.6-12.5-11-10.5-10.7-13.1-13.7-10.4-12.1.6.3 1 .1 1-.5s.4-.9.9-.5c.5.3 1.2-.4 1.6-1.5.3-1.1 1.1-2 1.6-2 .6 0 .5.9-.2 2.2-.8 1.7-.4 1.4 1.4-.7 2.2-2.7 2.6-2.8 4.3-1.5 1.1.9 1.5 1 1 .2-1.3-2.1 2.5-1.4 4.5 1 2.4 2.7 2.4 3.5.2 1.7-1.6-1.2-1.7-1.2-.6.2.7.9.9 1.9.5 2.4-.4.4.3.2 1.6-.4 1.8-1 2.2-.9 2.2.4 0 .8-.6 1.5-1.4 1.5-.8 0-1.7.4-2 .9-.3.5.2.8 1.2.7.9 0 2.1-.7 2.5-1.4.7-1.1 1.2-1 2.2.5.7 1 1.1 2.1.9 2.5-.3.5.4.8 1.5.8 1.2 0 2.1.5 2.1 1.1 0 .5-.5.7-1.2.3-.7-.4-.8-.3-.4.4.4.6 1.3.9 2.1.5 1.1-.4 1.3-.1.9 1.1-.3.9-1.1 1.3-1.7.9-.6-.3-.7-.1-.3.6.4.6 1.1.9 1.6.6.5-.3 1.3.3 1.9 1.2.6 1 1.1 1.3 1.1.7 0-.5-.6-1.6-1.2-2.3-1.1-1.1-.9-1.1.9 0 1.2.7 2 1.5 1.8 1.8-.3.2 1.1 1.5 3.2 2.9l3.6 2.5-2.4 1.9c-1.4 1-1.7 1.7-.9 1.6.8-.2 1.8-.7 2.1-1.1 1-1.3 3.9.4 3.9 2.4 0 1 .3 1.8.8 1.7.4 0 1.5.2 2.6.7 1.7.8 1.7.9-.5 2.6-2.1 1.6-2.2 1.7-.4 1.6 1.1-.1 2 .3 2 1 0 .6.3 1.4.8 1.7.4.3.5.3.2-.1-.3-.3.1-1.3.8-2.1.8-1.1.8-1.4 0-.9-.6.4-1.4.3-1.8-.3-.3-.5.1-1 1-1 2.2 0 2.8 2.1 1.5 5.4-.6 1.7-.6 2.5 0 2.1.6-.3 1-1.2 1-2 0-3.1 2.1-2.3 4.2 1.7 1.2 2.4 2.2 4.6 2.3 5 0 .3.4 1 .9 1.5.5.4.6.3.3-.3-.4-.7 0-1.4.8-1.8 1.8-.7 2 1.5.3 3.2-.7.7-.8 1.2-.4 1.2.5 0 1.4-.7 2-1.6 1-1.4 1.3-1.3 2.4.8.7 1.3 2.9 3.4 4.9 4.7 3.3 2.1 3.5 2.5 1.9 3.6-1 .8-1.3 1.6-.7 1.9.5.3 1.1.1 1.3-.5.6-1.7 3.8.1 3.8 2.2 0 1 .3 1.8.8 1.7.4 0 1.5.2 2.6.7 1.7.8 1.7.9-.5 2.6-2.1 1.6-2.2 1.7-.4 1.6 1.1-.1 2 .3 2 1 0 .6.3 1.4.8 1.7.4.3.5.3.2-.1-.3-.3.1-1.3.8-2.1.8-1.1.8-1.4 0-.9-.6.4-1.4.3-1.8-.3-.3-.5.1-1 1-1 2.2 0 2.8 2.1 1.5 5.4-.6 1.7-.6 2.5 0 2.1.6-.3 1-1.2 1-2 0-3.1 2.1-2.3 4.2 1.7 1.2 2.4 2.2 4.6 2.3 5 0 .3.4 1 .9 1.5.5.4.6.3.3-.3-.4-.7 0-1.4.8-1.8 1.8-.7 2 1.5.3 3.2-.8.8-.8 1.2-.1 1.2.6 0 1.4-.7 1.7-1.7.6-1.4.8-1.4 2.1.3.8 1 1.4 2.3 1.4 2.9 0 .5-.6.1-1.4-.9-.8-1.1-1.5-1.5-1.5-.9 0 .7.5 1.5 1 1.8.6.4.8 1.1.5 1.6-1 1.6.7 1 1.9-.7 1-1.3 1.4-1.2 2.6 1.3 1.8 3.4 3.1 4.4 4.5 3.5.5-.3 1.9-.8 3-.9 1.5-.2 1.3.1-.7 1.3-3 1.6-3.8 2.7-1.3 1.8.8-.4 1.5-.1 1.5.6 0 .6.5.8 1.1.4.8-.4.7-.9-.2-1.5-1.1-.7-1-.9.3-.9.9 0 1.9-.6 2.2-1.3.3-.6.3-.2.1 1-.3 1.2-.1 2.4.4 2.8.6.3.8 0 .5-.8-.3-.9.4-1.7 1.8-2.2 4.1-1.3 4.8-1.3 4.2-.4-.4.8 1.7 1.4 3.9 1 .4 0 .7.4.7.9 0 .6.4 1 1 1 .5 0 .7-.7.3-1.6-.3-.8-1.2-1.3-1.9-1-.7.3-1.6.1-1.8-.3-.3-.4.9-.7 2.7-.7 2.5.2 3.2.6 3 2.1-.1 1.1 0 1.4.3.7.3-.6 1-1 1.5-.7.5.4.7 0 .4-.7-.4-.9.5-1.4 2.6-1.4 2-.1 2.7.1 1.8.6-.7.5-1.6.7-1.9.5-.3-.2-.6.6-.7 1.8 0 1.2.1 1.6.4.9.3-.6 1-.9 1.5-.6.7.4.8.2.4-.4-.4-.7-.1-1.2.8-1.2.8 0 1.8.5 2.1 1 .8 1.3 2.5 1.3 2.5 0 0-.5-.3-.9-.8-.7-.4.1-.9-.2-1.2-.8-.3-.5 1.1-.9 3.2-1 2 0 3.4.3 3.1.7-.2.5.3.8 1.1.8 2.8 0 3.1.1 5.1 1.8 1.1.9 1.7 1.3 1.3.8-.4-.5-.2-1.6.5-2.5 1.1-1.4 1-1.4-.5-.2-1.4 1-1.8 1-1.8.1 0-.7-.7-1-1.5-.7-.8.4-1.6.3-1.9-.1-.2-.4 1.3-.8 3.5-.8 3.3-.1 3.8.2 3.4 1.6-.3 1.1.1 2 1.1 2.4 1.4.5 1.5.4.4-.9-.9-1.1-.9-1.5-.1-1.5.7 0 1-.4.7-.8-.2-.4.6-.8 1.9-.8 1.3 0 2.1.4 1.9.8-.3.4 0 .9.5.9 1.5.2 3.1.6 3.4.9.6.7 4.6.6 4.1-.1-.2-.4-1.2-.5-2.1-.2-1.1.4-1.4.2-.9-.5.4-.7-.1-1-1.5-.7-1.2.2-1.9.1-1.5-.2 1-1 7.5-1 6.9-.1-.4.7 1.2 1 3.3.7.4 0 1.1.5 1.5 1.3.7 1 .9.8.9-.6 0-1.2-.5-1.6-1.5-1.3-.8.4-1.6.3-1.9-.1-.2-.4 4.5-.7 10.5-.8 6 0 11.2-.4 11.6-.8.5-.4-.4-1.8-1.9-3-1.6-1.2-2.8-2.7-2.8-3.4 0-.7-.7-1.2-1.6-1.2-.8 0-1.2-.5-.9-1 .3-.6-.1-1-1-1s-1.4-.3-1.2-.8c.6-.9-1.9-3.3-2.7-2.5-.3.4-.6-.1-.6-1 0-1-.7-1.7-1.6-1.7-.8 0-1.2-.5-.9-1 .3-.6-.1-1-1-1s-1.3-.4-1-1c.3-.5.1-1-.4-1-1.4 0-5.1-3.7-5.1-5.1 0-.5-.4-.7-1-.4-.5.3-1-.1-1-.9 0-.9-.7-1.6-1.6-1.6-.8 0-1.2-.5-.9-1 .3-.6-.1-1-1-1s-1.3-.5-1-1c.3-.6 0-1-.7-1s-2.2-1.3-3.3-2.9c-1-1.6-2.3-2.7-2.7-2.5-.4.3-.8-.2-.8-1 0-.9-.7-1.6-1.6-1.6-.8 0-1.2-.5-.9-1 .3-.6-.1-1-1-1-.8 0-1.9-.8-2.2-1.8-.9-2.2-2.9-4.2-4.2-4.2-.6 0-1.1-.3-1.1-.8 0-1.3-5.7-7.2-6.4-6.5-.3.3-.6.1-.6-.4 0-.6-1.6-2.8-3.5-4.7-1.9-2-3.5-3.3-3.5-2.9 0 .4-.6-.2-1.4-1.2-.8-1.1-1.2-2.3-1-2.7.3-.4-.2-.5-1-.2-1 .4-1.6.1-1.6-.9 0-.9-.9-1.9-2-2.2-1.1-.3-2-1-2-1.5s-1.6-2.3-3.5-4.1c-1.8-1.8-3.1-3.7-2.8-4.2.3-.6.1-.7-.4-.4-.6.4-2.6-1.1-4.5-3.3-2-2.2-3.8-3.7-4.2-3.3-.3.3-.6-.1-.6-1 0-1-.7-1.7-1.6-1.7-.8 0-1.3-.4-1-.9.3-.5-.1-1.2-1-1.5-.8-.3-1.3-.9-1.1-1.3.3-.5-16.7-.7-37.6-.7-26.9.1-38.6-.2-39.6-1-1.1-.8-1.3-.8-.8.1.5.8-.4 1.1-3.3 1-2.2-.1-4-.3-4-.5 0-1.2 4.1-4.3 4.9-3.7.6.3 1.1.2 1.1-.4 0-.5-.6-1.1-1.2-1.4-.8-.3-.1-.9 1.5-1.6 3.1-1.2 3.6-2.1 1-1.6-2.1.3-5.5-2.4-4.7-3.6.3-.5-.2-.9-1-.9s-1.7-.4-2-.8c-.6-1 5.1-.9 6 .1.4.4 1.4.1 2.2-.6 1.3-.9 1.4-.9.8.1-.8 1.3 1.9 1.3 4.1-.1.6-.4 1.4-.3 1.7.2.8 1.2-.4 1.9-2.6 1.6-1.4-.3-1.5 0-.6 1.5 1.1 1.7 1.4 1.6 3.5-1.3 1.3-1.7 2.3-2.6 2.3-2.1 0 .6.7 1.1 1.5 1.1s1.5-.5 1.5-1.1c0-.6.5-.5 1.2.2 1.5 1.5 6.4 1.6 7.3.2.4-.7 1.3-.6 2.6.1 1.2.6 1.8 1.3 1.5 1.6-.3.3-1.4 0-2.3-.8-1.7-1.2-1.7-1.2-.1.5 1.8 2 4.3 1.3 3.4-1-.4-1.1-.2-1.1 1.4-.2 1 .7 1.7 1.5 1.4 1.9-.2.5.5.6 1.6.4 1.1-.2 2 .2 2 .8 0 .9.2.9.8.1.4-.6 1.5-1 2.5-.8.9.1 1.5-.1 1.2-.6-.2-.4-1.8-.6-3.5-.5-2.9.3-4-.8-2-2 .5-.3 1-.1 1 .6 0 .9.3.9 1.4 0 1-.8 1.6-.9 2.1-.2.6 1.1 3.2 1 5-.1.6-.4 1.7-.3 2.5.3 1.6.9 1 1.2-3.1 1.2-1.7 0-2 2-.5 3.4.4.4.6.2.4-.6-.1-.7.6-1.5 1.7-1.7 1.1-.1 2.5-1 3.1-1.9 1.1-1.4 1.2-1.4 1.8 0 .3.9.2 1.3-.4 1-.6-.4-.7.1-.3 1.1.5 1.3.3 1.5-.8.9-.8-.5-1.1-.4-.6.1 1 1.1 6.7 1.2 6 .1-.3-.5-1.1-.6-1.9-.3-1.5.6-1.5-2.7.1-4.1.4-.5.5-.2.1.5-.5.8-.1 1.1 1.3.9 1.1-.2 2.4-.6 2.7-1 .4-.4 1.3-.2 2.1.4 1 .9 1.3.8 1.3-.2 0-.9.3-1 .8-.4 1 1.4 3.2 1.7 3.2.4 0-.6.5-.7 1.3-.2 1.8 1.2 5.7 1.5 7 .6 1.5-1 4.7-1 4.7 0v1.2c0 .3-1 .1-2.2-.5-2.2-1.1-2.3-1.1-.3.5 1.9 1.5 2.1 1.4 3.7-.5.9-1.1 1.9-1.6 2.2-1.1.3.5-.1 1.4-.9 2.1-.8.7-1.5 1.7-1.5 2.3 0 .5 1-.2 2.1-1.7 1.2-1.5 2.7-2.5 3.4-2.2 1.4.5 1.4-1.1.1-3.3-.5-.8-.5-1.2 0-.9.8.5 4.3-2.3 3.7-2.9-1-1 0-1.3 1.1-.4 1.2 1 1.3.8.9-.8s-.1-2.1 1.3-2.1c1.5 0 1.6.2.5.9-.8.5-.9 1.1-.3 1.5 1.3.8 2.3-1.9 1.1-3.3-.5-.6-.6-.9-.3-.7.9.7 3.3-1.8 2.6-2.8-.3-.5-.1-.7.4-.4.5.3 2.3-1.2 3.9-3.3 2-2.6 3.6-3.7 4.8-3.5 1.4.3 1.6.1.7-.8-1.5-1.9 1.1-4 3-2.3 1 1 1.2.9.8-.3-.8-2.3 1.8-5.4 3.8-4.6 1.5.6 1.5.4.3-1.1-.9-1.1-1-1.4-.1-.9.6.4 1.2.2 1.2-.3 0-1.9 4.4-5.6 6.2-5.3 1 .2 1.8-.2 1.8-.8 0-.6.6-.8 1.3-.4.6.4.9.4.5-.1-1.1-1.1 1.2-3.6 2.5-2.8.6.3.7.1.3-.5-.4-.7-.2-1.2.4-1.2.6 0 .8-.4.5-1-.3-.5-2 .6-3.7 2.6-1.7 1.9-3.3 3.3-3.5 3-1-.9 6.2-7 8-6.8.9.2 1.7-.2 1.7-.8 0-.6.5-.8 1.2-.4s.8.3.4-.5c-.6-.9-1.1-.9-2.2 0-.9.7-1.4.8-1.4.1 0-1.4 3.7-2.5 5.1-1.6.8.4.9.3.5-.4s-.2-1.2.4-1.2c.6 0 1-.8.8-1.8-.3-1.8 3.4-6.2 5.3-6.2.5 0 .7-.6.3-1.3-.5-.8-.2-.7.9.2 1.5 1.2 1.7 1.2 1.1-.4-.7-1.8 1.7-3.9 4.5-4 1.7 0 2.8-2.5 1.1-2.5-.6 0-.8.5-.4 1.2s.3.8-.5.4c-1.7-1.1 3.6-5.9 5.7-5.1 1.2.4 1.3.3.2-1-1.1-1.4-.7-1.9 1.2-1.6.4 0 1-.8 1.3-1.9.4-1.1 1.1-2 1.7-2 .7 0 .6.5-.1 1.4-.9 1.1-.9 1.6 0 2.2.8.4.9.3.5-.4s-.2-1.2.4-1.2c.6 0 1-.8.8-1.8-.2-1.6 3.3-6.2 4.9-6.2.3 0 1.6.8 2.7 1.7 2.1 1.8 2.1 1.8.3-.3-.9-1.1-1.4-2.4-1-2.9.5-.4.1-.5-.7-.1-.8.4-.4-.1 1-1.2 2.2-1.9 2.5-1.9 3.8-.4 1.1 1.5 1.2 1.4.2-.6-.9-1.9-.7-2.6 1.6-4.7 1.4-1.3 2.3-2.8 2-3.4-.4-.6-10-1-23.9-1.1-12.7 0-23.9-.1-24.7-.1-.8 0-9.6.1-19.4.2-16 .1-18.1.3-19.9 2-1.1 1-2.4 1.6-2.9 1.3-.5-.3-.8-.2-.7.3.3 2-.2 3.4-1.1 2.8-.5-.3-1.5.5-2.1 1.9-.7 1.4-1.6 2.3-2 2-.5-.3-.9.2-.9 1.1 0 .9-.4 1.4-.9 1-.5-.3-1.8.8-2.7 2.5-1 1.6-2.6 3.3-3.6 3.6-.9.3-2 1.4-2.3 2.5-.4 1.1-.9 1.8-1.3 1.5-.3-.3-1.2.3-1.9 1.4-.8 1.1-1.9 1.8-2.4 1.4-.5-.3-.8-.1-.7.4.2.5-1.8 3.3-4.4 6.1-2.7 2.9-4.8 4.8-4.8 4.4 0-.4-1.1.5-2.5 2.1s-2.5 3.3-2.5 3.8-.4.6-1 .3c-.5-.3-1 .1-1 .9 0 .9-.3 1.5-.7 1.4-1.1-.4-6.2 4.9-5.5 5.6.3.3-.2.6-1.1.6-.8 0-1.8.9-2.2 2-.3 1.1-1.2 1.9-1.8 1.7-.7-.1-1.1.4-.9 1 .2 1.2-1 1.7-3.1 1.4-.4 0-.6.3-.5.8.3.8-8.9 11.4-9.4 10.9-.6-.5-5.6 5.1-5 5.6.3.3-.2.6-1.1.6-.8 0-1.9.9-2.2 2.1-.4 1.1-.9 1.8-1.2 1.5-.3-.3-1.8 1-3.3 2.9-1.5 1.9-3 3.2-3.3 2.9-.3-.3-.8.4-1.2 1.6-.4 1.3-1.2 1.9-2.1 1.6-.7-.3-1.3-.2-1.3.2.3 2.1-.3 3.1-1.6 2.6-1.1-.5-1.3-.2-.9 1 .8 2.1.2 2-2.4-.3-1.2-1-1.8-2.2-1.4-2.6.4-.5.1-.5-.6-.1-1.5.9-4.4-2.2-3.8-4 .3-.6-.3-1.1-1.1-1-.9 0-1.8-.5-2-1.2-.4-.9.3-1.1 2.4-.7 2.3.5 2.5.4 1-.5-1.9-1.2-1.4-3 .9-3 .8 0 1.2.4.9 1-.3.5-.1 1 .5 1s.8-1.1.6-2.4c-.5-2.7 1.7-5.5 2.9-3.6.4.6 1.4.4 3-.7 1.2-1 2.1-2.1 1.8-2.6-.2-.4-1.3.3-2.3 1.5-1.1 1.3-1.9 1.7-2 1 0-.6.4-1.2.8-1.2.5 0 1.4-1.2 2-2.6.7-1.4 1.7-2.2 2.2-1.9.6.3 1 .1 1-.5s.5-.8 1-.5c.6.4.7 1.1.4 1.7-.4.7-.2.8.4.4.8-.5.9-1.3.3-2.5-.7-1.3-.5-2 1-2.9 2.3-1.5 3.2-1.5 2.4-.2-.3.5-.1 1 .5 1 .8 0 1-.9.6-2.5-.4-1.4-.2-2.4.3-2.3.5.2 2.2-1.4 3.9-3.5 1.7-2.1 3.4-3.9 3.9-4 .4 0 2.3-1.9 4.2-4.2 1.9-2.2 3.8-3.9 4.2-3.7.5.1.9-.3.9-.9 0-.5.5-.7 1-.4.6.4.7 1.1.4 1.7-.4.7-.2.8.5.4.7-.5.8-1.3.2-2.4-.7-1.2-.1-2.2 2.6-4.4 3.9-3 4.8-3.5 3.7-1.6-.4.7-.3.8.5.4.9-.6.9-1.1 0-2.3-1.1-1.2-.8-1.3 1.7-.8 2 .5 2.5.4 1.5-.3-1.4-1-.7-3.2 1-3.2.6 0 .7.4.4 1-.3.5-.1 1 .5 1 .8 0 1-.9.5-2.7-.5-2.3-.4-2.5.8-1.4 1.2.9 1.7.9 2.3 0 .4-.8.3-.9-.4-.5-1.9 1.2-1.4.1 1.9-4 1.7-2.2 3.5-3.8 4-3.6.5.1.9-.3.9-.9 0-.5.5-.7 1-.4.6.4.7 1.1.4 1.7-.4.7-.2.8.5.4.7-.5.8-1.3.3-2.3-.6-1.1-.1-2.3 1.7-4.1 1.4-1.5 2.9-2.6 3.4-2.4.4.1.7-.3.7-.9 0-.5.5-.7 1-.4.6.4.7 1.1.4 1.7-.4.7-.2.8.4.4.9-.5.9-1.3.2-2.6-.8-1.5-.6-2 1-2.5 1.1-.4 1.8-1.1 1.5-1.6-.4-.5.4-1.4 1.7-2 1.3-.5 3.4-2.6 4.8-4.4 1.4-1.9 3-3.3 3.7-3 .6.2 1.7-1 2.3-2.6.7-1.6 1.8-2.9 2.5-2.9.8 0 1.2-1.9 1.1-6-.1-3.4.3-6 .9-6 .6 0 .3-.5-.5-1-1.1-.7-1.1-1-.2-1 .9 0 1-.5.2-1.9-.7-1.4-.7-2 .2-2.3.6-.2 1.2-1.2 1.4-2.1.1-.9-.2-1.5-.7-1.2-.5.3-.8-2.1-.8-5.4.1-3.3-.2-6.4-.6-7-.3-.6-.1-1.1.6-1.1.8 0 .7-.5-.2-1.7-1.2-1.5-1.2-1.6.4-1 .9.3 1.7.2 1.7-.3 0-.6-.8-1-1.7-1-1.4 0-1.5-.2-.4-.9s1.1-.9 0-1.4c-.8-.3-.9-.6-.4-.6.9-.1 1-10.5.1-14.3-.2-.9.2-1.9 1-2.2 1.1-.4 1.1-1-.1-3.3-1-1.9-1.1-2.9-.4-3.4.8-.4.7-.8-.2-1.2-.9-.4-1-.6-.2-.6.7-.1 1-.8.6-1.8-.5-1.2-.3-1.4.8-.8 1.1.7 1.2.6.3-.6-1.7-2.1-2.3-6.8-1-7.3.6-.2.5-.5-.3-.5-1.1-.1-1-.5.5-1.7 1-.8 1.3-1.3.7-.9-1.4.6-1.6-.1-1.5-4.8 0-1.5-.3-2.7-.8-2.7s-3.5 2.5-6.6 5.5c-3 3-6 5.3-6.5 4.9-.5-.3-.9-.2-.8.3.4 2.1-.3 3.2-2.1 3.8-1.1.3-2 1.3-2 2.1s-.8 1.4-1.7 1.4c-.9 0-1.4.3-1.1.6.8.7-2.8 4.4-4.2 4.4-.5 0-1 .7-1 1.5s-.8 1.5-1.7 1.5c-.9 0-1.4.3-1.1.6.7.7-3.4 5-4.4 4.7-.4-.2-1 .6-1.3 1.7-.4 1.1-1.3 2-2.1 2s-1.4.7-1.4 1.5-.7 1.5-1.6 1.5c-.9 0-1.2.5-.8 1.2.5.7.2.9-.9.5s-1.4-.2-1 .9c.3.8-.1 1.4-1.1 1.4-.9 0-1.6.6-1.6 1.4 0 .8-.9 1.7-2 2.1-1.1.3-1.9.9-1.7 1.3.3 1-4 5.1-4.7 4.5-.3-.4-.6.1-.6 1 0 1-.7 1.7-1.5 1.7s-1.5.7-1.5 1.5c0 1.4-1.2 1.9-3.2 1.6-.5 0-.7.2-.6.7.3 1.5-1.5 4.2-2.7 4.2-.8 0-1.7.9-2 2-.6 1.8-1.7 2.4-3.7 2.1-.4 0-.5.5-.2 1.2.2.7-.7 1.9-2.1 2.7-1.4.7-2.5 1.9-2.5 2.7 0 .7-.7 1.3-1.7 1.3-.9 0-1.4.3-1 .6.6.7-3.5 5-4.5 4.7-.4-.2-1 .6-1.3 1.7-.4 1.1-1.3 2-2.1 2s-1.4.6-1.4 1.4c0 1.3-2.7 3.1-4.2 2.8-.5-.1-.7.1-.7.6.4 2.1-.2 3.4-1.4 2.9-.8-.3-1.3.3-1.4 1.7-.1 4.9-.3 5.7-1.5 5.1-.7-.4-.5 0 .5.8 1.5 1.2 1.6 1.9.8 3.6-1.4 2.6-1.4 4.4 0 3.5.8-.5.8-.1 0 1.4-1.3 2.4-1.4 3.5-.3 2.9.4-.3.7 1.2.7 3.4-.1 2.1-.5 3.8-1 3.7-.6-.2-.9-.7-.7-1.1.1-.5-.3-.5-.9-.1-.9.5-.6 1.2.9 2.5 1.5 1.2 1.8 1.9 1 2.2-1 .4-1 .6 0 .6.6.1 1.2.6 1.2 1.2 0 .5-.4.7-1 .4-.7-.4-.7.3 0 1.9.9 2.5.6 3-1.5 2.7-.5-.1-.2.5.8 1.2 1.8 1.5 2.4 3.3.8 2.2-.6-.3-.6.7-.1 2.6 1 3.4.5 5.3-1.1 4.3-.5-.3-.6-1-.3-1.6.5-.7.2-.8-.6-.3-1 .6-.8 1.2.8 2.6 1.5 1.2 1.8 1.9 1 2.2-1 .4-1 .6 0 .6.6.1 1.2.6 1.2 1.2 0 .5-.6.7-1.2.3-1-.5-1-.4-.2.5 1.3 1.4.7 5.4-.6 4.6-.5-.3-1.2 0-1.6.6-.4.7-.3.9.2.6.6-.3 1.6-.2 2.4.3 1.1.7 1.1 1.1.1 2.4-.9 1.1-1 1.6-.2 1.6.6 0 1.1.5 1.1 1.1 0 .5-.4.8-.9.4-.6-.3-.6.6-.1 2.5.7 2.3.6 3-.3 2.7-.7-.3-1.1-1-.9-1.6.1-.7-.2-1-.7-.6-1.5.9-.1 3.5 1.8 3.5 1.4 0 1.4.2.1 1-1 .6-1.1 1-.2 1 .6 0 1.2.5 1.2 1.1 0 .5-.4.8-.9.5-.5-.4-.7.4-.3 1.6.4 1.6.2 1.9-.9 1.4-.8-.4-.6-.1.5.8 2 1.6 1.3 4.1-1 3.2-.7-.3-1.6-.1-1.9.5-.4.5-.3.9.2.8 3-.5 4 .2 3.5 2.8l-.5 2.6-3.4-3.6c-1.8-2-3.6-3.7-3.9-3.7-.3 0-1.3.9-2.2 2.1-2.5 3-5.2 1.6-5-2.7.1-1.8.4-3.1.8-2.9.4.2.7-.3.7-1.1s-.6-1.3-1.4-1c-1 .4-1.1.1-.5-1.1.5-.9.7-2.4.4-3.5-.3-1.1.5-3 1.9-4.6 1.3-1.4 1.7-2.1.8-1.4-2 1.5-2.9.6-2.9-2.6 0-1.9.4-2.3 1.8-1.8 1.6.6 1.6.5 0-.8-1.7-1.3-2.6-4.2-1-3.2.4.2.8-.4.9-1.4.1-1.1-.2-2.2-.8-2.5-.5-.4-.9-1.1-.9-1.6 0-.6.5-.7 1-.4.6.3 1 .1 1-.4 0-.6-.4-1.1-1-1.1-.5 0-1-.7-1-1.5s.6-1.5 1.3-1.5c.8 0 .9-.3.1-.8-.6-.4-1.1-2.6-1.1-5 0-3.5.3-4.2 1.6-3.7 1.3.4 1.3.2-.1-.9-1.7-1.3-2.6-4.2-1-3.2.4.2.8-.4.9-1.4.1-1.1-.2-2.2-.8-2.5-.5-.4-.9-1.1-.9-1.6 0-.6.5-.7 1-.4.6.3 1 .1 1-.4 0-.6-.4-1.1-1-1.1-.5 0-1-.7-1-1.5s.6-1.5 1.3-1.5c.9 0 .9-.2.1-.8-1.5-.9-1.4-8.4 0-9.4.8-.5.8-.8.1-.8-1 0-1.5-3-1.8-9.2-.1-.9-.4-1.5-.8-1.2-.4.2-1.7-.9-3-2.5s-2.7-2.7-3.1-2.5c-.4.3-.8.1-.8-.4 0-1.4-14.8-16.1-15.5-15.4-.3.3-.5 0-.5-.5 0-.6-1.6-2.8-3.5-4.7-1.9-2-3.5-3.4-3.5-3.2 0 .3-1.1-.6-2.5-2s-2.5-2.8-2.5-3.3c0-.4-1.1-1.4-2.5-2.1-1.3-.7-2.7-2.1-3.1-3.2-.3-1-.8-1.8-1.2-1.8-1.5 0-6.2-5.2-5.6-6.1.3-.5.1-.8-.4-.7-1.2.4-21.8-20.2-21.4-21.4.1-.5-.1-.7-.6-.4-1 .6-5.8-4.4-5.4-5.7.1-.4-.7-.7-1.8-.7s-2-.5-2-1.1c0-.6-1.1-2-2.5-3.1s-2.2-2.4-1.9-3c.4-.6.3-.8-.3-.5-.5.4-1.9-.4-3-1.6-1.1-1.2-3-3-4.2-3.9-2-1.7-2.1-1.7-2.2.5zM198 184c.6 1.1.8 2 .6 2-.3 0-1-.9-1.6-2-.6-1.1-.8-2-.6-2 .3 0 1 .9 1.6 2zm219.5 13c-.3.5-1.1 1-1.6 1-.6 0-.7-.5-.4-1 .3-.6 1.1-1 1.6-1 .6 0 .7.4.4 1zM230 216c.6 1.1.8 2 .6 2-.3 0-1-.9-1.6-2-.6-1.1-.8-2-.6-2 .3 0 1 .9 1.6 2zm23 16c0 .5-.4 1-1 1-.5 0-1-.5-1-1 0-.6.5-1 1-1 .6 0 1 .4 1 1zm-13 13c0 .5-.5 1-1.1 1-.5 0-.7-.5-.4-1 .3-.6.8-1 1.1-1 .2 0 .4.4.4 1zm22.5 3.2c.5-.4.5-.1.1.6s-.1 1.5.8 1.8c.9.3 1.6 1.1 1.6 1.6 0 .6-.6.5-1.5-.2-1-.9-1.5-.9-1.5-.1 0 .6.5 1.1 1.1 1.1.5 0 .7.6.3 1.2-.6 1-.4 1 .7 0 1.7-1.6 2.6-1.5 3.2.2.4 1 .1 1.3-.9.9-1.7-.6-1.9 1.3-.1 2.1.6.4.2.4-1 .2-1.3-.2-2.6 0-2.9.5-.3.5-.2.9.3.8 2.1-.4 2.2.3.4 2.2-1.1 1.2-2.4 1.8-3 1.4-.7-.3-1-.1-.9.6.2.6-.3 1.4-1.1 1.7-1 .3-1.2 0-.8-1.2.4-.9.3-1.5-.2-1.2-1.2.8-6.1-4-6.1-5.9 0-.9-.5-1.3-1.1-1-.6.4-.5-.2.2-1.3 1-1.7 1.6-1.8 2.7-.9 2.2 1.8 4.1 1.7 3.4-.1-.5-1.5-.4-1.5 1.3-.2 1.7 1.4 1.7 1.4.4-.8-1.6-2.5-3.6-2.4-3.1.3.2 1-.1 1.4-.7 1-1.3-.7-1.5-3.5-.3-3.5.5 0 2-.9 3.3-2.1 2.1-1.8 2.5-1.8 3.5-.5.6.9 1.5 1.2 1.9.8zm106.5-1.8c0 .2-.7.6-1.5 1-.8.3-1.5.1-1.5-.4 0-.6.7-1 1.5-1s1.5.2 1.5.4zm-89.4 19.9c.8-.3 1.4 0 1.4.5 0 1.6-1.8 2.4-2.5 1.2-.5-.7-1.1-.5-1.9.6-1 1.3-1.5 1.4-2.1.4-.5-.8-.4-1.1.3-.6.6.3 1.4-.4 1.8-1.6.4-1.3.9-1.8 1.1-1.1.2.7 1.1.9 1.9.6zm-25.1 14.8c-.6.9-3.5.1-3.5-1 0-.4.3-1.1.7-1.4.8-.9 3.4 1.3 2.8 2.4zM326 312c.6 1.1.8 2 .6 2-.3 0-1-.9-1.6-2-.6-1.1-.8-2-.6-2 .3 0 1 .9 1.6 2zm32 32c.6 1.1.8 2 .6 2-.3 0-1-.9-1.6-2-.6-1.1-.8-2-.6-2 .3 0 1 .9 1.6 2zM78.4 358.7c.6 1.5-1 1.8-1.9.3-.4-.6-1.1-.7-1.7-.4-.6.4-.8.3-.5-.3.9-1.4 3.5-1.2 4.1.4z"/><path d="M258.1 248.3c-.8 1.1-.6 1.8 1.1 3.3 2.2 1.9 2.2 1.9.8 0-1.4-1.8-1.3-1.9.5-1.3 1.8.7 1.9.6.3-.6-1-.8-1.5-1.7-1.1-2 .3-.4.4-.7.1-.7-.3 0-1.1.6-1.7 1.3zM252.8 257.7c.6.2.9 1 .6 1.5-.4.7-.2.8.5.4 1.3-.9.5-2.6-1.2-2.5-.9 0-.8.2.1.6zM225.6 62.9c-.4.5.3.7 1.4.4 2.3-.6 2.6-1.3.6-1.3-.8 0-1.7.4-2 .9zM287 66c0 .5.5 1 1 1 .6 0 1-.5 1-1 0-.6-.4-1-1-1-.5 0-1 .4-1 1zM231.5 69.1c-1.1 1.6-.1 1.9 1.3.3.7-.8.8-1.4.3-1.4s-1.3.5-1.6 1.1zM274.2 77.9c-1 .6-1 1 .2 2 1.1.9 1.6.9 2.2 0 .5-.8.3-.9-.6-.4-1 .6-1.2.4-.7-.8.7-1.9.7-2-1.1-.8zM253.6 89.9c-.4.5-.2 1.2.3 1.5.5.4 1.2.2 1.5-.3.4-.5.2-1.2-.3-1.5-.5-.4-1.2-.2-1.5.3zM265.5 90c-.3.5-.1 1 .4 1 .6 0 1.1-.5 1.1-1 0-.6-.2-1-.4-1-.3 0-.8.4-1.1 1zM262.1 91.6c0 1.1.3 1.4.6.6.3-.7.2-1.6-.1-1.9-.3-.4-.6.2-.5 1.3zM363.6 132.7c-.6 1.4-.5 1.5.5.6.7-.7 1-1.5.7-1.8-.3-.3-.9.2-1.2 1.2zM361.5 142c.3.5.8 1 1.1 1 .2 0 .4-.5.4-1 0-.6-.5-1-1.1-1-.5 0-.7.4-.4 1zM358.8 147.7c.6.2.9 1 .6 1.5-.4.7-.2.8.5.4 1.3-.9.5-2.6-1.2-2.5-.9 0-.8.2.1.6zM351.6 152.9c-1.2 1.3-1.4 2.1-.6 2.6.6.4 1.4.4 1.7.1.4-.3.1-.6-.6-.6s-.9-.5-.6-1c.4-.6 1.1-.7 1.7-.4.7.5.8.2.3-.6-.6-1-.4-1.2.9-.7 1 .4 1.5.3 1.1-.3-.9-1.5-2-1.2-3.9.9zM165.6 155.7c-.6 1.4-.5 1.5.5.6.7-.7 1-1.5.7-1.8-.3-.3-.9.2-1.2 1.2zM347.5 157.3c-2.2 1.3-3.1 3.7-1.5 3.7.6 0 1-.7 1-1.6 0-.8.4-1.3.9-1 .5.3 1.1-.1 1.5-.9.6-1.8.7-1.8-1.9-.2zM61.6 160.3c.3 1 .9 1.5 1.2 1.2.3-.3 0-1.1-.7-1.8-1-.9-1.1-.8-.5.6zM343 162c0 .5.5 1 1.1 1 .5 0 .7-.5.4-1-.3-.6-.8-1-1.1-1-.2 0-.4.4-.4 1zM171.5 163c-.3.6.1.7.9.4 1.8-.7 2.1-1.4.7-1.4-.6 0-1.3.4-1.6 1zM175 163.9c0 .5.5 1.3 1 1.6.6.3 1 .2 1-.4 0-.5-.4-1.3-1-1.6-.5-.3-1-.2-1 .4zM451.4 164.4c.1.8.5 1.8.8 2.2.4.3.5-.1.4-1-.1-.8-.5-1.8-.8-2.2-.4-.3-.5.1-.4 1zM337.7 166.4c-.4 1.1-.1 1.3 1 .9 1-.4 1.4-.2 1 .4-.3.5 0 1 .8 1 1.3 0 1.2-.4-.2-1.9-1.9-2.2-1.9-2.2-2.6-.4zM447 168c0 .5.5 1 1.1 1 .5 0 .7-.5.4-1-.3-.6-.8-1-1.1-1-.2 0-.4.4-.4 1zM180.6 169.3c.3 1 .9 1.5 1.2 1.2.3-.3 0-1.1-.7-1.8-1-.9-1.1-.8-.5.6zM335 169.9c0 .6.5 1.3 1.2 1.7.6.4.8.3.4-.4-.3-.5 0-1.3.6-1.5.8-.3.6-.6-.4-.6-1-.1-1.8.3-1.8.8zM444.1 169.9c-.9.6-1 1.1-.2 1.5.6.4 1.1.2 1.1-.4 0-.6.5-.8 1.2-.4s.8.3.4-.4c-.8-1.4-.7-1.4-2.5-.3zM183.8 173.7c.7.3 1.6.2 1.9-.1.4-.3-.2-.6-1.3-.5-1.1 0-1.4.3-.6.6zM328 176.3c-1.3 1.8-1.8 2.6-.9 2 .9-.7 1.9-.9 2.3-.5.4.4.6 0 .4-.8-.2-.9.4-1.4 1.5-1.4 1.4.2 1.5-.1.6-1.2-1.4-1.7-.9-1.9-3.9 1.9zM78 176.4c0 .2.7.7 1.6 1 .8.3 1.2.2.9-.4-.6-1-2.5-1.4-2.5-.6zM192 179.9c0 .6.4 1.3 1 1.6.6.3.7-.1.4-.9-.7-1.8-1.4-2.1-1.4-.7zM434.1 180.4c-.8 1-.9 1.6-.1 2.1.6.4.9.1.8-.7-.2-.7.3-1.2 1-1 .8.1 1.1-.2.7-.8-.8-1.3-1-1.3-2.4.4zM191.5 184c-.3.5-.1 1 .4 1 .6 0 1.1-.5 1.1-1 0-.6-.2-1-.4-1-.3 0-.8.4-1.1 1zM85.5 185c-.3.5-.1 1 .4 1 .6 0 1.1-.5 1.1-1 0-.6-.2-1-.4-1-.3 0-.8.4-1.1 1zM428.1 186.4c-.8 1-.9 1.6-.1 2.1.6.4.9.1.8-.7-.2-.7.3-1.2 1-1 .8.1 1.1-.2.7-.8-.8-1.3-1-1.3-2.4.4zM93.5 191c.6 1 .4 1.2-1.1.6s-1.7-.5-.6.5c.9.9 1.5 1 2.3.2.8-.8.7-1.3-.2-1.8-.8-.6-1-.4-.4.5zM201.7 191.3c-.3.8.1 1.4.8 1.4.7 0 1.1-.6.8-1.4-.3-.7-.6-1.3-.8-1.3-.2 0-.5.6-.8 1.3zM313.7 190.7c-1 .9-.9 2.3.1 2.3.5 0 .9-.7.9-1.5 0-1.7-.1-1.8-1-.8zM316.6 192.2c.3.5 1 .6 1.5.3 1.3-.9 1.1-1.2-.6-1.2-.8 0-1.2.4-.9.9zM311 194c0 .5.5 1 1.1 1 .5 0 .7-.5.4-1-.3-.6-.8-1-1.1-1-.2 0-.4.4-.4 1zM420.1 193.9c-.9.6-1 1.1-.2 1.5.6.4 1.1.2 1.1-.4 0-.6.5-.8 1.2-.4s.8.3.4-.4c-.8-1.4-.7-1.4-2.5-.3zM203.5 195c-.3.6.1.7.9.4 1.8-.7 2.1-1.4.7-1.4-.6 0-1.3.4-1.6 1zM98.2 195.4c.4.5.3 1.5-.3 2.2-.7.9-.6 1.2.5 1 2.5-.3 2.8-1.2.9-2.7-1-.7-1.5-.9-1.1-.5zM207 195.9c0 .5.5 1.3 1 1.6.6.3 1 .2 1-.4 0-.5-.4-1.3-1-1.6-.5-.3-1-.2-1 .4zM305.7 198.4c-.4 1.1-.1 1.3 1 .9 1-.4 1.4-.2 1 .4-.3.5 0 1 .8 1 1.3 0 1.2-.4-.2-1.9-1.9-2.2-1.9-2.2-2.6-.4zM101.3 201.1c-.2 2.3.3 2.5 1 .4.4-.8.3-1.6-.1-1.9-.4-.3-.9.4-.9 1.5zM212.6 201.3c.3 1 .9 1.5 1.2 1.2.3-.3 0-1.1-.7-1.8-1-.9-1.1-.8-.5.6zM303 201.9c0 .6.5 1.3 1.2 1.7.6.4.8.3.4-.4-.3-.5 0-1.3.6-1.5.8-.3.6-.6-.4-.6-1-.1-1.8.3-1.8.8zM301.3 204.5c0 .8.4 1.2.9.9.5-.3.6-1 .3-1.5-.9-1.3-1.2-1.1-1.2.6zM215.8 205.7c.7.3 1.6.2 1.9-.1.4-.3-.2-.6-1.3-.5-1.1 0-1.4.3-.6.6zM296 208.3c-1.3 1.8-1.8 2.6-.9 2 .9-.7 1.9-.9 2.3-.5.4.4.6 0 .4-.8-.2-.9.4-1.4 1.5-1.4 1.4.2 1.5-.1.6-1.2-1.4-1.7-.9-1.9-3.9 1.9zM107 208c0 .5.5 1 1 1 .6 0 1-.5 1-1 0-.6-.4-1-1-1-.5 0-1 .4-1 1zM110 208.4c0 .2.7.7 1.6 1 .8.3 1.2.2.9-.4-.6-1-2.5-1.4-2.5-.6zM224 211.9c0 .6.4 1.3 1 1.6.6.3.7-.1.4-.9-.7-1.8-1.4-2.1-1.4-.7zM400.5 213.9c-1.1 1.6-1.3 2.1-.4 1.4.9-.7 2-.9 2.4-.5.5.4.5.2.2-.5-.4-.6-.2-1.3.5-1.5.7-.3.8-.7.3-1-.6-.3-1.9.6-3 2.1zM224 216c-.9.6-1 1-.3 1 .6 0 1.5-.5 1.8-1 .8-1.2.4-1.2-1.5 0zM117.5 217c-.3.5-.1 1 .4 1 .6 0 1.1-.5 1.1-1 0-.6-.2-1-.4-1-.3 0-.8.4-1.1 1zM287 218c0 .5.5 1 1.1 1 .5 0 .7-.5.4-1-.3-.6-.8-1-1.1-1-.2 0-.4.4-.4 1zM56.2 221c-1.2 1-1.8 2.1-1.4 2.5.4.5-.1.5-1.1.2-1.1-.4-1.6-.3-1.2.3.3.6.1 1-.5 1s-.8.5-.4 1.2c.5.8.2.9-.9.5-1-.4-1.6-.2-1.4.6.1.7-.4 1.1-1.1.9-.8-.1-1.1.2-.8.7.3.5-1.4 2.7-3.9 4.9-2.4 2.2-4.1 4.3-3.7 4.7.4.5-.1.5-1 .2-1.3-.4-1.5-.2-1.1 1 .4 1.1.2 1.4-.5.9-.7-.4-1.2-.1-1.2.9 0 .9-.4 1.3-1 1-.5-.3-1-.1-1 .5s-.5.8-1 .5c-.6-.4-.9-.1-.8.7.2.7-.2 1.2-.9 1.1-.8-.2-1 .4-.6 1.4.4.9.2 1.4-.3 1.1-1.1-.6-4.5 2.8-3.6 3.6.3.3 0 .6-.7.6s-1.9.7-2.7 1.4c-1.2 1.3-.7 2.3 4.3 7.7 3.2 3.4 5.7 6.6 5.5 7.1-.1.4.5.8 1.3.8.7 0 1.8.6 2.2 1.4.4.8 1.3 1.6 1.8 1.7.6.2.9 1 .7 1.7-.2.8.1 1.1.7.8.5-.4 1.2-.2 1.5.3.4.5.1 1.3-.5 1.7-.8.5-.9.3-.4-.7.5-.8.4-1 0-.6-1.3 1.2-1.5 3.6-.3 4.4.7.3.8.1.4-.5-.3-.6.2-1.5 1.2-2.1 1.6-.8 1.8-.6 1.6 2-.1 1.6.2 2.6.7 2.3.5-.3 1.4.5 1.9 1.8 1.1 2.3 1.1 2.3.6 0-.5-2.7-.1-2.8 2.5-.3 1.2 1.1 1.8 2.4 1.5 3-.4.5.3 1.6 1.4 2.4 1.1.7 1.8 1.6 1.5 1.8-.2.3.4.6 1.3.7 3.2.3 4.7.8 6.2 1.7 1.2.7 1.3.6.3-.7-1.3-1.5-.8-2.8.9-2.8.5 0 .6.5.2 1.2-.4.7-.3.8.5.4.9-.6.9-1.1 0-2.2-1-1.2-.9-1.3.4-.9.8.4 1.8.1 2.3-.6.5-.8.3-1-.6-.4-.9.5-1.1.4-.6-.4.4-.6 1.2-.9 1.7-.6.5.4.9.1.9-.5s.4-.9.8-.6c.4.2 1.4 0 2.2-.6 1.2-.8 1.2-.9-.2-.4-1 .3-2 .1-2.3-.4-.4-.6 0-1 .7-1s2.6-1.6 4.1-3.6c1.7-2 3.5-3.3 4.2-3 1 .3 1.2 0 .8-1.1-.4-1.1-.2-1.4.5-.9.8.4 1.2 0 1.2-1.1.1-1.7.2-1.7 1.5.1 1.7 2.2 2 1.4.5-1.4-.8-1.6-.6-1.8 1.5-1.5 2.2.2 2.3 0 1.3-1.3-1.1-1.3-1-1.5.4-.9 1.3.4 1.5.2 1.1-1-.5-1.2-.3-1.4.7-.8 1 .6 1.2.4.7-.8-.3-.9-.3-1.6.1-1.6 2.1.3 3.2-.2 2.6-1.3-.4-.7-.3-.8.4-.4s1.2.1 1.2-.8c0-.8.7-1.9 1.6-2.4 3-1.7 2.2-4.5-2.7-9.2-2.7-2.6-4.5-5-4.1-5.4.3-.4-.1-.4-1.1 0-1.1.4-1.7.1-1.7-.8 0-.7-.9-2-1.9-2.8-1.1-.7-1.8-1.7-1.5-2.2.3-.4-.2-.5-1-.2-1 .4-1.6.1-1.6-.7 0-.8-1.4-2.3-3-3.4s-3-2.5-3-3c0-.6-1.4-2.1-3-3.4-1.6-1.3-2.7-2.7-2.4-3.2.3-.5.2-.9-.3-.8-1.8.3-3.4-.1-2.9-.9.2-.4-.6-1.2-1.8-1.8-1.8-.8-2.7-.7-4.4.6zM46 280.1c0 .6-.4.7-1 .4-.5-.3-1-1.1-1-1.6 0-.6.5-.7 1-.4.6.3 1 1.1 1 1.6zm8.7 7.9c1.4 1.1 2.2 2 1.7 2-1.2-.1-6.1-3.9-5.1-4 .5 0 2 .9 3.4 2zM394.1 220.4c-.8 1-.9 1.6-.1 2.1.6.4.9.1.8-.7-.2-.7.3-1.2 1-1 .8.1 1.1-.2.7-.8-.8-1.3-1-1.3-2.4.4zM455.8 221.4c-1.4 1.4-2.9 2.2-3.3 1.8-.4-.4-.5-.2-.3.4.5 1.6-8.1 9.6-9.4 8.8-.7-.5-.8-.3-.3.6.5.9-.9 2.9-4.5 6.1-2.8 2.7-5.6 4.9-6.1 4.9s-.8.6-.6 1.2c.1.7-.6 1.2-1.5 1.2-1-.1-1.5.2-1.2.7.6 1-5.2 7-6 6.2-.3-.3-.3.5-.1 1.8.3 1.3 1.4 3.1 2.6 4 1.2.9 1.9 2.1 1.5 2.8-.4.6-.1 1.1.8 1.1 1.9 0 2.1 1.6.4 2.4-.7.3-.3.3 1 0 1.6-.4 3 .2 4.9 2 1.4 1.4 2.3 2.6 1.9 2.6-.4 0-.1.6.6 1.4.7.8 1.6 1.2 2 .9.4-.2.5.3.2 1.2-.5 1.1-.2 1.4 1 .9.9-.3 1.6-.2 1.6.3 0 1.4 4 5.4 4.9 4.9.4-.3.8.1.8.9 0 1.2-.3 1.2-1.6.2-1.4-1-1.4-1-.4.4.7.9 1 1.8.8 2.1-.3.3.7.3 2.2.1 2.6-.4 2.7-.3 1 1-1.6 1.3-1.6 1.5-.2 2.1.9.3 1.3.2 1-.4-.9-1.5.8-1.2 3.3.6 2.3 1.6 3.2 6.1 1 4.8-.8-.4-.9-.3-.5.2.5.5 1.6.9 2.5.9.9 0 1.6.6 1.4 1.3-.1.8.2 1.1.8.7.8-.5.5-1.4-.7-2.8-1.7-2-1.7-2 .1-1 1.6.9 2.3.6 3.9-1.3 1-1.3 2.5-2.4 3.3-2.4.9 0 1.2-.5.8-1.2-.4-.7-.3-.8.4-.4s1.2.1 1.2-.8c0-.8 1.6-2.8 3.5-4.3s3.5-3.4 3.5-4.1c0-.7.4-1.1 1-.7.5.3.7 1.3.4 2.3-.5 1.4-.4 1.4.4.2.6-.8.8-1.8.6-2.2-.3-.4 0-.8.6-.8s.8-.5.4-1.2c-.5-.7-.3-.8.6-.3 1 .6 1.2.4.7-.8-.3-.9-.3-1.6.1-1.6 2.1.3 3.2-.2 2.6-1.3-.4-.7-.3-.8.4-.4s1.2.1 1.2-.8c0-.8 1.5-2.7 3.3-4.2 1.7-1.5 3.1-3.1 3-3.5-.2-.5.5-.5 1.4-.2 1 .4 1.4.2 1-.4-.4-.6.1-1.7 1-2.4 1.4-1.2 1.6-1.2.8.1-.4.8-.4 1.2 0 .7 2.4-2.1.9-4.7-7.6-13-4.9-4.8-8.9-9.3-8.9-9.9 0-.6-.3-.8-.6-.5-1 1-4.5-3.4-3.7-4.6.3-.6.1-.7-.6-.3-.7.4-3.5-1.7-7-5.3-3.3-3.4-6.1-6.1-6.3-6.1-.2 0-1.5 1.1-3 2.4zM282 221.4c0 .4.7 1.4 1.5 2.2.8.9 1.5 1.1 1.5.6 0-.5-.7-1.5-1.5-2.2-.8-.7-1.5-.9-1.5-.6zM125.6 223.3c.2.7 1.4 1.9 2.7 2.6 2.1 1.3 2.1 1.2-.2-1.3-2.7-2.9-3.3-3.2-2.5-1.3zM123 223.9c0 .6.4 1.3 1 1.6.6.3.7-.1.4-.9-.7-1.8-1.4-2.1-1.4-.7zM127.3 228.5c0 .8.4 1.2.9.9.5-.3.6-1 .3-1.5-.9-1.3-1.2-1.1-1.2.6zM240 227.9c0 .6.4 1.3 1 1.6.6.3.7-.1.4-.9-.7-1.8-1.4-2.1-1.4-.7zM253 228c0 .5.5 1 1.1 1 .5 0 .7-.5.4-1-.3-.6-.8-1-1.1-1-.2 0-.4.4-.4 1zM275.5 228c-.3.5-.1 1 .4 1 .6 0 1.1-.5 1.1-1 0-.6-.2-1-.4-1-.3 0-.8.4-1.1 1zM385 229.5c-1.3 1.4-1.8 2.5-1.2 2.5.7 0 1.2-.5 1.2-1.1 0-.5.5-.7 1-.4.6.4.9.1.8-.7-.2-.7.3-1.2 1-1 .8.1 1.1-.2.7-.8-.8-1.3-.8-1.4-3.5 1.5zM277.9 229.2c-.5 1.8-.6 3.8-.1 3.4.7-.8 1.2-3.6.6-3.6-.2 0-.4.1-.5.2zM243.5 235c-.3.6.1.7.9.4 1.8-.7 2.1-1.4.7-1.4-.6 0-1.3.4-1.6 1zM246 236c-.9.6-1 1-.3 1 .6 0 1.5-.5 1.8-1 .8-1.2.4-1.2-1.5 0zM139.6 238.6c.7 3.6 1 4 1.7 1.5.3-1.1-.1-2.5-.9-3.1-1-.9-1.2-.6-.8 1.6zM379 238.2c0 .4.4.8.9.8.6 0 1.2-.4 1.5-.8.3-.5-.1-.9-.9-.9s-1.5.4-1.5.9zM371.3 245.5c0 .8.4 1.2.9.9.5-.3.6-1 .3-1.5-.9-1.3-1.2-1.1-1.2.6zM147.7 247.5c.3.8.9 1.2 1.4.9 1.2-.7 1.1-1.1-.5-1.7-1-.4-1.3-.1-.9.8zM159.5 250.8c-2.8 2.3-2.8 2.4-.3.9s2.7-1.5 3.1.1c.4 1.5.5 1.5.6-.2.1-1.5.4-1.6 1.6-.6 1.3 1.1 1.4 1 .9-.3-1-2.6-2.8-2.6-5.9.1zM234 249.5c-.7.8-1.9 1.5-2.6 1.5-.8 0-1.4.5-1.4 1 0 .7.6.7 1.8.1 1.9-1 4.9-4.1 3.9-4.1-.2 0-1 .7-1.7 1.5zM286 249.4c1.4 1.8 1.3 1.9-.5 1.2-1.6-.6-1.8-.5-.7.5 1 1.1 1.5 1 2.5-.1.7-.8 1.1-1.4.8-1.3-.2.2-1.1-.3-2-1-1.4-1.1-1.5-1-.1.7zM341.5 249c-.3.6-1.2.7-1.8.3-.7-.3-.3.3.7 1.5 2.2 2.5 2.7 2.7 2.4 1-.3-1.4 8.6-1.9 11.3-.6 1.1.5 2.1.2 3-1 1.1-1.4 1.1-1.5-.1-.5-.7.7-2 .9-2.9.4-.9-.4-3.4-.7-5.6-.6-2.2.1-4.5-.3-5.2-.7-.6-.5-1.4-.5-1.8.2zM173.5 250.1c.3.4 1.3.6 2.3.5.9-.2 2 .4 2.4 1.3.6 1.3.7 1.2.5-.3-.1-1.4-1-2-2.9-2.1-1.5-.1-2.5.2-2.3.6zM297.6 249.9c.3.3 1.9.6 3.5.7 1.6.1 2.7-.2 2.3-.5-.3-.3-1.9-.6-3.5-.7-1.6 0-2.6.2-2.3.5zM308.5 250.1c-.4.6-.5 1.2-.2 1.5.2.3.7-.2 1-1.1.7-1.7.1-2-.8-.4zM171.5 252c.3.5.8 1 1.1 1 .2 0 .4-.5.4-1 0-.6-.5-1-1.1-1-.5 0-.7.4-.4 1zM187.5 252c.3.5.8 1 1.1 1 .2 0 .4-.5.4-1 0-.6-.5-1-1.1-1-.5 0-.7.4-.4 1zM203.5 252c.3.5.8 1 1.1 1 .2 0 .4-.5.4-1 0-.6-.5-1-1.1-1-.5 0-.7.4-.4 1zM219.5 252c.3.5.8 1 1.1 1 .2 0 .4-.5.4-1 0-.6-.5-1-1.1-1-.5 0-.7.4-.4 1zM283.6 260.5c-.3.8-.1 1.5.4 1.5.6 0 1-.7 1-1.5s-.2-1.5-.4-1.5-.6.7-1 1.5z"/><path d="M23.5 261c-.4.6.1.7 1.1.3 1.2-.4 1.5-.3 1 .6-.4.6-.4 1.1.1 1 2-.4 2.7.2 1.3 1.2-1.3.9-1.2 1 .2.5 2.6-.8 3.2 1.2 1.1 3.7-1.8 2.2-1.8 2.2.3.4 2.3-1.9 3.9-2.3 2.8-.5-.5.7-.3.8.5.3.9-.5.2-1.8-2.5-4.6-4-4.1-4.9-4.5-5.9-2.9zM231 260.4c0 .2.7.7 1.6 1 .8.3 1.2.2.9-.4-.6-1-2.5-1.4-2.5-.6zM91 264.1c0 .5.5.7 1 .4.6-.3 1-.8 1-1.1 0-.2-.4-.4-1-.4-.5 0-1 .5-1 1.1zM489 263.9c0 .6.4 1.3 1 1.6.6.3.7-.1.4-.9-.7-1.8-1.4-2.1-1.4-.7zM485.6 265.9c-1.3 1.4-1.4 2.1-.5 2.7.8.5 1 .3.4-.6-.6-1-.4-1.2.8-.7.9.3 1.9.1 2.3-.5.5-.7.2-.8-.6-.3-1 .6-1.2.4-.7-.8.8-2.2.4-2.1-1.7.2zM430.5 267c-.4.6-1.2.7-1.8.4-.7-.4-.8-.3-.4.1.4.5 1.3 1 2 1.1.7.1 2.1.5 3.2.9 1.6.5 1.5.4-.3-.7-1.2-.8-1.9-1.7-1.6-2.1.4-.4.5-.7.1-.7-.3 0-.9.5-1.2 1zM236.2 269.1c-.9 1.3-.7 2 .6 3.1 1.5 1.1 1.5 1.1.5-.3-1.3-1.6-.8-2.9.9-2.9.5 0 .6.4.3 1-.4.6.1.7 1.1.3 1.1-.4 1.3-.8.6-1.1-.7-.2-1-.7-.8-1.1.3-.4-.1-.8-.8-.8-.7 0-1.8.8-2.4 1.8zM35 271.1c0 2 2.7 3.3 3.6 1.7.4-.6.3-.8-.4-.4-.6.3-1.5-.2-2.1-1.1-.9-1.6-1-1.6-1.1-.2zM282.1 271.6c0 1.1.3 1.4.6.6.3-.7.2-1.6-.1-1.9-.3-.4-.6.2-.5 1.3zM233 272c0 .5.5 1 1.1 1 .5 0 .7-.5.4-1-.3-.6-.8-1-1.1-1-.2 0-.4.4-.4 1zM243.4 272.1c-.4.7-.3 1 .4.5.6-.3 1.3-.2 1.6.3.4.5-.2 1.1-1.1 1.3-1.5.3-1.4.5.4 1 3 .8 3.7-.5 1.4-2.6-1.4-1.3-2.1-1.4-2.7-.5zM433 271.8c0 .5.7.9 1.5.9s1.2-.4.9-.9c-.3-.4-.9-.8-1.5-.8-.5 0-.9.4-.9.8zM271.1 276.7c.6.7 1.7 1.3 2.3 1.2.7 0 .6-.2-.2-.6-.6-.2-1-.8-.8-1.2.3-.4-.1-.8-.9-.8-1.1 0-1.2.4-.4 1.4zM73.7 277.8c-1.5 1.6-1.5 1.8.2 1.8 1.2 0 1.7-.5 1.3-1.5-.4-1-.1-1.2.8-.6.9.5 1.1.4.6-.3-.9-1.5-1-1.5-2.9.6zM437.5 277c-.3.6.1.7.9.4 1.8-.7 2.1-1.4.7-1.4-.6 0-1.3.4-1.6 1zM224 280.3c-1.3 1.8-1.8 2.6-.9 2 .9-.7 1.9-.9 2.3-.5.4.4.6 0 .4-.8-.2-.9.4-1.4 1.5-1.4 1.4.2 1.5-.1.6-1.2-1.4-1.7-.9-1.9-3.9 1.9zM477.6 278.7c-.6 1.4-.5 1.5.5.6.7-.7 1-1.5.7-1.8-.3-.3-.9.2-1.2 1.2zM290.1 279.6c0 1.1.3 1.4.6.6.3-.7.2-1.6-.1-1.9-.3-.4-.6.2-.5 1.3zM441.3 280.5c0 .8.4 1.2.9.9.5-.3.6-1 .3-1.5-.9-1.3-1.2-1.1-1.2.6zM473 279.9c0 .6.4 1.3 1 1.6.6.3.7-.1.4-.9-.7-1.8-1.4-2.1-1.4-.7zM469.6 281.9c-2.1 2.4-.6 3.6 2 1.6 1.8-1.5 1.8-1.5-.1-.8-1.8.6-1.8.5-.6-1 1.9-2.3.8-2.2-1.3.2zM71 281.5c0 .7 3 1.3 3.4.7.3-.4-.4-.9-1.5-.9-1-.1-1.9 0-1.9.2zM291.5 283.1c-.4.6-.5 1.2-.2 1.5.2.3.7-.2 1-1.1.7-1.7.1-2-.8-.4zM48 285.5c-.7.9-.8 1.5-.2 1.5.5 0 1.2-.7 1.6-1.5.3-.8.4-1.5.2-1.5s-.9.7-1.6 1.5zM49.6 289.3c.3 1 .9 1.5 1.2 1.2.3-.3 0-1.1-.7-1.8-1-.9-1.1-.8-.5.6zM462.6 288.9c-.3.4.2 1.7 1 2.7.9 1 1.2 1.3.8.5-.3-.7-.1-1.7.6-2.1.8-.5.8-.9-.4-1.3-.8-.3-1.8-.2-2 .2zM65 290.1c0 .5.5.7 1 .4.6-.3 1-.8 1-1.1 0-.2-.4-.4-1-.4-.5 0-1 .5-1 1.1zM215 290c0 .5.5 1 1.1 1 .5 0 .7-.5.4-1-.3-.6-.8-1-1.1-1-.2 0-.4.4-.4 1zM450.8 289.7c.6.2 1.8.2 2.5 0 .6-.3.1-.5-1.3-.5-1.4 0-1.9.2-1.2.5zM299.5 291c-.3.6.1.7.9.4 1.8-.7 2.1-1.4.7-1.4-.6 0-1.3.4-1.6 1zM254 291.4c0 .2.8 1 1.8 1.7 1.5 1.3 1.6 1.2.3-.4s-2.1-2.1-2.1-1.3zM303 291.9c0 .5.5 1.3 1 1.6.6.3 1 .2 1-.4 0-.5-.4-1.3-1-1.6-.5-.3-1-.2-1 .4zM209.7 294.4c-.4 1.1-.1 1.3 1 .9 1-.4 1.4-.2 1 .4-.3.5 0 1 .8 1 1.3 0 1.2-.4-.2-1.9-1.9-2.2-1.9-2.2-2.6-.4zM308.6 297.3c.3 1 .9 1.5 1.2 1.2.3-.3 0-1.1-.7-1.8-1-.9-1.1-.8-.5.6zM207 297.9c0 .6.5 1.3 1.2 1.7.6.4.8.3.4-.4-.3-.5 0-1.3.6-1.5.8-.3.6-.6-.4-.6-1-.1-1.8.3-1.8.8zM311.8 301.7c.7.3 1.6.2 1.9-.1.4-.3-.2-.6-1.3-.5-1.1 0-1.4.3-.6.6zM196.5 308.7c-1.1 2.4-1.7 5.8-.9 5.1.3-.3.6-1.2.8-2 .1-.7.5-1.9 1-2.6.4-.7.6-1.5.3-1.8-.2-.3-.8.3-1.2 1.3zM320 307.9c0 .6.4 1.3 1 1.6.6.3.7-.1.4-.9-.7-1.8-1.4-2.1-1.4-.7zM319.5 312c-.3.5-.1 1 .4 1 .6 0 1.1-.5 1.1-1 0-.6-.2-1-.4-1-.3 0-.8.4-1.1 1zM187.6 317.3c-2.5 2-2.7 2.6-1.7 4.3 1.1 1.8 1.2 1.8.6-.3-.5-1.8-.1-2.5 1.9-3.5 1.4-.6 2.6-1.5 2.6-2 0-1.1-.1-1.1-3.4 1.5zM329.7 319.3c-.3.8.1 1.4.8 1.4.7 0 1.1-.6.8-1.4-.3-.7-.6-1.3-.8-1.3-.2 0-.5.6-.8 1.3zM182.6 323.2c.3.5 1 .6 1.5.3 1.3-.9 1.1-1.2-.6-1.2-.8 0-1.2.4-.9.9zM331.5 323c-.3.6.1.7.9.4 1.8-.7 2.1-1.4.7-1.4-.6 0-1.3.4-1.6 1zM335 323.9c0 .5.5 1.3 1 1.6.6.3 1 .2 1-.4 0-.5-.4-1.3-1-1.6-.5-.3-1-.2-1 .4zM263.5 325.9c-.3.5-.2 1.2.3 1.5.5.3.9-.1.9-.9 0-1.7-.3-1.9-1.2-.6zM340.6 329.3c.3 1 .9 1.5 1.2 1.2.3-.3 0-1.1-.7-1.8-1-.9-1.1-.8-.5.6zM174.7 331.1c.7.7 1.5 1 1.8.7.3-.3-.2-.9-1.2-1.2-1.4-.6-1.5-.5-.6.5zM343.8 333.7c.7.3 1.6.2 1.9-.1.4-.3-.2-.6-1.3-.5-1.1 0-1.4.3-.6.6zM170.7 338.1c.7.7 1.5 1 1.8.7.3-.3-.2-.9-1.2-1.2-1.4-.6-1.5-.5-.6.5zM167 339.1c0 .5.5.7 1 .4.6-.3 1-.8 1-1.1 0-.2-.4-.4-1-.4-.5 0-1 .5-1 1.1zM352 339.9c0 .6.4 1.3 1 1.6.6.3.7-.1.4-.9-.7-1.8-1.4-2.1-1.4-.7zM165.4 342.5c-.4.8-1.1 1.2-1.7.8-.6-.3-.7-.1-.3.5 1 1.6 1.4 1.5 2.6-.8.6-1.1.8-2 .5-2-.3 0-.8.7-1.1 1.5zM150.3 355.5c0 .8.4 1.2.9.9.5-.3.6-1 .3-1.5-.9-1.3-1.2-1.1-1.2.6zM365.6 355.7c-.6 1.4-.5 1.5.5.6.7-.7 1-1.5.7-1.8-.3-.3-.9.2-1.2 1.2zM153.6 356.2c.3.5 1 .6 1.5.3 1.3-.9 1.1-1.2-.6-1.2-.8 0-1.2.4-.9.9zM68.3 359.8c1 1 1.4 2.2 1 2.7-.5.4-.2.5.4.1 1-.5 1-1.1 0-2.6-.6-1.1-1.6-2-2.1-2s-.2.8.7 1.8zM88.3 359.5c0 .8.4 1.5.9 1.5.4 0 .8-.4.8-.9 0-.6-.4-1.2-.8-1.5-.5-.3-.9.1-.9.9zM93.7 359.7c.5 1.3 3.3 2.7 3.2 1.5-.3-1.9.2-2.5 1.1-1.2.8 1.3 1 1.3 1-.1 0-1.2-.8-1.6-2.9-1.5-1.8 0-2.7.5-2.4 1.3zM105.6 359.5c.4.8.8 1.5 1 1.5.2 0 .4-.7.4-1.5s-.4-1.5-1-1.5c-.5 0-.7.7-.4 1.5zM113.6 359.5c.4.8.8 1.5 1 1.5.2 0 .4-.7.4-1.5s-.4-1.5-1-1.5c-.5 0-.7.7-.4 1.5zM121.6 359.5c.4.8.8 1.5 1 1.5.2 0 .4-.7.4-1.5s-.4-1.5-1-1.5c-.5 0-.7.7-.4 1.5zM129.6 359.5c.4.8.8 1.5 1 1.5.2 0 .4-.7.4-1.5s-.4-1.5-1-1.5c-.5 0-.7.7-.4 1.5zM132.5 359.1c-.4.5-.4 1.3-.1 1.6.3.4.6 0 .7-.8 0-.8.4-.6.9.6.7 1.6.9 1.7.9.3.1-2.1-1.5-3.2-2.4-1.7zM382.2 359.3c-.8 1-.6 1.3 1.1 1.4 1.2 0 1.6-.1.9-.4-.6-.3-1-.9-.6-1.4.8-1.4-.2-1.1-1.4.4zM421.5 359c-.3.5-.5 1-.3 1.1 3.3.8 3.8.7 2.7-.7-1.4-1.7-1.6-1.7-2.4-.4zM440.4 359.2c-.4.6-.2 1.4.4 1.6.7.2.9.9.6 1.4-.4.7-.2.8.5.4.9-.6.9-1.1-.1-2.4-1.1-1.3-1-1.5.5-.9 1.1.4 1.6.3 1.2-.3-.8-1.3-2.2-1.3-3.1.2zM445.5 358.9c-.3.6.5 1.5 1.7 2.2 1.3.6 2 .8 1.6.4-.4-.5-.2-1.5.4-2.4 1-1.3 1-1.4-.2-.4-1.7 1.5-3.4 1.7-2.5.3.3-.6.4-1 .1-1-.3 0-.7.4-1.1.9zM453.1 359.6c0 1.1.3 1.4.6.6.3-.7.2-1.6-.1-1.9-.3-.4-.6.2-.5 1.3zM406.6 359.9c-.4.5-.2 1.2.3 1.5.5.4 1.2.2 1.5-.3.4-.5.2-1.2-.3-1.5-.5-.4-1.2-.2-1.5.3zM251 362.1c0 .5.5.7 1 .4.6-.3 1-.8 1-1.1 0-.2-.4-.4-1-.4-.5 0-1 .5-1 1.1zM249.5 366c.3.5.8 1 1.1 1 .2 0 .4-.5.4-1 0-.6-.5-1-1.1-1-.5 0-.7.4-.4 1zM244.9 369.7c-1.3 1.4-1.7 2.2-.9 1.7.8-.5 2-.9 2.5-.9.6-.1.9-.7.7-1.4-.2-.9.3-1.1 1.3-.7.9.3 1.3.2 1-.4-1-1.6-2-1.2-4.6 1.7zM271 371.9c0 .5 1 .8 2.3.7 1.2 0 2.1.4 2 .9-.1.6.7 2.1 1.6 3.4 1.4 1.8 2 2.1 2.6 1.1.5-.9.4-1.1-.3-.6-.7.4-1.3.2-1.3-.3-.1-.6-.2-1.5-.3-2.1-.3-2.4-6.6-5.4-6.6-3.1zM243 374c0 .5.9.8 2 .7 2.1-.1 1.8-1-.5-1.3-.8-.1-1.5.2-1.5.6zM237.1 378.9c-.8.5-.9 1.1-.3 1.5.5.3 1.2-.1 1.6-.9.6-1.7.6-1.8-1.3-.6zM228.9 385.6c-1.3 1.4-1.7 2.3-.9 1.9 1.3-.5 4.6-4.5 3.7-4.5-.2 0-1.4 1.1-2.8 2.6zM283.6 386.2c.3.5 1 .6 1.5.3 1.3-.9 1.1-1.2-.6-1.2-.8 0-1.2.4-.9.9zM287.3 387.4c0 .7 1.1 1.2 2.4 1.2 1.5 0 2-.3 1.3-1-1.4-1.4-3.7-1.6-3.7-.2zM227 390c0 .5.9.8 2 .7 2.1-.1 1.8-1-.5-1.3-.8-.1-1.5.2-1.5.6zM363.5 390.9c-.3.5-.2 1.2.3 1.5.5.3.9-.1.9-.9 0-1.7-.3-1.9-1.2-.6zM293.4 395c0 1.3.4 1.6 1 1 .7-.7.7-1.3 0-2-.6-.6-1-.3-1 1zM221.1 394.9c-.8.5-.9 1.1-.3 1.5.5.3 1.2-.1 1.6-.9.6-1.7.6-1.8-1.3-.6zM300.5 399c-.4.6-1.1.7-1.7.4-.6-.4-.8-.2-.5.4.7 1 3.2 1.1 4.2 0 .4-.3.2-.9-.4-1.2-.5-.4-1.2-.2-1.6.4zM301.5 402.9c-.3.5-.2 1.2.3 1.5.5.3.9-.1.9-.9 0-1.7-.3-1.9-1.2-.6zM210.7 405.4c-.4 1-.1 1.3.8.9.8-.3 1.2-.9.9-1.4-.7-1.2-1.1-1.1-1.7.5zM204.4 410.2c-1 1.3-1.2 1.7-.4 1.1.8-.6 1.8-1.2 2.3-1.2.8-.1 1.1-1.1.4-1.7-.2-.2-1.2.6-2.3 1.8zM314.6 413c.5.8.9 2.1 1 2.8.2.8.5 1.7.8 2 .4.3.5-.4.3-1.6-.2-1.2-.9-2.8-1.7-3.5-1-1-1.1-.9-.4.3zM256.5 421c-1 1.2-2.5 1.8-3.2 1.5-.8-.2-1.1 0-.8.5.9 1.4-21.3 23.2-22.7 22.4-.7-.4-.8-.3-.4.4s-.9 2.7-2.9 4.6c-3.6 3.5-4.4 6.1-2.2 6.9.9.4.9.8-.2 1.5-.9.7-1 1.2-.2 1.6.6.4 1.1.2 1.1-.3 0-.6.5-1.1 1.1-1.1.6 0 .9.7.6 1.5-.4.8-.2 1.7.4 2 .5.4.7 1.1.4 1.6-.4.5-.1.9.4.9 1.3 0 1.4-1.2.4-2.6-.5-.5.2.1 1.5 1.3 1.3 1.3 2.7 2.3 3.2 2.3s.6.8.3 1.7c-.5 1.3-.2 1.5 1.2 1 1.6-.7 1.6-.5.4 1-.8.9-.9 1.4-.2 1 1.8-1.1 4.5.3 3.4 1.7-.7.8-.4 2.1 1 4.1 1.4 2.1 1.9 2.4 1.7 1.1-.2-1 .2-2.1.9-2.3.8-.3 1.1.3.8 1.7-.3 1.7-.1 1.9.9 1.1 1.6-1.4 2.7.7 2.1 3.9-.2 1.1 0 1.8.6 1.5.5-.4.7-1.1.4-1.6-.4-.5-.1-.9.4-.9.6 0 1.1.5 1.1 1.1 0 .5.5.7 1 .4.6-.3 1 .1 1 .9 0 1-.6 1.3-1.7 1-1.4-.5-1.5-.4-.4.4.7.5 2.3.8 3.5.5 2.1-.4 2.1-.4.1 1.2-2 1.7-2 1.7.3 1 1.4-.4 2.8-.1 3.8.9.8.9 1.2 1.6.7 1.6s-1.4-.5-2.1-1.2c-.9-.9-1.2-.9-1.2 0 0 .7 1.4 1.5 3 1.8 1.7.4 3 1.2 3 1.8 0 .6.5.4 1-.4.8-1.2 1-1.2 1-.1 0 .8.3 1.1.6.8.4-.4.1-1.5-.7-2.4-.7-1-.9-1.5-.5-1.1.5.4 1.9-.3 3.2-1.7l2.3-2.5 1.7 2.3c1.1 1.4 1.4 1.6 1.1.5-.4-1-.2-2 .2-2.3.5-.3.7-1.3.4-2.3-.6-2.3 2.1-4.6 4.4-3.8 1.4.6 1.5.4.7-.4-.9-.9-.3-2.1 2.2-4.7 3-3.1 3.7-3.3 5.2-2.2 1.4 1.1 1.5 1.1.5 0-.6-.7-.9-2-.6-2.7.8-2 2.3-1.7 1.7.3-.5 1.6-.4 1.6.6 0 .7-1 .9-2.1.6-2.4-.9-.9 2.4-4.3 4.1-4.3.8 0 1.2-.4.9-.9-.3-.4.4-1.7 1.5-2.7 1.7-1.5 2.3-1.6 4.2-.6 2.2 1.3 2.2 1.3-.1-.7-1.5-1.3-1.8-2.1-1-2.4.8-.2-.8-2.4-4-5.5-3.4-3.2-5.1-5.5-4.6-6.3.4-.7.3-.9-.3-.6-1.2.8-7.5-4.2-6.7-5.4.3-.5 0-.9-.6-.9-1.5 0-7.6-6.1-7.2-7.2.1-.4-.3-.8-.9-.8-.7 0-3.3-2.3-5.9-5-2.6-2.8-4.9-5-5.2-5-.3 0-1.3.9-2.3 2zM241 473.9c0 1.7-1.8 2.1-2.4.6-.3-.9 0-1.5.9-1.5.8 0 1.5.4 1.5.9zm27.5 10c.3.5.1 1.2-.5 1.6-.5.3-1-.1-1-.9 0-1.8.6-2.1 1.5-.7zM194.7 421.4c-.4 1-.1 1.3.8.9.8-.3 1.2-.9.9-1.4-.7-1.2-1.1-1.1-1.7.5zM323.4 421.2c.1.9.9 2.6 1.7 3.8 1.2 1.8 1.7 2.1 2.4 1 .5-.9.4-1.1-.3-.6-.7.4-1.3.2-1.3-.3-.1-.6-.2-1.5-.3-2.1 0-.5-.6-1.4-1.3-2.1-.9-.9-1.1-.8-.9.3zM189.6 424.9c-.4.5-.2 1.2.3 1.5.5.4 1.2.2 1.5-.3.4-.5.2-1.2-.3-1.5-.5-.4-1.2-.2-1.5.3zM334.6 432c.6.8 1 2.3.9 3.2-.2 1 .2 2.1.8 2.5.7.3.9.3.5-.2-.4-.4-.3-1.4.2-2 .7-.8.3-1.8-1.2-3.1-1.3-1-1.8-1.2-1.2-.4zM179 438c0 .5.9.8 2 .7 2.1-.1 1.8-1-.5-1.3-.8-.1-1.5.2-1.5.6zM340 442c-1.2.7-1 .9.7.7 1.2 0 1.9-.5 1.7-.9-.6-1-.6-1-2.4.2zM173.1 442.9c-.8.5-.9 1.1-.3 1.5.5.3 1.2-.1 1.6-.9.6-1.7.6-1.8-1.3-.6zM347.5 446c.6 2.9 1.1 3.4 1.8 1.6.3-.8 0-2-.8-2.6-1.2-1-1.3-.8-1 1zM165.6 451.8c-.2.4.4.8 1.5.8 1 0 1.9-.4 1.9-.8s-.6-.8-1.4-.8c-.8 0-1.7.4-2 .8z"/><path d="M291.1 460.3c-.8 1-.7 1.4.2 1.4.8 0 1.4-.6 1.4-1.4 0-.7-.1-1.3-.2-1.3-.2 0-.8.6-1.4 1.3zM285.9 465.8c-.8.9-.9 1.4-.5 1 .5-.4 1.6-.2 2.4.5 1.1.8 1.4.8.9 0-.4-.6-.2-1.3.5-1.5.8-.3.6-.7-.4-1.1-1-.3-2.2.1-2.9 1.1zM229.7 467.1c.7.7 1.5 1 1.8.7.3-.3-.2-.9-1.2-1.2-1.4-.6-1.5-.5-.6.5zM286.7 470.1c.7.7 1.5 1 1.8.7.3-.3-.2-.9-1.2-1.2-1.4-.6-1.5-.5-.6.5zM277.1 475.4c-1.5 1.6-1.9 2.6-1.2 3.1.7.4 1 .1.9-.7-.2-.7.3-1.2 1-1.1.6.2 1.1-.3 1-1-.2-.6.3-1.1 1-1 .6.2 1.2-.2 1.2-.7 0-1.7-1.5-1.1-3.9 1.4zM270.5 481c-.8 1.3.3 3 1.8 2.9.9 0 .9-.2 0-.6-.7-.2-1.3-.9-1.3-1.5s.7-.7 1.6-.4c.8.3 1.2.2.9-.4-.8-1.3-2.2-1.3-3 0zM265.1 488.6c0 1.1.3 1.4.6.6.3-.7.2-1.6-.1-1.9-.3-.4-.6.2-.5 1.3zM263 489.9c0 .6.4 1.3 1 1.6.6.3.7-.1.4-.9-.7-1.8-1.4-2.1-1.4-.7z"/></svg>