<?xml version="1.0" encoding="utf-8"?>
<!-- Generator: Adobe Illustrator 21.0.2, SVG Export Plug-In . SVG Version: 6.00 Build 0)  -->
<svg version="1.1" id="Слой_1" xmlns="http://www.w3.org/2000/svg" xmlns:xlink="http://www.w3.org/1999/xlink" x="0px" y="0px"
	 viewBox="0 0 571.7 210.2" style="enable-background:new 0 0 571.7 210.2;" xml:space="preserve">
<style type="text/css">
	.st0{fill:#1F1B20;}
</style>
<g id="Слой_x0020_1">
	<g id="_173588432">
		<g>
			<path class="st0" d="M410.7,57.6H401l-0.4-0.8V16.9c4.2,0,12.4-0.2,16.8,0.2c0.9,0.1,3.2,0.2,4.1,0.5c0.6,0.2,0.1,0.1,0.9,0.2
				c0.7,0.1,0.3,0,0.9,0.2c2.2,0.9,3.3,1.7,4.1,4.1c1.2,3.6,1.3,7.7,1.3,11.5c0,1,0.2,1.2,0.2,2.1c0,1.4-0.1,8-0.4,9
				c-0.8,4.3-0.9,8.6-5.5,10.9c-1.7,0.9-5.6,1.6-7.7,1.7C413.8,57.4,412.6,57.6,410.7,57.6L410.7,57.6z M361.4,16.9h12.4v94.8h-12.4
				v5.3h53.1v-5.3h-13.8V62.9c2.1,0,7.3,0.3,9.1,0.6c0.6,0.1,0.6,0.1,1.2,0.3c1.4,0.3,2.5,0.6,3.9,1.1l1,0.5
				c0.4,0.2,0.7,0.4,1.2,0.6c3,1.9,5,5.3,5.8,8.8c0.6,2.9,0.9,5.7,1.2,8.6c0.2,2.6,0.1,5.5,0.4,8l0.4,4.4c0.1,1.1,0.8,4.2,1.1,5.4
				c0.1,0.5,0.1,0.9,0.3,1.4l0.4,1.2c0.1,0.4,0.3,0.8,0.4,1.3l2.7,5.5c0.6,0.9,1.4,2,2.2,2.7c1.2,0.9,2.4,1.9,3.7,2.7
				c1.1,0.6,2,1.2,3.2,1.6l1.2,0.4c0.4,0.1,0.8,0.2,1.2,0.4c1.7,0.6,5.5,1,7.2,1.2c3.2,0.2,6.3,0.1,9.3-0.6l11.9-4.2
				c-0.1-1.7-1.2-3.2-1.7-4.8c-0.6,0.1-1.1,0.4-1.6,0.5c-0.4,0.1-0.4,0.1-0.8,0.2c-0.6,0.2-0.1,0.1-0.9,0.3
				c-4.2,0.9-9.1,1.1-9.9-4.4c-0.1-0.9-0.4-1.3-0.4-2.3l-0.2-3.9c-0.1-1.1,0.1-2.8,0.1-3.9c-0.2-2.8-0.4-6-0.8-8.7
				c-0.2-1.4-0.9-4.3-1.4-5.7c-1.3-4-3-7.8-5.9-10.9c-1.2-1.3-3-2.8-4.5-3.7c-0.3-0.1-0.6-0.4-0.9-0.5l-2.7-1.4
				c-2.9-1.4-6.2-2.4-9.3-3.1c-0.5-0.1-0.9-0.1-1.3-0.2c-2.2-0.6-1.8-0.2-4.5-1.2v-0.6c2.3,0,4.3-0.4,6.7-0.6l3.1-0.6
				c0.6-0.1,0.9-0.2,1.6-0.4c2.6-0.5,6.6-1.7,9-2.9l3.1-1.7c3.7-2.2,6-4.5,8.4-8.1l1.2-2.4c2.2-4.6,2.2-11.6,0.6-16.3
				c-0.3-0.8-0.6-1.7-1.1-2.4l-1.4-2.1c-2-2.7-4.5-4.6-7.5-6.3l-2.8-1.4c-1.4-0.6-3-1.2-4.5-1.6c-2-0.5-3.6-0.9-5.6-1.2
				c-3.1-0.5-6.4-0.9-9.6-0.9h-62.8L361.4,16.9L361.4,16.9z"/>
			<path class="st0" d="M161.7,111.8h-7.8V17h14.7c1.9,0,8.2,0.6,10.3,1.2c0.4,0.1,0.9,0.2,1.4,0.4c1.9,0.7,1.9,0.6,3.9,2l1.4,1.2
				l0.1,0.1c0.1,0.1,0.1,0.1,0.3,0.3l0.4,0.5c0.9,1,0.6,0.6,1.6,2c1.1,1.7,0.9,1.6,1.7,3.2c0.1,0.4,0.1,0.3,0.3,0.6
				c0.4,1,0.6,1.9,0.9,2.9c0.7,2.7,1.4,5.7,1.6,8.6c0.1,2.7,0.4,2.2,0.4,5.5c0,1,0.1,1.1,0.2,1.9c0.4,10.3,0.1,21,0.2,31.3l-0.2,4
				c-0.3,2.7-0.4,7-1,9.5l-0.6,3.4l-0.9,3.2c-0.1,0.4-0.4,1.1-0.6,1.5c-0.1,0.4-0.1,0.1-0.3,0.6c-1.8,4-4.5,7.5-8.8,9
				c-0.6,0.2-0.9,0.3-1.6,0.5c-4.1,1.2-8.4,0.8-11.6,1c-0.7,0.1-0.9,0.2-1.9,0.2C164.5,111.7,163.1,111.7,161.7,111.8L161.7,111.8z
				 M114.2,12.4c0,5.9-0.9,4.6,6.1,4.6h6.8c-0.5,2.2-0.2,22.9-0.2,26.9l0.1,67.7c-0.2,0.5-2.4,0.2-3.1,0.2c-1.3,0-7.8-0.2-8.6,0
				l-1.2,0.6v4.2l0.6,0.6h58c1.9,0,6.6-0.3,8.4-0.8l5.3-1.1c2.4-0.6,4.8-1.4,7.1-2.2c0.2-0.1,0.4-0.1,0.6-0.2l2.6-1.2
				c3-1.5,6-3.3,8.6-5.6l1.7-1.4l0.1-0.1l3-3.1c0.3-0.4,0.4-0.4,0.7-0.8l5.8-8.3l3-6.3c1.4-3.4,2.4-7.2,3.1-10.8
				c0.1-0.5,0.3-0.7,0.4-1.4l0.6-5.7v-7.6c0-4.2-1.2-9.1-2.3-13.1c-0.2-0.7-0.5-1.7-0.8-2.4l-1.8-4.5c-0.2-0.6-0.3-0.6-0.5-1l-1-2
				c-0.9-2.1-2.3-4-3.7-5.9c-0.9-1.2-1.9-2.3-2.8-3.5c-0.3-0.4-0.3-0.4-0.6-0.9l-4-3.8c-2-1.7-6-4.6-8.4-5.8c-0.8-0.4-1.4-0.6-2.1-1
				l-6.9-2.6l-3.7-0.9c-4-0.9-8.8-1.3-12.9-1.4h-57.5C114.3,11.9,114.2,12,114.2,12.4L114.2,12.4z"/>
			<path class="st0" d="M480.1,12.4v4l0.6,0.6h10.5v94.8h-12.8v5.3h92.4c0.8,0,0.6-0.9,0.6-1.7c0-1.1,0.1-1.2,0.2-2.1l0.1-9.1
				c0.1-1.8,0.2-2,0.2-4.6l0.2-5.5c-0.1-2.5,0.2-4.5,0.2-7.6l0.2-4.6h-5.3c-0.7,3-1.8,6.3-3,9.1c-1.2,3.1-1,2.6-2.5,5.7
				c-3.4,6.8-8.6,11.6-16,13.8c-0.3,0.1-0.4,0.1-0.8,0.1c-0.6,0.1-0.9,0.3-1.7,0.4c-0.7,0.1-1.1,0.1-1.8,0.3
				c-2.8,0.6-19.7,0.5-23,0.5l-0.6-0.6v-46c1.9,0,5.7,0.2,7.6,0.4c0.6,0.1,1.4,0.4,2.2,0.5c1.2,0.2,0.6,0.1,1.2,0.4
				c2.6,1,4.7,1.8,6.5,4.2c1.7,2.2,2.2,2.8,3.2,6.1c0.1,0.4,0.2,0.5,0.4,1l1.4,7.8h5L546,85V41c0-0.9-1.5-0.6-2.4-0.6h-3
				c-1,4.4-1.6,9.9-5,13.9c-1.1,1.3-2.3,2.4-3.8,3.2c-0.4,0.1-0.5,0.3-0.7,0.4l-1.7,0.7c-3.3,1-7.6,1.3-11,0.9V17H537
				c5.4,0,12,1.6,16,5.4c1.6,1.5,3.4,4.2,4.6,6.1c0.9,1.4,0.9,1.3,1.7,3l1.9,4.1c0.7,1.4,1.2,2.7,1.9,4.2c7.3,0,5.3,0.5,5.3-2.9
				V18.5c0-0.6,0-1.2,0-1.7c-0.1-0.9-0.2-0.8-0.2-1.7c-0.1-2.4,0.3-1.3-0.6-3.2h-86.8c-0.4,0-0.6,0.1-0.6,0.6H480.1z"/>
			<path class="st0" d="M284.2,87c0.9,0,1,0,1.4,0.5c0.6,0.8,0.7,1.9,1.6,2.8l0.1,0.1c0.1,0.1,0.2,0.1,0.4,0.2l0.6,0.5
				c0.8,0.6,0.1-0.2,1.8,1.2l4.5,4.2c0.8,0.8,1.4,1.2,2.2,2c0.9,0.9,0.3,0.6,1.8,2.2c1.3,1.3,0.9,0.8,1.9,2.3
				c-0.8-0.1-0.8-0.4-1.9-1.4l-1.7,0.8c-0.9-0.6-0.9-1-1.6-1.9c-0.4-0.6-0.5-0.3-0.9-0.8c-0.3-0.3-0.5-0.8-0.8-1.2l-2.3-2.7
				l-0.1-0.1l-1.7-1.9c-0.4-0.6-0.2-0.5-0.7-1c-0.9-0.9-3.9-4.7-4.4-5.8c-0.1-0.1-0.1-0.4-0.1-0.4V87z M314.2,83.4
				c0.6,0.1,2.8,1.6,3.4,2c1.7,1.3,1.3,0.6,2.2,1.5l3.1,2.4c0,0.5-0.2,0.7-0.4,1.5c-0.4-0.3-0.6-0.5-1-0.9c-0.2-0.2-0.3-0.3-0.5-0.4
				l-0.1-0.1l-2.7-2.1c-0.5-0.4-1.7-1.7-3-2.7c-0.7-0.6-0.8-0.2-0.9-1.2H314.2z M322.4,73.4c0.9,0.1,0.6,0.2,1.2,0.7
				c0.4,0.4,0.9,0.4,1.3,0.8l2.2,1.9c-1,0-1.4-0.3-3.2-0.6c-0.1-0.2-0.3-0.4-0.4-0.6c-0.5-0.9,0-0.6-0.7-1.5
				C322.3,73.6,322.7,74,322.4,73.4L322.4,73.4z M319.2,71.1c0.5,0.1,2.7,1.3,2.3,1.8c-0.6,0.6,0.1,0.1-1.2-0.6
				c-0.4-0.2-0.4-0.1-0.7-0.4C318.9,71.3,319.3,72,319.2,71.1L319.2,71.1z M308.3,62.3c1.7-0.4,2.4-1.1,4.8,0.7
				c0.3,0.2,0.1,0.1,0.4,0.2l2.8,1.6c0.9,0.5,1.3,0.4,2.6,1.4c-1.5,0-0.6,0.4-3-0.3c-1.3-0.4-4.1-1.3-5.5-2
				c-0.5-0.3-0.6-0.4-1.2-0.7C308.1,62.6,308.5,62.6,308.3,62.3L308.3,62.3z M330.6,55.1c0.9,0.1,1.1,0.7,2.4,1.9l0.8,0.8
				c-1.2,0.4-1.3-0.1-2.7-1.7C330.6,55.5,330.8,55.7,330.6,55.1z M332.7,42.7c0.8,0,0.6,0.1,1.3,0.1c0.4,0,0.3-0.1,1.1,0.1
				c2.6,0.7,4,1.6,5.4,3.7c-1.2-0.3-0.9-0.4-1.4-0.7l-2.7-1.4c-1.8-0.8,0-0.3-3.7-1.5V42.7z M312.8,40.8v0.4l2.5,1.4
				c0.5,0.4,0.7,0.2,1.2,0.6c0.5,0.4,0.4,0.6,1.2,1c1.7,0.9,3,2.4,4.5,3.7c-0.9-0.2-2.5-1.3-3.5-1.8l-2.4-0.9
				c-1.4-0.6-3.1-0.8-4.7-0.9l-0.8,0.8c0,1.5-0.2,1.7,0,3c0.4,2.4-2.7-0.8-3.2,6.3v1.2c0.1,1.3-0.3,1.4-1,2.2
				c-1.4,1.7-2.4,4.3-2.4,6.4c0.6,0.4,1.2,0.7,1.7,1.4l-1.2-0.4c-0.5,0.7-1.1,1.2-1.9,1.5c-1.2,0.4-1.9,0.9-1.9,2.3
				c0,1,1,2.3,1.5,3.1c0.7,1.2,0.6,0.6,1.9,2.8l-1.4-0.9c-0.2-0.1-0.5-0.1-0.7-0.3c-1.9-0.7-4.8-1.3-6.5,0.5l-0.7,1l0.2,0.8
				l-1.7,0.2c-0.1,0.9,0,1.4,0.5,2.2c0.4,0.6,0.9,1.2,1.4,1.9c-1-0.3-1.5-1.3-2.2-1.9l-0.4-0.2c-0.4-0.2-0.8-0.2-1.2-0.3
				c-1.6,1.9-1.2,1.3,1.7,5.5c-0.7-0.2-3.3-2.9-4.6-3.2c-0.8-0.2-3.3,1.6-4.1,2c-1.2,0.6-1.5,1.4-2.3,2.3c-0.9,1.1-0.8,0.4-1.2,1.9
				c-0.2,0.9-0.1,1.7-0.4,2.2c-0.3,0.6-0.4,0.1-0.2,1.2c0.2,1.3,0.6,2.4,1.1,3.5c0.5,1.1,1.2,2,1.7,3l1.2,1.6
				c1.1,1.1,1.9,2.4,3.2,3.4c1.2,0.9,1.9,2.1,3.1,3c1.2,0.9,2.2,2,3.2,3.1c-1-0.1-0.2,0-0.7-0.2l-3-1.4c-0.6-0.3-0.1,0.1-0.8-0.4
				c-0.3-0.2-0.2-0.4-0.6-0.5c-0.6-0.3-0.2,0.1-0.8-0.4c-0.6-0.4-1.5-1.6-2.2-2.2c-0.4-0.4-0.3-0.1-0.6-0.5c-2.6-3-4-7.5-5.5-11.1
				c-0.4-1.1-1-1.9-1.8-2.8c-0.2,0.7-1.3,1.2-2.2,2.6l-2.1,2.9c-0.5,0.9-0.9,1.2-1.6,1.8c0,1.7,0.7,2.5,1.4,3.9l1.9,3.4
				c-1.2-0.4-2.2-2.2-2.9-3.2c-0.2-0.3-0.4-0.5-0.6-0.8l-0.5-0.6c-0.1-0.3-0.6-0.5-0.9-0.6c-0.2,0.8-0.9,1-1.4,2.2
				c-0.8,2.2-0.1,3.4,1.1,5.3c0.3,0.4,0.4,0.6,0.7,1.2l1.5,2.1c0.5,0.5,1.4,2,1.3,2.7l-0.4,0.8c-1.4-0.9-1.9-2.4-2.6-4l-2.7-4
				c-0.7,0-3,3.2-3.3,4c-1.3,2.3-1.7,2.1,1.9,5.2c0.1,0.1,0.1,0.1,0.2,0.1l0.4,0.4c0.9,0.8,2.8,2.4,3.3,3.4l0.6,1.5
				c-0.2,0-0.7,0.1-0.8,0.1c-3.6,0.1-2.7-2.5-4.3-4.5c-0.2-0.3-0.2-0.2-0.4-0.5c-0.6-1-1.6-1.8-2.5-2.7l-2.4,5c-0.5,1.3-1,2.7-1.4,4
				c-0.4,1.4-1,3.9-1,5.1c0,0.6,0.9,1.9,1.4,2.7c-0.9,1-1.8,1.4-1.4,2.7l0.4,0.9c0.1,0.2,0,0.1,0.3,0.3c1.3,1.2,1.7,0.9,3.4,0.6
				c1-0.3,1.9-0.7,2.9-1.2c0.9-0.4,2-0.9,3-1c0.9-0.1,1.3,0.5,2.6-0.5c1.2-0.9,2.1-1.2,3.6-1.7c0.9-0.3,1.5-0.5,2.2-0.6
				c0.4,0,0.9-0.1,1.2-0.1c4.2-1.2,3-0.2,7.6-2.7c0-0.8-0.1-1.5-0.4-2.3c1,0.1,0.7,0.8,3.2-0.3c0.6-0.3,1-0.3,1.6-0.5
				c2.6-0.9,5.4-1.7,8.1-2.4l2.4-0.8l0.4-0.1c1.3-0.5,2.7-1.2,3.7-1.9c4.3-2.7,1.9,0.4,8.1-2.8c0.4-0.2,0.3-0.1,0.6-0.4
				c0.7-0.4,1.6-0.8,2.1-1.3l0.1-0.1l2.4-2.7l0.1-0.1c1-1.1,1.3-1.6,2.2-2.8c0.4-0.6,0.3-0.7,0.8-1.3l1.3-1.7c0.6-1,1.3-2.4,2.2-3.2
				c0.9-0.9,1.1-1.7,1.9-2.4c0.2-0.2,0.3-0.3,0.4-0.5l0.4-0.4l0.1-0.1c1.7-2,4.5-3.5,6.5-5.2c1.7-1.3,1.3-0.6,3.2-3
				c0.4-0.6,0.9-1.5,1.1-2.2c0.4-1.1,1.6-2,2.1-3.1c0.1-0.4,0.1-0.4,0.4-0.8c0.9-1.4,1.4-3,1.9-4.5l1-4.2c0.3-1.2,0.1,0,0.4-1.7
				l1.2-5.3c0.4-1.2,0.4-3.5,0.6-4.8l1.1-4c0.3-1.1,0.4-1.6,0.4-2.8c0.1-1.3-0.7-1.4-1.6-2.5l1.5-0.4V49c0-0.9,0,0.1-0.2-0.5
				c-0.6-1.6-0.3-3.8,0.1-5.3c0.1-0.5,0.1-0.7,0.1-1.4c0.2-1.2,0.4-1.5,0.1-2.7c0.7-1,1-1.6,1.2-3c0.1-0.4,0-0.4,0.1-0.6
				c0.1-1,0.8-1.3,0-2.4c-0.6-0.7-0.7-0.8-1.2-1.7c1.3-1.9,2.6-3.3,1.5-5.9c-0.4-1.1-1.2-1.9-1.9-2.9l1.4-1.4c0-1.6-3-1.6-4-1.7V19
				c1.2,0,1.4-0.3,2.7,0.4c2.1,1,1.9,0.9,3.7,0.4c0-0.6-0.9-1.4-1.3-1.6l-1.4-0.7c-3.8-1.6-9.4,0.5-12.7,2.9c-1.4,0.9-2.7,2-3.7,3.3
				l-0.3,0.3L331,24c-1.2,1.4-3,2.4-4.6,3.5c-2.2,1.2-2,1.5-3.6,3.1l-4.2,4.4c0,0-0.2,0.2-0.3,0.3c-1.3,1.2-2.5,2.4-3.9,3.5
				c-0.5,0.4-1.7,1.8-1.7,2.5V40.8z"/>
			<path class="st0" d="M246.4,98.6l2.8-0.5c3.3-0.2,2.6-0.1,5.8-1.2l3-0.8v0.6l-0.9,0.3c-2.9,1.3-6.1,2.9-9.4,2.4
				C246.9,99.2,246.8,99.3,246.4,98.6L246.4,98.6z M248.4,84.3c3.5,0,1.6,1.9,10.5,2.3l3.6,0.6c-0.4,0.3-0.4,0.3-0.8,0.4
				c-0.6,0.1-4.8-0.1-5.5-0.3c-0.8-0.1-0.3-0.1-1-0.1c-0.9,0-2.8-0.6-3.6-1l-2.4-1.2C248,84.5,248.5,84.7,248.4,84.3z M276.6,28.8
				c2.2,0.5,5.3,4.8,6.8,6.7c-0.9-0.2-0.9-0.5-1.9-1.3c-0.4-0.4-0.6-0.4-1.1-0.6l-3.2-3C276.8,30.1,276.6,29.7,276.6,28.8z
				 M319.5,16.2c0,0.9,0.1,1.3,0.4,2.3c-0.9-0.2-0.6-0.7-1-2.6c-0.2-1.3,0-1.2,0.4-2.9h0.4l0.6,0.6
				C320.2,14.4,319.5,15.5,319.5,16.2L319.5,16.2z M309,11c1.6,0.4,0.1,0.4,3,0.6c0,1.2,0.1,0.5-0.5,2c-0.2,0.6-0.3-0.1-0.3,1.8
				c0,0.9-0.3,2.8-0.2,5l0.2,1.7c-0.4-0.4-0.4-0.5-0.6-1.2l-1.5-7.1C309,12.7,308.7,12,309,11L309,11z M328.1,8.6
				c0,2.3-0.1,3.5-0.9,5.4c-0.3,0.8,0,0.5-1,1.1c0.7-1.6,1-5.4,1.3-6C327.8,8.6,327.6,8.7,328.1,8.6L328.1,8.6z M318.7,1.9
				c0.3,2.8,0.6,3.5,0,6.1c-0.8-0.1-0.8-0.3-1.3-0.8c-0.6-0.6-0.7-1.2-1.4-1.7c-0.9-0.7-0.9-1-1.5-1.7c-0.6-0.6-1.4-1.7-2-2.2
				c-0.9-0.6-2.2-0.5-3.2-0.4c-0.3,0-0.9-0.1-1.9,0l-1.7,0.2c-1.4,0-4.1,0.4-5.4,1.2c-0.3,0.1,0.1,0-0.4,0.2l-0.8,0.4
				c-0.3,0.1-0.1,0.1-0.5,0.2c-1.9,0.9-1.3,0.5-2.9,0.7c-0.6,0.1-0.2,0-0.6,0.2c-1.4,0.8-2.6,2.2-4.2,2.7c-1.9,0.6-1.8-0.1-3.5,1.5
				l-0.2,0.2c-3.7,2.9-2.7-0.4-6.8,1.8c-1,0.5-2,1.3-3.1,1.7l-5.5,2.5c-0.6,0.3-1.2,0.6-1.8,0.9c-1.5,0.6-2.8,1.6-4.2,2.5l-4,2.7
				c-1.2,1.1-2.9,3.3-3.2,4.8c-0.7,3,0.5,5.6-0.1,7.8c-0.2,0.8-0.4,1.2-0.7,1.8c-0.7,1.4-1.7,2.7-2.8,3.8c-0.8,0.8-1.8,1.6-2.7,2.3
				l-1.4,1c-1.2,0.7-2.2,1.3-3.5,1.6c-1.4,0.4-2.2,0.2-3.6,1l-0.4,0.2c0,0-0.1,0.1-0.1,0.1l-0.4,0.2c-0.9,0.5-1.4,0.9-1.9,1.9
				c-0.7,1.5-0.8,2.9-1.2,4l-0.8,1.9c0.5,0.7,0.4,1.1-0.1,1.9l-0.5,0.6c0.4,4,1,4.9-0.9,8.1c-0.9,1.4-0.8,1.8-0.3,3.4
				c1.1,3.2,0.3,1.2,0,5.2c-0.1,1.3,0.6,1.2-0.4,2.2c-1.8,2,1,5.4,1.5,8.6c0.2,1.4-0.6,2.5-0.8,3.8c0,0.8,0-0.1,0.3,0.6
				c0.6,1.7,1.7,3.9,1.8,5.8c0.1,2.3-0.1,1.8,1.3,3.1c2.2,2.1-0.2,3.8,2.2,6.8l0.3,0.3l2,2.5c0.4,0.6,1.2,1.4,1.2,2.2
				c0.1,0.9-0.1,0.1-0.1,0.9l0.1,3.2c1.4,0.9,0.8,0.8,2.4,1.4c0.9,0.3,1.8,0.7,2.7,1.3c-1.4,0.6-2.8-0.9-4.2-0.9l-0.6,0.6
				c0,1.4,0.4,2,0.4,3.2c0,1.2-0.1,2.4,0.1,3.5c0.3,1.4,0.8,2.6,1.8,3.5l1.2,0.8c0.3,0,1.4-1.3,1.6-1.7l0.6-1.5
				c0.6-1.6,1.7-4.1,1.9-5.7c0.5-2.8,1.8-4.1,3.2-6.5c0.4-0.8,0.9-1.2,1.6-1.7c0-1.5-0.6-1.6-1.5-2.7c1.6-0.8,2.2,0.4,2.7-2.3l1-4
				c0.4-1.1,0.5-2.2,0.7-3.3c0.1-0.3,0.1-0.6,0.1-0.9l0.6-2.4c0.1-0.6,0.1-1.1,0.4-1.7c0.2-0.6,0.4-0.8,0.5-1.4
				c0.5-1.7,1-2.8,1.4-4.7l0.5-3.7c1.3-0.6,3.2,0,3.2-2.1c0-1.7-3.7-1.7-5-2.1c0.2-0.4-0.1-0.5,0.9-0.3c1.6,0.4,2.9,0.3,4.3-0.4
				c1.4-0.6,1.2-1.2,1.7-2.7c-0.8-0.2-0.3-0.2-0.9-0.4c-0.1-0.1-0.3-0.1-0.3-0.1c-2.3-0.7-2.7,0.9-6-1.3c-0.8-0.5-1.4-1-2.2-1.3
				l-0.6-0.4c0.5-0.5-0.4-0.1,0.4-0.4c0.7-0.2,0.6,0.2,0.9,0.4c0.6,0.4,3.4,1.5,4.1,1.7c1.4,0.4,2.9,0.4,4.3,0.4
				c1.8-0.1,1.6-0.2,3.3-1.3c0-1.1-0.3-1.7-1.1-2.4c-1.6-1.3-1.2-1.2-3.1-2.1c-0.4-0.1-0.1-0.1-0.6-0.2l-1.7-0.8
				c-0.1,0-0.1,0-0.1-0.1c-0.1,0-0.2-0.1-0.3-0.1c-1.2-0.6-5.3-2.3-5.9-3.1l-1.2-1.9c0.4,0.1,0.3,0.1,0.4,0.1c2.2,0.9,4.5,3.2,6.4,4
				l4.6,1.7c0.4,0.1,0,0,0.4,0.1c0.8,0.4,2,0.6,2.9,0.7h1.4c0.4,0,1-1,1.2-1.3c0.4-0.9,0.6-2.8,1.4-3.6l1.5-1.3v-0.1l-0.3-1.1
				c-0.4-0.7-1.9-3-2.5-3.4c-0.3-0.2-0.4-0.1-0.6-0.3l-1.3-0.6c-1.9-0.6-3.6-1.4-5.3-2.4c-1.7-1.1-1.3-1.4-3.7-2l-1.9-0.7
				c-0.4-0.1-1.1-0.4-1.4-0.5v-0.9c4.6,0,4,1.2,6.3,2.4c1.9,1,1.8,1.6,5.7,3.2l2.7,1c1.5,0.5,0.8,0.8,3.5,1.4l0.8-0.8
				c0-1.1-1.4-1.7-2.2-2.4c0,0-0.5-0.1-1.7-2.3c-0.3-0.4,0.1-0.1-0.4-0.6l-1.7-1.6c0.6-0.3,1,0.1,1.5,0.4l2.9,1.5
				c2,0.9,2.3,1.2,3.9,2.8c0.7-0.2,0.9-0.1,1.2-0.1l0.5-0.1h0.1c0.8-0.4,1.1-1.3,0.3-1.8c-0.5-0.4-0.4-0.1-0.9-0.6s-0.9-0.9-1.4-1.5
				c1.4,0.1,2.2,1.5,3.5,1.5c1.7,0,2-3.2,2.1-4.4c0.1-0.6-0.5-1.6-0.8-2.1c-0.6-1.2-2.1-2.6-3.2-3.5c-0.5-0.4-0.6-0.5-1-0.9
				c-1.1-1-1-0.7-1.9-2.2c1.4,0,2.4,1.6,2.9,1.2v-1.2l2.4,4.2c1-0.1,0.9-1,1.2-1.9c0.4,0.1,0.2,0,0.5,0.3l0.6,1.4
				c0.4,1,0.2,1.1,1,2.2c1.1,0,0.4-2.3,0.4-3c1.7,0.8,1.1,0.6,2.4-0.4c1.3-0.9,1.5-0.9,0.5-2.5c-0.6-0.9-1.2-1.7-2.1-2.3
				c-0.7-0.5-1-1-1.6-1.7c-1.5-1.9-1.7-1.4-3.8-4.2c-0.3-0.4-0.7-0.7-1.1-1c-0.6-0.4-0.7-0.6-1.2-1.1l-2.1-2.3
				c-1.2-1.1-1.9-2.4-3.1-3.4c-0.4-0.4-0.6-1.1-0.9-1.5l0.4-0.8c1,0.6,1.7,1.4,2.4,2.4l2.2,2.7c0.3,0.4,0.2,0.4,0.5,0.6
				c1.9,2.5,4.6,3.6,6.8,5.6c0.5,0.5,0.9,0.7,1.1,1.4c0.6,1.8,1.2,1.5,3,2c0.4,0.1,0.6,0.2,1,0.3c1.2,0.3,2.1-1.1,2.8-1.8l1.2-1.3
				l-0.6-0.8l-1.7,0.4c0-0.4,0.1-0.6,0.2-0.8c0.1-0.1,0.6-0.3,0.8-0.4l1.3-1c0-0.9-0.2-1.6-0.4-2.4c-0.1-0.5-0.2-0.6-0.4-1
				c-0.7-1.7-0.9-3.5-1.3-5.2c0.7,0.2,0.6,0.2,0.9,0.8c0.6,1.2,1.2,2.3,1.9,3.4l1.5-0.2c0.4,1.9-0.4,1.4-0.8,2.8
				c-0.2,0.7,0.1,1.2,0.9,1.3c1.3,0.2,2.4-0.4,3.5-0.9c0-1.5-0.5-2.4-0.2-3.2c0.6,0.1,0.8,0.6,1.2,1.2l1.2,1.3
				c0.5-0.4,2.7-2.6,2.9-2.9c0.2-0.6-0.3-1.7-0.4-2.3c0.9,0.2,0.6,0.5,1,1.3l1.3,1.2c4.7-1.1,4.4-1.6,6.8-4.8l-0.2-0.9
				c2.2,1.5,1.4,0.9,3.8,0.6h0.9c1.8-0.2,2.5,2.3,4.2-0.2c0.4-0.6,0.7-0.9,1.2-1.5l2.2-3.4v1.7c0.9,0.7,1.2,1,2.8-1.4
				c0.2-0.3,0.4-0.7,0.5-1c0.7-2.2-0.6-3.7-0.1-6.6l-0.9-0.9c-3,0-0.6,4.1-1.4,5l-0.4,0.3c-0.5-1.2,0.2-2.7-0.6-4.8l-1.7,0.4
				c-0.3-0.4-0.4-0.4-0.6-0.9c-1.2-1.9-3,0.8-4.5-1.4c-0.3-0.4-0.4-1-0.6-1.4l-0.1-0.3c0-0.1-0.1-0.1-0.1-0.1l-0.4-0.9
				c-0.4-0.8-0.6-1.2-1.3-1.7l-0.7,0.6c0,3.9,1.1,3.6-0.8,5.2c-0.9-3.9,0.8-3-1.4-6.5h-0.8c-0.1,0.3-0.4,1.4-0.4,1.5L318.7,1.9z"/>
			<path class="st0" d="M43.3,45.8c0.1,0.6,0.1,0.7,0.3,1.2l6.6,17.4c0,0.1,0,0.1,0.1,0.1c0,0.1,0.1,0.1,0.1,0.1s0.1,0.2,0.1,0.3
				l2.1,5.5c0.1,0.4,0.1,0.1,0.2,0.5l1.1,2.9c0.1,0.4,0.2,0.6,0.4,1.1l2.6,6.8H28.8c0.1-0.6,0.2-0.6,0.4-1.1L31,76
				c0-0.1,0.1-0.1,0.1-0.1s0.1-0.1,0.1-0.1l3-7.6c0.6-1.4,1.2-2.9,1.8-4.5l1.5-3.7c0-0.1,0.1-0.1,0.1-0.1l4.8-12
				c0.1-0.4,0.3-0.7,0.4-1.1c0.2-0.6,0.2-0.8,0.6-1.1L43.3,45.8z M0.1,112v5c2.5,0.5,28.7,0.2,33.4,0.2v-5.3
				c-2.5,0-10.5,0.5-12.6-0.7c-0.9-0.5-1.2-1.1-1.3-2.1c-0.5-2.7,2.4-8.9,3.4-11.4l3.8-10.1h31.9c0.1,0.7,0.2,0.8,0.4,1.4l3.1,8.4
				c0.1,0.4,0.1,0.4,0.3,0.9l5.1,13.8H55.1v5.3h51.1V112h-9.4c-0.3-1.2-0.8-2.1-1.2-3.2L92,99.3c-0.9-2.2-1.7-4.1-2.4-6.3
				c-1.5-4.3-3.2-8.6-5-12.8C83.7,78,83,76,82.1,73.8c-0.8-2.1-1.6-4.2-2.4-6.3c-2.2-5.5-4.1-11.2-6.5-16.6
				c-0.1-0.4-0.1-0.5-0.3-0.9l-3.1-8c-0.4-1.2-0.9-2-1.2-3.2c-0.4-1.1-0.8-2.2-1.2-3.3l-1.2-3.2c-0.4-1-0.9-2-1.2-3.2
				c-0.1-0.4-0.1-0.4-0.3-0.7L64,26.8c-0.1-0.3-0.2-0.6-0.3-0.9l-1.2-3.2c-0.1-0.4-0.1-0.4-0.3-0.7L61,18.9
				c-0.1-0.2-0.3-0.6-0.4-0.8l-1.4-3.6c-0.6-1.4-1.2-3.2-1.7-4.6h-6.7c-0.5,1-0.9,2.3-1.4,3.4l-4.1,10.6c0,0.1-0.1,0.1-0.1,0.1
				l-6.5,16.8c-2.2,5.5-4.3,11.5-6.6,17.2l-4.1,10.8c0,0.1,0,0.1-0.1,0.1c0,0.1,0,0.1-0.1,0.1c0,0.1-0.1,0.1-0.1,0.1
				c-0.1,0.4,0-0.1-0.1,0.4L21,87.3c-0.1,0.3-0.3,0.6-0.4,0.8l-3,7.8c-1.3,3.7-3,8.4-4.9,11.7c-0.5,0.9-0.9,1.6-1.6,2.2
				c-0.1,0.1-0.6,0.9-2.1,1.4c-2.6,0.8-6.3,0-9.1,0.6L0.1,112z"/>
			<path class="st0" d="M336.9,8c0,0.7,1.2,2.4,1.5,3c-0.9,0.9-1.2,1.9-1.7,3.5l0.4,0.8c0.9-0.2,1.4-0.8,1.7-1.5
				c0.9-1.8,0.4-1.1,0.8-2.4c0.6-2.2-1.1-3.2-2.2-4C337.3,7.5,336.9,7.9,336.9,8L336.9,8z"/>
		</g>
		<path class="st0" d="M33,174.1c0,5.4-2,9.4-6.1,12.1c-4.1,2.7-9.6,4-16.4,4c-0.9,0-1.7,0-2.3-0.1c0,5.1,0.2,11.4,0.6,18.6H1.9
			c0.4-6.7,0.5-14.8,0.5-24.2c0-8.1-0.2-15.4-0.5-21.9h5c0.6,0,2.1-0.1,4.7-0.1c2.6-0.1,4.8-0.1,6.6-0.1c4.5,0,8.1,1,10.8,3.1
			C31.7,167.6,33,170.4,33,174.1L33,174.1z M27.1,176.2c0-6-4.2-9.1-12.5-9.1c-2,0-4.3,0.1-6.8,0.5c0.1,3.8,0.3,9.9,0.3,18
			c0.8,0.1,1.8,0.1,3,0.1C21.7,185.7,27.1,182.5,27.1,176.2z M85.5,208.8h-6.8c-2.2-6.8-3.9-11.2-5-13.5c-1.3-2.7-2.8-4.5-4.5-5.3
			c-1.3-0.6-3.7-0.9-7.1-0.9c-2,0-3.8,0-5.3,0.1c0,7.6,0.1,14.2,0.4,19.7h-6.6c0.4-7.3,0.5-15.4,0.5-24.2c0-8.3-0.2-15.6-0.5-21.9h5
			c1.1,0,2.4-0.1,4-0.1c1.7-0.1,3.5-0.1,5.6-0.1c10.3,0,15.5,3.5,15.5,10.7c0,5.9-2.9,10.1-8.7,12.5v0.4c2.6,0.8,4.7,2.6,6.3,5.4
			c1.4,2.4,3.7,8.1,7.2,17.4L85.5,208.8z M74.7,175.6c0-5.6-3.8-8.4-11.4-8.4c-2.7,0-5,0.1-6.8,0.4c0.1,4.1,0.3,9.7,0.3,16.7
			c1.4,0.1,2.7,0.1,4.1,0.1C70.1,184.4,74.7,181.4,74.7,175.6L74.7,175.6z M143.2,185c0,7.6-2.2,13.7-6.7,18.3
			c-4.5,4.5-9.6,6.8-15.5,6.8c-5.6,0-10.5-2.1-14.8-6.3s-6.3-9.9-6.3-17c0-7.7,2.2-13.8,6.7-18.4c4.5-4.5,9.6-6.8,15.5-6.8
			c5.6,0,10.5,2.1,14.8,6.3C141.1,172.2,143.2,177.9,143.2,185z M136.9,185.8c0-6.1-1.6-10.8-4.8-14.1c-3.2-3.3-6.9-5-11.1-5
			c-3.9,0-7.3,1.7-10.3,5.3c-3,3.5-4.5,8.2-4.5,14.1c0,6.1,1.6,10.8,4.8,14.2c3.2,3.3,6.9,5,11,5c3.9,0,7.3-1.8,10.3-5.3
			s4.5-8.3,4.5-14L136.9,185.8z M189.3,162.7L189,168c-6.3-0.3-13.4-0.4-21.3-0.4c0.3,3.9,0.4,9.3,0.4,16.2c5.5,0,10.9-0.1,16.2-0.3
			v5.1c-5-0.2-10.4-0.3-16.2-0.3c0,9.2,0.1,16.1,0.4,20.4h-6.4c0.4-7.3,0.5-15.4,0.5-24.2c0-8.3-0.1-15.6-0.5-21.9L189.3,162.7
			L189.3,162.7z M234.9,203.5l-0.2,5.3h-28.5c0.4-7.3,0.5-15.4,0.5-24.2c0-8.3-0.1-15.6-0.5-21.9h26.8l-0.3,5.3
			c-6.5-0.3-13.4-0.4-20.6-0.4c0.1,3.7,0.2,8.6,0.2,14.8c6.3,0,11.9-0.1,16.8-0.4v5.3c-5.3-0.2-10.8-0.4-16.8-0.4
			c0,6,0.1,11.7,0.3,17.1C220.4,203.9,227.8,203.7,234.9,203.5L234.9,203.5z M279.4,196.9c0,8.7-6,13.1-18.2,13.1
			c-4.5,0-8.4-0.5-11.8-1.5l1.2-5.5c4,1.4,7.7,2.1,11.3,2.1c8,0,12-2.3,12-6.8c0-2.3-1-4.2-3.1-5.9c-1.4-1.1-4.1-2.5-8.2-4.4
			c-4.3-1.9-7.3-3.7-9-5.3c-2.4-2.2-3.6-5-3.6-8.4c0-3.5,1.2-6.3,3.7-8.6c2.7-2.4,6.6-3.7,11.5-3.7c5.6,0,9.4,0.4,11.5,1.1l-0.9,5.6
			c-3.6-1.2-7.4-1.7-11.4-1.7c-6,0-9.1,2-9.1,6.1c0,1.9,0.9,3.6,2.6,4.9c1.2,0.8,3.6,2.1,7.5,3.7c4.4,1.9,7.6,3.7,9.6,5.5
			C277.9,190,279.4,193.2,279.4,196.9L279.4,196.9z M325,196.9c0,8.7-6,13.1-18.2,13.1c-4.5,0-8.4-0.5-11.8-1.5l1.2-5.5
			c4,1.4,7.7,2.1,11.3,2.1c8,0,12-2.3,12-6.8c0-2.3-1-4.2-3.1-5.9c-1.4-1.1-4.1-2.5-8.2-4.4c-4.3-1.9-7.3-3.7-9-5.3
			c-2.4-2.2-3.6-5-3.6-8.4c0-3.5,1.2-6.3,3.7-8.6c2.7-2.4,6.6-3.7,11.5-3.7c5.6,0,9.4,0.4,11.5,1.1l-0.9,5.6
			c-3.6-1.2-7.4-1.7-11.4-1.7c-6,0-9.1,2-9.1,6.1c0,1.9,0.9,3.6,2.6,4.9c1.2,0.8,3.6,2.1,7.5,3.7c4.4,1.9,7.6,3.7,9.6,5.5
			C323.6,190,325,193.2,325,196.9L325,196.9z M350.5,208.9h-6.7c0.4-7.6,0.5-15.7,0.5-24.2c0-8.4-0.2-15.6-0.5-21.9h6.7
			c-0.4,6.4-0.5,13.8-0.5,21.9C350,193.2,350.1,201.3,350.5,208.9z M412.5,185.1c0,7.6-2.2,13.7-6.7,18.3c-4.5,4.5-9.6,6.8-15.5,6.8
			c-5.6,0-10.5-2.1-14.8-6.3c-4.2-4.2-6.3-9.9-6.3-17c0-7.7,2.2-13.8,6.7-18.4c4.5-4.5,9.6-6.8,15.5-6.8c5.6,0,10.5,2.1,14.8,6.3
			C410.5,172.3,412.5,178,412.5,185.1z M406.3,185.9c0-6.1-1.6-10.8-4.8-14.1c-3.2-3.3-6.9-5-11.1-5c-3.9,0-7.3,1.7-10.3,5.3
			s-4.5,8.2-4.5,14.1c0,6.1,1.6,10.8,4.8,14.2c3.2,3.3,6.9,5,11,5c3.9,0,7.3-1.8,10.3-5.3s4.5-8.3,4.5-14L406.3,185.9z M466.9,208.8
			h-5c0-0.4-3.9-6-11.6-16.9c-8.1-11.4-12.7-18.6-13.8-21.7h-0.4c0.4,5.7,0.6,10.6,0.6,14.6c0,7.9,0.2,15.9,0.5,24h-6
			c0.4-7.7,0.6-15.8,0.6-24.2c0-8.4-0.2-15.6-0.6-21.9h6.8c0,0.6,3.5,6,10.7,16.1c7.4,10.6,11.7,17.6,12.7,20.7h0.4
			c-0.4-5.8-0.6-10.7-0.6-14.6c0-8.7-0.1-16.1-0.5-22.2h6c-0.4,6.3-0.6,13.5-0.6,21.9C466.3,193.2,466.5,201.2,466.9,208.8
			L466.9,208.8z M526.4,208.8H519c0-1.6-1.5-6.6-4.5-14.9H494c-3,8.2-4.4,13.2-4.4,14.9h-7.1c0-0.9,3-8.4,9.1-22.6
			c6.1-14.2,9.1-22,9.1-23.4h8.2c0,1.4,2.9,9.1,8.7,23.1S526.4,207.6,526.4,208.8L526.4,208.8z M512.9,189.3
			c-5.5-13.8-8.3-21.2-8.3-22.1h-0.4c0,0.7-2.9,8.1-8.6,22.1H512.9z M570.2,203.6l-0.2,5.2h-27.9c0.3-5.8,0.4-13.9,0.4-24.2
			c0-8.9-0.1-16.1-0.4-21.9h6.6c-0.3,4.8-0.4,12-0.4,21.9c0,8.1-0.1,14.5-0.4,19.4C554.9,204,562.4,203.8,570.2,203.6L570.2,203.6z"
			/>
	</g>
</g>
</svg>
