<svg id="Layer_1" data-name="Layer 1" xmlns="http://www.w3.org/2000/svg" viewBox="0 0 178.08001 111.465"><title>apriori</title><path d="M.16,93.465c2.19743.00546,4.396-.03067,6.592.02812,2.1795.05836,3.57727,1.12241,4.01834,2.92417.451,1.84211-.16154,3.01531-2.31419,4.29877.31114.15561.57072.28557.83042.4153a3.90757,3.90757,0,0,1,.08547,6.8901,9.55178,9.55178,0,0,1-3.22175.745c-1.99049.1219-3.99286.04974-5.99028.05854Zm.87526,7.91259c0,1.99584-.01274,4.05959.022,6.12254.00308.183.32072.52218.48331.51683a52.814,52.814,0,0,0,6.66465-.36352c1.67156-.27,2.41082-1.7012,2.29685-3.44079a2.82409,2.82409,0,0,0-2.64947-2.789C5.647,101.23864,3.41434,101.37759,1.03526,101.37759Zm.05636-.83665c2.29015-.1149,4.52365-.087,6.71263-.38552a2.69735,2.69735,0,0,0,2.21387-2.9952,2.53674,2.53674,0,0,0-2.35521-2.717c-2.15906-.18817-4.34678-.04756-6.57128-.04756Z"/><path d="M70.21313,75.27608c1.759-1.3079,3.5955-2.52447,5.26367-3.93946A35.43679,35.43679,0,0,0,87.98731,47.52984c.78984-6.88157,1.57478-13.74267,4.12477-20.24531,3.1055-7.91927,8.00469-14.33793,15.693-18.34936.77689-.40535,1.58936-.74652,2.401-1.07918a1.55814,1.55814,0,0,1,1.0447.00591c-.23361.212-.45433.4406-.70288.63331q-2.79581,2.1677-5.60085,4.32348c-5.59334,4.3144-7.86927,10.40041-9.03746,17.04888a19.47427,19.47427,0,0,0,4.21687,16.29139c.85431,1.05675,1.66705,2.14735,2.49021,3.229,1.79115,2.35367,3.61779,4.682,5.3464,7.08084a26.86855,26.86855,0,0,1,2.12921,3.60759,12.44233,12.44233,0,0,1,1.22146,9.82345c4.54544-1.6497,11.659-13.13137,12.92355-21.12246,2.37781-15.02636-2.89165-26.93923-14.9468-36.13886l.934-.74395c14.74329,9.72528,21.06073,30.724,11.38143,48.18543A36.80135,36.80135,0,0,1,73.80339,75.77536a1.86944,1.86944,0,0,1,2.32589-.43419,35.75963,35.75963,0,0,0,29.39128-1.36084,5.74238,5.74238,0,0,0,3.37622-5.03391,10.48158,10.48158,0,0,0-.86654-5.73248A56.82811,56.82811,0,0,0,99.6955,50.38031a37.2017,37.2017,0,0,1-6.45644-10.86259,3.66911,3.66911,0,0,0-.26309-.53689c-.03554-.06183-.11946-.09584-.36183-.27893-.10329,1.22214-.18652,2.33686-.29341,3.44931a67.81564,67.81564,0,0,1-2.67461,14.33652,27.76826,27.76826,0,0,1-7.64407,11.728,39.98743,39.98743,0,0,1-9.40178,6.78053,11.13575,11.13575,0,0,1-2.32143.608Z"/><path d="M111.81655,10.58171a1.63306,1.63306,0,0,1,.15585-.187c2.71115-1.97209,2.769-2.03373,5.20486.247,12.54825,11.749,17.16174,26.1523,12.64948,42.68344-4.51305,16.534-15.789,26.72072-32.60169,30.27134A39.15782,39.15782,0,0,1,68.0478,78.579c-.374-.22612-.7395-.46624-1.13278-.71488a7.59029,7.59029,0,0,1,6.52984-.20269c20.70578,9.58183,47.37241-1.37267,53.366-25.94629,3.99141-16.36467-1.21521-29.98792-14.30238-40.58558C112.2932,10.95522,112.07419,10.78552,111.81655,10.58171Z"/><path d="M108.38513,6.02637c-.35851.22344-.70364.4727-1.07753.66645a31.65828,31.65828,0,0,0-12.79,11.65024A48.77092,48.77092,0,0,0,87.978,36.48413c-.794,5.16456-1.17943,10.43712-2.49238,15.467A34.0071,34.0071,0,0,1,68.51819,73.6095a12.10225,12.10225,0,0,1-6.8928,1.62363c-.25906-.01762-.51551-.07362-1.11828-.16293.58549-.38707.88206-.61993,1.20972-.79444q16.85387-8.97636,19.60611-27.86929c.74988-5.09228,1.2929-10.239,2.44356-15.24288,1.907-8.29312,5.83214-15.52826,12.55378-21.01708a18.53247,18.53247,0,0,1,8.54441-4.37056,27.406,27.406,0,0,1,3.404-.17161Z"/><path d="M62.05527,70.04139l-2.77633,1.77426C46.15456,59.18049,42.11815,36.33494,54.3941,18.43956,67.498-.6627,91.20079-3.84544,107.01073,4.06421a52.09991,52.09991,0,0,1-5.85034,1.04413,12.55925,12.55925,0,0,1-3.36573-.75043A38.716,38.716,0,0,0,51.0083,35.52806c-2.17382,12.768,1.35668,23.95052,10.09439,33.49706C61.39448,69.34391,61.69364,69.656,62.05527,70.04139Z"/><path d="M64.79529,68.21011c-.25745.20216-.40487.33152-.566.44062-.16136.10926-.33642.19826-.49152.28805a36.79812,36.79812,0,0,1-5.96121-46.1453C67.95327,6.42035,86.35109,3.01815,98.00389,6.43443a2.79259,2.79259,0,0,1-2.616.72163c-19.14288-3.5913-38.29162,9.88851-41.253,29.053-1.87363,12.12507,1.53358,22.59468,10.08282,31.39255C64.3838,67.77254,64.546,67.94728,64.79529,68.21011Z"/><path d="M.48721,111.16132H177.94082l-.00009.27629H.48712Z"/><path d="M177.91858,91.21374H.49952l-.00031-.2375H177.91841Z"/><path d="M57.20405,94.046H51.89433l-.01444-.40088a3.94763,3.94763,0,0,1,.80064-.16878c3.55692-.01209,7.11426-.0325,10.67036.02218a1.76452,1.76452,0,0,1,1.19677.70933c1.44534,2.05909,2.82018,4.16762,4.22277,6.25681.218.32469.45623.63577.8031,1.11677.84352-1.25,1.614-2.38862,2.38121-3.52945.89159-1.3258,1.75859-2.669,2.6858-3.96936a4.15514,4.15514,0,0,1,.979-.74539l.25726.28072a55.06069,55.06069,0,0,1-3.35269,4.90371,10.31158,10.31158,0,0,0-2.55966,8.48171,12.04776,12.04776,0,0,1,.01079,1.66233l-.34743.19485c-.182-.26807-.51277-.53145-.5214-.805-.05035-1.59705.01709-3.19823-.04843-4.79419a3.4304,3.4304,0,0,0-.49572-1.65218c-1.45189-2.2475-2.94045-4.47344-4.49585-6.65a2.1063,2.1063,0,0,0-1.41849-.73117c-1.46668-.09564-2.9436-.0342-4.54984-.0342-.02488.55884-.06285,1.0221-.06341,1.48541-.00479,3.99658.00687,7.99323-.019,11.98965a3.93631,3.93631,0,0,1-.35357,1.10924,3.63044,3.63044,0,0,1-.43779-1.15089c-.03267-3.95635-.02019-7.91307-.0203-11.86969C57.204,95.28858,57.20405,94.81956,57.20405,94.046Z"/><path d="M88.04607,94.929q0,2.25339,0,4.50679c-.00016,2.798.0128,5.59613-.01874,8.39377a2.87544,2.87544,0,0,1-.39412.95344,2.88959,2.88959,0,0,1-.39105-.95983c-.02542-4.5166-.01775-9.03341-.01306-13.55016.00024-.23273.046-.46542.11729-1.14005a6.90162,6.90162,0,0,1,1.50111,1.14241c2.713,3.952,5.37919,7.93624,8.06145,11.90942.239.354.496.6959.9393,1.31561.0351-.7053.07271-1.115.0732-1.52484.00462-3.83725-.00824-7.67458.0215-11.51159a3.31579,3.31579,0,0,1,.407-1.059l.38506.132v15.18566l-.266.2697a5.96228,5.96228,0,0,1-1.2632-1.04768c-2.75265-4.02171-5.46336-8.07212-8.187-12.1137-.21875-.32461-.44292-.64556-.66458-.9682Z"/><path d="M112.27632,97.85492c-.19316-.21828-.47971-.40515-.56527-.65961a5.11228,5.11228,0,0,0-7.61236-2.60791A2.92435,2.92435,0,0,0,102.715,97.336a2.43209,2.43209,0,0,0,1.66875,2.28483c1.19363.43372,2.44742.70137,3.67406,1.04489.84336.23618,1.70734.42022,2.52223.73183a3.3585,3.3585,0,0,1,2.39795,3.1156A3.68951,3.68951,0,0,1,110.881,108.361a7.47746,7.47746,0,0,1-7.44024-.32843,4.27709,4.27709,0,0,1-2-4.12441l.34573-.19222c.16.256.43239.4998.462.77012a3.85962,3.85962,0,0,0,2.96054,3.52649c2.06078.60262,4.14163.72253,5.90447-.79033a2.95731,2.95731,0,0,0-.69246-4.969,27.951,27.951,0,0,0-3.77331-1.109,25.73653,25.73653,0,0,1-2.631-.7839,3.12186,3.12186,0,0,1-2.142-2.77466,3.63855,3.63855,0,0,1,1.566-3.53506,7.18279,7.18279,0,0,1,7.48607.20547,4.18431,4.18431,0,0,1,1.6341,3.3143Z"/><path d="M14.7761,107.99489c3.14327.18435,6.17271-.08383,9.16861.15275l-.02252.52507H13.91447V93.64782c1.80948-.45079,9.481-.24889,10.133.45244H14.81275v6.39221h8.53166l.03414.42556c-.81321.53844-1.79915.18007-2.69307.24038-.95539.06445-1.91849.01452-2.87822.01452H14.7761Z"/><path d="M168.26767,93.4694c3.10061,0,6.16605-.00229,9.2315.00471a4.40529,4.40529,0,0,1,.67608.10447l.07682.33556a3.848,3.848,0,0,1-.96252.26717c-2.23771.02369-4.4758.01269-6.71376.01281-.43392,0-.86783,0-1.40341,0V100.42c2.85643.06245,5.71291-.02789,8.55768.05025l-.01938.623h-8.55526v6.89808c.44187.02152.8989.06163,1.35608.063,2.23793.00687,4.476-.00789,6.71373.01555a4.55238,4.55238,0,0,1,1.03233.25492l-.0766.35778h-9.9133Z"/><path d="M142.71895,93.38777c.14568.31552.41341.62938.41771.94682.03466,2.55844.01837,5.11756.02106,7.67646.00054.51965-.00255,1.04032.02682,1.55878.2043,3.60613,2.73338,5.49825,6.23506,4.67227,2.11017-.49775,3.317-1.99,3.39054-4.48912.09053-3.07616.0336-6.15647.07566-9.2345a4.07693,4.07693,0,0,1,.35133-1.11571l.40365.10577a4.236,4.236,0,0,1,.10263.65893c.004,3.03867.06541,6.07921-.01941,9.11561-.1343,4.80727-3.22305,6.56629-7.78167,5.58819a4.339,4.339,0,0,1-3.41914-3.89273,29.12323,29.12323,0,0,1-.24924-4.17636c-.03677-2.394-.01017-4.7889-.01017-7.18343Z"/><path d="M37.04651,108.91861c-.27511-.26578-.66262-.48223-.80484-.80633-.48069-1.09545-.902-2.21958-1.29066-3.35177a1.15781,1.15781,0,0,0-1.28885-.94006c-1.838.05291-3.68042-.02672-5.51641.05355a1.55925,1.55925,0,0,0-1.09525.7697c-.53825,1.11031-.90685,2.30157-1.40513,3.4333a3.65546,3.65546,0,0,1-.76553.84824l-.32933-.25c.26325-.69264.52026-1.38774.79079-2.07754,1.61795-4.12542,3.23037-8.25307,4.8766-12.36719.12181-.3044.486-.69405.75262-.706.256-.01144.6633.36522.77891.65974,1.8809,4.79147,3.72594,9.597,5.57908,14.39941Zm-2.76189-5.89029-3.268-8.80119-3.3893,8.80119Z"/><path d="M50.31613,99.22594c0,1.63642.09913,3.28014-.02087,4.90772-.24132,3.273-2.25,4.98159-5.68778,4.99022-3.34616.0084-5.37108-1.69377-5.543-4.96978-.1714-3.26629-.10413-6.54563-.10666-9.81927-.00022-.28055.26143-.5613.40143-.84195.13945.27349.39677.54559.4.82069.031,2.63543.01042,5.27141.0259,7.90711a13.07624,13.07624,0,0,0,.1396,1.90636c.56472,3.66909,3.75251,5.353,7.13484,3.78577a3.8136,3.8136,0,0,0,2.29979-3.40237c.16383-3.14574.13674-6.30108.23079-9.45119a7.661,7.661,0,0,1,.37853-1.56789,7.04022,7.04022,0,0,1,.41814,1.54206c.05881,1.39528.02009,2.79468.02009,4.19244Z"/><path d="M113.98907,93.56339c3.74023-.38786,10.943-.15883,11.59423.54577H120.1881V108.6114c-.91889.11839-.93541.11843-.93776-.75419-.008-2.9554-.00316-5.91083-.00322-8.86625,0-1.54823,0-3.09645,0-4.66113-1.83488-.12617-3.5465-.2433-5.25691-.37611C113.98108,93.953,113.98907,93.73172,113.98907,93.56339Z"/><path d="M140.78882,94.06695c-1.66806.30907-3.40228-.0039-5.234.1885V108.6685c-.93885.0296-.95167.02961-.95279-.86286q-.00762-6.051-.00236-12.10208c0-.43677,0-.87353,0-1.4895h-5.25227l-.107-.31737c.16564-.13967.33051-.40017.497-.40123,3.664-.02325,7.3282-.01777,10.99236-.01777Z"/><path d="M160.51366,94.285c-1.88839-.26748-3.63349.15454-5.27357-.40272,1.31377-.67052,10.95226-.50689,11.60635.23323h-5.39383v14.5017c-.9192.11023-.93445.11026-.93608-.76427q-.0098-5.27229-.00287-10.54463C160.51365,96.31947,160.51366,95.33067,160.51366,94.285Z"/><path d="M83.26467,108.71813V93.55147l.334-.16659c.16136.27122.46168.54158.46337.8138q.0433,6.9455-.00031,13.8913c-.00168.26725-.30688.53259-.47082.79882Z"/><path d="M127.39625,108.89587c-.16154-.26528-.46228-.5297-.46392-.796q-.043-6.95727-.00047-13.91481c.00163-.26855.29575-.53533.45375-.80293l.35235.1636v15.0757Z"/><path d="M90.23389,56.54422c2.591,1.06863,4.71264-.05992,6.85638-1.20525a5.78,5.78,0,0,1,4.64057-.47961,3.38041,3.38041,0,0,1,1.34743.95932c-2.64839-1.07362-4.70892.35838-6.92558,1.2972a12.624,12.624,0,0,1-3.82838.76086A1.87783,1.87783,0,0,1,90.23389,56.54422Z"/></svg>