<svg id="Слой_1" data-name="Слой 1" xmlns="http://www.w3.org/2000/svg" viewBox="0 0 250.47 150.83"><defs><style>.cls-1{fill:#1d1d1b;}</style></defs><title>Elan_logo</title><path class="cls-1" d="M.51,126V27.72H53.77v6.42H16.62V68.42H48.17v6.15H16.62V119.9H59.23V126Z"/><path class="cls-1" d="M156.42,27.72H142.76L115.49,119.9H80V27.72H63.87V126h56.27l7.28-24.31h33.51L167.66,126h16.61ZM129,95.59,144.68,42.9l14.79,52.69Z"/><path class="cls-1" d="M188.92,126V27.72h13.52l41.65,78.11V27.72H250V126H237.54L195.06,45.82V126Z"/><path class="cls-1" d="M26.47,18.44H17.73L29.07,0H46.41Z"/><path class="cls-1" d="M51,140.05h2.78c2.17,0,4,.76,4,3.17s-1.84,3.19-3.75,3.19H52.52v4.24H51Zm1.52,5H54a1.91,1.91,0,0,0,2.13-1.87c0-1.34-1.4-1.82-2.34-1.82H52.52Z"/><path class="cls-1" d="M60.21,140.05h2.6c2.1,0,4.12.33,4.12,2.87a2.47,2.47,0,0,1-2.19,2.41v0a1.7,1.7,0,0,1,1,1.06l2,4.22H66L64.42,147c-.45-1-1-1-1.78-1h-.91v4.71H60.21Zm1.52,4.56H63c1.44,0,2.29-.64,2.29-1.66s-.73-1.56-2.13-1.56H61.73Z"/><path class="cls-1" d="M75.41,139.87c3.22,0,5.1,2.34,5.1,5.48s-1.87,5.48-5.1,5.48-5.1-2.26-5.1-5.48S72.19,139.87,75.41,139.87Zm0,9.63c2.45,0,3.49-2,3.49-4.15s-1.15-4.15-3.49-4.15-3.49,2-3.49,4.15S73,149.5,75.41,149.5Z"/><path class="cls-1" d="M83,140.05h5.63v1.34H84.53v3.1h3.93v1.34H84.53v4.83H83Z"/><path class="cls-1" d="M91.11,140.05H97v1.34H92.63v3.1h4v1.34h-4v3.49H97v1.34H91.11Z"/><path class="cls-1" d="M105,141.65a4.68,4.68,0,0,0-2-.44c-.85,0-1.85.3-1.85,1.41,0,2,4.55,1.56,4.55,5.06,0,2.26-1.75,3.16-3.87,3.16a7.05,7.05,0,0,1-2.17-.44l.15-1.41a6.45,6.45,0,0,0,2.2.52,1.9,1.9,0,0,0,2.08-1.73c0-2.37-4.55-1.72-4.55-5,0-1.88,1.49-2.88,3.4-2.88a7.08,7.08,0,0,1,2.26.38Z"/><path class="cls-1" d="M113.54,141.65a4.68,4.68,0,0,0-2-.44c-.85,0-1.85.3-1.85,1.41,0,2,4.56,1.56,4.56,5.06,0,2.26-1.75,3.16-3.87,3.16a7.05,7.05,0,0,1-2.17-.44l.15-1.41a6.45,6.45,0,0,0,2.2.52,1.9,1.9,0,0,0,2.08-1.73c0-2.37-4.55-1.72-4.55-5,0-1.88,1.49-2.88,3.4-2.88a7.08,7.08,0,0,1,2.26.38Z"/><path class="cls-1" d="M116.71,140.05h1.52v10.6h-1.52Z"/><path class="cls-1" d="M125.79,139.87c3.22,0,5.1,2.34,5.1,5.48s-1.87,5.48-5.1,5.48-5.1-2.26-5.1-5.48S122.57,139.87,125.79,139.87Zm0,9.63c2.45,0,3.49-2,3.49-4.15s-1.15-4.15-3.49-4.15-3.49,2-3.49,4.15S123.34,149.5,125.79,149.5Z"/><path class="cls-1" d="M133.34,140.05h2.07l4.68,8.53h0v-8.53h1.52v10.6h-1.94l-4.8-8.72h0v8.72h-1.52Z"/><path class="cls-1" d="M148.62,140.05h1.59l4.48,10.6H153L152,148h-5.19l-1.08,2.67h-1.59Zm.74,1.43-2.11,5.25h4.22Z"/><path class="cls-1" d="M157.09,140.05h1.52v9.26H163v1.34h-6Z"/><path class="cls-1" d="M170.43,140.05h1.52v9.26h4.43v1.34h-6Z"/><path class="cls-1" d="M178.8,140.05h1.52v10.6H178.8Z"/><path class="cls-1" d="M182.78,140.05h2.06l4.68,8.53h0v-8.53h1.52v10.6h-1.94l-4.8-8.72h0v8.72h-1.52Z"/><path class="cls-1" d="M193.53,140.05h5.94v1.34H195v3.1h4v1.34h-4v3.49h4.42v1.34h-5.94Z"/></svg>