<?xml version="1.0" encoding="utf-8"?>
<!-- Generator: Adobe Illustrator 21.0.2, SVG Export Plug-In . SVG Version: 6.00 Build 0)  -->
<svg version="1.1" id="Layer_1" xmlns="http://www.w3.org/2000/svg" xmlns:xlink="http://www.w3.org/1999/xlink" x="0px" y="0px"
	 viewBox="0 0 185.4 92.6" style="enable-background:new 0 0 185.4 92.6;" xml:space="preserve">
<title>orising</title>
<g>
	<path d="M25.5,0c7.3,0,13.3,2.3,18,6.8s7,10.3,7,17.4c0,7.5-2.4,13.7-7.1,18.5s-10.7,7.2-18.1,7.2c-7.5,0-13.6-2.3-18.3-6.9
		S0,32.4,0,24.9c0-3.3,0.6-6.6,1.8-9.6c1.1-3,2.8-5.7,4.9-8c2.4-2.4,5.2-4.2,8.3-5.4C18.5,0.6,22,0,25.5,0 M23.3,2.2
		c-5.4,0-9.7,1.8-12.9,5.5s-4.8,8.6-4.8,14.8c0,7.1,2,13.1,6.1,18s9.1,7.3,15,7.3c5.1,0.1,10.1-2.1,13.4-6c3.5-4,5.3-9,5.3-15.1
		c0-7-2.1-12.8-6.3-17.5C35.1,4.7,29.3,2.1,23.3,2.2z"/>
	<path d="M67.1,55.9l-1-0.1c-2.2-0.1-4.6-2-7.2-5.7l-1-1.4l-8.5-11.9C54.5,34.4,57,31,57,26.6c0.2-3-1.2-5.8-3.6-7.5
		c-2.4-1.6-5.9-2.4-10.6-2.4c-1.3,0-2.7,0-4.3,0.2c-2.3,0.1-3.9,0.2-4.8,0.2c-1.1,0-2,0-2.7-0.1c-1.3-0.1-2-0.1-2.1-0.1
		c-0.7,0-1,0.2-1,0.6c0,0.3,0.3,0.6,1,0.7l1.4,0.2c2.2,0.3,3.3,2,3.3,5.1l0.1,3v21c0,3.3-0.3,5.5-0.8,6.6c-0.6,1.2-1.9,2-3.2,2.1
		c-0.7,0-0.9,0.2-0.9,0.5c0,0.4,0.3,0.6,0.8,0.6c0.3,0,0.9,0,1.7-0.1c1-0.1,1.8-0.1,2.5-0.1h1.6h2.9c1.8,0,3.1,0,3.9,0.1
		c0.9,0.1,1.5,0.1,1.8,0.1c0.7,0,1.1-0.2,1-0.6c0-0.4-0.4-0.6-1.1-0.7c-1.4,0-2.9-0.5-4.1-1.3c-0.6-0.4-1-1-1.2-1.7
		c-0.2-1.1-0.3-2.3-0.3-3.4v-1.2v-9.1c0-0.5,0.1-0.8,0.4-0.9l0.7-0.1h4.1c1-0.1,1.9,0.4,2.4,1.2l0.4,0.6l7.5,11.2
		c1.2,1.8,2.7,3.4,4.5,4.7c1.5,1,3.2,1.5,5,1.4c1,0,2-0.1,3-0.4c0.9-0.2,1.3-0.5,1.4-0.8C67.7,56.1,67.5,55.9,67.1,55.9z M43.9,36.2
		h-3.5c-0.6,0.1-1.3,0-1.8-0.4c-0.3-0.5-0.5-1.1-0.4-1.7V22.3v-1c-0.1-0.8,0.2-1.5,0.7-2.1c0.8-0.5,1.6-0.7,2.5-0.6
		c2.9-0.1,5.8,0.9,8,2.7c2,1.7,3.2,4.3,3.1,7c0.1,2.2-0.7,4.3-2.3,5.8C48.4,35.6,46.2,36.4,43.9,36.2z"/>
	<path d="M75.6,20.4c0.5,0,1,0.4,1.5,1.2l0.7,1.1c0.2,0.2,0.3,0.5,0.3,0.7c-0.1,0.7-0.5,1.4-1,1.9c-0.7,0.8-1.3,1.2-1.7,1.2
		c-0.4,0-1-0.4-1.6-1.2c-0.5-0.5-0.9-1.1-1-1.8c0.2-0.7,0.6-1.4,1.1-1.9C74.6,20.8,75.2,20.4,75.6,20.4z"/>
	<path d="M77.5,52.1C77.4,53,77.6,54,78,54.9c0.5,0.6,1.3,0.9,2,0.9l1.4,0.1c0.7,0.1,1.1,0.3,1.1,0.8c0,0.3-0.3,0.5-0.8,0.5
		c-0.3,0-1,0-2-0.1c-0.6,0-1.3-0.1-2.1-0.1h-2l-2.2,0.1c-0.3,0-0.6,0-1,0.1c-0.5,0.1-0.9,0.1-1.1,0.1c-0.6,0-0.8-0.2-0.8-0.5
		s0.2-0.5,0.6-0.6l0.6-0.2c0.6-0.2,1.1-0.6,1.4-1.1c0.3-0.8,0.4-1.7,0.4-2.5V39.6c0.1-1.1-0.1-2.2-0.5-3.1c-0.3-0.5-1-0.7-2.1-0.7
		c-0.8,0-1.2-0.2-1.1-0.5c0-0.3,0.5-0.6,1.6-0.9c1.5-0.5,3-1.1,4.4-1.9l1.6-0.7c0.3,0,0.4,0.2,0.4,0.7L77.5,52.1z"/>
	<path d="M115,20.4c0.5,0,1,0.4,1.5,1.2l0.7,1.1c0.2,0.2,0.3,0.5,0.3,0.7c-0.1,0.7-0.5,1.4-1,1.9c-0.7,0.8-1.3,1.2-1.7,1.2
		s-1-0.4-1.6-1.2c-0.5-0.5-0.9-1.1-1-1.8c0.2-0.7,0.6-1.4,1.1-1.9C114,20.8,114.6,20.4,115,20.4z"/>
	<path d="M116.9,52.1c-0.1,0.9,0.1,1.9,0.5,2.8c0.5,0.6,1.3,0.9,2,0.9l1.4,0.1c0.7,0.1,1.1,0.3,1.1,0.8c0,0.3-0.3,0.5-0.8,0.5
		c-0.3,0-1,0-2-0.1c-0.6,0-1.3-0.1-2.1-0.1h-2l-2.2,0.1c-0.3,0-0.6,0-1,0.1c-0.5,0.1-0.9,0.1-1.1,0.1c-0.6,0-0.8-0.2-0.8-0.5
		s0.2-0.5,0.6-0.6l0.6-0.2c0.6-0.2,1.1-0.6,1.4-1.1c0.3-0.8,0.4-1.7,0.4-2.5V39.6c0.1-1.1-0.1-2.2-0.5-3.1c-0.3-0.5-1-0.7-2.1-0.7
		c-0.8,0-1.2-0.2-1.1-0.5c0-0.3,0.5-0.6,1.6-0.9c1.5-0.5,3-1.1,4.4-1.9l1.6-0.7c0.3,0,0.4,0.2,0.4,0.7L116.9,52.1z"/>
	<path d="M94.2,32.4c1.4,0,2.8,0.2,4.2,0.6l1.4,0.4c0.6,0.2,0.8,0.5,0.8,0.9v0.5c0,0.3,0,0.5,0.1,0.8l0.1,1.1
		c0.1,0.4,0.1,0.7,0.1,1.1c0,0.8-0.2,1.1-0.7,1.2c-0.3,0-0.5-0.2-0.7-0.8c-0.8-2.8-3.4-4.6-6.3-4.4c-1.1,0-2.2,0.3-3,1
		c-0.8,0.6-1.2,1.5-1.2,2.5s0.4,2,1.3,2.6c1.6,1,3.3,1.8,5.1,2.4c2,0.6,3.8,1.6,5.3,3c1,1.2,1.6,2.7,1.5,4.3c0,2.2-0.9,4.2-2.6,5.7
		c-1.7,1.5-3.9,2.4-6.1,2.4c-1.9-0.1-3.8-0.5-5.5-1.4c-0.3-0.1-0.6-0.3-0.9-0.3l-0.8-0.1c-0.4,0-0.8-0.3-0.8-0.7l0,0v-1.3l-0.1-3.7
		l0.1-0.9c0.1-0.5,0.3-0.8,0.7-0.8s0.6,0.3,0.7,0.9c0.3,1.9,1.2,3.6,2.5,5c1.2,1.2,2.8,1.8,4.5,1.8c1.3,0.1,2.7-0.4,3.7-1.3
		c0.9-0.8,1.5-2,1.4-3.2c0-2-1.2-3.5-3.4-4.4l-2.7-1.1c-1.9-0.7-3.7-1.8-5.2-3.1c-1-1.1-1.6-2.5-1.5-4c0-1.9,0.9-3.6,2.4-4.7
		C90,33,92.1,32.3,94.2,32.4z"/>
	<path d="M184.8,31.1c-0.2,0-0.4,0.1-0.5,0.3l-0.4,1.1c-0.4,0.7-1,1.2-1.7,1.5c-0.8,0.4-1.6,0.7-2.5,0.7c-0.5-0.1-1.1-0.3-1.5-0.6
		c-2-1.2-4.3-1.8-6.6-1.8c-2.5-0.1-4.9,0.8-6.7,2.5c-1.8,1.6-2.7,3.9-2.7,6.3c-0.2,3,1.4,5.8,4.1,7.2c-2.4,1.6-3.6,3.5-3.6,5.8
		c0.1,1.4,0.9,2.6,2.1,3.3v0.2c-2.9,0.9-4.4,2.6-4.4,4.8c0,1.8,1,3.2,3.1,4.2c2.5,1.2,5.2,1.7,8,1.6c3,0.1,6-0.7,8.6-2.3
		c2.3-1.6,3.5-3.5,3.5-5.7c0.1-1.8-0.9-3.4-2.5-4.1c-1.7-0.8-4.5-1.2-8.6-1.2c-1.9,0.1-3.9-0.1-5.7-0.6c-1-0.3-1.7-1.1-1.7-2.2
		c0-0.8,0.3-1.6,0.9-2.1c0.4-0.6,1.1-1,1.9-1c0.3,0,0.7,0,1,0.1c1.2,0.2,2.4,0.3,3.6,0.3c2.5,0,4.8-0.9,6.7-2.5
		c1.8-1.4,2.8-3.5,2.9-5.8c0-0.8-0.1-1.7-0.3-2.5c-0.1-0.2-0.1-0.4-0.1-0.5c0-0.2,0.2-0.4,0.6-0.5c0.8-0.2,1.4-0.6,1.8-1.3
		c0.4-0.8,0.6-1.5,0.8-2.4c0.2-0.7,0.4-1.5,0.5-2.3C185.3,31.3,185.2,31.1,184.8,31.1z M166.2,58.2c1.2,0.3,2.5,0.5,3.7,0.5l3.3,0.2
		c1.8,0.1,2.9,0.2,3.2,0.2c2.9,0,4.3,0.9,4.3,2.7c0,1.5-0.9,2.8-2.8,3.8c-2.2,1.1-4.6,1.6-7,1.5c-2,0.1-3.9-0.4-5.6-1.3
		c-2-1.2-2.6-3.9-1.4-5.9C164.5,59.2,165.3,58.5,166.2,58.2z M176.5,46.6c-1,1.2-2.5,1.9-4.1,1.9c-1.8,0-3.4-0.9-4.4-2.3
		c-1.2-1.8-1.8-3.9-1.7-6c0-1.7,0.5-3.4,1.6-4.8c0.9-1.2,2.4-2,3.9-2c1.8,0,3.4,0.9,4.4,2.4c1.2,1.7,1.8,3.8,1.8,5.9
		C178.1,43.4,177.6,45.2,176.5,46.6L176.5,46.6z"/>
	<path d="M33,72.1h-4.1v-2.7h11.2v2.7H36v10.8h-3V72.1z"/>
	<path d="M42.3,69.3h6.2c1.4-0.1,2.9,0.4,3.9,1.4c0.8,0.8,1.2,2,1.2,3.1c0.1,1.9-1.1,3.6-2.9,4.2l3.3,4.8h-3.5l-2.9-4.3h-2.3v4.3h-3
		C42.3,82.8,42.3,69.3,42.3,69.3z M48.3,75.9c1.4,0,2.3-0.8,2.3-1.9c0-1.3-0.9-1.9-2.3-1.9h-3V76h3V75.9z"/>
	<path d="M56.4,69.3h3v13.5h-3V69.3z"/>
	<path d="M62.1,76.1c0.1-3.9,3.3-7.1,7.3-7c1.9,0,3.7,0.8,5,2.2l-1.8,2c-0.9-1-2.2-1.5-3.5-1.5C66.8,72,65,74,65.2,76.4
		c0.2,2.1,1.8,3.7,3.9,3.9c1.4,0,2.6-0.6,3.5-1.6l1.9,2c-2.7,2.9-7.3,3.1-10.2,0.4C63,79.8,62.2,78,62.1,76.1z"/>
	<path d="M77,69.3h3v5.3h5.5v-5.3h3v13.5h-3v-5.4H80v5.4h-3V69.3z"/>
	<path d="M91,76.1c-0.1-4,3-7.3,7-7.4c4-0.1,7.3,3,7.4,7c0.1,4-3,7.3-7,7.4c-0.1,0-0.1,0-0.2,0c-3.9,0.1-7.1-3-7.2-6.8
		C91,76.2,91,76.2,91,76.1z M102.3,76.1c0.1-2.3-1.7-4.2-4-4.2h-0.1c-2.2,0-4.1,1.8-4.1,4c0,0.1,0,0.1,0,0.2c-0.1,2.3,1.7,4.2,4,4.2
		h0.1c2.2,0,4.1-1.8,4.1-4C102.3,76.2,102.3,76.2,102.3,76.1z"/>
	<path d="M115.9,75.9c-0.1-3.9,2.9-7.1,6.8-7.2c3.9-0.1,7.1,2.9,7.2,6.8c0.1,3.9-2.9,7.1-6.8,7.2c-0.1,0-0.1,0-0.2,0
		c-3.8,0.1-6.9-2.9-7-6.7C115.9,76.1,115.9,76,115.9,75.9z M126.9,75.9c0.1-2.2-1.7-4.1-3.9-4.1h-0.1c-2.2,0-4,1.8-4,3.9
		c0,0.1,0,0.1,0,0.2c-0.1,2.2,1.7,4.1,3.9,4.1h0.1c2.2,0,4-1.8,4-3.9C126.9,76.1,126.9,76,126.9,75.9L126.9,75.9z"/>
	<path d="M131.9,75.9c0-3.7,3-6.8,6.7-6.8c0.1,0,0.1,0,0.2,0c1.9-0.1,3.8,0.6,5.2,1.8l-1.8,2.2c-0.9-0.9-2.2-1.4-3.4-1.3
		c-2.3,0.2-4,2.2-3.8,4.5c0.2,2.1,1.9,3.7,4,3.8c1,0,1.9-0.2,2.7-0.8v-1.9h-2.9v-2.5h5.7v5.7c-1.6,1.4-3.6,2.1-5.6,2.1
		c-3.6,0.2-6.8-2.6-6.9-6.3C131.9,76.3,131.9,76.1,131.9,75.9z"/>
	<path d="M150.4,77.3l-5.1-8h3.4l3.1,5.3l3.2-5.3h3.3l-5.1,7.9v5.3h-2.9L150.4,77.3z"/>
	<path d="M157.5,55.9l-1.3-0.2c-1.3,0-2.4-1-2.6-2.3l-0.1-1.4v-0.9v-7c0-3.6-0.7-6.2-2-8c-1.8-2.5-4.7-3.9-7.8-3.8
		c-3,0-5.8,1.5-8.5,4.6v-3.2c0-0.4,0-0.8,0-1.1c0-0.6-0.1-0.8-0.5-0.8c-0.3,0-0.5,0.1-0.7,0.2c-0.2,0.1-0.6,0.3-1.2,0.6l-1.6,0.8
		c-1.3,0.6-2.6,1-4,1.2c-0.5,0.1-0.8,0.3-0.8,0.6c0,0.2,0.1,0.3,0.3,0.4s0.3,0.1,0.5,0.1h1.3c0.7-0.1,1.5,0.2,2,0.7
		c0.4,0.9,0.6,1.9,0.5,2.8v13.2c0.1,0.9-0.1,1.7-0.5,2.5c-0.6,0.6-1.3,1.1-2.1,1.3c-0.4,0.1-0.6,0.3-0.6,0.6c0,0.3,0.2,0.5,0.6,0.5
		c0.2,0,0.6,0,1.2-0.1c0.6-0.1,2.6-0.1,5.8-0.1c1.5,0,2.5,0,2.9,0.1c0.5,0.1,1,0.1,1.6,0.2c0.5,0,0.7-0.2,0.7-0.5s-0.3-0.6-1-0.6
		c-2.7-0.2-4.2-1-4.3-2.7v-1.5v-0.9V39.8c0.1-1.4,0.8-2.6,2-3.3c1.3-1,2.9-1.5,4.5-1.4c2.1-0.1,4.1,0.7,5.6,2.2c1.4,1.8,2.1,4,2,6.3
		v10.1c0,1.2-0.4,1.9-1.2,2.1l-0.9,0.2c-0.4,0.1-0.6,0.3-0.6,0.6c0,0.2,0.1,0.3,0.2,0.4l0.4,0.1l0.9-0.1h1.2l3-0.1
		c1.2,0,2.5,0,3.7,0.1c0.6,0.1,1,0.1,1.2,0.1c0.7,0,1-0.2,1-0.6C158.3,56.2,158,56,157.5,55.9z"/>
	<path d="M115.7,85.6v0.8c0,2.8-2.3,5-5,5c-2.8,0-5-2.3-5-5l0,0v-0.8H29.1v1.2h75.3c0.3,3.5,3.3,6.1,6.7,5.8
		c3.1-0.2,5.6-2.7,5.8-5.8h40.8v-1.2H115.7z"/>
	<path d="M110.6,90.6c2.4,0,4.3-1.9,4.3-4.3c0-2-1.3-3.7-3.2-4.2c0-0.1,0-0.2-0.1-0.3c-0.1-0.4-0.2-1-0.3-1.5
		c-0.1-0.6-0.2-1.2-0.3-1.8l-0.1-1c0-0.4-0.1-0.7-0.1-1.1c0-0.4,0-0.7,0-1.1c0-0.4,0-0.8,0.1-1.1c0-0.8,0.1-1.6,0.2-2.3
		c0-0.4,0.1-0.8,0.2-1.2c0.1-0.4,0.2-0.8,0.2-1.2c0.2-0.8,0.4-1.5,0.6-2.2c0.2-0.7,0.5-1.4,0.8-2c0.1-0.2,0.1-0.3,0.2-0.5
		c0.1-0.2,0.1-0.3,0.2-0.4c0.1-0.3,0.3-0.6,0.4-0.8c0.2-0.5,0.5-1,0.8-1.5c0.3-0.4,0.5-0.8,0.7-1.1l0.6-1l-0.7,0.9
		c-0.2,0.3-0.5,0.6-0.8,1c-0.4,0.4-0.7,0.9-1,1.4c-0.2,0.3-0.4,0.5-0.5,0.8c-0.1,0.1-0.2,0.3-0.3,0.4l-0.3,0.5
		c-0.3,0.6-0.7,1.3-1.1,2c-0.3,0.7-0.7,1.4-1,2.2c-0.1,0.4-0.3,0.8-0.4,1.2c-0.2,0.4-0.3,0.8-0.4,1.2c-0.2,0.8-0.5,1.6-0.6,2.5
		c-0.1,0.4-0.2,0.8-0.2,1.2c-0.1,0.4-0.1,0.8-0.2,1.2c-0.1,0.4-0.1,0.8-0.1,1.2s0,0.8-0.1,1.1c0,0.7,0,1.4,0,2.1
		c0,0.6,0.1,1.2,0.1,1.8c0,0.1,0,0.1,0,0.2c-2,1.2-2.7,3.9-1.4,5.9C107.7,89.8,109.1,90.6,110.6,90.6L110.6,90.6z"/>
</g>
</svg>
