<?xml version="1.0" encoding="utf-8"?>
<!-- Generator: Adobe Illustrator 21.0.2, SVG Export Plug-In . SVG Version: 6.00 Build 0)  -->
<svg version="1.1" id="Layer_1" xmlns="http://www.w3.org/2000/svg" xmlns:xlink="http://www.w3.org/1999/xlink" x="0px" y="0px"
	 viewBox="0 0 311.5 193.4" style="enable-background:new 0 0 311.5 193.4;" xml:space="preserve">
<g>
	<path d="M131.9,54.1c-0.6,0-0.9,0-0.9,0.3c0,0.2,0.2,0.3,0.4,0.3h0c0.2,0,0.5,0,0.7,0c4.5,0,7.7-2.9,7.7-7c0-1.5-0.8-2.8-1.6-3.5
		c-0.5-0.5-1.9-1.7-5.8-1.7c-0.8,0-1.8,0-2.6,0.1c-0.5,0-1,0-1.3,0c-0.1,0-0.3,0-0.6,0c-0.7,0-1.9-0.1-2.9-0.1c-0.3,0-0.6,0-0.6,0.3
		c0,0.1,0.1,0.3,0.3,0.3c0.3,0,0.8,0,1,0.1c1,0.2,1.2,0.7,1.3,1.6c0.1,0.9,0.1,1.8,0.1,6.3v5.2c0,2.9,0,5.1-0.2,6.3
		c-0.1,0.9-0.3,1.4-0.8,1.5c-0.2,0-0.6,0.1-0.9,0.1c-0.2,0-0.3,0.1-0.3,0.3c0,0.3,0.4,0.3,0.6,0.3c0.7,0,2-0.1,2.6-0.1
		c0.2,0,0.3,0,0.3,0c0,0,0.2,0,0.4,0c0.7,0,2.1,0.1,3.4,0.1c0.5,0,0.6-0.2,0.6-0.3c0-0.1-0.1-0.3-0.3-0.3c-0.3,0-0.9-0.1-1.4-0.1
		c-0.8-0.1-1-0.6-1.1-1.5c-0.2-1.2-0.2-3.5-0.2-6.3v-12c0-0.4,0.1-0.5,0.2-0.5c0.3-0.1,0.8-0.2,1.3-0.2l0.3,0c1,0,2.5,0.1,3.9,1.4
		c1.7,1.6,1.7,3.8,1.7,4.5C137.2,52,134.9,54.1,131.9,54.1z"/>
	<path d="M143.8,48.2L143.8,48.2c0.4,1,3.8,7.7,4.1,8.3l0.2,0.3c1.8,3.5,3,5.6,3.5,6.5l0.1,0.1c0.6,1,0.7,1.3,1,1.3
		c0.3,0,0.4-0.2,0.9-1.2l7.8-15.6l1.5,15c0.1,0.7,0,1-0.1,1c-0.1,0-0.3,0.1-0.3,0.3c0,0.2,0.2,0.3,0.9,0.4c1.2,0.1,4.5,0.2,5.2,0.2
		c0.5,0,0.7-0.1,0.7-0.3c0-0.2-0.2-0.2-0.3-0.2c-0.3,0-1.1,0-2-0.3c-1.3-0.4-1.5-2.1-1.6-3l-2.1-18c-0.1-0.5-0.2-0.9-0.4-0.9
		c-0.3,0-0.4,0.3-0.5,0.5l-9.1,18.3l-9.4-18.3c-0.1-0.3-0.3-0.5-0.5-0.5c-0.2,0-0.4,0.2-0.4,0.6l-2.2,19.1l0,0.1
		c-0.1,1.1-0.2,2.1-1.2,2.3c-0.5,0.1-0.7,0.1-0.9,0.1c-0.2,0-0.4,0.1-0.4,0.2c0,0.3,0.5,0.3,0.6,0.3c0.5,0,1.3,0,1.9-0.1
		c0.3,0,0.6,0,0.7,0c0.1,0,0.3,0,0.6,0c0.6,0,1.5,0.1,2.3,0.1c0.3,0,0.6,0,0.6-0.3c0-0.1-0.2-0.2-0.3-0.2c-0.2,0-0.6,0-1.2-0.1
		c-0.4-0.1-0.7-0.4-0.7-0.8c0-0.5,0-1,0-1.5L143.8,48.2z"/>
	<path d="M170.9,44.7c0.1-1.1,0.4-1.5,1.1-1.6c0.4-0.1,0.5-0.1,0.8-0.1c0.2,0,0.3-0.1,0.3-0.3c0-0.3-0.3-0.3-0.6-0.3
		c-0.6,0-1.6,0-2.3,0.1c-0.4,0-0.7,0-0.8,0c-0.1,0-0.3,0-0.7,0c-0.7,0-1.9-0.1-2.9-0.1c-0.3,0-0.6,0-0.6,0.3c0,0.1,0.1,0.3,0.3,0.3
		c0.3,0,0.8,0,1,0.1c1,0.2,1.2,0.7,1.3,1.6c0.1,0.9,0.1,1.8,0.1,6.3v4.3c0,4.7,1.5,6.6,2.7,7.8c2,1.8,4.9,2.1,6.4,2.1
		c1.6,0,4.1-0.2,6.4-2.2c2.6-2.1,2.9-5.8,2.9-8.8V51c0-4.6,0-5.4,0.1-6.3c0.1-1.1,0.3-1.4,1.1-1.6c0.4-0.1,0.6-0.1,0.8-0.1
		c0.2,0,0.3-0.1,0.3-0.3c0-0.3-0.3-0.3-0.6-0.3c-0.6,0-1.5,0-2.1,0.1c-0.3,0-0.5,0-0.5,0c0,0-0.2,0-0.4,0c-0.6,0-1.8-0.1-2.9-0.1
		c-0.3,0-0.6,0-0.6,0.3c0,0.1,0.1,0.3,0.3,0.3c0.3,0,0.8,0,1,0.1c1,0.2,1.2,0.7,1.3,1.6c0.1,0.9,0.1,1.8,0.1,6.3v3.7
		c0,3.5-0.5,5.7-1.8,7.1c-1.1,1.3-3,2.1-4.8,2.1c-1.8,0-3.1-0.3-4.6-1.6c-1.1-1-2.3-2.7-2.3-7.2V51
		C170.8,46.5,170.8,45.7,170.9,44.7z"/>
	<path d="M127.9,87.4l1.1,0.9c0.8,0.6,1.5,1.1,2.3,1.7c0.8,0.5,1.6,1,2.4,1.5c0.4,0.2,0.8,0.5,1.2,0.7l1.3,0.6
		c0.9,0.4,1.7,0.9,2.6,1.2c1.8,0.7,3.6,1.4,5.5,1.8l1.4,0.4c0.5,0.1,0.9,0.2,1.4,0.3l2.9,0.5l0.7,0.1l0.7,0l1.4,0.1l1.4,0.1l0.7,0
		c0.3,0,0.5,0,0.8,0c1.9-0.1,3.9-0.1,5.8-0.5l1.4-0.2c0.5-0.1,1-0.2,1.4-0.3l2.8-0.7c3.7-1.2,7.3-2.6,10.5-4.8l1.2-0.7
		c0.4-0.3,0.8-0.6,1.2-0.8c0.8-0.6,1.5-1.1,2.3-1.7c0.7-0.6,1.4-1.3,2.1-1.9l1-1l0.9-1c0.6-0.7,1.3-1.4,1.9-2.1
		c0.6-0.7,1.1-1.5,1.7-2.2c0.3-0.4,0.6-0.7,0.8-1.1l0.7-1.2c0.5-0.8,1-1.6,1.4-2.4c0.4-0.8,0.8-1.6,1.2-2.5l0.6-1.2l0.5-1.3
		c0.3-0.8,0.6-1.7,0.9-2.5c0.2-0.9,0.4-1.7,0.7-2.6c0.5-1.7,0.7-3.4,0.9-5.1c0.2-0.9,0.1-1.7,0.2-2.5c0-0.8,0.1-1.7,0.1-2.5
		c-0.1-6.7-1.6-12.9-4.1-18.2c-2.5-5.2-5.9-9.5-9.3-12.7c-3.4-3.2-6.9-5.4-9.9-7c-3-1.5-5.5-2.3-7.2-2.8c-1.7-0.5-2.7-0.7-2.7-0.7
		s0.9,0.3,2.6,0.8c1.7,0.5,4.1,1.5,7.1,3c2.9,1.6,6.3,3.9,9.6,7.1c3.3,3.2,6.4,7.5,8.8,12.6c2.3,5.1,3.7,11.3,3.7,17.7
		c0,0.8-0.1,1.6-0.1,2.5c-0.1,0.8-0.1,1.7-0.2,2.5c-0.3,1.6-0.5,3.3-1,4.9c-0.2,0.8-0.4,1.6-0.7,2.5c-0.3,0.8-0.6,1.6-0.9,2.4
		l-0.4,1.2l-0.6,1.2c-0.4,0.8-0.8,1.6-1.1,2.4c-0.4,0.8-0.9,1.5-1.4,2.3l-0.7,1.1c-0.2,0.4-0.5,0.7-0.8,1.1
		c-0.5,0.7-1.1,1.4-1.6,2.1c-0.6,0.7-1.2,1.3-1.8,2l-0.9,1l-1,0.9c-0.7,0.6-1.4,1.2-2,1.8c-0.7,0.5-1.5,1.1-2.2,1.6
		c-0.4,0.3-0.7,0.6-1.1,0.8l-1.2,0.7c-3.1,2-6.6,3.4-10.1,4.5l-2.7,0.7c-0.4,0.1-0.9,0.2-1.4,0.3l-1.4,0.2c-1.8,0.4-3.7,0.4-5.6,0.5
		l-0.7,0l-0.7,0l-1.4-0.1l-1.4-0.1l-0.7,0l-0.7-0.1l-2.7-0.4c-0.5-0.1-0.9-0.2-1.4-0.3l-1.4-0.3c-1.8-0.4-3.6-1.1-5.3-1.7
		c-0.9-0.3-1.7-0.8-2.5-1.2l-1.3-0.6c-0.4-0.2-0.8-0.5-1.2-0.7c-0.8-0.5-1.6-1-2.4-1.4c-0.7-0.5-1.5-1.1-2.2-1.6l-1.1-0.8l-1-0.9
		c-0.7-0.6-1.4-1.2-2-1.8c-0.6-0.7-1.2-1.3-1.8-2c-0.3-0.3-0.6-0.6-0.9-1l-0.8-1.1c-0.5-0.7-1.1-1.4-1.6-2.1
		c-0.5-0.8-0.9-1.5-1.4-2.3c-0.2-0.4-0.5-0.7-0.7-1.1l-0.6-1.2c-0.4-0.8-0.8-1.6-1.1-2.3c-0.3-0.8-0.6-1.6-0.9-2.4l-0.5-1.2
		c-0.1-0.4-0.2-0.8-0.3-1.2c-0.2-0.8-0.4-1.6-0.6-2.4c-0.2-0.8-0.3-1.6-0.4-2.5c-0.1-0.8-0.3-1.6-0.4-2.4c0-0.8-0.1-1.6-0.1-2.4
		l-0.1-1.2c0-0.3,0-0.8,0-1.2c0-0.8,0.1-1.6,0.1-2.4c0.1-0.8,0.2-1.5,0.3-2.3c0.1-0.8,0.2-1.5,0.3-2.3c0.2-0.7,0.3-1.5,0.5-2.2
		c0.2-0.7,0.4-1.4,0.6-2.1c0.4-1.4,0.9-2.8,1.4-4.1c0.2-0.7,0.6-1.3,0.9-1.9c0.3-0.6,0.6-1.2,0.9-1.8c0.7-1.2,1.3-2.3,2.1-3.4
		c0.8-1.1,1.4-2.1,2.2-3c0.8-1,1.5-1.9,2.4-2.7c3.2-3.4,6.5-5.7,9.4-7.4c2.9-1.6,5.3-2.7,7-3.3c1.7-0.6,2.6-0.9,2.6-0.9
		s-0.9,0.3-2.6,0.8c-1.7,0.5-4.2,1.5-7.1,3c-2.9,1.6-6.3,4-9.7,7.3c-3.3,3.3-6.6,7.6-8.9,13c-0.5,1.3-1.1,2.7-1.5,4.2
		c-0.2,0.7-0.5,1.4-0.7,2.2c-0.2,0.8-0.3,1.5-0.5,2.3c-0.2,0.8-0.3,1.5-0.4,2.3c-0.1,0.8-0.2,1.6-0.3,2.4c0,0.8-0.1,1.6-0.1,2.4
		c0,0.4-0.1,0.8,0,1.2l0.1,1.2c0,0.8,0.1,1.7,0.1,2.5c0,0.8,0.2,1.7,0.3,2.5c0.1,0.8,0.2,1.7,0.4,2.5c0.2,0.8,0.4,1.7,0.6,2.5
		c0.1,0.4,0.2,0.9,0.3,1.3l0.4,1.2c0.3,0.8,0.6,1.7,0.9,2.5c0.4,0.8,0.8,1.6,1.2,2.4l0.6,1.2c0.2,0.4,0.5,0.8,0.7,1.2
		c0.5,0.8,0.9,1.6,1.4,2.4c0.5,0.8,1.1,1.5,1.6,2.2l0.8,1.1c0.3,0.4,0.6,0.7,0.9,1c0.6,0.7,1.3,1.4,1.9,2.1c0.7,0.7,1.4,1.3,2.1,1.9
		L127.9,87.4z"/>
	<path d="M135,20.6l-1.1,0.7c-0.4,0.2-0.7,0.5-1,0.8l-2.1,1.6c-0.6,0.6-1.3,1.2-1.9,1.7l-0.9,0.9l-0.9,0.9c-0.6,0.6-1.1,1.2-1.7,1.9
		c-0.5,0.7-1,1.4-1.5,2c-0.2,0.3-0.5,0.7-0.7,1l-0.6,1.1c-0.4,0.7-0.9,1.4-1.3,2.1c-0.4,0.7-0.7,1.5-1.1,2.2l-0.5,1.1l-0.4,1.1
		c-0.3,0.8-0.5,1.5-0.8,2.3c-0.2,0.8-0.4,1.5-0.6,2.3c-0.4,1.5-0.6,3.1-0.8,4.6c-0.1,0.8-0.1,1.5-0.2,2.3c0,0.8-0.1,1.5-0.1,2.2
		c0.1,6.1,1.5,11.7,3.7,16.4c2.3,4.7,5.3,8.6,8.4,11.5c3.1,2.9,6.2,4.9,8.9,6.3c2.7,1.3,5,2.1,6.5,2.5c1.6,0.4,2.4,0.6,2.4,0.6
		s-0.8-0.2-2.4-0.7c-1.5-0.5-3.7-1.4-6.4-2.7c-2.6-1.5-5.7-3.5-8.7-6.4c-3-2.9-5.8-6.8-8-11.4c-2.1-4.6-3.4-10.2-3.4-16
		c0-0.7,0.1-1.5,0.1-2.2c0.1-0.7,0.1-1.5,0.2-2.2c0.3-1.5,0.4-3,0.9-4.4c0.2-0.7,0.4-1.5,0.6-2.2c0.3-0.7,0.5-1.5,0.8-2.2l0.4-1.1
		l0.5-1.1c0.3-0.7,0.7-1.4,1-2.1c0.4-0.7,0.8-1.4,1.2-2l0.6-1c0.2-0.3,0.5-0.6,0.7-1c0.5-0.6,1-1.3,1.5-1.9c0.5-0.6,1.1-1.2,1.6-1.8
		l0.8-0.9l0.9-0.8l1.8-1.7l2-1.5c0.3-0.2,0.7-0.5,1-0.7l1.1-0.6c2.8-1.8,5.9-3.1,9.1-4.1l2.5-0.6c0.8-0.2,1.7-0.3,2.5-0.4
		c1.7-0.3,3.4-0.3,5-0.4l0.6,0l0.6,0l1.3,0.1c0.9,0.1,1.7,0,2.6,0.2l2.5,0.4c0.8,0.1,1.6,0.4,2.5,0.6c1.7,0.3,3.2,1,4.8,1.6
		c0.8,0.3,1.5,0.7,2.3,1.1c0.8,0.4,1.5,0.7,2.2,1.2l2.1,1.3l2,1.5l1,0.7l0.9,0.8c0.6,0.6,1.2,1.1,1.8,1.7c0.6,0.6,1.1,1.2,1.6,1.8
		c0.3,0.3,0.6,0.6,0.8,0.9l0.7,1c0.5,0.6,1,1.3,1.4,1.9c0.4,0.7,0.8,1.4,1.2,2c0.2,0.3,0.4,0.7,0.6,1L189,37c0.3,0.7,0.7,1.4,1,2.1
		c0.3,0.7,0.5,1.5,0.8,2.2l0.4,1.1c0.1,0.4,0.2,0.7,0.3,1.1c0.2,0.7,0.4,1.5,0.6,2.2c0.2,0.7,0.3,1.5,0.4,2.2
		c0.1,0.7,0.3,1.5,0.3,2.2c0,0.7,0.1,1.5,0.1,2.2l0.1,1.1c0,0.3,0,0.7,0,1.1c0,0.7-0.1,1.5-0.1,2.2c0,0.7-0.2,1.4-0.2,2.1
		c-0.1,0.7-0.1,1.4-0.3,2c-0.1,0.7-0.3,1.3-0.4,2c-0.1,0.7-0.4,1.3-0.5,1.9c-0.3,1.3-0.9,2.5-1.3,3.7c-1.9,4.7-4.8,8.6-7.6,11.6
		c-2.9,3-5.9,5.2-8.5,6.7c-2.6,1.5-4.8,2.4-6.3,2.9c-1.5,0.5-2.4,0.8-2.4,0.8s0.8-0.2,2.4-0.7c1.5-0.5,3.8-1.3,6.5-2.8
		c2.6-1.5,5.7-3.6,8.7-6.6c3-3,6-6.9,8-11.7c0.5-1.2,1-2.4,1.4-3.8c0.2-0.7,0.4-1.3,0.6-2c0.1-0.7,0.3-1.4,0.5-2.1
		c0.2-0.7,0.3-1.4,0.4-2.1c0.1-0.7,0.2-1.4,0.3-2.2c0-0.7,0.1-1.4,0.1-2.2c0-0.4,0.1-0.7,0-1.1l0-1.1c0-0.8-0.1-1.5-0.1-2.3
		c0-0.8-0.2-1.5-0.3-2.3c-0.1-0.8-0.2-1.5-0.4-2.3c-0.2-0.8-0.4-1.5-0.6-2.3c-0.1-0.4-0.2-0.8-0.3-1.2l-0.4-1.1
		c-0.3-0.8-0.5-1.5-0.8-2.3c-0.3-0.7-0.7-1.5-1-2.2l-0.5-1.1c-0.2-0.4-0.4-0.7-0.6-1.1c-0.4-0.7-0.9-1.4-1.3-2.1
		c-0.5-0.7-1-1.3-1.5-2l-0.8-1c-0.3-0.3-0.6-0.6-0.8-0.9c-0.6-0.6-1.1-1.3-1.7-1.9c-0.6-0.6-1.2-1.2-1.9-1.7l-0.9-0.9l-1-0.8
		l-2.1-1.5l-2.2-1.4c-0.7-0.5-1.5-0.9-2.3-1.2c-0.8-0.4-1.6-0.8-2.4-1.1c-1.6-0.6-3.3-1.3-5-1.6c-0.9-0.2-1.7-0.5-2.6-0.6l-2.6-0.4
		c-0.9-0.2-1.7-0.1-2.6-0.2l-1.3-0.1l-0.6,0c-0.3,0-0.5,0-0.7,0c-1.8,0.1-3.5,0.1-5.3,0.5c-0.9,0.2-1.8,0.2-2.6,0.5l-2.5,0.7
		C141.1,17.4,137.9,18.7,135,20.6z"/>
	<path d="M155.2,27.9c1.5,0,2.7-1.2,2.7-2.7c0-1.5-1.2-2.7-2.7-2.7c-1.5,0-2.7,1.2-2.7,2.7C152.5,26.6,153.7,27.9,155.2,27.9z"/>
	<circle cx="163.9" cy="26.4" r="1.5"/>
	<ellipse cx="146" cy="26.4" rx="1.5" ry="1.5"/>
	<path d="M152.6,81.9c0,1.5,1.2,2.7,2.7,2.7c1.5,0,2.7-1.2,2.7-2.7c0-1.5-1.2-2.7-2.7-2.7C153.8,79.2,152.6,80.4,152.6,81.9z"/>
	<path d="M146.7,82.1c0.8,0,1.5-0.7,1.4-1.5c0-0.8-0.7-1.5-1.5-1.5c-0.8,0-1.5,0.7-1.5,1.5C145.2,81.5,145.9,82.1,146.7,82.1z"/>
	<path d="M163,80.6c0,0.8,0.7,1.5,1.5,1.5c0.8,0,1.5-0.7,1.4-1.5c0-0.8-0.7-1.5-1.5-1.5C163.7,79.2,163,79.8,163,80.6z"/>
	<path d="M55.9,128.6c-0.4,0-0.6,0-0.6,0.2c0,0.1,0.1,0.2,0.2,0.2h0c0.1,0,0.3,0,0.4,0c2.8,0,4.7-1.8,4.7-4.3c0-0.9-0.5-1.7-1-2.2
		c-0.3-0.3-1.2-1-3.6-1c-0.5,0-1.1,0-1.6,0c-0.3,0-0.6,0-0.8,0c0,0-0.2,0-0.4,0c-0.4,0-1.2,0-1.8,0c-0.2,0-0.4,0-0.4,0.2
		c0,0.1,0.1,0.2,0.2,0.2c0.2,0,0.5,0,0.6,0.1c0.6,0.1,0.7,0.4,0.8,1c0,0.6,0,1.1,0,3.9v3.2c0,1.8,0,3.1-0.1,3.9
		c-0.1,0.6-0.2,0.9-0.5,0.9c-0.1,0-0.4,0.1-0.6,0.1c-0.1,0-0.2,0.1-0.2,0.2c0,0.2,0.2,0.2,0.4,0.2c0.4,0,1.2,0,1.6,0
		c0.1,0,0.2,0,0.2,0c0,0,0.1,0,0.2,0c0.4,0,1.3,0,2.1,0c0.3,0,0.4-0.1,0.4-0.2c0-0.1-0.1-0.2-0.2-0.2c-0.2,0-0.6,0-0.9-0.1
		c-0.5-0.1-0.6-0.4-0.7-0.9c-0.1-0.8-0.1-2.1-0.1-3.9v-7.4c0-0.2,0.1-0.3,0.1-0.3c0.2-0.1,0.5-0.1,0.8-0.1h0.2
		c0.6,0,1.5,0.1,2.4,0.9c1,1,1,2.3,1,2.7C59.2,127.3,57.7,128.6,55.9,128.6z"/>
	<path d="M66.5,124.2c0.2,0,2.1,0,2.4,0.1c0.9,0.1,1.1,0.2,1.2,0.4c0.1,0.2,0.1,0.4,0.1,0.5c0,0.2,0.1,0.2,0.2,0.2
		c0.1,0,0.2-0.1,0.2-0.2c0-0.1,0-0.4,0.1-0.7c0-0.1,0-0.3,0-0.3c0-0.3,0.1-0.4,0.1-0.5l0-0.2c0-0.1,0-0.2-0.1-0.2l-0.2,0l-0.1,0
		l-0.1,0c-0.2,0-0.4,0.1-0.7,0.1c-0.1,0-0.5,0-1.2,0c-0.9,0-2.1,0-2.6,0h-0.2c0,0-0.1,0-0.3,0c-0.4,0-1.1,0-1.7,0
		c-0.1,0-0.3,0-0.3,0.2l0.2,0.2c0.1,0,0.4,0,0.6,0c0.5,0.1,0.6,0.3,0.6,0.8c0,0.5,0,0.9,0,3.3v2.7c0,1.5,0,2.7-0.1,3.3l0,0.1
		c-0.1,0.4-0.1,0.7-0.4,0.7l-0.2,0c-0.1,0-0.2,0-0.3,0c-0.1,0-0.2,0.1-0.2,0.2c0,0.2,0.2,0.2,0.3,0.2c0.3,0,0.7,0,1,0
		c0.3,0,0.6,0,0.7,0c0.2,0,0.7,0,1.4,0l0.4,0c0.7,0,1.5,0,2.5,0c0.7,0,0.9,0,1-0.4c0.1-0.3,0.2-1.4,0.2-1.5c0-0.2-0.1-0.3-0.2-0.3
		c-0.1,0-0.2,0.1-0.2,0.3c-0.1,0.6-0.3,0.8-0.7,1c-0.4,0.2-1.2,0.2-1.7,0.2c-1.6,0-1.9-0.2-1.9-1.2c0-0.2,0-1.2,0-1.9
		c0-0.3,0-0.5,0-0.7v-1.3l0.1-0.1c0.3,0,2.1,0,2.5,0.1c0.7,0.1,0.8,0.3,0.8,0.4c0.1,0.2,0.1,0.3,0.1,0.5c0,0.1,0.1,0.2,0.2,0.2
		c0.1,0,0.2-0.2,0.2-0.3c0-0.1,0-0.7,0.1-1c0-0.3,0.1-0.5,0.1-0.7l0-0.2c0-0.2-0.1-0.2-0.1-0.2l-0.2,0.1l-0.1,0.1
		c-0.2,0.1-0.4,0.2-0.8,0.2l0,0c-0.4,0-2.4,0-2.8,0c0,0,0,0,0-0.1v-4.1C66.4,124.2,66.5,124.2,66.5,124.2z"/>
	<path d="M80.9,129.8c1.4-1.1,2-2.2,2-3.5c0-1.3-1-2-1.2-2.1c-0.9-0.6-2.1-0.7-3.1-0.7c-0.3,0-1,0-1.5,0c-0.3,0-0.5,0-0.6,0
		c0,0-0.1,0-0.3,0c-0.4,0-1.2,0-1.7,0c-0.1,0-0.3,0-0.3,0.2l0.2,0.2c0.1,0,0.4,0,0.6,0c0.5,0.1,0.6,0.3,0.6,0.8c0,0.5,0,0.9,0,3.3
		v2.7c0,1.5,0,2.7-0.1,3.3l0,0c-0.1,0.4-0.1,0.7-0.4,0.7c-0.1,0-0.4,0.1-0.5,0.1c-0.1,0-0.2,0.1-0.2,0.2c0,0.2,0.2,0.2,0.3,0.2
		c0.4,0,1.3,0,1.6,0l0.1,0c0,0,0.1,0,0.2,0c0.3,0,1.2,0,1.9,0c0.3,0,0.3-0.1,0.3-0.2c0-0.1-0.1-0.2-0.2-0.2c-0.1,0-0.5,0-0.7-0.1
		c-0.5-0.1-0.6-0.3-0.6-0.8c-0.1-0.6-0.1-1.8-0.1-3.3v-0.4l0.1-0.1l2.1,0c0.1,0,0.1,0,0.2,0.1c0.2,0.2,0.4,0.5,0.7,0.9
		c0.3,0.4,0.7,0.9,1.1,1.4c0.9,1.1,1.6,1.9,2.3,2.2c0.4,0.2,0.9,0.3,1.8,0.3h1c0.1,0,0.2,0,0.3,0c0.1,0,0.2,0,0.2,0c0.3,0,0.7,0,1,0
		c0.2,0,0.3,0,0.4,0c0,0,0.1,0,0.3,0c0.3,0,0.8,0,1.3,0c0.1,0,0.4,0,0.4-0.2l-0.2-0.2c0,0-0.3,0-0.6-0.1c-0.2,0-0.4-0.1-0.4-0.4
		c0-0.3,0-0.5,0-0.8l0.6-6.9h0c0.2,0.5,0.9,1.8,1.5,2.9c0.3,0.5,0.5,1,0.7,1.3c0.4,0.8,1.5,2.7,2,3.5c0.3,0.6,0.4,0.7,0.6,0.7
		s0.3-0.2,0.6-0.8l4-7.7l0.8,7.6c0,0.4,0,0.5,0,0.5c-0.1,0-0.1,0.1-0.1,0.2c0,0.1,0.1,0.2,0.5,0.2c0.6,0.1,2.5,0.1,2.9,0.1
		c0.2,0,0.4-0.1,0.4-0.2c0-0.1-0.1-0.2-0.2-0.2c-0.2,0-0.6,0-1.1-0.1c-0.6-0.2-0.8-0.9-0.8-1.5l-1.1-9.4c0-0.4-0.2-0.5-0.3-0.5
		c-0.1,0-0.2,0.1-0.3,0.3l-4.8,9.4l-5-9.4c-0.1-0.2-0.3-0.3-0.4-0.3c-0.1,0-0.2,0.1-0.2,0.3l-1.2,10l0,0.1c-0.1,0.5-0.1,1-0.6,1l0,0
		c-0.2,0-0.3,0.1-0.5,0.1c0,0-0.1,0-0.1,0c0,0,0,0-0.1,0c-0.1,0-0.3,0-0.6-0.1c-0.4-0.1-1-0.2-1.8-1c-0.9-0.9-2-2.2-3.3-3.7
		L80.9,129.8z M77.2,124.4l0.1-0.1c0.2,0,0.7-0.1,1.2-0.1c1.8,0,2.8,1.1,2.8,2.9c0,1-0.4,1.9-1,2.3c-0.4,0.2-0.8,0.3-1.2,0.3
		c-0.7,0-1.6-0.1-1.8-0.2l-0.1-0.2L77.2,124.4L77.2,124.4z"/>
	<path d="M107.8,131l0.1-0.1h3.9l0.1,0.1l1.5,3.5l0,0.2l-0.1,0.1l0,0c-0.1,0-0.1,0-0.1,0.1c0,0.1,0.2,0.1,0.5,0.1l0.1,0
		c0.7,0,1.7,0,2.6,0c0.1,0,0.4,0,0.4-0.2c0-0.1-0.1-0.2-0.3-0.2c-0.2,0-0.4,0-0.7-0.1c-0.4-0.1-0.8-0.3-1.4-1.6
		c-0.5-1.2-1.5-3.4-2.3-5.4c-0.8-1.9-1.5-3.5-1.7-3.8l-0.1-0.2c-0.1-0.2-0.2-0.4-0.4-0.4c-0.1,0-0.2,0.1-0.4,0.6l-3.9,9.5
		c-0.3,0.8-0.7,1.3-1.4,1.4c-0.1,0-0.4,0-0.5,0c-0.1,0-0.2,0.1-0.2,0.2c0,0.2,0.3,0.2,0.4,0.2c0.5,0,1,0,1.3,0c0.2,0,0.3,0,0.4,0
		c0.1,0,0.3,0,0.5,0c0.3,0,0.8,0,1,0c0.2,0,0.3-0.1,0.3-0.2s0-0.2-0.2-0.2h-0.2c-0.1,0-0.5,0-0.5-0.4c0-0.3,0.1-0.6,0.2-1L107.8,131
		z M108.2,130.2L108.2,130.2l1.6-4.2c0.1-0.1,0.1-0.1,0.1-0.1s0,0,0.1,0.1l1.7,4.2l0,0l0,0L108.2,130.2L108.2,130.2z"/>
	<path d="M130.1,134.1l0-8.9c0-1,0.1-1.2,0.6-1.3c0.2,0,0.3,0,0.4,0c0.1,0,0.2-0.1,0.2-0.2c0-0.2-0.2-0.2-0.4-0.2
		c-0.4,0-0.8,0-1.1,0c-0.1,0-0.2,0-0.3,0c-0.1,0-0.2,0-0.4,0c-0.3,0-0.9,0-1.4,0c-0.1,0-0.4,0-0.4,0.2c0,0.1,0.1,0.2,0.2,0.2
		c0.1,0,0.5,0,0.8,0.1c0.5,0.1,0.6,0.3,0.6,1.4l0.2,7.5c-0.2-0.2-0.5-0.5-0.9-0.9c-0.8-0.8-1.9-1.9-3-3c-1.7-1.7-3.4-3.3-4.4-4.3
		c-0.5-0.5-0.8-0.8-0.9-0.9l-0.1-0.1c-0.2-0.2-0.4-0.4-0.6-0.4c-0.2,0-0.3,0.2-0.3,0.8v8.7c0,1.4-0.1,1.8-0.4,1.9
		c-0.2,0.1-0.5,0.1-0.7,0.1c-0.1,0-0.2,0.1-0.2,0.2c0,0.2,0.2,0.2,0.3,0.2c0.5,0,1,0,1.3,0c0.1,0,0.2,0,0.3,0c0,0,0.1,0,0.2,0
		c0.3,0,0.8,0,1.5,0c0.1,0,0.4,0,0.4-0.2c0-0.1-0.1-0.2-0.2-0.2c-0.2,0-0.5,0-0.8-0.1c-0.4-0.1-0.6-0.5-0.6-1.7l-0.2-7.1
		c0.6,0.6,2.5,2.5,4.3,4.2c1.8,1.8,4.2,4,4.4,4.1c1,0.8,1.1,0.9,1.3,0.9C130.1,135.2,130.1,135.1,130.1,134.1z"/>
	<path d="M135.1,134L135.1,134c-0.1,0.5-0.1,0.7-0.4,0.8l-0.2,0c-0.1,0-0.2,0-0.3,0c-0.1,0-0.2,0.1-0.2,0.2c0,0.2,0.2,0.2,0.3,0.2
		c0.3,0,0.7,0,1,0c0.3,0,0.6,0,0.7,0c0.2,0,0.7,0,1.4,0l0.4,0c0.7,0,1.5,0,2.5,0c0.7,0,0.9,0,1-0.4c0.1-0.3,0.2-1.4,0.2-1.5
		c0-0.2-0.1-0.3-0.2-0.3c-0.1,0-0.2,0.1-0.2,0.3c-0.1,0.6-0.3,0.8-0.7,1c-0.4,0.2-1.2,0.2-1.7,0.2c-1.6,0-1.9-0.2-1.9-1.2
		c0-0.2,0-1.2,0-1.9c0-0.3,0-0.5,0-0.7v-1.3l0.1-0.1c0.3,0,2.1,0,2.5,0.1c0.7,0.1,0.8,0.3,0.8,0.4c0.1,0.2,0.1,0.3,0.1,0.5
		c0,0.1,0.1,0.2,0.2,0.2c0.1,0,0.2-0.2,0.2-0.3c0-0.1,0-0.7,0.1-1c0-0.3,0.1-0.5,0.1-0.7l0-0.2c0-0.2-0.1-0.2-0.1-0.2l-0.2,0.1
		l-0.1,0.1c-0.2,0.1-0.4,0.2-0.8,0.2l0,0c-0.4,0-2.4,0-2.8,0c0,0,0,0,0-0.1v-4.1c0-0.1,0-0.1,0-0.1c0.2,0,2.1,0,2.4,0.1
		c0.9,0.1,1.1,0.2,1.2,0.4c0.1,0.2,0.1,0.4,0.1,0.5c0,0.2,0.1,0.2,0.2,0.2c0.1,0,0.2-0.1,0.2-0.2c0-0.1,0-0.4,0.1-0.7
		c0-0.1,0-0.3,0-0.3c0-0.3,0.1-0.4,0.1-0.5l0-0.2c0-0.1,0-0.2-0.1-0.2l-0.2,0l-0.1,0l-0.1,0c-0.2,0-0.4,0.1-0.7,0.1
		c-0.1,0-0.5,0-1.2,0c-0.9,0-2.1,0-2.6,0H136c0,0-0.1,0-0.3,0c-0.4,0-1.1,0-1.7,0c-0.1,0-0.3,0-0.3,0.2l0.2,0.2c0.1,0,0.4,0,0.6,0
		c0.5,0.1,0.6,0.3,0.6,0.8c0,0.5,0,0.9,0,3.3v2.7C135.2,132.1,135.2,133.3,135.1,134z"/>
	<path d="M155,131.9c-0.8-0.8-1.9-1.9-3-3c-1.7-1.7-3.4-3.3-4.4-4.3c-0.5-0.5-0.8-0.8-0.9-0.9l-0.1-0.1c-0.2-0.2-0.4-0.4-0.6-0.4
		c-0.2,0-0.3,0.2-0.3,0.8v8.7c0,1.4-0.1,1.8-0.4,1.9c-0.2,0.1-0.5,0.1-0.7,0.1c-0.1,0-0.2,0.1-0.2,0.2c0,0.2,0.2,0.2,0.3,0.2
		c0.5,0,1,0,1.3,0c0.1,0,0.2,0,0.3,0c0,0,0.1,0,0.2,0c0.3,0,0.8,0,1.5,0c0.1,0,0.4,0,0.4-0.2c0-0.1-0.1-0.2-0.2-0.2
		c-0.2,0-0.5,0-0.8-0.1c-0.4-0.1-0.6-0.5-0.6-1.7l-0.2-7.1c0.6,0.6,2.5,2.5,4.3,4.2c1.8,1.8,4.2,4,4.4,4.1c1,0.8,1.1,0.9,1.3,0.9
		c0.2,0,0.2-0.1,0.2-1.1l0-8.9c0-1,0.1-1.2,0.6-1.3c0.2,0,0.3,0,0.4,0c0.1,0,0.2-0.1,0.2-0.2c0-0.2-0.2-0.2-0.4-0.2
		c-0.4,0-0.8,0-1.1,0c-0.1,0-0.2,0-0.3,0c-0.1,0-0.2,0-0.4,0c-0.3,0-0.9,0-1.4,0c-0.1,0-0.4,0-0.4,0.2c0,0.1,0.1,0.2,0.2,0.2
		c0.1,0,0.5,0,0.8,0.1c0.5,0.1,0.6,0.3,0.6,1.4l0.2,7.5C155.7,132.6,155.4,132.3,155,131.9z"/>
	<path d="M167.7,135c0-0.1-0.1-0.2-0.2-0.2c-0.1,0-0.5,0-0.8-0.1c-0.5-0.1-0.6-0.3-0.6-0.8c-0.1-0.6-0.1-1.8-0.1-3.3v-6.4l2,0
		c1.6,0,1.9,0.4,2,0.8l0,0.2c0,0.2,0.1,0.3,0.2,0.3c0.1,0,0.2-0.1,0.2-0.2c0-0.1,0-0.3,0-0.5c0-0.4,0-0.9,0-1.2c0-0.1,0-0.2-0.1-0.2
		c0,0-0.1,0-0.2,0c-0.1,0-0.2,0-0.2,0c-0.4,0-0.7,0.1-1.2,0.1h-6.3c-0.2,0-0.8,0-1.3-0.1c-0.3,0-0.5-0.1-0.6-0.1l-0.2,0
		c-0.1,0-0.1,0.1-0.2,0.3l0,0l0,0c0,0-0.1,0.2-0.1,0.5c-0.1,0.6-0.3,1.1-0.3,1.2c0,0.1,0.1,0.2,0.2,0.2c0.1,0,0.2,0,0.2-0.2l0-0.1
		c0-0.1,0.1-0.2,0.2-0.4c0.2-0.3,0.6-0.4,1.7-0.5l2.4,0v6.4c0,1.5,0,2.7-0.1,3.3c-0.1,0.4-0.1,0.7-0.5,0.8c-0.1,0-0.3,0.1-0.5,0.1
		c-0.1,0-0.2,0.1-0.2,0.2c0,0.2,0.2,0.2,0.3,0.2c0.4,0,1.1,0,1.4,0c0.2,0,0.3,0,0.3,0c0,0,0.1,0,0.2,0c0.4,0,1.2,0,1.8,0
		C167.6,135.1,167.7,135,167.7,135z"/>
	<path d="M188.3,134.4l4.8-9.5l0.9,9.2c0,0.4,0,0.6,0,0.6c-0.1,0-0.2,0-0.2,0.2c0,0.1,0.1,0.2,0.6,0.2c0.7,0.1,2.8,0.1,3.2,0.1
		c0.3,0,0.4-0.1,0.4-0.2c0-0.1-0.1-0.1-0.2-0.1c-0.2,0-0.7,0-1.2-0.2c-0.8-0.2-0.9-1.3-1-1.9l-1.3-11c0-0.3-0.1-0.5-0.3-0.5
		c-0.2,0-0.3,0.2-0.3,0.3l-5.5,11.2l-5.8-11.2c-0.1-0.2-0.2-0.3-0.3-0.3c-0.1,0-0.2,0.1-0.3,0.4l-1.4,11.7l0,0.1
		c-0.1,0.7-0.1,1.3-0.7,1.4c-0.3,0.1-0.4,0.1-0.6,0.1c-0.1,0-0.2,0-0.2,0.1c0,0.2,0.3,0.2,0.4,0.2c0.3,0,0.8,0,1.2,0
		c0.2,0,0.4,0,0.4,0c0,0,0.2,0,0.3,0c0.4,0,0.9,0,1.4,0c0.1,0,0.4,0,0.4-0.2c0-0.1-0.1-0.1-0.2-0.1c-0.1,0-0.4,0-0.7-0.1
		c-0.3,0-0.5-0.3-0.5-0.5c0-0.3,0-0.6,0-0.9l0.8-8.3h0c0.3,0.6,2.3,4.8,2.5,5.1c0.3,0.5,1.8,3.3,2.2,4.2l0,0.1
		c0.3,0.6,0.4,0.8,0.6,0.8C187.9,135.1,188,135,188.3,134.4z"/>
	<path d="M207.8,134.8c-0.1,0-0.1,0-0.1,0.1c0,0.1,0.2,0.1,0.5,0.1l0.1,0c0.7,0,1.7,0,2.6,0c0.1,0,0.4,0,0.4-0.2
		c0-0.1-0.1-0.2-0.3-0.2c-0.2,0-0.4,0-0.7-0.1c-0.4-0.1-0.8-0.3-1.4-1.6c-0.5-1.2-1.5-3.4-2.3-5.4c-0.8-1.9-1.5-3.5-1.7-3.8
		l-0.1-0.2c-0.1-0.2-0.2-0.4-0.4-0.4c-0.1,0-0.2,0.1-0.4,0.6l-3.9,9.5c-0.3,0.8-0.7,1.3-1.4,1.4c-0.1,0-0.4,0-0.5,0
		c-0.1,0-0.2,0.1-0.2,0.2c0,0.2,0.3,0.2,0.4,0.2c0.5,0,1,0,1.3,0c0.2,0,0.3,0,0.4,0c0.1,0,0.3,0,0.5,0c0.3,0,0.8,0,1,0
		c0.2,0,0.3-0.1,0.3-0.2s0-0.2-0.2-0.2h-0.2c-0.1,0-0.5,0-0.5-0.4c0-0.3,0.1-0.6,0.2-1l0.9-2.4l0.1-0.1h3.9l0.1,0.1l1.5,3.5l0,0.2
		L207.8,134.8L207.8,134.8z M206.1,130.2L206.1,130.2l-3.4,0l0,0l0,0l1.6-4.2c0.1-0.1,0.1-0.1,0.1-0.1s0,0,0.1,0.1L206.1,130.2
		L206.1,130.2z"/>
	<path d="M221.3,132.9c-0.6-0.6-4-3.7-4.6-4.3c0.5-0.5,3.1-2.9,3.6-3.3c0.1-0.1,0.2-0.2,0.3-0.2c0.6-0.5,0.9-0.8,1.5-1
		c0.3-0.1,0.7-0.2,0.9-0.2c0.2,0,0.2-0.1,0.2-0.2c0-0.2-0.2-0.2-0.3-0.2c-0.3,0-0.9,0-1.3,0c-0.2,0-0.3,0-0.4,0c-0.2,0-0.4,0-0.7,0
		c-0.2,0-0.4,0-0.6,0c-0.2,0-0.2,0.1-0.2,0.2c0,0.1,0.1,0.2,0.2,0.2c0.1,0,0.2,0,0.2,0.3c0,0.2-0.4,0.6-0.8,1l-0.1,0.1
		c-0.3,0.3-1,0.9-1.7,1.6c-1,0.9-2,1.8-2.1,2h0V128c0-2.4,0-2.8,0-3.3c0-0.5,0.2-0.7,0.5-0.8c0.2,0,0.3,0,0.4,0
		c0.1,0,0.2-0.1,0.2-0.2c0-0.2-0.2-0.2-0.3-0.2c-0.3,0-0.8,0-1.2,0c-0.2,0-0.4,0-0.4,0c0,0-0.1,0-0.2,0c-0.4,0-1.1,0-1.6,0
		c-0.1,0-0.3,0-0.3,0.2l0.2,0.2c0.1,0,0.4,0,0.6,0c0.5,0.1,0.6,0.3,0.6,0.8c0,0.5,0,0.9,0,3.3v2.7c0,1.5,0,2.7-0.1,3.3l0,0
		c-0.1,0.4-0.1,0.7-0.4,0.7c-0.1,0-0.4,0.1-0.5,0.1c-0.1,0-0.2,0.1-0.2,0.2c0,0.2,0.2,0.2,0.3,0.2c0.3,0,0.9,0,1.3,0
		c0.2,0,0.3,0,0.4,0c0,0,0.1,0,0.3,0c0.4,0,1.1,0,1.7,0c0.3,0,0.3-0.1,0.3-0.2c0-0.1-0.1-0.2-0.2-0.2c-0.2,0-0.4,0-0.6-0.1
		c-0.5-0.1-0.6-0.3-0.6-0.8c-0.1-0.6-0.1-1.8-0.1-3.3v-1.4h0c0.8,0.9,4.3,4.4,5.1,4.9l0.1,0.1c0.7,0.5,1.1,0.8,2,0.9
		c0.4,0,0.7,0,1.2,0h0.9c0.2,0,0.4,0,0.4-0.2c0-0.1-0.1-0.2-0.3-0.2c-0.1,0-0.6-0.1-1-0.2c-0.7-0.3-0.9-0.5-2-1.4L221.3,132.9z"/>
	<path d="M226.2,123.9c0.5,0.1,0.6,0.3,0.6,0.8c0,0.5,0,0.9,0,3.3v2.7c0,1.5,0,2.7-0.1,3.3l0,0.1c-0.1,0.4-0.1,0.7-0.4,0.7l-0.2,0
		c-0.1,0-0.2,0-0.3,0c-0.1,0-0.2,0.1-0.2,0.2c0,0.2,0.2,0.2,0.3,0.2c0.3,0,0.7,0,1,0c0.3,0,0.6,0,0.7,0c0.2,0,0.7,0,1.4,0l0.4,0
		c0.7,0,1.5,0,2.5,0c0.7,0,0.9,0,1-0.4c0.1-0.3,0.2-1.4,0.2-1.5c0-0.2-0.1-0.3-0.2-0.3c-0.1,0-0.2,0.1-0.2,0.3
		c-0.1,0.6-0.3,0.8-0.7,1c-0.4,0.2-1.2,0.2-1.7,0.2c-1.6,0-1.9-0.2-1.9-1.2c0-0.2,0-1.2,0-1.9c0-0.3,0-0.5,0-0.7v-1.3l0.1-0.1
		c0.3,0,2.1,0,2.5,0.1c0.7,0.1,0.8,0.3,0.8,0.4c0.1,0.2,0.1,0.3,0.1,0.5c0,0.1,0.1,0.2,0.2,0.2c0.1,0,0.2-0.2,0.2-0.3
		c0-0.1,0-0.7,0.1-1c0-0.3,0.1-0.5,0.1-0.7l0-0.2c0-0.2-0.1-0.2-0.1-0.2l-0.2,0.1l-0.1,0.1c-0.2,0.1-0.4,0.2-0.8,0.2l0,0
		c-0.4,0-2.4,0-2.8,0c0,0,0,0,0-0.1v-4.1c0-0.1,0-0.1,0-0.1c0.2,0,2.1,0,2.4,0.1c0.9,0.1,1.1,0.2,1.2,0.4c0.1,0.2,0.1,0.4,0.1,0.5
		c0,0.2,0.1,0.2,0.2,0.2c0.1,0,0.2-0.1,0.2-0.2c0-0.1,0-0.4,0.1-0.7c0-0.1,0-0.3,0-0.3c0-0.3,0.1-0.4,0.1-0.5l0-0.2
		c0-0.1,0-0.2-0.1-0.2l-0.2,0l-0.1,0l-0.1,0c-0.2,0-0.4,0.1-0.7,0.1c-0.1,0-0.5,0-1.2,0c-0.9,0-2.1,0-2.6,0h-0.2c0,0-0.1,0-0.3,0
		c-0.4,0-1.1,0-1.7,0c-0.1,0-0.3,0-0.3,0.2l0.2,0.2C225.8,123.9,226.1,123.9,226.2,123.9z"/>
	<path d="M238.4,134.2c0.8,0.7,2,1.1,3.5,1.1c1,0,2.3-0.1,3.5-1.1c1.4-1.1,1.6-3.1,1.6-4.6V128c0-0.7,0-1.3,0-1.7c0-1,0-1.3,0-1.6
		c0-0.5,0.1-0.7,0.5-0.8c0.2,0,0.3,0,0.4,0c0.1,0,0.2-0.1,0.2-0.2c0-0.2-0.2-0.2-0.3-0.2c-0.3,0-0.8,0-1.1,0c-0.1,0-0.3,0-0.3,0
		c0,0-0.1,0-0.2,0c-0.4,0-1,0-1.6,0c-0.1,0-0.3,0-0.3,0.2c0,0.1,0.1,0.2,0.2,0.2c0.1,0,0.4,0,0.6,0c0.5,0.1,0.6,0.3,0.6,0.8l0,0
		c0,0.5,0,0.9,0,3.3v1.9c0,1.4-0.1,2.7-0.9,3.7c-0.6,0.7-1.6,1.1-2.6,1.1c-1,0-1.7-0.1-2.5-0.8c-0.6-0.5-1.2-1.4-1.2-3.7V128
		c0-2.4,0-2.8,0-3.3c0-0.5,0.1-0.7,0.5-0.8c0.2,0,0.3,0,0.4,0c0.1,0,0.2-0.1,0.2-0.2c0-0.2-0.2-0.2-0.3-0.2c-0.3,0-0.9,0-1.3,0
		c-0.2,0-0.4,0-0.4,0c0,0-0.2,0-0.4,0c-0.4,0-1,0-1.6,0c-0.1,0-0.3,0-0.3,0.2l0.2,0.2c0.1,0,0.4,0,0.6,0c0.5,0.1,0.6,0.3,0.6,0.8
		c0,0.5,0,0.9,0,3.3v2.2C236.9,132.6,237.7,133.6,238.4,134.2z"/>
	<path d="M253.7,123.5c-0.4,0-0.6,0-0.8,0c0,0-0.2,0-0.3,0c-0.4,0-1.1,0-1.6,0c-0.1,0-0.3,0-0.3,0.2l0.2,0.2c0.1,0,0.4,0,0.6,0
		c0.5,0.1,0.6,0.3,0.6,0.8c0,0.5,0,0.9,0,3.3v2.7c0,1.5,0,2.7-0.1,3.3l0,0c-0.1,0.4-0.1,0.7-0.4,0.7c-0.1,0-0.4,0.1-0.5,0.1
		c-0.1,0-0.2,0.1-0.2,0.2c0,0.2,0.2,0.2,0.3,0.2c0.4,0,1.1,0,1.4,0c0.1,0,0.2,0,0.2,0c0,0,0.1,0,0.2,0c0.4,0,1.2,0,1.9,0
		c0.3,0,0.3-0.1,0.3-0.2c0-0.1-0.1-0.2-0.2-0.2c-0.1,0-0.5,0-0.7-0.1c-0.5-0.1-0.6-0.3-0.6-0.8c-0.1-0.6-0.1-1.8-0.1-3.3v-6.2
		c0-0.1,0-0.2,0.1-0.2c0.2,0,0.7-0.1,0.9-0.1c0.1,0,0.2,0,0.3,0c0.5,0,1.3,0.1,2,0.7c0.9,0.9,0.9,1.9,0.9,2.3c0,1.4-1.3,2.4-3.1,2.4
		c-0.3,0-0.5,0-0.5,0.2c0,0.1,0.1,0.2,0.2,0.2h0c0.1,0,0.3,0,0.5,0c2.6,0,4.4-1.5,4.4-3.7c0-0.8-0.5-1.5-0.9-1.9
		c-0.3-0.2-1.1-0.9-3.2-0.9C254.8,123.5,254.2,123.5,253.7,123.5z"/>
	<path d="M11.9,153.1c1.5-1.5,3.1-3.1,3.1-5.7c0-1.8-1.4-4.9-6.9-4.9c-0.9,0-1.7,0-2.4,0.1c-0.5,0-0.9,0-1.3,0c0,0-0.2,0-0.5,0
		c-0.7,0-2.2-0.1-3.4-0.1c-0.2,0-0.6,0-0.6,0.3c0,0.2,0.1,0.3,0.4,0.3c0.3,0,0.9,0,1.1,0.1c1.1,0.2,1.3,0.7,1.4,1.7
		c0.1,1,0.1,1.9,0.1,6.9v5.6c0,3.1,0,5.6-0.2,6.9c-0.2,1-0.3,1.6-0.9,1.7c-0.4,0.1-0.7,0.1-1,0.1c-0.3,0-0.4,0.1-0.4,0.3
		c0,0.3,0.4,0.3,0.6,0.3c0.2,0,0.5,0,0.8,0c0.4,0,0.8,0,1.1,0c0.7,0,1.2,0,1.4,0c0.1,0,1.1,0,2.1,0.1c0.5,0,0.9,0,1.4,0.1
		c0.5,0,0.9,0,1.1,0c5.7,0,8.7-3.5,8.7-7.1C17.7,155.9,14.1,153.8,11.9,153.1z M5.8,154.1c0-0.1,0-0.1,0.1-0.1c1.5,0,2.3,0,2.6,0.1
		c0.8,0.1,1.6,0.2,2.8,0.9c2.9,1.9,3.3,5.1,3.3,6.3c0,3.3-2.5,4.5-4.7,4.5c-0.3,0-2,0-2.9-0.5c-1-0.4-1-0.8-1.1-2.3l0-0.1
		c0-0.5,0-4.5,0-6.9V154.1z M6.2,143.7c0.6-0.1,1.5-0.2,1.6-0.2c3.3,0,4.5,2.9,4.5,5.4c0,1.2-0.4,2.4-1.2,3.2
		c-0.7,0.7-1.1,0.8-3,0.8c-0.8,0-1.5,0-2-0.1c-0.1-0.1-0.2-0.1-0.2-0.3V144C5.8,143.9,5.8,143.8,6.2,143.7z"/>
	<path d="M36.6,163c-0.2,0-0.3,0.2-0.4,0.5c-0.2,1-0.5,1.5-1.3,1.8c-0.8,0.3-2.2,0.3-3,0.3c-2.9,0-3.4-0.3-3.5-2.1
		c0-0.4,0-2.1,0-3.4c0-0.5,0-0.9,0-1.2v-2.3c0-0.1,0-0.1,0.1-0.1c0.6,0,3.7,0,4.5,0.1c1.2,0.1,1.4,0.5,1.5,0.8
		c0.1,0.3,0.1,0.6,0.1,0.9c0,0.2,0.1,0.3,0.3,0.3c0.3,0,0.4-0.3,0.4-0.6c0-0.2,0.1-1.2,0.1-1.8c0-0.6,0.1-1,0.2-1.2
		c0-0.1,0.1-0.2,0.1-0.3c0-0.3-0.2-0.3-0.3-0.3c-0.1,0-0.2,0.1-0.4,0.3l-0.1,0.1c-0.3,0.3-0.7,0.3-1.4,0.4l-0.1,0
		c-0.6,0.1-4.3,0.1-5,0.1c-0.1,0-0.1,0-0.1-0.2v-7.4c0-0.2,0-0.2,0.1-0.2c0.4,0,3.8,0,4.3,0.1c1.6,0.2,1.9,0.4,2.1,0.8
		c0.1,0.3,0.2,0.7,0.2,0.9c0,0.4,0.2,0.4,0.3,0.4c0.2,0,0.3-0.2,0.4-0.4c0-0.2,0.1-0.8,0.1-1.2c0-0.3,0-0.5,0-0.6
		c0-0.5,0.1-0.8,0.2-1c0-0.1,0.1-0.2,0.1-0.3c0-0.2-0.1-0.3-0.2-0.3c-0.1,0-0.2,0-0.3,0.1l-0.1,0.1l-0.2,0c-0.3,0-0.7,0.1-1.2,0.1
		c-0.2,0-0.9,0-2.1,0c-1.6,0-3.8,0-4.6,0l-0.4,0c0,0-0.2,0-0.5,0c-0.7,0-2-0.1-3-0.1c-0.2,0-0.6,0-0.6,0.3c0,0.1,0.2,0.3,0.3,0.3
		c0.3,0,0.8,0,1,0.1c0.9,0.1,1.1,0.5,1.2,1.4c0.1,0.9,0.1,1.6,0.1,5.8v4.8c0,2.7,0,4.8-0.2,5.9l0,0.1c-0.1,0.7-0.2,1.2-0.7,1.3
		c-0.1,0-0.2,0-0.3,0.1c-0.2,0-0.4,0.1-0.6,0.1c-0.2,0-0.3,0.2-0.3,0.3c0,0.3,0.4,0.3,0.6,0.3c0.5,0,1.2,0,1.7-0.1
		c0.6,0,1.1,0,1.3,0c0.4,0,1.2,0,2.5,0.1l0.6,0c1.1,0,2.7,0.1,4.6,0.1c1.2,0,1.5,0,1.7-0.8c0.2-0.6,0.4-2.5,0.4-2.6
		C36.9,163.1,36.7,163,36.6,163z"/>
	<path d="M42.5,166.7c0.1,0,0.5,0,0.9,0c0.6,0,1.4,0.1,1.8,0.1c0.4,0,0.5-0.2,0.5-0.3c0-0.1-0.1-0.3-0.4-0.3H45
		c-0.2,0-0.9,0-0.9-0.7c0-0.5,0.2-1.1,0.4-1.8l1.7-4.3c0.1-0.2,0.2-0.2,0.2-0.2h6.9c0.1,0,0.1,0,0.2,0.1l2.7,6.2
		c0.1,0.1,0.1,0.3,0,0.4c-0.1,0.1-0.2,0.2-0.3,0.2l-0.1,0c-0.1,0-0.2,0.1-0.2,0.2c0,0.2,0.3,0.2,0.9,0.3l0.2,0c1.3,0,3,0.1,4.7,0.1
		c0.2,0,0.8,0,0.8-0.3c0-0.2-0.2-0.3-0.5-0.3c-0.3,0-0.7,0-1.2-0.2c-0.7-0.2-1.5-0.6-2.5-2.9c-1-2.1-2.7-6.2-4.2-9.8
		c-1.4-3.3-2.6-6.2-2.9-6.7c-0.1-0.1-0.1-0.2-0.2-0.3c-0.2-0.4-0.3-0.7-0.6-0.7c-0.3,0-0.4,0.2-0.8,1.1l-7,17
		c-0.6,1.5-1.2,2.3-2.4,2.4c-0.2,0-0.7,0.1-0.9,0.1c-0.2,0-0.4,0.1-0.4,0.3c0,0.3,0.5,0.3,0.7,0.3c0.8,0,1.8,0,2.4-0.1
		C42.1,166.7,42.4,166.7,42.5,166.7z M52.9,158h-6l0,0l0-0.1l2.8-7.4c0.1-0.3,0.2-0.3,0.2-0.3c0,0,0.1,0,0.2,0.3L52.9,158L52.9,158
		L52.9,158z"/>
	<path d="M84.3,146.8c0.4-0.1,0.5-0.1,0.7-0.1c0.2,0,0.3-0.2,0.3-0.3c0-0.3-0.4-0.3-0.6-0.3c-0.6,0-1.4,0-2,0c-0.3,0-0.5,0-0.5,0
		c0,0-0.2,0-0.4,0c-0.6,0-1.8-0.1-2.8-0.1c-0.2,0-0.6,0-0.6,0.3c0,0.1,0.1,0.3,0.3,0.3c0.3,0,0.8,0,1,0.1c0.9,0.1,1.1,0.6,1.1,1.4
		l0,0.1c0,0.9,0.1,1.7,0.1,5.8v3.4c0,2.4-0.2,4.9-1.7,6.5c-1,1.2-2.8,1.9-4.5,1.9c-1.7,0-3-0.2-4.4-1.5c-1.1-1-2.2-2.4-2.2-6.6v-3.8
		c0-4.2,0-5,0.1-5.8c0.1-0.9,0.2-1.3,1-1.4c0.4-0.1,0.5-0.1,0.7-0.1c0.2,0,0.4-0.2,0.4-0.3c0-0.3-0.4-0.3-0.6-0.3
		c-0.6,0-1.5,0-2.2,0c-0.4,0-0.7,0-0.8,0c-0.1,0-0.3,0-0.6,0c-0.7,0-1.9,0-2.8,0c-0.2,0-0.6,0-0.6,0.3c0,0.1,0.2,0.3,0.3,0.3
		c0.3,0,0.8,0,1,0.1c0.9,0.1,1.1,0.5,1.1,1.4c0.1,0.9,0.1,1.6,0.1,5.8v4c0,4.3,1.4,6.1,2.6,7.2c1.4,1.3,3.6,1.9,6.3,1.9
		c1.8,0,4.1-0.2,6.3-2c2.5-2,2.8-5.4,2.8-8.2v-2.9c0-1.3,0-2.3,0-3c0-1.7,0-2.2,0-2.8C83.3,147.3,83.5,146.9,84.3,146.8z"/>
	<path d="M102.6,147.6c2.9,0.1,3.4,0.7,3.5,1.4l0,0.3c0,0.4,0.1,0.6,0.3,0.6c0.2,0,0.4-0.2,0.4-0.4c0-0.1,0-0.5,0-0.9
		c0-0.7,0.1-1.7,0.1-2.2c0-0.2,0-0.4-0.2-0.4c-0.1,0-0.2,0-0.4,0.1c-0.1,0-0.3,0-0.5,0.1c-0.6,0.1-1.3,0.1-2.1,0.1H92.4
		c-0.3,0-1.5,0-2.3-0.1c-0.5-0.1-0.8-0.2-1-0.2c-0.1,0-0.2-0.1-0.3-0.1c-0.1,0-0.2,0.2-0.4,0.5l0,0.1c0,0.1-0.1,0.4-0.2,0.8
		c-0.2,1.1-0.5,1.9-0.5,2.1c0,0.2,0.2,0.3,0.3,0.3c0.1,0,0.3,0,0.4-0.3l0.1-0.2c0.1-0.2,0.1-0.3,0.4-0.7c0.4-0.6,1.1-0.8,3-0.8
		l4.2-0.1v11.3c0,2.7,0,4.8-0.1,5.9c-0.1,0.8-0.3,1.3-0.8,1.4c-0.4,0.1-0.6,0.1-0.9,0.1c-0.2,0-0.3,0.1-0.3,0.3
		c0,0.3,0.4,0.3,0.6,0.3c0.6,0,1.9-0.1,2.6-0.1c0.3,0,0.5,0,0.5,0c0,0,0.2,0,0.4,0c0.7,0,2.1,0.1,3.3,0.1c0.5,0,0.6-0.2,0.6-0.3
		c0-0.2-0.1-0.3-0.3-0.3c-0.3,0-0.9-0.1-1.3-0.1c-0.9-0.1-1-0.6-1.1-1.4c-0.1-1.1-0.1-3.2-0.1-5.9v-11.3L102.6,147.6z"/>
	<path d="M126.7,148.4c0.7-0.7,0.9-1,1.5-1.3c0.4-0.2,1-0.3,1.4-0.3c0.3,0,0.5-0.2,0.5-0.4c0-0.2-0.2-0.2-0.5-0.2
		c-0.4,0-1.3,0-2.1,0c-0.4,0-0.8,0-0.8,0c-0.1,0-0.3,0-0.5,0c-0.4,0-1.1,0-1.6,0c-0.5,0-0.6,0.1-0.6,0.2c0,0.2,0.2,0.3,0.5,0.4
		c0.3,0.1,0.4,0.3,0.4,0.6c0,0.4-0.2,0.8-0.5,1.4c-0.2,0.3-0.6,1-1.2,1.9c-1.2,2-3.1,4.9-3.6,5.8l-5.3-8.4l0-0.1
		c-0.2-0.3-0.4-0.6-0.4-0.9c0-0.2,0.1-0.3,0.3-0.4c0.4-0.1,0.5-0.2,0.5-0.4c0-0.2-0.2-0.3-0.5-0.3c-0.8,0-1.7,0-2.2,0.1
		c-0.2,0-0.4,0-0.4,0c0,0-0.3,0-0.7,0c-0.8,0-1.9,0-2.3,0c-0.1,0-0.5,0-0.5,0.3c0,0.2,0.2,0.3,0.4,0.3c0.2,0,0.8,0.1,1.2,0.4
		c0.5,0.3,1.2,0.9,1.9,2c1,1.4,5,7.5,5.3,7.9c0.4,0.8,0.6,1.3,0.6,2.7v2.3c0,0.4,0,1.6-0.1,2.7c-0.1,0.9-0.3,1.3-0.8,1.4
		c-0.2,0.1-0.6,0.1-0.9,0.1c-0.2,0-0.3,0.2-0.3,0.3c0,0.3,0.4,0.3,0.6,0.3c0.6,0,1.8-0.1,2.4-0.1c0.3,0,0.4,0,0.5,0c0,0,0.2,0,0.4,0
		c0.7,0,2.1,0.1,3.4,0.1c0.4,0,0.6-0.2,0.6-0.3c0-0.1-0.1-0.3-0.3-0.3c-0.3,0-0.9-0.1-1.3-0.1c-0.8-0.1-1-0.6-1.1-1.4
		c-0.1-1.1-0.1-2.3-0.1-2.7v-2.3c0-0.2,0-0.3,0-0.5c0-0.7,0-1.4,0.4-2.2C121.6,155.8,125.7,149.4,126.7,148.4z"/>
	<path d="M159.1,166.2c-0.2,0.1-0.3,0.2-0.3,0.3c0,0.3,0.3,0.3,0.9,0.3l0.2,0c1.5,0,3.4,0.1,5.3,0.1c0.5,0,0.8-0.1,0.8-0.3
		c0-0.3-0.3-0.3-0.4-0.3c-0.5,0-0.9-0.1-1.3-0.2c-0.8-0.2-1.7-0.8-2.9-3.5c-1.5-3.5-4.6-11.2-6.5-15.8c-0.7-1.8-1.3-3.1-1.4-3.5
		c-0.4-1-0.6-1.2-0.8-1.2c-0.3,0-0.4,0.2-0.8,1.3l-7.7,19.9c-0.6,1.7-1.3,2.8-2.8,3c-0.3,0-0.8,0.1-1,0.1c-0.2,0-0.4,0.1-0.4,0.3
		c0,0.3,0.3,0.3,0.7,0.3c1.1,0,2.3,0,3.1-0.1c0.4,0,0.7,0,0.8,0c0.1,0,0.5,0,0.9,0c0.6,0,1.3,0.1,1.8,0.1c0.4,0,0.6-0.1,0.6-0.3
		c0-0.2-0.1-0.3-0.4-0.3H147c-0.5,0-1.2-0.2-1.2-0.8c0-0.6,0.2-1.3,0.5-2.1l2-5.7c0.1-0.1,0.1-0.2,0.3-0.2h7.3c0.1,0,0.2,0,0.2,0.1
		l3.2,7.9c0.1,0.3,0.1,0.5,0,0.6L159.1,166.2z M155.5,156.1L155.5,156.1l-6.5,0l0,0l0-0.1l3-8.6c0.1-0.3,0.2-0.3,0.2-0.3
		s0.1,0,0.2,0.3l3.2,8.6L155.5,156.1z"/>
	<path d="M170.9,164.3c2.4,2,5.6,2.9,9.9,2.9c1.1,0,3.9-0.1,5.4-0.6c0.5-0.2,0.6-0.3,0.8-0.9c0.3-0.9,0.7-3.3,0.7-3.5
		c0-0.2-0.2-0.5-0.4-0.5c-0.3,0-0.3,0.2-0.4,0.4c-0.1,0.5-0.5,1.6-1.1,2.2c-1.1,1.1-2.5,1.3-4.9,1.3c-6,0-10.7-4.3-10.7-9.8
		c0-2.5,0.3-5,2.6-7c1.4-1.3,3.6-1.9,6.7-1.9c2.4,0,4.7,0.6,5.8,1.5c0.7,0.5,1.2,1.6,1.2,2.7c0,0.3,0,0.7,0.3,0.7
		c0.2,0,0.4-0.1,0.4-0.6c0-0.2,0-0.7,0-1.3c0-0.5,0-1,0-1.5c0-0.6,0.1-0.9,0.1-1.1c0-0.2,0-0.3,0-0.4c0-0.2-0.2-0.4-0.5-0.4
		c-0.8,0-1.6-0.2-2.5-0.3l-0.5-0.1c-1.5-0.2-3.3-0.3-4.4-0.3c-4,0-7,1-9.1,2.9c-2.5,2.3-3.4,5.4-3.4,7.5
		C167.2,159.6,168.4,162.3,170.9,164.3z"/>
	<path d="M206.3,166.2L206.3,166.2c-0.2,0.1-0.3,0.1-0.3,0.3c0,0.2,0.3,0.2,0.9,0.3l0.2,0c1.3,0,3,0.1,4.7,0.1c0.2,0,0.8,0,0.8-0.3
		c0-0.2-0.2-0.3-0.5-0.3c-0.3,0-0.7,0-1.2-0.2c-0.7-0.2-1.5-0.6-2.5-2.9c-1-2.1-2.7-6.2-4.2-9.8c-1.4-3.3-2.6-6.2-2.9-6.7
		c-0.1-0.1-0.1-0.2-0.2-0.3c-0.2-0.4-0.3-0.7-0.6-0.7c-0.3,0-0.4,0.2-0.8,1.1l-7,17c-0.6,1.5-1.2,2.3-2.4,2.4
		c-0.2,0-0.7,0.1-0.9,0.1c-0.2,0-0.4,0.1-0.4,0.3c0,0.3,0.5,0.3,0.7,0.3c0.8,0,1.8,0,2.4-0.1c0.3,0,0.5,0,0.6,0c0.1,0,0.5,0,0.9,0
		c0.6,0,1.4,0.1,1.8,0.1c0.4,0,0.5-0.2,0.5-0.3c0-0.1-0.1-0.3-0.4-0.3h-0.3c-0.2,0-0.9,0-0.9-0.7c0-0.5,0.2-1.1,0.4-1.8l1.7-4.3
		c0.1-0.2,0.2-0.2,0.2-0.2h6.9c0.1,0,0.1,0,0.2,0.1l2.7,6.2c0.1,0.1,0.1,0.3,0,0.4C206.5,166.1,206.4,166.2,206.3,166.2z M203.2,158
		h-6l0,0l0-0.1l2.8-7.4c0.1-0.3,0.2-0.3,0.2-0.3c0,0,0.1,0,0.2,0.3L203.2,158L203.2,158L203.2,158z"/>
	<path d="M216.9,164.7L216.9,164.7c-0.1,0.8-0.2,1.3-0.7,1.4c-0.2,0.1-0.6,0.1-0.9,0.1c-0.2,0-0.3,0.2-0.3,0.3
		c0,0.3,0.4,0.3,0.6,0.3c0.5,0,1.2,0,1.8-0.1c0.5,0,0.9,0,1.1,0l0.1,0c0.1,0,1.1,0.1,2.4,0.2l0.6,0c1.1,0.1,2.4,0.1,3.5,0.1
		c3.8,0,7-1.1,9.1-3.2c2.1-2,3.2-4.8,3.2-7.7c0-3.5-1.6-5.7-2.9-7c-2.9-2.8-7-3.1-10.7-3.1c-0.5,0-0.9,0-1.3,0c-1.2,0-2.5,0-3.3,0
		c-0.3,0-0.6,0-0.7,0c0,0-0.2,0-0.5,0c-0.7,0-2-0.1-3-0.1c-0.2,0-0.6,0-0.6,0.3c0,0.1,0.2,0.3,0.3,0.3c0.3,0,0.8,0,1,0.1
		c0.9,0.1,1.1,0.5,1.2,1.4c0.1,0.9,0.1,1.6,0.1,5.8v4.8C217.1,161.5,217.1,163.6,216.9,164.7z M225.2,165.9c-2.8,0-4.4-0.3-4.9-1.1
		c-0.2-0.3-0.3-1.5-0.3-1.9c0-0.5,0-3,0-5.9v-9.1c0-0.3,0.1-0.4,0.3-0.5c0.3-0.1,1.2-0.2,1.8-0.2c3.3,0,6.7,0.2,9.6,3
		c1,1,2.8,3.2,2.8,6.8c0,2.7-0.9,5.1-2.3,6.4C230.3,165,227.9,165.9,225.2,165.9z"/>
	<path d="M244.7,164.7L244.7,164.7c-0.1,0.8-0.2,1.3-0.7,1.4c-0.1,0-0.2,0-0.3,0.1c-0.2,0-0.4,0.1-0.6,0.1c-0.2,0-0.3,0.2-0.3,0.3
		c0,0.3,0.4,0.3,0.6,0.3c0.5,0,1.2,0,1.7-0.1c0.6,0,1.1,0,1.3,0c0.4,0,1.2,0,2.5,0.1l0.6,0c1.1,0,2.7,0.1,4.6,0.1
		c1.2,0,1.5,0,1.7-0.8c0.2-0.6,0.4-2.5,0.4-2.6c0-0.4-0.2-0.5-0.3-0.5c-0.2,0-0.3,0.2-0.4,0.5c-0.2,1-0.5,1.5-1.3,1.8
		c-0.8,0.3-2.2,0.3-3,0.3c-2.9,0-3.4-0.3-3.5-2.1c0-0.4,0-2.1,0-3.4c0-0.5,0-0.9,0-1.2v-2.3c0-0.1,0-0.1,0.1-0.1
		c0.6,0,3.7,0,4.5,0.1c1.2,0.1,1.4,0.5,1.5,0.8c0.1,0.3,0.1,0.6,0.1,0.9c0,0.2,0.1,0.3,0.3,0.3c0.3,0,0.4-0.3,0.4-0.6
		c0-0.2,0.1-1.2,0.1-1.8c0-0.6,0.1-1,0.2-1.2c0-0.1,0.1-0.2,0.1-0.3c0-0.3-0.2-0.3-0.3-0.3c-0.1,0-0.2,0.1-0.4,0.3l-0.1,0.1
		c-0.3,0.3-0.7,0.3-1.3,0.4l-0.1,0c-0.6,0.1-4.3,0.1-5,0.1c-0.1,0-0.1,0-0.1-0.2v-7.4c0-0.2,0-0.2,0.1-0.2c0.4,0,3.8,0,4.3,0.1
		c1.6,0.2,1.9,0.4,2.1,0.8c0.1,0.3,0.2,0.7,0.2,0.9c0,0.4,0.2,0.4,0.3,0.4c0.2,0,0.3-0.2,0.3-0.4c0-0.2,0.1-0.8,0.1-1.2
		c0-0.3,0-0.5,0-0.6c0-0.5,0.1-0.8,0.2-1c0-0.1,0.1-0.2,0.1-0.3c0-0.2-0.1-0.3-0.2-0.3c-0.1,0-0.2,0-0.3,0.1l-0.1,0.1l-0.2,0
		c-0.3,0-0.7,0.1-1.2,0.1c-0.2,0-0.9,0-2.1,0c-1.6,0-3.8,0-4.6,0l-0.4,0c0,0-0.2,0-0.5,0c-0.7,0-2-0.1-3-0.1c-0.2,0-0.6,0-0.6,0.3
		c0,0.1,0.2,0.3,0.3,0.3c0.3,0,0.8,0,1,0.1c0.9,0.1,1.1,0.5,1.2,1.4c0.1,0.9,0.1,1.6,0.1,5.8v4.8
		C244.9,161.5,244.9,163.6,244.7,164.7z"/>
	<path d="M290.1,166.2c-0.3,0-1.1,0-1.9-0.3c-1.1-0.3-1.3-1.5-1.5-2.7l-2-16.7c-0.1-0.7-0.4-0.8-0.5-0.8c-0.3,0-0.4,0.3-0.5,0.5
		l-8.6,16.7l-8.9-16.8c-0.2-0.4-0.5-0.5-0.7-0.5c-0.2,0-0.4,0.2-0.4,0.6l-2.2,17.7l0,0.3c-0.1,0.9-0.2,1.7-1.1,1.8l-0.1,0
		c-0.4,0.1-0.6,0.1-0.8,0.1c-0.2,0-0.4,0.1-0.4,0.3c0,0.2,0.2,0.3,0.6,0.3c0.5,0,1.3,0,1.8-0.1c0.3,0,0.6,0,0.7,0c0.1,0,0.3,0,0.5,0
		c0.6,0,1.5,0.1,2.3,0.1c0.2,0,0.6,0,0.6-0.3c0-0.1-0.2-0.3-0.3-0.3c-0.1,0-0.5,0-1.1-0.2c-0.3-0.1-0.6-0.2-0.6-0.7c0-0.4,0-1,0-1.4
		l1.1-12.2h0c0.4,0.8,1.6,3.2,2.6,5.1c0.5,0.9,0.9,1.7,1.2,2.3c0.7,1.5,2.7,4.9,3.5,6.3c0.6,1,0.8,1.3,1.1,1.3s0.5-0.3,1.1-1.5
		l7.1-13.8l1.4,13.6c0.1,0.6,0,0.9-0.1,0.9c-0.2,0-0.3,0.2-0.3,0.3c0,0.2,0.2,0.3,0.9,0.4c1.1,0.1,4.5,0.2,5.1,0.2
		c0.4,0,0.7-0.1,0.7-0.3C290.4,166.3,290.3,166.2,290.1,166.2z"/>
	<path d="M311.1,146.1c-0.4,0-1.3,0-2.1,0c-0.4,0-0.8,0-0.8,0c-0.1,0-0.3,0-0.5,0c-0.4,0-1.1,0-1.6,0c-0.5,0-0.6,0.1-0.6,0.2
		c0,0.2,0.2,0.3,0.5,0.4c0.3,0.1,0.4,0.3,0.4,0.6c0,0.4-0.2,0.8-0.5,1.4c-0.2,0.3-0.6,1-1.2,1.9c-1.2,2-3.1,4.9-3.6,5.8l-5.3-8.4
		l0-0.1c-0.2-0.3-0.4-0.6-0.4-0.9c0-0.2,0.1-0.3,0.3-0.4c0.4-0.1,0.5-0.2,0.5-0.4c0-0.2-0.2-0.3-0.5-0.3c-0.8,0-1.7,0-2.2,0.1
		c-0.2,0-0.4,0-0.4,0c0,0-0.3,0-0.7,0c-0.8,0-1.9,0-2.3,0c-0.1,0-0.5,0-0.5,0.3c0,0.2,0.2,0.3,0.4,0.3c0.2,0,0.8,0.1,1.2,0.4
		c0.5,0.3,1.2,0.9,1.9,2c1,1.4,5,7.5,5.3,7.9c0.4,0.8,0.6,1.3,0.6,2.7v2.3c0,0.4,0,1.6-0.1,2.7c-0.1,0.9-0.3,1.3-0.8,1.4
		c-0.2,0.1-0.6,0.1-0.9,0.1c-0.2,0-0.3,0.2-0.3,0.3c0,0.3,0.4,0.3,0.6,0.3c0.6,0,1.8-0.1,2.4-0.1c0.3,0,0.4,0,0.5,0c0,0,0.2,0,0.4,0
		c0.7,0,2.1,0.1,3.4,0.1c0.4,0,0.6-0.2,0.6-0.3c0-0.1-0.1-0.3-0.3-0.3c-0.3,0-0.9-0.1-1.3-0.1c-0.8-0.1-1-0.6-1.1-1.4
		c-0.1-1.1-0.1-2.3-0.1-2.7v-2.3c0-0.2,0-0.3,0-0.5c0-0.7,0-1.4,0.4-2.2c0.7-1.2,4.8-7.6,5.8-8.6c0.7-0.7,0.9-1,1.5-1.3
		c0.4-0.2,1-0.3,1.4-0.3c0.3,0,0.5-0.2,0.5-0.4C311.5,146.2,311.3,146.1,311.1,146.1z"/>
	<path d="M115.2,95.5c0.8,0.7,1.5,1.4,1.5,1.4c0.4,0.4,1.1,0.6,1.4,0.5c0,0,1.5-0.3,2.8-0.7c1.4-0.4,2.7-0.8,2.7-0.8l0.1-0.1
		c0,0,0-0.2-0.3-0.4c0,0-0.2-0.1-0.5-0.3c-0.3-0.2-0.7-0.6-1-0.8l-1-0.8c-0.3-0.2-0.5-0.4-0.5-0.4c-0.3-0.3-1-0.5-1.3-0.5l-0.9,0.2
		c-0.5,0.1-1.2,0.2-2,0.3c-1.4,0.2-2.9,0.4-2.9,0.4l-0.1,0.1c0,0.1,0,0.2,0.3,0.5C113.7,94.1,114.4,94.8,115.2,95.5z"/>
	<path d="M124.4,94.2c0.1,0.1,0.3,0.1,0.4,0.1c0,0,0.1,0,0.1-0.2c0,0,0.1-1.4,0.2-2.8c0.1-1.4,0.3-2.7,0.3-2.7
		c0-0.3-0.2-0.8-0.5-1.1l-1.2-1.1l-1.1-1.1c-0.1-0.1-0.2-0.2-0.3-0.2c0,0-0.1,0-0.1,0.1c0,0-0.3,1.3-0.6,2.6
		c-0.2,0.7-0.3,1.4-0.4,1.9c-0.1,0.5-0.1,0.9-0.1,0.9c0,0.3,0.2,0.9,0.5,1.2c0,0,0.2,0.1,0.4,0.4l1,0.8c0.4,0.3,0.7,0.6,1,0.8
		C124.2,94.1,124.4,94.2,124.4,94.2z"/>
	<path d="M111,90.5l0-0.2c0,0,1.5,0,2.9-0.2c1.4-0.1,2.8-0.3,2.8-0.3l0.1-0.1c0,0,0-0.2-0.2-0.4l-1.3-1.4l-1.2-1.4
		c-0.3-0.4-0.8-0.7-1.2-0.7c0,0-1.4,0-2.9,0c-1.4,0-2.9-0.1-2.9-0.1h0l-0.1,0c0,0,0,0.2,0.2,0.5l0.4,0.5c0.2,0.3,0.5,0.7,0.8,1.1
		l0.9,1.1c0.2,0.3,0.4,0.5,0.4,0.5c0.4,0.4,1,0.7,1.3,0.7L111,90.5L111,90.5z"/>
	<path d="M115.4,85.6c0,0,0.6,0.7,1.2,1.4l1.2,1.3c0.1,0.2,0.3,0.2,0.3,0.2c0,0,0.1,0,0.1-0.1c0,0,0.3-1.4,0.7-2.7
		c0.3-1.3,0.8-2.6,0.8-2.6c0.1-0.3,0-0.8-0.3-1.1c0,0-0.1-0.2-0.3-0.4l-0.8-1c-0.2-0.3-0.4-0.5-0.5-0.8l-0.3-0.4
		c-0.1-0.2-0.2-0.2-0.3-0.2l-0.1,0.1c0,0-0.6,1.2-1.1,2.5c-0.5,1.2-1,2.6-1,2.6C115,84.6,115.1,85.2,115.4,85.6z"/>
	<path d="M103.5,80c0.1,0.2,0.2,0.4,0.3,0.5l0.3,0.6c0.3,0.5,0.8,0.9,1.1,1c0,0,1.5,0.2,2.9,0.3c1.4,0.1,2.8,0.2,2.9,0.2l0,0.2v0
		v-0.2l0.1,0c0,0,0-0.2-0.1-0.4c0,0-0.1-0.2-0.3-0.5l-0.8-1.3c-0.2-0.3-0.4-0.6-0.5-0.9l-0.3-0.5c-0.2-0.4-0.7-0.8-1.1-0.9
		c0,0-0.4,0-0.9-0.1c-0.5-0.1-1.2-0.2-1.9-0.4c-0.8-0.2-1.5-0.3-2-0.4l-0.9-0.2l-0.1,0l-0.1,0c0,0.1-0.1,0.2,0.1,0.5L103.5,80z"/>
	<path d="M114.9,74.9c-0.1-0.1-0.2-0.3-0.2-0.5c-0.1-0.2-0.2-0.4-0.3-0.5l-0.7-1.4c-0.1-0.3-0.3-0.3-0.4-0.2c0,0-0.2,0.3-0.5,0.7
		c-0.2,0.3-0.6,0.9-1,1.6c-0.4,0.6-0.7,1.2-1,1.6c-0.3,0.5-0.4,0.8-0.4,0.8c-0.1,0.3-0.1,0.9,0.1,1.3l0.3,0.5
		c0.1,0.2,0.3,0.5,0.5,0.8l0.2,0.3c0.2,0.4,0.5,0.8,0.6,1.1c0.2,0.3,0.3,0.5,0.3,0.5c0.1,0.2,0.3,0.3,0.3,0.3l0.1-0.1
		c0,0,0.5-1.3,1.2-2.5c0.6-1.2,1.2-2.4,1.3-2.4c0.2-0.3,0.1-0.8,0-1.2C115.1,75.3,115,75.1,114.9,74.9z"/>
	<path d="M99.3,68.5c0.1,0.3,0.2,0.9,0.4,1.4c0.3,1,0.6,2,0.6,2c0.2,0.5,0.6,1,1,1.1c0,0,0.3,0.1,0.9,0.3l0.3,0.1
		c0.5,0.1,1,0.3,1.6,0.5c1.4,0.4,2.8,0.7,2.8,0.7c0.1,0,0.2,0,0.2,0c0,0,0.1-0.2-0.1-0.4c0,0-0.1-0.2-0.2-0.5
		c-0.1-0.3-0.3-0.7-0.5-1.2l-0.6-1.7c-0.2-0.5-0.6-0.9-0.9-1l-1.1-0.4c-0.5-0.2-1-0.4-1.6-0.6c-1.3-0.5-2.7-1.1-2.7-1.1
		c-0.1-0.1-0.1,0-0.2,0c0,0.1-0.1,0.2,0,0.5L99.3,68.5z"/>
	<path d="M111.6,66.5c-0.1-0.3-0.2-0.7-0.3-1l-0.1-0.6c-0.1-0.3-0.2-0.4-0.4-0.2c0,0-1,1-1.9,2c-0.4,0.4-0.8,0.9-1.1,1.2l-0.2,0.2
		c-0.3,0.4-0.6,0.7-0.6,0.7c-0.2,0.2-0.3,0.9-0.2,1.3c0,0,0.3,0.9,0.6,1.7c0.1,0.4,0.3,0.8,0.4,1.1l0.2,0.5c0.1,0.2,0.2,0.3,0.3,0.3
		l0.1-0.1c0,0,0.8-1.2,1.6-2.3c0.3-0.5,0.7-0.9,1-1.3l0.7-0.9c0.2-0.2,0.3-0.8,0.1-1.2L111.6,66.5z"/>
	<path d="M101.3,64.6c0.7,0.3,1.3,0.6,1.8,0.8l0.8,0.3c0.1,0.1,0.1,0,0.2,0c0-0.1,0.1-0.2,0-0.4l-0.6-3.1c0-0.3-0.1-0.6-0.1-0.6
		c-0.1-0.5-0.4-1-0.7-1.2c0,0-1.3-0.7-2.5-1.5c-1.2-0.8-2.4-1.6-2.4-1.6l-0.1,0l0,0c-0.1,0.1-0.1,0.2-0.1,0.5c0,0,0,0.3,0,0.6
		l0.2,1.8c0,0.4,0.1,0.8,0.1,1C98,61.7,98,62,98,62c0.1,0.6,0.4,1.2,0.7,1.3c0,0,0.3,0.2,0.8,0.4C100,64,100.7,64.3,101.3,64.6z"/>
	<path d="M109.3,62c0.4-0.3,0.6-0.6,0.6-0.6c0.3-0.2,0.4-0.7,0.4-1.1l-0.1-0.5c0-0.3-0.1-0.6-0.1-1l-0.1-1.2c0-0.3,0-0.5,0-0.5
		c0-0.2-0.1-0.3-0.2-0.3l-0.1,0.1c0,0-1.2,0.8-2.2,1.6c-1.1,0.8-2.2,1.7-2.2,1.7c-0.3,0.2-0.4,0.8-0.4,1.3l0.3,1.8l0.3,1.8
		c0.1,0.2,0.2,0.4,0.2,0.4l0.1-0.1l0.6-0.6c0.4-0.4,0.9-0.9,1.4-1.4C108.4,62.8,108.9,62.4,109.3,62z"/>
	<path d="M100.4,55.1c1.2,0.8,2.4,1.6,2.4,1.6c0.1,0.1,0.1,0.1,0.2,0c0.1-0.1,0.1-0.2,0.1-0.4l0-0.6c0-0.3,0-0.7,0-1l0-1.5
		c0-0.4,0-0.6,0-0.6c0-0.5-0.2-1.1-0.5-1.3c0,0-1.1-0.9-2.2-1.9c-1.1-1-2.1-2-2.1-2l-0.1-0.1c-0.1,0-0.2,0.1-0.2,0.5l-0.2,2.1
		l-0.1,2.1c0,0.6,0.2,1.2,0.5,1.4C98.1,53.3,99.2,54.2,100.4,55.1z"/>
	<path d="M104.5,52.6c0,0,0,0.2,0,0.6l0,1.4c0,0.4,0,0.8,0,1.1l0,0.6c0,0.3,0.1,0.4,0.2,0.4l0.1-0.1c0,0,1.2-0.8,2.3-1.6
		c1.2-0.8,2.3-1.4,2.4-1.4c0.3-0.2,0.5-0.6,0.6-1l0.1-1.6c0.1-0.8,0.2-1.6,0.2-1.6c0-0.2,0-0.3-0.1-0.3l-0.1,0l-0.1,0
		c0,0-1.2,0.6-2.5,1.2c-1.2,0.6-2.4,1.3-2.4,1.3C104.9,51.6,104.5,52.1,104.5,52.6z"/>
	<path d="M99.8,44c0.3,0.4,0.8,0.9,1.4,1.5c1,1,2,2,2,2l0.1,0.1c0.1,0,0.2-0.1,0.2-0.4l0.3-1.8l0.4-1.8c0.1-0.5,0-1.1-0.2-1.3
		c0,0-0.9-1.1-1.8-2.2c-0.9-1.1-1.7-2.3-1.7-2.4l-0.1-0.1c-0.1,0-0.2,0.1-0.3,0.4c0,0-0.1,0.2-0.2,0.6c-0.1,0.3-0.3,0.8-0.4,1.4
		l-0.4,1.4c-0.1,0.4-0.2,0.6-0.2,0.6c-0.1,0.6,0,1.2,0.2,1.5L99.8,44z"/>
	<path d="M105.7,43.8c0,0-0.2,0.9-0.4,1.8l-0.3,1.8c0,0.2,0,0.3,0,0.4l0.1,0l0.1,0c0,0,1.3-0.6,2.6-1.2c0.6-0.3,1.3-0.5,1.8-0.7
		c0.5-0.2,0.8-0.3,0.8-0.3c0.3-0.1,0.6-0.5,0.7-0.9c0,0,0-0.2,0.1-0.5l0.3-1.1c0.1-0.4,0.2-0.8,0.3-1.1c0.1-0.3,0.2-0.5,0.2-0.5
		c0.1-0.2,0-0.3,0-0.3l-0.1,0l-0.1,0c0,0-1.3,0.3-2.7,0.7c-1.3,0.4-2.6,0.9-2.6,0.9C106.2,42.9,105.8,43.4,105.7,43.8z"/>
	<path d="M102.6,34.6c0.3,0.5,0.7,1.1,1.1,1.7c0.5,0.7,0.8,1.2,1.1,1.6c0.3,0.4,0.5,0.7,0.5,0.7l0.1,0.1c0.1,0,0.2-0.1,0.3-0.4
		c0,0,0.3-0.9,0.6-1.7c0.1-0.4,0.3-0.8,0.5-1.2l0.2-0.5c0.2-0.5,0.2-1.1,0-1.4c0,0-0.7-1.2-1.4-2.5c-0.3-0.6-0.6-1.2-0.9-1.8
		l-0.4-0.8l-0.1-0.1c-0.1,0-0.2,0.1-0.4,0.4l-0.6,1.2l-0.5,1.1c-0.1,0.3-0.3,0.6-0.4,0.8c-0.2,0.4-0.3,0.6-0.3,0.6
		c-0.2,0.5-0.2,1.2,0,1.5C102.2,33.8,102.3,34.1,102.6,34.6z"/>
	<path d="M113.6,37.2c0,0,0.1-0.2,0.2-0.5c0.1-0.2,0.2-0.4,0.3-0.6c0.1-0.1,0.1-0.3,0.2-0.4l0.5-1c0.1-0.3,0.2-0.5,0.2-0.5
		c0.1-0.2,0.1-0.3,0.1-0.3l-0.1-0.1L114,34c-0.6,0-1.3,0.1-1.9,0.2c-1.3,0.1-2.8,0.4-2.8,0.4c-0.3,0-0.8,0.5-1,0.9l-0.2,0.5
		c-0.2,0.4-0.3,0.8-0.5,1.1c-0.3,0.9-0.6,1.7-0.6,1.7c-0.1,0.2,0,0.4,0,0.4l0.1,0l0.1,0l0.8-0.2c0.5-0.1,1.2-0.3,1.9-0.5
		c0.7-0.2,1.4-0.3,1.9-0.4c0.5-0.1,0.9-0.2,0.9-0.2C113,37.9,113.5,37.6,113.6,37.2z"/>
	<path d="M107.8,27.6c0.3,0.7,0.6,1.3,0.8,1.8l0.4,0.8l0.1,0.1c0,0,0.2-0.1,0.3-0.3l0.3-0.5l1.3-2.2l0.3-0.5c0.3-0.4,0.4-1,0.3-1.3
		c0,0-0.1-0.3-0.3-0.8c-0.2-0.5-0.4-1.2-0.6-1.9c-0.2-0.7-0.4-1.4-0.6-1.9c-0.1-0.5-0.2-0.9-0.2-0.9c0-0.1-0.1-0.1-0.1-0.1
		c-0.1,0-0.2,0.1-0.4,0.3c0,0-0.6,0.8-1.2,1.7c-0.2,0.3-0.4,0.6-0.6,0.9l-0.6,0.8c-0.3,0.4-0.4,1.1-0.3,1.5
		C106.7,24.9,107.3,26.3,107.8,27.6z"/>
	<path d="M110.7,30.7c-0.1,0.2-0.1,0.4-0.1,0.4l0.1,0l0,0l0.9-0.1c0.5,0,1.2-0.1,1.9-0.1c1,0,2,0,2.5,0h0.3c0.3,0,0.8-0.3,1-0.6
		c0,0,0.1-0.2,0.3-0.4l0.1-0.2c0.1-0.2,0.3-0.5,0.5-0.7c0.5-0.6,1-1.3,1-1.3c0.1-0.2,0.2-0.3,0.1-0.3l-0.2-0.1l-0.9-0.1
		c-0.5,0-1.2-0.1-1.9-0.2c-0.7,0-1.4-0.1-1.9-0.1c-0.4,0-0.8,0-0.8,0c-0.3,0-0.9,0.3-1.1,0.7l-0.4,0.6l-1.2,2L110.7,30.7z"/>
	<path d="M113,18c0.1,0.5,0.2,1.1,0.4,1.8c0.3,1.4,0.7,2.8,0.7,2.8c0,0.1,0.1,0.1,0.1,0.1c0.1,0,0.2-0.1,0.4-0.3L115,22
		c0.2-0.3,0.5-0.6,0.8-1l1.2-1.4c0.3-0.3,0.6-0.9,0.5-1.3l-0.1-0.9c-0.1-0.4-0.2-1.1-0.3-2c-0.2-1.4-0.3-2.9-0.3-2.9
		c0-0.1-0.1-0.1-0.1-0.1c0,0-0.2,0-0.4,0.2l-0.5,0.4c-0.1,0.1-0.2,0.2-0.3,0.3c-0.2,0.2-0.5,0.4-0.7,0.7c-0.7,0.7-1.5,1.5-1.5,1.5
		c-0.4,0.4-0.6,1-0.6,1.4c0,0,0.1,0.4,0.2,0.9L113,18z"/>
	<path d="M115.6,23.8l0.2,0.1l5.1,1l0.2,0c0.3,0,0.8-0.1,1.3-0.7l2.3-2.2c0.2-0.1,0.2-0.3,0.2-0.3l-0.1-0.1l-5.4-1.3
		c-0.4,0-0.9,0.2-1.2,0.5l-2.4,2.7C115.6,23.5,115.6,23.7,115.6,23.8z"/>
	<path d="M120.7,11.2c0,0.5,0.1,1.2,0.2,1.8c0.2,1.4,0.4,2.8,0.4,2.8c0,0.1,0.1,0.1,0.1,0.1c0,0,0.2,0,0.4-0.2c0,0,0.2-0.2,0.4-0.4
		c0.2-0.2,0.6-0.5,1-0.9l1.4-1.2c0.4-0.3,0.7-0.8,0.7-1.2c0,0,0-0.4,0-0.9c0-0.4,0-1.2,0-2c0-1.4,0.1-2.9,0.1-2.9c0-0.1,0-0.1,0-0.1
		l-0.1,0c-0.1,0-0.2,0-0.4,0.2l-0.5,0.4c-0.1,0.1-0.2,0.2-0.4,0.3c-0.2,0.2-0.5,0.4-0.8,0.6c-0.8,0.6-1.6,1.3-1.6,1.3
		c-0.4,0.3-0.7,1-0.7,1.3c0,0,0,0.4,0.1,0.9L120.7,11.2z"/>
	<path d="M122.6,17.2l0.1,0.1l4.9,1.6c0.2,0.1,0.9,0.2,1.6-0.5l2.6-1.9c0.2-0.1,0.2-0.2,0.2-0.3l-0.1-0.1l-5.2-2l-0.2,0
		c-0.4,0-0.8,0.1-1.1,0.3l-2.7,2.4C122.6,17,122.6,17.1,122.6,17.2z"/>
	<path d="M129.4,9.8c0,0,0.2,0,0.4-0.2c0,0,0.2-0.1,0.5-0.3c0.3-0.2,0.7-0.5,1.1-0.7l1.5-1c0.4-0.3,0.8-0.7,0.8-1.1
		c0,0,0-0.4,0.1-0.9c0-0.4,0.1-1.1,0.2-2c0.2-1.4,0.5-2.9,0.5-2.9l0-0.1c0-0.1-0.3,0-0.5,0.1L133.3,1c-0.1,0.1-0.3,0.1-0.4,0.2
		c-0.3,0.1-0.6,0.3-0.9,0.5c-0.9,0.5-1.8,1.1-1.8,1.1c-0.5,0.3-0.9,0.9-0.9,1.2c0,0,0,0.4-0.1,0.9l0,0.2c0,0.5-0.1,1.1-0.1,1.8
		c0,1.4,0,2.8,0,2.9C129.3,9.8,129.3,9.8,129.4,9.8z"/>
	<path d="M130.6,10.8c-0.2,0.1-0.3,0.3-0.2,0.3l0.1,0.1l4.7,2.2c0.1,0,0.3,0.1,0.6,0.1c0.3,0,0.6-0.1,1.1-0.4l2.8-1.6
		c0.2-0.1,0.3-0.2,0.3-0.3l-0.1-0.1l-4.9-2.6c-0.1,0-0.3,0-0.5,0c-0.3,0-0.6,0.1-0.9,0.2L130.6,10.8z"/>
	<path d="M137.7,6.9c0,0,4,0.3,5,0.3l0.2,0c0.2-0.1,0.4-0.2,0.5-0.3l2.3-3.4c0.1-0.1,0.2-0.3,0.1-0.4c0-0.1-0.2-0.2-0.3-0.2
		l-4.5-0.6l-0.2,0c-0.4,0-0.6,0.1-0.8,0.4l-2.8,3.9l0,0.1C137.3,6.8,137.4,6.8,137.7,6.9z"/>
	<path d="M189.9,96.6c1.4,0.4,2.8,0.7,2.8,0.7c0.3,0.1,1-0.1,1.4-0.5c0,0,0.8-0.7,1.5-1.4c0.7-0.7,1.5-1.4,1.5-1.4
		c0.2-0.2,0.3-0.4,0.3-0.5l-0.1-0.1c0,0-1.5-0.2-2.9-0.4c-0.8-0.1-1.5-0.2-2-0.3l-0.9-0.2l-0.2,0c-0.4,0-0.8,0.2-1.1,0.5
		c0,0-0.2,0.2-0.5,0.4l-1,0.8c-0.3,0.2-0.7,0.6-1,0.8c-0.3,0.2-0.5,0.3-0.5,0.3c-0.2,0.2-0.3,0.3-0.3,0.4l0.1,0.1
		C187.1,95.7,188.5,96.2,189.9,96.6z"/>
	<path d="M185.9,94.1c0,0.2,0.1,0.2,0.1,0.2c0.1,0,0.2-0.1,0.4-0.2c0,0,0.2-0.1,0.5-0.3c0.3-0.2,0.6-0.5,1-0.8l1-0.8
		c0.3-0.2,0.4-0.4,0.4-0.4c0.4-0.3,0.6-0.9,0.5-1.2c0,0-0.1-0.3-0.1-0.9c-0.1-0.5-0.2-1.2-0.4-1.9c-0.3-1.3-0.6-2.6-0.6-2.7
		c0-0.1-0.1-0.1-0.1-0.1c-0.1,0-0.2,0.1-0.3,0.2l-1.1,1.1l-1.2,1.1c-0.3,0.3-0.5,0.8-0.5,1.1c0,0,0.2,1.4,0.3,2.7
		C185.9,92.6,185.9,94,185.9,94.1z"/>
	<path d="M199.8,90.4L199.8,90.4l0-0.2c0.3,0,0.9-0.3,1.3-0.7c0,0,0.2-0.2,0.4-0.5l0.9-1.1c0.3-0.4,0.6-0.8,0.8-1.1l0.4-0.5
		c0.2-0.3,0.2-0.4,0.2-0.5l-0.1,0c0,0-1.5,0.1-2.9,0.1c-1.5,0-2.9,0-2.9,0h0c-0.3,0-0.9,0.3-1.2,0.7l-1.2,1.4l-1.3,1.4
		c-0.2,0.2-0.2,0.4-0.2,0.4l0.1,0.1c0,0,1.4,0.2,2.8,0.3c1.4,0.1,2.9,0.2,2.9,0.2L199.8,90.4z"/>
	<path d="M193.7,79.1l-0.1-0.1c-0.1,0-0.2,0.1-0.3,0.2l-0.3,0.4c-0.1,0.2-0.3,0.5-0.5,0.7l-0.8,1c-0.2,0.2-0.3,0.4-0.3,0.4
		c-0.3,0.3-0.4,0.8-0.3,1.1c0,0,0.5,1.3,0.8,2.6c0.4,1.3,0.7,2.7,0.7,2.7c0,0.1,0.1,0.1,0.1,0.1c0.1,0,0.2-0.1,0.3-0.2l1.2-1.3
		c0.6-0.7,1.1-1.4,1.1-1.4c0.3-0.4,0.4-1,0.3-1.3c0,0-0.5-1.3-1-2.6C194.2,80.3,193.7,79.1,193.7,79.1z"/>
	<path d="M206.7,81l0.3-0.6c0.1-0.2,0.2-0.4,0.3-0.6l1.2-2.5c0.1-0.3,0.1-0.5,0.1-0.5l-0.1,0l-0.1,0l-0.9,0.2
		c-0.5,0.1-1.2,0.3-2,0.4c-0.7,0.1-1.4,0.3-1.9,0.4s-0.9,0.1-0.9,0.1c-0.4,0.1-0.8,0.4-1.1,0.9l-0.3,0.5c-0.1,0.3-0.3,0.6-0.5,0.9
		l-0.8,1.3c-0.2,0.3-0.3,0.5-0.3,0.5c-0.2,0.2-0.2,0.4-0.1,0.4l0.1,0v0.2v0l0-0.2c0,0,1.5,0,2.9-0.2c1.4-0.1,2.9-0.3,2.9-0.3
		C205.8,81.9,206.4,81.5,206.7,81z"/>
	<path d="M198,81.3c0.1,0.2,0.2,0.2,0.5-0.1c0,0,0.1-0.2,0.3-0.5c0.2-0.3,0.4-0.7,0.6-1.1l0.2-0.3c0.2-0.3,0.3-0.6,0.4-0.8l0.3-0.5
		c0.2-0.4,0.2-1,0.1-1.3c0,0-0.2-0.3-0.4-0.8c-0.3-0.5-0.6-1-1-1.6c-0.4-0.7-0.8-1.3-1-1.6c-0.3-0.4-0.5-0.7-0.5-0.7l-0.1-0.1
		c-0.1,0-0.2,0.1-0.2,0.3l-0.7,1.5c-0.1,0.2-0.2,0.4-0.2,0.5c-0.1,0.2-0.2,0.3-0.3,0.5c-0.1,0.3-0.2,0.4-0.2,0.4
		c-0.2,0.3-0.2,0.9,0,1.2c0,0,0.7,1.2,1.3,2.4C197.5,80,198,81.3,198,81.3z"/>
	<path d="M209.6,72.8c0.3-0.1,0.8-0.6,1-1.1c0,0,0.3-1,0.6-2c0.2-0.5,0.3-1,0.4-1.4l0.2-0.6c0.1-0.3,0-0.4,0-0.5l-0.1,0l-0.1,0
		c0,0-1.4,0.6-2.7,1.1c-0.6,0.2-1.1,0.4-1.6,0.6l-1.1,0.4c-0.3,0.1-0.7,0.6-0.9,1l-0.6,1.7c-0.2,0.5-0.3,0.9-0.5,1.2
		c-0.1,0.3-0.2,0.5-0.2,0.5c-0.1,0.3-0.1,0.4-0.1,0.4c0,0,0.1,0,0.2,0c0,0,1.4-0.3,2.8-0.7c0.6-0.2,1.1-0.3,1.6-0.5l0.3-0.1
		C209.3,72.9,209.6,72.8,209.6,72.8z"/>
	<path d="M202.2,73.5l0.1,0.1c0.1,0,0.2-0.1,0.3-0.3l0.2-0.5c0.1-0.3,0.3-0.7,0.4-1.1c0.3-0.9,0.6-1.7,0.6-1.7
		c0.2-0.4,0-1.1-0.2-1.3c0,0-0.2-0.3-0.6-0.7l-0.2-0.2c-0.3-0.4-0.7-0.8-1.1-1.2c-0.9-1-1.9-2-1.9-2l-0.1-0.1
		c-0.1,0-0.2,0.1-0.2,0.3l-0.1,0.6c-0.1,0.3-0.2,0.6-0.3,1l-0.5,1.5c-0.1,0.4-0.1,0.9,0.1,1.2l0.7,0.9c0.3,0.4,0.6,0.8,1,1.3
		C201.4,72.3,202.2,73.5,202.2,73.5z"/>
	<path d="M212.8,61.8c0,0,0-0.3,0.1-0.6c0-0.3,0.1-0.7,0.1-1l0.2-1.8c0-0.4,0-0.6,0-0.6c0-0.3,0-0.4-0.1-0.5l0,0l-0.1,0
		c0,0-1.2,0.9-2.4,1.6c-1.2,0.8-2.5,1.4-2.5,1.5c-0.3,0.2-0.6,0.7-0.7,1.2c0,0,0,0.2-0.1,0.6l-0.2,1.3l-0.3,1.8
		c-0.1,0.2,0,0.4,0,0.4c0,0,0,0.1,0.2,0l0.8-0.3c0.5-0.2,1.1-0.5,1.8-0.8c0.7-0.3,1.3-0.6,1.8-0.9c0.5-0.3,0.8-0.4,0.8-0.4
		C212.4,63,212.7,62.4,212.8,61.8z"/>
	<path d="M204.9,65.2c0.1,0.2,0.3,0.1,0.4-0.3l0.5-3l0.1-0.6c0.1-0.5-0.1-1-0.4-1.3c0,0-1.1-0.9-2.2-1.7c-1.1-0.8-2.2-1.6-2.2-1.6
		c-0.2-0.1-0.3,0-0.3,0.3c0,0,0,0.2,0,0.5l-0.1,1.2c0,0.4-0.1,0.7-0.1,1l-0.1,0.5c-0.1,0.4,0.1,0.9,0.4,1.1c0,0,0.3,0.2,0.6,0.6
		c0.4,0.3,0.9,0.8,1.4,1.3c0.5,0.5,1,1,1.4,1.3L204.9,65.2z"/>
	<path d="M208.2,51.1c-0.3,0.2-0.5,0.8-0.4,1.3c0,0,0,0.2,0,0.6l0,1.5c0,0.4,0,0.8,0,1l0,0.6c0,0.2,0,0.4,0.1,0.4c0,0,0.1,0,0.2,0
		c0,0,1.2-0.8,2.4-1.6c1.1-0.8,2.3-1.7,2.3-1.8c0.3-0.2,0.5-0.9,0.5-1.4l-0.1-2.1l-0.2-2c0-0.3-0.2-0.5-0.2-0.5l-0.1,0.1
		c0,0-1.1,1.1-2.1,2C209.4,50.2,208.2,51.1,208.2,51.1z"/>
	<path d="M206.1,56.5c0.1,0,0.2-0.1,0.2-0.4l0-0.6c0-0.3,0-0.7,0-1.1l0-1.4c0-0.3,0-0.5,0-0.6c0-0.5-0.3-1-0.6-1.2
		c0,0-1.2-0.7-2.4-1.3c-1.2-0.6-2.5-1.2-2.5-1.2l-0.1,0l-0.1,0c-0.1,0.1-0.1,0.2-0.1,0.3c0,0,0.1,0.8,0.2,1.6l0.1,1.6
		c0,0.4,0.3,0.9,0.6,1c0,0,1.2,0.7,2.4,1.4c1.1,0.7,2.3,1.6,2.3,1.6L206.1,56.5z"/>
	<path d="M206.8,42c-0.2,0.2-0.3,0.9-0.2,1.4l0.4,1.8l0.3,1.8c0,0.3,0.2,0.4,0.2,0.4l0.1-0.1c0,0,1-1,2-2c0.6-0.6,1-1.1,1.4-1.5
		l0.6-0.7c0.2-0.2,0.4-0.9,0.2-1.5c0,0-0.1-0.2-0.2-0.6l-0.4-1.4c-0.1-0.5-0.3-1-0.4-1.4c-0.1-0.4-0.2-0.6-0.2-0.6
		c-0.1-0.3-0.2-0.4-0.3-0.4l-0.1,0.1c0,0-0.8,1.2-1.7,2.4C207.7,40.9,206.8,42,206.8,42z"/>
	<path d="M205.5,45.4c-0.2-0.9-0.4-1.8-0.4-1.8c-0.1-0.5-0.5-0.9-0.8-1c0,0-1.3-0.5-2.6-0.9c-1.3-0.4-2.6-0.7-2.7-0.7
		c-0.1,0-0.2,0-0.2,0c0,0.1-0.1,0.2,0,0.4c0,0,0.1,0.2,0.2,0.5c0.1,0.3,0.2,0.7,0.3,1.1l0.3,1.1c0.1,0.3,0.1,0.5,0.1,0.5
		c0.1,0.4,0.4,0.8,0.7,0.9c0,0,0.3,0.1,0.8,0.3c0.5,0.2,1.1,0.4,1.8,0.7c1.3,0.5,2.5,1.2,2.6,1.2l0.2,0c0-0.1,0.1-0.2,0-0.4
		L205.5,45.4z"/>
	<path d="M203.7,34.7l0.2,0.5c0.2,0.4,0.4,0.8,0.5,1.2c0.3,0.9,0.6,1.7,0.6,1.7c0.1,0.3,0.2,0.4,0.3,0.4l0.1-0.1
		c0,0,0.2-0.3,0.5-0.7c0.3-0.4,0.6-0.9,1.1-1.6c0.4-0.6,0.8-1.2,1.1-1.7c0.3-0.5,0.5-0.8,0.5-0.8c0.2-0.3,0.2-1,0-1.5
		c0,0-0.1-0.2-0.3-0.6c-0.1-0.2-0.2-0.5-0.4-0.8l-1.1-2.3c-0.2-0.3-0.3-0.4-0.4-0.4l-0.1,0.1L206,29c-0.2,0.5-0.6,1.2-0.9,1.8
		c-0.7,1.3-1.4,2.5-1.4,2.5C203.6,33.6,203.5,34.2,203.7,34.7z"/>
	<path d="M203.1,36.9c-0.1-0.3-0.3-0.7-0.5-1.1l-0.2-0.5c-0.2-0.4-0.6-0.8-1-0.9c0,0-1.4-0.2-2.8-0.4c-0.6-0.1-1.3-0.1-1.9-0.2
		l-0.9-0.1l-0.2,0.1c0,0,0,0.2,0.1,0.3c0,0,0.1,0.2,0.2,0.4l0.5,1c0.1,0.1,0.1,0.3,0.2,0.4c0.1,0.2,0.2,0.4,0.3,0.6
		c0.1,0.3,0.2,0.5,0.2,0.5c0.2,0.4,0.6,0.7,0.9,0.8c0,0,0.3,0.1,0.8,0.1c0.5,0.1,1.2,0.2,1.9,0.4c0.7,0.1,1.4,0.3,1.9,0.5l0.8,0.2
		c0.1,0,0.2,0,0.2,0c0-0.1,0.1-0.2,0-0.4C203.7,38.6,203.4,37.8,203.1,36.9z"/>
	<path d="M199.7,27.1l1.3,2.2l0.3,0.5c0.1,0.3,0.3,0.3,0.3,0.3l0.1-0.1l0.4-0.8c0.2-0.4,0.5-1.1,0.8-1.8c0.6-1.3,1.1-2.7,1.1-2.7
		c0.1-0.3,0-1-0.3-1.5l-0.6-0.8c-0.2-0.3-0.4-0.6-0.6-0.9c-0.6-0.8-1.2-1.7-1.2-1.7c-0.2-0.2-0.3-0.3-0.4-0.3c0,0-0.1,0-0.1,0.1
		c0,0-0.1,0.4-0.2,0.9c-0.1,0.5-0.3,1.2-0.6,1.9c-0.2,0.7-0.4,1.4-0.6,1.9c-0.2,0.5-0.3,0.8-0.3,0.8c-0.1,0.3,0,0.9,0.3,1.3
		L199.7,27.1z"/>
	<path d="M197.1,26.8c-0.1,0-0.4,0-0.9,0c-0.5,0-1.2,0.1-1.9,0.1c-0.7,0-1.4,0.1-1.9,0.2l-0.9,0.1l-0.2,0.1c0,0.1,0,0.2,0.1,0.3
		c0,0,0.5,0.6,1,1.3c0.2,0.2,0.4,0.5,0.5,0.7l0.1,0.2c0.2,0.2,0.3,0.4,0.3,0.4c0.2,0.4,0.7,0.6,1,0.6h0.3c0.5,0,1.5,0,2.5,0
		c0.7,0,1.4,0.1,1.9,0.1L200,31l0.1,0c0-0.1,0-0.2-0.1-0.4l-0.5-0.9l-1-1.7l-0.3-0.5C197.9,27,197.4,26.8,197.1,26.8z"/>
	<path d="M195,20.9c0.3,0.3,0.6,0.7,0.8,1l0.4,0.4c0.2,0.2,0.3,0.3,0.4,0.3c0,0,0.1,0,0.1-0.1c0,0,0.4-1.4,0.7-2.8
		c0.2-0.6,0.3-1.3,0.4-1.8l0-0.1c0.1-0.5,0.2-0.9,0.2-0.9c0.1-0.3-0.2-1-0.6-1.4c0,0-0.7-0.7-1.5-1.5c-0.2-0.2-0.5-0.5-0.7-0.7
		c-0.1-0.1-0.2-0.2-0.3-0.3l-0.5-0.4c-0.2-0.2-0.4-0.2-0.4-0.2c0,0-0.1,0-0.1,0.1c0,0-0.1,1.5-0.3,2.9c-0.1,0.8-0.2,1.6-0.3,2
		l-0.1,0.9c-0.1,0.3,0.2,0.9,0.5,1.3L195,20.9z"/>
	<path d="M185.9,21.5c0,0.1,0,0.2,0.2,0.3l2.3,2.2c0.5,0.6,1,0.7,1.3,0.7l0.2,0l5.1-1l0.2-0.1c0-0.1,0-0.2-0.2-0.4l-2.4-2.7
		c-0.3-0.3-0.8-0.5-1.2-0.5l-5.4,1.3L185.9,21.5z"/>
	<path d="M185.6,11c0,0.5,0,0.9,0,0.9c0,0.3,0.3,0.9,0.7,1.2l1.4,1.2c0.4,0.3,0.8,0.7,1,0.9c0.3,0.2,0.4,0.4,0.4,0.4
		c0.2,0.2,0.3,0.2,0.4,0.2c0,0,0.1,0,0.1-0.1c0,0,0.2-1.4,0.4-2.8c0.1-0.7,0.1-1.3,0.2-1.8l0-0.1c0-0.5,0.1-0.9,0.1-0.9
		c0-0.3-0.3-1-0.7-1.3c0,0-0.8-0.6-1.6-1.3c-0.3-0.2-0.5-0.4-0.8-0.6c-0.1-0.1-0.3-0.2-0.4-0.3l-0.5-0.4C185.9,6,185.7,6,185.7,6
		l-0.1,0c0,0,0,0,0,0.1c0,0,0.1,1.5,0.1,2.9C185.7,9.9,185.6,10.7,185.6,11z"/>
	<path d="M178.8,16c0,0.1,0,0.2,0.2,0.3l2.6,1.9c0.7,0.7,1.4,0.6,1.6,0.5l4.9-1.6l0.2-0.1c0-0.1,0-0.2-0.2-0.4l-2.7-2.4
		c-0.3-0.2-0.7-0.3-1.1-0.3l-0.2,0l-5.1,2L178.8,16z"/>
	<path d="M177.1,5.4c0,0.5,0.1,0.9,0.1,0.9c0,0.3,0.4,0.8,0.8,1.1l1.6,1c0.4,0.3,0.8,0.5,1.1,0.7c0.3,0.2,0.5,0.3,0.5,0.3
		c0.2,0.1,0.3,0.2,0.4,0.2c0,0,0.1,0,0.1-0.2c0,0,0-1.4,0-2.9c0-0.6,0-1.3-0.1-1.8l0-0.2c0-0.5-0.1-0.9-0.1-0.9
		c0-0.3-0.4-0.9-0.9-1.2c0,0-0.9-0.5-1.8-1.1c-0.3-0.2-0.6-0.3-0.9-0.5c-0.1-0.1-0.3-0.1-0.4-0.2l-0.6-0.3c-0.2-0.1-0.3-0.1-0.4-0.1
		l-0.1,0l0,0.1c0,0,0.3,1.5,0.5,2.9C177,4.3,177.1,5,177.1,5.4z"/>
	<path d="M170.9,11.2c0,0.1,0.1,0.2,0.3,0.3l2.8,1.6c0.4,0.3,0.8,0.4,1.1,0.4c0.3,0,0.5-0.1,0.6-0.1l4.7-2.2l0.2-0.1
		c0-0.1-0.1-0.2-0.3-0.3l-3-2c-0.2-0.1-0.5-0.2-0.8-0.2c-0.2,0-0.3,0-0.5,0.1l-4.8,2.6L170.9,11.2z"/>
	<path d="M165.1,3.3l2.3,3.4c0.1,0.1,0.3,0.2,0.5,0.3l0.2,0c1,0,4.9-0.3,5-0.3c0.3,0,0.4-0.1,0.4-0.1l0-0.1l-2.8-3.9
		c-0.2-0.2-0.4-0.4-0.8-0.4l-0.2,0l-4.5,0.6c-0.1,0-0.3,0.1-0.3,0.2C164.9,3,164.9,3.2,165.1,3.3L165.1,3.3z"/>
	<path d="M87.8,108.2c1.1,0.2,2.3,0.4,2.5-0.9c0.2-1.3-0.9-2.2-0.9-2.2s1.2-1.7,5.9,0.9c4.7,2.5,11.5,5.2,18.8,0c0,0-2,6.9,4.5,8
		c3.9,0.7,5.6-3.9,9.2-1.2c2.6,2,4.5,2.1,5.7,0.3c0,0,0.3-2.8-2.9-0.8c0,0-1.7,0-2.2-2c-0.5-2.1-4-2.1-4-2.1s-0.2-2.9-3.1-3.1
		c-2.9-0.2-2.7,3.7-2.7,3.7s2.6-1.5,2.2,1c-0.3,1.8-2,1.5-2.8,1.2s-2.9-1.2-2.4-4.4c0.2-1.5,2.8-5.4,8.4-4.3c5.6,1,8,6.3,8,6.3
		c1.4,4.2,7.4,6.3,7.4,6.3c-1.9,3.2,2.3,3.3,2.3,3.3s-1.6-2.6,2.3-2.6c5.4,0,8.9-2.1,11-4.4c2.1,2.3,5.6,4.4,11,4.4
		c3.9,0,2.3,2.6,2.3,2.6s4.1-0.1,2.3-3.3c0,0,6-2.1,7.4-6.3c0,0,2.3-5.3,8-6.3c5.6-1,8.2,2.9,8.4,4.3c0.5,3.3-1.6,4.1-2.4,4.4
		s-2.5,0.6-2.8-1.2c-0.4-2.5,2.2-1,2.2-1s0.2-3.9-2.7-3.7c-2.9,0.2-3.1,3.1-3.1,3.1s-3.5,0.1-4,2.1c-0.5,2.1-2.2,2-2.2,2
		c-3.1-2-2.9,0.8-2.9,0.8c1.1,1.8,3.1,1.7,5.7-0.3c3.6-2.8,5.3,1.8,9.2,1.2c6.5-1.1,4.5-8,4.5-8c7.3,5.2,14.1,2.5,18.8,0
		c4.7-2.5,5.9-0.9,5.9-0.9s-1.1,0.9-0.9,2.2c0.2,1.3,1.4,1.1,2.5,0.9c1.1-0.2,1.5-1.4,1.4-2.2c-0.1-0.8-0.7-3.7-7-3.4
		c-2.6,0.1-4.2,2.6-9.4,0.8c-6.9-2.3-5.8,2.7-5.8,2.7s-2.2,0.3-8-4.6c-5.8-4.9-13.8-2.8-16.1,1.2c0,0-0.7-8-9.4-6.6
		c-2.6,0.4-5.4,3.6-7.8,3.4c-0.4,0.9-1,1.8-1.6,2.6l-0.1,0.1c0.7,0.4,1.8,0.7,3.3,0.5c0,0,1.1,6.8,8,2.9c0,0,2.2,1.3,0.3,2.2
		c0,0,3.9,0.7,3-2.6c-0.9-3.3-3.2-1.6-4.3-1.8c-1.2-0.2-1.7-1.7-1.7-1.7s-0.6-2.6,3.2-3.1c3.9-0.5,5.4,2.5,5.7,4.9
		c0.3,2.3-0.4,7.7-7.8,9.1c-4.3,0.8-8.4,0.6-12.1-2.9c2.1-2.7,2.5-5.4,2.5-5.4c-1.1,1.9-2.2,3.4-3.4,4.6c-1.1-1.2-2.3-2.7-3.4-4.6
		c0,0,0.5,2.7,2.5,5.4c-3.8,3.5-7.8,3.7-12.1,2.9c-7.5-1.3-8.1-6.7-7.8-9.1s1.8-5.4,5.7-4.9c3.9,0.5,3.2,3.1,3.2,3.1
		s-0.6,1.5-1.7,1.7s-3.5-1.5-4.3,1.8c-0.9,3.3,3,2.6,3,2.6c-1.9-0.9,0.3-2.2,0.3-2.2c6.8,3.8,8-2.9,8-2.9c1.1,0.1,2,0,2.7-0.2
		c-0.9-0.9-1.3-2.2-2.1-3.2c-2.1-0.6-4.5-2.9-6.7-3.3c-8.7-1.4-9.4,6.6-9.4,6.6c-2.3-4-10.3-6.1-16.1-1.2c-5.8,4.9-8,4.6-8,4.6
		s1.2-5.1-5.8-2.7c-5.2,1.7-6.8-0.7-9.4-0.8c-6.3-0.3-6.9,2.6-7,3.4C86.3,106.8,86.7,108,87.8,108.2z"/>
	<rect x="51.2" y="106.9" width="32.3" height="0.9"/>
	<rect x="226.1" y="106.9" width="32.3" height="0.9"/>
	<path d="M154.9,177.8c0-0.1,0-0.1,0-0.2C154.9,177.7,154.9,177.7,154.9,177.8c0-0.1-0.1-0.1-0.1-0.1c-0.8,1.4-1.8,2.7-2.4,4.1
		c-0.8,2-1.3,4-0.5,6.5c0.1-0.1,0.3-0.2,0.4-0.4c0.3,2.1,1.3,3.9,2.4,5.6c1.2-1.7,2.1-3.5,2.4-5.6c0.1,0.2,0.3,0.3,0.4,0.4
		c0.8-2.4,0.4-4.4-0.5-6.5C156.7,180.4,155.7,179.2,154.9,177.8z"/>
	<path d="M153.4,177.9c0,0,0.1,0,0.1-0.1C153.5,177.9,153.4,177.9,153.4,177.9C153.4,177.9,153.4,177.9,153.4,177.9
		c-0.9,0-1.9-0.1-2.8,0.1c-1.2,0.3-2.4,0.7-3.3,1.9c0.1,0.1,0.1,0.1,0.3,0.1c-0.9,0.8-1.5,1.9-1.9,3.1c1.3,0,2.4-0.1,3.6-0.7
		c-0.1,0.1-0.1,0.2-0.1,0.3c1.5-0.4,2.3-1.3,3-2.4C152.7,179.7,153,178.7,153.4,177.9z"/>
	<path d="M162.2,180.1l0.3-0.1c-0.9-1.2-2.1-1.6-3.3-1.9c-0.9-0.2-1.9-0.1-2.8-0.2c0.4,0.8,0.8,1.8,1.3,2.6c0.7,1,1.6,1.9,3.1,2.4
		c0-0.1,0-0.2-0.1-0.3c1.1,0.6,2.4,0.7,3.5,0.7C163.7,181.9,163.1,180.9,162.2,180.1z"/>
	<path d="M147.4,178h-19.2c5.8,0.9,11.7,1.7,16.5,3.5C145.2,180.3,145.9,179.1,147.4,178z"/>
	<path d="M110.3,180.7c5.2-1.9,11.6-2.2,17.8-2.7h-20.8C109,179.3,109.8,179.5,110.3,180.7z"/>
	<path d="M104.5,180.7c0.5-1.3,1.3-1.5,2.9-2.7H41.3C47.5,178.5,99.3,178.8,104.5,180.7z"/>
	<path d="M107.3,179.7c-0.9,0.5-1.5,1-1.9,1.7c0.5,1.5,1.1,2.8,2,3.9c0.8-1.2,1.4-2.5,1.9-4C108.9,180.7,108.2,180.1,107.3,179.7z"
		/>
	<path d="M165.1,181.5c4.8-1.8,10.7-2.6,16.5-3.5h-19.2C163.9,179.1,164.7,180.3,165.1,181.5z"/>
	<path d="M199.5,180.7c0.5-1.3,1.3-1.5,2.9-2.7h-20.8C187.9,178.5,194.3,178.8,199.5,180.7z"/>
	<path d="M205.4,180.7c5.2-1.9,56.9-2.2,63.2-2.7h-66.1C204,179.3,204.9,179.5,205.4,180.7z"/>
	<path d="M202.5,179.7c-0.9,0.4-1.6,1-1.9,1.7c0.5,1.5,1.1,2.8,1.9,4c0.9-1,1.5-2.4,2-3.9C204,180.7,203.4,180.2,202.5,179.7z"/>
</g>
</svg>
