<?xml version="1.0" encoding="utf-8"?>
<!-- Generator: Adobe Illustrator 21.0.2, SVG Export Plug-In . SVG Version: 6.00 Build 0)  -->
<svg version="1.1" id="Слой_1" xmlns="http://www.w3.org/2000/svg" xmlns:xlink="http://www.w3.org/1999/xlink" x="0px" y="0px"
	 viewBox="0 0 221.6 190.1" style="enable-background:new 0 0 221.6 190.1;" xml:space="preserve">
<style type="text/css">
	.st0{fill:#961647;}
	.st1{fill:#881340;}
	.st2{fill:#FFFFFF;}
</style>
<g>
	<path class="st0" d="M32,153.9l-3.6-8.2c-0.4-0.8-0.8-1.3-1-1.7c-0.3-0.3-0.7-0.4-1.2-0.4v-0.4h4v0.4h-1.4l3.9,8.8l2.8-6.8
		c0.2-0.5,0.4-1,0.4-1.3c0-0.3-0.1-0.5-0.4-0.6c-0.3-0.1-0.7-0.1-1.2-0.1h-0.4v-0.4h4.3v0.4h-1l-3.7,8.9c-0.9,2.1-1.4,3.7-1.4,4.8
		c0,1,0.4,1.5,1.1,1.5h1.1v0.4h-4c0-0.3,0.2-0.9,0.4-1.7c0.2-0.8,0.5-1.6,0.9-2.5L32,153.9L32,153.9z M40.7,147.1v-2.4
		c0-0.5-0.1-0.8-0.2-0.9c-0.2-0.1-0.4-0.2-0.8-0.2h-0.6v-0.4h4.3v0.4H42v3.5c0,0.7,0.2,1.2,0.7,1.5c0.5,0.3,1.1,0.4,1.7,0.4
		c1,0,1.9-0.5,2.7-1.4v-2.9c0-0.3-0.1-0.6-0.2-0.8c-0.1-0.2-0.3-0.3-0.5-0.3c-0.3,0-0.6,0-0.9,0v-0.4h4.3v0.4h-1.4v14.1
		c0,0.5,0.1,0.8,0.4,0.9c0.2,0.1,0.6,0.2,1.2,0.2v0.4h-4.3v-0.4h1.4v-10.4c-0.4,0.4-0.8,0.7-1.4,1c-0.6,0.3-1.2,0.4-1.8,0.4
		c-0.5,0-0.9-0.1-1.5-0.3c-0.5-0.2-0.9-0.4-1.3-0.8C40.9,148.2,40.7,147.7,40.7,147.1L40.7,147.1z M52.5,159.2v-0.4H54v-14.1
		c0-0.3-0.1-0.6-0.2-0.7c-0.1-0.2-0.3-0.3-0.5-0.3c-0.3,0-0.6,0-0.9,0v-0.4H60v-1h0.4v5.4H60v-0.2v-0.6c0-0.6-0.1-1.1-0.2-1.6
		c-0.1-0.4-0.4-0.8-0.8-1c-0.6-0.3-1.6-0.5-3.1-0.5h-0.6v3.9h2.1v-2.4h0.4v5.9h-0.4v-0.6c0-0.7-0.1-1.2-0.3-1.7
		c-0.2-0.4-0.7-0.7-1.4-0.7h-0.3v10.7h0.2c0.8,0,1.5,0,2-0.1c0.5,0,1-0.2,1.4-0.4c0.5-0.3,0.8-0.6,0.9-1.1c0.1-0.4,0.2-1,0.2-1.6
		v-0.7v-0.5h0.4v5.9H60v-1H52.5L52.5,159.2z M66.8,143.6c-0.5,0-0.7,0-0.7,0.2v3.8h2.2c0.9,0,1.8,0.1,2.6,0.4
		c0.8,0.3,1.6,0.6,2.2,1.1c0.6,0.5,1.2,1.1,1.5,1.9c0.4,0.7,0.6,1.5,0.6,2.4c0,1.2-0.3,2.2-0.8,3.1c-0.5,0.9-1.3,1.5-2.2,2
		c-0.9,0.5-2,0.7-3.1,0.7h-5.7v-0.4h1.4v-13.3c0-0.9-0.1-1.4-0.2-1.6c-0.1-0.2-0.6-0.3-1.4-0.3v-0.4h7.6v-1h0.4v5.4h-0.4v-0.6
		c0-0.6,0-1.1-0.1-1.6c-0.1-0.4-0.3-0.8-0.6-1C69.4,143.8,68.4,143.6,66.8,143.6L66.8,143.6z M66.1,158.5c0.8,0.2,1.6,0.4,2.6,0.4
		c0.7,0,1.4-0.1,2.1-0.4c0.6-0.3,1.2-0.7,1.7-1.2c0.4-0.5,0.8-1.1,1.1-1.8c0.2-0.7,0.4-1.4,0.4-2.1c0-0.9-0.2-1.8-0.6-2.5
		c-0.4-0.8-1.1-1.4-1.8-1.8c-1-0.6-2.3-0.9-3.8-0.9h-1.4V158.5L66.1,158.5z M80.2,148.1v9.5c0,0.5,0.1,0.8,0.4,0.9
		c0.2,0.1,0.6,0.2,1.2,0.2v0.4h-4.3v-0.4h1.4v-14.1c0-0.3-0.1-0.6-0.2-0.7c-0.1-0.2-0.3-0.3-0.5-0.3c-0.3,0-0.6,0-0.9,0v-0.4h4.3
		v0.4h-1.4v4h5.1v-2.9c0-0.3-0.1-0.6-0.2-0.7c-0.1-0.2-0.3-0.3-0.5-0.3c-0.3,0-0.6,0-0.9,0v-0.4h4.3v0.4h-1.4v14.1
		c0,0.5,0.1,0.8,0.4,0.9c0.2,0.1,0.6,0.2,1.2,0.2v0.4H84v-0.4h1.4v-10.6H80.2L80.2,148.1z M108,157.7c0,0.5,0.1,0.8,0.4,0.9
		c0.2,0.1,0.6,0.2,1.2,0.2v0.4h-4.3v-0.4h1.4v-14.1c0-0.3-0.1-0.6-0.2-0.7c-0.1-0.2-0.3-0.3-0.5-0.3c-0.3,0-0.6,0-0.9,0v-0.4h4.3
		v0.4H108V157.7L108,157.7z M93.5,159.2h-2.7v-0.4h1.4v-14.1c0-0.5-0.1-0.8-0.3-0.9c-0.2-0.1-0.6-0.2-1.2-0.2v-0.4h4.7v0.4h-1.8v3.4
		c1.3-0.7,2.7-1.1,4-1.1c1.3,0,2.4,0.3,3.5,0.8c1.1,0.6,1.9,1.3,2.5,2.3c0.6,1,0.9,2.1,0.9,3.4c0,1.8-0.7,3.4-2.1,4.8
		c-1.4,1.4-3.1,2.1-5.2,2.1c-0.6,0-1.2-0.1-1.8-0.3c-0.5-0.1-1.1-0.3-1.9-0.6V159.2L93.5,159.2z M93.5,157.2
		c0.4,0.3,0.8,0.6,1.2,0.9c0.5,0.3,0.9,0.4,1.3,0.5c0.5,0.1,1,0.2,1.4,0.2c1,0,2-0.3,2.9-0.8c0.9-0.5,1.6-1.3,2-2.1
		c0.5-0.9,0.7-1.9,0.7-3c0-0.8-0.2-1.6-0.5-2.4c-0.3-0.8-0.7-1.4-1.2-2c-0.5-0.6-1.1-1.1-1.8-1.4c-0.7-0.3-1.5-0.5-2.3-0.5
		c-1.4,0-2.6,0.5-3.7,1.5V157.2L93.5,157.2z M114.7,150.6v7.1c0,0.5,0.1,0.8,0.4,0.9c0.2,0.1,0.6,0.2,1.2,0.2v0.4H112v-0.4h1.4
		v-14.1c0-0.3-0.1-0.6-0.2-0.7c-0.1-0.2-0.3-0.3-0.5-0.3c-0.3,0-0.6,0-0.9,0v-0.4h4.3v0.4h-1.4v6.2l5.1-5.1c0-0.5-0.1-0.8-0.3-0.9
		c-0.2-0.1-0.6-0.2-1.2-0.2v-0.4h4.3v0.4h-1.4v14.1c0,0.5,0.1,0.8,0.4,0.9c0.2,0.1,0.6,0.2,1.2,0.2v0.4h-4.3v-0.4h1.4v-13.3
		L114.7,150.6L114.7,150.6z M115.1,139c0,0.4,0.2,0.7,0.7,1c0.4,0.3,0.9,0.4,1.4,0.4c0.3,0,0.7-0.1,1-0.2c0.3-0.1,0.6-0.3,0.8-0.5
		c0.2-0.2,0.3-0.5,0.3-0.7h0.4c0,0.7-0.2,1.3-0.7,1.8c-0.4,0.5-1.1,0.7-1.9,0.7c-0.8,0-1.5-0.2-1.9-0.7c-0.4-0.5-0.7-1.1-0.7-1.8
		H115.1L115.1,139z M140.4,159.2h-6.7v-0.4h1.4v-14.1c0-0.5-0.1-0.8-0.3-0.9c-0.2-0.1-0.6-0.2-1.2-0.2v-0.4h4.3v0.4h-1.4v13.9
		c0,0.5,0.1,0.8,0.4,0.9c0.2,0.1,0.6,0.2,1.2,0.2h3.5v-13.9c0-0.5-0.1-0.8-0.3-0.9c-0.2-0.1-0.6-0.2-1.2-0.2v-0.4h4.3v0.4h-1.4v14.1
		c0,0.5,0.1,0.8,0.3,0.9c0.2,0.1,0.7,0.2,1.2,0.2v5H144c0-1.7-0.2-2.9-0.6-3.6c-0.2-0.3-0.4-0.5-0.5-0.6c-0.2-0.1-0.4-0.2-0.8-0.3
		C141.7,159.2,141.2,159.2,140.4,159.2L140.4,159.2z M146.9,159.2v-0.4h1.5v-14.1c0-0.3-0.1-0.6-0.2-0.7c-0.1-0.2-0.3-0.3-0.5-0.3
		c-0.3,0-0.6,0-0.9,0v-0.4h7.6v-1h0.4v5.4h-0.4v-0.2v-0.6c0-0.6-0.1-1.1-0.2-1.6c-0.1-0.4-0.4-0.8-0.8-1c-0.6-0.3-1.6-0.5-3.1-0.5
		h-0.6v3.9h2.1v-2.4h0.4v5.9h-0.4v-0.6c0-0.7-0.1-1.2-0.3-1.7c-0.2-0.4-0.7-0.7-1.4-0.7h-0.3v10.7h0.2c0.8,0,1.5,0,2-0.1
		c0.5,0,1-0.2,1.4-0.4c0.5-0.3,0.8-0.6,0.9-1.1c0.1-0.4,0.2-1,0.2-1.6v-0.7v-0.5h0.4v5.9h-0.4v-1H146.9L146.9,159.2z M160.4,148.1
		v9.5c0,0.5,0.1,0.8,0.4,0.9c0.2,0.1,0.6,0.2,1.2,0.2v0.4h-4.3v-0.4h1.4v-14.1c0-0.3-0.1-0.6-0.2-0.7c-0.1-0.2-0.3-0.3-0.5-0.3
		c-0.3,0-0.6,0-0.9,0v-0.4h4.3v0.4h-1.4v4h5.1v-2.9c0-0.3-0.1-0.6-0.2-0.7c-0.1-0.2-0.3-0.3-0.5-0.3c-0.3,0-0.6,0-0.9,0v-0.4h4.3
		v0.4h-1.4v14.1c0,0.5,0.1,0.8,0.4,0.9c0.2,0.1,0.6,0.2,1.2,0.2v0.4h-4.3v-0.4h1.4v-10.6H160.4L160.4,148.1z M179.6,148.7h-0.4v-0.5
		c-0.1-1-0.1-1.8-0.2-2.2c0-0.5-0.2-1-0.5-1.3c-0.2-0.2-0.3-0.4-0.5-0.6c-0.2-0.1-0.5-0.2-0.8-0.3c-0.3-0.1-0.9-0.1-1.6-0.1v13.8
		c0,0.5,0.1,0.8,0.2,1c0.1,0.2,0.6,0.4,1.4,0.4h0.5v0.4h-4.8v-0.4h1.4v-15.2c-0.7,0-1.3,0-1.6,0.1c-0.4,0.1-0.7,0.2-0.8,0.3
		c-0.2,0.1-0.4,0.3-0.5,0.6c-0.2,0.3-0.3,0.6-0.3,0.8c-0.1,0.4-0.2,0.7-0.2,0.8c0,0.2,0,0.6-0.1,0.9c0,0.1,0,0.3,0,0.5
		c0,0.2,0,0.4,0,0.5v0.5h-0.4v-6.3h0.4v0.8h8.6v-0.8h0.4V148.7L179.6,148.7z M184.4,157.4c0,0.4,0,0.7,0.1,0.8
		c0.1,0.2,0.2,0.3,0.4,0.4c0.3,0.1,0.6,0.1,1,0.1h0.5v0.4h-4.8v-0.4h1.4v-14.1c0-0.5-0.1-0.8-0.4-0.9c-0.2-0.1-0.6-0.2-1.2-0.2v-0.4
		h2.9v0.8c1.3-0.7,2.8-1.1,4.2-1.1c1.3,0,2.4,0.3,3.5,0.8c1,0.6,1.9,1.4,2.5,2.3c0.6,1,0.9,2.1,0.9,3.4c0,1.8-0.7,3.4-2.1,4.8
		c-1.4,1.4-3.1,2.1-5.2,2.1c-1.2,0-2.5-0.3-3.9-0.8V157.4L184.4,157.4z M184.4,154.2c1.3,1.1,2.7,1.6,4.2,1.6c1,0,2-0.3,2.9-0.8
		c0.9-0.5,1.6-1.2,2-2.1c0.5-0.9,0.7-1.9,0.7-3c0-0.8-0.2-1.6-0.5-2.4c-0.3-0.7-0.7-1.4-1.2-2.1c-0.5-0.6-1.2-1.1-1.9-1.4
		c-0.7-0.3-1.4-0.5-2.3-0.5c-0.7,0-1.4,0.1-2.1,0.4c-0.7,0.3-1.3,0.6-1.8,1.1V154.2L184.4,154.2z"/>
	<path class="st0" d="M4.7,172.5v0.5H3.2v7l3.7-5.2c0.1-0.2,0.2-0.3,0.3-0.4c0.2-0.3,0.3-0.5,0.4-0.6c0.1-0.2,0.1-0.3,0.1-0.4
		c0-0.2-0.3-0.4-1-0.4H6.4v-0.5h4.7v0.5H9.3l-4.5,6.1l4.8,8.2c0.5,1,1.1,1.6,1.5,1.9c0.4,0.2,1,0.4,1.8,0.4v0.5H7.8v-0.5h1.5
		l-5.2-9.5l-0.9,1.3v7.1c0,0.5,0.2,0.8,0.4,1c0.3,0.1,0.7,0.2,1.3,0.2v0.5H0.2v-0.5h1.5v-15.4c0-0.4-0.1-0.7-0.2-0.8
		c-0.1-0.2-0.3-0.3-0.5-0.3c-0.3,0-0.6-0.1-1-0.1v-0.5H4.7L4.7,172.5z M30.1,178.5h-0.5c0-1.2-0.1-2.1-0.2-2.7
		c-0.1-0.6-0.3-1.1-0.6-1.4c-0.4-0.5-1.1-1-1.9-1.3c-0.9-0.3-1.7-0.5-2.6-0.5c-1.5,0-2.8,0.4-4.1,1.1c-1.2,0.7-2.2,1.7-2.9,3
		c-0.7,1.3-1,2.7-1,4.2c0,1.1,0.2,2.2,0.7,3.3c0.4,1,1,2,1.8,2.9c0.8,0.9,1.7,1.5,2.7,2c1,0.5,2.1,0.7,3.3,0.7
		c2.1,0,3.9-0.9,5.6-2.5l0.5,0.6c-0.9,0.8-1.9,1.4-3.1,1.9c-1.1,0.5-2.3,0.7-3.5,0.7c-1.7,0-3.2-0.4-4.7-1.2
		c-1.5-0.8-2.6-1.9-3.5-3.3c-0.9-1.4-1.3-2.9-1.3-4.6c0-1.2,0.3-2.4,0.8-3.6c0.5-1.1,1.2-2.2,2-3.1c0.9-0.9,2-1.6,3.2-2.1
		c1.2-0.5,2.5-0.7,3.9-0.7c1.8,0,3.4,0.4,4.8,1.2v-1.6h0.5V178.5L30.1,178.5z M34.1,190.1v-0.5h1.6v-15.4c0-0.4-0.1-0.7-0.2-0.8
		c-0.1-0.2-0.3-0.3-0.5-0.3c-0.3,0-0.6-0.1-1-0.1v-0.5h8.3v-1.1h0.5v5.9h-0.5v-0.2v-0.7c0-0.7-0.1-1.2-0.2-1.7
		c-0.1-0.5-0.4-0.8-0.9-1.1c-0.6-0.4-1.8-0.6-3.4-0.6h-0.7v4.3h2.3v-2.6h0.5v6.5h-0.5v-0.7c0-0.7-0.1-1.4-0.4-1.8
		c-0.3-0.5-0.8-0.7-1.6-0.7h-0.4v11.7h0.2c0.9,0,1.6,0,2.2-0.1c0.6-0.1,1.1-0.2,1.5-0.5c0.5-0.3,0.8-0.7,1-1.2
		c0.2-0.5,0.2-1.1,0.2-1.8v-0.8v-0.5h0.5v6.4h-0.5v-1.1H34.1L34.1,190.1z M49.5,178v10.4c0,0.5,0.2,0.8,0.4,1
		c0.3,0.1,0.7,0.2,1.3,0.2v0.5h-4.7v-0.5h1.5v-15.4c0-0.4-0.1-0.7-0.2-0.8c-0.1-0.2-0.3-0.3-0.5-0.3c-0.3,0-0.6-0.1-1-0.1v-0.5h4.7
		v0.5h-1.5v4.4h5.6v-3.2c0-0.4-0.1-0.7-0.2-0.8c-0.1-0.2-0.3-0.3-0.5-0.3c-0.3,0-0.6-0.1-1-0.1v-0.5h4.7v0.5h-1.5v15.4
		c0,0.5,0.2,0.8,0.4,1c0.3,0.1,0.7,0.2,1.3,0.2v0.5h-4.7v-0.5h1.5V178H49.5L49.5,178z M64.6,180.7v7.7c0,0.5,0.2,0.8,0.4,1
		c0.3,0.1,0.7,0.2,1.3,0.2v0.5h-4.7v-0.5h1.5v-15.4c0-0.4-0.1-0.7-0.2-0.8c-0.1-0.2-0.3-0.3-0.5-0.3c-0.3,0-0.6-0.1-1-0.1v-0.5h4.7
		v0.5h-1.5v6.8l5.6-5.6c0-0.5-0.1-0.8-0.4-1c-0.3-0.1-0.7-0.2-1.4-0.2v-0.5h4.7v0.5h-1.5v15.4c0,0.5,0.2,0.8,0.4,1
		c0.3,0.1,0.7,0.2,1.3,0.2v0.5h-4.7v-0.5h1.5v-14.5L64.6,180.7L64.6,180.7z M79.7,180.7v7.7c0,0.5,0.2,0.8,0.4,1
		c0.3,0.1,0.7,0.2,1.3,0.2v0.5h-4.7v-0.5h1.5v-15.4c0-0.4-0.1-0.7-0.2-0.8c-0.1-0.2-0.3-0.3-0.5-0.3c-0.3,0-0.6-0.1-1-0.1v-0.5h4.7
		v0.5h-1.5v6.8l5.6-5.6c0-0.5-0.1-0.8-0.4-1c-0.3-0.1-0.7-0.2-1.4-0.2v-0.5h4.7v0.5h-1.5v15.4c0,0.5,0.2,0.8,0.4,1
		c0.3,0.1,0.7,0.2,1.3,0.2v0.5h-4.7v-0.5h1.5v-14.5L79.7,180.7L79.7,180.7z M117.9,178.5h-0.5c0-1.2-0.1-2.1-0.2-2.7
		c-0.1-0.6-0.3-1.1-0.6-1.4c-0.4-0.5-1.1-1-1.9-1.3c-0.9-0.3-1.7-0.5-2.6-0.5c-1.5,0-2.8,0.4-4.1,1.1c-1.2,0.7-2.2,1.7-2.9,3
		c-0.7,1.3-1,2.7-1,4.2c0,1.1,0.2,2.2,0.7,3.3c0.4,1,1,2,1.8,2.9c0.8,0.9,1.7,1.5,2.7,2c1,0.5,2.1,0.7,3.3,0.7
		c2.1,0,3.9-0.9,5.6-2.5l0.5,0.6c-0.9,0.8-1.9,1.4-3.1,1.9c-1.1,0.5-2.3,0.7-3.5,0.7c-1.7,0-3.2-0.4-4.7-1.2
		c-1.5-0.8-2.6-1.9-3.5-3.3c-0.9-1.4-1.3-2.9-1.3-4.6c0-1.2,0.3-2.4,0.8-3.6c0.5-1.1,1.2-2.2,2-3.1c0.9-0.9,2-1.6,3.2-2.1
		c1.2-0.5,2.5-0.7,3.9-0.7c1.8,0,3.4,0.4,4.8,1.2v-1.6h0.5V178.5L117.9,178.5z M125.1,178.7l-1.8,7.6c-0.2,0.9-0.3,1.6-0.3,2.1
		c0,0.3,0.1,0.6,0.2,0.8c0.1,0.2,0.3,0.3,0.5,0.3c0.2,0,0.5,0.1,0.9,0.2h0.7v0.5h-4.7v-0.5h1.1l4.2-18h0.5l4.7,14.8
		c0.4,1.3,0.8,2.1,0.9,2.4c0.1,0.2,0.3,0.4,0.5,0.5c0.2,0.1,0.5,0.2,0.8,0.2v0.5H129v-0.5h1.7l-3.4-10.9H125.1L125.1,178.7z
		 M126.1,174.7L126.1,174.7l-0.8,3.4h1.8L126.1,174.7L126.1,174.7z M140.6,172.5v0.5H139v7l3.7-5.2c0.1-0.2,0.2-0.3,0.3-0.4
		c0.2-0.3,0.3-0.5,0.4-0.6c0.1-0.2,0.1-0.3,0.1-0.4c0-0.2-0.3-0.4-1-0.4h-0.4v-0.5h4.7v0.5h-1.7l-4.5,6.1l4.8,8.2
		c0.5,1,1.1,1.6,1.5,1.9c0.4,0.2,1,0.4,1.8,0.4v0.5h-5.1v-0.5h1.5l-5.2-9.5l-0.9,1.3v7.1c0,0.5,0.2,0.8,0.4,1
		c0.3,0.1,0.7,0.2,1.3,0.2v0.5h-4.7v-0.5h1.5v-15.4c0-0.4-0.1-0.7-0.2-0.8c-0.1-0.2-0.3-0.3-0.5-0.3c-0.3,0-0.6-0.1-1-0.1v-0.5
		H140.6L140.6,172.5z M151,190.1v-0.5h1.6v-15.4c0-0.4-0.1-0.7-0.2-0.8c-0.1-0.2-0.3-0.3-0.5-0.3c-0.3,0-0.6-0.1-1-0.1v-0.5h8.3
		v-1.1h0.5v5.9h-0.5v-0.2v-0.7c0-0.7-0.1-1.2-0.2-1.7c-0.1-0.5-0.4-0.8-0.9-1.1c-0.6-0.4-1.8-0.6-3.4-0.6h-0.7v4.3h2.3v-2.6h0.5v6.5
		h-0.5v-0.7c0-0.7-0.1-1.4-0.4-1.8c-0.3-0.5-0.8-0.7-1.6-0.7h-0.4v11.7h0.2c0.9,0,1.6,0,2.2-0.1c0.6-0.1,1.1-0.2,1.5-0.5
		c0.5-0.3,0.8-0.7,1-1.2c0.2-0.5,0.2-1.1,0.2-1.8v-0.8v-0.5h0.5v6.4h-0.5v-1.1H151L151,190.1z M168.1,174.7L168.1,174.7l-2.9,11.6
		c-0.2,0.9-0.3,1.6-0.3,2.1c0,0.3,0.1,0.6,0.2,0.8c0.1,0.2,0.3,0.3,0.5,0.3c0.2,0,0.5,0.1,0.9,0.2h0.7v0.5h-4.7v-0.5h1.1l4.2-18h0.5
		l4.7,14.8c0.4,1.3,0.8,2.1,0.9,2.4c0.1,0.2,0.3,0.4,0.5,0.5c0.2,0.1,0.5,0.2,0.8,0.2v0.5H171v-0.5h1.7L168.1,174.7L168.1,174.7z
		 M181.1,178.7l-1.8,7.6c-0.2,0.9-0.3,1.6-0.3,2.1c0,0.3,0.1,0.6,0.2,0.8c0.1,0.2,0.3,0.3,0.5,0.3c0.2,0,0.5,0.1,0.9,0.2h0.7v0.5
		h-4.7v-0.5h1.1l4.2-18h0.5l4.7,14.8c0.4,1.3,0.8,2.1,0.9,2.4c0.1,0.2,0.3,0.4,0.5,0.5c0.2,0.1,0.5,0.2,0.8,0.2v0.5H185v-0.5h1.7
		l-3.4-10.9H181.1L181.1,178.7z M182.1,174.7L182.1,174.7l-0.8,3.4h1.8L182.1,174.7L182.1,174.7z M194.5,188.1c0,0.4,0,0.7,0.1,0.9
		c0.1,0.2,0.2,0.4,0.4,0.4c0.3,0.1,0.7,0.1,1.1,0.1h0.6v0.5h-5.3v-0.5h1.5v-15.4c0-0.5-0.2-0.8-0.4-1c-0.3-0.1-0.7-0.2-1.3-0.2v-0.5
		h3.2v0.9c1.5-0.8,3-1.2,4.6-1.2c1.4,0,2.6,0.3,3.8,0.9c1.1,0.6,2,1.5,2.7,2.6c0.7,1.1,1,2.3,1,3.7c0,1.9-0.8,3.7-2.3,5.3
		c-1.6,1.6-3.4,2.3-5.6,2.3c-1.3,0-2.7-0.3-4.3-0.9V188.1L194.5,188.1z M194.5,184.6c1.4,1.2,3,1.8,4.6,1.8c1.1,0,2.2-0.3,3.2-0.9
		c1-0.6,1.7-1.4,2.2-2.3c0.5-1,0.8-2.1,0.8-3.3c0-0.9-0.2-1.8-0.5-2.6c-0.3-0.8-0.8-1.5-1.4-2.3c-0.6-0.7-1.3-1.2-2-1.5
		c-0.8-0.4-1.6-0.6-2.5-0.6c-0.8,0-1.6,0.1-2.3,0.4c-0.8,0.3-1.5,0.7-2,1.2V184.6L194.5,184.6z M212.8,180.7v7.7
		c0,0.5,0.2,0.8,0.4,1c0.3,0.1,0.7,0.2,1.3,0.2v0.5h-4.7v-0.5h1.5v-15.4c0-0.4-0.1-0.7-0.2-0.8c-0.1-0.2-0.3-0.3-0.5-0.3
		c-0.3,0-0.6-0.1-1-0.1v-0.5h4.7v0.5h-1.5v6.8l5.6-5.6c0-0.5-0.1-0.8-0.4-1c-0.3-0.1-0.7-0.2-1.4-0.2v-0.5h4.7v0.5h-1.5v15.4
		c0,0.5,0.2,0.8,0.4,1c0.3,0.1,0.7,0.2,1.3,0.2v0.5h-4.7v-0.5h1.5v-14.5L212.8,180.7L212.8,180.7z"/>
	<path class="st1" d="M55.8,52.6L55.8,52.6c0,0,3.4,2,3.5,6.2c0,0.4,0,0.6,0.1,0.8c0.2,2.4,1.1,6.9,5.3,10.6c0,0,9.2,9.1,23.1,2.4
		c0,0,5.4-2.2,8.8-8c1.6,0.9,2.5,1.8,2.5,1.8c0.1,0.1,0.1,0.1,0.2,0.2c-4.7,3.4-10.3,8.1-15.6,14.5c-6.7,7.5-10.6,4.9-11.1,3.3
		c-0.4-1.6,0.6-3,0.6-3L73,80.7c-4.2,6.6-10.2,6.1-10.2,6.1s11.5,8.3,21-4c0,0,6.7-8.7,15.8-16c1.9,2.1,3.1,4.2,3.9,6.3
		c-4.3,1.9-10.4,6.1-12,15.3l4.2,2.5c-1.6-10.5,3.9-15.1,8-17c2,6.2,0,11.3,0,11.3c-3.6,11.3-12.4,13.2-12.4,13.2
		c-7.4,2.1-10.8-2.5-10.9-4.8c-0.2-3.4,1.7-4.9,1.7-4.9L82,88.4c-8.6,6.4-16.8,3.3-16.8,3.3l0.2,0.8c0,0,2.7,0.6,5.9,2.3l-0.1,0
		c0,0,1.9,1.4-0.8,2.6c-0.3,0.1-0.5,0.2-0.8,0.3c0,0-0.1,0-0.1,0c-3.8,1.3-8.1,1.3-12.5-1.9l0.3,2.3c0,0,5.6,3.1,13.1-0.2l0,0
		c0,0,3.6-1.4,7,1.2c0.3,0.2,0.5,0.4,0.7,0.4c2,1.3,6.1,3.4,11.5,2.4c0,0,12.8-1.5,16.3-16.6c0,0,1.6-5.6-0.8-11.9
		c1.7-0.6,2.9-0.8,2.9-0.8c0.1,0,0.2,0,0.3,0c-0.3,5.8-0.1,13.1,1.5,21.2c1.7,10-2.8,11.4-4.4,10.7c-1.5-0.6-1.9-2.4-1.9-2.4
		l-0.6-0.2c2.5,7.4-1.6,11.8-1.6,11.8s13.6-3.9,10-18.9c0,0-2.7-10.7-2.6-22.4c2.8-0.2,5.2,0.2,7.3,0.8c-1.2,4.5-1.7,12,4.4,18.9
		l4.6-1.7c-9.1-5.3-9.3-12.4-8.3-16.9c6.1,2.3,8.9,7.1,8.9,7.1c6.6,9.9,2.5,18,2.5,18c-3,7.1-8.7,6.9-10.5,5.6
		c-2.7-1.9-2.7-4.4-2.7-4.4l-0.4-0.2c-0.4,10.8-7.9,15.2-7.9,15.2l0.8,0.4c0,0,2.1-1.7,5.4-3.2l-0.1,0.1c0,0,2.3-0.6,1.5,2.2
		c-0.1,0.3-0.2,0.6-0.3,0.8c0,0,0,0.1,0,0.1c-1.4,3.7-4.1,7.2-9.3,8.6l2,1.2c0,0,5.9-2.4,8.1-10.4l0,0c0,0,1.2-3.7,5.3-4.7
		c0.4-0.1,0.6-0.2,0.7-0.3c2.3-0.7,6.5-2.6,9.1-7.5c0,0,6.8-11-2.8-23.2c0,0-3.4-4.9-9.8-6.9c0.6-1.8,1.2-2.9,1.2-2.9
		c0-0.1,0.1-0.2,0.1-0.2c4.3,3.8,10.2,8.3,17.5,12.1c8.8,4.9,7.1,9.3,5.6,10.1c-1.4,0.8-3,0-3,0l-0.5,0.3c7.3,2.6,8.2,8.6,8.2,8.6
		s5.5-13.1-8.5-19.6c0,0-10-4.6-19-11.9c1.6-2.4,3.5-4.1,5.3-5.3c2.8,3.8,8.3,8.9,17.5,8.4l1.5-4.7c-9.9,3.9-15.6-0.5-18.4-4.1
		c5.5-3.3,10.9-2.5,10.9-2.5c11.8,1.1,15.6,9.2,15.6,9.2c3.7,6.8,0,11.1-2.2,11.7c-3.2,0.9-5.1-0.6-5.1-0.6l-0.4,0.2
		c8.1,7,6.9,15.7,6.9,15.7l0.8-0.4c0,0,0-2.7,0.9-6.2l0,0.1c0,0,0.9-2.2,2.7,0.2c0.2,0.2,0.3,0.5,0.5,0.7c0,0,0,0.1,0.1,0.1
		c2.1,3.4,3.1,7.7,0.9,12.7l2.2-0.8c0,0,1.8-6.2-3.1-12.8v0c0,0-2.2-3.2-0.4-7.1c0.2-0.3,0.2-0.6,0.3-0.7c0.9-2.2,2-6.7-0.2-11.8
		c0,0-4.3-12.2-19.8-12.3c0,0-5.8-0.4-11.4,3.3c-1-1.5-1.4-2.6-1.4-2.6c0-0.1-0.1-0.2-0.1-0.3c5.7-1,12.8-2.8,20.3-6.2
		c9.3-3.8,11.7,0.2,11.4,1.9c-0.3,1.6-1.9,2.4-1.9,2.4l-0.1,0.6c6.6-4.1,11.8-1.1,11.8-1.1s-6.8-12.5-20.6-5.6c0,0-9.8,5-21.2,7.5
		c-0.8-2.7-1-5.2-0.8-7.5c4.7,0.1,12-1.1,17.2-8.6l-2.7-4.1c-3.1,10-9.9,11.9-14.4,11.9c0.9-6.4,4.9-10.1,4.9-10.1
		c8.2-8.6,16.9-6.5,16.9-6.5c7.6,1.4,8.6,7,7.8,9c-1.3,3.1-3.6,3.7-3.6,3.7l-0.1,0.5c10.5-2,16.5,4.4,16.5,4.4l0.2-0.8
		c0,0-2.1-1.7-4.3-4.6l0.1,0c0,0-1.1-2.1,1.9-2c0.3,0,0.6,0,0.8,0.1c0.1,0,0.1,0,0.1,0c3.9,0.5,7.9,2.4,10.4,7.2l0.8-2.2
		c0,0-3.7-5.3-11.9-5.6l0,0c0,0-3.9-0.3-5.8-4.1c-0.2-0.3-0.3-0.5-0.4-0.7c-1.2-2.1-4-5.8-9.3-7.2c0,0-12.2-4.3-21.9,7.8
		c0,0-3.9,4.3-4.5,11c-1.9-0.1-3.1-0.5-3.1-0.5c-0.1,0-0.2-0.1-0.2-0.1c2.8-5.1,5.8-11.8,7.8-19.8c2.8-9.7,7.4-9.1,8.5-7.8
		c1.1,1.2,0.7,3,0.7,3l0.4,0.4c0.9-7.8,6.5-10,6.5-10s-14-2.4-17.2,12.7c0,0-2.2,10.8-7.3,21.3c-2.6-1-4.7-2.4-6.3-4
		c3-3.6,6.7-10.1,4.1-19l-4.9-0.4c5.9,8.7,3,15.2,0.2,18.8c-4.5-4.7-4.9-10.2-4.9-10.2c-1.6-11.8,5.5-17.3,5.5-17.3
		c5.8-5.1,10.8-2.5,11.9-0.5c1.6,2.9,0.6,5.1,0.6,5.1l0.3,0.4c5-9.5,13.7-10.3,13.7-10.3l-0.5-0.7c0,0-2.7,0.6-6.3,0.5l0.1,0
		c0,0-2.3-0.4-0.4-2.7c0.2-0.2,0.4-0.4,0.6-0.7c0,0,0,0,0.1-0.1c2.8-2.8,6.8-4.7,12.1-3.8l-1.2-2c0,0-6.4-0.4-11.7,5.9l0,0
		c0,0-2.6,2.9-6.8,2c-0.4-0.1-0.6-0.1-0.8-0.1c-2.4-0.3-7-0.4-11.4,2.8c0,0-10.9,7-7.5,22.1c0,0,1,5.8,5.9,10.4
		c-1.3,1.3-2.3,2.1-2.3,2.1c-0.1,0-0.1,0.1-0.2,0.1c-2.2-5.3-5.6-11.9-10.6-18.5c-5.8-8.2-2.4-11.5-0.7-11.6
		c1.6-0.1,2.7,1.3,2.7,1.3l0.6-0.1C92.7,13.8,94.5,8,94.5,8s-10.6,9.4-0.8,21.4c0,0,7,8.4,12,19c-2.5,1.4-4.8,2.1-7,2.4
		c-0.9-4.6-3.7-11.6-12.2-15.1l-3.4,3.6C93.7,40.1,97,46.5,98,50.9c-6.4,0.6-11-2.5-11-2.5c-10.2-6.1-10.1-15.1-10.1-15.1
		c-0.4-7.7,4.8-10,7-9.6c3.3,0.5,4.4,2.7,4.4,2.7l0.5,0c-4.3-9.9,0.5-17.2,0.5-17.2h-0.9c0,0-1.2,2.5-3.5,5.2l0-0.1
		c0,0-1.8,1.6-2.3-1.4c0-0.3-0.1-0.6-0.1-0.9c0,0,0-0.1,0-0.1C82,8.1,83,3.8,87.1,0.3L84.8,0c0,0-4.3,4.8-2.8,12.9l0,0
		c0,0,0.6,3.9-2.7,6.6c-0.3,0.2-0.5,0.4-0.6,0.5c-1.7,1.6-4.7,5.2-4.9,10.7c0,0-1.4,12.9,12.5,19.7c0,0,5.1,2.9,11.8,1.9
		c0.3,1.8,0.2,3.1,0.2,3.1c0,0.1,0,0.2,0,0.3c-5.5-1.6-12.8-3-21-3.2c-10.1-0.6-10.5-5.3-9.5-6.6c1-1.3,2.7-1.3,2.7-1.3l0.3-0.5
		c-7.7,0.8-11.1-4.1-11.1-4.1s0.7,14.2,16.2,14c0,0,11-0.2,22.3,2.4c-0.4,2.8-1.3,5.1-2.5,7c-4.1-2.2-11.3-4.3-19.3,0.2l0.6,4.9
		c7.2-7.7,14.1-6.4,18.2-4.4c-3.6,5.4-8.8,7-8.8,7c-11.1,4.2-18-1.5-18-1.5c-6.3-4.5-4.8-10-3.1-11.5c2.5-2.3,4.9-1.7,4.9-1.7
		l0.3-0.4c-10.4-2.8-13-11.1-13-11.1l-0.5,0.7c0,0,1.2,2.5,1.9,6l-0.1-0.1c0,0,0.1,2.4-2.5,1c-0.3-0.1-0.5-0.3-0.8-0.5
		c0,0-0.1,0-0.1-0.1c-3.3-2.2-6.1-5.6-6.3-11l-1.6,1.6C47.4,42.4,48.5,48.7,55.8,52.6L55.8,52.6z M108.3,71.8L108.3,71.8
		c-0.2,0-0.4,0-0.6,0.1c0,0-1.2,0.2-3,0.9c-0.9-2.1-2.3-4.3-4.4-6.4c3-2.3,6.2-4.4,9.5-6C109.6,61.5,108.7,65.7,108.3,71.8
		L108.3,71.8z M117.6,69.3L117.6,69.3c0,0-0.6,1.1-1.2,2.9c-2.2-0.6-4.8-0.9-7.6-0.5c0.1-3.8,0.4-7.6,1.3-11.2
		c0.8,1,3.5,4.3,7.8,8.2C117.8,68.9,117.7,69.1,117.6,69.3L117.6,69.3z M121.8,59.3L121.8,59.3c0.1,0.2,0.1,0.4,0.2,0.5
		c0,0,0.5,1.1,1.5,2.7c-1.9,1.4-3.7,3.2-5.3,5.8c-2.9-2.4-5.6-5.1-7.9-8C111.3,60.3,115.6,60.3,121.8,59.3L121.8,59.3z M116.6,50.4
		L116.6,50.4c0.2,0.1,0.4,0.1,0.5,0.2c0,0,1.2,0.3,3.2,0.5c-0.1,2.3,0.2,4.9,1.2,7.7c-3.7,0.8-7.6,1.3-11.3,1.2
		C111,59.2,113.6,55.8,116.6,50.4L116.6,50.4z M107,48.6L107,48.6c0,0,1-0.7,2.3-2.1c1.8,1.5,4,2.9,6.7,3.8c-1.7,3.4-3.7,6.7-6,9.6
		c-0.3-1.2-1.2-5.3-3.5-10.9C106.7,48.8,106.9,48.7,107,48.6L107,48.6z M106.1,49.2L106.1,49.2c1.6,3.4,2.9,7,3.7,10.6
		c-1.1-0.5-4.9-2.3-10.7-4c0-0.2,0-0.4,0-0.6c0,0,0.1-1.2-0.2-3.1C101.3,51.7,103.7,50.8,106.1,49.2L106.1,49.2z M99.1,56.4
		L99.1,56.4c3.7,0.9,7.3,2.1,10.7,3.8c-1.1,0.5-4.9,2.4-9.9,5.9c-0.1-0.1-0.3-0.3-0.4-0.4c0,0-0.9-0.8-2.6-1.8
		C98,61.8,98.8,59.3,99.1,56.4L99.1,56.4z"/>
</g>
</svg>
