<?xml version="1.0" encoding="utf-8"?>
<!-- Generator: Adobe Illustrator 21.0.2, SVG Export Plug-In . SVG Version: 6.00 Build 0)  -->
<svg version="1.1" id="Layer_1" xmlns="http://www.w3.org/2000/svg" xmlns:xlink="http://www.w3.org/1999/xlink" x="0px" y="0px"
	 viewBox="0 0 383.6 194.1" style="enable-background:new 0 0 383.6 194.1;" xml:space="preserve">
<style type="text/css">
	.st0{fill:#1D1D1B;}
</style>
<title>SNB</title>
<g>
	<path class="st0" d="M74.6,0.9c9.6-1.3,19.3-1.5,29-0.6C89.1,2.6,73.5,6.4,63.2,17.8C56.8,24.6,54,36.2,60.6,44
		c10.6,13,27.5,17.5,42.7,22.9c-26.5-0.7-53.1-4.5-78.2-13.3C15.6,49.6,4.6,45.3,0,35.4v-6.3c4.2-9.6,14.1-14.6,23.4-18.2
		C39.7,4.7,57.3,2.4,74.6,0.9z"/>
	<path class="st0" d="M118.7,0.1c10.4-0.7,20.9,0,31.3-0.2c10.1-0.5,20.9,3.2,27.8,10.7c20,27.2,40.2,54.4,60.4,81.5
		c0.4-30.7,0.1-61.4,0.2-92.1c8.3,0,16.7-0.3,25,0.1c-4.5,2.3-9.4,4.4-12.3,8.7c-4.5,6.3-4.8,14.3-4.8,21.7c0,37.7,0.1,75.4,0,113.1
		c-11.6-6-20.7-15.7-28.8-25.7c-24.8-31.9-49.2-64.1-74.4-95.7c-0.4,30.7-0.9,61.5-0.5,92.3c0.8,9.5,0.8,19.1,0.1,28.7
		c-8.4,0-16.7,0-25.1-0.1c6.5-2,12.9-6.1,15.3-12.8c2.8-7.9,2.7-16.5,3.4-24.8c-0.1-29-0.9-58-0.6-87.1
		C136.4,8.7,127.6,1.7,118.7,0.1z"/>
	<path class="st0" d="M270.5,0.4c9.2-0.9,18.4-0.7,27.5,0.6c17.5,1.6,35.2,4,51.4,11.1c6.5,3,13.2,6.7,17.2,12.8
		c3.1,4.6,3.1,11.3-0.7,15.4c-6.5,7.5-16.1,11.4-25.3,14.8c-22.4,7.6-46.2,11-69.8,11.7c13.8-5.4,29.1-9.7,39.1-21.4
		c5.4-5.8,6.1-14.6,2.7-21.6C305,8.2,286.5,2.7,270.5,0.4z"/>
	<path class="st0" d="M15,66.1c24.7,0.4,49.3,3.8,73.2,10.2c12.8,4,26.3,8.3,35.9,18.2c4.6,4.4,5.9,11.9,2.2,17.2
		c-5.4,7.9-14.5,12.3-23.1,15.9c-27.7,10.6-57.7,14.2-87.2,15.2c17.7-6,37.6-11.4,49.4-26.9c6.6-8.5,3.7-20.9-4.2-27.5
		C48.5,76.3,31.3,71.2,15,66.1z"/>
	<path class="st0" d="M270.6,68.1c31.1,0.8,63,4.6,91.9,16.8c9,4.1,18.9,10.3,21,20.7c-1.4,7.4-7.7,12.8-13.9,16.5
		c-14.4,8.2-30.7,12-46.7,15.3c-17.4,3-35,5.4-52.6,5.3c10.8-4.1,22.2-6.7,32.4-12.5c8.2-4.7,17.1-10.5,20-20
		c2.4-7.8-1.8-15.7-7.5-20.8C302.7,78.1,286.1,73.5,270.6,68.1z"/>
	<path class="st0" d="M91.4,161c6.7-0.4,14.1,3.2,16.3,9.9c2.3,7,1,16.4-6,20.4c-7,4.7-16.8,3.1-22.4-3
		C70.8,178.6,77.5,159.7,91.4,161z M89.3,166.9c-7.6,2.3-8.5,13.6-3.5,18.7c5.2,5.2,15.2,1.4,15.4-6.1
		C103.3,172.5,96.9,164,89.3,166.9L89.3,166.9z"/>
	<path class="st0" d="M178,162.6c7.6-3.6,20.2-1.9,21.3,8.2c-2.1,0.1-4.3,0.1-6.4,0.2c-2-5-12.1-7.1-12.7-0.7
		c4.7,3.9,11.7,2.7,16.5,6.5c3.8,2.9,4,9,1.2,12.6c-7.4,8.3-24.7,5.3-25.9-6.8c2.1-0.2,4.1-0.4,6.2-0.6c1.7,2.4,3.2,5.8,6.6,6
		c3.5,0.8,9.2-1.3,7.5-5.8c-5.1-3.4-12.5-2.3-16.9-7.1C171.8,171.4,173.4,164.7,178,162.6z"/>
	<path class="st0" d="M208.6,163.1c7.5-4.3,20.9-2.7,22.1,7.7c-2.2,0.1-4.5,0.2-6.7,0.2c-1.8-3.9-6.5-5.7-10.5-3.8
		c-1.2,0.6-2.2,1.4-3,2.4c4.9,4.3,12.1,3.4,17.3,7.1c4,3,4.5,9.3,1.2,13c-7.5,8.1-24.7,5-25.8-7.2c2.2-0.1,4.3-0.3,6.5-0.4
		c1.4,7.5,14.9,8.6,14.3-0.2c-5.3-2-11.2-2.4-16.1-5.4C203.5,173.3,203.8,165.9,208.6,163.1z"/>
	<path class="st0" d="M263.4,161c3.5-0.3,7.1,0.4,10.3,1.9c10.1,5.4,10.4,22.2,0.9,28.2c-9.1,6.7-24.8,1.5-26-10.4
		C246.4,171.4,253.2,160.5,263.4,161z M262.3,167c-7.4,1.7-8,11.6-5,17.2c4.4,6.8,16.5,3.8,16.5-4.6
		C275.7,172.6,270,164.5,262.3,167L262.3,167z"/>
	<path class="st0" d="M11.6,161.4c6.7,0.1,13.4-0.7,20,0.7c6.6,2.1,8.3,11.7,3.2,16.2c-4.4,3.9-10.7,2.6-16.1,2.9
		c0,3.9,0,7.9-0.1,11.8c-2.2,0-4.3,0-6.5-0.2C11,182.5,12.1,171.9,11.6,161.4z M18.6,167.1v8.7c3.2-0.1,6.6,0.2,9.7-0.9
		c2.8-1.2,2.9-5.7,0.2-7C25.5,166.5,22,167.1,18.6,167.1L18.6,167.1z"/>
	<path class="st0" d="M43.3,161.4c7.5,0.6,15.3-0.5,22.6,1.1c8,3.3,5.5,15.6-2.7,17c4.1,3.9,7.5,8.5,10.1,13.5
		c-2.6,0.2-5.2,0.2-7.7-0.1c-4.9-4.6-7-13.7-15.2-13.3c0,4.5-0.1,8.9-0.5,13.4c-2.1,0-4.3,0-6.4,0C43.2,182.5,43.4,171.9,43.3,161.4
		z M50.3,167c0,2.6,0,5.2,0,7.8c3.8-0.1,7.7,0.6,11.3-0.8c3.2-0.9,2.8-6.2-0.5-6.6C57.5,166.6,53.9,167,50.3,167L50.3,167z"/>
	<path class="st0" d="M113.7,161.5c7.9-0.4,15.8,0.4,23.6,0.3c-0.2,1.8-0.4,3.5-0.6,5.3c-5.3-0.1-10.5-0.1-15.8-0.1
		c0,2.4-0.1,4.7-0.2,7.1h14.1l-0.1,5.6c-4.6,0.1-9.3,0.1-13.9,0.1c0,4.3,0,8.7,0,13l-7.1,0.2C113.7,182.6,113.7,172,113.7,161.5z"/>
	<path class="st0" d="M142.5,161.8c8.4-0.1,16.8-0.1,25.2-0.1c0,1.7-0.1,3.5-0.1,5.2c-6.1,0-12.1,0-18.2,0c0,2.3,0,4.6,0,6.8
		c5.8-0.1,11.6-0.1,17.3,0.2c-0.2,1.7-0.5,3.4-1,5.1c-5.4,0.4-10.9,0-16.4,0.1c0,2.8,0,5.6,0.1,8.4c6.3,0.2,12.5,0.1,18.8,0.2
		c0.1,1.8,0.1,3.5,0.2,5.3c-8.6,0.1-17.3,0-26,0C142.5,182.6,142.5,172.2,142.5,161.8z"/>
	<path class="st0" d="M236.5,161.3l7.1,0.2c0.1,10.6,0,21.1,0,31.7l-7.1-0.1C236.6,182.5,236.4,171.9,236.5,161.3z"/>
	<path class="st0" d="M286.5,161.5c2.2-0.1,4.5-0.1,6.7-0.1c4.6,6.8,9,13.7,13.5,20.6c0.2-6.8,0.1-13.5,0.2-20.3
		c2.2-0.1,4.4-0.2,6.6-0.3c0,10.6,0.1,21.1,0,31.7c-2.3,0-4.6,0-6.8,0.1c-4.6-6.5-8.8-13.2-13.3-19.8c-0.1,6.6,0,13.2-0.1,19.7
		c-2.2,0-4.5,0-6.7,0C286.5,182.5,286.4,172,286.5,161.5z"/>
	<path class="st0" d="M330.1,161.7c2.5,0,5,0,7.6,0c4.2,10.5,8.9,20.8,13.3,31.2c-2.4,0-4.9,0-7.3,0c-1.1-2.4-2.1-4.8-3.1-7.2
		c-4.4,0-8.8,0-13.3,0l-2.9,7.2h-7.2C321.3,182.5,325.9,172.2,330.1,161.7z M329.3,180.7h8.9c-1.2-3.9-2.6-7.6-4.3-11.3
		C332.1,173.1,330.6,176.9,329.3,180.7L329.3,180.7z"/>
	<path class="st0" d="M354.6,162h6.9c0,8.5,0.1,16.9-0.1,25.4c5.7,0.4,11.4,0.6,17.1,0.5c0,1.7-0.1,3.4-0.1,5.1
		c-7.9,0.1-15.9,0.1-23.8,0C354.5,182.6,354.7,172.3,354.6,162z"/>
</g>
</svg>
