<svg width="195" height="19" viewBox="0 0 195 19" fill="none" xmlns="http://www.w3.org/2000/svg">
<g id="made-in">
<g id="Group">
<path id="Vector" d="M0.654076 -2.38419e-08C0.854076 0.2 1.05408 0.3 1.25408 0.5C1.65408 0.9 2.05408 1.3 2.45408 1.7C5.35408 4.7 8.25408 7.6 11.1541 10.6C12.7541 12.3 14.4541 13.9 16.0541 15.6C16.3541 15.9 16.6541 16.2 16.9541 16.6C15.8541 17.9 13.9541 17.4 13.2541 15.6C11.3541 15.9 9.45408 14.7 9.15408 12.4C8.95408 12.4 8.65408 12.4 8.35408 12.4C8.25408 13.4 7.85408 14.3 7.05408 14.9C6.35408 15.4 5.45408 15.7 4.35408 15.5C4.15408 16.1 3.85408 16.7 3.25408 16.9C2.85408 17.1 2.35408 17.2 1.95408 17.1C1.05408 17 0.254076 16.2 0.0540763 15.2C-0.145924 14.2 0.454076 13.3 1.75408 12.7C1.45408 10.6 2.45408 9.3 4.85408 8.6C4.85408 8.4 4.85408 8.1 4.85408 7.9C3.85408 7.7 2.95408 7.3 2.35408 6.5C1.75408 5.7 1.55408 4.8 1.75408 3.8C-0.0459236 2.8 -0.545924 1.1 0.654076 -2.38419e-08Z" transform="translate(0.680054 1.45068)" fill="#BE1F0C"/>
<path id="Vector_2" d="M0.654076 -2.38419e-08C0.854076 0.2 1.05408 0.3 1.25408 0.5C1.65408 0.9 2.05408 1.3 2.45408 1.7C5.35408 4.7 8.25408 7.6 11.1541 10.6C12.7541 12.3 14.4541 13.9 16.0541 15.6C16.3541 15.9 16.6541 16.2 16.9541 16.6C15.8541 17.9 13.9541 17.4 13.2541 15.6C11.3541 15.9 9.45408 14.7 9.15408 12.4C8.95408 12.4 8.65408 12.4 8.35408 12.4C8.25408 13.4 7.85408 14.3 7.05408 14.9C6.35408 15.4 5.45408 15.7 4.35408 15.5C4.15408 16.1 3.85408 16.7 3.25408 16.9C2.85408 17.1 2.35408 17.2 1.95408 17.1C1.05408 17 0.254076 16.2 0.0540763 15.2C-0.145924 14.2 0.454076 13.3 1.75408 12.7C1.45408 10.6 2.45408 9.3 4.85408 8.6C4.85408 8.4 4.85408 8.1 4.85408 7.9C3.85408 7.7 2.95408 7.3 2.35408 6.5C1.75408 5.7 1.55408 4.8 1.75408 3.8C-0.0459236 2.8 -0.545924 1.1 0.654076 -2.38419e-08Z" transform="translate(18.2926 18.04) rotate(180)" fill="#E42013"/>
</g>
<path id="&#208;&#151;&#209;&#128;&#208;&#190;&#208;&#177;&#208;&#187;&#208;&#181;&#208;&#189;&#208;&#190; &#208;&#178; &#208;&#134;&#208;&#178;&#208;&#176;&#208;&#189;&#208;&#190;-&#208;&#164;&#209;&#128;&#208;&#176;&#208;&#189;&#208;&#186;&#209;&#150;&#208;&#178;&#209;&#129;&#209;&#140;&#208;&#186;&#209;&#131;" d="M0.468 4.14C0.804 3.852 1.202 3.628 1.662 3.468C2.126 3.308 2.64 3.228 3.204 3.228C3.672 3.228 4.094 3.284 4.47 3.396C4.85 3.508 5.172 3.666 5.436 3.87C5.7 4.07 5.902 4.31 6.042 4.59C6.186 4.866 6.258 5.17 6.258 5.502C6.258 5.91 6.164 6.28 5.976 6.612C5.792 6.94 5.512 7.206 5.136 7.41C5.336 7.506 5.518 7.62 5.682 7.752C5.85 7.88 5.992 8.024 6.108 8.184C6.228 8.34 6.32 8.51 6.384 8.694C6.452 8.878 6.486 9.074 6.486 9.282C6.486 9.674 6.412 10.04 6.264 10.38C6.12 10.72 5.908 11.016 5.628 11.268C5.352 11.52 5.012 11.72 4.608 11.868C4.204 12.012 3.742 12.084 3.222 12.084C2.918 12.084 2.62 12.056 2.328 12C2.04 11.948 1.764 11.872 1.5 11.772C1.236 11.672 0.988 11.552 0.756 11.412C0.524 11.272 0.318 11.116 0.138 10.944L0.612 10.17C0.656 10.114 0.708 10.068 0.768 10.032C0.832 9.992 0.902 9.972 0.978 9.972C1.082 9.972 1.196 10.014 1.32 10.098C1.444 10.178 1.594 10.268 1.77 10.368C1.946 10.468 2.154 10.56 2.394 10.644C2.638 10.724 2.93 10.764 3.27 10.764C3.81 10.764 4.228 10.648 4.524 10.416C4.82 10.184 4.968 9.828 4.968 9.348C4.968 9.152 4.928 8.976 4.848 8.82C4.768 8.664 4.654 8.532 4.506 8.424C4.358 8.316 4.178 8.234 3.966 8.178C3.758 8.118 3.526 8.088 3.27 8.088H2.046L2.04 6.792H3.156C3.656 6.792 4.046 6.694 4.326 6.498C4.61 6.298 4.752 6.01 4.752 5.634C4.752 5.302 4.618 5.038 4.35 4.842C4.086 4.642 3.702 4.542 3.198 4.542C2.906 4.542 2.654 4.574 2.442 4.638C2.234 4.702 2.052 4.772 1.896 4.848C1.744 4.92 1.614 4.988 1.506 5.052C1.402 5.116 1.308 5.148 1.224 5.148C1.144 5.148 1.076 5.128 1.02 5.088C0.964 5.048 0.912 4.988 0.864 4.908L0.468 4.14ZM9.06947 10.404C9.23747 10.608 9.41947 10.752 9.61547 10.836C9.81547 10.92 10.0315 10.962 10.2635 10.962C10.4875 10.962 10.6895 10.92 10.8695 10.836C11.0495 10.752 11.2015 10.624 11.3255 10.452C11.4535 10.28 11.5515 10.064 11.6195 9.804C11.6875 9.54 11.7215 9.23 11.7215 8.874C11.7215 8.514 11.6915 8.21 11.6315 7.962C11.5755 7.71 11.4935 7.506 11.3855 7.35C11.2775 7.194 11.1455 7.08 10.9895 7.008C10.8375 6.936 10.6635 6.9 10.4675 6.9C10.1595 6.9 9.89747 6.966 9.68147 7.098C9.46547 7.226 9.26147 7.408 9.06947 7.644V10.404ZM8.99147 6.684C9.24347 6.4 9.52947 6.17 9.84947 5.994C10.1695 5.818 10.5455 5.73 10.9775 5.73C11.3135 5.73 11.6195 5.8 11.8955 5.94C12.1755 6.08 12.4155 6.284 12.6155 6.552C12.8195 6.816 12.9755 7.144 13.0835 7.536C13.1955 7.924 13.2515 8.37 13.2515 8.874C13.2515 9.334 13.1895 9.76 13.0655 10.152C12.9415 10.544 12.7635 10.884 12.5315 11.172C12.3035 11.46 12.0255 11.686 11.6975 11.85C11.3735 12.01 11.0095 12.09 10.6055 12.09C10.2615 12.09 9.96747 12.038 9.72347 11.934C9.47947 11.826 9.26147 11.678 9.06947 11.49V14.01H7.58747V5.844H8.49347C8.68547 5.844 8.81147 5.934 8.87147 6.114L8.99147 6.684ZM17.1201 5.748C17.5761 5.748 17.9901 5.822 18.3621 5.97C18.7381 6.118 19.0581 6.328 19.3221 6.6C19.5901 6.872 19.7961 7.204 19.9401 7.596C20.0841 7.988 20.1561 8.426 20.1561 8.91C20.1561 9.398 20.0841 9.838 19.9401 10.23C19.7961 10.622 19.5901 10.956 19.3221 11.232C19.0581 11.508 18.7381 11.72 18.3621 11.868C17.9901 12.016 17.5761 12.09 17.1201 12.09C16.6601 12.09 16.2421 12.016 15.8661 11.868C15.4901 11.72 15.1681 11.508 14.9001 11.232C14.6361 10.956 14.4301 10.622 14.2821 10.23C14.1381 9.838 14.0661 9.398 14.0661 8.91C14.0661 8.426 14.1381 7.988 14.2821 7.596C14.4301 7.204 14.6361 6.872 14.9001 6.6C15.1681 6.328 15.4901 6.118 15.8661 5.97C16.2421 5.822 16.6601 5.748 17.1201 5.748ZM17.1201 10.95C17.6321 10.95 18.0101 10.778 18.2541 10.434C18.5021 10.09 18.6261 9.586 18.6261 8.922C18.6261 8.258 18.5021 7.752 18.2541 7.404C18.0101 7.056 17.6321 6.882 17.1201 6.882C16.6001 6.882 16.2141 7.058 15.9621 7.41C15.7141 7.758 15.5901 8.262 15.5901 8.922C15.5901 9.582 15.7141 10.086 15.9621 10.434C16.2141 10.778 16.6001 10.95 17.1201 10.95ZM24.1787 11.01C24.6907 11.01 25.0727 10.846 25.3247 10.518C25.5767 10.19 25.7027 9.71 25.7027 9.078C25.7027 8.45 25.5787 7.972 25.3307 7.644C25.0867 7.316 24.7127 7.152 24.2087 7.152C23.7047 7.152 23.3207 7.308 23.0567 7.62C22.7927 7.928 22.6607 8.39 22.6607 9.006C22.6607 9.658 22.7847 10.156 23.0327 10.5C23.2847 10.84 23.6667 11.01 24.1787 11.01ZM24.6107 4.728C24.2347 4.752 23.9127 4.826 23.6447 4.95C23.3807 5.07 23.1607 5.234 22.9847 5.442C22.8127 5.646 22.6807 5.892 22.5887 6.18C22.5007 6.464 22.4487 6.78 22.4327 7.128C22.5327 6.972 22.6547 6.83 22.7987 6.702C22.9467 6.57 23.1107 6.458 23.2907 6.366C23.4747 6.27 23.6727 6.196 23.8847 6.144C24.1007 6.092 24.3307 6.066 24.5747 6.066C24.9827 6.066 25.3507 6.138 25.6787 6.282C26.0067 6.426 26.2847 6.63 26.5127 6.894C26.7447 7.158 26.9207 7.476 27.0407 7.848C27.1647 8.216 27.2267 8.624 27.2267 9.072C27.2267 9.536 27.1527 9.954 27.0047 10.326C26.8607 10.698 26.6547 11.016 26.3867 11.28C26.1227 11.54 25.8027 11.74 25.4267 11.88C25.0507 12.02 24.6347 12.09 24.1787 12.09C23.7347 12.09 23.3247 12.018 22.9487 11.874C22.5767 11.73 22.2547 11.496 21.9827 11.172C21.7107 10.848 21.4987 10.428 21.3467 9.912C21.1947 9.392 21.1187 8.758 21.1187 8.01C21.1187 7.382 21.1767 6.798 21.2927 6.258C21.4087 5.718 21.5987 5.246 21.8627 4.842C22.1267 4.434 22.4727 4.106 22.9007 3.858C23.3287 3.61 23.8567 3.462 24.4847 3.414L26.6747 3.246L26.7527 4.014C26.7687 4.178 26.7447 4.318 26.6807 4.434C26.6167 4.546 26.5027 4.606 26.3387 4.614L24.6107 4.728ZM33.9479 12H32.4659V6.978H30.9539C30.9059 7.734 30.8319 8.386 30.7319 8.934C30.6319 9.478 30.5119 9.94 30.3719 10.32C30.2359 10.7 30.0819 11.006 29.9099 11.238C29.7419 11.466 29.5619 11.644 29.3699 11.772C29.1779 11.9 28.9799 11.984 28.7759 12.024C28.5719 12.068 28.3659 12.09 28.1579 12.09C27.9379 12.09 27.7759 12.07 27.6719 12.03C27.5719 11.994 27.5219 11.942 27.5219 11.874V10.95H27.8759C28.0079 10.95 28.1399 10.93 28.2719 10.89C28.4039 10.85 28.5319 10.768 28.6559 10.644C28.7799 10.52 28.8979 10.344 29.0099 10.116C29.1219 9.884 29.2239 9.58 29.3159 9.204C29.4119 8.824 29.4959 8.36 29.5679 7.812C29.6399 7.264 29.6959 6.608 29.7359 5.844H33.9479V12ZM39.3738 8.214C39.3738 8.022 39.3458 7.842 39.2898 7.674C39.2378 7.502 39.1578 7.352 39.0498 7.224C38.9418 7.096 38.8038 6.996 38.6358 6.924C38.4718 6.848 38.2798 6.81 38.0598 6.81C37.6318 6.81 37.2938 6.932 37.0458 7.176C36.8018 7.42 36.6458 7.766 36.5778 8.214H39.3738ZM36.5478 9.108C36.5718 9.424 36.6278 9.698 36.7158 9.93C36.8038 10.158 36.9198 10.348 37.0638 10.5C37.2078 10.648 37.3778 10.76 37.5738 10.836C37.7738 10.908 37.9938 10.944 38.2338 10.944C38.4738 10.944 38.6798 10.916 38.8518 10.86C39.0278 10.804 39.1798 10.742 39.3078 10.674C39.4398 10.606 39.5538 10.544 39.6498 10.488C39.7498 10.432 39.8458 10.404 39.9378 10.404C40.0618 10.404 40.1538 10.45 40.2138 10.542L40.6398 11.082C40.4758 11.274 40.2918 11.436 40.0878 11.568C39.8838 11.696 39.6698 11.8 39.4458 11.88C39.2258 11.956 38.9998 12.01 38.7678 12.042C38.5398 12.074 38.3178 12.09 38.1018 12.09C37.6738 12.09 37.2758 12.02 36.9078 11.88C36.5398 11.736 36.2198 11.526 35.9478 11.25C35.6758 10.97 35.4618 10.626 35.3058 10.218C35.1498 9.806 35.0718 9.33 35.0718 8.79C35.0718 8.37 35.1398 7.976 35.2758 7.608C35.4118 7.236 35.6058 6.914 35.8578 6.642C36.1138 6.366 36.4238 6.148 36.7878 5.988C37.1558 5.828 37.5698 5.748 38.0298 5.748C38.4178 5.748 38.7758 5.81 39.1038 5.934C39.4318 6.058 39.7138 6.24 39.9498 6.48C40.1858 6.716 40.3698 7.008 40.5018 7.356C40.6378 7.7 40.7058 8.094 40.7058 8.538C40.7058 8.762 40.6818 8.914 40.6338 8.994C40.5858 9.07 40.4938 9.108 40.3578 9.108H36.5478ZM47.1819 5.844V12H45.6999V9.276H43.2999V12H41.8179V5.844H43.2999V8.178H45.6999V5.844H47.1819ZM51.374 5.748C51.83 5.748 52.244 5.822 52.616 5.97C52.992 6.118 53.312 6.328 53.576 6.6C53.844 6.872 54.05 7.204 54.194 7.596C54.338 7.988 54.41 8.426 54.41 8.91C54.41 9.398 54.338 9.838 54.194 10.23C54.05 10.622 53.844 10.956 53.576 11.232C53.312 11.508 52.992 11.72 52.616 11.868C52.244 12.016 51.83 12.09 51.374 12.09C50.914 12.09 50.496 12.016 50.12 11.868C49.744 11.72 49.422 11.508 49.154 11.232C48.89 10.956 48.684 10.622 48.536 10.23C48.392 9.838 48.32 9.398 48.32 8.91C48.32 8.426 48.392 7.988 48.536 7.596C48.684 7.204 48.89 6.872 49.154 6.6C49.422 6.328 49.744 6.118 50.12 5.97C50.496 5.822 50.914 5.748 51.374 5.748ZM51.374 10.95C51.886 10.95 52.264 10.778 52.508 10.434C52.756 10.09 52.88 9.586 52.88 8.922C52.88 8.258 52.756 7.752 52.508 7.404C52.264 7.056 51.886 6.882 51.374 6.882C50.854 6.882 50.468 7.058 50.216 7.41C49.968 7.758 49.844 8.262 49.844 8.922C49.844 9.582 49.968 10.086 50.216 10.434C50.468 10.778 50.854 10.95 51.374 10.95ZM60.9726 10.986C61.2846 10.986 61.5306 10.91 61.7106 10.758C61.8946 10.606 61.9866 10.398 61.9866 10.134C61.9866 10.022 61.9706 9.918 61.9386 9.822C61.9106 9.722 61.8586 9.636 61.7826 9.564C61.7066 9.492 61.6026 9.436 61.4706 9.396C61.3426 9.356 61.1786 9.336 60.9786 9.336H59.8686V10.986H60.9726ZM59.8686 6.81V8.424H60.8406C60.9846 8.424 61.1166 8.404 61.2366 8.364C61.3566 8.32 61.4606 8.26 61.5486 8.184C61.6366 8.104 61.7046 8.012 61.7526 7.908C61.8006 7.8 61.8246 7.682 61.8246 7.554C61.8246 7.462 61.8086 7.372 61.7766 7.284C61.7446 7.192 61.6906 7.112 61.6146 7.044C61.5386 6.972 61.4366 6.916 61.3086 6.876C61.1846 6.832 61.0286 6.81 60.8406 6.81H59.8686ZM60.8826 5.844C61.2706 5.844 61.6046 5.882 61.8846 5.958C62.1686 6.034 62.4026 6.138 62.5866 6.27C62.7706 6.402 62.9066 6.56 62.9946 6.744C63.0826 6.924 63.1266 7.12 63.1266 7.332C63.1266 7.464 63.1086 7.602 63.0726 7.746C63.0406 7.886 62.9806 8.022 62.8926 8.154C62.8086 8.286 62.6926 8.406 62.5446 8.514C62.3966 8.622 62.2086 8.706 61.9806 8.766C62.1846 8.81 62.3706 8.872 62.5386 8.952C62.7066 9.028 62.8506 9.126 62.9706 9.246C63.0906 9.362 63.1826 9.5 63.2466 9.66C63.3146 9.816 63.3486 9.992 63.3486 10.188C63.3486 10.5 63.2826 10.77 63.1506 10.998C63.0226 11.226 62.8486 11.414 62.6286 11.562C62.4126 11.71 62.1606 11.82 61.8726 11.892C61.5886 11.964 61.2906 12 60.9786 12H58.4586V5.844H60.8826ZM69.2657 12H67.6457V3.324H69.2657V12ZM73.3944 10.986C73.7064 10.986 73.9524 10.91 74.1324 10.758C74.3164 10.606 74.4084 10.398 74.4084 10.134C74.4084 10.022 74.3924 9.918 74.3604 9.822C74.3324 9.722 74.2804 9.636 74.2044 9.564C74.1284 9.492 74.0244 9.436 73.8924 9.396C73.7644 9.356 73.6004 9.336 73.4004 9.336H72.2904V10.986H73.3944ZM72.2904 6.81V8.424H73.2624C73.4064 8.424 73.5384 8.404 73.6584 8.364C73.7784 8.32 73.8824 8.26 73.9704 8.184C74.0584 8.104 74.1264 8.012 74.1744 7.908C74.2224 7.8 74.2464 7.682 74.2464 7.554C74.2464 7.462 74.2304 7.372 74.1984 7.284C74.1664 7.192 74.1124 7.112 74.0364 7.044C73.9604 6.972 73.8584 6.916 73.7304 6.876C73.6064 6.832 73.4504 6.81 73.2624 6.81H72.2904ZM73.3044 5.844C73.6924 5.844 74.0264 5.882 74.3064 5.958C74.5904 6.034 74.8244 6.138 75.0084 6.27C75.1924 6.402 75.3284 6.56 75.4164 6.744C75.5044 6.924 75.5484 7.12 75.5484 7.332C75.5484 7.464 75.5304 7.602 75.4944 7.746C75.4624 7.886 75.4024 8.022 75.3144 8.154C75.2304 8.286 75.1144 8.406 74.9664 8.514C74.8184 8.622 74.6304 8.706 74.4024 8.766C74.6064 8.81 74.7924 8.872 74.9604 8.952C75.1284 9.028 75.2724 9.126 75.3924 9.246C75.5124 9.362 75.6044 9.5 75.6684 9.66C75.7364 9.816 75.7704 9.992 75.7704 10.188C75.7704 10.5 75.7044 10.77 75.5724 10.998C75.4444 11.226 75.2704 11.414 75.0504 11.562C74.8344 11.71 74.5824 11.82 74.2944 11.892C74.0104 11.964 73.7124 12 73.4004 12H70.8804V5.844H73.3044ZM80.1676 9.372C79.7396 9.392 79.3796 9.43 79.0876 9.486C78.7956 9.538 78.5616 9.606 78.3856 9.69C78.2096 9.774 78.0836 9.872 78.0076 9.984C77.9316 10.096 77.8936 10.218 77.8936 10.35C77.8936 10.61 77.9696 10.796 78.1216 10.908C78.2776 11.02 78.4796 11.076 78.7276 11.076C79.0316 11.076 79.2936 11.022 79.5136 10.914C79.7376 10.802 79.9556 10.634 80.1676 10.41V9.372ZM76.7716 6.702C77.4796 6.054 78.3316 5.73 79.3276 5.73C79.6876 5.73 80.0096 5.79 80.2936 5.91C80.5776 6.026 80.8176 6.19 81.0136 6.402C81.2096 6.61 81.3576 6.86 81.4576 7.152C81.5616 7.444 81.6136 7.764 81.6136 8.112V12H80.9416C80.8016 12 80.6936 11.98 80.6176 11.94C80.5416 11.896 80.4816 11.81 80.4376 11.682L80.3056 11.238C80.1496 11.378 79.9976 11.502 79.8496 11.61C79.7016 11.714 79.5476 11.802 79.3876 11.874C79.2276 11.946 79.0556 12 78.8716 12.036C78.6916 12.076 78.4916 12.096 78.2716 12.096C78.0116 12.096 77.7716 12.062 77.5516 11.994C77.3316 11.922 77.1416 11.816 76.9816 11.676C76.8216 11.536 76.6976 11.362 76.6096 11.154C76.5216 10.946 76.4776 10.704 76.4776 10.428C76.4776 10.272 76.5036 10.118 76.5556 9.966C76.6076 9.81 76.6916 9.662 76.8076 9.522C76.9276 9.382 77.0816 9.25 77.2696 9.126C77.4576 9.002 77.6876 8.894 77.9596 8.802C78.2356 8.71 78.5556 8.636 78.9196 8.58C79.2836 8.52 79.6996 8.484 80.1676 8.472V8.112C80.1676 7.7 80.0796 7.396 79.9036 7.2C79.7276 7 79.4736 6.9 79.1416 6.9C78.9016 6.9 78.7016 6.928 78.5416 6.984C78.3856 7.04 78.2476 7.104 78.1276 7.176C78.0076 7.244 77.8976 7.306 77.7976 7.362C77.7016 7.418 77.5936 7.446 77.4736 7.446C77.3696 7.446 77.2816 7.42 77.2096 7.368C77.1376 7.312 77.0796 7.248 77.0356 7.176L76.7716 6.702ZM88.3733 5.844V12H86.8913V9.276H84.4913V12H83.0093V5.844H84.4913V8.178H86.8913V5.844H88.3733ZM92.5654 5.748C93.0214 5.748 93.4354 5.822 93.8074 5.97C94.1834 6.118 94.5034 6.328 94.7674 6.6C95.0354 6.872 95.2414 7.204 95.3854 7.596C95.5294 7.988 95.6014 8.426 95.6014 8.91C95.6014 9.398 95.5294 9.838 95.3854 10.23C95.2414 10.622 95.0354 10.956 94.7674 11.232C94.5034 11.508 94.1834 11.72 93.8074 11.868C93.4354 12.016 93.0214 12.09 92.5654 12.09C92.1054 12.09 91.6874 12.016 91.3114 11.868C90.9354 11.72 90.6134 11.508 90.3454 11.232C90.0814 10.956 89.8754 10.622 89.7274 10.23C89.5834 9.838 89.5114 9.398 89.5114 8.91C89.5114 8.426 89.5834 7.988 89.7274 7.596C89.8754 7.204 90.0814 6.872 90.3454 6.6C90.6134 6.328 90.9354 6.118 91.3114 5.97C91.6874 5.822 92.1054 5.748 92.5654 5.748ZM92.5654 10.95C93.0774 10.95 93.4554 10.778 93.6994 10.434C93.9474 10.09 94.0714 9.586 94.0714 8.922C94.0714 8.258 93.9474 7.752 93.6994 7.404C93.4554 7.056 93.0774 6.882 92.5654 6.882C92.0454 6.882 91.6594 7.058 91.4074 7.41C91.1594 7.758 91.0354 8.262 91.0354 8.922C91.0354 9.582 91.1594 10.086 91.4074 10.434C91.6594 10.778 92.0454 10.95 92.5654 10.95ZM96.684 7.758H99.792V8.994H96.684V7.758ZM106.069 9.72C106.377 9.712 106.659 9.648 106.915 9.528C107.171 9.408 107.391 9.248 107.575 9.048C107.759 8.844 107.901 8.608 108.001 8.34C108.105 8.068 108.157 7.776 108.157 7.464C108.157 7.16 108.105 6.874 108.001 6.606C107.901 6.334 107.759 6.096 107.575 5.892C107.391 5.688 107.171 5.526 106.915 5.406C106.659 5.286 106.377 5.222 106.069 5.214V9.72ZM104.539 5.214C104.227 5.222 103.943 5.286 103.687 5.406C103.435 5.526 103.217 5.688 103.033 5.892C102.849 6.096 102.707 6.334 102.607 6.606C102.507 6.874 102.457 7.16 102.457 7.464C102.457 7.776 102.507 8.068 102.607 8.34C102.707 8.608 102.849 8.844 103.033 9.048C103.217 9.248 103.435 9.408 103.687 9.528C103.943 9.648 104.227 9.712 104.539 9.72V5.214ZM106.069 3.972C106.609 3.988 107.105 4.09 107.557 4.278C108.009 4.466 108.397 4.718 108.721 5.034C109.049 5.35 109.305 5.716 109.489 6.132C109.673 6.548 109.765 6.992 109.765 7.464C109.765 7.94 109.673 8.388 109.489 8.808C109.305 9.224 109.049 9.59 108.721 9.906C108.397 10.222 108.009 10.474 107.557 10.662C107.105 10.85 106.609 10.952 106.069 10.968V12H104.539V10.968C104.003 10.952 103.509 10.85 103.057 10.662C102.605 10.47 102.215 10.218 101.887 9.906C101.559 9.59 101.303 9.224 101.119 8.808C100.935 8.388 100.843 7.94 100.843 7.464C100.843 6.992 100.935 6.548 101.119 6.132C101.303 5.716 101.559 5.352 101.887 5.04C102.215 4.724 102.605 4.472 103.057 4.284C103.509 4.096 104.003 3.992 104.539 3.972V2.958H106.069V3.972ZM112.253 10.404C112.421 10.608 112.603 10.752 112.799 10.836C112.999 10.92 113.215 10.962 113.447 10.962C113.671 10.962 113.873 10.92 114.053 10.836C114.233 10.752 114.385 10.624 114.509 10.452C114.637 10.28 114.735 10.064 114.803 9.804C114.871 9.54 114.905 9.23 114.905 8.874C114.905 8.514 114.875 8.21 114.815 7.962C114.759 7.71 114.677 7.506 114.569 7.35C114.461 7.194 114.329 7.08 114.173 7.008C114.021 6.936 113.847 6.9 113.651 6.9C113.343 6.9 113.081 6.966 112.865 7.098C112.649 7.226 112.445 7.408 112.253 7.644V10.404ZM112.175 6.684C112.427 6.4 112.713 6.17 113.033 5.994C113.353 5.818 113.729 5.73 114.161 5.73C114.497 5.73 114.803 5.8 115.079 5.94C115.359 6.08 115.599 6.284 115.799 6.552C116.003 6.816 116.159 7.144 116.267 7.536C116.379 7.924 116.435 8.37 116.435 8.874C116.435 9.334 116.373 9.76 116.249 10.152C116.125 10.544 115.947 10.884 115.715 11.172C115.487 11.46 115.209 11.686 114.881 11.85C114.557 12.01 114.193 12.09 113.789 12.09C113.445 12.09 113.151 12.038 112.907 11.934C112.663 11.826 112.445 11.678 112.253 11.49V14.01H110.771V5.844H111.677C111.869 5.844 111.995 5.934 112.055 6.114L112.175 6.684ZM120.832 9.372C120.404 9.392 120.044 9.43 119.752 9.486C119.46 9.538 119.226 9.606 119.05 9.69C118.874 9.774 118.748 9.872 118.672 9.984C118.596 10.096 118.558 10.218 118.558 10.35C118.558 10.61 118.634 10.796 118.786 10.908C118.942 11.02 119.144 11.076 119.392 11.076C119.696 11.076 119.958 11.022 120.178 10.914C120.402 10.802 120.62 10.634 120.832 10.41V9.372ZM117.436 6.702C118.144 6.054 118.996 5.73 119.992 5.73C120.352 5.73 120.674 5.79 120.958 5.91C121.242 6.026 121.482 6.19 121.678 6.402C121.874 6.61 122.022 6.86 122.122 7.152C122.226 7.444 122.278 7.764 122.278 8.112V12H121.606C121.466 12 121.358 11.98 121.282 11.94C121.206 11.896 121.146 11.81 121.102 11.682L120.97 11.238C120.814 11.378 120.662 11.502 120.514 11.61C120.366 11.714 120.212 11.802 120.052 11.874C119.892 11.946 119.72 12 119.536 12.036C119.356 12.076 119.156 12.096 118.936 12.096C118.676 12.096 118.436 12.062 118.216 11.994C117.996 11.922 117.806 11.816 117.646 11.676C117.486 11.536 117.362 11.362 117.274 11.154C117.186 10.946 117.142 10.704 117.142 10.428C117.142 10.272 117.168 10.118 117.22 9.966C117.272 9.81 117.356 9.662 117.472 9.522C117.592 9.382 117.746 9.25 117.934 9.126C118.122 9.002 118.352 8.894 118.624 8.802C118.9 8.71 119.22 8.636 119.584 8.58C119.948 8.52 120.364 8.484 120.832 8.472V8.112C120.832 7.7 120.744 7.396 120.568 7.2C120.392 7 120.138 6.9 119.806 6.9C119.566 6.9 119.366 6.928 119.206 6.984C119.05 7.04 118.912 7.104 118.792 7.176C118.672 7.244 118.562 7.306 118.462 7.362C118.366 7.418 118.258 7.446 118.138 7.446C118.034 7.446 117.946 7.42 117.874 7.368C117.802 7.312 117.744 7.248 117.7 7.176L117.436 6.702ZM129.037 5.844V12H127.555V9.276H125.155V12H123.673V5.844H125.155V8.178H127.555V5.844H129.037ZM134.183 6.234C134.255 6.118 134.353 6.024 134.477 5.952C134.601 5.88 134.733 5.844 134.873 5.844H136.037L134.603 8.13C134.503 8.29 134.401 8.42 134.297 8.52C134.193 8.616 134.067 8.692 133.919 8.748C134.119 8.808 134.283 8.898 134.411 9.018C134.539 9.134 134.655 9.282 134.759 9.462L136.199 12H135.173C134.913 12 134.711 11.956 134.567 11.868C134.423 11.78 134.301 11.654 134.201 11.49L133.295 9.786C133.215 9.638 133.111 9.528 132.983 9.456C132.859 9.384 132.713 9.348 132.545 9.348H131.987V12H130.505V5.844H131.987V8.382H132.467C132.635 8.382 132.769 8.352 132.869 8.292C132.973 8.228 133.061 8.132 133.133 8.004L134.183 6.234ZM138.557 5.844V12H137.069V5.844H138.557ZM138.761 4.05C138.761 4.178 138.735 4.298 138.683 4.41C138.631 4.522 138.561 4.62 138.473 4.704C138.389 4.788 138.289 4.856 138.173 4.908C138.057 4.956 137.933 4.98 137.801 4.98C137.673 4.98 137.551 4.956 137.435 4.908C137.323 4.856 137.225 4.788 137.141 4.704C137.057 4.62 136.989 4.522 136.937 4.41C136.889 4.298 136.865 4.178 136.865 4.05C136.865 3.918 136.889 3.794 136.937 3.678C136.989 3.562 137.057 3.462 137.141 3.378C137.225 3.294 137.323 3.228 137.435 3.18C137.551 3.128 137.673 3.102 137.801 3.102C137.933 3.102 138.057 3.128 138.173 3.18C138.289 3.228 138.389 3.294 138.473 3.378C138.561 3.462 138.631 3.562 138.683 3.678C138.735 3.794 138.761 3.918 138.761 4.05ZM142.582 10.986C142.894 10.986 143.14 10.91 143.32 10.758C143.504 10.606 143.596 10.398 143.596 10.134C143.596 10.022 143.58 9.918 143.548 9.822C143.52 9.722 143.468 9.636 143.392 9.564C143.316 9.492 143.212 9.436 143.08 9.396C142.952 9.356 142.788 9.336 142.588 9.336H141.478V10.986H142.582ZM141.478 6.81V8.424H142.45C142.594 8.424 142.726 8.404 142.846 8.364C142.966 8.32 143.07 8.26 143.158 8.184C143.246 8.104 143.314 8.012 143.362 7.908C143.41 7.8 143.434 7.682 143.434 7.554C143.434 7.462 143.418 7.372 143.386 7.284C143.354 7.192 143.3 7.112 143.224 7.044C143.148 6.972 143.046 6.916 142.918 6.876C142.794 6.832 142.638 6.81 142.45 6.81H141.478ZM142.492 5.844C142.88 5.844 143.214 5.882 143.494 5.958C143.778 6.034 144.012 6.138 144.196 6.27C144.38 6.402 144.516 6.56 144.604 6.744C144.692 6.924 144.736 7.12 144.736 7.332C144.736 7.464 144.718 7.602 144.682 7.746C144.65 7.886 144.59 8.022 144.502 8.154C144.418 8.286 144.302 8.406 144.154 8.514C144.006 8.622 143.818 8.706 143.59 8.766C143.794 8.81 143.98 8.872 144.148 8.952C144.316 9.028 144.46 9.126 144.58 9.246C144.7 9.362 144.792 9.5 144.856 9.66C144.924 9.816 144.958 9.992 144.958 10.188C144.958 10.5 144.892 10.77 144.76 10.998C144.632 11.226 144.458 11.414 144.238 11.562C144.022 11.71 143.77 11.82 143.482 11.892C143.198 11.964 142.9 12 142.588 12H140.068V5.844H142.492ZM150.513 7.146C150.469 7.202 150.425 7.246 150.381 7.278C150.341 7.31 150.281 7.326 150.201 7.326C150.125 7.326 150.051 7.304 149.979 7.26C149.907 7.212 149.821 7.16 149.721 7.104C149.621 7.044 149.501 6.992 149.361 6.948C149.225 6.9 149.055 6.876 148.851 6.876C148.591 6.876 148.363 6.924 148.167 7.02C147.971 7.112 147.807 7.246 147.675 7.422C147.547 7.598 147.451 7.812 147.387 8.064C147.323 8.312 147.291 8.594 147.291 8.91C147.291 9.238 147.325 9.53 147.393 9.786C147.465 10.042 147.567 10.258 147.699 10.434C147.831 10.606 147.991 10.738 148.179 10.83C148.367 10.918 148.579 10.962 148.815 10.962C149.051 10.962 149.241 10.934 149.385 10.878C149.533 10.818 149.657 10.754 149.757 10.686C149.857 10.614 149.943 10.55 150.015 10.494C150.091 10.434 150.175 10.404 150.267 10.404C150.387 10.404 150.477 10.45 150.537 10.542L150.963 11.082C150.799 11.274 150.621 11.436 150.429 11.568C150.237 11.696 150.037 11.8 149.829 11.88C149.625 11.956 149.413 12.01 149.193 12.042C148.977 12.074 148.761 12.09 148.545 12.09C148.165 12.09 147.807 12.02 147.471 11.88C147.135 11.736 146.841 11.528 146.589 11.256C146.337 10.984 146.137 10.652 145.989 10.26C145.845 9.864 145.773 9.414 145.773 8.91C145.773 8.458 145.837 8.04 145.965 7.656C146.097 7.268 146.289 6.934 146.541 6.654C146.793 6.37 147.105 6.148 147.477 5.988C147.849 5.828 148.277 5.748 148.761 5.748C149.221 5.748 149.623 5.822 149.967 5.97C150.315 6.118 150.627 6.33 150.903 6.606L150.513 7.146ZM154.406 10.938C154.742 10.938 154.992 10.854 155.156 10.686C155.324 10.518 155.408 10.302 155.408 10.038C155.408 9.926 155.388 9.818 155.348 9.714C155.312 9.61 155.254 9.518 155.174 9.438C155.094 9.358 154.99 9.296 154.862 9.252C154.734 9.204 154.58 9.18 154.4 9.18H153.302V10.938H154.406ZM154.394 8.124C154.822 8.124 155.184 8.176 155.48 8.28C155.776 8.384 156.016 8.524 156.2 8.7C156.384 8.876 156.516 9.08 156.596 9.312C156.68 9.54 156.722 9.78 156.722 10.032C156.722 10.32 156.67 10.586 156.566 10.83C156.466 11.07 156.316 11.278 156.116 11.454C155.92 11.626 155.678 11.76 155.39 11.856C155.106 11.952 154.78 12 154.412 12H151.892V5.844H153.302V8.124H154.394ZM161.394 6.234C161.466 6.118 161.564 6.024 161.688 5.952C161.812 5.88 161.944 5.844 162.084 5.844H163.248L161.814 8.13C161.714 8.29 161.612 8.42 161.508 8.52C161.404 8.616 161.278 8.692 161.13 8.748C161.33 8.808 161.494 8.898 161.622 9.018C161.75 9.134 161.866 9.282 161.97 9.462L163.41 12H162.384C162.124 12 161.922 11.956 161.778 11.868C161.634 11.78 161.512 11.654 161.412 11.49L160.506 9.786C160.426 9.638 160.322 9.528 160.194 9.456C160.07 9.384 159.924 9.348 159.756 9.348H159.198V12H157.716V5.844H159.198V8.382H159.678C159.846 8.382 159.98 8.352 160.08 8.292C160.184 8.228 160.272 8.132 160.344 8.004L161.394 6.234ZM169.824 5.844L166.47 13.692C166.426 13.796 166.368 13.874 166.296 13.926C166.228 13.982 166.122 14.01 165.978 14.01H164.874L166.026 11.538L163.536 5.844H164.838C164.954 5.844 165.044 5.872 165.108 5.928C165.176 5.984 165.226 6.048 165.258 6.12L166.566 9.312C166.61 9.42 166.646 9.528 166.674 9.636C166.706 9.744 166.736 9.854 166.764 9.966C166.8 9.854 166.836 9.744 166.872 9.636C166.908 9.524 166.948 9.414 166.992 9.306L168.228 6.12C168.26 6.04 168.312 5.974 168.384 5.922C168.46 5.87 168.544 5.844 168.636 5.844H169.824Z" transform="translate(24.1525 1.45068)" fill="#959191"/>
</g>
</svg>
