<?xml version="1.0" encoding="utf-8"?><svg xmlns="http://www.w3.org/2000/svg" xmlns:xlink="http://www.w3.org/1999/xlink"><symbol viewBox="0 0 17 12" id="arrow" xmlns="http://www.w3.org/2000/svg"><path d="M11.448.177a.607.607 0 0 0-.857 0 .589.589 0 0 0 0 .835l4.344 4.277H.6c-.334 0-.6.262-.6.591 0 .33.266.6.6.6h14.335l-4.344 4.269a.599.599 0 0 0 0 .843c.24.236.626.236.857 0l5.372-5.29a.575.575 0 0 0 0-.835L11.448.177z"/></symbol><symbol viewBox="0 0 244 102" id="dream-team" xmlns="http://www.w3.org/2000/svg"><use xlink:href="#ba" transform="translate(-4.11 -7.63)"/><defs><linearGradient id="bb" x2="1" gradientUnits="userSpaceOnUse" gradientTransform="matrix(-241.019 -97.1832 227.661 -564.61 130.75 390.305)"><stop offset="0" stop-color="#217CE8"/><stop offset="1" stop-color="#8FD5FF"/></linearGradient><path id="ba" d="M4.32 53.856V8.928c2.16-.24 4.536-.456 7.128-.648 2.592-.24 5.28-.36 8.064-.36 3.504 0 6.864.504 10.08 1.512s6.048 2.496 8.496 4.464c2.448 1.968 4.392 4.392 5.832 7.272 1.488 2.832 2.232 6.12 2.232 9.864 0 4.128-.744 7.68-2.232 10.656-1.44 2.976-3.432 5.424-5.976 7.344-2.496 1.92-5.424 3.336-8.784 4.248-3.312.912-6.864 1.368-10.656 1.368-1.296 0-2.664-.024-4.104-.072-1.44 0-2.808-.048-4.104-.144a66.394 66.394 0 0 1-3.528-.216c-1.056-.096-1.872-.216-2.448-.36zm6.336-39.024V47.88c1.008.24 2.208.432 3.6.576 1.392.096 2.616.144 3.672.144 2.928 0 5.712-.336 8.352-1.008 2.64-.672 4.968-1.704 6.984-3.096a16.048 16.048 0 0 0 4.824-5.472c1.2-2.208 1.8-4.872 1.8-7.992 0-3.024-.648-5.592-1.944-7.704a15.547 15.547 0 0 0-4.968-5.184c-2.016-1.344-4.296-2.328-6.84-2.952a30.771 30.771 0 0 0-7.488-.936c-1.536 0-3 .072-4.392.216a50.458 50.458 0 0 0-3.6.36zm63.64 8.352h-3.455c-1.488 0-2.952.24-4.392.72-1.392.48-2.64 1.2-3.744 2.16-1.056.912-1.92 2.04-2.592 3.384-.624 1.344-.936 2.88-.936 4.608v20.016h-6.552V18h6.48v3.744a6.504 6.504 0 0 1 2.088-2.592 9.933 9.933 0 0 1 3.024-1.512 13.657 13.657 0 0 1 3.312-.72c1.152-.144 2.16-.216 3.024-.216h3.672l.072 6.48zm37.263 27.072c-1.679 1.2-3.647 2.28-5.903 3.24-2.256.912-4.824 1.368-7.705 1.368-2.351 0-4.535-.336-6.551-1.008-1.969-.72-3.697-1.728-5.184-3.024-1.44-1.296-2.616-2.904-3.528-4.824-.865-1.92-1.344-4.104-1.44-6.552v-.36c-.769.096-1.56.168-2.377.216a6.52 6.52 0 0 0-2.303.432v-6.552c.816-.24 1.608-.384 2.376-.432.767-.048 1.56-.12 2.376-.216.144-2.304.672-4.416 1.584-6.336a15.75 15.75 0 0 1 3.672-4.968c1.536-1.392 3.36-2.472 5.472-3.24 2.111-.768 4.44-1.152 6.983-1.152 2.736 0 5.208.6 7.416 1.8 1.68.96 3.073 2.28 4.177 3.96 1.104 1.68 1.655 3.576 1.655 5.688 0 2.208-.744 4.272-2.232 6.192-1.536 2.016-3.384 3.336-5.543 3.96-2.112.576-4.417.864-6.913.864-1.103 0-2.4-.048-3.887-.144a59.903 59.903 0 0 0-3.96-.144c-.337 0-.648.024-.936.072-.289 0-.553.024-.793.072v.36c0 2.832.936 4.992 2.808 6.48 1.92 1.44 4.297 2.16 7.129 2.16 1.44 0 2.76-.12 3.96-.36 1.248-.24 2.4-.576 3.456-1.008a23.936 23.936 0 0 0 3.167-1.512 51.333 51.333 0 0 0 3.024-1.872v6.84zM99.896 23.112a16.17 16.17 0 0 0-4.32.576c-1.344.384-2.569.96-3.672 1.728-1.056.768-1.944 1.752-2.664 2.952-.672 1.152-1.08 2.544-1.224 4.176l3.887-.144c.816.096 1.8.168 2.953.216h3.456c.96 0 1.919-.048 2.88-.144.96-.144 1.8-.384 2.52-.72.768-.384 1.367-.888 1.799-1.512.481-.624.721-1.416.721-2.376 0-1.728-.648-2.952-1.945-3.672-1.295-.72-2.759-1.08-4.392-1.08zm46.948 16.128v5.4c0 1.728-.024 3.288-.072 4.68v4.608h-6.624v-3.816c-1.392 1.728-3.072 2.952-5.04 3.672a17.474 17.474 0 0 1-6.048 1.08c-1.68 0-3.36-.264-5.04-.792a13.81 13.81 0 0 1-4.536-2.232 11.589 11.589 0 0 1-3.24-3.744c-.816-1.536-1.224-3.312-1.224-5.328 0-2.064.336-3.84 1.008-5.328.72-1.488 1.68-2.688 2.88-3.6 1.248-.96 2.688-1.656 4.32-2.088 1.68-.432 3.504-.648 5.472-.648 1.728 0 3.552.144 5.472.432 1.968.288 3.96.744 5.976 1.368v-.288c.096-.384.144-.72.144-1.008v-.936c0-1.296-.264-2.424-.792-3.384a6.732 6.732 0 0 0-1.944-2.376 8.061 8.061 0 0 0-2.808-1.368 9.952 9.952 0 0 0-3.168-.504c-1.056 0-2.088.12-3.096.36a8.703 8.703 0 0 0-2.736 1.152 6.729 6.729 0 0 0-2.016 2.016c-.528.768-.816 1.704-.864 2.808h-6.624c.144-2.112.648-3.96 1.512-5.544.912-1.584 2.04-2.88 3.384-3.888a14.857 14.857 0 0 1 4.68-2.376 18.132 18.132 0 0 1 5.328-.792c2.112 0 4.104.288 5.976.864 1.872.576 3.504 1.488 4.896 2.736 1.44 1.248 2.568 2.856 3.384 4.824.864 1.92 1.32 4.272 1.368 7.056v.36c.72-.096 1.44-.216 2.16-.36.768-.144 1.56-.312 2.376-.504v6.768l-4.464.72zm-6.624.144c-.288 0-.816-.096-1.584-.288a37.39 37.39 0 0 0-2.592-.576 40.71 40.71 0 0 0-3.168-.648 18.891 18.891 0 0 0-3.24-.288c-.816 0-1.704.096-2.664.288a8.254 8.254 0 0 0-2.592.864 6.488 6.488 0 0 0-1.944 1.656c-.528.672-.792 1.512-.792 2.52 0 .816.216 1.56.648 2.232.48.672 1.104 1.272 1.872 1.8.768.48 1.656.864 2.664 1.152 1.008.288 2.088.432 3.24.432a11.18 11.18 0 0 0 3.816-.648c1.2-.48 2.256-1.056 3.168-1.728.96-.672 1.704-1.392 2.232-2.16.576-.768.888-1.464.936-2.088v-2.52zm24.144-17.928c.528-1.008 1.2-1.824 2.016-2.448.864-.624 1.728-1.104 2.592-1.44.912-.336 1.776-.552 2.592-.648.864-.144 1.56-.216 2.088-.216 3.456 0 6.24.432 8.352 1.296 2.112.864 3.648 1.968 4.608 3.312a8.732 8.732 0 0 1 2.376-2.232c.96-.624 1.92-1.104 2.88-1.44.96-.384 1.848-.624 2.664-.72.816-.144 1.416-.216 1.8-.216 2.496 0 4.632.336 6.408 1.008 1.824.624 3.312 1.68 4.464 3.168 1.152 1.44 1.992 3.336 2.52 5.688.576 2.304.864 5.112.864 8.424v18.936h-6.48V34.776a39.91 39.91 0 0 0-.216-4.248c-.144-1.392-.48-2.616-1.008-3.672a5.669 5.669 0 0 0-2.232-2.52c-.96-.672-2.304-1.056-4.032-1.152-.96 0-1.968.144-3.024.432-1.008.288-1.944.792-2.808 1.512-.816.672-1.512 1.608-2.088 2.808-.528 1.2-.792 2.688-.792 4.464v21.528h-6.48V32.4c0-.864-.072-1.8-.216-2.808a7.989 7.989 0 0 0-1.008-2.952c-.48-.912-1.224-1.68-2.232-2.304-.96-.672-2.304-1.056-4.032-1.152a12.29 12.29 0 0 0-3.456.504 7.208 7.208 0 0 0-3.096 1.656c-.912.768-1.656 1.872-2.232 3.312-.528 1.392-.792 3.192-.792 5.4v20.016h-6.552V18h6.552v3.456zm-47.868 41.328c-.048 1.584-.312 3.072-.792 4.464a10.89 10.89 0 0 1-1.944 3.6c-.864 1.008-1.968 1.824-3.312 2.448-1.296.576-2.808.864-4.536.864-2.64 0-5.4-.528-8.28-1.584V108h-6.12V70.056a23.215 23.215 0 0 0-3.384-.936c-1.2-.24-2.376-.36-3.528-.36-1.248 0-2.4.216-3.456.648-1.008.432-1.536 1.392-1.584 2.88h-6.12c0-1.584.288-2.976.864-4.176.624-1.2 1.44-2.184 2.448-2.952 1.008-.816 2.184-1.416 3.528-1.8 1.392-.432 2.88-.648 4.464-.648 2.4 0 4.536.288 6.408.864 1.92.528 3.672 1.128 5.256 1.8a237.39 237.39 0 0 0 4.68 1.872c1.536.528 3.12.792 4.752.792.912 0 1.656-.096 2.232-.288.576-.192 1.008-.48 1.296-.864.336-.432.552-.984.648-1.656.144-.672.24-1.488.288-2.448h6.192zm34.79 41.472c-1.68 1.2-3.648 2.28-5.904 3.24-2.256.912-4.824 1.368-7.704 1.368-2.352 0-4.536-.336-6.552-1.008-1.968-.72-3.696-1.728-5.184-3.024-1.44-1.296-2.616-2.904-3.528-4.824-.864-1.92-1.344-4.104-1.44-6.552v-.36c-.768.096-1.56.168-2.376.216-.768 0-1.536.144-2.304.432v-6.552c.816-.24 1.608-.384 2.376-.432.768-.048 1.56-.12 2.376-.216.144-2.304.672-4.416 1.584-6.336a15.75 15.75 0 0 1 3.672-4.968c1.536-1.392 3.36-2.472 5.472-3.24 2.112-.768 4.44-1.152 6.984-1.152 2.736 0 5.208.6 7.416 1.8 1.68.96 3.072 2.28 4.176 3.96 1.104 1.68 1.656 3.576 1.656 5.688 0 2.208-.744 4.272-2.232 6.192-1.536 2.016-3.384 3.336-5.544 3.96-2.112.576-4.416.864-6.912.864-1.104 0-2.4-.048-3.888-.144a59.903 59.903 0 0 0-3.96-.144c-.336 0-.648.024-.936.072-.288 0-.552.024-.792.072v.36c0 2.832.936 4.992 2.808 6.48 1.92 1.44 4.296 2.16 7.128 2.16 1.44 0 2.76-.12 3.96-.36 1.248-.24 2.4-.576 3.456-1.008a24.009 24.009 0 0 0 3.168-1.512 51.664 51.664 0 0 0 3.024-1.872v6.84zm-11.664-27.144a16.17 16.17 0 0 0-4.32.576c-1.344.384-2.568.96-3.672 1.728-1.056.768-1.944 1.752-2.664 2.952-.672 1.152-1.08 2.544-1.224 4.176l3.888-.144c.816.096 1.8.168 2.952.216h3.456c.96 0 1.92-.048 2.88-.144.96-.144 1.8-.384 2.52-.72.768-.384 1.368-.888 1.8-1.512.48-.624.72-1.416.72-2.376 0-1.728-.648-2.952-1.944-3.672-1.296-.72-2.76-1.08-4.392-1.08zm44.417 16.128v5.4c0 1.728-.024 3.288-.072 4.68v4.608h-6.624v-3.816c-1.392 1.728-3.072 2.952-5.04 3.672a17.474 17.474 0 0 1-6.048 1.08c-1.68 0-3.36-.264-5.04-.792a13.81 13.81 0 0 1-4.536-2.232 11.589 11.589 0 0 1-3.24-3.744c-.816-1.536-1.224-3.312-1.224-5.328 0-2.064.336-3.84 1.008-5.328.72-1.488 1.68-2.688 2.88-3.6 1.248-.96 2.688-1.656 4.32-2.088 1.68-.432 3.504-.648 5.472-.648 1.728 0 3.552.144 5.472.432 1.968.288 3.96.744 5.976 1.368v-.288c.096-.384.144-.72.144-1.008v-.936c0-1.296-.264-2.424-.792-3.384a6.732 6.732 0 0 0-1.944-2.376 8.061 8.061 0 0 0-2.808-1.368 9.952 9.952 0 0 0-3.168-.504c-1.056 0-2.088.12-3.096.36a8.703 8.703 0 0 0-2.736 1.152 6.729 6.729 0 0 0-2.016 2.016c-.528.768-.816 1.704-.864 2.808h-6.624c.144-2.112.648-3.96 1.512-5.544.912-1.584 2.04-2.88 3.384-3.888a14.857 14.857 0 0 1 4.68-2.376 18.132 18.132 0 0 1 5.328-.792c2.112 0 4.104.288 5.976.864 1.872.576 3.504 1.488 4.896 2.736 1.44 1.248 2.568 2.856 3.384 4.824.864 1.92 1.32 4.272 1.368 7.056v.36c.72-.096 1.44-.216 2.16-.36.768-.144 1.56-.312 2.376-.504v6.768l-4.464.72zm-6.624.144c-.288 0-.816-.096-1.584-.288a37.39 37.39 0 0 0-2.592-.576 40.71 40.71 0 0 0-3.168-.648 18.891 18.891 0 0 0-3.24-.288c-.816 0-1.704.096-2.664.288a8.254 8.254 0 0 0-2.592.864 6.488 6.488 0 0 0-1.944 1.656c-.528.672-.792 1.512-.792 2.52 0 .816.216 1.56.648 2.232.48.672 1.104 1.272 1.872 1.8.768.48 1.656.864 2.664 1.152 1.008.288 2.088.432 3.24.432a11.18 11.18 0 0 0 3.816-.648c1.2-.48 2.256-1.056 3.168-1.728.96-.672 1.704-1.392 2.232-2.16.576-.768.888-1.464.936-2.088v-2.52zm24.145-17.928c.528-1.008 1.2-1.824 2.016-2.448.864-.624 1.727-1.104 2.591-1.44.912-.336 1.777-.552 2.593-.648.864-.144 1.56-.216 2.087-.216 3.456 0 6.241.432 8.353 1.296 2.111.864 3.647 1.968 4.608 3.312a8.732 8.732 0 0 1 2.376-2.232 13.43 13.43 0 0 1 2.88-1.44c.96-.384 1.848-.624 2.664-.72.816-.144 1.416-.216 1.8-.216 2.496 0 4.631.336 6.407 1.008 1.825.624 3.313 1.68 4.464 3.168 1.152 1.44 1.993 3.336 2.52 5.688.576 2.304.865 5.112.865 8.424v18.936h-6.48V88.776a39.91 39.91 0 0 0-.216-4.248c-.144-1.392-.481-2.616-1.009-3.672a5.657 5.657 0 0 0-2.232-2.52c-.96-.672-2.304-1.056-4.032-1.152-.96 0-1.968.144-3.023.432-1.008.288-1.945.792-2.809 1.512-.816.672-1.512 1.608-2.088 2.808-.527 1.2-.792 2.688-.792 4.464v21.528h-6.479V86.4c0-.864-.072-1.8-.217-2.808a7.989 7.989 0 0 0-1.008-2.952c-.48-.912-1.224-1.68-2.232-2.304-.96-.672-2.303-1.056-4.031-1.152-1.153 0-2.305.168-3.457.504a7.204 7.204 0 0 0-3.095 1.656c-.912.768-1.657 1.872-2.233 3.312-.528 1.392-.791 3.192-.791 5.4v20.016h-6.553V72h6.553v3.456z"/></defs></symbol><symbol viewBox="0 0 77 15" id="kontora" xmlns="http://www.w3.org/2000/svg"><path d="M12.849 0l-5.5 6.817 6.373 7.906H9.231L3.515 7.567v7.156H0V0h3.515v6.427L8.655 0h4.194zm5.715 6.93c-1.35.123-2.042.969-2.076 2.536.034 1.622.73 2.474 2.086 2.557 1.343-.083 2.032-.938 2.066-2.567-.034-1.56-.726-2.403-2.076-2.526zm-.01 8.07c-1.515 0-2.817-.537-3.906-1.612C13.572 12.3 13.034 11 13.034 9.487c0-1.527.538-2.827 1.614-3.902 1.09-1.088 2.391-1.632 3.906-1.632 1.528 0 2.833.544 3.916 1.632 1.076 1.075 1.614 2.375 1.614 3.902 0 1.512-.538 2.813-1.614 3.901C21.387 14.463 20.082 15 18.554 15zm17.71-.277H32.8V9.405c0-1.595-.603-2.393-1.809-2.393s-1.809.794-1.809 2.382l.01 5.329h-3.35V4.138h3.36V5.4c.693-.828 1.474-1.242 2.344-1.242 3.146 0 4.718 1.848 4.718 5.544v5.02zm7.031.082c-.247.02-.48.03-.699.03-2.693 0-4.04-1.512-4.04-4.537v-9.25h3.33v3.038h2.694v3.05h-2.693v2.782c0 1.3.462 1.95 1.388 1.95h1.305v2.711c-.637.13-1.066.205-1.285.226zm7.668-7.875c-1.35.123-2.042.969-2.076 2.536.034 1.622.73 2.474 2.087 2.557 1.343-.083 2.031-.938 2.066-2.567-.035-1.56-.727-2.403-2.077-2.526zm-.01 8.07c-1.515 0-2.817-.537-3.906-1.612C45.971 12.3 45.433 11 45.433 9.487c0-1.527.538-2.827 1.614-3.902 1.09-1.088 2.392-1.632 3.906-1.632 1.528 0 2.833.544 3.916 1.632 1.076 1.075 1.614 2.375 1.614 3.902 0 1.512-.538 2.813-1.614 3.901C53.786 14.463 52.481 15 50.953 15zm10.628-8.778c.535-1.349 1.412-2.023 2.632-2.023.411 0 .863.079 1.357.236l-.01 2.69h-.278c-2.433 0-3.666 1.133-3.7 3.399v4.199H58.24V4.22h3.34v2.002zm10.105 5.595c1.322-.075 2.004-.876 2.045-2.402-.04-1.479-.726-2.273-2.055-2.382-1.33.11-2.012.903-2.046 2.382.034 1.533.72 2.334 2.056 2.402zM77 4.137v10.586h-3.351v-1.314c-.781.828-1.549 1.242-2.302 1.242-1.44 0-2.673-.51-3.7-1.53-1.022-1.027-1.532-2.259-1.532-3.696 0-1.444.51-2.676 1.531-3.696 1.028-1.027 2.261-1.54 3.7-1.54.754 0 1.522.414 2.303 1.242V4.138H77z"/></symbol><symbol viewBox="0 0 122 30" id="molfar" xmlns="http://www.w3.org/2000/svg"><path d="M47.27 20.693l.196-.489a4.01 4.01 0 0 1 .22-.452l8.562-15.239a.563.563 0 0 1 .245-.244.982.982 0 0 1 .342 0h1.1v21.879h-1.271V7.461a8.204 8.204 0 0 1 0-.856l-8.587 15.324a.673.673 0 0 1-.623.403h-.245a.696.696 0 0 1-.624-.403L37.717 6.592c.015.29.015.58 0 .869v18.687h-1.333V4.22h1.1c.118-.02.238-.02.356 0 .11.05.2.137.256.244l8.856 15.251c.132.317.239.644.318.978zM69.703 10.481a7.413 7.413 0 0 1 2.972.563 6.05 6.05 0 0 1 2.214 1.602 7.117 7.117 0 0 1 1.37 2.446c.329 1.06.49 2.167.477 3.278a10.564 10.564 0 0 1-.477 3.265 7.128 7.128 0 0 1-1.37 2.446 5.967 5.967 0 0 1-2.214 1.602 8.17 8.17 0 0 1-5.932 0 6.041 6.041 0 0 1-2.214-1.602 7.043 7.043 0 0 1-1.382-2.446 10.553 10.553 0 0 1-.478-3.265c0-1.092.17-2.177.501-3.217.292-.9.762-1.732 1.382-2.446a6.116 6.116 0 0 1 2.215-1.602 7.413 7.413 0 0 1 2.936-.624zm0 14.676c.84.023 1.676-.14 2.446-.477a4.561 4.561 0 0 0 1.725-1.357c.48-.634.83-1.358 1.027-2.128a10.63 10.63 0 0 0 .343-2.801c.01-.94-.106-1.878-.343-2.788a6.113 6.113 0 0 0-1.027-2.153 4.61 4.61 0 0 0-1.725-1.37 6.288 6.288 0 0 0-4.82 0 4.599 4.599 0 0 0-1.71 1.407 6.115 6.115 0 0 0-1.04 2.152 10.42 10.42 0 0 0-.355 2.789c-.01.945.11 1.887.355 2.8a6.1 6.1 0 0 0 1.04 2.128 4.562 4.562 0 0 0 1.724 1.358 5.726 5.726 0 0 0 2.36.477v-.037zM82.51 3.596v22.552h-1.48V3.596h1.48zM88.538 26.148V12.34l-2.126-.146c-.304 0-.454-.13-.454-.392v-.599h2.618V9.258a7.178 7.178 0 0 1 .28-2.323c.201-.617.53-1.184.967-1.663a3.914 3.914 0 0 1 1.48-1.053 5.383 5.383 0 0 1 1.933-.33c.324 0 .647.029.966.085.293.05.58.132.856.245v.71c0 .146-.11.22-.293.22h-.502a5.555 5.555 0 0 0-.783 0 4.233 4.233 0 0 0-1.406.22 2.74 2.74 0 0 0-1.113.72 3.39 3.39 0 0 0-.722 1.297 6.505 6.505 0 0 0-.257 1.957v1.908h4.99v1.1h-4.964v13.798h-1.47zM107.792 26.148a.527.527 0 0 1-.575-.429l-.22-1.932c-.389.391-.797.763-1.223 1.113a7.57 7.57 0 0 1-1.309.831c-.467.23-.96.402-1.468.514a7.9 7.9 0 0 1-1.737.183 5.114 5.114 0 0 1-1.529-.232 3.793 3.793 0 0 1-1.32-.71 3.484 3.484 0 0 1-.918-1.222 4.255 4.255 0 0 1-.355-1.81 3.201 3.201 0 0 1 .563-1.81 4.587 4.587 0 0 1 1.75-1.456 11.51 11.51 0 0 1 3.057-.99 26.606 26.606 0 0 1 4.428-.526v-1.566a5.16 5.16 0 0 0-.954-3.326 3.29 3.29 0 0 0-2.74-1.15 5.175 5.175 0 0 0-1.896.306 6.74 6.74 0 0 0-1.321.685 8.281 8.281 0 0 0-.88.685.954.954 0 0 1-.576.305.502.502 0 0 1-.464-.28l-.27-.453a8.953 8.953 0 0 1 2.546-1.835 7.094 7.094 0 0 1 3.02-.624 5.505 5.505 0 0 1 2.166.392c.598.249 1.127.64 1.541 1.137.426.525.738 1.133.917 1.786a8.19 8.19 0 0 1 .404 2.372v10.042h-.636zm-6.201-.82a6.615 6.615 0 0 0 1.65-.196 6.116 6.116 0 0 0 1.395-.538 6.85 6.85 0 0 0 1.223-.832c.375-.318.742-.664 1.101-1.04v-4.01c-1.27.022-2.537.132-3.792.33-.9.134-1.779.38-2.617.733a3.84 3.84 0 0 0-1.517 1.113 2.36 2.36 0 0 0-.49 1.468c-.01.461.077.92.258 1.345a2.581 2.581 0 0 0 1.651 1.468c.37.108.753.161 1.138.159zM113.027 26.147V10.726h.77a.55.55 0 0 1 .38.11.537.537 0 0 1 .134.367l.123 3.253a7.338 7.338 0 0 1 1.993-2.899 4.538 4.538 0 0 1 3.01-1.101 5.31 5.31 0 0 1 1.284.146c.387.097.76.241 1.113.428l-.197 1.028a.281.281 0 0 1-.306.245.832.832 0 0 1-.269-.061l-.404-.135a5.273 5.273 0 0 0-1.48-.196A3.963 3.963 0 0 0 116.304 13a7.754 7.754 0 0 0-1.761 3.119v10.027h-1.516zM27.846 8.561l-.146.098-5.664 5.711a.367.367 0 0 1-.293.123h-5.272l.49.452-.514.526h5.32a.341.341 0 0 1 .27.11l5.663 5.76.122.123h-5.296a.39.39 0 0 1-.306-.123l-5.7-5.699-.086-.098-.733.746h.085l4.501 4.5 1.223 1.224c.044.046.07.107.074.171v5.43l-.122-.11-3.866-3.865-1.859-1.859a.33.33 0 0 1-.11-.256v-5.321l-.501.514-.465-.513v5.393a.341.341 0 0 1-.11.27l-5.712 5.71a.722.722 0 0 0-.086.123v-5.394a.257.257 0 0 1 .086-.195l5.736-5.736.098-.086-.734-.721-.086.073-5.724 5.7a.39.39 0 0 1-.306.122H2.466l.086-.123L8.3 15.593a.317.317 0 0 1 .257-.098h5.321l-.49-.501.49-.453h-5.32a.343.343 0 0 1-.27-.11L2.576 8.659l-.11-.123h5.382a.306.306 0 0 1 .281.086l4.795 4.807.942.941.073.073.71-.709-.074-.073-5.773-5.774a.318.318 0 0 1-.098-.244V2.287l.098.086 5.76 5.76a.293.293 0 0 1 .099.232v5.345l.501-.502.465.49V8.414a.355.355 0 0 1 .11-.281l5.724-5.724.123-.11v5.418a.281.281 0 0 1 0 .171l-5.737 5.736-.11.074.758.758a.731.731 0 0 1 .086-.123l5.712-5.723a.319.319 0 0 1 .245-.098h5.345l-.037.049zM15.15 15.679l.685-.685-.673-.673-.685.685.673.673z"/><path d="M2.442 17.281L.167 15.006l2.312-2.299 2.287 2.275-2.324 2.299zM27.859 17.292l-2.312-2.298 2.324-2.312 2.275 2.311-2.287 2.3zM17.449 27.714l-2.287 2.285-2.312-2.31 2.287-2.275 2.313 2.3zM17.462 2.3l-2.287 2.297-2.3-2.31L15.162 0l2.3 2.3z"/><defs><linearGradient id="da" x2="1" gradientUnits="userSpaceOnUse" gradientTransform="matrix(21.6742 0 0 21.6714 0 .137)"><stop stop-color="#D8291E"/><stop offset="1" stop-color="#C5001E"/></linearGradient><linearGradient id="db" x2="1" gradientUnits="userSpaceOnUse" gradientTransform="matrix(161.779 0 0 181.244 725.612 171.158)"><stop stop-color="#D8291E"/><stop offset="1" stop-color="#C5001E"/></linearGradient><linearGradient id="dc" x2="1" gradientUnits="userSpaceOnUse" gradientTransform="matrix(1.79081 0 0 27.2879 98.569 295.544)"><stop stop-color="#D8291E"/><stop offset="1" stop-color="#C5001E"/></linearGradient><linearGradient id="dd" x2="1" gradientUnits="userSpaceOnUse" gradientTransform="matrix(68.2517 0 0 166.942 642.476 224.816)"><stop stop-color="#D8291E"/><stop offset="1" stop-color="#C5001E"/></linearGradient><linearGradient id="de" x2="1" gradientUnits="userSpaceOnUse" gradientTransform="matrix(104.216 0 0 147.777 900.231 192.206)"><stop stop-color="#D8291E"/><stop offset="1" stop-color="#C5001E"/></linearGradient><linearGradient id="df" x2="1" gradientUnits="userSpaceOnUse" gradientTransform="matrix(63.7603 0 0 113.604 816.907 202.417)"><stop stop-color="#D8291E"/><stop offset="1" stop-color="#C5001E"/></linearGradient><linearGradient id="dg" x2="1" gradientUnits="userSpaceOnUse" gradientTransform="matrix(528.166 0 0 528.098 59.984 86.915)"><stop stop-color="#D8291E"/><stop offset="1" stop-color="#C5001E"/></linearGradient><linearGradient id="dh" x2="1" gradientUnits="userSpaceOnUse" gradientTransform="matrix(17.2924 0 0 17.1982 2.254 54.568)"><stop stop-color="#D8291E"/><stop offset="1" stop-color="#C5001E"/></linearGradient><linearGradient id="di" x2="1" gradientUnits="userSpaceOnUse" gradientTransform="matrix(17.3844 0 0 17.4284 97.684 54.96)"><stop stop-color="#D8291E"/><stop offset="1" stop-color="#C5001E"/></linearGradient><linearGradient id="dj" x2="1" gradientUnits="userSpaceOnUse" gradientTransform="matrix(17.2464 0 0 17.1983 49.992 102.387)"><stop stop-color="#D8291E"/><stop offset="1" stop-color="#C5001E"/></linearGradient><linearGradient id="dk" x2="1" gradientUnits="userSpaceOnUse" gradientTransform="matrix(17.2005 0 0 17.2442 49.904 7.15)"><stop stop-color="#D8291E"/><stop offset="1" stop-color="#C5001E"/></linearGradient></defs></symbol></svg>