<svg id="Слой_1" xmlns="http://www.w3.org/2000/svg" viewBox="0 0 571.7 210.2"><style>.st0{fill:#1f1b20}</style><g id="Слой_x0020_1"><g id="_173588432"><path class="st0" d="M410.7 57.6H401l-.4-.8V16.9c4.2 0 12.4-.2 16.8.2.9.1 3.2.2 4.1.5.6.2.1.1.9.2.7.1.3 0 .9.2 2.2.9 3.3 1.7 4.1 4.1 1.2 3.6 1.3 7.7 1.3 11.5 0 1 .2 1.2.2 2.1 0 1.4-.1 8-.4 9-.8 4.3-.9 8.6-5.5 10.9-1.7.9-5.6 1.6-7.7 1.7-1.5.1-2.7.3-4.6.3zm-49.3-40.7h12.4v94.8h-12.4v5.3h53.1v-5.3h-13.8V62.9c2.1 0 7.3.3 9.1.6.6.1.6.1 1.2.3 1.4.3 2.5.6 3.9 1.1l1 .5c.4.2.7.4 1.2.6 3 1.9 5 5.3 5.8 8.8.6 2.9.9 5.7 1.2 8.6.2 2.6.1 5.5.4 8l.4 4.4c.1 1.1.8 4.2 1.1 5.4.1.5.1.9.3 1.4l.4 1.2c.1.4.3.8.4 1.3l2.7 5.5c.6.9 1.4 2 2.2 2.7 1.2.9 2.4 1.9 3.7 2.7 1.1.6 2 1.2 3.2 1.6l1.2.4c.4.1.8.2 1.2.4 1.7.6 5.5 1 7.2 1.2 3.2.2 6.3.1 9.3-.6l11.9-4.2c-.1-1.7-1.2-3.2-1.7-4.8-.6.1-1.1.4-1.6.5l-.8.2c-.6.2-.1.1-.9.3-4.2.9-9.1 1.1-9.9-4.4-.1-.9-.4-1.3-.4-2.3l-.2-3.9c-.1-1.1.1-2.8.1-3.9-.2-2.8-.4-6-.8-8.7-.2-1.4-.9-4.3-1.4-5.7-1.3-4-3-7.8-5.9-10.9-1.2-1.3-3-2.8-4.5-3.7-.3-.1-.6-.4-.9-.5l-2.7-1.4c-2.9-1.4-6.2-2.4-9.3-3.1-.5-.1-.9-.1-1.3-.2-2.2-.6-1.8-.2-4.5-1.2v-.6c2.3 0 4.3-.4 6.7-.6l3.1-.6c.6-.1.9-.2 1.6-.4 2.6-.5 6.6-1.7 9-2.9l3.1-1.7c3.7-2.2 6-4.5 8.4-8.1l1.2-2.4c2.2-4.6 2.2-11.6.6-16.3-.3-.8-.6-1.7-1.1-2.4l-1.4-2.1c-2-2.7-4.5-4.6-7.5-6.3l-2.8-1.4c-1.4-.6-3-1.2-4.5-1.6-2-.5-3.6-.9-5.6-1.2-3.1-.5-6.4-.9-9.6-.9h-62.8v5.3zm-199.7 94.9h-7.8V17h14.7c1.9 0 8.2.6 10.3 1.2.4.1.9.2 1.4.4 1.9.7 1.9.6 3.9 2l1.4 1.2.1.1.3.3.4.5c.9 1 .6.6 1.6 2 1.1 1.7.9 1.6 1.7 3.2.1.4.1.3.3.6.4 1 .6 1.9.9 2.9.7 2.7 1.4 5.7 1.6 8.6.1 2.7.4 2.2.4 5.5 0 1 .1 1.1.2 1.9.4 10.3.1 21 .2 31.3l-.2 4c-.3 2.7-.4 7-1 9.5l-.6 3.4-.9 3.2c-.1.4-.4 1.1-.6 1.5-.1.4-.1.1-.3.6-1.8 4-4.5 7.5-8.8 9-.6.2-.9.3-1.6.5-4.1 1.2-8.4.8-11.6 1-.7.1-.9.2-1.9.2-1.3.1-2.7.1-4.1.2zm-47.5-99.4c0 5.9-.9 4.6 6.1 4.6h6.8c-.5 2.2-.2 22.9-.2 26.9l.1 67.7c-.2.5-2.4.2-3.1.2-1.3 0-7.8-.2-8.6 0l-1.2.6v4.2l.6.6h58c1.9 0 6.6-.3 8.4-.8l5.3-1.1c2.4-.6 4.8-1.4 7.1-2.2.2-.1.4-.1.6-.2l2.6-1.2c3-1.5 6-3.3 8.6-5.6l1.7-1.4.1-.1 3-3.1c.3-.4.4-.4.7-.8l5.8-8.3 3-6.3c1.4-3.4 2.4-7.2 3.1-10.8.1-.5.3-.7.4-1.4l.6-5.7v-7.6c0-4.2-1.2-9.1-2.3-13.1-.2-.7-.5-1.7-.8-2.4l-1.8-4.5c-.2-.6-.3-.6-.5-1l-1-2c-.9-2.1-2.3-4-3.7-5.9-.9-1.2-1.9-2.3-2.8-3.5-.3-.4-.3-.4-.6-.9l-4-3.8c-2-1.7-6-4.6-8.4-5.8-.8-.4-1.4-.6-2.1-1l-6.9-2.6-3.7-.9c-4-.9-8.8-1.3-12.9-1.4h-57.5c-.4.1-.5.2-.5.6zm365.9 0v4l.6.6h10.5v94.8h-12.8v5.3h92.4c.8 0 .6-.9.6-1.7 0-1.1.1-1.2.2-2.1l.1-9.1c.1-1.8.2-2 .2-4.6l.2-5.5c-.1-2.5.2-4.5.2-7.6l.2-4.6h-5.3c-.7 3-1.8 6.3-3 9.1-1.2 3.1-1 2.6-2.5 5.7-3.4 6.8-8.6 11.6-16 13.8-.3.1-.4.1-.8.1-.6.1-.9.3-1.7.4-.7.1-1.1.1-1.8.3-2.8.6-19.7.5-23 .5l-.6-.6v-46c1.9 0 5.7.2 7.6.4.6.1 1.4.4 2.2.5 1.2.2.6.1 1.2.4 2.6 1 4.7 1.8 6.5 4.2 1.7 2.2 2.2 2.8 3.2 6.1.1.4.2.5.4 1l1.4 7.8h5l.7-.6V41c0-.9-1.5-.6-2.4-.6h-3c-1 4.4-1.6 9.9-5 13.9-1.1 1.3-2.3 2.4-3.8 3.2-.4.1-.5.3-.7.4l-1.7.7c-3.3 1-7.6 1.3-11 .9V17H537c5.4 0 12 1.6 16 5.4 1.6 1.5 3.4 4.2 4.6 6.1.9 1.4.9 1.3 1.7 3l1.9 4.1c.7 1.4 1.2 2.7 1.9 4.2 7.3 0 5.3.5 5.3-2.9V16.8c-.1-.9-.2-.8-.2-1.7-.1-2.4.3-1.3-.6-3.2h-86.8c-.4 0-.6.1-.6.6h-.1zM284.2 87c.9 0 1 0 1.4.5.6.8.7 1.9 1.6 2.8l.1.1c.1.1.2.1.4.2l.6.5c.8.6.1-.2 1.8 1.2l4.5 4.2c.8.8 1.4 1.2 2.2 2 .9.9.3.6 1.8 2.2 1.3 1.3.9.8 1.9 2.3-.8-.1-.8-.4-1.9-1.4l-1.7.8c-.9-.6-.9-1-1.6-1.9-.4-.6-.5-.3-.9-.8-.3-.3-.5-.8-.8-1.2l-2.3-2.7-.1-.1-1.7-1.9c-.4-.6-.2-.5-.7-1-.9-.9-3.9-4.7-4.4-5.8-.1-.1-.1-.4-.1-.4v.4zm30-3.6c.6.1 2.8 1.6 3.4 2 1.7 1.3 1.3.6 2.2 1.5l3.1 2.4c0 .5-.2.7-.4 1.5-.4-.3-.6-.5-1-.9-.2-.2-.3-.3-.5-.4l-.1-.1-2.7-2.1c-.5-.4-1.7-1.7-3-2.7-.7-.6-.8-.2-.9-1.2h-.1zm8.2-10c.9.1.6.2 1.2.7.4.4.9.4 1.3.8l2.2 1.9c-1 0-1.4-.3-3.2-.6-.1-.2-.3-.4-.4-.6-.5-.9 0-.6-.7-1.5-.5-.5-.1-.1-.4-.7zm-3.2-2.3c.5.1 2.7 1.3 2.3 1.8-.6.6.1.1-1.2-.6-.4-.2-.4-.1-.7-.4-.7-.6-.3.1-.4-.8zm-10.9-8.8c1.7-.4 2.4-1.1 4.8.7.3.2.1.1.4.2l2.8 1.6c.9.5 1.3.4 2.6 1.4-1.5 0-.6.4-3-.3-1.3-.4-4.1-1.3-5.5-2-.5-.3-.6-.4-1.2-.7-1.1-.6-.7-.6-.9-.9zm22.3-7.2c.9.1 1.1.7 2.4 1.9l.8.8c-1.2.4-1.3-.1-2.7-1.7-.5-.6-.3-.4-.5-1zm2.1-12.4c.8 0 .6.1 1.3.1.4 0 .3-.1 1.1.1 2.6.7 4 1.6 5.4 3.7-1.2-.3-.9-.4-1.4-.7l-2.7-1.4c-1.8-.8 0-.3-3.7-1.5v-.3zm-19.9-1.9v.4l2.5 1.4c.5.4.7.2 1.2.6.5.4.4.6 1.2 1 1.7.9 3 2.4 4.5 3.7-.9-.2-2.5-1.3-3.5-1.8l-2.4-.9c-1.4-.6-3.1-.8-4.7-.9l-.8.8c0 1.5-.2 1.7 0 3 .4 2.4-2.7-.8-3.2 6.3v1.2c.1 1.3-.3 1.4-1 2.2-1.4 1.7-2.4 4.3-2.4 6.4.6.4 1.2.7 1.7 1.4l-1.2-.4c-.5.7-1.1 1.2-1.9 1.5-1.2.4-1.9.9-1.9 2.3 0 1 1 2.3 1.5 3.1.7 1.2.6.6 1.9 2.8l-1.4-.9c-.2-.1-.5-.1-.7-.3-1.9-.7-4.8-1.3-6.5.5l-.7 1 .2.8-1.7.2c-.1.9 0 1.4.5 2.2.4.6.9 1.2 1.4 1.9-1-.3-1.5-1.3-2.2-1.9l-.4-.2c-.4-.2-.8-.2-1.2-.3-1.6 1.9-1.2 1.3 1.7 5.5-.7-.2-3.3-2.9-4.6-3.2-.8-.2-3.3 1.6-4.1 2-1.2.6-1.5 1.4-2.3 2.3-.9 1.1-.8.4-1.2 1.9-.2.9-.1 1.7-.4 2.2-.3.6-.4.1-.2 1.2.2 1.3.6 2.4 1.1 3.5.5 1.1 1.2 2 1.7 3l1.2 1.6c1.1 1.1 1.9 2.4 3.2 3.4 1.2.9 1.9 2.1 3.1 3 1.2.9 2.2 2 3.2 3.1-1-.1-.2 0-.7-.2l-3-1.4c-.6-.3-.1.1-.8-.4-.3-.2-.2-.4-.6-.5-.6-.3-.2.1-.8-.4-.6-.4-1.5-1.6-2.2-2.2-.4-.4-.3-.1-.6-.5-2.6-3-4-7.5-5.5-11.1-.4-1.1-1-1.9-1.8-2.8-.2.7-1.3 1.2-2.2 2.6l-2.1 2.9c-.5.9-.9 1.2-1.6 1.8 0 1.7.7 2.5 1.4 3.9l1.9 3.4c-1.2-.4-2.2-2.2-2.9-3.2-.2-.3-.4-.5-.6-.8l-.5-.6c-.1-.3-.6-.5-.9-.6-.2.8-.9 1-1.4 2.2-.8 2.2-.1 3.4 1.1 5.3.3.4.4.6.7 1.2l1.5 2.1c.5.5 1.4 2 1.3 2.7l-.4.8c-1.4-.9-1.9-2.4-2.6-4l-2.7-4c-.7 0-3 3.2-3.3 4-1.3 2.3-1.7 2.1 1.9 5.2.1.1.1.1.2.1l.4.4c.9.8 2.8 2.4 3.3 3.4l.6 1.5c-.2 0-.7.1-.8.1-3.6.1-2.7-2.5-4.3-4.5-.2-.3-.2-.2-.4-.5-.6-1-1.6-1.8-2.5-2.7l-2.4 5c-.5 1.3-1 2.7-1.4 4-.4 1.4-1 3.9-1 5.1 0 .6.9 1.9 1.4 2.7-.9 1-1.8 1.4-1.4 2.7l.4.9c.1.2 0 .1.3.3 1.3 1.2 1.7.9 3.4.6 1-.3 1.9-.7 2.9-1.2.9-.4 2-.9 3-1 .9-.1 1.3.5 2.6-.5 1.2-.9 2.1-1.2 3.6-1.7.9-.3 1.5-.5 2.2-.6.4 0 .9-.1 1.2-.1 4.2-1.2 3-.2 7.6-2.7 0-.8-.1-1.5-.4-2.3 1 .1.7.8 3.2-.3.6-.3 1-.3 1.6-.5 2.6-.9 5.4-1.7 8.1-2.4l2.4-.8.4-.1c1.3-.5 2.7-1.2 3.7-1.9 4.3-2.7 1.9.4 8.1-2.8.4-.2.3-.1.6-.4.7-.4 1.6-.8 2.1-1.3l.1-.1 2.4-2.7.1-.1c1-1.1 1.3-1.6 2.2-2.8.4-.6.3-.7.8-1.3l1.3-1.7c.6-1 1.3-2.4 2.2-3.2.9-.9 1.1-1.7 1.9-2.4.2-.2.3-.3.4-.5l.4-.4.1-.1c1.7-2 4.5-3.5 6.5-5.2 1.7-1.3 1.3-.6 3.2-3 .4-.6.9-1.5 1.1-2.2.4-1.1 1.6-2 2.1-3.1.1-.4.1-.4.4-.8.9-1.4 1.4-3 1.9-4.5l1-4.2c.3-1.2.1 0 .4-1.7L345 66c.4-1.2.4-3.5.6-4.8l1.1-4c.3-1.1.4-1.6.4-2.8.1-1.3-.7-1.4-1.6-2.5l1.5-.4V49c0-.9 0 .1-.2-.5-.6-1.6-.3-3.8.1-5.3.1-.5.1-.7.1-1.4.2-1.2.4-1.5.1-2.7.7-1 1-1.6 1.2-3 .1-.4 0-.4.1-.6.1-1 .8-1.3 0-2.4-.6-.7-.7-.8-1.2-1.7 1.3-1.9 2.6-3.3 1.5-5.9-.4-1.1-1.2-1.9-1.9-2.9l1.4-1.4c0-1.6-3-1.6-4-1.7V19c1.2 0 1.4-.3 2.7.4 2.1 1 1.9.9 3.7.4 0-.6-.9-1.4-1.3-1.6l-1.4-.7c-3.8-1.6-9.4.5-12.7 2.9-1.4.9-2.7 2-3.7 3.3l-.3.3h-.2c-1.2 1.4-3 2.4-4.6 3.5-2.2 1.2-2 1.5-3.6 3.1l-4.2 4.4-.3.3c-1.3 1.2-2.5 2.4-3.9 3.5-.5.4-1.7 1.8-1.7 2.5v-.5z"/><path class="st0" d="M246.4 98.6l2.8-.5c3.3-.2 2.6-.1 5.8-1.2l3-.8v.6l-.9.3c-2.9 1.3-6.1 2.9-9.4 2.4-.8-.2-.9-.1-1.3-.8zm2-14.3c3.5 0 1.6 1.9 10.5 2.3l3.6.6c-.4.3-.4.3-.8.4-.6.1-4.8-.1-5.5-.3-.8-.1-.3-.1-1-.1-.9 0-2.8-.6-3.6-1l-2.4-1.2c-1.2-.5-.7-.3-.8-.7zm28.2-55.5c2.2.5 5.3 4.8 6.8 6.7-.9-.2-.9-.5-1.9-1.3-.4-.4-.6-.4-1.1-.6l-3.2-3c-.4-.5-.6-.9-.6-1.8zm42.9-12.6c0 .9.1 1.3.4 2.3-.9-.2-.6-.7-1-2.6-.2-1.3 0-1.2.4-2.9h.4l.6.6c-.1.8-.8 1.9-.8 2.6zM309 11c1.6.4.1.4 3 .6 0 1.2.1.5-.5 2-.2.6-.3-.1-.3 1.8 0 .9-.3 2.8-.2 5l.2 1.7c-.4-.4-.4-.5-.6-1.2l-1.5-7.1c-.1-1.1-.4-1.8-.1-2.8zm19.1-2.4c0 2.3-.1 3.5-.9 5.4-.3.8 0 .5-1 1.1.7-1.6 1-5.4 1.3-6 .3-.5.1-.4.6-.5zm-9.4-6.7c.3 2.8.6 3.5 0 6.1-.8-.1-.8-.3-1.3-.8-.6-.6-.7-1.2-1.4-1.7-.9-.7-.9-1-1.5-1.7-.6-.6-1.4-1.7-2-2.2-.9-.6-2.2-.5-3.2-.4-.3 0-.9-.1-1.9 0l-1.7.2c-1.4 0-4.1.4-5.4 1.2-.3.1.1 0-.4.2l-.8.4c-.3.1-.1.1-.5.2-1.9.9-1.3.5-2.9.7-.6.1-.2 0-.6.2-1.4.8-2.6 2.2-4.2 2.7-1.9.6-1.8-.1-3.5 1.5l-.2.2c-3.7 2.9-2.7-.4-6.8 1.8-1 .5-2 1.3-3.1 1.7l-5.5 2.5-1.8.9c-1.5.6-2.8 1.6-4.2 2.5l-4 2.7c-1.2 1.1-2.9 3.3-3.2 4.8-.7 3 .5 5.6-.1 7.8-.2.8-.4 1.2-.7 1.8-.7 1.4-1.7 2.7-2.8 3.8-.8.8-1.8 1.6-2.7 2.3l-1.4 1c-1.2.7-2.2 1.3-3.5 1.6-1.4.4-2.2.2-3.6 1l-.4.2-.1.1-.4.2c-.9.5-1.4.9-1.9 1.9-.7 1.5-.8 2.9-1.2 4l-.8 1.9c.5.7.4 1.1-.1 1.9l-.5.6c.4 4 1 4.9-.9 8.1-.9 1.4-.8 1.8-.3 3.4 1.1 3.2.3 1.2 0 5.2-.1 1.3.6 1.2-.4 2.2-1.8 2 1 5.4 1.5 8.6.2 1.4-.6 2.5-.8 3.8 0 .8 0-.1.3.6.6 1.7 1.7 3.9 1.8 5.8.1 2.3-.1 1.8 1.3 3.1 2.2 2.1-.2 3.8 2.2 6.8l.3.3 2 2.5c.4.6 1.2 1.4 1.2 2.2.1.9-.1.1-.1.9l.1 3.2c1.4.9.8.8 2.4 1.4.9.3 1.8.7 2.7 1.3-1.4.6-2.8-.9-4.2-.9l-.6.6c0 1.4.4 2 .4 3.2 0 1.2-.1 2.4.1 3.5.3 1.4.8 2.6 1.8 3.5l1.2.8c.3 0 1.4-1.3 1.6-1.7l.6-1.5c.6-1.6 1.7-4.1 1.9-5.7.5-2.8 1.8-4.1 3.2-6.5.4-.8.9-1.2 1.6-1.7 0-1.5-.6-1.6-1.5-2.7 1.6-.8 2.2.4 2.7-2.3l1-4c.4-1.1.5-2.2.7-3.3.1-.3.1-.6.1-.9l.6-2.4c.1-.6.1-1.1.4-1.7.2-.6.4-.8.5-1.4.5-1.7 1-2.8 1.4-4.7l.5-3.7c1.3-.6 3.2 0 3.2-2.1 0-1.7-3.7-1.7-5-2.1.2-.4-.1-.5.9-.3 1.6.4 2.9.3 4.3-.4 1.4-.6 1.2-1.2 1.7-2.7-.8-.2-.3-.2-.9-.4-.1-.1-.3-.1-.3-.1-2.3-.7-2.7.9-6-1.3-.8-.5-1.4-1-2.2-1.3l-.6-.4c.5-.5-.4-.1.4-.4.7-.2.6.2.9.4.6.4 3.4 1.5 4.1 1.7 1.4.4 2.9.4 4.3.4 1.8-.1 1.6-.2 3.3-1.3 0-1.1-.3-1.7-1.1-2.4-1.6-1.3-1.2-1.2-3.1-2.1-.4-.1-.1-.1-.6-.2l-1.7-.8c-.1 0-.1 0-.1-.1-.1 0-.2-.1-.3-.1-1.2-.6-5.3-2.3-5.9-3.1l-1.2-1.9c.4.1.3.1.4.1 2.2.9 4.5 3.2 6.4 4l4.6 1.7.4.1c.8.4 2 .6 2.9.7h1.4c.4 0 1-1 1.2-1.3.4-.9.6-2.8 1.4-3.6L280 61v-.1l-.3-1.1c-.4-.7-1.9-3-2.5-3.4-.3-.2-.4-.1-.6-.3l-1.3-.6c-1.9-.6-3.6-1.4-5.3-2.4-1.7-1.1-1.3-1.4-3.7-2l-1.9-.7c-.4-.1-1.1-.4-1.4-.5V49c4.6 0 4 1.2 6.3 2.4 1.9 1 1.8 1.6 5.7 3.2l2.7 1c1.5.5.8.8 3.5 1.4l.8-.8c0-1.1-1.4-1.7-2.2-2.4 0 0-.5-.1-1.7-2.3-.3-.4.1-.1-.4-.6l-1.7-1.6c.6-.3 1 .1 1.5.4l2.9 1.5c2 .9 2.3 1.2 3.9 2.8.7-.2.9-.1 1.2-.1l.5-.1h.1c.8-.4 1.1-1.3.3-1.8-.5-.4-.4-.1-.9-.6s-.9-.9-1.4-1.5c1.4.1 2.2 1.5 3.5 1.5 1.7 0 2-3.2 2.1-4.4.1-.6-.5-1.6-.8-2.1-.6-1.2-2.1-2.6-3.2-3.5-.5-.4-.6-.5-1-.9-1.1-1-1-.7-1.9-2.2 1.4 0 2.4 1.6 2.9 1.2v-1.2l2.4 4.2c1-.1.9-1 1.2-1.9.4.1.2 0 .5.3l.6 1.4c.4 1 .2 1.1 1 2.2 1.1 0 .4-2.3.4-3 1.7.8 1.1.6 2.4-.4 1.3-.9 1.5-.9.5-2.5-.6-.9-1.2-1.7-2.1-2.3-.7-.5-1-1-1.6-1.7-1.5-1.9-1.7-1.4-3.8-4.2-.3-.4-.7-.7-1.1-1-.6-.4-.7-.6-1.2-1.1l-2.1-2.3c-1.2-1.1-1.9-2.4-3.1-3.4-.4-.4-.6-1.1-.9-1.5l.4-.8c1 .6 1.7 1.4 2.4 2.4l2.2 2.7c.3.4.2.4.5.6 1.9 2.5 4.6 3.6 6.8 5.6.5.5.9.7 1.1 1.4.6 1.8 1.2 1.5 3 2 .4.1.6.2 1 .3 1.2.3 2.1-1.1 2.8-1.8l1.2-1.3-.6-.8-1.7.4c0-.4.1-.6.2-.8.1-.1.6-.3.8-.4l1.3-1c0-.9-.2-1.6-.4-2.4-.1-.5-.2-.6-.4-1-.7-1.7-.9-3.5-1.3-5.2.7.2.6.2.9.8.6 1.2 1.2 2.3 1.9 3.4l1.5-.2c.4 1.9-.4 1.4-.8 2.8-.2.7.1 1.2.9 1.3 1.3.2 2.4-.4 3.5-.9 0-1.5-.5-2.4-.2-3.2.6.1.8.6 1.2 1.2l1.2 1.3c.5-.4 2.7-2.6 2.9-2.9.2-.6-.3-1.7-.4-2.3.9.2.6.5 1 1.3l1.3 1.2c4.7-1.1 4.4-1.6 6.8-4.8l-.2-.9c2.2 1.5 1.4.9 3.8.6h.9c1.8-.2 2.5 2.3 4.2-.2.4-.6.7-.9 1.2-1.5l2.2-3.4v1.7c.9.7 1.2 1 2.8-1.4.2-.3.4-.7.5-1 .7-2.2-.6-3.7-.1-6.6l-.9-.9c-3 0-.6 4.1-1.4 5l-.4.3c-.5-1.2.2-2.7-.6-4.8l-1.7.4c-.3-.4-.4-.4-.6-.9-1.2-1.9-3 .8-4.5-1.4-.3-.4-.4-1-.6-1.4l-.1-.3c0-.1-.1-.1-.1-.1l-.4-.9c-.4-.8-.6-1.2-1.3-1.7l-.7.6c0 3.9 1.1 3.6-.8 5.2-.9-3.9.8-3-1.4-6.5h-.8c-.1.3-.4 1.4-.4 1.5l.3.5zM43.3 45.8c.1.6.1.7.3 1.2l6.6 17.4c0 .1 0 .1.1.1 0 .1.1.1.1.1s.1.2.1.3l2.1 5.5c.1.4.1.1.2.5l1.1 2.9c.1.4.2.6.4 1.1l2.6 6.8H28.8c.1-.6.2-.6.4-1.1L31 76c0-.1.1-.1.1-.1l.1-.1 3-7.6c.6-1.4 1.2-2.9 1.8-4.5l1.5-3.7c0-.1.1-.1.1-.1l4.8-12c.1-.4.3-.7.4-1.1.2-.6.2-.8.6-1.1l-.1.1zM.1 112v5c2.5.5 28.7.2 33.4.2v-5.3c-2.5 0-10.5.5-12.6-.7-.9-.5-1.2-1.1-1.3-2.1-.5-2.7 2.4-8.9 3.4-11.4l3.8-10.1h31.9c.1.7.2.8.4 1.4l3.1 8.4c.1.4.1.4.3.9l5.1 13.8H55.1v5.3h51.1V112h-9.4c-.3-1.2-.8-2.1-1.2-3.2L92 99.3c-.9-2.2-1.7-4.1-2.4-6.3-1.5-4.3-3.2-8.6-5-12.8-.9-2.2-1.6-4.2-2.5-6.4l-2.4-6.3c-2.2-5.5-4.1-11.2-6.5-16.6-.1-.4-.1-.5-.3-.9l-3.1-8c-.4-1.2-.9-2-1.2-3.2l-1.2-3.3-1.2-3.2c-.4-1-.9-2-1.2-3.2-.1-.4-.1-.4-.3-.7l-.7-1.6-.3-.9-1.2-3.2c-.1-.4-.1-.4-.3-.7L61 18.9l-.4-.8-1.4-3.6c-.6-1.4-1.2-3.2-1.7-4.6h-6.7c-.5 1-.9 2.3-1.4 3.4l-4.1 10.6c0 .1-.1.1-.1.1l-6.5 16.8c-2.2 5.5-4.3 11.5-6.6 17.2L28 68.8c0 .1 0 .1-.1.1 0 .1 0 .1-.1.1 0 .1-.1.1-.1.1-.1.4 0-.1-.1.4L21 87.3c-.1.3-.3.6-.4.8l-3 7.8c-1.3 3.7-3 8.4-4.9 11.7-.5.9-.9 1.6-1.6 2.2-.1.1-.6.9-2.1 1.4-2.6.8-6.3 0-9.1.6l.2.2zM336.9 8c0 .7 1.2 2.4 1.5 3-.9.9-1.2 1.9-1.7 3.5l.4.8c.9-.2 1.4-.8 1.7-1.5.9-1.8.4-1.1.8-2.4.6-2.2-1.1-3.2-2.2-4-.1.1-.5.5-.5.6zM33 174.1c0 5.4-2 9.4-6.1 12.1-4.1 2.7-9.6 4-16.4 4-.9 0-1.7 0-2.3-.1 0 5.1.2 11.4.6 18.6H1.9c.4-6.7.5-14.8.5-24.2 0-8.1-.2-15.4-.5-21.9h5c.6 0 2.1-.1 4.7-.1 2.6-.1 4.8-.1 6.6-.1 4.5 0 8.1 1 10.8 3.1 2.7 2.1 4 4.9 4 8.6zm-5.9 2.1c0-6-4.2-9.1-12.5-9.1-2 0-4.3.1-6.8.5.1 3.8.3 9.9.3 18 .8.1 1.8.1 3 .1 10.6 0 16-3.2 16-9.5zm58.4 32.6h-6.8c-2.2-6.8-3.9-11.2-5-13.5-1.3-2.7-2.8-4.5-4.5-5.3-1.3-.6-3.7-.9-7.1-.9-2 0-3.8 0-5.3.1 0 7.6.1 14.2.4 19.7h-6.6c.4-7.3.5-15.4.5-24.2 0-8.3-.2-15.6-.5-21.9h5c1.1 0 2.4-.1 4-.1 1.7-.1 3.5-.1 5.6-.1 10.3 0 15.5 3.5 15.5 10.7 0 5.9-2.9 10.1-8.7 12.5v.4c2.6.8 4.7 2.6 6.3 5.4 1.4 2.4 3.7 8.1 7.2 17.4v-.2zm-10.8-33.2c0-5.6-3.8-8.4-11.4-8.4-2.7 0-5 .1-6.8.4.1 4.1.3 9.7.3 16.7 1.4.1 2.7.1 4.1.1 9.2 0 13.8-3 13.8-8.8zm68.5 9.4c0 7.6-2.2 13.7-6.7 18.3-4.5 4.5-9.6 6.8-15.5 6.8-5.6 0-10.5-2.1-14.8-6.3s-6.3-9.9-6.3-17c0-7.7 2.2-13.8 6.7-18.4 4.5-4.5 9.6-6.8 15.5-6.8 5.6 0 10.5 2.1 14.8 6.3 4.2 4.3 6.3 10 6.3 17.1zm-6.3.8c0-6.1-1.6-10.8-4.8-14.1-3.2-3.3-6.9-5-11.1-5-3.9 0-7.3 1.7-10.3 5.3-3 3.5-4.5 8.2-4.5 14.1 0 6.1 1.6 10.8 4.8 14.2 3.2 3.3 6.9 5 11 5 3.9 0 7.3-1.8 10.3-5.3s4.5-8.3 4.5-14l.1-.2zm52.4-23.1l-.3 5.3c-6.3-.3-13.4-.4-21.3-.4.3 3.9.4 9.3.4 16.2 5.5 0 10.9-.1 16.2-.3v5.1c-5-.2-10.4-.3-16.2-.3 0 9.2.1 16.1.4 20.4h-6.4c.4-7.3.5-15.4.5-24.2 0-8.3-.1-15.6-.5-21.9l27.2.1zm45.6 40.8l-.2 5.3h-28.5c.4-7.3.5-15.4.5-24.2 0-8.3-.1-15.6-.5-21.9H233l-.3 5.3c-6.5-.3-13.4-.4-20.6-.4.1 3.7.2 8.6.2 14.8 6.3 0 11.9-.1 16.8-.4v5.3c-5.3-.2-10.8-.4-16.8-.4 0 6 .1 11.7.3 17.1 7.8-.1 15.2-.3 22.3-.5zm44.5-6.6c0 8.7-6 13.1-18.2 13.1-4.5 0-8.4-.5-11.8-1.5l1.2-5.5c4 1.4 7.7 2.1 11.3 2.1 8 0 12-2.3 12-6.8 0-2.3-1-4.2-3.1-5.9-1.4-1.1-4.1-2.5-8.2-4.4-4.3-1.9-7.3-3.7-9-5.3-2.4-2.2-3.6-5-3.6-8.4 0-3.5 1.2-6.3 3.7-8.6 2.7-2.4 6.6-3.7 11.5-3.7 5.6 0 9.4.4 11.5 1.1l-.9 5.6c-3.6-1.2-7.4-1.7-11.4-1.7-6 0-9.1 2-9.1 6.1 0 1.9.9 3.6 2.6 4.9 1.2.8 3.6 2.1 7.5 3.7 4.4 1.9 7.6 3.7 9.6 5.5 2.9 2.8 4.4 6 4.4 9.7zm45.6 0c0 8.7-6 13.1-18.2 13.1-4.5 0-8.4-.5-11.8-1.5l1.2-5.5c4 1.4 7.7 2.1 11.3 2.1 8 0 12-2.3 12-6.8 0-2.3-1-4.2-3.1-5.9-1.4-1.1-4.1-2.5-8.2-4.4-4.3-1.9-7.3-3.7-9-5.3-2.4-2.2-3.6-5-3.6-8.4 0-3.5 1.2-6.3 3.7-8.6 2.7-2.4 6.6-3.7 11.5-3.7 5.6 0 9.4.4 11.5 1.1l-.9 5.6c-3.6-1.2-7.4-1.7-11.4-1.7-6 0-9.1 2-9.1 6.1 0 1.9.9 3.6 2.6 4.9 1.2.8 3.6 2.1 7.5 3.7 4.4 1.9 7.6 3.7 9.6 5.5 3 2.8 4.4 6 4.4 9.7zm25.5 12h-6.7c.4-7.6.5-15.7.5-24.2 0-8.4-.2-15.6-.5-21.9h6.7c-.4 6.4-.5 13.8-.5 21.9 0 8.5.1 16.6.5 24.2zm62-23.8c0 7.6-2.2 13.7-6.7 18.3-4.5 4.5-9.6 6.8-15.5 6.8-5.6 0-10.5-2.1-14.8-6.3-4.2-4.2-6.3-9.9-6.3-17 0-7.7 2.2-13.8 6.7-18.4 4.5-4.5 9.6-6.8 15.5-6.8 5.6 0 10.5 2.1 14.8 6.3 4.3 4.3 6.3 10 6.3 17.1zm-6.2.8c0-6.1-1.6-10.8-4.8-14.1-3.2-3.3-6.9-5-11.1-5-3.9 0-7.3 1.7-10.3 5.3s-4.5 8.2-4.5 14.1c0 6.1 1.6 10.8 4.8 14.2 3.2 3.3 6.9 5 11 5 3.9 0 7.3-1.8 10.3-5.3s4.5-8.3 4.5-14l.1-.2zm60.6 22.9h-5c0-.4-3.9-6-11.6-16.9-8.1-11.4-12.7-18.6-13.8-21.7h-.4c.4 5.7.6 10.6.6 14.6 0 7.9.2 15.9.5 24h-6c.4-7.7.6-15.8.6-24.2 0-8.4-.2-15.6-.6-21.9h6.8c0 .6 3.5 6 10.7 16.1 7.4 10.6 11.7 17.6 12.7 20.7h.4c-.4-5.8-.6-10.7-.6-14.6 0-8.7-.1-16.1-.5-22.2h6c-.4 6.3-.6 13.5-.6 21.9.2 8.6.4 16.6.8 24.2zm59.5 0H519c0-1.6-1.5-6.6-4.5-14.9H494c-3 8.2-4.4 13.2-4.4 14.9h-7.1c0-.9 3-8.4 9.1-22.6 6.1-14.2 9.1-22 9.1-23.4h8.2c0 1.4 2.9 9.1 8.7 23.1s8.8 21.7 8.8 22.9zm-13.5-19.5c-5.5-13.8-8.3-21.2-8.3-22.1h-.4c0 .7-2.9 8.1-8.6 22.1h17.3zm57.3 14.3l-.2 5.2h-27.9c.3-5.8.4-13.9.4-24.2 0-8.9-.1-16.1-.4-21.9h6.6c-.3 4.8-.4 12-.4 21.9 0 8.1-.1 14.5-.4 19.4 7 0 14.5-.2 22.3-.4z"/></g></g></svg>