<svg id="Layer_1" data-name="Layer 1" xmlns="http://www.w3.org/2000/svg" viewBox="0 0 399.71 219.252"><path d="M100.268 105.473c-1.529 1.669-3.152 3.26-4.57 5.019a43.014 43.014 0 0 0-8.95 21.783c-1.254 9.359-.75 18.618 2.463 27.565 5.333 14.85 16.063 23.399 31.445 26.107a61.597 61.597 0 0 0 25.47-.915c3.654-.892 3.635-.97 3.635-4.695v-30.543H126.68v-11.738h37.48v1.278q0 26.038.026 52.076a1.54 1.54 0 0 1-1.252 1.756 105.211 105.211 0 0 1-36.518 5.758c-9.979-.27-19.621-2.062-28.542-6.79-12.313-6.525-20.265-16.66-24.23-29.904-4.711-15.741-4.343-31.34 2.233-46.534A51.678 51.678 0 0 1 98.735 90.64a1.607 1.607 0 0 0 .971-1.764c-1.04-18.967-2.242-37.927-2.241-56.934a1.85 1.85 0 0 0-.329-1.138 5.278 5.278 0 0 0-.376.791c-6.453 22.262-14.7 43.906-22.6 65.67-3.746 10.32-7.525 20.628-11.254 30.954-.3.832-.643 1.186-1.586 1.165-3.038-.07-6.079-.043-9.118-.013a1.04 1.04 0 0 1-1.21-.817c-8.563-25.676-17.22-51.32-25.68-77.031-2.131-6.476-3.636-13.157-5.432-19.743a2.163 2.163 0 0 0-.446-.877c-.913 33.08-3.379 66.062-5.365 99.11H0L7.949 16.145c.44-.023.79-.056 1.14-.056 5.56-.004 11.12.007 16.679-.015.68-.003 1.064.136 1.313.853 7.535 21.64 15.227 43.226 22.586 64.925 2.958 8.724 5.195 17.691 7.764 26.547.112.389.254.769.382 1.153l.296-.026a6.55 6.55 0 0 0 .331-.821c4.291-16.608 10.01-32.747 15.963-48.812q7.907-21.339 15.724-42.71a1.415 1.415 0 0 1 1.61-1.12c5.638.047 11.278.024 16.918.027.193 0 .387.036.704.067l4.276 68.509c16.026-3.423 31.706-2.908 47.187 3.018l-3.504 11.811c-4.033-1.145-7.88-2.542-11.849-3.306a63.02 63.02 0 0 0-29.681.964c-1.155.331-1.367.838-1.294 1.917q.966 14.362 1.843 28.73c.045.71.006 1.424.006 2.207h-14.278l-1.41-24.326zM276.48 76.035c-.346.019-.576.041-.807.042-2.917.002-5.833.001-9.028.001V21.425h8.353l.477 8.619.26.12c.25-.362.51-.718.745-1.09a18.807 18.807 0 0 1 21.26-8.215 15.772 15.772 0 0 1 10.175 8.992c.152.325.29.656.444.98a1.426 1.426 0 0 0 .217.24c.248-.377.49-.731.719-1.095 5.439-8.664 14.3-11.333 22.287-9.086 6.461 1.817 9.993 6.545 11.858 12.73a35.622 35.622 0 0 1 1.315 10.312q.023 15.538.004 31.076c0 .314-.04.627-.065 1.004h-9.653v-1.37l.001-29.396a28.106 28.106 0 0 0-1.205-8.871c-1.29-3.923-3.606-6.88-7.846-7.791a11.546 11.546 0 0 0-11.595 3.804 14.811 14.811 0 0 0-3.723 10.467c.028 10.559.01 21.118.01 31.676v1.482h-9.722V74.64c0-10.398.066-20.798-.049-31.195a25.918 25.918 0 0 0-1.077-7.304c-2.915-9.396-12.958-9.675-18.262-4.64a15.518 15.518 0 0 0-5.087 11.627q-.025 15.658-.005 31.316zm55.485 89.84c-.004 6.085-.875 11.13-3.328 15.794-4.277 8.135-11.202 12.453-20.163 13.682a26.428 26.428 0 0 1-15.196-2.249 24.237 24.237 0 0 1-13.123-15.406 34.328 34.328 0 0 1 .333-21.68 25.431 25.431 0 0 1 24.05-17.519c8.727-.203 16.189 2.526 21.706 9.574a28.97 28.97 0 0 1 5.721 17.804zm-43.29 1.374a24.056 24.056 0 0 0 4.145 14.186c2.942 4.16 6.93 6.615 12.1 6.69 6.256.091 10.863-2.989 13.69-8.33 4.679-8.842 4.381-17.806-.418-26.564a13.863 13.863 0 0 0-6.292-5.89 15.328 15.328 0 0 0-19.964 6.492 26.548 26.548 0 0 0-3.261 13.416z"/><path d="M172.424 76.023h-8.707l-.85-7.044c-.423.476-.678.747-.915 1.033a21.022 21.022 0 0 1-22.536 6.215 15.21 15.21 0 0 1-10.165-14.888c.157-7.12 3.536-12.191 9.7-15.524a37.92 37.92 0 0 1 14.44-4.037c2.814-.285 5.647-.388 8.473-.574.722-7.675-3.05-13.107-10.419-13.617a26.481 26.481 0 0 0-15.183 3.507c-.237.135-.485.251-.819.422l-2.224-6.427a5.343 5.343 0 0 1 .646-.495 33.183 33.183 0 0 1 24.2-3.592c7.418 1.715 11.5 6.848 13.001 14.104a38.8 38.8 0 0 1 .741 7.254c.098 6.636-.037 13.275.058 19.91.065 4.549.361 9.093.559 13.753zm-10.24-27.894c-2.656.134-5.176.166-7.675.41a24.629 24.629 0 0 0-9.843 2.753 10.062 10.062 0 0 0-5.376 7.626c-.742 4.981 1.649 9.232 6.002 10.555 7.45 2.265 15.991-3.115 16.83-10.844a99.622 99.622 0 0 0 .062-10.5zm61.058 91.551c3.503 0 6.822-.032 10.138.045.36.008.878.576 1.034.993 3.403 9.084 6.82 18.164 10.112 27.289 1.72 4.766 3.206 9.616 4.798 14.428.059.178.123.355.205.59l14.444-43.283h10.447a3.457 3.457 0 0 1-.119.626c-6.46 16.72-12.882 33.454-19.42 50.143a77.748 77.748 0 0 1-7.952 15.414c-4.039 5.947-9.218 10.479-16.143 12.79-.631.21-1.29.34-2.047.537l-2.474-8.284c.342-.156.615-.295.898-.407 7.983-3.124 13.294-8.898 16.603-16.682.584-1.373.114-2.59-.37-3.812q-3.157-7.96-6.357-15.904-6.67-16.617-13.345-33.231c-.146-.364-.267-.738-.452-1.253zm-17.825-85.395c-3.305 5.246-6.559 10.419-9.822 15.585q-1.729 2.736-3.504 5.443c-.2.302-.541.723-.823.727-3.46.05-6.92.033-10.557.033.339-.526.559-.89.802-1.24q8.929-12.851 17.88-25.687a1.45 1.45 0 0 0 .012-1.975q-8.458-12.156-16.849-24.358c-.288-.418-.56-.845-.963-1.454 2.925 0 5.673.152 8.395-.05a3.984 3.984 0 0 1 4.17 2.259c3.712 6.018 7.605 11.925 11.431 17.873.127.197.275.38.495.68.23-.311.42-.54.578-.79q6.102-9.613 12.22-19.216a1.721 1.721 0 0 1 1.193-.723c3.237-.06 6.476-.033 10.009-.033l-18.607 26.457c6.37 9.392 12.694 18.712 19.173 28.263h-2.403c-2.6 0-5.2-.035-7.798.02a1.75 1.75 0 0 1-1.724-.945q-6.465-10.236-12.99-20.434c-.083-.13-.183-.252-.318-.435zm131.589 85.395c3.375 0 6.613.032 9.85-.022.896-.015.924.605 1.107 1.13 2.58 7.388 5.198 14.763 7.706 22.175 2.354 6.955 4.59 13.951 6.88 20.929.05.149.118.292.25.614a6.527 6.527 0 0 0 .398-.768q5.908-17.344 11.808-34.691c.952-2.797 1.95-5.578 2.873-8.384.232-.705.516-1.02 1.32-1.005 3.078.052 6.156.02 9.358.02-.13.41-.217.74-.34 1.057q-10.304 26.323-20.599 52.65c-.282.722-.59 1.064-1.445 1.04-2.518-.073-5.04-.047-7.56-.012a1.078 1.078 0 0 1-1.228-.8q-10.06-26.609-20.157-53.203c-.07-.182-.114-.374-.221-.73zm-123.242 54.66h-9.816v-80.05h9.816zm26.667-172.952h9.802v54.604h-9.802zm-62.859 118.345h9.806v54.604h-9.806zM251.32 6.22c.031 3.621-2.46 6.044-6.23 6.057a5.875 5.875 0 0 1-6.048-6.038A6.05 6.05 0 0 1 245.212 0c3.606-.019 6.075 2.495 6.108 6.22zm-62.88 118.309c.035 3.625-2.451 6.051-6.218 6.068a5.875 5.875 0 0 1-6.06-6.027 6.05 6.05 0 0 1 6.158-6.25c3.609-.023 6.083 2.487 6.12 6.209zm80.561 81.188h2.073v11.418H256.87v-11.36h1.95v9.695h4.107v-9.73h2.023v9.72H269zM153.36 221.936h-2.028a3.583 3.583 0 0 1-.08-.51c-.003-5.191-.003-10.383-.003-15.66h1.78l.152 1.686c.244-.21.442-.355.612-.53a4.71 4.71 0 0 1 7.623 1.012 6.954 6.954 0 0 1-.11 6.997c-1.666 2.926-5.215 3.347-7.945.818v6.187zm-.235-10.4l.236.073c0 .24-.003.478 0 .717a3.291 3.291 0 0 0 6.473.995 5.578 5.578 0 0 0-.319-4.52 3.123 3.123 0 0 0-5.425-.247 12.531 12.531 0 0 0-.965 2.981zm235.855-5.728l-4.31 4.98c2.693 1.289 3.006 1.736 4.425 6.26-1.887.386-1.947.35-2.605-1.355a14.48 14.48 0 0 0-.83-1.983 2.927 2.927 0 0 0-3.215-1.489v4.893h-2.05v-4.88c-1.84-.127-2.771.383-3.485 1.876-.24.503-.419 1.036-.625 1.556-.657 1.652-.656 1.652-2.699 1.435 1.238-2.309 1.204-5.411 4.665-6.205l-4.423-5.105c1.333-.206 2.39-.33 3.172.976a34.248 34.248 0 0 0 2.375 3.162 1.932 1.932 0 0 0 .971.74v-4.907h2.096v4.88l.285.116c.433-.531.873-1.057 1.297-1.596a15.91 15.91 0 0 0 1.514-2.008 2.66 2.66 0 0 1 3.442-1.346zm-265.323 5.209a10.753 10.753 0 0 1 1.477.739 2.842 2.842 0 0 1-.774 4.941c-2.354 1.032-4.832.826-7.39.527v-11.316c2.013 0 3.991-.06 5.963.034a3.808 3.808 0 0 1 1.858.732 2.205 2.205 0 0 1 .003 3.664 12.2 12.2 0 0 1-1.137.679zm-4.725.752v4.375a23.057 23.057 0 0 0 3.93-.627 2.133 2.133 0 0 0 1.124-1.677 2.168 2.168 0 0 0-1.243-1.602 21.75 21.75 0 0 0-3.81-.47zm-.038-1.134a26.344 26.344 0 0 0 3.715-.59 1.809 1.809 0 0 0 .949-1.398 1.637 1.637 0 0 0-1.023-1.206 28.365 28.365 0 0 0-3.64-.37zm209.001 6.78V205.97a15.271 15.271 0 0 1 6.766.153c1.8.57 2.597 2.112 1.727 3.46a8.748 8.748 0 0 1-1.658 1.514c.227.09.541.196.838.34a2.741 2.741 0 0 1 .366 4.848 10.65 10.65 0 0 1-3.844 1.089 32.472 32.472 0 0 1-4.195.04zm2.002-5.641v4.376a23.1 23.1 0 0 0 3.936-.639 2.13 2.13 0 0 0 1.112-1.684 2.173 2.173 0 0 0-1.254-1.592 21.648 21.648 0 0 0-3.794-.461zm-.012-4.728v3.585a25.978 25.978 0 0 0 3.685-.587 1.809 1.809 0 0 0 .948-1.397 1.644 1.644 0 0 0-1.024-1.206 27.6 27.6 0 0 0-3.61-.395zm10.017 10.032v-11.309h1.81v9.251c.345-.545.522-.812.686-1.087 1.511-2.54 3.01-5.089 4.536-7.62.476-.79.565-.782 2.764-.533v11.357h-1.873v-9.278c-1.383 2.33-2.634 4.442-3.887 6.552a8.561 8.561 0 0 0-.727 1.24c-.607 1.591-1.783 1.823-3.309 1.427zm-134.449.03v-4.533c-2.702-.574-3.908.06-4.838 2.48-.057.149-.117.297-.174.446-.698 1.83-.698 1.83-2.93 1.602 1.252-1.76 1.123-4.289 3.54-5.31-.212-.102-.34-.177-.478-.23-1.655-.644-2.406-1.593-2.327-2.948a3.07 3.07 0 0 1 2.562-2.802 16.337 16.337 0 0 1 6.689-.103v11.398zm-.11-6.029v-4.276c-1.213.104-2.328.12-3.41.317-.886.162-1.667.793-1.466 1.73a2.622 2.622 0 0 0 1.351 1.714 17.031 17.031 0 0 0 3.524.515zm91.057.335c-.04 3.55-2.448 6.058-5.782 6.02-3.274-.036-5.525-2.485-5.497-5.978.03-3.573 2.417-6.06 5.77-6.013 3.289.047 5.548 2.496 5.51 5.97zm-9.162.102c.015 2.502 1.5 4.361 3.488 4.37 1.911.008 3.443-1.844 3.513-4.25.079-2.658-1.371-4.613-3.443-4.643-2.116-.03-3.574 1.823-3.558 4.523zm-138.678-.052c-.063 3.543-2.503 6.041-5.833 5.97-3.274-.069-5.495-2.528-5.446-6.029.051-3.565 2.468-6.041 5.82-5.961 3.285.078 5.521 2.544 5.46 6.02zm-9.162.023c.007 2.507 1.468 4.365 3.459 4.398 1.95.032 3.504-1.872 3.543-4.34.042-2.604-1.38-4.499-3.415-4.551-2.117-.055-3.594 1.796-3.587 4.493zm-27.897-2.032c-.1-2.476-1.858-3.087-5.705-1.768l-.52-1.21a6.825 6.825 0 0 1 6.255-.531c1.684.753 2.072 2.325 2.088 4.003.022 2.355.005 4.71.005 7.158h-1.676l-.18-1.063a18.202 18.202 0 0 1-2.762 1.254 3.493 3.493 0 0 1-2.434-6.543 34.607 34.607 0 0 1 4.93-1.3zm.099 1.48a30.66 30.66 0 0 0-3.934 1.028 1.973 1.973 0 0 0-1.048 2.434 1.852 1.852 0 0 0 1.809 1.479 2.917 2.917 0 0 0 3.168-2.725c.03-.593.005-1.189.005-2.216zm83.816 6.217h-1.628l-.176-1.105a18.383 18.383 0 0 1-2.78 1.255 3.494 3.494 0 0 1-2.407-6.554 33.897 33.897 0 0 1 4.866-1.275c.191-2.385-1.753-3.093-5.66-1.793l-.508-1.2a6.974 6.974 0 0 1 6.045-.63 3.46 3.46 0 0 1 2.229 3.397c.07 2.592.02 5.187.02 7.905zm-1.979-6.224a32.09 32.09 0 0 0-3.88 1.002 1.988 1.988 0 0 0-1.112 2.409 1.818 1.818 0 0 0 1.645 1.51 2.933 2.933 0 0 0 3.337-2.52c.059-.663.01-1.337.01-2.4zm126.108 6.219h-1.684l-.175-1.108a17.973 17.973 0 0 1-2.675 1.238 3.509 3.509 0 0 1-2.387-6.598 33.866 33.866 0 0 1 4.757-1.189c.133-2.424-1.706-3.087-5.574-1.852-.737-1.18-.726-1.289.542-1.704a9.586 9.586 0 0 1 2.218-.47c3.2-.248 4.906 1.317 4.973 4.518.026 1.198.005 2.398.005 3.597v3.568zm-2.037-6.19a31.159 31.159 0 0 0-3.88.98 1.981 1.981 0 0 0-1.1 2.411 1.82 1.82 0 0 0 1.651 1.502 2.933 2.933 0 0 0 3.315-2.411 24.456 24.456 0 0 0 .014-2.483zM364 207.676c-.127-.312-.238-.566-.329-.827a2.3 2.3 0 0 1-.049-.431 6.945 6.945 0 0 1 5.966-.56 3.473 3.473 0 0 1 2.212 3.411c.069 2.59.019 5.182.019 7.852h-1.642l-.171-1.082a17.967 17.967 0 0 1-2.68 1.24 3.509 3.509 0 0 1-2.379-6.602 33.892 33.892 0 0 1 4.756-1.186c.12-2.43-1.695-3.082-5.704-1.815zm5.837 3.253a32.118 32.118 0 0 0-3.88 1 1.988 1.988 0 0 0-1.112 2.408 1.818 1.818 0 0 0 1.643 1.51 2.933 2.933 0 0 0 3.34-2.516c.058-.664.01-1.338.01-2.402zm21.989-3.292l-.446-1.168a6.78 6.78 0 0 1 6.225-.526c1.687.75 2.077 2.321 2.093 4 .023 2.355.006 4.71.006 7.16h-1.67l-.19-1.06a18.106 18.106 0 0 1-2.751 1.254 3.475 3.475 0 0 1-4.294-1.919 3.594 3.594 0 0 1 1.838-4.646 9.662 9.662 0 0 1 2.38-.747c.813-.171 1.655-.207 2.48-.302.277-2.54-1.34-3.13-5.67-2.046zm5.854 3.308a30.975 30.975 0 0 0-3.91 1.002 1.977 1.977 0 0 0-1.078 2.422 1.846 1.846 0 0 0 1.787 1.503 2.918 2.918 0 0 0 3.195-2.693c.033-.595.006-1.193.006-2.234zm-91.88-3.55h-4.118c0 1.613.056 3.198-.021 4.776a11.424 11.424 0 0 1-.482 2.815 3.36 3.36 0 0 1-3.52 2.39l-.23-1.49c2.08-.585 2.273-2.31 2.315-4.07.047-1.99.01-3.984.01-6.056h8.026v11.358h-1.98zm-120.752 9.719c-2.585.15-2.047.416-3.058-1.913-1.022-2.355-2.166-3.187-4.36-2.93v4.836h-2.08v-11.334h2.01v5.172a6.945 6.945 0 0 0 .925-.685 33.13 33.13 0 0 0 2.802-3.269c.914-1.344 2.071-1.515 3.878-1.135l-5.263 4.628.17.382c3.374.775 3.733 3.806 4.976 6.248zm93.872-6.237c3.412.765 3.75 3.802 4.997 6.199-2.164.31-2.164.31-3.045-1.84-.98-2.39-2.097-3.178-4.382-2.992v4.896h-2.05v-11.4h2.015v5.201a7.93 7.93 0 0 0 .967-.747 29.865 29.865 0 0 0 2.722-3.18c.907-1.36 2.079-1.526 3.658-1.232l-4.883 5.095zm75.527 1.075l-.193-1.34c.84-.116 1.627-.163 2.384-.342.915-.216 1.698-.734 1.601-1.787a1.662 1.662 0 0 0-1.904-1.452 25.48 25.48 0 0 0-3.184.467l-.41-.843a6.104 6.104 0 0 1 6.343-.587 2.528 2.528 0 0 1 .054 4.491c-.263.168-.545.308-.865.486 2.113.774 2.869 1.64 2.78 3.14a2.874 2.874 0 0 1-1.826 2.597 7.983 7.983 0 0 1-6.881-.248l.513-1.325c.588.18 1.103.382 1.636.49a7.225 7.225 0 0 0 1.661.175c1.56-.053 2.584-.823 2.64-1.913.056-1.1-.843-1.836-2.518-2-.586-.057-1.183-.01-1.831-.01zm-181.562 3.321l.32 1.392a6.473 6.473 0 0 1-7.752-1.156 6.661 6.661 0 0 1 .02-7.914 6.506 6.506 0 0 1 7.773-1.468l-.41 1.42c-2.203-.622-4.38-.896-5.822 1.292a4.498 4.498 0 0 0-.011 5.2c1.465 2.19 3.625 1.929 5.882 1.234zm-36.378-9.526v1.581h-3.502v9.798h-2.132v-9.74h-3.539v-1.639z"/></svg>