<svg id="_Слой_" data-name="&lt;Слой&gt;" xmlns="http://www.w3.org/2000/svg" viewBox="0 0 488.87 187.78"><defs><style>.cls-1,.cls-2{fill:#3b8bc6}.cls-2{fill-rule:evenodd}</style></defs><path class="cls-1" d="M373.36 52.7h8.05v89.51h-8.05V52.7z"/><path class="cls-2" d="M471.5 34.2a5.05 5.05 0 1 0-5.06 5.06 5.07 5.07 0 0 0 5.06-5.06zm1.29 0a6.35 6.35 0 1 1-6.35-6.37 6.37 6.37 0 0 1 6.35 6.37z"/><path class="cls-2" d="M463.72 37.93v-7.52h3.33a4.47 4.47 0 0 1 1.53.2 1.67 1.67 0 0 1 .83.72 2.13 2.13 0 0 1 .31 1.13 1.91 1.91 0 0 1-.51 1.35 2.63 2.63 0 0 1-1.6.7 2.48 2.48 0 0 1 .6.37 5.16 5.16 0 0 1 .83 1l1.3 2h-1.24l-1-1.56c-.29-.45-.53-.8-.72-1a2.21 2.21 0 0 0-.51-.5 1.46 1.46 0 0 0-.45-.2 3 3 0 0 0-.55 0h-1.15v3.34zm1-4.2h2.14a3.21 3.21 0 0 0 1.06-.14 1.12 1.12 0 0 0 .58-.45 1.21 1.21 0 0 0 .2-.67 1.13 1.13 0 0 0-.38-.88 1.82 1.82 0 0 0-1.22-.34h-2.38v2.49z"/><path class="cls-2" d="M463.72 37.93v-7.52h3.33a4.47 4.47 0 0 1 1.53.2 1.67 1.67 0 0 1 .83.72 2.13 2.13 0 0 1 .31 1.13 1.91 1.91 0 0 1-.51 1.35 2.63 2.63 0 0 1-1.6.7 2.48 2.48 0 0 1 .6.37 5.16 5.16 0 0 1 .83 1l1.3 2h-1.24l-1-1.56c-.29-.45-.53-.8-.72-1a2.21 2.21 0 0 0-.51-.5 1.46 1.46 0 0 0-.45-.2 3 3 0 0 0-.55 0h-1.15v3.34zm1-4.2h2.14a3.21 3.21 0 0 0 1.06-.14 1.12 1.12 0 0 0 .58-.45 1.21 1.21 0 0 0 .2-.67 1.13 1.13 0 0 0-.38-.88 1.82 1.82 0 0 0-1.22-.34h-2.38v2.49z"/><path class="cls-1" d="M62.14 50.15l8.32-1.62v95.83h-.27L8.59 70.01h-.27v72.2L0 143.29V48h.27l61.6 73.95h.27v-71.8zm92.34 58.38c0 18.12-14.63 35.3-34.49 35.3s-34.49-17.18-34.49-35.3 14.63-35.3 34.49-35.3 34.49 17.18 34.49 35.3zm-61.2 0c0 14.36 11.54 27.51 26.7 27.51s26.71-13.15 26.71-27.51S135.15 81 120 81s-26.7 13.15-26.7 27.51zM175 73.23v44.7c0 12.08 4.83 18.92 16.37 18.92 12.62 0 20.67-4.56 20.67-31.68V74.84l7.79-1.61v69l-7.83 1.06v-11.14h-.27c-2.68 6-10.73 11.68-21.07 11.68-17 0-23.49-9.66-23.49-25v-44l7.83-1.6zm84.57 51.81l24.29-51.81 8.32 1.61-32.48 68.98h-.27l-32.47-68.98 7.51-1.61 25.1 51.81zm91.91 15.83a72.74 72.74 0 0 1-21.07 2.82c-20 0-32.74-13-32.74-34.62 0-28.19 19.19-34.63 32.74-34.63 8.05 0 26.44 4 26.44 31.27h-51.13v3.36c0 14.76 6.44 28.72 24.69 28.72 13.29 0 15.84-1.75 22.28-4l-1.21 7.11zm-2.68-40.4c0-13.42-7.65-20.8-19.19-20.8-13.16 0-21.74 8.05-23.49 20.8zm54.74-47.77h8.05v89.51h-8.05V52.7zm79.96 88.17a72.75 72.75 0 0 1-21.07 2.82c-20 0-32.75-13-32.75-34.62 0-28.19 19.19-34.63 32.75-34.63 8.05 0 26.44 4 26.44 31.27h-51.13v3.36c0 14.76 6.44 28.72 24.7 28.72 13.29 0 15.84-1.75 22.28-4l-1.21 7.11zm-2.68-40.4c0-13.42-7.65-20.8-19.19-20.8-13.15 0-21.74 8.05-23.49 20.8zM448.79 8.74C427.52-.16 398-.8 368.11 8.89c-30.1 9.76-53.75 27.81-65.66 47.67l1.16-.1c15.68-17 42.5-29.93 73.95-33.4 31.22-3.45 60 3.16 79 16.18l-7.8-30.5zM17.15 179.33c0 .41-.07.52-.52.52h-3.7c-.45 0-.52-.11-.52-.52V167.8c0-1.42-.19-3.14-2.1-3.14A5.12 5.12 0 0 0 7 166.2v13.13c0 .41-.08.52-.52.52h-3.7c-.45 0-.52-.11-.52-.52V168c0-5.27-.71-5-.71-5.84 0-.19.15-.34.41-.41l2.84-.94a1.81 1.81 0 0 1 .56-.11c.49 0 .79.82 1.2 2.58a8.07 8.07 0 0 1 5.72-2.58c2.06 0 4.86.94 4.86 5.46zm37.78-1.46a.76.76 0 0 1 .11.41c0 1-3.74 2.21-6.7 2.21-4.94 0-8.38-2.81-8.38-9.69 0-5.95 3.18-10.06 8.19-10.06 6.36 0 7.48 5.69 7.48 10.21 0 .71-.15.93-.86.93H44.72c0 2.1.6 4.68 4.12 4.68 2.69 0 4.23-1.23 4.75-1.23a.49.49 0 0 1 .41.3zm-4.34-9.46c0-1.53-.11-4.19-2.69-4.19-2.92 0-3.07 3.14-3.18 4.19zm31.54 1.45a63.27 63.27 0 0 1 .82 6.32H83a43.65 43.65 0 0 1 .71-5.84l1.75-8.34c.11-.56.15-.6.71-.6h3.33c.56 0 .6 0 .71.6l1.65 8.38a44.44 44.44 0 0 1 .71 5.84h.07a51.27 51.27 0 0 1 .82-6.32l1.8-8.08c.07-.37.22-.75.52-.75h.6l2.54.34c.56.07.82.11.82.38a5.23 5.23 0 0 1-.19.71l-5.2 17.17c-.15.49-.22.52-.71.52h-2.9c-.49 0-.6-.22-.67-.6l-1.83-9.5c-.22-1.2-.41-3.14-.49-4.19h-.08a30.33 30.33 0 0 1-.67 4.19l-2.24 9.5c-.07.38-.19.6-.67.6h-2.93c-.49 0-.56 0-.71-.52L76 162.49c-.07-.26-.15-.53-.19-.71s.26-.3.82-.37l2.81-.34h.64c.26 0 .41.38.49.75zm82.87 2.73c0 2.47.19 6.32.19 8.42 0 4.08-2 6.77-7.22 6.77-2.92 0-7.74-1.2-7.74-2a2 2 0 0 1 .15-.75l.71-2.28c.07-.26.22-.37.41-.37.45 0 2.73 1.46 6.06 1.46 2.62 0 3.07-1.08 3.07-3.18 0-1.31-.11-2.21-.11-2.47a7.48 7.48 0 0 1-4.53 1.42c-4.19 0-6.4-3.52-6.4-9.13 0-6 2.62-9.77 7.07-9.77a5.9 5.9 0 0 1 4.45 1.76c.11-.34.79-1.76 1.31-1.76a1.28 1.28 0 0 1 .37.08l2.92 1.08c.15.07.34.19.34.34 0 .49-1 1.83-1 4.79zm-4.49-6.81a4.23 4.23 0 0 0-3-1.12c-2.25 0-3.22 2.1-3.22 5.69 0 3.4.75 5.54 3 5.54a4.27 4.27 0 0 0 3.18-1.27zm41.86 12.09a.75.75 0 0 1 .11.41c0 1-3.74 2.21-6.7 2.21-4.94 0-8.38-2.81-8.38-9.69 0-5.95 3.18-10.06 8.19-10.06 6.36 0 7.48 5.69 7.48 10.21 0 .71-.15.93-.86.93h-10.05c0 2.1.6 4.68 4.12 4.68 2.69 0 4.23-1.23 4.75-1.23a.49.49 0 0 1 .41.3zM198 168.4c0-1.53-.11-4.19-2.69-4.19-2.92 0-3.07 3.14-3.18 4.19zm42.72 10.93c0 .41-.07.52-.52.52h-3.7c-.45 0-.52-.11-.52-.52V167.8c0-1.42-.19-3.14-2.09-3.14a5.12 5.12 0 0 0-3.29 1.54v13.13c0 .41-.07.52-.52.52h-3.7c-.45 0-.52-.11-.52-.52V168c0-5.27-.71-5-.71-5.84 0-.19.15-.34.41-.41l2.84-.94a1.81 1.81 0 0 1 .56-.11c.49 0 .79.82 1.2 2.58a8.07 8.07 0 0 1 5.72-2.58c2.06 0 4.86.94 4.86 5.46zm37.79-1.46a.75.75 0 0 1 .11.41c0 1-3.74 2.21-6.7 2.21-4.94 0-8.38-2.81-8.38-9.69 0-5.95 3.18-10.06 8.19-10.06 6.36 0 7.48 5.69 7.48 10.21 0 .71-.15.93-.86.93h-10.06c0 2.1.6 4.68 4.12 4.68 2.69 0 4.23-1.23 4.75-1.23a.5.5 0 0 1 .41.3zm-4.34-9.46c0-1.53-.11-4.19-2.69-4.19-2.92 0-3.07 3.14-3.18 4.19zm32.58 10.92c0 .41-.08.52-.52.52h-3.7c-.45 0-.52-.11-.52-.52V168c0-4.12-1-4.79-1-5.65 0-.15.15-.26.34-.34l2.84-1.16a2.46 2.46 0 0 1 .49-.15c.45 0 1.2 1.68 1.38 3 .71-.86 2.09-3 4.64-3 1.09 0 2.17.38 2.17.86a.94.94 0 0 1-.07.37l-1.16 3.14c0 .11-.15.34-.3.34a7 7 0 0 0-1.76-.41c-1.16 0-2.36 1.27-2.84 1.79zm37.15 1.01a2.32 2.32 0 0 1-.49.15c-.34 0-.9-1.31-1.09-2.24a6.23 6.23 0 0 1-4.86 2.24c-3.44 0-5.61-2.24-5.61-5.76 0-6.32 6.81-6.32 9.76-6.32v-1.16c0-1.68-.3-2.77-2.66-2.77-2.09 0-4.15 1.12-4.64 1.12-.19 0-.34-.22-.37-.37l-.75-2.28a1 1 0 0 1-.11-.45c0-.86 3.7-1.76 6.58-1.76 4.68 0 6.44 2.13 6.44 6V174c0 3.63 1 4.12 1 4.86 0 .15-.15.26-.34.34zm-2.28-8.87c-.93 0-5.27-.3-5.27 3a2.44 2.44 0 0 0 2.47 2.54 4.07 4.07 0 0 0 2.81-1.42zm39.28 7.3c0 .19.07.19.07.3 0 .71-2.73 1.42-5.28 1.42-4.83 0-4.83-3.78-4.83-7.22v-8.42h-2.66c-.45 0-.52-.11-.52-.52v-2.43c0-.41.08-.52.52-.52h2.66v-4.71c0-.49.08-.6.6-.67l3.29-.45h.49c.23 0 .37.19.37.64v5.24h4.26c.34 0 .64 0 .64.41a1.06 1.06 0 0 1 0 .3l-.49 2.21c-.11.52-.22.56-.67.56h-3.7v9.05c0 1.2 0 2.28 1.27 2.28 1.5 0 2.43-.71 3-.71a.29.29 0 0 1 .3.22zm27.58.56c0 .41-.08.52-.52.52h-3.7c-.45 0-.52-.11-.52-.52v-14.48h-2.88c-.45 0-.52-.11-.52-.52v-2.43c0-.41.08-.52.52-.52H408c.45 0 .52.11.52.52zm-2.39-20.39a3.1 3.1 0 0 1-3.11-3.11 3.09 3.09 0 1 1 3.11 3.11zm33.77 21.55c-5.05 0-8.12-3.85-8.12-9.88s3.07-9.88 8.12-9.88 8.12 3.85 8.12 9.88-3.06 9.88-8.12 9.88zm3.07-9.88c0-3.48-.49-6.13-3.07-6.13s-3.07 2.66-3.07 6.13.45 6.14 3.07 6.14 3.07-2.62 3.07-6.14zm42.8 8.72c0 .41-.08.52-.52.52h-3.7c-.45 0-.52-.11-.52-.52V167.8c0-1.42-.19-3.14-2.1-3.14a5.12 5.12 0 0 0-3.29 1.54v13.13c0 .41-.08.52-.52.52h-3.7c-.45 0-.52-.11-.52-.52V168c0-5.27-.71-5-.71-5.84 0-.19.15-.34.41-.41l2.84-.94a1.8 1.8 0 0 1 .56-.11c.49 0 .79.82 1.2 2.58a8.07 8.07 0 0 1 5.72-2.58c2.06 0 4.86.94 4.86 5.46z"/></svg>