<svg id="Слой_1" xmlns="http://www.w3.org/2000/svg" viewBox="0 0 338.8 120.4"><style>.st0{fill:#606062}</style><path class="st0" d="M49.2 53c-.7 2.8-1.2 4.8-1.5 6.1-1.4 5-3.6 8.9-6.6 11.9-4.5 4.6-10.2 6.8-17.1 6.8-6.6 0-12.2-2.4-16.8-7.3C2.4 65.3 0 59.1 0 52s2.4-13 7.1-17.6c3.6-3.5 8.4-5.9 14.2-7.1 4.5-4.5 10.2-6.8 17.3-6.8 7.2 0 13.5 2.6 19 7.8 2.2-1.4 4.5-2.2 6.6-2.2.7 0 1.5.1 2.4.3l-.2 1c-.9-.1-1.6-.3-2.1-.3-2.1 0-4.1.7-5.9 2.1 1.6 1.9 2.7 3.5 3.4 4.9 1.3 2.6 2 5.4 2 8.4 0 3.3-.8 6.2-2.4 8.7-2.1 3.2-4.7 4.9-7.7 4.9-2 0-3.5-1.1-4.2-3.2l-.3.1zm8-23c-1.5 1.6-2.9 3.9-4 6.8-.7 2.2-1.5 4.8-2.4 8.1 1.3-1.3 2.7-2.1 4.4-2.4l.1.9c-3.7 1.2-5.6 3.5-5.6 6.9 0 1.4.4 2.6 1.2 3.5.5.6 1.2.9 1.9.9 1.8 0 3.4-1.6 4.8-4.7 1.5-3.6 2.3-7 2.3-10.3 0-3.5-.9-6.8-2.7-9.7zm-.7-1c-4.7-5-10.8-7.5-18.3-7.5-6 0-11.2 1.9-15.3 5.7.9-.1 1.4-.1 1.9-.1 2.6 0 5.2.6 7.8 1.9 6 2.8 9.4 7.7 10.1 14.8 1.6-2.5 2.4-5.4 2.4-8.5 0-1.6-.2-3.3-.7-5.2l.9-.1c.5 1.7.8 3.5.8 5.1 0 3.1-.6 5.8-1.7 8-.4.6-.9 1.5-1.6 2.6 0 3-.6 5.8-1.7 8.4-1.4 3.1-3.1 5.5-5.3 7.3-2.8 2.2-6 3.2-9.8 3.2-4.2 0-7.6-1.5-10.2-4.4-2.2-2.5-3.4-5.5-3.4-8.9 0-1.4.2-2.7.7-4.2l.9.3c-.4 1.5-.6 2.9-.6 4.1 0 3 1 5.6 3 8 2.4 2.7 5.3 4 8.9 4 3.5 0 6.8-1.4 9.9-4.2 3.5-3.1 5.5-7.1 6.2-12-3.4 3.4-7.1 5-11.2 5-3.7 0-7-1.4-9.6-4s-4-6-4-9.8c0-3.3 1.2-6.5 3.5-9.6-2.3.6-4.1 1.4-5.5 2.1-1.4.7-3 1.8-4.5 3.2C4.3 39.3 1.4 45.6 1.4 53s2.7 13.5 7.9 18.3c4.2 3.7 8.6 5.6 13.5 5.6 4.5 0 8.5-1.8 12.1-5.3 2.4-2.4 4.5-6.1 6.6-11.3.6-1.5 1.8-5.2 3.7-11.2 1.4-4 2.4-7.1 3.4-9.1.9-2.2 2-4 3.2-5.8 1.2-1.6 2.7-3.3 4.7-5.2zM41.7 45.4c-.1-3.7-.9-6.6-2.2-8.9-1.7-2.8-4-5-7.1-6.5-2.4-1.2-5-1.8-7.6-1.8-.6 0-1.7.1-3.1.2-2.7 3-4 6.4-4 9.9 0 3.8 1.4 7.1 4.3 9.6 2.4 2.2 5.3 3.2 8.5 3.2 4.2 0 7.9-1.9 11.2-5.7zm37.1 15.2c-1.2 2.9-2.3 5-3.1 6.2-1.2 1.7-2.7 3.2-4.6 4.6l-3.4 11.7c-1.4 4.8-3.7 7.1-6.9 7.1-1.4 0-2.4-.6-3.3-1.9-.8-1.2-1.2-2.4-1.2-3.7 0-1.8.4-3.5 1.4-5.2.9-1.7 2.2-3 3.8-4.2 1.4-1 3.2-2 5.3-3l1.4-5c-.9 1.4-1.6 2.4-2.1 3-1.1 1.2-2.2 1.7-3.4 1.7-1 0-1.9-.4-2.5-1.2-.5-.6-.7-1.4-.7-2.2 0-.7.2-1.8.6-3.2l4.2-14.7c.5.1 1 .1 1.4.1.8 0 1.7-.1 2.6-.1l-4.5 16.8c-.4 1.2-.5 1.9-.5 2.2 0 .6.3 1 .7 1 .5 0 1.3-.8 2.3-2.3 1-1.5 1.9-3.3 2.7-5.3.7-1.9 1.7-4.9 2.9-9 .4-1.6.8-2.7 1-3.4 1 .1 1.6.1 1.9.1.3 0 1-.1 2.1-.1l-5.3 19.2c2.4-1.7 4.5-4.9 6.3-9.5l.9.4v-.1zM66.4 73.5c-2.9 1.4-4.8 2.6-5.8 3.7-2.2 2.2-3.3 4.7-3.3 7.5 0 1.2.3 2.2.7 3 .6 1 1.4 1.5 2.3 1.5.8 0 1.4-.3 1.7-.9.4-.5.6-1.4 1-2.5l3.4-12.3z"/><path class="st0" d="M96 60.4c-.9 2.5-1.8 4.8-2.8 6.8-.9 1.7-1.7 2.8-2.4 3.5-.8.7-1.8 1.2-3 1.2s-2.1-.4-2.8-1.2c-.6-.7-.9-1.5-.9-2.4 0-1.1.9-4 2.5-8.9.1-.5.3-.9.3-1.3 0-1.1-.9-1.7-2.5-1.7-.3 0-.6.1-1.2.1l-4.2 15c-.8-.1-1.4-.1-1.9-.1-.6 0-1.3.1-2.2.3l5.7-21c.6.1 1.2.1 1.7.1.6 0 1.4-.1 2.5-.3l-1.3 4.9c1 0 1.7-.1 2-.1.5-.1 1.1-.5 1.6-1.2.7-.8 1.4-1.7 2-2.5 1-1.3 2.2-1.9 3.7-1.9.9 0 1.5.3 2 .9.4.4.5.9.5 1.4 0 .6-.2 1.1-.6 1.5-.5.6-1.1.9-1.8.9s-1.5-.4-2.3-1.4c-.1-.1-.3-.2-.5-.2-.4 0-.8.3-1.3.9-.6.7-1.2 1.4-1.9 1.9 2.4.8 3.5 2.1 3.5 3.9 0 1-.4 2.5-1.2 4.5-1 2.5-1.4 4.2-1.4 5 0 1 .4 1.5 1 1.5 1.2 0 2.6-1.7 4.2-4.9.3-.6 1.1-2.5 2.3-5.7l.8.4-.1.1z"/><path class="st0" d="M114.3 60.6c-1.4 3.3-2.5 5.7-3.3 7.1-1.5 2.8-3.2 4.2-4.9 4.2-1.3 0-2.2-.6-2.9-1.9-.4-.8-.6-1.8-.6-3 0-.2 0-.5.1-.9-1.1 1.9-1.9 3.1-2.4 3.7-1 1.3-2.2 1.9-3.6 1.9-1.2 0-2-.5-2.6-1.4-.3-.5-.4-1.2-.4-1.9 0-.9.2-2.1.6-3.7l3.9-14.3c.7.1 1.4.1 2 .1s1.4-.1 2.2-.1l-4.4 16c-.4 1.6-.6 2.7-.6 3.2s.2.7.6.7c1.2 0 2.8-2.2 4.7-6.5.9-2.1 1.9-4.9 2.9-8.4.6-2.4 1.2-4 1.4-5 .4 0 1.2.1 2.7.1.6-.1 1.1-.1 1.4-.2l-4.6 16.9c-.3.9-.4 1.6-.4 1.9 0 .9.4 1.3 1 1.3.9 0 2.1-1.2 3.4-3.7.8-1.5 1.8-3.7 3.1-6.8l.7.7z"/><g id="_149409216"><path class="st0" d="M265.4 59.9l.1-.9h8.4l-.1.9h-8.4zM219 73.2c-.4 1.5-.8 2.7-1.4 3.8-1.4 2.2-3.1 3.3-5.1 3.3-2.2 0-4-1.1-5.4-3.2-1.8-2.5-2.7-5.5-2.7-9 0-4 1.2-10.2 3.5-18.8l-6.3 1.4c-.9 4.2-1.7 7.3-2.3 9.5-1.2 4-3.1 7.3-5.8 10.1-2.2 2.2-4.8 4-7.8 5.2-3 1.2-6.2 1.9-9.5 1.9-7.6 0-13.8-3-18.4-8.9-3.9-4.9-5.8-10.6-5.8-17.1 0-8.6 3.5-15.3 10.3-20.2 2.8-1.9 5.8-3.3 8.8-4 .7-.1 1.9-.4 3.5-.6 1.4-1.5 2.8-2.6 4.2-3.2 1.9-.9 4-1.4 6.3-1.4 2.1 0 4 .4 5.8 1.3.4.1 1.9 1.1 4.7 2.7 2.6 1.5 5.2 2.3 7.7 2.3 1.9 0 4.2-.6 7.1-1.8 2-.9 3.5-1.3 4.6-1.3.1 0 .4 0 .6.1v1h-.6c-1.6 0-3.2.6-4.8 1.7-2.3 1.7-4.2 5.2-5.8 10.2-.7 2.4-1.6 6.2-2.7 11.4l6.5-1.7c1.7-6 4-11 7.1-14.9 3.8-5 7.6-7.5 11.5-7.5 1.6 0 2.9.4 3.8 1.4.9.9 1.4 1.9 1.4 3 0 .6-.2 1.2-.6 1.6-.4.5-.9.7-1.6.7-.8 0-1.4-.4-1.8-1-.3-.4-.4-1.2-.4-2.2-.1-1.4-.6-2.2-1.8-2.2-2.4 0-4.8 2.4-7.3 7.3-1.5 3-3.2 7.5-4.9 13.3h.1c2.2 0 4.1 1 5.8 3l-.8.6c-1.5-1.7-3.2-2.6-5.3-2.6h-.1c-.3.9-.7 2.5-1.2 4.8-.1.5-.6 2.5-1.5 6.1-1.3 5.2-1.9 9.2-1.9 12 0 5 1.3 7.4 3.8 7.4 2.7 0 4.5-2.1 5.7-6.2l.9.1-.1.6zm-22.3-22.9c.4-1.2.6-2 .9-2.5 1.7-5.4 2.9-8.7 3.4-9.9 1.7-3.7 4-6.8 7-9.3-1.7.6-3.5.9-5.2.9-2.1 0-4.2-.4-6.3-1.4-.7-.3-2.2-1.2-4.6-2.6-2.6-1.6-5-2.4-7.1-2.4-3.7 0-6.6 1.2-8.6 3.6.6 0 .9-.1 1.2-.1 2.7 0 5.5.7 8.3 2.2 3.5 1.9 6.1 4.7 7.7 8.4 1.1 2.4 1.6 5.1 1.6 7.9 0 1.7-.2 3.4-.7 5.1.5.1.8.1.9.1l.9-.1c0 .1.2.1.6.1zm-3.7-.5c.6-1.7.9-3.4.9-5.1 0-5.4-1.9-9.7-5.8-13-3.2-2.7-7-4.1-11.2-4.1-.4 0-.9 0-1.7.1-2.2 3.2-3.3 6.4-3.3 9.9 0 4.1 1.3 7.5 4 10.1 2.1 2.1 4.5 3.1 7 3.1 1.8 0 3.5-.5 5.1-1.5.5-.3 1.1-.8 1.6-1.4-.1-.6-.2-1.1-.2-1.5 0-1.4.4-2.1 1.2-2.1.6 0 .9.5.9 1.5 0 .6-.2 1.3-.7 2 .2.5.5.9.9 1.3.3.3.7.5 1.3.7zm3.3 1.5c-.6 0-1 .1-1.3.1s-.6-.1-1-.1c-.6 2-1.5 3.9-2.7 5.7-1.1 1.7-2.5 3.1-4.2 4.2-2.8 1.9-5.8 2.8-9.1 2.8-4.3 0-7.8-1.6-10.4-4.8-2.1-2.4-3.1-5.3-3.1-8.7 0-1.4.2-2.7.7-4.1l.9.3c-.4 1.5-.6 2.8-.6 4 0 3.3 1.1 6.2 3.3 8.6 2.3 2.4 5.2 3.7 8.5 3.7 2.2 0 4.5-.6 6.6-1.9 2.2-1.2 4.2-3 5.9-5.3 1.1-1.4 1.9-3 2.6-4.8-1.2-.6-2-1.3-2.6-2.2-.9.9-1.9 1.6-3.3 2.1-1.3.5-2.7.8-4 .8-2.7 0-5.3-1.1-7.5-3.2-3-2.8-4.5-6.4-4.5-10.9 0-3.5 1-6.8 3-9.8-4 .8-7.6 2.3-10.5 4.7-3 2.4-5.4 5.3-7.1 8.6-1.8 3.6-2.7 7.4-2.7 11.4 0 6.8 2.4 12.7 7.1 17.3 4.3 4.2 9.2 6.3 14.8 6.3 2.9 0 5.7-.9 8.4-2.6 2.7-1.7 5-4.2 6.8-7.3 1.7-2.5 3.7-7.6 6-14.9z"/><path class="st0" d="M233.1 60.8c-.9 3-2.4 4.6-4.2 4.6h-.3c-1.7 4.3-3.8 6.5-6.1 6.5-1.6 0-2.9-.7-4-2.2-.9-1.2-1.4-2.7-1.4-4.5 0-3.9 1.2-7.5 3.6-10.9 1.9-2.7 4-4.1 6.3-4.1 1.3 0 2.3.5 3 1.6.6 1 .9 2.2.9 3.6 0 1.7-.6 4.7-1.8 8.9h.1c.6 0 1.2-.4 1.7-1 .4-.5.9-1.5 1.4-2.9l.8.4zm-5.4 4.5c-1.1-.4-1.7-1.4-1.7-2.7 0-1.1.3-2 .7-2.9.6-.9 1.3-1.4 2.1-1.4.2 0 .4 0 .7.1.2-1 .3-1.9.3-2.5 0-1.4-.2-2.5-.7-3.4-.4-.7-1-1.2-1.7-1.2-.9 0-1.7.7-2.4 2.2-1 2-1.9 4.5-2.8 7.6-1 3.6-1.5 6-1.5 7.3 0 .7.2 1.3.5 1.7.4.4.9.6 1.4.6 2 .1 3.6-1.8 5.1-5.4zm46-7.5c-.7 1-1.4 1.8-2 2.3-1.1.9-2.2 1.3-3.7 1.3-1.9 0-3.3-.7-4.1-2.2-.2-.4-.4-.9-.4-1.4h4.2c-.1.5-.2.9-.2 1.1 0 .9.4 1.4 1.3 1.4 1.1 0 2.2-.8 3.5-2.4h1.4zm25.8 2.8c-1.4 3.3-2.5 5.7-3.3 7.1-1.5 2.8-3.2 4.2-4.9 4.2-1.3 0-2.2-.6-2.9-1.9-.4-.8-.6-1.8-.6-3 0-.2 0-.5.1-.9-1.1 1.9-1.9 3.1-2.4 3.7-1 1.3-2.2 1.9-3.6 1.9-1.2 0-2-.5-2.6-1.4-.3-.5-.4-1.2-.4-1.9 0-.9.2-2.1.6-3.7l3.9-14.3c.7.1 1.4.1 2 .1.6 0 1.4-.1 2.2-.1l-4.4 16c-.4 1.6-.6 2.7-.6 3.2s.2.7.6.7c1.2 0 2.8-2.2 4.7-6.5.9-2.1 1.9-4.9 2.9-8.4.6-2.4 1.2-4 1.4-5 .4 0 1.2.1 2.7.1.6-.1 1.1-.1 1.4-.2l-4.6 16.9c-.3.9-.4 1.6-.4 1.9 0 .9.4 1.3 1 1.3.9 0 2.1-1.2 3.4-3.7.8-1.5 1.8-3.7 3.1-6.8l.7.7zm21.5-10l-2.2 7.5c1.4-2.1 2.8-3.1 4.2-3.1 1.3 0 2.2.7 3 2 1.2 2.2 0 10.2-3.6 13.2-1.3 1.1-2.7 1.6-4.2 1.6s-2.8-.6-3.8-1.9-1.5-2.5-1.5-4c0-1.2.4-3.5 1.4-6.8l2.4-8.6c.5.1.9.1 1.3.1 0 .1.9 0 3 0zm1.4 5.6c-3.2 0-6.2 9.1-6.2 12.2 0 1.6.5 2.3 1.7 2.3 3.2 0 5.6-10.7 5.6-13.2 0-.9-.4-1.3-1.1-1.3zm16.4 4.1c-.4.9-.6 1.7-.9 2.2-1.2 2.9-2.2 5-3.2 6.6-1.2 1.9-2.4 2.8-3.7 2.8-1.2 0-2.3-.6-3.1-1.8-.6-.8-.9-1.7-.9-2.8 0-.9.4-2.5.9-4.8l3.2-11.9c.7.1 1.4.1 2 .1.6 0 1.4-.1 2.2-.2l-4.2 15.1c-.6 2.2-.7 3.5-.7 3.9 0 .3.1.6.3.8.2.3.4.4.6.4 1 0 2.2-1.4 3.6-4 .4-.7 1.4-3 2.9-6.6l1 .2z"/><path class="st0" d="M263.9 60.1c-.9 2.5-1.8 4.8-2.8 6.8-.9 1.7-1.7 2.8-2.4 3.5-.8.7-1.8 1.2-3 1.2s-2.1-.4-2.8-1.2c-.6-.7-.9-1.5-.9-2.4 0-1.1.9-4 2.5-8.9.1-.5.3-.9.3-1.3 0-1.1-.9-1.7-2.5-1.7-.3 0-.6.1-1.2.1l-4.2 15h-.1v.1c-.7-.1-1.4-.2-1.9-.3-.6 0-1.2.1-2.1.3v-.1h-.1l4.2-15c-.4-.1-.8-.1-1.1-.1-1.7 0-2.9.6-3.5 1.7-.2.4-.4.8-.4 1.3-1.1 4.9-1.9 7.8-2.4 8.9-.5.9-1.3 1.7-2.3 2.4-1.2.8-2.2 1.2-3.5 1.2-1.2 0-2-.4-2.4-1.2-.4-.6-.5-1.8-.4-3.5.1-2 .4-4.2.9-6.8l1-.4c-.5 3.2-.8 5-.9 5.7-.2 3.2.2 4.9 1.4 4.9.6 0 1.3-.5 1.9-1.5.4-.8.9-2.4 1.3-5 .4-2.1.8-3.5 1.4-4.5.9-1.7 2.9-3 5.7-3.9-.4-.6-.6-1.3-.8-1.9-.1-.6-.4-.9-.8-.9-.2 0-.4.1-.6.2-1.4.9-2.4 1.4-3.1 1.4-.7 0-1.2-.3-1.3-.9-.1-.4-.1-.9.3-1.5.3-.5.7-1 1.3-1.4.8-.6 1.6-.9 2.4-.9 1.5 0 2.4.6 2.7 1.9.2.9.4 1.7.6 2.5.2.6.6 1 1 1.2.3.1.9.1 1.9.1l.2-.8.9-3.2c1.4.2 2.7.2 4.1 0l-.9 3.2-.2.8c1 0 1.7-.1 2-.1.5-.1 1.1-.5 1.6-1.2.7-.8 1.4-1.7 2-2.5 1-1.3 2.2-1.9 3.7-1.9.9 0 1.5.3 2 .9.4.4.5.9.5 1.4 0 .6-.2 1.1-.6 1.5-.5.6-1.1.9-1.8.9s-1.5-.4-2.3-1.4c-.1-.1-.3-.2-.5-.2-.4 0-.8.3-1.3.9-.6.7-1.2 1.4-1.9 1.9 2.4.8 3.5 2.1 3.5 3.9 0 1-.4 2.5-1.2 4.5-1 2.5-1.4 4.2-1.4 5 0 1 .4 1.5 1 1.5 1.2 0 2.6-1.7 4.2-4.9.3-.6 1.1-2.5 2.3-5.7l.8.4z"/><path class="st0" d="M263.9 71.7c-1.2-.1-2-.1-2.5-.1s-1.1.1-1.8.2l5.9-20.9c1.2.1 2.1.2 2.4.2.4 0 1-.1 1.7-.1-1.8 6.7-4.1 13.9-5.7 20.7zm17.5-10.8c-1.4 3.3-2.5 5.7-3.3 7.1-1.5 2.8-3.2 4.2-4.9 4.2-1.3 0-2.2-.6-2.9-1.9-.4-.8-.6-1.8-.6-3 0-2.3 2.1-9.1 2.8-11.5.6-2.4 1.2-4 1.4-5 .4 0 1.2.1 2.7.1.6-.1 1.1-.1 1.4-.2l-4.6 16.9c-.3.9-.4 1.6-.4 1.9 0 .9.4 1.3 1 1.3.9 0 2.1-1.2 3.4-3.7.8-1.5 1.8-3.7 3.1-6.8l.9.6zm28.4 10.7l3.7-9.6.9.4-3.7 10c1 .9 1.4 1.9 1.4 2.9 0 .8-.3 1.6-.7 2.3-.4.6-.9.9-1.6.9-.9 0-1.4-.5-1.4-1.6 0-.9.4-2.2 1.1-4.1-1.1-.7-1.9-1.4-2.3-1.7-.3-.3-.6-.6-.7-.9-.4-.7-.6-1.6-.6-2.4v-.7c0-.2 0-.5.1-.9-1.1 1.9-1.9 3.1-2.4 3.7-1 1.3-2.2 1.9-3.6 1.9-1.2 0-2-.5-2.6-1.4-.3-.5-.4-1.2-.4-1.9 0-.9.2-2.1.6-3.7l3.9-14.3c.7.1 1.4.1 2 .1.6 0 1.4-.1 2.2-.1l-4.4 16c-.4 1.6-.6 2.7-.6 3.2s.2.7.6.7c1.2 0 2.8-2.2 4.7-6.5.9-2.1 1.9-4.9 2.9-8.4.6-2.4 1.2-4 1.4-5 .4 0 1.2.1 2.7.1.6-.1 1.1-.1 1.4-.2l-4.6 16.9c-.1.5-.2.9-.3 1.2-.2 1.2-.2 1.9.8 3l-.5.1z"/></g><path class="st0" d="M157.9 89.9c-.6 0-1.2.1-1.7.1-.2.1-.5.1-.7.1-.8 0-2.2-.5-3.5-3.4-.9-1.9-1.4-2.5-3.5-6-.5-.8-.5-3.2-1.2-4.3-.6-.9-1.5.2-2.8-2.4-2.5-5.1-5-11.5-6.6-16.3-.5 1.6-1.2 3.6-1.5 5.2-.4 1.9-1.1 4.5-1.5 6.3 1.2.6 3.1 2 4.2 3.7 1.7 2.4 6.2 10.7 9 15.6 1.7 3 1.5 4.6 1.2 5.5l-.6.9c-1.4 1.9-2.2 4.4-2.2 7.1 0 .4.1.6.1 1l-.7.2-.1.1c-1.3.4-2 1.8-1.6 3.1.4 1.3 1.8 2 3.1 1.6l.6-.1c1.9 3.7 5.7 6.3 10 6.3 6.3 0 11.4-5.4 11.4-12.1s-5.1-12.2-11.4-12.2zm3.1 20.9c-3.4 1.2-7.5-1.9-9.2-6.8-1.7-4.9-.4-9.9 3-11 3.4-1.2 7.5 1.9 9.2 6.8 1.7 4.9.4 9.9-3 11zm-26.1-79.7c0-3.8-1.5-4.4-2.6-9.6-.3-1.4.1-1.5-.1-2.8-.2-1.3-.8-3.5-1.4-4.2-.6-.8-1.9-.1-1.9-.1s.1-1.3 0-1.9c-.1-.6.2-2.6 1.4-6s1-4.2.5-5.4c-.2-.5-1-1.1-1.1-.9-.4.7-1.1 2.1-1.4 3.4-1.3 1.9-3.2 5.5-4.2 7.6-1 2.1-.8 2.7-1.1 5.3-.3 2.6-.8 6.3-1.2 7.4-.4 1.2.9 3.5 1.4 4.5.4.9 1 3 1.4 5.1 0 .3.1.6.1.9 0 .1.1.3.1.4.1.8.3 1.4.5 2 1.2 5.3 2.3 13.2 3.4 19.2 1.7-3.4 3.3-7.4 4-9.6.6-1.7 1.1-3.2 1.4-4.2-.1-.7-.4-1.4-.5-2.1-.7-6.3 1.3-4 1.3-9z"/><path class="st0" d="M155.6 4.9c-1.5.4-2.4.9-3 4.5-.1 1.1-.3.9-.6 1.6-.6 1.1-2.3 5.3-2.3 6.1 0 1.2-2.5 1.9-3.8 5.2-1.2.8-3 2.4-4.2 2.1-.3-.1.4-1.7.6-2.3.6-.9 1.8-5.8 0-6.6-.4-.2-1.7-.7-2.2 0-.4.3-.9 2.2-1 2.7-.2.8-.3 1.6-.4 2.2-.6 2.4-1.4 4.6-2 6.9-.2.8 0 4.8.1 5.8.4 2.5.5 4 .4 4.8-1.4 3-3.3 7.3-4.5 10.2-1.9 4.9-9.9 21.4-11 24-1.1 2.7-1.7 4.2-3.3 4.1s-1.7 1.1-2.2 4.2c-.5 3.1-1.4 5.6-3.2 6.8-.6.4-1.2.4-1.9.4-.4-.1-.7-.1-1.1-.1l.1-.1c-6.3 0-11.4 5.4-11.4 12.1 0 3.7 1.5 7.1 4 9.3.3.4.4.8.1 1.8-.8 3.2-6.5 4.5-5.8 7.8.8 3.2 4.2 1.9 5.7-.5 1.4-2.3 1.4-6.1 3.7-6.3.5 0 1.2 0 2-.1.5.1 1 .1 1.5.1 6.3 0 11.4-5.4 11.4-12.1 0-3-1.1-5.8-2.8-7.9-1.6-2-.8-4.7 2.4-10.1 3.2-5.3 5.2-10.5 8.4-11.3 3.2-.8 5-1.1 5.2-2.5.1-1.4 2.8-11.6 5.3-17.3l2.5-5.7c.4-.4.8-.7.9-1.2.1-.4.8-2.3 1.2-3.7.2-.7.4-1.2.4-1.4.1-2.2 2.8-6 3.1-7.4.6-3.4 4.8-10.7 4.9-11.2.1-.4.7-3.1.7-3.1.5-1.1 1.3-2.7 1.2-3.9.3-1.9 1-2.2.8-4.7-.1-.6.1-.7.2-1.3s.2-1.8-.1-1.9zm-39.5 97c-1.7 4.9-5.8 7.9-9.2 6.8-3.4-1.2-4.7-6.1-3-11 1.7-4.9 5.8-7.9 9.2-6.8 3.4 1.1 4.7 6.1 3 11zm15.4-38.4c-1.1 0-1.9-.9-1.9-1.9 0-.6.3-1.2.8-1.6l1.3 3.5h-.2zm1.3-.6l-1.7-3.3c.1 0 .3-.1.4-.1 1.1 0 1.9.9 1.9 1.9 0 .6-.3 1.1-.6 1.5z"/></svg>