<svg id="Слой_1" xmlns="http://www.w3.org/2000/svg" viewBox="0 0 221.6 190.1"><path d="M32 153.9l-3.6-8.2c-.4-.8-.8-1.3-1-1.7-.3-.3-.7-.4-1.2-.4v-.4h4v.4h-1.4l3.9 8.8 2.8-6.8c.2-.5.4-1 .4-1.3 0-.3-.1-.5-.4-.6-.3-.1-.7-.1-1.2-.1h-.4v-.4h4.3v.4h-1l-3.7 8.9c-.9 2.1-1.4 3.7-1.4 4.8 0 1 .4 1.5 1.1 1.5h1.1v.4h-4c0-.3.2-.9.4-1.7.2-.8.5-1.6.9-2.5l.4-1.1zm8.7-6.8v-2.4c0-.5-.1-.8-.2-.9-.2-.1-.4-.2-.8-.2h-.6v-.4h4.3v.4H42v3.5c0 .7.2 1.2.7 1.5.5.3 1.1.4 1.7.4 1 0 1.9-.5 2.7-1.4v-2.9c0-.3-.1-.6-.2-.8-.1-.2-.3-.3-.5-.3h-.9v-.4h4.3v.4h-1.4v14.1c0 .5.1.8.4.9.2.1.6.2 1.2.2v.4h-4.3v-.4h1.4v-10.4c-.4.4-.8.7-1.4 1-.6.3-1.2.4-1.8.4-.5 0-.9-.1-1.5-.3-.5-.2-.9-.4-1.3-.8-.2-.5-.4-1-.4-1.6zm11.8 12.1v-.4H54v-14.1c0-.3-.1-.6-.2-.7-.1-.2-.3-.3-.5-.3h-.9v-.4H60v-1h.4v5.4H60v-.8c0-.6-.1-1.1-.2-1.6-.1-.4-.4-.8-.8-1-.6-.3-1.6-.5-3.1-.5h-.6v3.9h2.1v-2.4h.4v5.9h-.4v-.6c0-.7-.1-1.2-.3-1.7-.2-.4-.7-.7-1.4-.7h-.3v10.7h.2c.8 0 1.5 0 2-.1.5 0 1-.2 1.4-.4.5-.3.8-.6.9-1.1.1-.4.2-1 .2-1.6v-1.2h.4v5.9H60v-1h-7.5v-.2zm14.3-15.6c-.5 0-.7 0-.7.2v3.8h2.2c.9 0 1.8.1 2.6.4.8.3 1.6.6 2.2 1.1.6.5 1.2 1.1 1.5 1.9.4.7.6 1.5.6 2.4 0 1.2-.3 2.2-.8 3.1-.5.9-1.3 1.5-2.2 2-.9.5-2 .7-3.1.7h-5.7v-.4h1.4v-13.3c0-.9-.1-1.4-.2-1.6-.1-.2-.6-.3-1.4-.3v-.4h7.6v-1h.4v5.4h-.4v-.6c0-.6 0-1.1-.1-1.6-.1-.4-.3-.8-.6-1-.7-.6-1.7-.8-3.3-.8zm-.7 14.9c.8.2 1.6.4 2.6.4.7 0 1.4-.1 2.1-.4.6-.3 1.2-.7 1.7-1.2.4-.5.8-1.1 1.1-1.8.2-.7.4-1.4.4-2.1 0-.9-.2-1.8-.6-2.5-.4-.8-1.1-1.4-1.8-1.8-1-.6-2.3-.9-3.8-.9h-1.4v10.3h-.3zm14.1-10.4v9.5c0 .5.1.8.4.9.2.1.6.2 1.2.2v.4h-4.3v-.4h1.4v-14.1c0-.3-.1-.6-.2-.7-.1-.2-.3-.3-.5-.3h-.9v-.4h4.3v.4h-1.4v4h5.1v-2.9c0-.3-.1-.6-.2-.7-.1-.2-.3-.3-.5-.3h-.9v-.4H88v.4h-1.4v14.1c0 .5.1.8.4.9.2.1.6.2 1.2.2v.4H84v-.4h1.4v-10.6h-5.2v-.2zm27.8 9.6c0 .5.1.8.4.9.2.1.6.2 1.2.2v.4h-4.3v-.4h1.4v-14.1c0-.3-.1-.6-.2-.7-.1-.2-.3-.3-.5-.3h-.9v-.4h4.3v.4H108v14zm-14.5 1.5h-2.7v-.4h1.4v-14.1c0-.5-.1-.8-.3-.9-.2-.1-.6-.2-1.2-.2v-.4h4.7v.4h-1.8v3.4c1.3-.7 2.7-1.1 4-1.1 1.3 0 2.4.3 3.5.8 1.1.6 1.9 1.3 2.5 2.3.6 1 .9 2.1.9 3.4 0 1.8-.7 3.4-2.1 4.8-1.4 1.4-3.1 2.1-5.2 2.1-.6 0-1.2-.1-1.8-.3-.5-.1-1.1-.3-1.9-.6v.8zm0-2l1.2.9c.5.3.9.4 1.3.5.5.1 1 .2 1.4.2 1 0 2-.3 2.9-.8.9-.5 1.6-1.3 2-2.1.5-.9.7-1.9.7-3 0-.8-.2-1.6-.5-2.4-.3-.8-.7-1.4-1.2-2-.5-.6-1.1-1.1-1.8-1.4-.7-.3-1.5-.5-2.3-.5-1.4 0-2.6.5-3.7 1.5v9.1zm21.2-6.6v7.1c0 .5.1.8.4.9.2.1.6.2 1.2.2v.4H112v-.4h1.4v-14.1c0-.3-.1-.6-.2-.7-.1-.2-.3-.3-.5-.3h-.9v-.4h4.3v.4h-1.4v6.2l5.1-5.1c0-.5-.1-.8-.3-.9-.2-.1-.6-.2-1.2-.2v-.4h4.3v.4h-1.4v14.1c0 .5.1.8.4.9.2.1.6.2 1.2.2v.4h-4.3v-.4h1.4v-13.3l-5.2 5zm.4-11.6c0 .4.2.7.7 1 .4.3.9.4 1.4.4.3 0 .7-.1 1-.2.3-.1.6-.3.8-.5.2-.2.3-.5.3-.7h.4c0 .7-.2 1.3-.7 1.8-.4.5-1.1.7-1.9.7-.8 0-1.5-.2-1.9-.7-.4-.5-.7-1.1-.7-1.8h.6zm25.3 20.2h-6.7v-.4h1.4v-14.1c0-.5-.1-.8-.3-.9-.2-.1-.6-.2-1.2-.2v-.4h4.3v.4h-1.4v13.9c0 .5.1.8.4.9.2.1.6.2 1.2.2h3.5v-13.9c0-.5-.1-.8-.3-.9-.2-.1-.6-.2-1.2-.2v-.4h4.3v.4H143v14.1c0 .5.1.8.3.9.2.1.7.2 1.2.2v5h-.5c0-1.7-.2-2.9-.6-3.6-.2-.3-.4-.5-.5-.6-.2-.1-.4-.2-.8-.3-.4-.1-.9-.1-1.7-.1zm6.5 0v-.4h1.5v-14.1c0-.3-.1-.6-.2-.7-.1-.2-.3-.3-.5-.3h-.9v-.4h7.6v-1h.4v5.4h-.4v-.8c0-.6-.1-1.1-.2-1.6-.1-.4-.4-.8-.8-1-.6-.3-1.6-.5-3.1-.5h-.6v3.9h2.1v-2.4h.4v5.9h-.4v-.6c0-.7-.1-1.2-.3-1.7-.2-.4-.7-.7-1.4-.7h-.3v10.7h.2c.8 0 1.5 0 2-.1.5 0 1-.2 1.4-.4.5-.3.8-.6.9-1.1.1-.4.2-1 .2-1.6v-1.2h.4v5.9h-.4v-1h-7.6v-.2zm13.5-11.1v9.5c0 .5.1.8.4.9.2.1.6.2 1.2.2v.4h-4.3v-.4h1.4v-14.1c0-.3-.1-.6-.2-.7-.1-.2-.3-.3-.5-.3h-.9v-.4h4.3v.4h-1.4v4h5.1v-2.9c0-.3-.1-.6-.2-.7-.1-.2-.3-.3-.5-.3h-.9v-.4h4.3v.4h-1.4v14.1c0 .5.1.8.4.9.2.1.6.2 1.2.2v.4h-4.3v-.4h1.4v-10.6h-5.1v-.2zm19.2.6h-.4v-.5c-.1-1-.1-1.8-.2-2.2 0-.5-.2-1-.5-1.3-.2-.2-.3-.4-.5-.6-.2-.1-.5-.2-.8-.3-.3-.1-.9-.1-1.6-.1v13.8c0 .5.1.8.2 1 .1.2.6.4 1.4.4h.5v.4h-4.8v-.4h1.4v-15.2c-.7 0-1.3 0-1.6.1-.4.1-.7.2-.8.3-.2.1-.4.3-.5.6-.2.3-.3.6-.3.8-.1.4-.2.7-.2.8 0 .2 0 .6-.1.9v1.5h-.4v-6.3h.4v.8h8.6v-.8h.4v6.3h-.2zm4.8 8.7c0 .4 0 .7.1.8.1.2.2.3.4.4.3.1.6.1 1 .1h.5v.4h-4.8v-.4h1.4v-14.1c0-.5-.1-.8-.4-.9-.2-.1-.6-.2-1.2-.2v-.4h2.9v.8c1.3-.7 2.8-1.1 4.2-1.1 1.3 0 2.4.3 3.5.8 1 .6 1.9 1.4 2.5 2.3.6 1 .9 2.1.9 3.4 0 1.8-.7 3.4-2.1 4.8-1.4 1.4-3.1 2.1-5.2 2.1-1.2 0-2.5-.3-3.9-.8v2h.2zm0-3.2c1.3 1.1 2.7 1.6 4.2 1.6 1 0 2-.3 2.9-.8.9-.5 1.6-1.2 2-2.1.5-.9.7-1.9.7-3 0-.8-.2-1.6-.5-2.4-.3-.7-.7-1.4-1.2-2.1-.5-.6-1.2-1.1-1.9-1.4-.7-.3-1.4-.5-2.3-.5-.7 0-1.4.1-2.1.4-.7.3-1.3.6-1.8 1.1v9.2zM4.7 172.5v.5H3.2v7l3.7-5.2c.1-.2.2-.3.3-.4.2-.3.3-.5.4-.6.1-.2.1-.3.1-.4 0-.2-.3-.4-1-.4h-.3v-.5h4.7v.5H9.3l-4.5 6.1 4.8 8.2c.5 1 1.1 1.6 1.5 1.9.4.2 1 .4 1.8.4v.5H7.8v-.5h1.5l-5.2-9.5-.9 1.3v7.1c0 .5.2.8.4 1 .3.1.7.2 1.3.2v.5H.2v-.5h1.5v-15.4c0-.4-.1-.7-.2-.8-.1-.2-.3-.3-.5-.3-.3 0-.6-.1-1-.1v-.5h4.7v-.1zm25.4 6h-.5c0-1.2-.1-2.1-.2-2.7-.1-.6-.3-1.1-.6-1.4-.4-.5-1.1-1-1.9-1.3-.9-.3-1.7-.5-2.6-.5-1.5 0-2.8.4-4.1 1.1-1.2.7-2.2 1.7-2.9 3-.7 1.3-1 2.7-1 4.2 0 1.1.2 2.2.7 3.3.4 1 1 2 1.8 2.9.8.9 1.7 1.5 2.7 2 1 .5 2.1.7 3.3.7 2.1 0 3.9-.9 5.6-2.5l.5.6c-.9.8-1.9 1.4-3.1 1.9-1.1.5-2.3.7-3.5.7-1.7 0-3.2-.4-4.7-1.2-1.5-.8-2.6-1.9-3.5-3.3-.9-1.4-1.3-2.9-1.3-4.6 0-1.2.3-2.4.8-3.6.5-1.1 1.2-2.2 2-3.1.9-.9 2-1.6 3.2-2.1 1.2-.5 2.5-.7 3.9-.7 1.8 0 3.4.4 4.8 1.2v-1.6h.5v7h.1zm4 11.6v-.5h1.6v-15.4c0-.4-.1-.7-.2-.8-.1-.2-.3-.3-.5-.3-.3 0-.6-.1-1-.1v-.5h8.3v-1.1h.5v5.9h-.5v-.9c0-.7-.1-1.2-.2-1.7s-.4-.8-.9-1.1c-.6-.4-1.8-.6-3.4-.6h-.7v4.3h2.3v-2.6h.5v6.5h-.5v-.7c0-.7-.1-1.4-.4-1.8-.3-.5-.8-.7-1.6-.7H37v11.7h.2c.9 0 1.6 0 2.2-.1.6-.1 1.1-.2 1.5-.5.5-.3.8-.7 1-1.2.2-.5.2-1.1.2-1.8v-1.3h.5v6.4h-.5v-1.1h-8zM49.5 178v10.4c0 .5.2.8.4 1 .3.1.7.2 1.3.2v.5h-4.7v-.5H48v-15.4c0-.4-.1-.7-.2-.8-.1-.2-.3-.3-.5-.3-.3 0-.6-.1-1-.1v-.5H51v.5h-1.5v4.4h5.6v-3.2c0-.4-.1-.7-.2-.8-.1-.2-.3-.3-.5-.3-.3 0-.6-.1-1-.1v-.5h4.7v.5h-1.5v15.4c0 .5.2.8.4 1 .3.1.7.2 1.3.2v.5h-4.7v-.5h1.5V178h-5.6zm15.1 2.7v7.7c0 .5.2.8.4 1 .3.1.7.2 1.3.2v.5h-4.7v-.5h1.5v-15.4c0-.4-.1-.7-.2-.8-.1-.2-.3-.3-.5-.3-.3 0-.6-.1-1-.1v-.5h4.7v.5h-1.5v6.8l5.6-5.6c0-.5-.1-.8-.4-1-.3-.1-.7-.2-1.4-.2v-.5h4.7v.5h-1.5v15.4c0 .5.2.8.4 1 .3.1.7.2 1.3.2v.5h-4.7v-.5h1.5v-14.5l-5.5 5.6zm15.1 0v7.7c0 .5.2.8.4 1 .3.1.7.2 1.3.2v.5h-4.7v-.5h1.5v-15.4c0-.4-.1-.7-.2-.8-.1-.2-.3-.3-.5-.3-.3 0-.6-.1-1-.1v-.5h4.7v.5h-1.5v6.8l5.6-5.6c0-.5-.1-.8-.4-1-.3-.1-.7-.2-1.4-.2v-.5h4.7v.5h-1.5v15.4c0 .5.2.8.4 1 .3.1.7.2 1.3.2v.5h-4.7v-.5h1.5v-14.5l-5.5 5.6zm38.2-2.2h-.5c0-1.2-.1-2.1-.2-2.7-.1-.6-.3-1.1-.6-1.4-.4-.5-1.1-1-1.9-1.3-.9-.3-1.7-.5-2.6-.5-1.5 0-2.8.4-4.1 1.1-1.2.7-2.2 1.7-2.9 3-.7 1.3-1 2.7-1 4.2 0 1.1.2 2.2.7 3.3.4 1 1 2 1.8 2.9.8.9 1.7 1.5 2.7 2 1 .5 2.1.7 3.3.7 2.1 0 3.9-.9 5.6-2.5l.5.6c-.9.8-1.9 1.4-3.1 1.9-1.1.5-2.3.7-3.5.7-1.7 0-3.2-.4-4.7-1.2-1.5-.8-2.6-1.9-3.5-3.3-.9-1.4-1.3-2.9-1.3-4.6 0-1.2.3-2.4.8-3.6.5-1.1 1.2-2.2 2-3.1.9-.9 2-1.6 3.2-2.1 1.2-.5 2.5-.7 3.9-.7 1.8 0 3.4.4 4.8 1.2v-1.6h.5v7h.1zm7.2.2l-1.8 7.6c-.2.9-.3 1.6-.3 2.1 0 .3.1.6.2.8.1.2.3.3.5.3s.5.1.9.2h.7v.5h-4.7v-.5h1.1l4.2-18h.5l4.7 14.8c.4 1.3.8 2.1.9 2.4.1.2.3.4.5.5.2.1.5.2.8.2v.5H129v-.5h1.7l-3.4-10.9h-2.2zm1-4l-.8 3.4h1.8l-1-3.4zm14.5-2.2v.5H139v7l3.7-5.2c.1-.2.2-.3.3-.4.2-.3.3-.5.4-.6.1-.2.1-.3.1-.4 0-.2-.3-.4-1-.4h-.4v-.5h4.7v.5h-1.7l-4.5 6.1 4.8 8.2c.5 1 1.1 1.6 1.5 1.9.4.2 1 .4 1.8.4v.5h-5.1v-.5h1.5l-5.2-9.5-.9 1.3v7.1c0 .5.2.8.4 1 .3.1.7.2 1.3.2v.5H136v-.5h1.5v-15.4c0-.4-.1-.7-.2-.8-.1-.2-.3-.3-.5-.3-.3 0-.6-.1-1-.1v-.5h4.8v-.1zm10.4 17.6v-.5h1.6v-15.4c0-.4-.1-.7-.2-.8-.1-.2-.3-.3-.5-.3-.3 0-.6-.1-1-.1v-.5h8.3v-1.1h.5v5.9h-.5v-.9c0-.7-.1-1.2-.2-1.7s-.4-.8-.9-1.1c-.6-.4-1.8-.6-3.4-.6h-.7v4.3h2.3v-2.6h.5v6.5h-.5v-.7c0-.7-.1-1.4-.4-1.8-.3-.5-.8-.7-1.6-.7h-.4v11.7h.2c.9 0 1.6 0 2.2-.1.6-.1 1.1-.2 1.5-.5.5-.3.8-.7 1-1.2.2-.5.2-1.1.2-1.8v-1.3h.5v6.4h-.5v-1.1h-8zm17.1-15.4l-2.9 11.6c-.2.9-.3 1.6-.3 2.1 0 .3.1.6.2.8.1.2.3.3.5.3s.5.1.9.2h.7v.5h-4.7v-.5h1.1l4.2-18h.5l4.7 14.8c.4 1.3.8 2.1.9 2.4.1.2.3.4.5.5.2.1.5.2.8.2v.5H171v-.5h1.7l-4.6-14.9zm13 4l-1.8 7.6c-.2.9-.3 1.6-.3 2.1 0 .3.1.6.2.8.1.2.3.3.5.3s.5.1.9.2h.7v.5h-4.7v-.5h1.1l4.2-18h.5l4.7 14.8c.4 1.3.8 2.1.9 2.4.1.2.3.4.5.5.2.1.5.2.8.2v.5H185v-.5h1.7l-3.4-10.9h-2.2zm1-4l-.8 3.4h1.8l-1-3.4zm12.4 13.4c0 .4 0 .7.1.9.1.2.2.4.4.4.3.1.7.1 1.1.1h.6v.5h-5.3v-.5h1.5v-15.4c0-.5-.2-.8-.4-1-.3-.1-.7-.2-1.3-.2v-.5h3.2v.9c1.5-.8 3-1.2 4.6-1.2 1.4 0 2.6.3 3.8.9 1.1.6 2 1.5 2.7 2.6.7 1.1 1 2.3 1 3.7 0 1.9-.8 3.7-2.3 5.3-1.6 1.6-3.4 2.3-5.6 2.3-1.3 0-2.7-.3-4.3-.9v2.1h.2zm0-3.5c1.4 1.2 3 1.8 4.6 1.8 1.1 0 2.2-.3 3.2-.9 1-.6 1.7-1.4 2.2-2.3.5-1 .8-2.1.8-3.3 0-.9-.2-1.8-.5-2.6s-.8-1.5-1.4-2.3c-.6-.7-1.3-1.2-2-1.5-.8-.4-1.6-.6-2.5-.6-.8 0-1.6.1-2.3.4-.8.3-1.5.7-2 1.2v10.1h-.1zm18.3-3.9v7.7c0 .5.2.8.4 1 .3.1.7.2 1.3.2v.5h-4.7v-.5h1.5v-15.4c0-.4-.1-.7-.2-.8-.1-.2-.3-.3-.5-.3-.3 0-.6-.1-1-.1v-.5h4.7v.5h-1.5v6.8l5.6-5.6c0-.5-.1-.8-.4-1-.3-.1-.7-.2-1.4-.2v-.5h4.7v.5h-1.5v15.4c0 .5.2.8.4 1 .3.1.7.2 1.3.2v.5h-4.7v-.5h1.5v-14.5l-5.5 5.6z" fill="#961647"/><path d="M55.8 52.6s3.4 2 3.5 6.2c0 .4 0 .6.1.8.2 2.4 1.1 6.9 5.3 10.6 0 0 9.2 9.1 23.1 2.4 0 0 5.4-2.2 8.8-8 1.6.9 2.5 1.8 2.5 1.8l.2.2C94.6 70 89 74.7 83.7 81.1 77 88.6 73.1 86 72.6 84.4c-.4-1.6.6-3 .6-3l-.2-.7c-4.2 6.6-10.2 6.1-10.2 6.1s11.5 8.3 21-4c0 0 6.7-8.7 15.8-16 1.9 2.1 3.1 4.2 3.9 6.3-4.3 1.9-10.4 6.1-12 15.3l4.2 2.5c-1.6-10.5 3.9-15.1 8-17 2 6.2 0 11.3 0 11.3-3.6 11.3-12.4 13.2-12.4 13.2-7.4 2.1-10.8-2.5-10.9-4.8-.2-3.4 1.7-4.9 1.7-4.9l-.1-.3c-8.6 6.4-16.8 3.3-16.8 3.3l.2.8s2.7.6 5.9 2.3h-.1s1.9 1.4-.8 2.6c-.3.1-.5.2-.8.3h-.1C65.7 99 61.4 99 57 95.8l.3 2.3s5.6 3.1 13.1-.2c0 0 3.6-1.4 7 1.2.3.2.5.4.7.4 2 1.3 6.1 3.4 11.5 2.4 0 0 12.8-1.5 16.3-16.6 0 0 1.6-5.6-.8-11.9 1.7-.6 2.9-.8 2.9-.8h.3c-.3 5.8-.1 13.1 1.5 21.2 1.7 10-2.8 11.4-4.4 10.7-1.5-.6-1.9-2.4-1.9-2.4l-.6-.2c2.5 7.4-1.6 11.8-1.6 11.8s13.6-3.9 10-18.9c0 0-2.7-10.7-2.6-22.4 2.8-.2 5.2.2 7.3.8-1.2 4.5-1.7 12 4.4 18.9l4.6-1.7c-9.1-5.3-9.3-12.4-8.3-16.9 6.1 2.3 8.9 7.1 8.9 7.1 6.6 9.9 2.5 18 2.5 18-3 7.1-8.7 6.9-10.5 5.6-2.7-1.9-2.7-4.4-2.7-4.4l-.4-.2c-.4 10.8-7.9 15.2-7.9 15.2l.8.4s2.1-1.7 5.4-3.2l-.1.1s2.3-.6 1.5 2.2c-.1.3-.2.6-.3.8v.1c-1.4 3.7-4.1 7.2-9.3 8.6l2 1.2s5.9-2.4 8.1-10.4c0 0 1.2-3.7 5.3-4.7.4-.1.6-.2.7-.3 2.3-.7 6.5-2.6 9.1-7.5 0 0 6.8-11-2.8-23.2 0 0-3.4-4.9-9.8-6.9.6-1.8 1.2-2.9 1.2-2.9 0-.1.1-.2.1-.2 4.3 3.8 10.2 8.3 17.5 12.1 8.8 4.9 7.1 9.3 5.6 10.1-1.4.8-3 0-3 0l-.5.3c7.3 2.6 8.2 8.6 8.2 8.6s5.5-13.1-8.5-19.6c0 0-10-4.6-19-11.9 1.6-2.4 3.5-4.1 5.3-5.3 2.8 3.8 8.3 8.9 17.5 8.4l1.5-4.7c-9.9 3.9-15.6-.5-18.4-4.1 5.5-3.3 10.9-2.5 10.9-2.5 11.8 1.1 15.6 9.2 15.6 9.2 3.7 6.8 0 11.1-2.2 11.7-3.2.9-5.1-.6-5.1-.6l-.4.2c8.1 7 6.9 15.7 6.9 15.7l.8-.4s0-2.7.9-6.2v.1s.9-2.2 2.7.2c.2.2.3.5.5.7 0 0 0 .1.1.1 2.1 3.4 3.1 7.7.9 12.7l2.2-.8s1.8-6.2-3.1-12.8c0 0-2.2-3.2-.4-7.1.2-.3.2-.6.3-.7.9-2.2 2-6.7-.2-11.8 0 0-4.3-12.2-19.8-12.3 0 0-5.8-.4-11.4 3.3-1-1.5-1.4-2.6-1.4-2.6 0-.1-.1-.2-.1-.3 5.7-1 12.8-2.8 20.3-6.2 9.3-3.8 11.7.2 11.4 1.9-.3 1.6-1.9 2.4-1.9 2.4l-.1.6c6.6-4.1 11.8-1.1 11.8-1.1s-6.8-12.5-20.6-5.6c0 0-9.8 5-21.2 7.5-.8-2.7-1-5.2-.8-7.5 4.7.1 12-1.1 17.2-8.6l-2.7-4.1c-3.1 10-9.9 11.9-14.4 11.9.9-6.4 4.9-10.1 4.9-10.1 8.2-8.6 16.9-6.5 16.9-6.5 7.6 1.4 8.6 7 7.8 9-1.3 3.1-3.6 3.7-3.6 3.7l-.1.5c10.5-2 16.5 4.4 16.5 4.4l.2-.8s-2.1-1.7-4.3-4.6h.1s-1.1-2.1 1.9-2c.3 0 .6 0 .8.1h.1c3.9.5 7.9 2.4 10.4 7.2l.8-2.2s-3.7-5.3-11.9-5.6c0 0-3.9-.3-5.8-4.1-.2-.3-.3-.5-.4-.7-1.2-2.1-4-5.8-9.3-7.2 0 0-12.2-4.3-21.9 7.8 0 0-3.9 4.3-4.5 11-1.9-.1-3.1-.5-3.1-.5-.1 0-.2-.1-.2-.1 2.8-5.1 5.8-11.8 7.8-19.8 2.8-9.7 7.4-9.1 8.5-7.8 1.1 1.2.7 3 .7 3l.4.4c.9-7.8 6.5-10 6.5-10s-14-2.4-17.2 12.7c0 0-2.2 10.8-7.3 21.3-2.6-1-4.7-2.4-6.3-4 3-3.6 6.7-10.1 4.1-19l-4.9-.4c5.9 8.7 3 15.2.2 18.8-4.5-4.7-4.9-10.2-4.9-10.2-1.6-11.8 5.5-17.3 5.5-17.3 5.8-5.1 10.8-2.5 11.9-.5 1.6 2.9.6 5.1.6 5.1l.3.4c5-9.5 13.7-10.3 13.7-10.3l-.5-.7s-2.7.6-6.3.5h.1s-2.3-.4-.4-2.7c.2-.2.4-.4.6-.7l.1-.1C132.7 5 136.7 3.1 142 4l-1.2-2s-6.4-.4-11.7 5.9c0 0-2.6 2.9-6.8 2-.4-.1-.6-.1-.8-.1-2.4-.3-7-.4-11.4 2.8 0 0-10.9 7-7.5 22.1 0 0 1 5.8 5.9 10.4-1.3 1.3-2.3 2.1-2.3 2.1-.1 0-.1.1-.2.1-2.2-5.3-5.6-11.9-10.6-18.5-5.8-8.2-2.4-11.5-.7-11.6 1.6-.1 2.7 1.3 2.7 1.3l.6-.1C92.7 13.8 94.5 8 94.5 8s-10.6 9.4-.8 21.4c0 0 7 8.4 12 19-2.5 1.4-4.8 2.1-7 2.4-.9-4.6-3.7-11.6-12.2-15.1l-3.4 3.6c10.6.8 13.9 7.2 14.9 11.6-6.4.6-11-2.5-11-2.5-10.2-6.1-10.1-15.1-10.1-15.1-.4-7.7 4.8-10 7-9.6 3.3.5 4.4 2.7 4.4 2.7h.5c-4.3-9.9.5-17.2.5-17.2h-.9s-1.2 2.5-3.5 5.2v-.1s-1.8 1.6-2.3-1.4c0-.3-.1-.6-.1-.9v-.1C82 8.1 83 3.8 87.1.3L84.8 0S80.5 4.8 82 12.9c0 0 .6 3.9-2.7 6.6-.3.2-.5.4-.6.5-1.7 1.6-4.7 5.2-4.9 10.7 0 0-1.4 12.9 12.5 19.7 0 0 5.1 2.9 11.8 1.9.3 1.8.2 3.1.2 3.1v.3c-5.5-1.6-12.8-3-21-3.2-10.1-.6-10.5-5.3-9.5-6.6 1-1.3 2.7-1.3 2.7-1.3l.3-.5c-7.7.8-11.1-4.1-11.1-4.1s.7 14.2 16.2 14c0 0 11-.2 22.3 2.4-.4 2.8-1.3 5.1-2.5 7-4.1-2.2-11.3-4.3-19.3.2l.6 4.9c7.2-7.7 14.1-6.4 18.2-4.4-3.6 5.4-8.8 7-8.8 7-11.1 4.2-18-1.5-18-1.5-6.3-4.5-4.8-10-3.1-11.5 2.5-2.3 4.9-1.7 4.9-1.7l.3-.4c-10.4-2.8-13-11.1-13-11.1l-.5.7s1.2 2.5 1.9 6l-.1-.1s.1 2.4-2.5 1c-.3-.1-.5-.3-.8-.5 0 0-.1 0-.1-.1-3.3-2.2-6.1-5.6-6.3-11l-1.6 1.6c-.1-.1 1 6.2 8.3 10.1zm52.5 19.2c-.2 0-.4 0-.6.1 0 0-1.2.2-3 .9-.9-2.1-2.3-4.3-4.4-6.4 3-2.3 6.2-4.4 9.5-6-.2 1.1-1.1 5.3-1.5 11.4zm9.3-2.5s-.6 1.1-1.2 2.9c-2.2-.6-4.8-.9-7.6-.5.1-3.8.4-7.6 1.3-11.2.8 1 3.5 4.3 7.8 8.2l-.3.6zm4.2-10c.1.2.1.4.2.5 0 0 .5 1.1 1.5 2.7-1.9 1.4-3.7 3.2-5.3 5.8-2.9-2.4-5.6-5.1-7.9-8 1 0 5.3 0 11.5-1zm-5.2-8.9c.2.1.4.1.5.2 0 0 1.2.3 3.2.5-.1 2.3.2 4.9 1.2 7.7-3.7.8-7.6 1.3-11.3 1.2.8-.8 3.4-4.2 6.4-9.6zm-9.6-1.8s1-.7 2.3-2.1c1.8 1.5 4 2.9 6.7 3.8-1.7 3.4-3.7 6.7-6 9.6-.3-1.2-1.2-5.3-3.5-10.9.2-.2.4-.3.5-.4zm-.9.6c1.6 3.4 2.9 7 3.7 10.6-1.1-.5-4.9-2.3-10.7-4v-.6s.1-1.2-.2-3.1c2.4-.4 4.8-1.3 7.2-2.9zm-7 7.2c3.7.9 7.3 2.1 10.7 3.8-1.1.5-4.9 2.4-9.9 5.9l-.4-.4s-.9-.8-2.6-1.8c1.1-2.1 1.9-4.6 2.2-7.5z" fill="#881340"/></svg>