<?xml version="1.0" encoding="utf-8"?>
<!-- Generator: Adobe Illustrator 21.0.2, SVG Export Plug-In . SVG Version: 6.00 Build 0)  -->
<svg version="1.1" id="Layer_1" xmlns="http://www.w3.org/2000/svg" xmlns:xlink="http://www.w3.org/1999/xlink" x="0px" y="0px"
	 viewBox="0 0 734 592" style="enable-background:new 0 0 734 592;" xml:space="preserve">
<g>
	<path d="M576.1,143.8c-34.7,27-69.3,53.9-104.1,80.9c-0.8-1-1.5-1.8-2.1-2.6c-18.9-23-42.2-39.4-70.9-47.8
		c-17.7-5.2-35.8-7-54.1-5.9c-19.7,1.2-37.3,8.4-53.2,19.9c-8.3,6-16,12.8-23.2,20.1c-0.9,0.9-1.7,1.9-2.5,2.9
		c-10.6,14-18.7,29.4-24,46.2c-0.7,2.1-0.7,4.5-1.2,6.7c-3.8,16.7-5,33.6-3.9,50.8c1.1,17.3,4.4,34.1,11.2,50.1
		c9.4,22.4,23.6,41.1,43.1,55.7c14.8,11,31.5,17.5,49.8,19.9c21.4,2.8,42.4,0.9,62.9-6.4c12.3-4.4,23.1-11.3,33.2-19.3
		c12.7-10,23.8-21.5,34.2-33.9c0.5-0.6,1-1.2,1.4-1.7c2.2-0.6,3.6,0.6,5.2,1.7c33.7,24.2,67.5,48.4,101.2,72.6
		c0.9,0.6,1.8,1.3,2.7,2c-0.4,0.5-0.6,1-0.9,1.3c-15.8,21.1-33.3,40.5-53.6,57.4c-14.2,11.8-29.9,21.2-46.5,28.9
		c-22.8,10.6-46.5,18.3-71.4,22.4c-13.4,2.2-26.9,3.7-40.5,4c-7.6,0.2-15.2,0.4-22.8,0.3c-11-0.2-22-1.1-32.9-2.6
		c-18.2-2.5-35.9-6.8-53.2-13c-27.7-10.1-53.2-24.3-76.4-42.5c-13.2-10.4-24.6-22.6-34.7-36c-5.9-7.9-11.5-15.9-17.1-24
		c-1.4-2-2.5-4.3-3.2-6.6c-1.2-3.7,0.1-6.4,3.5-8.2c3.2-1.7,6.8-2.2,10.4-2.7c9.5-1.1,19-0.8,28.5-1.1c9.5-0.3,19-0.6,28.4-2.3
		c5.9-1,11.7-2.5,17.1-5.2c7.9-3.9,13.5-9.8,15.5-18.7c1-4.4,1-8.9,0.5-13.4c-1.5-12.3-7.5-22.3-16.3-30.8
		c-7.8-7.6-16.8-13.2-26.6-17.7c-14.6-6.7-29.8-10.8-45.9-12.3c-15.9-1.4-31.6-3.9-46.9-8.5c-10.8-3.3-21.3-7.5-30.5-14.2
		c-6.3-4.5-11.6-9.8-14.7-17c-3.6-8.3-3.3-16.5,0.5-24.6c3.1-6.6,8.7-10.2,15.4-12.5c8.7-2.9,17.7-3.5,26.8-2.4
		c11.9,1.5,23.7,3.8,35,7.7c3.5,1.2,7.1,2.4,10.7,3.4c8.7,2.2,17.6,2.3,26.5,1.7c23.7-1.7,44.3-11,63.1-24.9
		c12.9-9.6,24.2-20.9,34.7-33c0.6-0.7,1.1-1.8,1.3-2.8c1.9-10.8,2.4-21.8,1.3-32.7c-0.9-9-2.9-17.7-6.3-26
		c-3-7.2-6.9-13.7-11.9-19.6c-4.9-5.8-7.8-12.6-8.1-20.1c-0.4-10.2,4.1-18.2,12.9-23.2c6-3.5,12.8-5,19.7-5.6
		c14.9-1.4,29.5,1.3,43.9,4.6c12.9,2.9,25.1,7.9,37.3,13c6.9,2.9,13.7,5.8,20.9,7.7c7.3,1.9,14.5,2.2,21.7-0.4
		c11.8-4.4,18.6-13.1,21.4-25.1c1.8-7.6,1.9-15.4,1.8-23.1c0-2.6,0.1-5.3,0.2-7.9c0-0.2,0-0.3,0-0.5c0.4-2.9,1.2-3.6,4.2-3
		c6.7,1.4,13.5,2.7,20.2,4.3c13.2,3.1,26.1,7.3,38.6,12.8c18.3,8.1,34.7,19.1,49.4,32.7c13.8,12.8,25.7,27.4,37.3,42.2
		c1.9,2.5,3.8,5,5.7,7.5C575.8,143.1,575.9,143.3,576.1,143.8z"/>
	<path d="M204.5,83c6.8,12.3,21.2,13,30.4,7c-0.1,0.7-0.2,1.2-0.4,1.6c-2.9,8.3-3,16.7,0.4,24.8c1.9,4.6,4.3,9.1,6.7,13.5
		c2.6,4.7,5.5,9.2,8.1,13.9c5.8,10.3,9.3,21.4,10,33.2c0.4,6.9-0.8,13.6-3.7,19.8c-2.2,4.7-4.9,9.1-7.5,13.6
		c-0.7,1.2-1.6,2.2-2.6,3.2c-3,3.1-5.9,6.4-9,9.3c-3.1,2.9-6.3,5.7-9.7,8.1c-9.7,6.7-19.6,13.2-30.3,18.5
		c-6.8,3.3-13.7,6.2-21.1,7.7c-6.9,1.4-13.8,1.6-20.8,1c-12.5-1.1-24.6-3.9-36.4-8.2c-6.9-2.5-14-4.7-21.4-5.2
		c-0.2,0-0.5-0.1-0.8-0.2c-0.4-1.5,0.2-2.8,0.6-4.1c2.3-7.4,4.6-14.8,7-22.2c7.5-23.4,18-45.4,31.6-66c17.8-27,39.9-49.7,66.6-67.9
		C203,83.9,203.7,83.5,204.5,83z"/>
	<path d="M118.2,430c-2.4-4.7-4.8-9.2-6.9-13.9c-6.3-13.8-10.5-28.3-13.9-43c-2.7-12.1-4.8-24.3-6.1-36.6c0-0.3,0-0.6-0.1-1.3
		c1,0.1,1.9,0.2,2.8,0.3c6.8,0.7,13.6,1.7,20.5,2.2c16.3,1.2,32.4,3.8,48.3,7.5c7.7,1.8,15.4,3.6,22.8,6.6c9,3.7,17.4,8.4,24.2,15.6
		c10.1,10.7,13.9,23.3,11.3,37.8c-1.3,7.2-5.5,12.3-12.2,15.3c-4.6,2.1-9.6,2.9-14.6,3.8c-7.7,1.4-15.4,0.9-23.2,0.3
		c-5.6-0.5-11.1-1-16.7-1.2c-11.2-0.4-21.9,1.8-32.4,5.5C120.9,429,119.8,429.4,118.2,430z"/>
	<path d="M241.2,81.4c2.3-6.5,2-12.6-0.6-18.7c0.8-0.4,1.4-0.7,2-1C265.4,51.2,289.2,43.9,314,40c18.7-3,37.5-4.1,56.4-3.5
		c13,0.4,25.7,3,38.4,5.6c0.5,0.1,0.9,0.3,1.4,0.5c1.7,10.5,2.2,20.9-0.8,31.1c-2.8,9.4-8.6,16.2-18.1,19.2
		c-7.1,2.3-14.2,1.7-20.6-2.2c-9.4-5.9-19.5-9.9-30-13.1c-19.9-5.9-40.2-9.1-61-8.3c-8.2,0.3-16.2,1.4-24,4.1c-4.7,1.6-9.1,3.8-13,7
		C242.2,80.8,241.9,80.9,241.2,81.4z"/>
	<path d="M30.4,259.6c-9.7,0.6-19.8-7.9-19.1-20.3c0.5-9.1,7.6-18.2,19.6-17.9c11.8,0.3,19.2,9.7,18.7,20.1
		C49.3,251.8,40.6,260,30.4,259.6z"/>
	<path d="M697.3,19.5c2.1-0.2,4.1-0.4,6.1-0.6c-3.2,13-6.4,25.7-9.5,38.4c0.1,0.1,0.3,0.1,0.4,0.2c0.5-0.6,1-1.2,1.6-1.7
		c5.5-5.7,12.2-7.7,19.9-6.1c5.3,1.1,8.6,5.1,9,10.5c1.2,16.1-10.4,29.9-26.4,31.4c-4,0.4-8,0.2-11.9-0.5c-3.8-0.7-5-2.4-4.2-6.4
		c0.7-3.8,1.6-7.7,2.5-11.5c3.8-16.1,7.7-32.2,11.5-48.3C696.6,23.2,696.9,21.4,697.3,19.5z M694.4,88.5c5.7,0.1,10.7-1.7,15-5.4
		c6.7-5.7,9.6-13.2,9.6-21.9c0-5.4-3.4-8.6-8.8-8.6c-5.5,0-10.1,2.2-13.7,6.3c-2.6,2.9-4.3,6.3-5.3,10.1c-1,3.9-1.9,7.8-2.8,11.6
		c-0.3,1.5-0.5,3-0.6,4.5c-0.1,2.1,0.3,2.6,2.3,2.9C691.5,88.3,693,88.4,694.4,88.5z"/>
	<path d="M238,73.2c0,8.8-6.9,15.5-15.8,15.4c-8.8-0.1-15.5-7-15.4-15.8c0.1-8.8,7-15.6,15.8-15.4C232.1,57.5,238.4,65.3,238,73.2z"
		/>
	<path d="M673.6,87.2c0.4,2.5,0.4,2.6-1.5,3.2c-2,0.7-4.1,1.3-6.3,0.7c-2.8-0.7-3.8-2.3-3.2-5.2c0.2-0.9,0.4-1.9,0.7-3.4
		c-0.8,0.9-1.3,1.4-1.7,1.9c-5.5,6.2-12.4,8.2-20.3,6.8c-4.9-0.9-8.1-4.6-8.7-9.7c-0.8-6.5,1-12.6,4.3-18.1
		c4.5-7.6,11.1-12.6,19.9-14c5.2-0.8,10.4-0.3,15.5,0.8c2,0.5,2.7,1.3,2.6,3.4c-0.1,2-0.3,4-0.8,5.9c-1.7,7.3-3.5,14.6-5.2,21.9
		c-0.3,1.1-0.5,2.2-0.6,3.3c-0.1,2.2,0.9,3.1,3.1,2.8C672,87.6,672.7,87.4,673.6,87.2z M661.2,52.3c-1.8,0.3-4.3,0.5-6.6,1.3
		c-12.9,4.5-17.5,18.5-16.3,27.4c0.7,4.9,3.9,7.5,8.8,7.2c7.2-0.5,12.4-4.2,16-10.4c1.5-2.7,2.4-5.6,3-8.6c0.9-4.5,2-8.9,2.9-13.4
		c0.5-2.3,0.3-2.5-2.2-2.9C665.3,52.7,663.7,52.6,661.2,52.3z"/>
	<path d="M361.9,427.1c-5.6,0.4-12.3-4.4-12.1-12.3c0.1-6.8,5.6-12.2,12.3-12.1c6.9,0.1,12.3,5.6,12.2,12.5
		C374.1,422,368.8,427.2,361.9,427.1z"/>
	<path d="M627.4,19.5c2-0.2,3.9-0.4,6-0.6c0,0.5,0.1,0.8,0,1c-4.1,16.7-8.3,33.5-12.4,50.2c-1.1,4.3-2,8.7-3,13.1
		c-0.1,0.5-0.2,1.1-0.3,1.7c-0.1,2.1,0.8,3,2.9,2.8c0.8-0.1,1.6-0.3,2.6-0.5c0.1,0.8,0.2,1.5,0.2,2.3c-2,1.4-4.2,1.8-6.5,1.9
		c-3,0.1-5.2-2.1-5.2-5.1c0-0.9,0.2-1.9,0.4-2.8c4.6-19,9.2-38,13.8-57C626.5,24.2,626.9,22,627.4,19.5z"/>
</g>
</svg>
