<svg id="ар_1" data-name="ар 1" xmlns="http://www.w3.org/2000/svg" viewBox="0 0 412.45 157.86"><defs><style>.cls-1{fill:#1d1d1b;}</style></defs><title>Lakme</title><path class="cls-1" d="M378.78.44c5.22,0,14.78.11,19.91-.14a13.43,13.43,0,0,0-.26,2.61,13.44,13.44,0,0,0,.26,2.61c-5.47-.38-12.14-1-19.91-.95-6,0-10,.27-15.49.66a13.18,13.18,0,0,0,0-5.23c5.14.26,10.27.44,15.49.44"/><path class="cls-1" d="M1.12,70.87C1.12,83,.56,95.19,0,107.27c8.71-.42,17.28-.71,26-.71s21.67.28,30.23.71a13.15,13.15,0,0,1,0-8.44c-14,1.82-29.95,1.82-43.16,1.82-.13-13.76-.42-30.35-.42-54,0-12.09.56-24.31,1.13-36.4a39.78,39.78,0,0,1-6.89.7A39.77,39.77,0,0,1,0,10.31C.56,22.39,1.12,34.62,1.12,46.7V70.87"/><path class="cls-1" d="M157.17,107.27a33.89,33.89,0,0,1,13.77,0c-.57-12.09-1.13-24.31-1.13-36.4V58.65l.7-.84c.42,0,.84.28,1.69,1.12,6,6,27.26,31.89,40.61,48.34a47.55,47.55,0,0,1,7.73-.71,56.61,56.61,0,0,1,8.43.71c-15.89-18-31.48-36.12-46.52-53.12,10.12-11.66,32-32.46,45-43.84a36.85,36.85,0,0,1-6.74.7,26,26,0,0,1-5.77-.7c-13.21,15-29.23,32.6-42.3,44-1.11,1-1.4,1.26-2,1.26s-.85-.28-.85-1.12V46.7c0-12.09.56-24.31,1.13-36.4A39.73,39.73,0,0,1,164,11a39.67,39.67,0,0,1-6.88-.7c.56,12.08,1.12,24.31,1.12,36.4V70.87c0,12.09-.57,24.32-1.12,36.4"/><path class="cls-1" d="M351.38,70.73c0,12.08-.56,24.31-1.12,36.54,8.58-.42,22.84-.71,31.41-.71s22.49.28,30.78.71a20.06,20.06,0,0,1-.42-4.08,22.77,22.77,0,0,1,.42-4.35c-8.85,1.68-36.76,1.82-49.26,1.82-.14-3.52-.28-10.4-.28-21.08,0-13.49,0-17,.14-20.37,6.75,0,35.77.29,45.46,1.27a22,22,0,0,1-.43-4.22,23.3,23.3,0,0,1,.43-4.35c-8.29.7-28.88,1.4-45.46,1.4,0-3.51-.14-11.24-.14-18.55,0-6.89.42-11.8.57-17.85,18.27,0,36.47,1,48.27,1.83a21.66,21.66,0,0,1,0-8.43c-8.29.42-22,.7-30.48.7s-22.57-.28-31-.7c.57,11.95,1.12,24.17,1.12,36.26V70.73"/><path class="cls-1" d="M135.31,107.27a39.52,39.52,0,0,1,14.88,0c-7.45-15-28.52-66.19-42.29-98.79h-2.67C90.89,41.64,94.48,35.42,79.44,68.31c2-2.65,8.18-9,10.86-10.69l13-30.46s12.59,28.22,14.87,34.33,6.49,17,6.49,17l10.54,29,.08-.19"/><path class="cls-1" d="M144.27,42.33c-37.69-2-70.17,24.86-82.9,64.95a62,62,0,0,1,7.45-.71,62,62,0,0,1,7.44.71c4.2-30,33.8-61.51,68-64.95"/><path class="cls-1" d="M247.85,8.48c-2.9,29.79-8.18,67.73-12.79,98.79a22,22,0,0,1,5.21-.71,17.42,17.42,0,0,1,4.62.71c.14-15.88,3.6-49.32,6.1-72.51h.28c11.48,24.31,23.22,48.48,33.51,71.81H286c10.42-25.29,22.55-48.34,34.56-71.81h.26c2.77,24,4.61,47.36,6.47,72.51a37.55,37.55,0,0,1,6.85-.71,30.83,30.83,0,0,1,6.2.71c-4.22-32.18-7.51-62.82-11.48-98.79h-1.7c-12.92,26-33.89,66.47-39.17,77.43-13.45-26.28-25.85-51-37.85-77.43h-2.24"/><path class="cls-1" d="M.29,148.17c0,3.06-.14,6.16-.29,9.23a10.1,10.1,0,0,1,1.75-.17,10.1,10.1,0,0,1,1.74.17c-.15-3.07-.28-6.16-.28-9.23V142c0-3.06.13-6.17.28-9.23a10.64,10.64,0,0,1-1.74.17A10.64,10.64,0,0,1,0,132.8c.14,3.06.29,6.17.29,9.23v6.14"/><path class="cls-1" d="M34.31,157.86c0-1.61-.1-9.48-.1-13.13,0-2.78.36-9.84.57-11.94l-1.14.18-1.21-.18c.3,5.49.3,12.44.3,18.83-4.36-4.39-12.24-13-18-19.29H14.1c.1,1.6.1,5.05.1,9.55,0,4.71-.46,13.84-.75,15.51a6,6,0,0,1,1.32-.17,4.79,4.79,0,0,1,1.24.17c-.18-1.43-.31-8.95-.31-12,0-3.78.07-5.92.1-7.24,6.09,6.49,12.58,13.33,18,19.72h.5"/><path class="cls-1" d="M43.82,152.66a10.57,10.57,0,0,1-.68,3.17,8.73,8.73,0,0,0,5.89,2c5.49,0,8.73-3.67,8.73-8,0-7.88-11.23-5.1-11.23-11.77a4.34,4.34,0,0,1,4.6-4.42c2.68,0,3.74,2,4.25,3.35h.42a11.47,11.47,0,0,1,1-3,7.88,7.88,0,0,0-5.28-1.68c-4.74,0-7.74,2.79-7.74,6.75,0,8.38,11.23,5.56,11.23,12.12a4.92,4.92,0,0,1-5.09,5.17,6.15,6.15,0,0,1-5.63-3.71h-.43"/><path class="cls-1" d="M70.78,134.12H74c3.67,0,6,.85,6,4.92,0,4.85-3.75,6-6.67,6a11.58,11.58,0,0,1-2.53-.29V134.12m-2.92,14c0,3.06-.15,6.16-.29,9.23a9,9,0,0,1,3.49,0c-.14-3.07-.29-6.16-.29-9.23v-2c.93.08,1.82.12,2.89.12,3.43,0,9.59-1.21,9.59-7.49,0-5.95-5.67-6-7.8-6-1,0-3.29.17-4.43.17s-2.32-.07-3.46-.17c.13,3.06.29,6.17.29,9.23Z"/><path class="cls-1" d="M92.69,148.17c0,3.06-.14,6.16-.29,9.23a10.25,10.25,0,0,1,1.75-.17,10.14,10.14,0,0,1,1.74.17c-.15-3.07-.29-6.16-.29-9.23V142c0-3.06.14-6.17.29-9.23a10.68,10.68,0,0,1-1.74.17,10.81,10.81,0,0,1-1.75-.17c.15,3.06.29,6.17.29,9.23v6.14"/><path class="cls-1" d="M107.59,148.17c0,3.06-.14,6.16-.29,9.23a9,9,0,0,1,3.49,0c-.15-3.07-.29-6.16-.29-9.23v-2.61h1.35a103.5,103.5,0,0,1,9.24,11.84,13.69,13.69,0,0,1,2.07-.17,14.69,14.69,0,0,1,2.14.17c-2.07-2.31-8-10-9.77-12.16,2.72-.36,7.32-2.21,7.32-6.81,0-4.24-3.39-5.64-7.41-5.64-1.36,0-2.72.18-4.08.18s-2.71-.07-4.06-.18c.14,3.07.29,6.17.29,9.24v6.14m2.92-6.14c0-2.57.11-5.14.22-7.74a31.08,31.08,0,0,1,3.45-.18c2.42,0,5.53.92,5.53,4.66,0,4.24-3.89,5.46-6.8,5.46a12.06,12.06,0,0,1-2.4-.18Z"/><path class="cls-1" d="M160,148.17c0,3.06-.13,6.16-.28,9.23,1.6-.11,3.18-.17,4.78-.17s3.17.17,4.78.17c5.63,0,13-3.28,13-12.8,0-7.34-3.42-11.8-11.77-11.8-1.78,0-3.6.18-5.39.18s-3.6-.07-5.38-.18c.15,3.07.28,6.17.28,9.24v6.14m2.92-6.14c0-2.57.08-5.1.22-7.38a44.75,44.75,0,0,1,5.49-.35c5.84,0,10.12,2,10.12,10.3,0,9.42-5.71,11.49-10.95,11.49a25.73,25.73,0,0,1-4.67-.36c-.14-2.46-.22-5-.22-7.55Z"/><path class="cls-1" d="M230.33,143.28c-2.5,0-5,.11-7.45.11s-5-.07-7.46-.11V142c0-3.06.14-6.17.29-9.23A10.8,10.8,0,0,1,214,133a10.48,10.48,0,0,1-1.74-.17c.14,3.06.28,6.17.28,9.23v6.14c0,3.06-.14,6.17-.28,9.23a10,10,0,0,1,1.74-.17,10.25,10.25,0,0,1,1.75.17c-.15-3.05-.29-6.16-.29-9.23V145c2.49,0,5-.07,7.46-.07s5,0,7.45.07v3.21c0,3.06-.15,6.17-.29,9.23a10.19,10.19,0,0,1,1.75-.17,10.09,10.09,0,0,1,1.74.17c-.15-3.05-.28-6.16-.28-9.23V142c0-3.06.13-6.17.28-9.23a8.81,8.81,0,0,1-3.49,0c.14,3.06.29,6.17.29,9.23v1.24"/><path class="cls-1" d="M257,146.2c-1.32,0-2.68.08-4,.08s-2.6-.08-3.85-.08l3.88-9.05,4,9.05m-3.46-13.86c-3.64,8.41-7.35,16.72-11.17,25.06a5.15,5.15,0,0,1,2.64,0,97,97,0,0,1,3.45-9.55c1.47,0,2.9-.08,4.36-.08s3.14,0,4.67.08c1.29,3.17,3,7.1,3.68,9.55a11.38,11.38,0,0,1,1.88-.17,11.54,11.54,0,0,1,1.89.17c-1.89-3.81-7.24-16.79-10.73-25.06Z"/><path class="cls-1" d="M274,148.17c0,3.06-.14,6.16-.28,9.23a9,9,0,0,1,3.49,0c-.14-3.07-.29-6.16-.29-9.23V142c0-3.06.14-6.17.29-9.23a8.82,8.82,0,0,1-3.49,0c.14,3.06.28,6.17.28,9.23v6.14"/><path class="cls-1" d="M290.35,148.17c0,3.06-.14,6.16-.29,9.23a9,9,0,0,1,3.49,0c-.14-3.07-.29-6.16-.29-9.23v-2.61h1.35a102.71,102.71,0,0,1,9.23,11.84,13.86,13.86,0,0,1,2.07-.17,14.94,14.94,0,0,1,2.15.17c-2.08-2.31-8-10-9.78-12.16,2.71-.36,7.31-2.21,7.31-6.81,0-4.24-3.39-5.64-7.41-5.64-1.35,0-2.72.18-4.07.18s-2.7-.07-4.06-.18c.14,3.07.29,6.17.29,9.24v6.14m2.92-6.14c0-2.57.11-5.14.22-7.74a31,31,0,0,1,3.45-.18c2.43,0,5.52.92,5.52,4.66,0,4.24-3.88,5.46-6.81,5.46a12,12,0,0,1-2.39-.18Z"/><path class="cls-1" d="M334.43,153.73l-.14-.15c-1.35,1-3.84,3-7.23,3-5.61,0-9.88-3.53-9.88-11.44s4.27-11.45,9.88-11.45a9.45,9.45,0,0,1,6.77,3.17l.22-.07a11.89,11.89,0,0,1,.75-2.79,19,19,0,0,0-7.73-1.64c-7.89,0-13.38,4.67-13.38,12.77s5.49,12.77,13,12.77a13.68,13.68,0,0,0,7.41-2l.32-2.11"/><path class="cls-1" d="M354.58,146.2c-1.32,0-2.68.08-4,.08s-2.6-.08-3.85-.08l3.89-9.05,4,9.05m-3.46-13.86c-3.64,8.41-7.35,16.72-11.16,25.06a5.12,5.12,0,0,1,2.63,0,97.29,97.29,0,0,1,3.46-9.55c1.47,0,2.89-.08,4.35-.08s3.13,0,4.67.08c1.29,3.17,3,7.1,3.67,9.55a10.47,10.47,0,0,1,3.78,0c-1.89-3.81-7.23-16.79-10.73-25.06Z"/><path class="cls-1" d="M370.18,148.17c0,3.06-.13,6.16-.28,9.23a10.09,10.09,0,0,1,1.74-.17,10.3,10.3,0,0,1,1.75.17c-.15-3.07-.3-6.16-.3-9.23v-2.61h1.36a102.78,102.78,0,0,1,9.24,11.84,13.74,13.74,0,0,1,2.07-.17,14.47,14.47,0,0,1,2.13.17c-2.06-2.31-8-10-9.76-12.16,2.71-.36,7.31-2.21,7.31-6.81,0-4.24-3.39-5.64-7.42-5.64-1.36,0-2.71.18-4.07.18s-2.7-.07-4.06-.18c.15,3.07.28,6.17.28,9.24v6.14M373.1,142c0-2.57.12-5.14.21-7.74a31.45,31.45,0,0,1,3.47-.18c2.42,0,5.52.92,5.52,4.66,0,4.24-3.89,5.46-6.81,5.46a12.09,12.09,0,0,1-2.4-.18Z"/><path class="cls-1" d="M396.95,148.13c0,3.07-.14,6.17-.29,9.27,2.18-.11,5.8-.17,8-.17s5.7.07,7.81.17l-.11-1,.11-1.11c-2.25.42-9.32.46-12.5.46,0-.89-.08-2.64-.08-5.34,0-3.44,0-4.32,0-5.17,1.71,0,9.07.07,11.53.31l-.1-1.06.1-1.11c-2.1.18-7.32.36-11.53.36,0-.89,0-2.85,0-4.7s.11-3,.14-4.53c4.64,0,9.25.25,12.25.47l-.1-1.07.1-1.07c-2.11.11-5.6.19-7.73.19s-5.72-.07-7.87-.19c.15,3,.29,6.13.29,9.2v6.14"/><path class="cls-1" d="M134.36,148.13c0,3.07-.15,6.17-.29,9.27,2.18-.11,5.8-.17,8-.17s5.7.07,7.8.17l-.1-1,.1-1.11c-2.24.42-9.32.46-12.49.46,0-.89-.07-2.64-.07-5.34,0-3.44,0-4.32,0-5.17,1.7,0,9.07.07,11.53.31l-.11-1.06.11-1.11c-2.1.18-7.33.36-11.53.36,0-.89,0-2.85,0-4.7s.1-3,.14-4.53c4.63,0,9.25.25,12.25.47l-.11-1.07.11-1.07c-2.1.11-5.59.19-7.73.19s-5.72-.07-7.86-.19c.13,3,.29,6.13.29,9.2v6.14"/></svg>