<?xml version="1.0" encoding="utf-8"?>
<!-- Generator: Adobe Illustrator 21.0.2, SVG Export Plug-In . SVG Version: 6.00 Build 0)  -->
<svg version="1.1" xmlns="http://www.w3.org/2000/svg" xmlns:xlink="http://www.w3.org/1999/xlink" x="0px" y="0px"
	 viewBox="0 0 285.3 166.1" style="enable-background:new 0 0 285.3 166.1;" xml:space="preserve">
<style type="text/css">
	.st0{fill:#005758;}
	.st1{fill-rule:evenodd;clip-rule:evenodd;fill:#005758;}
</style>
<g id="Background">
</g>
<g id="Layer_1">
	<path class="st0" d="M281.9,127.3l-3.2,2.4c-1.7-2.3-3.8-4-6.3-5.2c-2.4-1.2-5.1-1.8-8.1-1.8c-3.2,0-6.2,0.8-8.9,2.3
		c-2.7,1.5-4.8,3.6-6.3,6.2c-1.5,2.6-2.3,5.5-2.3,8.8c0,4.9,1.7,9,5,12.3c3.4,3.3,7.6,4.9,12.7,4.9c5.6,0,10.3-2.2,14.1-6.6l3.2,2.4
		c-2,2.6-4.5,4.5-7.5,5.9c-3,1.4-6.3,2.1-10,2.1c-7,0-12.6-2.3-16.6-7c-3.4-4-5.1-8.7-5.1-14.3c0-5.9,2.1-10.8,6.2-14.9
		c4.1-4,9.3-6,15.5-6c3.7,0,7.1,0.7,10.1,2.2C277.5,122.5,280,124.6,281.9,127.3 M231.4,119.8h4v40.2h-4V119.8z M204.2,123.8v-3.9
		h22v3.9h-8.9v36.3h-4.1v-36.3H204.2z M178.2,119.8h23v3.9h-18.9v12.6H201v3.9h-18.8v15.9H201v3.9h-22.8V119.8z M125.1,160.1
		l5.6-40.2h0.8l16.3,33l16.2-33h0.6l5.8,40.2h-3.9l-4-28.8l-14.2,28.8h-1.1l-14.3-29l-3.8,29H125.1z M94.9,152.6l3.4-2.1
		c2.4,4.4,5.2,6.7,8.3,6.7c1.4,0,2.6-0.3,3.8-0.9c1.2-0.6,2.1-1.5,2.7-2.5c0.6-1.1,0.9-2.2,0.9-3.4c0-1.3-0.5-2.7-1.4-4
		c-1.3-1.8-3.5-3.9-6.9-6.5c-3.4-2.5-5.4-4.4-6.3-5.5c-1.4-1.9-2.1-4-2.1-6.2c0-1.7,0.4-3.3,1.3-4.8c0.8-1.4,2-2.6,3.5-3.4
		c1.5-0.8,3.2-1.2,5-1.2c1.9,0,3.7,0.5,5.3,1.4c1.6,0.9,3.4,2.7,5.2,5.2l-3.3,2.5c-1.5-2-2.8-3.3-3.9-4c-1.1-0.6-2.2-1-3.5-1
		c-1.6,0-3,0.5-4,1.5c-1,1-1.6,2.2-1.6,3.6c0,0.9,0.2,1.7,0.5,2.5c0.4,0.8,1,1.7,2,2.7c0.5,0.5,2.3,1.8,5.2,4
		c3.5,2.6,5.9,4.9,7.2,6.9c1.3,2,1.9,4,1.9,6.1c0,2.9-1.1,5.5-3.3,7.6c-2.2,2.2-4.9,3.2-8.1,3.2c-2.4,0-4.7-0.7-6.6-2
		C98.4,157.8,96.6,155.6,94.9,152.6z M69.8,122.8c-3,0-5.8,0.8-8.4,2.3c-2.7,1.6-4.7,3.6-6.2,6.3c-1.5,2.6-2.2,5.6-2.2,8.8
		c0,4.8,1.6,8.8,5,12.1c3.3,3.3,7.3,4.9,11.9,4.9c3.1,0,6-0.8,8.6-2.3c2.7-1.5,4.7-3.6,6.2-6.2c1.5-2.6,2.2-5.5,2.2-8.8
		c0-3.2-0.7-6.1-2.2-8.7c-1.5-2.6-3.6-4.6-6.3-6.2C75.6,123.5,72.8,122.8,69.8,122.8z M69.6,118.8c6.1,0,11.2,2,15.2,6.1
		c4.1,4.1,6.1,9.1,6.1,15c0,5.9-2,10.9-6.1,15c-4.1,4.1-9.1,6.2-14.9,6.2c-5.9,0-11-2-15-6.1c-4.1-4.1-6.1-9-6.1-14.8
		c0-3.9,0.9-7.4,2.8-10.8c1.9-3.3,4.4-5.9,7.6-7.8C62.3,119.8,65.8,118.8,69.6,118.8z M42.4,127.3l-3.2,2.4c-1.7-2.3-3.8-4-6.3-5.2
		c-2.4-1.2-5.1-1.8-8.1-1.8c-3.2,0-6.2,0.8-8.9,2.3c-2.7,1.5-4.8,3.6-6.3,6.2c-1.5,2.6-2.3,5.5-2.3,8.8c0,4.9,1.7,9,5,12.3
		c3.4,3.3,7.6,4.9,12.7,4.9c5.6,0,10.3-2.2,14.1-6.6l3.2,2.4c-2,2.6-4.5,4.5-7.5,5.9c-3,1.4-6.3,2.1-10,2.1c-7,0-12.6-2.3-16.6-7
		c-3.4-4-5.1-8.7-5.1-14.3c0-5.9,2.1-10.8,6.2-14.9c4.1-4,9.3-6,15.5-6c3.7,0,7.1,0.7,10.1,2.2C38,122.5,40.5,124.6,42.4,127.3z"/>
	<path class="st0" d="M220.9,62.6c0-4.9,1.7-9.2,5.2-12.7c3.4-3.5,7.6-5.3,12.5-5.3h5.7c3.3,0,6.1-1.2,8.4-3.5
		c2.3-2.3,3.5-5.1,3.5-8.4h-17.6c-8.3,0-15.4,2.9-21.3,8.7c-5.9,5.8-8.9,12.9-8.9,21.2v30c3.4,0,6.4-1.2,8.8-3.7
		c2.5-2.5,3.7-5.4,3.7-8.9V62.6z M234.4,56.7h21.9c0,3.3-1.2,6.1-3.5,8.4c-2.3,2.3-5.2,3.4-8.4,3.4h-9.9c-1.6,0-3-0.6-4.2-1.7
		c-1.1-1.1-1.7-2.5-1.7-4.2c0-1.7,0.6-3.1,1.7-4.3C231.3,57.3,232.7,56.7,234.4,56.7z M173.3,44.6c-4.9,0-9.1,1.8-12.5,5.4
		c-3.4,3.6-5.1,7.8-5.1,12.8c0,4.9,1.7,9.2,5.1,12.7c3.4,3.5,7.6,5.3,12.5,5.3c4.9,0,9.1-1.8,12.5-5.3c3.4-3.5,5.2-7.8,5.2-12.7
		c0-4.9-1.7-9.2-5.2-12.8C182.4,46.4,178.2,44.6,173.3,44.6z M173.3,32.7c8.3,0,15.4,2.9,21.3,8.8c5.9,5.9,8.9,12.9,8.9,21.2
		c0,8.3-3,15.3-8.9,21.2c-5.9,5.8-13.1,8.7-21.3,8.7c-8.3,0-15.4-2.9-21.3-8.7c-5.9-5.8-8.9-12.9-8.9-21.2c0-8.3,3-15.4,8.9-21.2
		C158,35.6,165.1,32.7,173.3,32.7z M105.4,62.6c0-4.9,1.7-9.2,5.2-12.7c3.4-3.5,7.6-5.3,12.5-5.3h5.7c3.3,0,6.1-1.2,8.4-3.5
		c2.3-2.3,3.5-5.1,3.5-8.4h-17.6c-8.3,0-15.4,2.9-21.3,8.7c-5.9,5.8-8.9,12.9-8.9,21.2v30c3.4,0,6.4-1.2,8.8-3.7
		c2.5-2.5,3.7-5.4,3.7-8.9V62.6z M38.9,80.7v-18c0-4.9,1.7-9.2,5.1-12.8c3.4-3.6,7.6-5.4,12.5-5.4c4.9,0,9.1,1.8,12.5,5.4
		c3.4,3.6,5.1,7.8,5.1,12.8c0,4.9-1.7,9.2-5.1,12.7c-3.4,3.5-7.6,5.3-12.5,5.3H38.9z M38.8,95v-2.4h17.7c8.3,0,15.4-2.9,21.4-8.7
		c5.9-5.8,8.9-12.9,8.9-21.2c0-8.3-3-15.4-9-21.2c-6-5.9-13.1-8.8-21.3-8.8c-8.3,0-15.4,2.9-21.3,8.8c-5.9,5.9-8.9,12.9-8.9,21.2
		v44.9c3.4,0,6.4-1.2,8.8-3.7C37.6,101.4,38.8,98.4,38.8,95z"/>
	<path class="st1" d="M135,13.1l24.3,7l14-18.2l14,18.2l19.6-5.7c0.8,3.9-1.9,7.6-5.1,8.5L184.7,28l-11.4-14.8L161.9,28l-12.3-3.6
		l6,10.4c-3.2,1-7.4,0.6-9.8-3.6L135,13.1z"/>
</g>
</svg>
