<?xml version="1.0" encoding="utf-8"?>
<!-- Generator: Adobe Illustrator 21.0.2, SVG Export Plug-In . SVG Version: 6.00 Build 0)  -->
<svg version="1.1" id="Layer_1" xmlns="http://www.w3.org/2000/svg" xmlns:xlink="http://www.w3.org/1999/xlink" x="0px" y="0px"
	 viewBox="0 0 1088.9 515.9" style="enable-background:new 0 0 1088.9 515.9;" xml:space="preserve">
<g>
	<g>
		<path d="M593,61c5-5.5,21.1-14.7,30.3-15.6c9.2-0.9,27.8-6.1,32.8-9c5-2.9,10.6-4.7,18.9-5.9c8.3-1.1,14.9-11.2,14.9-11.2
			s-2.3,6.1,0.1,6.3c1,4,5,8.1,20.5-16.8c0,0-15.1,20.4-19.6,16.7c0.5-0.1,1.1-0.4,1.8-0.9c6.2-4,12.1-14.8,13.7-19.3
			c1-3-6.6,4.2-11.8,9.4c0.5-0.7,11.1-15.4,15.5-10.1c-0.5,1.6-0.3,3.6-0.3,3.6c4-7.6,15.7,8.5,15.9,9.1
			c-5.3-5.2-12.9-12.4-11.8-9.4c1.6,4.5,7.4,15.2,13.7,19.3c0.7,0.5,1.3,0.7,1.8,0.9c-4.5,3.7-19.6-16.7-19.6-16.7
			c15.6,24.9,19.5,20.8,20.5,16.8c1.4-0.1,1.3-2,0.9-3.7c2.8,3,7,6.5,11.7,7.2c8.3,1.1,13.9,3,18.9,5.9s23.6,8.1,32.8,9
			c9.2,0.9,25.4,10.2,30.3,15.6c4.9,5.4,33.5,5.4,41.2,5c0,0-30.3-1.4-37-6.4c-7.4-3.2-13.6-13.6-32-16.9c-18.4-3.3-29-5.4-33.1-8.5
			c-4.1-3.1-14.5-4.5-18.9-5.9c-3.6-1.1-9.6-3.3-14.2-6.6c-0.2-0.5-0.3-0.9-0.3-0.9s-2.1-2.1-4.7-4.7c-10-15.1-13.8-16-15.3-14
			c-0.4-3.7-2.8-8.9-16.1,11.3c-2.7,2.6-4.7,4.7-4.7,4.7c-4.6,4.7-12.6,7.6-17,9c-4.4,1.3-14.8,2.8-18.9,5.9
			c-4.1,3.1-14.7,5.2-33.1,8.5c-18.4,3.3-24.6,13.8-32,16.9c-6.7,5-37,6.4-37,6.4C559.5,66.4,588.1,66.4,593,61z"/>
		<path d="M698.3,150.8c-0.1,0-0.1-0.1-0.2-0.1c0,0,0,0,0,0C698.2,150.7,698.2,150.7,698.3,150.8z"/>
		<path d="M659.5,57.9c13-5.8,44.6-14.3,44.9-39.6c0,0-6.7,18.5-24.1,25.7c-17.4,7.2-39.8,14.7-36,25.9
			c3.8,11.3,36.8,20.9,54.9,22.4c0,0-33.8-9.9-43.2-16.7S646.5,63.7,659.5,57.9z"/>
		<path d="M764.6,78.3c-9.4,6.8-43.2,16.7-43.2,16.7c18.2-1.5,51.1-11.2,54.9-22.4c3.8-11.2-18.6-18.7-36-25.9
			C722.9,39.5,716.2,21,716.2,21c0.3,25.3,32,33.7,44.9,39.6C774.1,66.4,773.9,71.5,764.6,78.3z"/>
		<path d="M915.3,395.9c-43.9,0-61.6,32-64.4,62.1l-0.1,0.5c-9.8-11.4-24-21.2-40.9-21.2c-2.3,0-4.4,0.2-6.5,0.6l-0.1-0.1
			c-0.5-0.5-1-1-1.5-1.5c-9.1-8.7-23.2-14.6-40.2-14.6c-31.5,0-61.5,22.3-94,41.9c-33.4,20.1-74.1,42.9-116.2,43.4
			c-42.1-0.6-82.8-26.1-116.2-46.2c-32.5-19.6-62.5-39.6-94-39.6c-17.8,0-32.4,6.7-41.5,16.3l-0.5,0.5c-2-0.4-4.1-0.5-6.3-0.5
			c-16.9,0-31.1,9.7-40.9,21.2l-0.5-1c-2.8-30-20.6-61.8-64.3-61.8c-26.9,0-48.5,20.6-48.5,44.1c0,32.2,45.2,51.6,68.2,24
			c13.2-27.3-18.3-28.1-18.3-28.1c-3.9,0-2.6,3.2,0.3,3.9c14.4,3.7,9.3,30.3-12.1,30.3c-17,0-30.7-13.2-30.7-29.4
			c0-21.5,15.8-38.6,41.3-38.6c44.1,0,59.1,31.3,60.5,59.4v0.2v0.9v0.8c-5.4,7.3-8.9,14.9-10.3,20.7c-2.8,12.1,8.1,17.4,11.7,4.2
			c1.3-4.9,2.2-10.4,2.6-16.2v0.2c7.6-13.4,21.4-30.3,40.5-30.3c1.1,0,2.2,0.1,3.2,0.2c-0.5,0.7-0.9,1.4-1.3,2.1
			c-3.2,5.3-4.9,11-4.9,16.9c0,16.8,11.4,27.9,24.5,27.9c7.5,0,14.5-7.3,14.5-18.4c0-8.4-7-23.4-20.9-30c-1.2,1.2-2.3,2.5-3.3,3.8
			c12.9,5.7,18.8,19.8,18.8,26.3c0,7.2-4.8,12.4-9.6,12.4c-9.6,0-15.8-9.9-15.8-20.6c0-5.8,2.2-12.1,6.4-17.8
			c0.1-0.1,0.2-0.2,0.2-0.3c0,0,0,0,0,0c1.1-1.4,2.1-2.7,3.3-3.8c0,0,0,0,0,0c7.4-7.4,18.7-12.8,33.6-12.8c31.5,0,61.4,23.5,94,43.1
			c38,22.9,74.2,46.4,116.2,45.4c42,1,78.1-22.5,116.2-45.4c32.5-19.6,62.5-43.1,94-43.1c14,0,24.9,4.8,32.2,11.6
			c0.2,0.2,0.4,0.4,0.6,0.6c0.2,0.2,0.4,0.4,0.6,0.6c-13.9,6.6-20.8,21.6-20.8,30c0,11,7,18.4,14.5,18.4c13.2,0,24.5-11.1,24.5-27.9
			c0-6.7-2.3-13.2-6.4-18.9c1.1-0.1,2.2-0.2,3.4-0.2c19,0,32.7,16.7,40.4,30.1c0.1,0.8,0.2,1.7,0.3,2.5c0.4,4.9,1.3,9.5,2.4,13.7
			c3.6,13.2,14.5,7.9,11.7-4.2c-1.3-5.8-4.9-13.3-10.3-20.7v-0.1c0.8-28.5,15.5-61.3,60.5-61.3c25.6,0,41.3,17,41.3,38.6
			c0,16.2-13.7,29.4-30.7,29.4s-26.5-26.6-12.1-30.3c2.8-0.7,4.1-3.9,0.3-3.9c-10.1,0-28.3,7.3-18.3,28.1c23,27.7,68.2,8.2,68.2-24
			C963.8,416.5,942.2,395.9,915.3,395.9z M245,487.4c0.1-0.4,0.2-0.9,0.4-1.5c0-0.2,0.1-0.3,0.1-0.5l0.3-0.7
			c-0.2,0.4-0.3,0.8-0.4,1.2C245.3,486.4,245.1,486.9,245,487.4z M788.8,483.1c-4.8,0-9.6-5.2-9.6-12.4c-0.1-6.5,5.8-20.7,18.7-26.3
			l-0.1-0.2c4.5,5.8,6.8,12.3,6.8,18.3C804.6,473.2,798.4,483.1,788.8,483.1z M856.9,487.3l-0.2-0.8
			C856.8,486.8,856.9,487.1,856.9,487.3z"/>
		<path d="M1055.1,249.2h29.1l1.9-3.5H1057l25.6-40.9c-4.5,1.2-8.7,1.7-12.9,1.7c-4,0-8.2-0.5-12.7-1.7l-26,40.9h-22.2l-2.2,3.2
			h22.7l-28.6,45.4c-0.9,0.8-2,1.8-3.4,3.3c-13.6,18.2-26.2,27.3-37.8,27.3c-9.3,0-14-5.9-14-17.7c0-4.2,1.1-9.6,3.1-16l2.7-2.1
			c6.5-3.8,11.5-6.7,14.7-8.6c20.6-12.5,30.9-22.2,30.9-28.9c0-3.8-2.3-5.7-6.9-5.7c-6.7,0-14.2,4.2-22.5,12.7
			c-8.4,8.4-15.4,18.9-21,31.4c-7,5.4-14.3,12.2-22,20.7c12.1-17.9,18.2-32.2,18.2-43c0-14.5-5.9-21.7-17.8-21.7
			c-8.2,0-23.7,14.4-46.5,43.2l-3,4c-0.6,0.2-1.3,0.9-2.1,2c-13.4,18.9-26.7,34.7-39.8,47.5C820.4,355.6,811,362,805,362
			c-5.8,0-8.7-3.3-8.7-9.9c0-6.8,6.8-21.1,20.5-42.8l39.3-61.7c-6.4,1-11.5,1.5-15.6,1.5c-3.4,0-7.4-0.5-11.8-1.5L817.4,268
			c1.1-4,1.7-7.1,1.7-9.5c0-8.4-4.6-12.6-13.8-12.6c-10.8,0-25,4.6-42.7,13.9c-40.1,20.8-60.3,44.7-60.3,71.6c0,9.7,2.7,17.8,8,24.2
			c5.4,6.4,12,9.6,19.8,9.6c7.4,0,15-3.5,22.9-10.4c7.8-6.8,19.2-20.1,34-39.8c-4.8,8.8-7.1,17-7.1,24.6c0,7.3,2.1,13.5,6.5,18.3
			c4.3,4.8,9.9,7.3,16.7,7.3c10,0,23.8-10,41.3-29.9c18.6-20.8,29.2-33.8,31.8-39c0.5-0.5,1-1.1,1.5-1.9
			c21.9-30.2,36.9-45.3,45.2-45.3c3.4,0,5.1,1.9,5.1,5.9c0,6.8-9.1,24.2-27.3,52.3l-36.5,56c8.4-0.6,13-0.9,13.6-0.9
			c1.3,0,5.9,0.3,13.7,0.9c14.3-23.3,24.5-38.8,30.4-46.4c5.8-7.6,13.4-15.2,22.8-22.9c-1.7,6-2.7,11-2.7,15
			c0,12.4,5.6,18.6,16.9,18.6c9.9,0,20.5-5.9,31.7-17.7l0.5-0.5c-7.5,12.3-11.3,22.6-11.3,30.8c0,7.2,2.4,13.2,7,17.9
			c4.7,4.8,10.5,7.2,17.5,7.2c14.1,0,35.1-18.3,63-55l9.6-12.4c1.3-1.8,2-3,2.2-3.4c0-0.8-0.5-1.2-1.3-1.2s-1.7,0.7-2.7,2.1
			c-32,44.5-54.7,66.8-68.2,66.8c-7,0-10.5-3.2-10.5-9.5c0-5.8,3-13.4,9.1-23.2L1055.1,249.2z M785.1,313.5
			c-25.2,32.2-42.9,48.3-53.1,48.3c-8.6,0-12.9-4.6-12.9-13.7c0-15.7,11-36.1,33.2-61.4c22.2-25.2,40.1-37.9,53.7-37.9
			c6.7,0,10,3.5,10,10.4C816,269,805.6,287.1,785.1,313.5z"/>
		<path d="M604,130c-5.3,2.7-9.1,5.8-9.2,8.1c-0.1,3.3,2.4,3.6,5.1,3.2c2.8-0.5,5.8-1.9,5.8-1.9s4.1-1.2,9.1-2.7
			c4.7,3.4,9,7.4,13.4,11.2c-5.8,3.1-12.6,8.3-10.7,13.6c-9.9,3.6-18.8,10-18.6,13.7c0.5,6.6,11,0.4,11,0.4c2.1-1,9.9-4.5,16.6-7.5
			c6-2,13.1-3.8,20.3-5.4c5.8,4.5,11.6,8.9,17.4,13.3c-2.2,1.1-4.1,2.2-5.4,3.2c-5,3.7-28.7,17.4-21.9,25.9
			c-6.1,4.5-10.5,9.7-10.2,12.7c0.8,7.1,10.2-0.7,10.2-0.7s-13.1,2.9,1.4-9c0.3-0.3,0.7-0.6,1.1-0.9h0.1v-0.1
			c4.2-3.3,8-5.5,11.3-6.8c-0.4,0.2-0.8,0.5-1.2,0.8c-9.1,6.6-11,14.5-11,14.5s3.8-2.9,8.2-6.1c0.4,1.1,8.6-3.8,8.6-3.8
			c6.4-5,15.9-10.3,26.3-15.5c3.1,2.7,5.6,5.3,7.5,7.7c3,3.9,6.7,7.1,10.8,10.9c-9.3,11-13.6,16.6-6.7,21c-3.6,6-5.4,12.1-3.9,14.7
			c3.8,6.4,9.2-3.8,9.2-3.8s-10.9,6.8-2.5-8.8c2.7-5.1,5.7-8.6,8.4-11.1c-1.1,1.3-2.3,2.8-3.2,4.3c-3.6,5.9-3.5,14.1-3.5,14.1
			s5.8-9.5,9.5-16.2c0.4-0.9,1-1.9,1.6-3c0.2-0.5,0.4-0.9,0.6-1.2c0.5-1,0.7-1.7,0.6-2c0.3-0.2,0.7-0.3,1-0.5l0.1,0.2
			c-0.6,0.8-1.1,1.6-1.6,2.4l-0.1,0.1c-0.2,0.4-0.4,0.7-0.6,1c-0.5,0.9-1,1.9-1.6,3c-2.4,4.8-2.5,7.5-2.5,7.5
			c2.2-3.5,4.4-6.5,6.5-9.2c1.4,2,2.9,4.2,4.4,6.6c0,0-0.2-3-3-8.4c3.7,6.7,10,17,10,17s0.1-8.2-3.5-14.1c-0.9-1.5-2-3-3.2-4.3
			c2.7,2.5,5.7,6,8.4,11.1c8.5,15.6-2.5,8.8-2.5,8.8s5.5,10.2,9.2,3.8c1.6-2.6-0.3-8.7-3.9-14.7c7-5,0.8-12.5-4.1-18
			c3.1-2.8,5.9-5.4,8.3-8.5c2.6-3.3,6.6-7.1,11.3-11.1c8.9,4.6,16.9,9.2,22.5,13.6c0,0,8.2,4.9,8.6,3.8c4.4,3.2,8.2,6.1,8.2,6.1
			s-1.9-8-11-14.5c-0.4-0.3-0.8-0.6-1.2-0.8c3.3,1.4,7.1,3.5,11.3,6.8v0.1h0.1c0.3,0.3,0.7,0.6,1.1,0.9c14.5,11.9,1.4,9,1.4,9
			s9.4,7.8,10.2,0.7c0.3-3-4.1-8.2-10.2-12.7c6.1-8.1-14.3-21.6-23.3-26.9c2.2-1.7,4.4-3.3,6.4-4.8c6-4.4,10.7-8,15.6-11.9
			c0.3,1,1.3,2,1.3,2s23.1,10.3,26.7,12.4c0,0,10.6,6.3,11-0.4c0.4-6-23.7-19.2-36.4-15.9c4.6-3.7,9.5-8,15.9-13.7
			c3.9-3.5,9.9-7.3,16.9-11.1c1.7,1.1,2.9,2.3,2.4,3.3c-0.7,1.6-5.5,1.5-5.5,1.5c2.8,1.3,11.1,4.4,10.9-1.3c0-1.6-1.7-3.4-4.4-5.3
			c19.4-9.9,45.6-19.1,62-21.1c23.6-2.9,83.4-6.3,83.4-6.3c-10.6-4.7-90.7-0.2-109.2,3.1c-18.5,3.3-47.5,21.2-61.7,33.5
			c-14.3,12.3-30.4,27.6-43.4,37.9s-24.8,21.1-24.8,21.1c-6.9,6.3-11.7,11.8-15,16.4c-0.1,0-0.1,0-0.2,0c-1.3-0.9-2.1-1.1-1.8,0.2
			c-6,1.1-12.2,7.2-16.4,13.7c-0.9-2.7-1-7.4,4.4-14c3.9-4.8,8.5-10.3,12.8-15.4c0.3-0.3,0.5-0.6,0.7-0.9c5-6,9.4-11.4,11.4-14.4
			c0.6-0.9,1.2-1.8,1.8-2.7c0.8-0.8,1.9-2,2.5-3l-0.3-0.2c2.8-3.8,5.7-7.6,9-10.3l0.6,0.2c0.5-0.4,1-0.9,1.5-1.4
			c2-0.7,3.5-1.1,4.5-1.4c9.9-2.7,19-10.2,19-10.2c-3.9,2.8-29.3,8.8-44,14.4c-2.5,0.9-5.9,2.4-9.8,4.1l-0.4,0.2
			c-13.6,6.1-33.2,15.8-46.2,23.7c-5.7-2.7-15,1-22.6,6.1c0.4-4.5,3.9-12.5,21.2-20.5c0,0,16.9-10.5,28.3-14.4
			c7.7-2.6,15.8-6.9,24.5-11.1l0.3,0.2c0.7-0.3,1.3-0.5,2-1l-0.3-0.1c3.5-1.7,7-3.3,10.7-4.7c0,0-5.2,1.9-11.8,4.3
			c-6.1-2.2-12-4.3-15.6-5.6c4.7,2,9.1,4.1,13.5,6.2c-6.2,2.3-13.3,4.8-18.5,6.7c-6.7-2.1-14-4.2-20.3-6.1c3-0.6,5.6-1.2,7.6-1.7
			c4.9-1.3,10.9-3.3,17.3-5.3c0.1,0,0.1,0.1,0.2,0.1c9.9-3,20.7-5.8,29.7-5.6c22.8,0.6,25.7-7.8,25.7-7.8c-4.2,2-17.3,3.8-28.9,4.4
			c-11.7,0.6-43.4,10.8-43.4,10.8c-20.4,3.8-34.5,7.6-44,10.8c0.4-0.6,1.1-1.5,0.9-2.3c0.7,0.1,1,0.2,1,0.2c-0.4-0.3-1-0.6-1.5-0.9
			c-0.1-0.1-0.2-0.1-0.4-0.2c-4.7-2.1-11.4-1.2-18,1c0.6-4.2,5.6-11.3,29.8-16.1c0,0,12.5-0.8,24.5-5.7c12-4.9,47-14.3,47-14.3
			s-35.2,6.1-49.3,10.7c-13.9,4.5-31,8.3-36.6,9.8c-4-3.6-8-7.2-12.2-10.6c17.3-4.9,47.1-5.4,58.8-7.2c13-2,33.8-7.7,48.5-5.8
			c14.7,1.9,26.7-4.9,26.7-4.9c-4.5,1.5-17.8,1.9-29.4,1.2s-44.6,6-44.6,6c-25.9,2-42,5-51.7,7.5l0.1-0.1c5.8-2.4,5.5-4.4,5.5-4.4
			c-4.5-4-13.2-3.5-21.5-1.2c2.1-4.1,9.1-9.6,30.9-12.1c0,0,12.5,0.1,25-3.8c12.4-3.9,48.3-10.5,48.3-10.5s-35.7,3.2-50.2,6.7
			s-32.2,5.9-37.7,6.9c-4.5,0.8-18.7,6.3-18.6,13.4c-0.3,0-0.5,0.1-0.7,0.2c-15.1-10.4-34.9-21.1-48.8-23.6
			c-18.5-3.3-98.6-7.9-109.2-3.1c0,0,59.8,3.4,83.4,6.3C555,108.6,584.3,119.2,604,130z M808.5,164.9c7.2,4.1,8.4,6.2,7.6,7.2
			c-0.8,1.1-3.6,1.1-4.9,1c0.3-1.1-8.3-10.4-17.4-14.2C798,159.8,803,161.6,808.5,164.9z M760.8,196l-0.9-0.5c0.5,0,1.1,0.1,1.7,0.1
			C761.3,195.7,761,195.8,760.8,196z M756.9,178.3c1.1,0.7,2.3,1.4,3.5,2.2c17.3,8,20.8,16,21.2,20.5c-7.5-5.2-16.8-8.8-22.6-6.1
			c-4-2.4-8.6-5-13.5-7.6C749.1,184.3,753,181.2,756.9,178.3z M721.2,211c3.5,4.5,7.4,10.5,5.3,15.2c-2.6-4.2-6.1-8.2-9.8-10.9
			C718.3,213.8,719.8,212.4,721.2,211z M735.3,167.9c-2.1,1.7-5.3,4.7-9.5,9.4c-2.4-1.2-4.7-2.3-6.9-3.3
			C725.2,171.5,730.9,169.4,735.3,167.9z M713.5,176.1c3.2,1.4,6.4,2.8,9.7,4.2c-2.6,3-5.4,6.5-8.6,10.6c-1.1,1.5-2.2,2.9-3.3,4.3
			c-3.6-4.5-7.1-9.2-10.7-13.7C705,179.6,709.4,177.8,713.5,176.1z M698.1,182.7c3.6,5,7.7,9.8,11.7,14.6c-2.5,3-4.8,5.8-6.9,8.3
			c-5.2-6.1-11.2-11.7-17.5-17.1C689.6,186.5,693.8,184.6,698.1,182.7z M660.7,198.2c-0.3,0.2-0.6,0.3-0.9,0.5
			c-0.2-0.2-0.5-0.3-0.8-0.4C659.6,198.2,660.2,198.2,660.7,198.2z M687.1,165.9l-0.7,0.3c-0.3-0.3-0.6-0.6-0.9-0.8
			C686,165.5,686.6,165.7,687.1,165.9z M667.7,158.6c5,2.5,10.3,4.3,15.7,6.1l0.2,0.1c0.6,0.6,1.3,1.1,1.9,1.7
			c-5.6,2.2-12.3,5-17.8,7.7c-5.1-4.1-10.1-8.4-15-12.7C658,160.4,663.1,159.5,667.7,158.6z M619.5,163.8c2.7-1.1,5.1-1.8,7.3-2.3
			c-9.1,3.8-17.8,13.1-17.5,14.2c-1.3,0-4.1,0-4.9-1c-0.8-1,0.5-3.1,7.6-7.2c2.5-1.5,4.9-2.7,7.2-3.6c0.2,0.2,0.4,0.4,0.6,0.6
			C619.8,164.5,619.7,164.3,619.5,163.8z M613.3,129.4c0.3,0.6,0.7,1.1,1.2,1.7c0,0-0.4-0.8-0.4-2c4.1-1.4,7.7-2.2,10.8-2.6
			c-10.9,2.6-19.2,12.9-19.2,12.9s-4.8,0-5.5-1.5c-0.5-1.1,1.2-3.1,8.4-6.5C610.2,130.6,611.8,130,613.3,129.4z"/>
		<path d="M331.1,266.7c-30,20.1-44.9,40.9-44.9,62.6c0,9.7,3.1,18,9.4,25s13.9,10.4,22.8,10.4c17.1,0,35.5-13.2,55.1-39.4
			c3.6,1.7,7.6,2.5,12.2,2.5c10.9,0,23-6.2,36-18.6c1.4-1.4,2.8-2.6,4-3.8c-3.5,5.9-6,10.1-7.3,12.6c-3.8,7.3-5.7,14.7-5.7,22.4
			c0,7.1,2,12.8,6.1,17.4c4,4.5,9.3,6.8,15.6,6.8c13,0,32.9-17.3,59.6-51.8c-2,5.4-2.9,10.9-2.9,16.4c0,9.7,3.1,18,9.4,25
			s13.9,10.4,22.8,10.4c17.2,0,35.5-13.2,55.1-39.4c3.6,1.7,7.6,2.5,12.2,2.5c10.9,0,23-6.2,36-18.6c8.8-7.9,13.1-13.2,13.1-15.5
			c0-0.5-0.3-0.8-0.8-0.8c-0.8,0-2,0.9-3.6,2.9c-5.6,8.3-12.9,15.4-21.8,21.3c-8.9,5.9-16.7,8.8-23.4,8.8c-3.6,0-7-0.9-9.9-2.5
			c17.9-22.8,26.9-42.2,26.9-58.4c0-12.9-6.4-19.4-19.1-19.4c-13.7,0-31,7.1-52,21.3c-16.9,11.3-29,22.8-36.3,34.6
			c-30.5,40.1-51.6,60.2-63.5,60.2c-5.6,0-8.4-3.2-8.4-9.5c0-5.6,5.2-17,15.5-34.3c10.2-17.3,46.6-75,108.8-173.2
			c-4.7,1.7-9.9,2.5-15.6,2.5c-3.4,0-7.3-0.5-11.8-1.7c-18.4,31.1-41,67.7-67.8,110c-9.6,15.1-17.4,27.5-23.5,37.4
			c-0.7,0.3-1.7,1.2-3,2.8c-5.6,8.3-12.9,15.4-21.8,21.3c-8.9,5.9-16.7,8.8-23.4,8.8c-3.6,0-7-0.9-9.9-2.5
			c17.9-22.8,26.9-42.2,26.9-58.4c0-12.9-6.4-19.4-19.1-19.4C369.4,245.4,352.1,252.5,331.1,266.7z M538.3,285
			c19.4-24.5,35.8-36.7,49.3-36.7c10.8,0,16.2,5.7,16.2,17.1c0,6.1-1.2,11.5-3.5,16.3c-1-2.8-2.5-4.2-4.9-4.2
			c-5.5,0-11.1,3.6-16.9,10.9s-8.7,14.5-8.7,21.3c0,4.9,2.2,9.5,6.5,14c-19,25-36.5,37.5-52.5,37.5c-9.7,0-14.6-4.8-14.6-14.5
			C509.2,330,518.9,309.4,538.3,285z M398.8,265.4c0,6.1-1.2,11.5-3.5,16.3c-1-2.8-2.5-4.2-4.9-4.2c-5.5,0-11.1,3.6-16.9,10.9
			s-8.7,14.5-8.7,21.3c0,4.9,2.2,9.5,6.5,14c-19,25-36.5,37.5-52.5,37.5c-9.7,0-14.6-4.8-14.6-14.5c0-16.7,9.7-37.3,29.1-61.7
			c19.4-24.5,35.8-36.7,49.3-36.7C393.4,248.3,398.8,254,398.8,265.4z"/>
		<path d="M94.2,368.8c57.3,0,109.2-20.8,155.4-62.2c16.1-14.3,27.5-28.4,34.5-42.2c7-13.9,14.6-37.3,22.9-70.3
			c5.2-21.1,9.1-35.6,11.8-43.7c20.7-11.6,38.1-23.8,52.4-36.5c14.4-12.7,21.5-22.4,21.5-29.2c0-5.5-3.5-8.2-10.5-8.2
			c-12,0-26.1,7.9-42.2,23.8c-16.2,15.9-29.6,34.8-40.3,56.9c-16.7,9.5-36,21.2-57.8,35c2.6-9.5,4-18.8,4-27.6
			c0-16.6-5.4-29.7-16.1-39.4c-10.8-9.7-25.3-14.5-43.5-14.5c-33.4,0-67.4,11.9-101.6,35.8c-26.8,18.8-47.7,39.9-62.5,63.4
			S0,257,0,280.7c0,36.9,15.5,62.9,46.4,78C38.9,372,35.1,384.1,35.1,395c0,7.7,2,15.8,5.9,24.5c3.9,8.7,7.6,13.1,11,13.1
			c1.4,0,2.2-0.6,2.2-1.7c0-1-0.5-2-1.4-2.9c-8.5-10.1-12.7-21.2-12.7-33.3c0-9.5,3.5-20.8,10.5-33.7
			C63.2,366.2,77.7,368.8,94.2,368.8z M349,99.6c12.2-13,23.3-19.5,33.2-19.5c4.2,0,6.2,1.6,6.2,5c0,5.9-6.4,14.5-19.1,26
			c-12.9,11.4-29.1,22.7-48.6,34.1C327.3,127.8,336.8,112.6,349,99.6z M297,162.9c-3.7,7.9-6.9,15.6-9.6,23
			c-11.2,29.4-19.4,49.4-24.4,60c-5.1,10.6-11.9,22.1-20.7,34.4c-18.7,26.6-41.1,47.3-67.1,62.3c-26.1,14.9-53.1,22.4-81,22.4
			c-15.4,0-29.2-2.6-41.4-7.8c11.7-18.1,25.9-35.4,42.7-51.8c8.2,3.3,15.7,5,22.5,5c22.6,0,46.1-11.2,70.6-33.7
			c24.6-22.4,41.7-48.5,51.5-78.3C260.6,185.1,279.6,173.3,297,162.9z M98.5,302.4c24.7-24.3,65-54.8,120.9-91.3l14.6-9.4
			c-10.9,28.9-27.7,53.7-50.4,74.3c-22.7,20.6-44.4,31-65.1,31C111.4,307,104.7,305.5,98.5,302.4z M16.5,295.8
			c0-42.1,18.6-82.8,55.9-122.2c37.3-39.4,75.9-59,115.7-59c16.2,0,29.1,4.5,39,13.5c9.9,9,14.8,20.9,14.8,35.6
			c0,9-1.9,19.7-5.4,32.2c-64.3,39.7-111.4,74.4-141.1,104.2c-9-7.2-13.6-15.5-13.6-24.8c0-5,1.3-10,4-15c2.6-5.1,5.2-7.6,7.7-7.6
			c0.9,0,1.4,0.4,1.4,1.3c0,0.3-0.3,1.3-0.9,3.2c-1.4,2.4-2.2,4.6-2.2,6.7c0,6.6,3.7,9.9,10.9,9.9c5.1,0,9.4-1.7,13.1-5
			c3.7-3.4,5.5-7.2,5.5-11.7c0-8.7-5-13.1-14.9-13.1c-8,0-14.8,3-20.5,9c-5.6,6-8.4,13.2-8.4,21.6c0,11,4.8,20.6,14.6,28.6
			c-18.8,18.7-33.2,35.9-43.3,51.6C27.3,343.1,16.5,323.5,16.5,295.8z"/>
	</g>
</g>
</svg>
