<?xml version="1.0" encoding="utf-8"?>
<!-- Generator: Adobe Illustrator 21.0.2, SVG Export Plug-In . SVG Version: 6.00 Build 0)  -->
<svg version="1.1" id="Слой_1" xmlns="http://www.w3.org/2000/svg" xmlns:xlink="http://www.w3.org/1999/xlink" x="0px" y="0px"
	 viewBox="0 0 344 145.8" style="enable-background:new 0 0 344 145.8;" xml:space="preserve">
<g>
	<path d="M169.3,27.4l-2.8-1.1c-2.7-1.1-3-2.6-3-3.4c0-1.8,1.3-3.4,4-3.4c1.2,0,2.2,0.3,3,1c0.6,0.5,1,1.1,1.3,1.8l3.5-2
		c-0.6-1.2-1.4-2.1-2.1-2.8c-0.7-0.6-1.8-1.3-3.6-1.7l8.8-15.3h-4.9L167,11.7l-6.5-11.2h-4.9l9,15.5c-3.4,1.1-5.3,3.9-5.3,7
		c0,4.2,3.4,6.1,5.7,7.1l2.7,1.1c1.9,0.8,4,1.9,4,4.8c0,2.8-2,4.7-4.6,4.7c-1.7,0-2.9-0.7-3.7-1.7c-0.7-0.9-1.2-2.2-1.2-3.6
		l-4.3,0.9c0.2,1.9,0.8,3.8,2.4,5.5c1.4,1.6,3.4,2.8,6.6,2.8c5.3,0,9.1-3.7,9.1-9C176,32.5,174.5,29.5,169.3,27.4"/>
	<polygon points="164.8,45.1 164.8,57.2 169.1,57.2 169.1,45.1 169.3,44.7 166.9,44.7 164.6,44.7 	"/>
	<polygon points="117.3,145.8 117.3,137.8 122.7,143.5 122.7,138.3 123.8,138.3 123.8,146.2 118.4,140.5 118.4,145.8 	"/>
	<path d="M132.3,144h-3.2l-0.8,1.8H127l3.7-7.9l3.5,7.9H133L132.3,144z M131.8,142.9l-1.1-2.5l-1.2,2.5H131.8z"/>
	<rect x="137.5" y="138.3" width="1.1" height="7.5"/>
	<polygon points="143.8,138.3 143.8,144.7 146,144.7 146,145.8 142.6,145.8 142.6,138.3 	"/>
	<path d="M158.5,144h-3.2l-0.8,1.8h-1.2l3.7-7.9l3.5,7.9h-1.2L158.5,144z M158.1,142.9l-1.1-2.5l-1.2,2.5H158.1z"/>
	<path d="M169.1,140c-0.8-0.8-1.6-0.8-2-0.8c-1.6,0-2.7,1.2-2.7,2.8s1.1,2.8,2.7,2.8c0.9,0,1.6-0.5,2-0.9v1.4
		c-0.8,0.4-1.5,0.6-2.1,0.6c-1.4,0-2.2-0.6-2.7-1c-0.9-0.8-1.2-1.8-1.2-2.8c0-1.4,0.6-2.3,1.2-2.9c0.8-0.7,1.7-1,2.7-1
		c0.7,0,1.3,0.1,2,0.5v1.3H169.1z"/>
	<path d="M177.2,144H174l-0.8,1.8H172l3.7-7.9l3.5,7.9H178L177.2,144z M176.7,142.9l-1.1-2.5l-1.2,2.5H176.7z"/>
	<path d="M183.9,138.3c1,0,1.9,0.1,2.8,0.7c0.9,0.7,1.4,1.8,1.4,3s-0.5,2.3-1.5,3c-0.9,0.6-1.7,0.7-2.7,0.7h-1.5v-7.5h1.5V138.3z
		 M183.5,144.7h0.5c0.6,0,1.3,0,2-0.5c0.5-0.4,1-1.1,1-2.1s-0.5-1.8-1-2.2c-0.7-0.5-1.4-0.5-2-0.5h-0.5V144.7z"/>
	<polygon points="196,139.4 193,139.4 193,141.1 195.9,141.1 195.9,142.2 193,142.2 193,144.7 196,144.7 196,145.8 191.8,145.8 
		191.8,138.3 196,138.3 	"/>
	<polygon points="199.5,145.8 201,137.7 203.6,143.5 206.3,137.7 207.7,145.8 206.5,145.8 205.7,141.3 203.6,146.1 201.4,141.3 
		200.6,145.8 	"/>
	<polygon points="213,142.5 210.6,138.3 211.9,138.3 213.6,141.3 215.3,138.3 216.6,138.3 214.2,142.5 214.2,145.8 213,145.8 	"/>
	<path d="M22.1,86.2c0,0.2-0.2,0.3-0.6,0.3c-1.2,0-2,0.2-2.3,0.6c-0.3,0.2-1.2,2.1-2.8,5.7c-0.7,1.6-1.4,2.9-2.1,4.1
		c-0.4,0.8-0.7,1.4-0.8,1.7c-0.1,0.3-0.1,0.9-0.1,1.9v6.3c0,0.7,0.1,1.2,0.3,1.3c0.2,0.1,0.8,0.2,2,0.3c0.6,0,0.9,0.1,0.9,0.3
		c0,0.2-0.2,0.2-0.5,0.2h-0.4l-4.6-0.1c-1.3,0-2.4,0-3.2,0.1c-0.1,0-0.3,0-0.5,0c-0.3,0-0.5-0.1-0.5-0.3c0-0.2,0.3-0.3,0.8-0.3
		c1.2,0,1.9-0.2,2.2-0.3c0.2-0.2,0.3-0.7,0.3-1.6v-7C10,99,9.4,97.7,8.3,95.6L5,89c-0.3-0.6-0.7-1.4-1.2-2.2
		c-0.2-0.2-0.8-0.3-1.6-0.3S1,86.4,1,86.1c0-0.2,0.2-0.3,0.5-0.3c0.5,0,1.4,0,2.8,0.1c0.8,0,1.4,0,1.7,0L9.9,86c0.2,0,0.3,0,0.5,0
		c0.4,0,0.6,0.1,0.6,0.3c0,0.2-0.4,0.3-1.1,0.3c-1.4,0-2.1,0.2-2.1,0.7c0,0.4,0.7,1.9,2.1,4.6l3,5.7c0.5-1,1.2-2.2,1.9-3.6l2-3.9
		c0.7-1.4,1.1-2.4,1.1-2.8c0-0.3-0.2-0.5-0.6-0.5c-0.8-0.1-1.3-0.2-1.6-0.1c-0.5,0-0.7-0.1-0.7-0.3c0-0.2,0.2-0.3,0.6-0.3h1.9h1.1
		C20.9,85.9,22.1,86,22.1,86.2"/>
	<path d="M118.4,86.2c0,0.2-0.2,0.3-0.6,0.3c-1.2,0-2,0.2-2.3,0.6c-0.3,0.2-1.2,2.1-2.8,5.7c-0.7,1.6-1.4,2.9-2.1,4.1
		c-0.4,0.8-0.7,1.4-0.8,1.7c-0.1,0.3-0.1,0.9-0.1,1.9v6.3c0,0.7,0.1,1.2,0.3,1.3c0.2,0.1,0.8,0.2,2,0.3c0.6,0,0.9,0.1,0.9,0.3
		c0,0.2-0.2,0.2-0.5,0.2H112l-4.6-0.1c-1.3,0-2.4,0-3.2,0.1c-0.1,0-0.3,0-0.5,0c-0.3,0-0.5-0.1-0.5-0.3c0-0.2,0.3-0.3,0.8-0.3
		c1.2,0,1.9-0.2,2.2-0.3c0.2-0.2,0.3-0.7,0.3-1.6v-7c-0.2-0.5-0.9-1.8-1.9-3.9l-3.3-6.6c-0.3-0.6-0.7-1.4-1.2-2.2
		c-0.2-0.2-0.8-0.3-1.6-0.3c-0.8,0-1.2-0.1-1.2-0.4c0-0.2,0.2-0.3,0.5-0.3c0.5,0,1.4,0,2.8,0.1c0.8,0,1.4,0,1.7,0l3.8-0.1
		c0.2,0,0.3,0,0.5,0c0.4,0,0.6,0.1,0.6,0.3c0,0.2-0.4,0.3-1.1,0.3c-1.4,0-2.1,0.2-2.1,0.7c0,0.4,0.7,1.9,2.1,4.6l3,5.7
		c0.5-1,1.2-2.2,1.9-3.6l2-3.9c0.7-1.4,1.1-2.4,1.1-2.8c0-0.3-0.2-0.5-0.6-0.5c-0.8-0.1-1.3-0.2-1.6-0.1c-0.5,0-0.7-0.1-0.7-0.3
		c0-0.2,0.2-0.3,0.6-0.3h1.9h1.1C117.3,85.9,118.4,86,118.4,86.2"/>
	<path d="M50,86.3c0,0.2-0.2,0.3-0.6,0.3h-0.7h-0.5c-0.6,0-0.9,0.1-1,0.4c0,0.2-0.1,0.4-0.1,0.8v12.4c0,3.2-0.6,5.6-1.8,7
		c-1.2,1.5-3.1,2.2-5.8,2.2c-3.2,0-5.5-0.9-6.8-2.7c-0.9-1.2-1.3-3.2-1.3-6V87.4c-0.1-0.4-0.3-0.6-0.8-0.7c-0.1,0-0.5,0-1.2,0
		c-0.4,0-0.6-0.2-0.6-0.3c0-0.2,0.2-0.3,0.5-0.3H30h0.8h1h4.7h0.4c0.4,0,0.6,0.1,0.6,0.4c0,0.2-0.1,0.2-0.2,0.3
		c-0.1,0-0.6,0-1.3,0.1c-0.3,0-0.5,0-0.6,0.1c-0.2,0.1-0.3,0.2-0.4,0.5c0,0.1,0,0.7,0,1.9V101c0,2.9,0.5,4.9,1.4,6s2.3,1.6,4.1,1.6
		c3.4,0,5.3-1.9,5.7-5.7c0.1-0.6,0.1-3,0.1-7.3v-1.9V91v-2.3V88v-0.4c0-0.5-0.2-0.8-0.7-0.9c-0.2,0-0.6-0.1-1.3-0.1
		c-0.4,0-0.7-0.1-0.7-0.4c0-0.2,0.2-0.3,0.5-0.3h0.4h2.9h0.8h0.6h0.5C49.8,86,50,86.1,50,86.3"/>
	<path d="M75.3,106.4c0,0.6,0,1.5-0.1,2.8h-0.4c-0.1,0-0.5,0-1-0.1c-0.5,0-1.1-0.1-1.7-0.1l-13.7,0c-0.4,0-0.6-0.1-0.6-0.3
		c0-0.2,0.3-0.3,0.9-0.3c0.8,0,1.3-0.1,1.5-0.3c0.2-0.1,0.2-0.6,0.2-1.2V88.3c0-0.8-0.1-1.3-0.2-1.4c-0.2-0.1-0.8-0.2-1.8-0.2
		c-0.4,0-0.6-0.1-0.6-0.4c0-0.2,0.1-0.3,0.4-0.3h0.3c0.7,0.1,2.2,0.1,4.3,0.1c0.2,0,0.6,0,1.2,0c0.6,0,1-0.1,1.4-0.1h0.4
		c0.4,0,0.6,0.1,0.6,0.3c0,0.1-0.1,0.2-0.2,0.2s-0.5,0.1-1.1,0.1s-1,0.1-1.1,0.3c-0.1,0.2-0.2,0.8-0.2,1.7v19.5c0.6,0,1.4,0,2.5,0
		c2.6,0,4.4-0.1,5.5-0.4s1.8-0.8,2.2-1.5c0.4-0.7,0.6-1.7,0.7-2.9c0-0.3,0.1-0.4,0.4-0.4s0.4,0.2,0.4,0.5v0.8v0.3v0.5v1.4H75.3z"/>
	<path d="M91.8,108.7c0,0.2-0.1,0.3-0.4,0.3H91c-0.1-0.1-1.6-0.1-4.5-0.1c-0.6,0-1.1,0-1.7,0.1c-0.3,0-0.7,0-1.3,0
		c-0.3,0-0.4-0.1-0.4-0.3c0-0.2,0.3-0.3,0.9-0.3c0.9,0,1.4-0.1,1.6-0.3c0.2-0.2,0.2-0.8,0.2-1.9V88.7c0-1.1-0.1-1.7-0.2-1.8
		c-0.1-0.2-0.7-0.4-1.8-0.4c-0.4,0-0.6-0.1-0.6-0.2c0-0.2,0.1-0.3,0.4-0.3H88c0.3,0,1,0,1.9,0h1.3c0.4,0,0.5,0.1,0.5,0.3
		c0,0.2-0.5,0.3-1.5,0.3c-0.6,0-0.9,0.1-1,0.3c-0.1,0.2-0.2,0.6-0.2,1.4V106c0,1.3,0.1,1.9,0.2,2.1c0.2,0.2,1,0.4,2.2,0.4
		C91.6,108.4,91.8,108.5,91.8,108.7"/>
	<path d="M140.7,108.8c0,0.2-0.2,0.3-0.5,0.3c-0.2,0-0.4,0-0.6,0l-4.2-0.1l-4.2,0.1c-0.2,0-0.3,0-0.5,0c-0.4,0-0.7-0.1-0.7-0.4
		s0.3-0.4,0.9-0.4c1.9,0,2.9-0.2,2.9-0.6c0,0,0-0.1-0.1-0.3l-0.3-0.9l-0.2-0.5c-0.2-0.7-0.7-2.2-1.5-4.5h-7.1c-1.3,3.5-2,5.6-2,6.1
		c0,0.3,0.1,0.5,0.4,0.6c0.1,0,0.6,0.1,1.7,0.1c0.6,0,1,0.1,1,0.3c0,0.2-0.3,0.3-0.9,0.3c-1,0-2.2,0-3.5-0.1c-0.3,0-0.7,0-1,0
		c-0.4,0-0.7,0-1,0.1c-0.2,0-0.3,0.1-0.4,0.1c-0.3,0-0.5-0.1-0.5-0.3c0-0.2,0.3-0.3,1-0.3s1.2-0.1,1.5-0.3c0.3-0.2,0.5-0.5,0.7-1.1
		c2.8-8.1,5.1-14.7,6.9-19.6c0.1-0.3,0.2-0.6,0.3-0.9l0.1-0.6c0.1-0.2,0.2-0.4,0.3-0.4s0.1,0.1,0.2,0.2c0.3,0.9,0.9,2.7,2,5.4
		c0.8,2.1,2.8,7.5,5.9,16.1c0.2,0.5,0.4,0.8,0.7,1c0.3,0.1,0.8,0.2,1.7,0.2C140.4,108.5,140.7,108.6,140.7,108.8 M131.7,100.9
		c-0.4-1-1-2.6-1.8-4.9l-1.6-4.6c-0.9,2.4-2,5.6-3.4,9.5H131.7z"/>
	<path d="M174.1,102.5c0,1.9-0.7,3.5-2.2,4.8c-1.4,1.3-3.2,2-5.2,2c-1.2,0-2.6-0.4-4.3-1.1c-0.4-0.2-0.8-0.3-1-0.3
		c-0.3,0-0.4,0.3-0.5,0.9c0,0.3-0.2,0.5-0.4,0.5s-0.3-0.1-0.3-0.4c0-0.2,0-0.3,0-0.4c0.2-1.4,0.3-2.6,0.3-3.7c0-0.2,0-0.8-0.1-1.9
		c0-0.1,0-0.3,0-0.5c0-0.3,0.1-0.5,0.4-0.5c0.2,0,0.4,0.3,0.5,0.8c0.6,4,2.4,5.9,5.6,5.9c1.3,0,2.4-0.4,3.1-1.1
		c0.7-0.8,1.1-1.8,1.1-3.2c0-1.2-0.4-2.3-1.1-3.2c-0.7-0.9-1.9-1.7-3.7-2.6c-2.1-1-3.6-2-4.4-3c-0.8-1-1.2-2.2-1.2-3.6
		c0-1.8,0.6-3.3,1.8-4.5s2.7-1.8,4.5-1.8c0.8,0,1.8,0.3,3.1,0.8c0.5,0.2,0.8,0.3,1,0.3s0.4,0,0.5-0.1s0.1-0.3,0.2-0.7
		c0-0.2,0.2-0.3,0.4-0.3s0.3,0.1,0.3,0.4c0,0.2,0,0.3,0,0.4c-0.1,0.5-0.1,1.2-0.1,1.9c0,1.1,0.1,1.9,0.2,2.5v0.5
		c0,0.2-0.1,0.4-0.3,0.4s-0.4-0.3-0.5-0.8c-0.2-1.3-0.8-2.4-1.7-3.3s-1.9-1.3-3-1.3s-2,0.4-2.6,1.1s-1,1.7-1,2.9
		c0,1.4,0.5,2.5,1.4,3.4c0.5,0.5,1.7,1.2,3.4,2.1c2.1,1,3.6,2.1,4.5,3.2C173.6,100,174.1,101.2,174.1,102.5"/>
	<path d="M200.6,91.9c0,0.3-0.1,0.4-0.4,0.4c-0.3,0-0.5-0.3-0.6-0.9c0-0.4-0.1-0.8-0.1-1.2c-0.2-0.8-0.4-1.5-0.8-2
		c-0.5-0.7-1.2-1.2-2.3-1.4c-0.7-0.1-1.2-0.2-1.7-0.2c-1,0-1.7,0.1-1.9,0.1v20c0,0.8,0.2,1.3,0.6,1.5c0.2,0.1,0.8,0.2,1.9,0.2
		c0.3,0,0.4,0.1,0.4,0.3c0,0.2-0.2,0.3-0.5,0.3c-0.2,0-0.3,0-0.5,0c-1.3,0-2.3-0.1-2.8-0.1c-0.7,0-1.4,0-2.1,0.1c-0.6,0-1.5,0-2.4,0
		c-0.5,0-0.8-0.1-0.8-0.3c0-0.2,0.5-0.3,1.4-0.3c0.7,0,1.1-0.1,1.3-0.4c0.1-0.2,0.2-0.6,0.2-1.4V86.8c-2.2,0-3.5,0.1-4.1,0.3
		c-1.4,0.5-2.2,1.9-2.4,4.1c-0.1,0.7-0.2,1-0.5,1s-0.4-0.2-0.4-0.7c0-0.2,0-0.5,0-0.7l0.1-0.8c0.1-1,0.2-2.4,0.3-4h1.5l6.8,0.1
		c0.8,0,2,0,3.7,0L200,86c0,1.2,0.2,3.1,0.4,5.5c0,0.1,0,0.1,0,0.2C200.5,91.8,200.6,91.9,200.6,91.9"/>
	<path d="M229.1,108.8c0,0.2-0.2,0.3-0.5,0.3c-0.2,0-0.4,0-0.6,0l-4.2-0.1l-4.2,0.1c-0.2,0-0.3,0-0.5,0c-0.4,0-0.7-0.1-0.7-0.4
		s0.3-0.4,0.9-0.4c1.9,0,2.9-0.2,2.9-0.6c0,0,0-0.1-0.1-0.3l-0.3-0.9l-0.2-0.5c-0.2-0.7-0.7-2.2-1.5-4.5H213c-1.3,3.5-2,5.6-2,6.1
		c0,0.3,0.1,0.5,0.4,0.6c0.1,0,0.6,0.1,1.7,0.1c0.6,0,1,0.1,1,0.3c0,0.2-0.3,0.3-0.9,0.3c-1,0-2.2,0-3.5-0.1c-0.3,0-0.7,0-1,0
		c-0.4,0-0.7,0-1,0.1c-0.2,0-0.3,0.1-0.4,0.1c-0.3,0-0.5-0.1-0.5-0.3c0-0.2,0.3-0.3,1-0.3s1.2-0.1,1.5-0.3c0.3-0.2,0.5-0.5,0.7-1.1
		c2.8-8.1,5.1-14.7,6.9-19.6c0.1-0.3,0.2-0.6,0.3-0.9l0.1-0.6c0.1-0.2,0.2-0.4,0.3-0.4s0.1,0.1,0.2,0.2c0.3,0.9,0.9,2.7,2,5.4
		c0.8,2.1,2.8,7.5,5.9,16.1c0.2,0.5,0.4,0.8,0.7,1c0.3,0.1,0.8,0.2,1.7,0.2C228.8,108.5,229.1,108.6,229.1,108.8 M220.1,100.9
		c-0.4-1-1-2.6-1.8-4.9l-1.6-4.6c-0.9,2.4-2.1,5.6-3.4,9.5H220.1z"/>
	<path d="M256.6,97.5c0,3.9-1.4,6.9-4.1,9.1c-2,1.6-4.6,2.4-8,2.4h-1.2h-3h-1.7H236h-0.5c-0.4,0-0.6-0.1-0.6-0.3
		c0-0.2,0.4-0.3,1.1-0.3c0.9,0,1.5-0.2,1.7-0.5c0.1-0.2,0.1-0.6,0.1-1.3V88.8c0-1.1-0.1-1.7-0.2-1.9c-0.2-0.2-0.7-0.3-1.7-0.3
		c-0.5,0-0.8-0.1-0.8-0.4c0-0.2,0.2-0.3,0.6-0.3h0.7h1.5h3.5c4,0,6.8,0.3,8.4,0.8c2,0.7,3.6,2,4.9,3.9
		C255.9,92.7,256.6,95,256.6,97.5 M252.9,97.4c0-3.7-0.7-6.4-2.2-8.1c-1.4-1.7-3.7-2.6-6.7-2.6c-1.5,0-2.4,0.2-2.7,0.5
		c-0.1,0.2-0.2,0.7-0.2,1.6v17.7c0,0.6,0,1,0.1,1.1c0,0.1,0.1,0.2,0.3,0.3c0.5,0.3,1.6,0.4,3.3,0.4c2.4,0,4.3-0.8,5.8-2.5
		C252.1,104,252.9,101.2,252.9,97.4"/>
	<path d="M285.8,86.3c0,0.2-0.3,0.3-0.8,0.3h-0.7h-0.6c-0.4,0-0.6,0.1-0.6,0.2c-0.1,0.1-0.1,0.5-0.1,1.1v19c0,1.2,0,1.9,0,2
		c0,0.2-0.1,0.3-0.2,0.3s-0.3-0.1-0.5-0.4l-4.2-6.2c-2.5-3.6-5.4-8.1-8.9-13.5v18.5c0,0.3,0.2,0.5,0.5,0.5c0.3,0.1,1.1,0.1,2.2,0.1
		c0.3,0,0.4,0.1,0.4,0.3c0,0.2-0.3,0.3-0.9,0.3c-0.2,0-0.8,0-1.9-0.1c-0.4,0-0.7,0-1,0c0,0-0.2,0-0.6,0.1c-0.4,0-1,0.1-1.9,0.1h-0.3
		c-0.5,0-0.8-0.1-0.8-0.3c0-0.2,0.2-0.3,0.7-0.3c1.3,0,2.1-0.1,2.3-0.2c0.2-0.1,0.3-0.6,0.3-1.4V90.4c0-1.8-0.4-3-1.1-3.4
		c-0.4-0.2-1-0.3-1.9-0.3c-0.6,0-0.9-0.1-0.9-0.4c0-0.2,0.2-0.3,0.5-0.3c0.4,0,1,0,1.7,0.1c0.7,0,1,0.1,1.1,0.1s0.4,0,0.9,0
		c0.7,0,1.4,0,2.1-0.1l11.4,17V88.3c0-0.7,0-1.1,0-1.2s-0.1-0.3-0.3-0.3c-0.2-0.1-0.7-0.1-1.6-0.1c-0.8,0-1.2-0.1-1.2-0.3
		c0-0.2,0.3-0.3,0.8-0.3h1.2h0.9h0.6h0.6h1h1C285.6,86,285.8,86.1,285.8,86.3"/>
	<path d="M302.4,108.7c0,0.2-0.1,0.3-0.4,0.3h-0.3c-0.1-0.1-1.6-0.1-4.5-0.1c-0.6,0-1.1,0-1.7,0.1c-0.3,0-0.7,0-1.3,0
		c-0.3,0-0.4-0.1-0.4-0.3c0-0.2,0.3-0.3,0.9-0.3c0.9,0,1.4-0.1,1.6-0.3c0.2-0.2,0.2-0.8,0.2-1.9V88.7c0-1.1-0.1-1.7-0.2-1.8
		c-0.1-0.2-0.7-0.4-1.8-0.4c-0.4,0-0.6-0.1-0.6-0.2c0-0.2,0.1-0.3,0.4-0.3h4.5c0.3,0,1,0,1.9,0h1.3c0.4,0,0.5,0.1,0.5,0.3
		c0,0.2-0.5,0.3-1.5,0.3c-0.6,0-0.9,0.1-1,0.3c-0.1,0.2-0.2,0.6-0.2,1.4V106c0,1.3,0.1,1.9,0.2,2.1c0.2,0.2,1,0.4,2.2,0.4
		C302.3,108.4,302.4,108.5,302.4,108.7"/>
	<path d="M332.8,108.7c0,0.2-0.2,0.3-0.5,0.3H332h-4h-3.9h-0.4c-0.4,0-0.6-0.1-0.6-0.3c0-0.2,0.3-0.3,0.8-0.3
		c1.1-0.1,1.7-0.3,1.7-0.6c0-0.3-3-3.9-9-10.8v9.5c0,0.8,0.1,1.3,0.4,1.4c0.2,0.2,0.9,0.3,2,0.3c0.2,0,0.4,0.1,0.4,0.3
		c0,0.2-0.2,0.3-0.5,0.3h-0.6h-4.6h-1h-1.2h-0.3c-0.3,0-0.5-0.1-0.5-0.3c0-0.2,0.4-0.3,1.2-0.3c0.7,0,1.2-0.2,1.3-0.5
		c0.1-0.1,0.1-0.8,0.1-2.1V87.4c0-0.5-0.6-0.7-1.8-0.7c-0.5,0-0.8-0.1-0.8-0.4c0-0.2,0.2-0.3,0.6-0.3c0.1,0,0.3,0,0.4,0
		c0.4,0,1.3,0.1,3,0.1s2.8,0,3.3-0.1c0.2,0,0.5,0,0.8,0c0.4,0,0.6,0.1,0.6,0.4c0,0.1-0.1,0.2-0.2,0.2s-0.5,0.1-1.2,0.1
		c-0.6,0-1,0.1-1.2,0.3c-0.1,0.2-0.2,0.7-0.2,1.5v8.1l2.8-2.8c4.3-4.3,6.4-6.5,6.4-6.7c0-0.3-0.5-0.4-1.6-0.4c-0.7,0-1-0.1-1-0.3
		c0-0.2,0.2-0.2,0.5-0.3c0.3,0,1.4,0,3.2,0h1.8c0.8,0,1.2,0,1.3,0c0.2,0,0.3,0.2,0.3,0.3c0,0.2-0.2,0.4-0.7,0.4c-1,0-1.7,0-2,0.1
		s-0.6,0.3-0.9,0.6c-1.4,1.5-3.6,3.8-6.5,6.8l-0.9,0.8l-0.4,0.5c0.1,0.2,0.7,0.8,1.7,1.8c1.9,1.9,4.5,5,8,9.2
		c0.7,0.9,1.2,1.4,1.5,1.6s0.8,0.3,1.6,0.3C332.5,108.4,332.8,108.6,332.8,108.7"/>
	<path d="M342.4,82.7c0,1.6-1.2,2.8-2.8,2.8c-1.6,0-2.8-1.2-2.8-2.8c0-1.5,1.3-2.8,2.8-2.8C341.1,80,342.4,81.2,342.4,82.7
		 M337.4,82.7c0,1.2,0.9,2.2,2.2,2.2c1.2,0,2.1-1,2.1-2.2s-0.9-2.2-2.1-2.2C338.3,80.5,337.4,81.5,337.4,82.7 M339.1,84.2h-0.6v-2.8
		c0.3-0.1,0.6-0.1,1.1-0.1s0.8,0.1,1,0.2s0.3,0.3,0.3,0.6c0,0.3-0.2,0.5-0.6,0.6l0,0c0.3,0.1,0.4,0.3,0.5,0.7
		c0.1,0.4,0.1,0.6,0.2,0.7h-0.7c-0.1-0.1-0.1-0.4-0.2-0.7c0-0.3-0.2-0.4-0.6-0.4h-0.3L339.1,84.2L339.1,84.2z M339.1,82.6h0.3
		c0.4,0,0.6-0.1,0.6-0.4s-0.2-0.4-0.6-0.4c-0.2,0-0.3,0-0.4,0v0.8H339.1z"/>
</g>
</svg>
