<svg width="26" height="26" fill="none" xmlns="http://www.w3.org/2000/svg"><path fill-rule="evenodd" clip-rule="evenodd" d="M14.451 6.71h-2.496v4.878H6.964v2.44h4.991v4.878h2.496v-4.878h4.992v-2.44H14.45V6.71zM13.203.612C6.327.612.724 6.088.724 12.808s5.603 12.196 12.48 12.196h9.982c1.373 0 2.496-1.098 2.496-2.44v-9.756c0-6.72-5.603-12.196-12.479-12.196zm0 21.953c-5.503 0-9.983-4.379-9.983-9.757 0-5.379 4.48-9.757 9.983-9.757s9.983 4.378 9.983 9.757c0 5.378-4.48 9.757-9.983 9.757z" fill="#F2F2F2"/></svg>