<svg width="21" height="20" viewBox="0 0 21 20" fill="none" xmlns="http://www.w3.org/2000/svg"><path d="M15.19 0H6.228A5.526 5.526 0 0 0 .71 5.52v8.96A5.525 5.525 0 0 0 6.229 20h8.96a5.526 5.526 0 0 0 5.52-5.52V5.52A5.526 5.526 0 0 0 15.189 0zm3.745 14.48a3.75 3.75 0 0 1-3.745 3.745H6.228a3.749 3.749 0 0 1-3.745-3.744V5.519a3.749 3.749 0 0 1 3.745-3.745h8.962a3.75 3.75 0 0 1 3.744 3.745v8.962z" fill="#828282"/><path d="M10.709 4.847A5.16 5.16 0 0 0 5.555 10a5.16 5.16 0 0 0 5.154 5.153A5.16 5.16 0 0 0 15.862 10a5.16 5.16 0 0 0-5.153-5.153zm0 8.532A3.383 3.383 0 0 1 7.329 10a3.383 3.383 0 0 1 3.38-3.379 3.383 3.383 0 0 1 3.379 3.38 3.383 3.383 0 0 1-3.38 3.378zM16.079 3.342a1.306 1.306 0 0 0-1.302 1.301c0 .342.14.678.382.92s.578.382.92.382c.343 0 .677-.14.92-.381a1.307 1.307 0 0 0 0-1.84 1.307 1.307 0 0 0-.92-.382z" fill="#828282"/></svg>