<svg width="946" height="946" fill="none" xmlns="http://www.w3.org/2000/svg"><path fill="#000" fill-opacity="0" d="M0 0h946v946H0z"/><path d="M873 473c0 220.914-179.086 400-400 400S73 693.914 73 473 252.086 73 473 73s400 179.086 400 400z" fill="#C4C4C4"/><path d="M873 473c0 220.914-179.086 400-400 400S73 693.914 73 473 252.086 73 473 73s400 179.086 400 400z" fill="url(#paint0_linear)"/><path fill-rule="evenodd" clip-rule="evenodd" d="M473 907c239.692 0 434-194.308 434-434S712.692 39 473 39 39 233.308 39 473s194.308 434 434 434zm0 3c241.348 0 437-195.652 437-437S714.348 36 473 36 36 231.652 36 473s195.652 437 437 437z" fill="#5EAEF5"/><path fill-rule="evenodd" clip-rule="evenodd" d="M473 944c260.126 0 471-210.874 471-471S733.126 2 473 2 2 212.874 2 473s210.874 471 471 471zm0 2c261.231 0 473-211.769 473-473S734.231 0 473 0 0 211.769 0 473s211.769 473 473 473z" fill="#5EAEF5" fill-opacity=".5"/><defs><linearGradient id="paint0_linear" x1="427" y1="519" x2="873" y2="73" gradientUnits="userSpaceOnUse"><stop stop-color="#217CE8"/><stop offset="1" stop-color="#8FD5FF"/></linearGradient></defs></svg>