<svg width="244" height="102" xmlns="http://www.w3.org/2000/svg" xmlns:xlink="http://www.w3.org/1999/xlink"><g id="Canvas" transform="translate(-9310 -1224)"><use xlink:href="#path0_fill" transform="translate(9305.89 1216.37)" fill="url(#paint0_linear)" id="Dream Team"/></g><defs><linearGradient id="paint0_linear" x2="1" gradientUnits="userSpaceOnUse" gradientTransform="matrix(-241.019 -97.1832 227.661 -564.61 130.75 390.305)"><stop offset="0" stop-color="#217CE8"/><stop offset="1" stop-color="#8FD5FF"/></linearGradient><path id="path0_fill" d="M4.32 53.856V8.928c2.16-.24 4.536-.456 7.128-.648 2.592-.24 5.28-.36 8.064-.36 3.504 0 6.864.504 10.08 1.512s6.048 2.496 8.496 4.464c2.448 1.968 4.392 4.392 5.832 7.272 1.488 2.832 2.232 6.12 2.232 9.864 0 4.128-.744 7.68-2.232 10.656-1.44 2.976-3.432 5.424-5.976 7.344-2.496 1.92-5.424 3.336-8.784 4.248-3.312.912-6.864 1.368-10.656 1.368-1.296 0-2.664-.024-4.104-.072-1.44 0-2.808-.048-4.104-.144a66.394 66.394 0 0 1-3.528-.216c-1.056-.096-1.872-.216-2.448-.36zm6.336-39.024V47.88c1.008.24 2.208.432 3.6.576 1.392.096 2.616.144 3.672.144 2.928 0 5.712-.336 8.352-1.008 2.64-.672 4.968-1.704 6.984-3.096a16.048 16.048 0 0 0 4.824-5.472c1.2-2.208 1.8-4.872 1.8-7.992 0-3.024-.648-5.592-1.944-7.704a15.547 15.547 0 0 0-4.968-5.184c-2.016-1.344-4.296-2.328-6.84-2.952a30.771 30.771 0 0 0-7.488-.936c-1.536 0-3 .072-4.392.216a50.458 50.458 0 0 0-3.6.36zm63.64 8.352h-3.455c-1.488 0-2.952.24-4.392.72-1.392.48-2.64 1.2-3.744 2.16-1.056.912-1.92 2.04-2.592 3.384-.624 1.344-.936 2.88-.936 4.608v20.016h-6.552V18h6.48v3.744a6.504 6.504 0 0 1 2.088-2.592 9.933 9.933 0 0 1 3.024-1.512 13.657 13.657 0 0 1 3.312-.72c1.152-.144 2.16-.216 3.024-.216h3.672l.072 6.48zm37.263 27.072c-1.679 1.2-3.647 2.28-5.903 3.24-2.256.912-4.824 1.368-7.705 1.368-2.351 0-4.535-.336-6.551-1.008-1.969-.72-3.697-1.728-5.184-3.024-1.44-1.296-2.616-2.904-3.528-4.824-.865-1.92-1.344-4.104-1.44-6.552v-.36c-.769.096-1.56.168-2.377.216a6.52 6.52 0 0 0-2.303.432v-6.552c.816-.24 1.608-.384 2.376-.432.767-.048 1.56-.12 2.376-.216.144-2.304.672-4.416 1.584-6.336a15.75 15.75 0 0 1 3.672-4.968c1.536-1.392 3.36-2.472 5.472-3.24 2.111-.768 4.44-1.152 6.983-1.152 2.736 0 5.208.6 7.416 1.8 1.68.96 3.073 2.28 4.177 3.96 1.104 1.68 1.655 3.576 1.655 5.688 0 2.208-.744 4.272-2.232 6.192-1.536 2.016-3.384 3.336-5.543 3.96-2.112.576-4.417.864-6.913.864-1.103 0-2.4-.048-3.887-.144a59.903 59.903 0 0 0-3.96-.144c-.337 0-.648.024-.936.072-.289 0-.553.024-.793.072v.36c0 2.832.936 4.992 2.808 6.48 1.92 1.44 4.297 2.16 7.129 2.16 1.44 0 2.76-.12 3.96-.36 1.248-.24 2.4-.576 3.456-1.008a23.936 23.936 0 0 0 3.167-1.512 51.333 51.333 0 0 0 3.024-1.872v6.84zM99.896 23.112a16.17 16.17 0 0 0-4.32.576c-1.344.384-2.569.96-3.672 1.728-1.056.768-1.944 1.752-2.664 2.952-.672 1.152-1.08 2.544-1.224 4.176l3.887-.144c.816.096 1.8.168 2.953.216h3.456c.96 0 1.919-.048 2.88-.144.96-.144 1.8-.384 2.52-.72.768-.384 1.367-.888 1.799-1.512.481-.624.721-1.416.721-2.376 0-1.728-.648-2.952-1.945-3.672-1.295-.72-2.759-1.08-4.392-1.08zm46.948 16.128v5.4c0 1.728-.024 3.288-.072 4.68v4.608h-6.624v-3.816c-1.392 1.728-3.072 2.952-5.04 3.672a17.474 17.474 0 0 1-6.048 1.08c-1.68 0-3.36-.264-5.04-.792a13.81 13.81 0 0 1-4.536-2.232 11.589 11.589 0 0 1-3.24-3.744c-.816-1.536-1.224-3.312-1.224-5.328 0-2.064.336-3.84 1.008-5.328.72-1.488 1.68-2.688 2.88-3.6 1.248-.96 2.688-1.656 4.32-2.088 1.68-.432 3.504-.648 5.472-.648 1.728 0 3.552.144 5.472.432 1.968.288 3.96.744 5.976 1.368v-.288c.096-.384.144-.72.144-1.008v-.936c0-1.296-.264-2.424-.792-3.384a6.732 6.732 0 0 0-1.944-2.376 8.061 8.061 0 0 0-2.808-1.368 9.952 9.952 0 0 0-3.168-.504c-1.056 0-2.088.12-3.096.36a8.703 8.703 0 0 0-2.736 1.152 6.729 6.729 0 0 0-2.016 2.016c-.528.768-.816 1.704-.864 2.808h-6.624c.144-2.112.648-3.96 1.512-5.544.912-1.584 2.04-2.88 3.384-3.888a14.857 14.857 0 0 1 4.68-2.376 18.132 18.132 0 0 1 5.328-.792c2.112 0 4.104.288 5.976.864 1.872.576 3.504 1.488 4.896 2.736 1.44 1.248 2.568 2.856 3.384 4.824.864 1.92 1.32 4.272 1.368 7.056v.36c.72-.096 1.44-.216 2.16-.36.768-.144 1.56-.312 2.376-.504v6.768l-4.464.72zm-6.624.144c-.288 0-.816-.096-1.584-.288a37.39 37.39 0 0 0-2.592-.576 40.71 40.71 0 0 0-3.168-.648 18.891 18.891 0 0 0-3.24-.288c-.816 0-1.704.096-2.664.288a8.254 8.254 0 0 0-2.592.864 6.488 6.488 0 0 0-1.944 1.656c-.528.672-.792 1.512-.792 2.52 0 .816.216 1.56.648 2.232.48.672 1.104 1.272 1.872 1.8.768.48 1.656.864 2.664 1.152 1.008.288 2.088.432 3.24.432a11.18 11.18 0 0 0 3.816-.648c1.2-.48 2.256-1.056 3.168-1.728.96-.672 1.704-1.392 2.232-2.16.576-.768.888-1.464.936-2.088v-2.52zm24.144-17.928c.528-1.008 1.2-1.824 2.016-2.448.864-.624 1.728-1.104 2.592-1.44.912-.336 1.776-.552 2.592-.648.864-.144 1.56-.216 2.088-.216 3.456 0 6.24.432 8.352 1.296 2.112.864 3.648 1.968 4.608 3.312a8.732 8.732 0 0 1 2.376-2.232c.96-.624 1.92-1.104 2.88-1.44.96-.384 1.848-.624 2.664-.72.816-.144 1.416-.216 1.8-.216 2.496 0 4.632.336 6.408 1.008 1.824.624 3.312 1.68 4.464 3.168 1.152 1.44 1.992 3.336 2.52 5.688.576 2.304.864 5.112.864 8.424v18.936h-6.48V34.776a39.91 39.91 0 0 0-.216-4.248c-.144-1.392-.48-2.616-1.008-3.672a5.669 5.669 0 0 0-2.232-2.52c-.96-.672-2.304-1.056-4.032-1.152-.96 0-1.968.144-3.024.432-1.008.288-1.944.792-2.808 1.512-.816.672-1.512 1.608-2.088 2.808-.528 1.2-.792 2.688-.792 4.464v21.528h-6.48V32.4c0-.864-.072-1.8-.216-2.808a7.989 7.989 0 0 0-1.008-2.952c-.48-.912-1.224-1.68-2.232-2.304-.96-.672-2.304-1.056-4.032-1.152a12.29 12.29 0 0 0-3.456.504 7.208 7.208 0 0 0-3.096 1.656c-.912.768-1.656 1.872-2.232 3.312-.528 1.392-.792 3.192-.792 5.4v20.016h-6.552V18h6.552v3.456zm-47.868 41.328c-.048 1.584-.312 3.072-.792 4.464a10.89 10.89 0 0 1-1.944 3.6c-.864 1.008-1.968 1.824-3.312 2.448-1.296.576-2.808.864-4.536.864-2.64 0-5.4-.528-8.28-1.584V108h-6.12V70.056a23.215 23.215 0 0 0-3.384-.936c-1.2-.24-2.376-.36-3.528-.36-1.248 0-2.4.216-3.456.648-1.008.432-1.536 1.392-1.584 2.88h-6.12c0-1.584.288-2.976.864-4.176.624-1.2 1.44-2.184 2.448-2.952 1.008-.816 2.184-1.416 3.528-1.8 1.392-.432 2.88-.648 4.464-.648 2.4 0 4.536.288 6.408.864 1.92.528 3.672 1.128 5.256 1.8a237.39 237.39 0 0 0 4.68 1.872c1.536.528 3.12.792 4.752.792.912 0 1.656-.096 2.232-.288.576-.192 1.008-.48 1.296-.864.336-.432.552-.984.648-1.656.144-.672.24-1.488.288-2.448h6.192zm34.79 41.472c-1.68 1.2-3.648 2.28-5.904 3.24-2.256.912-4.824 1.368-7.704 1.368-2.352 0-4.536-.336-6.552-1.008-1.968-.72-3.696-1.728-5.184-3.024-1.44-1.296-2.616-2.904-3.528-4.824-.864-1.92-1.344-4.104-1.44-6.552v-.36c-.768.096-1.56.168-2.376.216-.768 0-1.536.144-2.304.432v-6.552c.816-.24 1.608-.384 2.376-.432.768-.048 1.56-.12 2.376-.216.144-2.304.672-4.416 1.584-6.336a15.75 15.75 0 0 1 3.672-4.968c1.536-1.392 3.36-2.472 5.472-3.24 2.112-.768 4.44-1.152 6.984-1.152 2.736 0 5.208.6 7.416 1.8 1.68.96 3.072 2.28 4.176 3.96 1.104 1.68 1.656 3.576 1.656 5.688 0 2.208-.744 4.272-2.232 6.192-1.536 2.016-3.384 3.336-5.544 3.96-2.112.576-4.416.864-6.912.864-1.104 0-2.4-.048-3.888-.144a59.903 59.903 0 0 0-3.96-.144c-.336 0-.648.024-.936.072-.288 0-.552.024-.792.072v.36c0 2.832.936 4.992 2.808 6.48 1.92 1.44 4.296 2.16 7.128 2.16 1.44 0 2.76-.12 3.96-.36 1.248-.24 2.4-.576 3.456-1.008a24.009 24.009 0 0 0 3.168-1.512 51.664 51.664 0 0 0 3.024-1.872v6.84zm-11.664-27.144a16.17 16.17 0 0 0-4.32.576c-1.344.384-2.568.96-3.672 1.728-1.056.768-1.944 1.752-2.664 2.952-.672 1.152-1.08 2.544-1.224 4.176l3.888-.144c.816.096 1.8.168 2.952.216h3.456c.96 0 1.92-.048 2.88-.144.96-.144 1.8-.384 2.52-.72.768-.384 1.368-.888 1.8-1.512.48-.624.72-1.416.72-2.376 0-1.728-.648-2.952-1.944-3.672-1.296-.72-2.76-1.08-4.392-1.08zm44.417 16.128v5.4c0 1.728-.024 3.288-.072 4.68v4.608h-6.624v-3.816c-1.392 1.728-3.072 2.952-5.04 3.672a17.474 17.474 0 0 1-6.048 1.08c-1.68 0-3.36-.264-5.04-.792a13.81 13.81 0 0 1-4.536-2.232 11.589 11.589 0 0 1-3.24-3.744c-.816-1.536-1.224-3.312-1.224-5.328 0-2.064.336-3.84 1.008-5.328.72-1.488 1.68-2.688 2.88-3.6 1.248-.96 2.688-1.656 4.32-2.088 1.68-.432 3.504-.648 5.472-.648 1.728 0 3.552.144 5.472.432 1.968.288 3.96.744 5.976 1.368v-.288c.096-.384.144-.72.144-1.008v-.936c0-1.296-.264-2.424-.792-3.384a6.732 6.732 0 0 0-1.944-2.376 8.061 8.061 0 0 0-2.808-1.368 9.952 9.952 0 0 0-3.168-.504c-1.056 0-2.088.12-3.096.36a8.703 8.703 0 0 0-2.736 1.152 6.729 6.729 0 0 0-2.016 2.016c-.528.768-.816 1.704-.864 2.808h-6.624c.144-2.112.648-3.96 1.512-5.544.912-1.584 2.04-2.88 3.384-3.888a14.857 14.857 0 0 1 4.68-2.376 18.132 18.132 0 0 1 5.328-.792c2.112 0 4.104.288 5.976.864 1.872.576 3.504 1.488 4.896 2.736 1.44 1.248 2.568 2.856 3.384 4.824.864 1.92 1.32 4.272 1.368 7.056v.36c.72-.096 1.44-.216 2.16-.36.768-.144 1.56-.312 2.376-.504v6.768l-4.464.72zm-6.624.144c-.288 0-.816-.096-1.584-.288a37.39 37.39 0 0 0-2.592-.576 40.71 40.71 0 0 0-3.168-.648 18.891 18.891 0 0 0-3.24-.288c-.816 0-1.704.096-2.664.288a8.254 8.254 0 0 0-2.592.864 6.488 6.488 0 0 0-1.944 1.656c-.528.672-.792 1.512-.792 2.52 0 .816.216 1.56.648 2.232.48.672 1.104 1.272 1.872 1.8.768.48 1.656.864 2.664 1.152 1.008.288 2.088.432 3.24.432a11.18 11.18 0 0 0 3.816-.648c1.2-.48 2.256-1.056 3.168-1.728.96-.672 1.704-1.392 2.232-2.16.576-.768.888-1.464.936-2.088v-2.52zm24.145-17.928c.528-1.008 1.2-1.824 2.016-2.448.864-.624 1.727-1.104 2.591-1.44.912-.336 1.777-.552 2.593-.648.864-.144 1.56-.216 2.087-.216 3.456 0 6.241.432 8.353 1.296 2.111.864 3.647 1.968 4.608 3.312a8.732 8.732 0 0 1 2.376-2.232 13.43 13.43 0 0 1 2.88-1.44c.96-.384 1.848-.624 2.664-.72.816-.144 1.416-.216 1.8-.216 2.496 0 4.631.336 6.407 1.008 1.825.624 3.313 1.68 4.464 3.168 1.152 1.44 1.993 3.336 2.52 5.688.576 2.304.865 5.112.865 8.424v18.936h-6.48V88.776a39.91 39.91 0 0 0-.216-4.248c-.144-1.392-.481-2.616-1.009-3.672a5.657 5.657 0 0 0-2.232-2.52c-.96-.672-2.304-1.056-4.032-1.152-.96 0-1.968.144-3.023.432-1.008.288-1.945.792-2.809 1.512-.816.672-1.512 1.608-2.088 2.808-.527 1.2-.792 2.688-.792 4.464v21.528h-6.479V86.4c0-.864-.072-1.8-.217-2.808a7.989 7.989 0 0 0-1.008-2.952c-.48-.912-1.224-1.68-2.232-2.304-.96-.672-2.303-1.056-4.031-1.152-1.153 0-2.305.168-3.457.504a7.204 7.204 0 0 0-3.095 1.656c-.912.768-1.657 1.872-2.233 3.312-.528 1.392-.791 3.192-.791 5.4v20.016h-6.553V72h6.553v3.456z"/></defs></svg>