<svg width="122" height="30" fill="none" xmlns="http://www.w3.org/2000/svg"><path d="M10.886 16.488l.196-.489a4.01 4.01 0 0 1 .22-.452L19.864.308a.563.563 0 0 1 .245-.244.982.982 0 0 1 .342 0h1.1v21.879H20.28V3.256a8.204 8.204 0 0 1 0-.856l-8.587 15.324a.673.673 0 0 1-.623.403h-.245a.696.696 0 0 1-.624-.403L1.333 2.387c.015.29.015.58 0 .869v18.687H0V.015h1.1c.118-.02.238-.02.356 0 .11.05.2.137.256.244l8.856 15.251c.132.317.239.644.318.978z" transform="translate(36.384 4.205)" fill="url(#paint0_linear)"/><path d="M7.034.001a7.413 7.413 0 0 1 2.972.563 6.05 6.05 0 0 1 2.214 1.602 7.117 7.117 0 0 1 1.37 2.446c.329 1.06.49 2.167.477 3.278a10.564 10.564 0 0 1-.477 3.265 7.128 7.128 0 0 1-1.37 2.446 5.967 5.967 0 0 1-2.214 1.602 8.17 8.17 0 0 1-5.932 0 6.041 6.041 0 0 1-2.214-1.602 7.043 7.043 0 0 1-1.382-2.446A10.553 10.553 0 0 1 0 7.89c0-1.092.17-2.177.501-3.217.292-.9.762-1.732 1.382-2.446A6.116 6.116 0 0 1 4.098.625 7.413 7.413 0 0 1 7.034.001zm0 14.676c.84.023 1.676-.14 2.446-.477a4.561 4.561 0 0 0 1.725-1.357c.48-.634.83-1.358 1.027-2.128a10.63 10.63 0 0 0 .343-2.801c.01-.94-.106-1.878-.343-2.788a6.113 6.113 0 0 0-1.027-2.153 4.61 4.61 0 0 0-1.725-1.37 6.288 6.288 0 0 0-4.82 0A4.599 4.599 0 0 0 2.95 3.01a6.115 6.115 0 0 0-1.04 2.152 10.42 10.42 0 0 0-.355 2.789c-.01.945.11 1.887.355 2.8a6.1 6.1 0 0 0 1.04 2.128 4.562 4.562 0 0 0 1.724 1.358 5.726 5.726 0 0 0 2.36.477v-.037z" transform="translate(62.669 10.48)" fill="url(#paint1_linear)"/><path d="M1.48 0v22.552H0V0h1.48z" transform="translate(81.03 3.596)" fill="url(#paint2_linear)"/><path d="M2.58 22.259V8.451L.454 8.305C.15 8.305 0 8.175 0 7.913v-.599h2.618V5.369a7.178 7.178 0 0 1 .28-2.323c.201-.617.53-1.184.967-1.663A3.914 3.914 0 0 1 5.345.33 5.383 5.383 0 0 1 7.278 0c.324 0 .647.029.966.085.293.05.58.132.856.245v.71c0 .146-.11.22-.293.22h-.502a5.555 5.555 0 0 0-.783 0 4.233 4.233 0 0 0-1.406.22 2.74 2.74 0 0 0-1.113.72 3.39 3.39 0 0 0-.722 1.297 6.505 6.505 0 0 0-.257 1.957v1.908h4.99v1.1H4.05V22.26H2.58z" transform="translate(85.958 3.889)" fill="url(#paint3_linear)"/><path d="M10.655 15.73a.527.527 0 0 1-.575-.429l-.22-1.932c-.389.391-.797.763-1.223 1.113a7.57 7.57 0 0 1-1.309.831c-.467.23-.96.402-1.468.514a7.9 7.9 0 0 1-1.737.183 5.114 5.114 0 0 1-1.529-.232 3.793 3.793 0 0 1-1.32-.71 3.484 3.484 0 0 1-.918-1.222 4.255 4.255 0 0 1-.355-1.81 3.201 3.201 0 0 1 .563-1.81 4.587 4.587 0 0 1 1.75-1.456 11.51 11.51 0 0 1 3.057-.99 26.606 26.606 0 0 1 4.428-.526V5.688a5.16 5.16 0 0 0-.954-3.326 3.29 3.29 0 0 0-2.74-1.15 5.175 5.175 0 0 0-1.896.306 6.74 6.74 0 0 0-1.321.685 8.281 8.281 0 0 0-.88.685.954.954 0 0 1-.576.305.502.502 0 0 1-.464-.28l-.27-.453A8.953 8.953 0 0 1 3.244.625a7.094 7.094 0 0 1 3.02-.624A5.505 5.505 0 0 1 8.43.393c.598.249 1.127.64 1.541 1.137.426.525.738 1.133.917 1.786a8.19 8.19 0 0 1 .404 2.372V15.73h-.636zm-6.201-.82a6.615 6.615 0 0 0 1.65-.196 6.116 6.116 0 0 0 1.395-.538 6.85 6.85 0 0 0 1.223-.832c.375-.318.742-.664 1.101-1.04v-4.01c-1.27.022-2.537.132-3.792.33-.9.134-1.779.38-2.617.733a3.84 3.84 0 0 0-1.517 1.113 2.36 2.36 0 0 0-.49 1.468c-.01.461.077.92.258 1.345a2.581 2.581 0 0 0 1.651 1.468c.37.108.753.161 1.138.159z" transform="translate(97.137 10.418)" fill="url(#paint4_linear)"/><path d="M0 15.691V.27h.77a.55.55 0 0 1 .38.11.537.537 0 0 1 .134.367L1.407 4A7.338 7.338 0 0 1 3.4 1.101 4.538 4.538 0 0 1 6.41 0a5.31 5.31 0 0 1 1.284.146c.387.097.76.241 1.113.428L8.61 1.602a.281.281 0 0 1-.306.245.832.832 0 0 1-.269-.061l-.404-.135a5.273 5.273 0 0 0-1.48-.196 3.963 3.963 0 0 0-2.874 1.089 7.754 7.754 0 0 0-1.761 3.119V15.69H0z" transform="translate(113.027 10.456)" fill="url(#paint5_linear)"/><path d="M25.38 6.274l-.146.098-5.664 5.711a.367.367 0 0 1-.293.123h-5.272l.49.452-.514.526h5.32a.341.341 0 0 1 .27.11l5.663 5.76.122.123H20.06a.39.39 0 0 1-.306-.123l-5.7-5.699-.086-.098-.733.746h.085l4.501 4.5 1.223 1.224c.044.046.07.107.074.171v5.43l-.122-.11-3.866-3.865-1.859-1.859a.33.33 0 0 1-.11-.256v-5.321l-.501.514-.465-.513v5.393a.341.341 0 0 1-.11.27l-5.712 5.71a.722.722 0 0 0-.086.123V20.02a.257.257 0 0 1 .086-.195l5.736-5.736.098-.086-.734-.721-.086.073-5.724 5.7a.39.39 0 0 1-.306.122H0l.086-.123 5.748-5.748a.317.317 0 0 1 .257-.098h5.321l-.49-.501.49-.453h-5.32a.343.343 0 0 1-.27-.11L.11 6.372 0 6.249h5.382a.306.306 0 0 1 .281.086l4.795 4.807.942.941.073.073.71-.709-.074-.073L6.336 5.6a.318.318 0 0 1-.098-.244V0l.098.086 5.76 5.76a.293.293 0 0 1 .099.232v5.345l.501-.502.465.49V6.127a.355.355 0 0 1 .11-.281L18.995.122l.123-.11V5.43a.281.281 0 0 1 0 .171l-5.737 5.736-.11.074.758.758a.731.731 0 0 1 .086-.123l5.712-5.723a.319.319 0 0 1 .245-.098h5.345l-.037.049zm-12.696 7.118l.685-.685-.673-.673-.685.685.673.673z" transform="translate(2.466 2.287)" fill="url(#paint6_linear)"/><path d="M2.275 4.574L0 2.299 2.312 0l2.287 2.275-2.324 2.299z" transform="translate(.167 12.707)" fill="url(#paint7_linear)"/><path d="M2.312 4.61L0 2.312 2.324 0l2.275 2.311-2.287 2.3z" transform="translate(25.547 12.682)" fill="url(#paint8_linear)"/><path d="M4.599 2.3L2.312 4.585 0 2.275 2.287 0 4.6 2.3z" transform="translate(12.85 25.414)" fill="url(#paint9_linear)"/><path d="M4.587 2.3L2.3 4.597 0 2.287 2.287 0l2.3 2.3z" transform="translate(12.875)" fill="url(#paint10_linear)"/><defs><linearGradient id="paint0_linear" x2="1" gradientUnits="userSpaceOnUse" gradientTransform="matrix(21.6742 0 0 21.6714 0 .137)"><stop stop-color="#D8291E"/><stop offset="1" stop-color="#C5001E"/></linearGradient><linearGradient id="paint1_linear" x2="1" gradientUnits="userSpaceOnUse" gradientTransform="matrix(161.779 0 0 181.244 725.612 171.158)"><stop stop-color="#D8291E"/><stop offset="1" stop-color="#C5001E"/></linearGradient><linearGradient id="paint2_linear" x2="1" gradientUnits="userSpaceOnUse" gradientTransform="matrix(1.79081 0 0 27.2879 98.569 295.544)"><stop stop-color="#D8291E"/><stop offset="1" stop-color="#C5001E"/></linearGradient><linearGradient id="paint3_linear" x2="1" gradientUnits="userSpaceOnUse" gradientTransform="matrix(68.2517 0 0 166.942 642.476 224.816)"><stop stop-color="#D8291E"/><stop offset="1" stop-color="#C5001E"/></linearGradient><linearGradient id="paint4_linear" x2="1" gradientUnits="userSpaceOnUse" gradientTransform="matrix(104.216 0 0 147.777 900.231 192.206)"><stop stop-color="#D8291E"/><stop offset="1" stop-color="#C5001E"/></linearGradient><linearGradient id="paint5_linear" x2="1" gradientUnits="userSpaceOnUse" gradientTransform="matrix(63.7603 0 0 113.604 816.907 202.417)"><stop stop-color="#D8291E"/><stop offset="1" stop-color="#C5001E"/></linearGradient><linearGradient id="paint6_linear" x2="1" gradientUnits="userSpaceOnUse" gradientTransform="matrix(528.166 0 0 528.098 59.984 86.915)"><stop stop-color="#D8291E"/><stop offset="1" stop-color="#C5001E"/></linearGradient><linearGradient id="paint7_linear" x2="1" gradientUnits="userSpaceOnUse" gradientTransform="matrix(17.2924 0 0 17.1982 2.254 54.568)"><stop stop-color="#D8291E"/><stop offset="1" stop-color="#C5001E"/></linearGradient><linearGradient id="paint8_linear" x2="1" gradientUnits="userSpaceOnUse" gradientTransform="matrix(17.3844 0 0 17.4284 97.684 54.96)"><stop stop-color="#D8291E"/><stop offset="1" stop-color="#C5001E"/></linearGradient><linearGradient id="paint9_linear" x2="1" gradientUnits="userSpaceOnUse" gradientTransform="matrix(17.2464 0 0 17.1983 49.992 102.387)"><stop stop-color="#D8291E"/><stop offset="1" stop-color="#C5001E"/></linearGradient><linearGradient id="paint10_linear" x2="1" gradientUnits="userSpaceOnUse" gradientTransform="matrix(17.2005 0 0 17.2442 49.904 7.15)"><stop stop-color="#D8291E"/><stop offset="1" stop-color="#C5001E"/></linearGradient></defs></svg>