<svg width="190" height="19" viewBox="0 0 190 19" fill="none" xmlns="http://www.w3.org/2000/svg">
<g id="made_in_IF-ru">
<g id="Group">
<path id="Vector" d="M0.655897 -2.50698e-08C0.856454 0.210301 1.05701 0.315452 1.25757 0.525753C1.65868 0.946355 2.0598 1.36696 2.46091 1.78756C5.36898 4.94208 8.27706 7.99144 11.1851 11.146C12.7896 12.9335 14.4943 14.6159 16.0988 16.4035C16.3996 16.7189 16.7005 17.0344 17.0013 17.455C15.8982 18.8219 13.9929 18.2962 13.291 16.4035C11.3857 16.7189 9.4804 15.4571 9.17957 13.0387C8.97901 13.0387 8.67817 13.0387 8.37734 13.0387C8.27706 14.0902 7.87595 15.0365 7.07372 15.6674C6.37177 16.1932 5.46926 16.5086 4.3662 16.2983C4.16564 16.9292 3.86481 17.5601 3.26314 17.7704C2.86202 17.9807 2.36063 18.0859 1.95952 17.9807C1.05701 17.8756 0.254784 17.0344 0.0542268 15.9829C-0.14633 14.9314 0.455341 13.985 1.75896 13.3541C1.45813 11.146 2.46091 9.779 4.86759 9.04295C4.86759 8.83265 4.86759 8.51719 4.86759 8.30689C3.86481 8.09659 2.9623 7.67599 2.36063 6.83478C1.75896 5.99358 1.5584 5.04723 1.75896 3.99572C-0.0460515 2.94421 -0.547444 1.15666 0.655897 -2.50698e-08Z" transform="translate(0 0.776917)" fill="#BE1F0C"/>
<path id="Vector_2" d="M0.655897 -2.50698e-08C0.856454 0.210301 1.05701 0.315452 1.25757 0.525753C1.65868 0.946355 2.0598 1.36696 2.46091 1.78756C5.36898 4.94208 8.27706 7.99144 11.1851 11.146C12.7896 12.9335 14.4943 14.6159 16.0988 16.4035C16.3996 16.7189 16.7005 17.0344 17.0013 17.455C15.8982 18.8219 13.9929 18.2962 13.291 16.4035C11.3857 16.7189 9.4804 15.4571 9.17957 13.0387C8.97901 13.0387 8.67817 13.0387 8.37734 13.0387C8.27706 14.0902 7.87595 15.0365 7.07372 15.6674C6.37177 16.1932 5.46926 16.5086 4.3662 16.2983C4.16564 16.9292 3.86481 17.5601 3.26314 17.7704C2.86202 17.9807 2.36063 18.0859 1.95952 17.9807C1.05701 17.8756 0.254784 17.0344 0.0542268 15.9829C-0.14633 14.9314 0.455341 13.985 1.75896 13.3541C1.45813 11.146 2.46091 9.779 4.86759 9.04295C4.86759 8.83265 4.86759 8.51719 4.86759 8.30689C3.86481 8.09659 2.9623 7.67599 2.36063 6.83478C1.75896 5.99358 1.5584 5.04723 1.75896 3.99572C-0.0460515 2.94421 -0.547444 1.15666 0.655897 -2.50698e-08Z" transform="translate(17.6616 18.2223) rotate(180)" fill="#E42013"/>
</g>
<path id="&#208;&#161;&#208;&#190;&#208;&#183;&#208;&#180;&#208;&#176;&#208;&#189;&#208;&#190; &#208;&#178; &#208;&#152;&#208;&#178;&#208;&#176;&#208;&#189;&#208;&#190;-&#208;&#164;&#209;&#128;&#208;&#176;&#208;&#189;&#208;&#186;&#208;&#190;&#208;&#178;&#209;&#129;&#208;&#186;&#208;&#181;" d="M6.924 9.954C7.012 9.954 7.09 9.988 7.158 10.056L7.794 10.746C7.442 11.182 7.008 11.516 6.492 11.748C5.98 11.98 5.364 12.096 4.644 12.096C4 12.096 3.42 11.986 2.904 11.766C2.392 11.546 1.954 11.24 1.59 10.848C1.226 10.456 0.946 9.988 0.75 9.444C0.558 8.9 0.462 8.306 0.462 7.662C0.462 7.01 0.566 6.414 0.774 5.874C0.982 5.33 1.274 4.862 1.65 4.47C2.03 4.078 2.482 3.774 3.006 3.558C3.53 3.338 4.11 3.228 4.746 3.228C5.378 3.228 5.938 3.332 6.426 3.54C6.918 3.748 7.336 4.02 7.68 4.356L7.14 5.106C7.108 5.154 7.066 5.196 7.014 5.232C6.966 5.268 6.898 5.286 6.81 5.286C6.75 5.286 6.688 5.27 6.624 5.238C6.56 5.202 6.49 5.16 6.414 5.112C6.338 5.06 6.25 5.004 6.15 4.944C6.05 4.884 5.934 4.83 5.802 4.782C5.67 4.73 5.516 4.688 5.34 4.656C5.168 4.62 4.968 4.602 4.74 4.602C4.352 4.602 3.996 4.672 3.672 4.812C3.352 4.948 3.076 5.148 2.844 5.412C2.612 5.672 2.432 5.992 2.304 6.372C2.176 6.748 2.112 7.178 2.112 7.662C2.112 8.15 2.18 8.584 2.316 8.964C2.456 9.344 2.644 9.664 2.88 9.924C3.116 10.184 3.394 10.384 3.714 10.524C4.034 10.66 4.378 10.728 4.746 10.728C4.966 10.728 5.164 10.716 5.34 10.692C5.52 10.668 5.684 10.63 5.832 10.578C5.984 10.526 6.126 10.46 6.258 10.38C6.394 10.296 6.528 10.194 6.66 10.074C6.7 10.038 6.742 10.01 6.786 9.99C6.83 9.966 6.876 9.954 6.924 9.954ZM11.2607 5.748C11.7167 5.748 12.1307 5.822 12.5027 5.97C12.8787 6.118 13.1987 6.328 13.4627 6.6C13.7307 6.872 13.9367 7.204 14.0807 7.596C14.2247 7.988 14.2967 8.426 14.2967 8.91C14.2967 9.398 14.2247 9.838 14.0807 10.23C13.9367 10.622 13.7307 10.956 13.4627 11.232C13.1987 11.508 12.8787 11.72 12.5027 11.868C12.1307 12.016 11.7167 12.09 11.2607 12.09C10.8007 12.09 10.3827 12.016 10.0067 11.868C9.63069 11.72 9.30869 11.508 9.04069 11.232C8.77669 10.956 8.57069 10.622 8.42269 10.23C8.27869 9.838 8.20669 9.398 8.20669 8.91C8.20669 8.426 8.27869 7.988 8.42269 7.596C8.57069 7.204 8.77669 6.872 9.04069 6.6C9.30869 6.328 9.63069 6.118 10.0067 5.97C10.3827 5.822 10.8007 5.748 11.2607 5.748ZM11.2607 10.95C11.7727 10.95 12.1507 10.778 12.3947 10.434C12.6427 10.09 12.7667 9.586 12.7667 8.922C12.7667 8.258 12.6427 7.752 12.3947 7.404C12.1507 7.056 11.7727 6.882 11.2607 6.882C10.7407 6.882 10.3547 7.058 10.1027 7.41C9.85469 7.758 9.73069 8.262 9.73069 8.922C9.73069 9.582 9.85469 10.086 10.1027 10.434C10.3547 10.778 10.7407 10.95 11.2607 10.95ZM14.9501 6.51C15.1821 6.286 15.4701 6.104 15.8141 5.964C16.1581 5.82 16.5701 5.748 17.0501 5.748C17.4301 5.748 17.7681 5.794 18.0641 5.886C18.3601 5.974 18.6081 6.096 18.8081 6.252C19.0121 6.404 19.1661 6.58 19.2701 6.78C19.3781 6.976 19.4321 7.182 19.4321 7.398C19.4321 7.514 19.4141 7.636 19.3781 7.764C19.3461 7.888 19.2901 8.01 19.2101 8.13C19.1341 8.25 19.0321 8.362 18.9041 8.466C18.7761 8.566 18.6181 8.652 18.4301 8.724C18.7661 8.852 19.0361 9.04 19.2401 9.288C19.4481 9.536 19.5521 9.842 19.5521 10.206C19.5521 10.506 19.4821 10.772 19.3421 11.004C19.2061 11.236 19.0241 11.434 18.7961 11.598C18.5681 11.758 18.3061 11.88 18.0101 11.964C17.7181 12.048 17.4161 12.09 17.1041 12.09C16.9281 12.09 16.7381 12.074 16.5341 12.042C16.3341 12.01 16.1321 11.956 15.9281 11.88C15.7241 11.8 15.5241 11.696 15.3281 11.568C15.1321 11.436 14.9541 11.274 14.7941 11.082L15.2201 10.542C15.2801 10.45 15.3701 10.404 15.4901 10.404C15.5821 10.404 15.6701 10.434 15.7541 10.494C15.8381 10.55 15.9341 10.614 16.0421 10.686C16.1541 10.754 16.2861 10.818 16.4381 10.878C16.5901 10.934 16.7801 10.962 17.0081 10.962C17.3801 10.962 17.6621 10.878 17.8541 10.71C18.0461 10.542 18.1421 10.332 18.1421 10.08C18.1421 9.832 18.0421 9.638 17.8421 9.498C17.6461 9.358 17.3261 9.288 16.8821 9.288H16.1861V8.322H16.8821C17.2701 8.322 17.5681 8.254 17.7761 8.118C17.9841 7.982 18.0881 7.802 18.0881 7.578C18.0881 7.374 17.9961 7.206 17.8121 7.074C17.6321 6.942 17.3641 6.876 17.0081 6.876C16.7961 6.876 16.6161 6.898 16.4681 6.942C16.3201 6.986 16.1921 7.034 16.0841 7.086C15.9801 7.134 15.8921 7.18 15.8201 7.224C15.7481 7.268 15.6801 7.29 15.6161 7.29C15.5481 7.29 15.4901 7.278 15.4421 7.254C15.3941 7.226 15.3421 7.168 15.2861 7.08L14.9501 6.51ZM24.793 10.944V6.978H23.281C23.241 7.494 23.191 7.96 23.131 8.376C23.071 8.788 23.001 9.156 22.921 9.48C22.841 9.804 22.753 10.086 22.657 10.326C22.565 10.566 22.465 10.772 22.357 10.944H24.793ZM27.361 10.902V13.62C27.361 13.756 27.321 13.864 27.241 13.944C27.165 14.024 27.065 14.064 26.941 14.064H26.017V12H21.409V13.644C21.409 13.748 21.375 13.844 21.307 13.932C21.243 14.02 21.141 14.064 21.001 14.064H20.065V10.944H20.239C20.379 10.944 20.515 10.926 20.647 10.89C20.779 10.85 20.905 10.77 21.025 10.65C21.149 10.53 21.265 10.358 21.373 10.134C21.485 9.906 21.585 9.604 21.673 9.228C21.761 8.848 21.837 8.382 21.901 7.83C21.969 7.278 22.023 6.616 22.063 5.844H26.233V10.902H27.361ZM31.5465 9.372C31.1185 9.392 30.7585 9.43 30.4665 9.486C30.1745 9.538 29.9405 9.606 29.7645 9.69C29.5885 9.774 29.4625 9.872 29.3865 9.984C29.3105 10.096 29.2725 10.218 29.2725 10.35C29.2725 10.61 29.3485 10.796 29.5005 10.908C29.6565 11.02 29.8585 11.076 30.1065 11.076C30.4105 11.076 30.6725 11.022 30.8925 10.914C31.1165 10.802 31.3345 10.634 31.5465 10.41V9.372ZM28.1505 6.702C28.8585 6.054 29.7105 5.73 30.7065 5.73C31.0665 5.73 31.3885 5.79 31.6725 5.91C31.9565 6.026 32.1965 6.19 32.3925 6.402C32.5885 6.61 32.7365 6.86 32.8365 7.152C32.9405 7.444 32.9925 7.764 32.9925 8.112V12H32.3205C32.1805 12 32.0725 11.98 31.9965 11.94C31.9205 11.896 31.8605 11.81 31.8165 11.682L31.6845 11.238C31.5285 11.378 31.3765 11.502 31.2285 11.61C31.0805 11.714 30.9265 11.802 30.7665 11.874C30.6065 11.946 30.4345 12 30.2505 12.036C30.0705 12.076 29.8705 12.096 29.6505 12.096C29.3905 12.096 29.1505 12.062 28.9305 11.994C28.7105 11.922 28.5205 11.816 28.3605 11.676C28.2005 11.536 28.0765 11.362 27.9885 11.154C27.9005 10.946 27.8565 10.704 27.8565 10.428C27.8565 10.272 27.8825 10.118 27.9345 9.966C27.9865 9.81 28.0705 9.662 28.1865 9.522C28.3065 9.382 28.4605 9.25 28.6485 9.126C28.8365 9.002 29.0665 8.894 29.3385 8.802C29.6145 8.71 29.9345 8.636 30.2985 8.58C30.6625 8.52 31.0785 8.484 31.5465 8.472V8.112C31.5465 7.7 31.4585 7.396 31.2825 7.2C31.1065 7 30.8525 6.9 30.5205 6.9C30.2805 6.9 30.0805 6.928 29.9205 6.984C29.7645 7.04 29.6265 7.104 29.5065 7.176C29.3865 7.244 29.2765 7.306 29.1765 7.362C29.0805 7.418 28.9725 7.446 28.8525 7.446C28.7485 7.446 28.6605 7.42 28.5885 7.368C28.5165 7.312 28.4585 7.248 28.4145 7.176L28.1505 6.702ZM39.7523 5.844V12H38.2702V9.276H35.8702V12H34.3883V5.844H35.8702V8.178H38.2702V5.844H39.7523ZM43.9443 5.748C44.4003 5.748 44.8143 5.822 45.1863 5.97C45.5623 6.118 45.8823 6.328 46.1463 6.6C46.4143 6.872 46.6203 7.204 46.7643 7.596C46.9083 7.988 46.9803 8.426 46.9803 8.91C46.9803 9.398 46.9083 9.838 46.7643 10.23C46.6203 10.622 46.4143 10.956 46.1463 11.232C45.8823 11.508 45.5623 11.72 45.1863 11.868C44.8143 12.016 44.4003 12.09 43.9443 12.09C43.4843 12.09 43.0663 12.016 42.6903 11.868C42.3143 11.72 41.9923 11.508 41.7243 11.232C41.4603 10.956 41.2543 10.622 41.1063 10.23C40.9623 9.838 40.8903 9.398 40.8903 8.91C40.8903 8.426 40.9623 7.988 41.1063 7.596C41.2543 7.204 41.4603 6.872 41.7243 6.6C41.9923 6.328 42.3143 6.118 42.6903 5.97C43.0663 5.822 43.4843 5.748 43.9443 5.748ZM43.9443 10.95C44.4563 10.95 44.8343 10.778 45.0783 10.434C45.3263 10.09 45.4503 9.586 45.4503 8.922C45.4503 8.258 45.3263 7.752 45.0783 7.404C44.8343 7.056 44.4563 6.882 43.9443 6.882C43.4243 6.882 43.0383 7.058 42.7863 7.41C42.5383 7.758 42.4143 8.262 42.4143 8.922C42.4143 9.582 42.5383 10.086 42.7863 10.434C43.0383 10.778 43.4243 10.95 43.9443 10.95ZM53.5429 10.986C53.8549 10.986 54.1009 10.91 54.2809 10.758C54.4649 10.606 54.5569 10.398 54.5569 10.134C54.5569 10.022 54.5409 9.918 54.5089 9.822C54.4809 9.722 54.4289 9.636 54.3529 9.564C54.2769 9.492 54.1729 9.436 54.0409 9.396C53.9129 9.356 53.7489 9.336 53.5489 9.336H52.4389V10.986H53.5429ZM52.4389 6.81V8.424H53.4109C53.5549 8.424 53.6869 8.404 53.8069 8.364C53.9269 8.32 54.0309 8.26 54.1189 8.184C54.2069 8.104 54.2749 8.012 54.3229 7.908C54.3709 7.8 54.3949 7.682 54.3949 7.554C54.3949 7.462 54.3789 7.372 54.3469 7.284C54.3149 7.192 54.2609 7.112 54.1849 7.044C54.1089 6.972 54.0069 6.916 53.8789 6.876C53.7549 6.832 53.5989 6.81 53.4109 6.81H52.4389ZM53.4529 5.844C53.8409 5.844 54.1749 5.882 54.4549 5.958C54.7389 6.034 54.9729 6.138 55.1569 6.27C55.3409 6.402 55.4769 6.56 55.5649 6.744C55.6529 6.924 55.6969 7.12 55.6969 7.332C55.6969 7.464 55.6789 7.602 55.6429 7.746C55.6109 7.886 55.5509 8.022 55.4629 8.154C55.3789 8.286 55.2629 8.406 55.1149 8.514C54.9669 8.622 54.7789 8.706 54.5509 8.766C54.7549 8.81 54.9409 8.872 55.1089 8.952C55.2769 9.028 55.4209 9.126 55.5409 9.246C55.6609 9.362 55.7529 9.5 55.8169 9.66C55.8849 9.816 55.9189 9.992 55.9189 10.188C55.9189 10.5 55.8529 10.77 55.7209 10.998C55.5929 11.226 55.4189 11.414 55.1989 11.562C54.9829 11.71 54.7309 11.82 54.4429 11.892C54.1589 11.964 53.8609 12 53.5489 12H51.0289V5.844H53.4529ZM67.53 3.324V12H65.91V6.564C65.91 6.36 65.914 6.146 65.922 5.922C65.934 5.698 65.958 5.46 65.994 5.208C65.914 5.432 65.826 5.64 65.73 5.832C65.638 6.02 65.548 6.186 65.46 6.33L62.142 11.502C62.106 11.562 62.062 11.622 62.01 11.682C61.962 11.742 61.908 11.796 61.848 11.844C61.788 11.888 61.722 11.926 61.65 11.958C61.578 11.986 61.504 12 61.428 12H60.216V3.324H61.836V8.76C61.836 8.964 61.83 9.18 61.818 9.408C61.81 9.632 61.788 9.87 61.752 10.122C61.832 9.898 61.918 9.69 62.01 9.498C62.106 9.306 62.2 9.138 62.292 8.994L65.604 3.822C65.64 3.762 65.682 3.702 65.73 3.642C65.782 3.582 65.838 3.53 65.898 3.486C65.958 3.438 66.022 3.4 66.09 3.372C66.162 3.34 66.238 3.324 66.318 3.324H67.53ZM71.6483 10.986C71.9603 10.986 72.2063 10.91 72.3863 10.758C72.5703 10.606 72.6623 10.398 72.6623 10.134C72.6623 10.022 72.6463 9.918 72.6143 9.822C72.5863 9.722 72.5343 9.636 72.4583 9.564C72.3823 9.492 72.2783 9.436 72.1463 9.396C72.0183 9.356 71.8543 9.336 71.6543 9.336H70.5443V10.986H71.6483ZM70.5443 6.81V8.424H71.5163C71.6603 8.424 71.7923 8.404 71.9123 8.364C72.0323 8.32 72.1363 8.26 72.2243 8.184C72.3123 8.104 72.3803 8.012 72.4283 7.908C72.4763 7.8 72.5003 7.682 72.5003 7.554C72.5003 7.462 72.4843 7.372 72.4523 7.284C72.4203 7.192 72.3663 7.112 72.2903 7.044C72.2143 6.972 72.1123 6.916 71.9843 6.876C71.8603 6.832 71.7043 6.81 71.5163 6.81H70.5443ZM71.5583 5.844C71.9463 5.844 72.2803 5.882 72.5603 5.958C72.8443 6.034 73.0783 6.138 73.2623 6.27C73.4463 6.402 73.5823 6.56 73.6703 6.744C73.7583 6.924 73.8023 7.12 73.8023 7.332C73.8023 7.464 73.7843 7.602 73.7483 7.746C73.7163 7.886 73.6563 8.022 73.5683 8.154C73.4843 8.286 73.3683 8.406 73.2203 8.514C73.0723 8.622 72.8843 8.706 72.6563 8.766C72.8603 8.81 73.0463 8.872 73.2143 8.952C73.3823 9.028 73.5263 9.126 73.6463 9.246C73.7663 9.362 73.8583 9.5 73.9223 9.66C73.9903 9.816 74.0243 9.992 74.0243 10.188C74.0243 10.5 73.9583 10.77 73.8263 10.998C73.6983 11.226 73.5243 11.414 73.3043 11.562C73.0883 11.71 72.8363 11.82 72.5483 11.892C72.2643 11.964 71.9663 12 71.6543 12H69.1343V5.844H71.5583ZM78.4215 9.372C77.9935 9.392 77.6335 9.43 77.3415 9.486C77.0495 9.538 76.8155 9.606 76.6395 9.69C76.4635 9.774 76.3375 9.872 76.2615 9.984C76.1855 10.096 76.1475 10.218 76.1475 10.35C76.1475 10.61 76.2235 10.796 76.3755 10.908C76.5315 11.02 76.7335 11.076 76.9815 11.076C77.2855 11.076 77.5475 11.022 77.7675 10.914C77.9915 10.802 78.2095 10.634 78.4215 10.41V9.372ZM75.0255 6.702C75.7335 6.054 76.5855 5.73 77.5815 5.73C77.9415 5.73 78.2635 5.79 78.5475 5.91C78.8315 6.026 79.0715 6.19 79.2675 6.402C79.4635 6.61 79.6115 6.86 79.7115 7.152C79.8155 7.444 79.8675 7.764 79.8675 8.112V12H79.1955C79.0555 12 78.9475 11.98 78.8715 11.94C78.7955 11.896 78.7355 11.81 78.6915 11.682L78.5595 11.238C78.4035 11.378 78.2515 11.502 78.1035 11.61C77.9555 11.714 77.8015 11.802 77.6415 11.874C77.4815 11.946 77.3095 12 77.1255 12.036C76.9455 12.076 76.7455 12.096 76.5255 12.096C76.2655 12.096 76.0255 12.062 75.8055 11.994C75.5855 11.922 75.3955 11.816 75.2355 11.676C75.0755 11.536 74.9515 11.362 74.8635 11.154C74.7755 10.946 74.7315 10.704 74.7315 10.428C74.7315 10.272 74.7575 10.118 74.8095 9.966C74.8615 9.81 74.9455 9.662 75.0615 9.522C75.1815 9.382 75.3355 9.25 75.5235 9.126C75.7115 9.002 75.9415 8.894 76.2135 8.802C76.4895 8.71 76.8095 8.636 77.1735 8.58C77.5375 8.52 77.9535 8.484 78.4215 8.472V8.112C78.4215 7.7 78.3335 7.396 78.1575 7.2C77.9815 7 77.7275 6.9 77.3955 6.9C77.1555 6.9 76.9555 6.928 76.7955 6.984C76.6395 7.04 76.5015 7.104 76.3815 7.176C76.2615 7.244 76.1515 7.306 76.0515 7.362C75.9555 7.418 75.8475 7.446 75.7275 7.446C75.6235 7.446 75.5355 7.42 75.4635 7.368C75.3915 7.312 75.3335 7.248 75.2895 7.176L75.0255 6.702ZM86.6273 5.844V12H85.1452V9.276H82.7452V12H81.2633V5.844H82.7452V8.178H85.1452V5.844H86.6273ZM90.8193 5.748C91.2753 5.748 91.6893 5.822 92.0613 5.97C92.4373 6.118 92.7573 6.328 93.0213 6.6C93.2893 6.872 93.4953 7.204 93.6393 7.596C93.7833 7.988 93.8553 8.426 93.8553 8.91C93.8553 9.398 93.7833 9.838 93.6393 10.23C93.4953 10.622 93.2893 10.956 93.0213 11.232C92.7573 11.508 92.4373 11.72 92.0613 11.868C91.6893 12.016 91.2753 12.09 90.8193 12.09C90.3593 12.09 89.9413 12.016 89.5653 11.868C89.1893 11.72 88.8673 11.508 88.5993 11.232C88.3353 10.956 88.1293 10.622 87.9813 10.23C87.8373 9.838 87.7653 9.398 87.7653 8.91C87.7653 8.426 87.8373 7.988 87.9813 7.596C88.1293 7.204 88.3353 6.872 88.5993 6.6C88.8673 6.328 89.1893 6.118 89.5653 5.97C89.9413 5.822 90.3593 5.748 90.8193 5.748ZM90.8193 10.95C91.3313 10.95 91.7093 10.778 91.9533 10.434C92.2013 10.09 92.3253 9.586 92.3253 8.922C92.3253 8.258 92.2013 7.752 91.9533 7.404C91.7093 7.056 91.3313 6.882 90.8193 6.882C90.2993 6.882 89.9133 7.058 89.6613 7.41C89.4133 7.758 89.2893 8.262 89.2893 8.922C89.2893 9.582 89.4133 10.086 89.6613 10.434C89.9133 10.778 90.2993 10.95 90.8193 10.95ZM94.9379 7.758H98.0459V8.994H94.9379V7.758ZM104.322 9.72C104.63 9.712 104.912 9.648 105.168 9.528C105.424 9.408 105.644 9.248 105.828 9.048C106.012 8.844 106.154 8.608 106.254 8.34C106.358 8.068 106.41 7.776 106.41 7.464C106.41 7.16 106.358 6.874 106.254 6.606C106.154 6.334 106.012 6.096 105.828 5.892C105.644 5.688 105.424 5.526 105.168 5.406C104.912 5.286 104.63 5.222 104.322 5.214V9.72ZM102.792 5.214C102.48 5.222 102.196 5.286 101.94 5.406C101.688 5.526 101.47 5.688 101.286 5.892C101.102 6.096 100.96 6.334 100.86 6.606C100.76 6.874 100.71 7.16 100.71 7.464C100.71 7.776 100.76 8.068 100.86 8.34C100.96 8.608 101.102 8.844 101.286 9.048C101.47 9.248 101.688 9.408 101.94 9.528C102.196 9.648 102.48 9.712 102.792 9.72V5.214ZM104.322 3.972C104.862 3.988 105.358 4.09 105.81 4.278C106.262 4.466 106.65 4.718 106.974 5.034C107.302 5.35 107.558 5.716 107.742 6.132C107.926 6.548 108.018 6.992 108.018 7.464C108.018 7.94 107.926 8.388 107.742 8.808C107.558 9.224 107.302 9.59 106.974 9.906C106.65 10.222 106.262 10.474 105.81 10.662C105.358 10.85 104.862 10.952 104.322 10.968V12H102.792V10.968C102.256 10.952 101.762 10.85 101.31 10.662C100.858 10.47 100.468 10.218 100.14 9.906C99.8125 9.59 99.5565 9.224 99.3725 8.808C99.1885 8.388 99.0965 7.94 99.0965 7.464C99.0965 6.992 99.1885 6.548 99.3725 6.132C99.5565 5.716 99.8125 5.352 100.14 5.04C100.468 4.724 100.858 4.472 101.31 4.284C101.762 4.096 102.256 3.992 102.792 3.972V2.958H104.322V3.972ZM110.507 10.404C110.675 10.608 110.857 10.752 111.053 10.836C111.253 10.92 111.469 10.962 111.701 10.962C111.925 10.962 112.127 10.92 112.307 10.836C112.487 10.752 112.639 10.624 112.763 10.452C112.891 10.28 112.989 10.064 113.057 9.804C113.125 9.54 113.159 9.23 113.159 8.874C113.159 8.514 113.129 8.21 113.069 7.962C113.013 7.71 112.931 7.506 112.823 7.35C112.715 7.194 112.583 7.08 112.427 7.008C112.275 6.936 112.101 6.9 111.905 6.9C111.597 6.9 111.335 6.966 111.119 7.098C110.903 7.226 110.699 7.408 110.507 7.644V10.404ZM110.429 6.684C110.681 6.4 110.967 6.17 111.287 5.994C111.607 5.818 111.983 5.73 112.415 5.73C112.751 5.73 113.057 5.8 113.333 5.94C113.613 6.08 113.853 6.284 114.053 6.552C114.257 6.816 114.413 7.144 114.521 7.536C114.633 7.924 114.689 8.37 114.689 8.874C114.689 9.334 114.627 9.76 114.503 10.152C114.379 10.544 114.201 10.884 113.969 11.172C113.741 11.46 113.463 11.686 113.135 11.85C112.811 12.01 112.447 12.09 112.043 12.09C111.699 12.09 111.405 12.038 111.161 11.934C110.917 11.826 110.699 11.678 110.507 11.49V14.01H109.025V5.844H109.931C110.123 5.844 110.249 5.934 110.309 6.114L110.429 6.684ZM119.086 9.372C118.658 9.392 118.298 9.43 118.006 9.486C117.714 9.538 117.48 9.606 117.304 9.69C117.128 9.774 117.002 9.872 116.926 9.984C116.85 10.096 116.812 10.218 116.812 10.35C116.812 10.61 116.888 10.796 117.04 10.908C117.196 11.02 117.398 11.076 117.646 11.076C117.95 11.076 118.212 11.022 118.432 10.914C118.656 10.802 118.874 10.634 119.086 10.41V9.372ZM115.69 6.702C116.398 6.054 117.25 5.73 118.246 5.73C118.606 5.73 118.928 5.79 119.212 5.91C119.496 6.026 119.736 6.19 119.932 6.402C120.128 6.61 120.276 6.86 120.376 7.152C120.48 7.444 120.532 7.764 120.532 8.112V12H119.86C119.72 12 119.612 11.98 119.536 11.94C119.46 11.896 119.4 11.81 119.356 11.682L119.224 11.238C119.068 11.378 118.916 11.502 118.768 11.61C118.62 11.714 118.466 11.802 118.306 11.874C118.146 11.946 117.974 12 117.79 12.036C117.61 12.076 117.41 12.096 117.19 12.096C116.93 12.096 116.69 12.062 116.47 11.994C116.25 11.922 116.06 11.816 115.9 11.676C115.74 11.536 115.616 11.362 115.528 11.154C115.44 10.946 115.396 10.704 115.396 10.428C115.396 10.272 115.422 10.118 115.474 9.966C115.526 9.81 115.61 9.662 115.726 9.522C115.846 9.382 116 9.25 116.188 9.126C116.376 9.002 116.606 8.894 116.878 8.802C117.154 8.71 117.474 8.636 117.838 8.58C118.202 8.52 118.618 8.484 119.086 8.472V8.112C119.086 7.7 118.998 7.396 118.822 7.2C118.646 7 118.392 6.9 118.06 6.9C117.82 6.9 117.62 6.928 117.46 6.984C117.304 7.04 117.166 7.104 117.046 7.176C116.926 7.244 116.816 7.306 116.716 7.362C116.62 7.418 116.512 7.446 116.392 7.446C116.288 7.446 116.2 7.42 116.128 7.368C116.056 7.312 115.998 7.248 115.954 7.176L115.69 6.702ZM127.291 5.844V12H125.809V9.276H123.409V12H121.927V5.844H123.409V8.178H125.809V5.844H127.291ZM132.437 6.234C132.509 6.118 132.607 6.024 132.731 5.952C132.855 5.88 132.987 5.844 133.127 5.844H134.291L132.857 8.13C132.757 8.29 132.655 8.42 132.551 8.52C132.447 8.616 132.321 8.692 132.173 8.748C132.373 8.808 132.537 8.898 132.665 9.018C132.793 9.134 132.909 9.282 133.013 9.462L134.453 12H133.427C133.167 12 132.965 11.956 132.821 11.868C132.677 11.78 132.555 11.654 132.455 11.49L131.549 9.786C131.469 9.638 131.365 9.528 131.237 9.456C131.113 9.384 130.967 9.348 130.799 9.348H130.241V12H128.759V5.844H130.241V8.382H130.721C130.889 8.382 131.023 8.352 131.123 8.292C131.227 8.228 131.315 8.132 131.387 8.004L132.437 6.234ZM137.776 5.748C138.232 5.748 138.646 5.822 139.018 5.97C139.394 6.118 139.714 6.328 139.978 6.6C140.246 6.872 140.452 7.204 140.596 7.596C140.74 7.988 140.812 8.426 140.812 8.91C140.812 9.398 140.74 9.838 140.596 10.23C140.452 10.622 140.246 10.956 139.978 11.232C139.714 11.508 139.394 11.72 139.018 11.868C138.646 12.016 138.232 12.09 137.776 12.09C137.316 12.09 136.898 12.016 136.522 11.868C136.146 11.72 135.824 11.508 135.556 11.232C135.292 10.956 135.086 10.622 134.938 10.23C134.794 9.838 134.722 9.398 134.722 8.91C134.722 8.426 134.794 7.988 134.938 7.596C135.086 7.204 135.292 6.872 135.556 6.6C135.824 6.328 136.146 6.118 136.522 5.97C136.898 5.822 137.316 5.748 137.776 5.748ZM137.776 10.95C138.288 10.95 138.666 10.778 138.91 10.434C139.158 10.09 139.282 9.586 139.282 8.922C139.282 8.258 139.158 7.752 138.91 7.404C138.666 7.056 138.288 6.882 137.776 6.882C137.256 6.882 136.87 7.058 136.618 7.41C136.37 7.758 136.246 8.262 136.246 8.922C136.246 9.582 136.37 10.086 136.618 10.434C136.87 10.778 137.256 10.95 137.776 10.95ZM144.457 10.986C144.769 10.986 145.015 10.91 145.195 10.758C145.379 10.606 145.471 10.398 145.471 10.134C145.471 10.022 145.455 9.918 145.423 9.822C145.395 9.722 145.343 9.636 145.267 9.564C145.191 9.492 145.087 9.436 144.955 9.396C144.827 9.356 144.663 9.336 144.463 9.336H143.353V10.986H144.457ZM143.353 6.81V8.424H144.325C144.469 8.424 144.601 8.404 144.721 8.364C144.841 8.32 144.945 8.26 145.033 8.184C145.121 8.104 145.189 8.012 145.237 7.908C145.285 7.8 145.309 7.682 145.309 7.554C145.309 7.462 145.293 7.372 145.261 7.284C145.229 7.192 145.175 7.112 145.099 7.044C145.023 6.972 144.921 6.916 144.793 6.876C144.669 6.832 144.513 6.81 144.325 6.81H143.353ZM144.367 5.844C144.755 5.844 145.089 5.882 145.369 5.958C145.653 6.034 145.887 6.138 146.071 6.27C146.255 6.402 146.391 6.56 146.479 6.744C146.567 6.924 146.611 7.12 146.611 7.332C146.611 7.464 146.593 7.602 146.557 7.746C146.525 7.886 146.465 8.022 146.377 8.154C146.293 8.286 146.177 8.406 146.029 8.514C145.881 8.622 145.693 8.706 145.465 8.766C145.669 8.81 145.855 8.872 146.023 8.952C146.191 9.028 146.335 9.126 146.455 9.246C146.575 9.362 146.667 9.5 146.731 9.66C146.799 9.816 146.833 9.992 146.833 10.188C146.833 10.5 146.767 10.77 146.635 10.998C146.507 11.226 146.333 11.414 146.113 11.562C145.897 11.71 145.645 11.82 145.357 11.892C145.073 11.964 144.775 12 144.463 12H141.943V5.844H144.367ZM152.388 7.146C152.344 7.202 152.3 7.246 152.256 7.278C152.216 7.31 152.156 7.326 152.076 7.326C152 7.326 151.926 7.304 151.854 7.26C151.782 7.212 151.696 7.16 151.596 7.104C151.496 7.044 151.376 6.992 151.236 6.948C151.1 6.9 150.93 6.876 150.726 6.876C150.466 6.876 150.238 6.924 150.042 7.02C149.846 7.112 149.682 7.246 149.55 7.422C149.422 7.598 149.326 7.812 149.262 8.064C149.198 8.312 149.166 8.594 149.166 8.91C149.166 9.238 149.2 9.53 149.268 9.786C149.34 10.042 149.442 10.258 149.574 10.434C149.706 10.606 149.866 10.738 150.054 10.83C150.242 10.918 150.454 10.962 150.69 10.962C150.926 10.962 151.116 10.934 151.26 10.878C151.408 10.818 151.532 10.754 151.632 10.686C151.732 10.614 151.818 10.55 151.89 10.494C151.966 10.434 152.05 10.404 152.142 10.404C152.262 10.404 152.352 10.45 152.412 10.542L152.838 11.082C152.674 11.274 152.496 11.436 152.304 11.568C152.112 11.696 151.912 11.8 151.704 11.88C151.5 11.956 151.288 12.01 151.068 12.042C150.852 12.074 150.636 12.09 150.42 12.09C150.04 12.09 149.682 12.02 149.346 11.88C149.01 11.736 148.716 11.528 148.464 11.256C148.212 10.984 148.012 10.652 147.864 10.26C147.72 9.864 147.648 9.414 147.648 8.91C147.648 8.458 147.712 8.04 147.84 7.656C147.972 7.268 148.164 6.934 148.416 6.654C148.668 6.37 148.98 6.148 149.352 5.988C149.724 5.828 150.152 5.748 150.636 5.748C151.096 5.748 151.498 5.822 151.842 5.97C152.19 6.118 152.502 6.33 152.778 6.606L152.388 7.146ZM157.445 6.234C157.517 6.118 157.615 6.024 157.739 5.952C157.863 5.88 157.995 5.844 158.135 5.844H159.299L157.865 8.13C157.765 8.29 157.663 8.42 157.559 8.52C157.455 8.616 157.329 8.692 157.181 8.748C157.381 8.808 157.545 8.898 157.673 9.018C157.801 9.134 157.917 9.282 158.021 9.462L159.461 12H158.435C158.175 12 157.973 11.956 157.829 11.868C157.685 11.78 157.563 11.654 157.463 11.49L156.557 9.786C156.477 9.638 156.373 9.528 156.245 9.456C156.121 9.384 155.975 9.348 155.807 9.348H155.249V12H153.767V5.844H155.249V8.382H155.729C155.897 8.382 156.031 8.352 156.131 8.292C156.235 8.228 156.323 8.132 156.395 8.004L157.445 6.234ZM164.026 8.214C164.026 8.022 163.998 7.842 163.942 7.674C163.89 7.502 163.81 7.352 163.702 7.224C163.594 7.096 163.456 6.996 163.288 6.924C163.124 6.848 162.932 6.81 162.712 6.81C162.284 6.81 161.946 6.932 161.698 7.176C161.454 7.42 161.298 7.766 161.23 8.214H164.026ZM161.2 9.108C161.224 9.424 161.28 9.698 161.368 9.93C161.456 10.158 161.572 10.348 161.716 10.5C161.86 10.648 162.03 10.76 162.226 10.836C162.426 10.908 162.646 10.944 162.886 10.944C163.126 10.944 163.332 10.916 163.504 10.86C163.68 10.804 163.832 10.742 163.96 10.674C164.092 10.606 164.206 10.544 164.302 10.488C164.402 10.432 164.498 10.404 164.59 10.404C164.714 10.404 164.806 10.45 164.866 10.542L165.292 11.082C165.128 11.274 164.944 11.436 164.74 11.568C164.536 11.696 164.322 11.8 164.098 11.88C163.878 11.956 163.652 12.01 163.42 12.042C163.192 12.074 162.97 12.09 162.754 12.09C162.326 12.09 161.928 12.02 161.56 11.88C161.192 11.736 160.872 11.526 160.6 11.25C160.328 10.97 160.114 10.626 159.958 10.218C159.802 9.806 159.724 9.33 159.724 8.79C159.724 8.37 159.792 7.976 159.928 7.608C160.064 7.236 160.258 6.914 160.51 6.642C160.766 6.366 161.076 6.148 161.44 5.988C161.808 5.828 162.222 5.748 162.682 5.748C163.07 5.748 163.428 5.81 163.756 5.934C164.084 6.058 164.366 6.24 164.602 6.48C164.838 6.716 165.022 7.008 165.154 7.356C165.29 7.7 165.358 8.094 165.358 8.538C165.358 8.762 165.334 8.914 165.286 8.994C165.238 9.07 165.146 9.108 165.01 9.108H161.2Z" transform="translate(23.5378 0.777954)" fill="#BDBDBD"/>
</g>
</svg>
