<svg width="155" height="20" viewBox="0 0 155 20" fill="none" xmlns="http://www.w3.org/2000/svg">
<path d="M0.655897 -2.50698e-08C0.856454 0.210301 1.05701 0.315452 1.25757 0.525753C1.65868 0.946355 2.0598 1.36696 2.46091 1.78756C5.36898 4.94208 8.27706 7.99144 11.1851 11.146C12.7896 12.9335 14.4943 14.6159 16.0988 16.4035C16.3996 16.7189 16.7005 17.0344 17.0013 17.455C15.8982 18.8219 13.9929 18.2962 13.291 16.4035C11.3857 16.7189 9.4804 15.4571 9.17957 13.0387C8.97901 13.0387 8.67817 13.0387 8.37734 13.0387C8.27706 14.0902 7.87595 15.0365 7.07372 15.6674C6.37177 16.1932 5.46926 16.5086 4.3662 16.2983C4.16564 16.9292 3.86481 17.5601 3.26314 17.7704C2.86202 17.9807 2.36063 18.0859 1.95952 17.9807C1.05701 17.8756 0.254784 17.0344 0.0542268 15.9829C-0.14633 14.9314 0.455341 13.985 1.75896 13.3541C1.45813 11.146 2.46091 9.779 4.86759 9.04295C4.86759 8.83265 4.86759 8.51719 4.86759 8.30689C3.86481 8.09659 2.9623 7.67599 2.36063 6.83479C1.75896 5.99358 1.5584 5.04723 1.75896 3.99572C-0.0460515 2.94421 -0.547444 1.15666 0.655897 -2.50698e-08Z" transform="translate(0 0.934753)" fill="#BE1F0C"/>
<path d="M0.655897 -2.50698e-08C0.856454 0.210301 1.05701 0.315452 1.25757 0.525753C1.65868 0.946355 2.0598 1.36696 2.46091 1.78756C5.36898 4.94208 8.27706 7.99144 11.1851 11.146C12.7896 12.9335 14.4943 14.6159 16.0988 16.4035C16.3996 16.7189 16.7005 17.0344 17.0013 17.455C15.8982 18.8219 13.9929 18.2962 13.291 16.4035C11.3857 16.7189 9.4804 15.4571 9.17957 13.0387C8.97901 13.0387 8.67817 13.0387 8.37734 13.0387C8.27706 14.0902 7.87595 15.0365 7.07372 15.6674C6.37177 16.1932 5.46926 16.5086 4.3662 16.2983C4.16564 16.9292 3.86481 17.5601 3.26314 17.7704C2.86202 17.9807 2.36063 18.0859 1.95952 17.9807C1.05701 17.8756 0.254784 17.0344 0.0542268 15.9829C-0.14633 14.9314 0.455341 13.985 1.75896 13.3541C1.45813 11.146 2.46091 9.779 4.86759 9.04295C4.86759 8.83265 4.86759 8.51719 4.86759 8.30689C3.86481 8.09659 2.9623 7.67599 2.36063 6.83479C1.75896 5.99358 1.5584 5.04723 1.75896 3.99572C-0.0460515 2.94421 -0.547444 1.15666 0.655897 -2.50698e-08Z" transform="translate(17.6616 18.3801) rotate(180)" fill="#E42013"/>
<path d="M10.374 3.324V12H8.952V6.396C8.952 6.172 8.964 5.93 8.988 5.67L6.366 10.596C6.242 10.832 6.052 10.95 5.796 10.95H5.568C5.312 10.95 5.122 10.832 4.998 10.596L2.346 5.652C2.358 5.784 2.368 5.914 2.376 6.042C2.384 6.17 2.388 6.288 2.388 6.396V12H0.966V3.324H2.184C2.256 3.324 2.318 3.326 2.37 3.33C2.422 3.334 2.468 3.344 2.508 3.36C2.552 3.376 2.59 3.402 2.622 3.438C2.658 3.474 2.692 3.522 2.724 3.582L5.322 8.4C5.39 8.528 5.452 8.66 5.508 8.796C5.568 8.932 5.626 9.072 5.682 9.216C5.738 9.068 5.796 8.926 5.856 8.79C5.916 8.65 5.98 8.516 6.048 8.388L8.61 3.582C8.642 3.522 8.676 3.474 8.712 3.438C8.748 3.402 8.786 3.376 8.826 3.36C8.87 3.344 8.918 3.334 8.97 3.33C9.022 3.326 9.084 3.324 9.156 3.324H10.374ZM15.1754 9.372C14.7474 9.392 14.3874 9.43 14.0954 9.486C13.8034 9.538 13.5694 9.606 13.3934 9.69C13.2174 9.774 13.0914 9.872 13.0154 9.984C12.9394 10.096 12.9014 10.218 12.9014 10.35C12.9014 10.61 12.9774 10.796 13.1294 10.908C13.2854 11.02 13.4874 11.076 13.7354 11.076C14.0394 11.076 14.3014 11.022 14.5214 10.914C14.7454 10.802 14.9634 10.634 15.1754 10.41V9.372ZM11.7794 6.702C12.4874 6.054 13.3394 5.73 14.3354 5.73C14.6954 5.73 15.0174 5.79 15.3014 5.91C15.5854 6.026 15.8254 6.19 16.0214 6.402C16.2174 6.61 16.3654 6.86 16.4654 7.152C16.5694 7.444 16.6214 7.764 16.6214 8.112V12H15.9494C15.8094 12 15.7014 11.98 15.6254 11.94C15.5494 11.896 15.4894 11.81 15.4454 11.682L15.3134 11.238C15.1574 11.378 15.0054 11.502 14.8574 11.61C14.7094 11.714 14.5554 11.802 14.3954 11.874C14.2354 11.946 14.0634 12 13.8794 12.036C13.6994 12.076 13.4994 12.096 13.2794 12.096C13.0194 12.096 12.7794 12.062 12.5594 11.994C12.3394 11.922 12.1494 11.816 11.9894 11.676C11.8294 11.536 11.7054 11.362 11.6174 11.154C11.5294 10.946 11.4854 10.704 11.4854 10.428C11.4854 10.272 11.5114 10.118 11.5634 9.966C11.6154 9.81 11.6994 9.662 11.8154 9.522C11.9354 9.382 12.0894 9.25 12.2774 9.126C12.4654 9.002 12.6954 8.894 12.9674 8.802C13.2434 8.71 13.5634 8.636 13.9274 8.58C14.2914 8.52 14.7074 8.484 15.1754 8.472V8.112C15.1754 7.7 15.0874 7.396 14.9114 7.2C14.7354 7 14.4814 6.9 14.1494 6.9C13.9094 6.9 13.7094 6.928 13.5494 6.984C13.3934 7.04 13.2554 7.104 13.1354 7.176C13.0154 7.244 12.9054 7.306 12.8054 7.362C12.7094 7.418 12.6014 7.446 12.4814 7.446C12.3774 7.446 12.2894 7.42 12.2174 7.368C12.1454 7.312 12.0874 7.248 12.0434 7.176L11.7794 6.702ZM21.8812 7.416C21.7132 7.212 21.5292 7.068 21.3292 6.984C21.1332 6.9 20.9212 6.858 20.6932 6.858C20.4692 6.858 20.2672 6.9 20.0872 6.984C19.9072 7.068 19.7532 7.196 19.6252 7.368C19.4972 7.536 19.3992 7.752 19.3312 8.016C19.2632 8.276 19.2292 8.584 19.2292 8.94C19.2292 9.3 19.2572 9.606 19.3132 9.858C19.3732 10.106 19.4572 10.31 19.5652 10.47C19.6732 10.626 19.8052 10.74 19.9612 10.812C20.1172 10.88 20.2912 10.914 20.4832 10.914C20.7912 10.914 21.0532 10.85 21.2692 10.722C21.4852 10.594 21.6892 10.412 21.8812 10.176V7.416ZM23.3632 3.084V12H22.4572C22.2612 12 22.1372 11.91 22.0852 11.73L21.9592 11.136C21.7112 11.42 21.4252 11.65 21.1012 11.826C20.7812 12.002 20.4072 12.09 19.9792 12.09C19.6432 12.09 19.3352 12.02 19.0552 11.88C18.7752 11.74 18.5332 11.538 18.3292 11.274C18.1292 11.006 17.9732 10.676 17.8612 10.284C17.7532 9.892 17.6992 9.444 17.6992 8.94C17.6992 8.484 17.7612 8.06 17.8852 7.668C18.0092 7.276 18.1872 6.936 18.4192 6.648C18.6512 6.36 18.9292 6.136 19.2532 5.976C19.5772 5.812 19.9412 5.73 20.3452 5.73C20.6892 5.73 20.9832 5.784 21.2272 5.892C21.4712 6 21.6892 6.146 21.8812 6.33V3.084H23.3632ZM28.7917 8.214C28.7917 8.022 28.7637 7.842 28.7077 7.674C28.6557 7.502 28.5757 7.352 28.4677 7.224C28.3598 7.096 28.2218 6.996 28.0538 6.924C27.8898 6.848 27.6978 6.81 27.4778 6.81C27.0497 6.81 26.7117 6.932 26.4638 7.176C26.2197 7.42 26.0637 7.766 25.9958 8.214H28.7917ZM25.9658 9.108C25.9897 9.424 26.0457 9.698 26.1338 9.93C26.2217 10.158 26.3377 10.348 26.4818 10.5C26.6257 10.648 26.7957 10.76 26.9918 10.836C27.1917 10.908 27.4117 10.944 27.6517 10.944C27.8917 10.944 28.0977 10.916 28.2697 10.86C28.4457 10.804 28.5978 10.742 28.7258 10.674C28.8578 10.606 28.9718 10.544 29.0677 10.488C29.1677 10.432 29.2637 10.404 29.3557 10.404C29.4797 10.404 29.5717 10.45 29.6317 10.542L30.0578 11.082C29.8938 11.274 29.7098 11.436 29.5058 11.568C29.3018 11.696 29.0878 11.8 28.8638 11.88C28.6438 11.956 28.4178 12.01 28.1857 12.042C27.9577 12.074 27.7357 12.09 27.5197 12.09C27.0917 12.09 26.6937 12.02 26.3258 11.88C25.9578 11.736 25.6377 11.526 25.3657 11.25C25.0937 10.97 24.8797 10.626 24.7237 10.218C24.5677 9.806 24.4897 9.33 24.4897 8.79C24.4897 8.37 24.5578 7.976 24.6938 7.608C24.8298 7.236 25.0238 6.914 25.2757 6.642C25.5318 6.366 25.8418 6.148 26.2057 5.988C26.5738 5.828 26.9878 5.748 27.4478 5.748C27.8358 5.748 28.1938 5.81 28.5217 5.934C28.8497 6.058 29.1317 6.24 29.3678 6.48C29.6038 6.716 29.7878 7.008 29.9198 7.356C30.0558 7.7 30.1237 8.094 30.1237 8.538C30.1237 8.762 30.0997 8.914 30.0517 8.994C30.0037 9.07 29.9118 9.108 29.7758 9.108H25.9658ZM35.6899 5.844V12H34.2019V5.844H35.6899ZM35.8939 4.05C35.8939 4.178 35.8679 4.298 35.8159 4.41C35.7639 4.522 35.6939 4.62 35.6059 4.704C35.5219 4.788 35.4219 4.856 35.3059 4.908C35.1899 4.956 35.0659 4.98 34.9339 4.98C34.8059 4.98 34.6839 4.956 34.5679 4.908C34.4559 4.856 34.3579 4.788 34.2739 4.704C34.1899 4.62 34.1219 4.522 34.0699 4.41C34.0219 4.298 33.9979 4.178 33.9979 4.05C33.9979 3.918 34.0219 3.794 34.0699 3.678C34.1219 3.562 34.1899 3.462 34.2739 3.378C34.3579 3.294 34.4559 3.228 34.5679 3.18C34.6839 3.128 34.8059 3.102 34.9339 3.102C35.0659 3.102 35.1899 3.128 35.3059 3.18C35.4219 3.228 35.5219 3.294 35.6059 3.378C35.6939 3.462 35.7639 3.562 35.8159 3.678C35.8679 3.794 35.8939 3.918 35.8939 4.05ZM38.5867 6.6C38.7107 6.476 38.8408 6.362 38.9768 6.258C39.1168 6.15 39.2628 6.06 39.4147 5.988C39.5707 5.912 39.7367 5.854 39.9128 5.814C40.0887 5.77 40.2807 5.748 40.4888 5.748C40.8248 5.748 41.1228 5.806 41.3828 5.922C41.6428 6.034 41.8587 6.194 42.0307 6.402C42.2068 6.606 42.3388 6.852 42.4267 7.14C42.5188 7.424 42.5648 7.738 42.5648 8.082V12H41.0827V8.082C41.0827 7.706 40.9967 7.416 40.8248 7.212C40.6528 7.004 40.3908 6.9 40.0388 6.9C39.7828 6.9 39.5428 6.958 39.3187 7.074C39.0947 7.19 38.8827 7.348 38.6827 7.548V12H37.2008V5.844H38.1068C38.2988 5.844 38.4248 5.934 38.4847 6.114L38.5867 6.6ZM48.7462 12H47.1262V3.324H48.7462V12ZM55.8758 5.844L53.4337 12H52.0898L49.6477 5.844H50.8717C50.9837 5.844 51.0757 5.87 51.1478 5.922C51.2237 5.974 51.2738 6.04 51.2978 6.12L52.4857 9.408C52.5497 9.6 52.6057 9.788 52.6537 9.972C52.7018 10.156 52.7438 10.34 52.7798 10.524C52.8198 10.34 52.8637 10.156 52.9117 9.972C52.9597 9.788 53.0178 9.6 53.0858 9.408L54.2977 6.12C54.3257 6.04 54.3758 5.974 54.4478 5.922C54.5198 5.87 54.6058 5.844 54.7057 5.844H55.8758ZM59.7652 9.372C59.3372 9.392 58.9772 9.43 58.6852 9.486C58.3933 9.538 58.1593 9.606 57.9833 9.69C57.8073 9.774 57.6813 9.872 57.6052 9.984C57.5292 10.096 57.4912 10.218 57.4912 10.35C57.4912 10.61 57.5673 10.796 57.7193 10.908C57.8752 11.02 58.0772 11.076 58.3252 11.076C58.6292 11.076 58.8913 11.022 59.1113 10.914C59.3353 10.802 59.5532 10.634 59.7652 10.41V9.372ZM56.3692 6.702C57.0773 6.054 57.9293 5.73 58.9252 5.73C59.2853 5.73 59.6073 5.79 59.8913 5.91C60.1752 6.026 60.4152 6.19 60.6113 6.402C60.8072 6.61 60.9552 6.86 61.0553 7.152C61.1592 7.444 61.2112 7.764 61.2112 8.112V12H60.5392C60.3993 12 60.2913 11.98 60.2153 11.94C60.1393 11.896 60.0793 11.81 60.0352 11.682L59.9032 11.238C59.7472 11.378 59.5953 11.502 59.4473 11.61C59.2993 11.714 59.1452 11.802 58.9852 11.874C58.8252 11.946 58.6532 12 58.4693 12.036C58.2893 12.076 58.0892 12.096 57.8692 12.096C57.6092 12.096 57.3692 12.062 57.1493 11.994C56.9292 11.922 56.7392 11.816 56.5793 11.676C56.4193 11.536 56.2953 11.362 56.2073 11.154C56.1192 10.946 56.0752 10.704 56.0752 10.428C56.0752 10.272 56.1012 10.118 56.1532 9.966C56.2053 9.81 56.2893 9.662 56.4053 9.522C56.5253 9.382 56.6793 9.25 56.8672 9.126C57.0552 9.002 57.2853 8.894 57.5573 8.802C57.8333 8.71 58.1533 8.636 58.5173 8.58C58.8812 8.52 59.2972 8.484 59.7652 8.472V8.112C59.7652 7.7 59.6772 7.396 59.5013 7.2C59.3252 7 59.0712 6.9 58.7393 6.9C58.4992 6.9 58.2993 6.928 58.1393 6.984C57.9833 7.04 57.8453 7.104 57.7253 7.176C57.6053 7.244 57.4952 7.306 57.3952 7.362C57.2993 7.418 57.1913 7.446 57.0713 7.446C56.9672 7.446 56.8792 7.42 56.8073 7.368C56.7352 7.312 56.6772 7.248 56.6333 7.176L56.3692 6.702ZM63.993 6.6C64.117 6.476 64.247 6.362 64.383 6.258C64.523 6.15 64.669 6.06 64.821 5.988C64.977 5.912 65.143 5.854 65.319 5.814C65.495 5.77 65.687 5.748 65.895 5.748C66.231 5.748 66.529 5.806 66.789 5.922C67.049 6.034 67.265 6.194 67.437 6.402C67.613 6.606 67.745 6.852 67.833 7.14C67.925 7.424 67.971 7.738 67.971 8.082V12H66.489V8.082C66.489 7.706 66.403 7.416 66.231 7.212C66.059 7.004 65.797 6.9 65.445 6.9C65.189 6.9 64.949 6.958 64.725 7.074C64.501 7.19 64.289 7.348 64.089 7.548V12H62.607V5.844H63.513C63.705 5.844 63.831 5.934 63.891 6.114L63.993 6.6ZM72.1044 5.748C72.5604 5.748 72.9744 5.822 73.3464 5.97C73.7224 6.118 74.0424 6.328 74.3064 6.6C74.5744 6.872 74.7804 7.204 74.9244 7.596C75.0684 7.988 75.1404 8.426 75.1404 8.91C75.1404 9.398 75.0684 9.838 74.9244 10.23C74.7804 10.622 74.5744 10.956 74.3064 11.232C74.0424 11.508 73.7224 11.72 73.3464 11.868C72.9744 12.016 72.5604 12.09 72.1044 12.09C71.6444 12.09 71.2264 12.016 70.8504 11.868C70.4744 11.72 70.1524 11.508 69.8844 11.232C69.6204 10.956 69.4144 10.622 69.2664 10.23C69.1224 9.838 69.0504 9.398 69.0504 8.91C69.0504 8.426 69.1224 7.988 69.2664 7.596C69.4144 7.204 69.6204 6.872 69.8844 6.6C70.1524 6.328 70.4744 6.118 70.8504 5.97C71.2264 5.822 71.6444 5.748 72.1044 5.748ZM72.1044 10.95C72.6164 10.95 72.9944 10.778 73.2384 10.434C73.4864 10.09 73.6104 9.586 73.6104 8.922C73.6104 8.258 73.4864 7.752 73.2384 7.404C72.9944 7.056 72.6164 6.882 72.1044 6.882C71.5844 6.882 71.1984 7.058 70.9464 7.41C70.6984 7.758 70.5744 8.262 70.5744 8.922C70.5744 9.582 70.6984 10.086 70.9464 10.434C71.1984 10.778 71.5844 10.95 72.1044 10.95ZM76.2231 7.758H79.3311V8.994H76.2231V7.758ZM82.6016 4.608V7.176H85.8536V8.466H82.6016V12H80.9816V3.324H86.4536V4.608H82.6016ZM88.462 6.912C88.654 6.544 88.882 6.256 89.146 6.048C89.41 5.836 89.722 5.73 90.082 5.73C90.366 5.73 90.594 5.792 90.766 5.916L90.67 7.026C90.65 7.098 90.62 7.15 90.58 7.182C90.544 7.21 90.494 7.224 90.43 7.224C90.37 7.224 90.28 7.214 90.16 7.194C90.044 7.174 89.93 7.164 89.818 7.164C89.654 7.164 89.508 7.188 89.38 7.236C89.252 7.284 89.136 7.354 89.032 7.446C88.932 7.534 88.842 7.642 88.762 7.77C88.686 7.898 88.614 8.044 88.546 8.208V12H87.064V5.844H87.934C88.086 5.844 88.192 5.872 88.252 5.928C88.312 5.98 88.352 6.076 88.372 6.216L88.462 6.912ZM94.7106 9.372C94.2826 9.392 93.9226 9.43 93.6306 9.486C93.3386 9.538 93.1046 9.606 92.9286 9.69C92.7526 9.774 92.6266 9.872 92.5506 9.984C92.4746 10.096 92.4366 10.218 92.4366 10.35C92.4366 10.61 92.5126 10.796 92.6646 10.908C92.8206 11.02 93.0226 11.076 93.2706 11.076C93.5746 11.076 93.8366 11.022 94.0566 10.914C94.2806 10.802 94.4986 10.634 94.7106 10.41V9.372ZM91.3146 6.702C92.0226 6.054 92.8746 5.73 93.8706 5.73C94.2306 5.73 94.5526 5.79 94.8366 5.91C95.1206 6.026 95.3606 6.19 95.5566 6.402C95.7526 6.61 95.9006 6.86 96.0006 7.152C96.1046 7.444 96.1566 7.764 96.1566 8.112V12H95.4846C95.3446 12 95.2366 11.98 95.1606 11.94C95.0846 11.896 95.0246 11.81 94.9806 11.682L94.8486 11.238C94.6926 11.378 94.5406 11.502 94.3926 11.61C94.2446 11.714 94.0906 11.802 93.9306 11.874C93.7706 11.946 93.5986 12 93.4146 12.036C93.2346 12.076 93.0346 12.096 92.8146 12.096C92.5546 12.096 92.3146 12.062 92.0946 11.994C91.8746 11.922 91.6846 11.816 91.5246 11.676C91.3646 11.536 91.2406 11.362 91.1526 11.154C91.0646 10.946 91.0206 10.704 91.0206 10.428C91.0206 10.272 91.0466 10.118 91.0986 9.966C91.1506 9.81 91.2346 9.662 91.3506 9.522C91.4706 9.382 91.6246 9.25 91.8126 9.126C92.0006 9.002 92.2306 8.894 92.5026 8.802C92.7786 8.71 93.0986 8.636 93.4626 8.58C93.8266 8.52 94.2426 8.484 94.7106 8.472V8.112C94.7106 7.7 94.6226 7.396 94.4466 7.2C94.2706 7 94.0166 6.9 93.6846 6.9C93.4446 6.9 93.2446 6.928 93.0846 6.984C92.9286 7.04 92.7906 7.104 92.6706 7.176C92.5506 7.244 92.4406 7.306 92.3406 7.362C92.2446 7.418 92.1366 7.446 92.0166 7.446C91.9126 7.446 91.8246 7.42 91.7526 7.368C91.6806 7.312 91.6226 7.248 91.5786 7.176L91.3146 6.702ZM98.9383 6.6C99.0623 6.476 99.1923 6.362 99.3283 6.258C99.4683 6.15 99.6143 6.06 99.7663 5.988C99.9223 5.912 100.088 5.854 100.264 5.814C100.44 5.77 100.632 5.748 100.84 5.748C101.176 5.748 101.474 5.806 101.734 5.922C101.994 6.034 102.21 6.194 102.382 6.402C102.558 6.606 102.69 6.852 102.778 7.14C102.87 7.424 102.916 7.738 102.916 8.082V12H101.434V8.082C101.434 7.706 101.348 7.416 101.176 7.212C101.004 7.004 100.742 6.9 100.39 6.9C100.134 6.9 99.8943 6.958 99.6703 7.074C99.4463 7.19 99.2343 7.348 99.0343 7.548V12H97.5523V5.844H98.4583C98.6503 5.844 98.7763 5.934 98.8363 6.114L98.9383 6.6ZM105.808 3.084V8.19H106.084C106.184 8.19 106.262 8.178 106.318 8.154C106.378 8.126 106.438 8.072 106.498 7.992L108.028 6.102C108.092 6.018 108.162 5.954 108.238 5.91C108.318 5.866 108.42 5.844 108.544 5.844H109.9L107.986 8.13C107.85 8.31 107.702 8.448 107.542 8.544C107.626 8.604 107.7 8.674 107.764 8.754C107.832 8.834 107.896 8.92 107.956 9.012L110.008 12H108.67C108.554 12 108.454 11.982 108.37 11.946C108.286 11.906 108.216 11.836 108.16 11.736L106.588 9.402C106.532 9.31 106.474 9.25 106.414 9.222C106.354 9.194 106.264 9.18 106.144 9.18H105.808V12H104.326V3.084H105.808ZM112.272 5.844V12H110.784V5.844H112.272ZM112.476 4.05C112.476 4.178 112.45 4.298 112.398 4.41C112.346 4.522 112.276 4.62 112.188 4.704C112.104 4.788 112.004 4.856 111.888 4.908C111.772 4.956 111.648 4.98 111.516 4.98C111.388 4.98 111.266 4.956 111.15 4.908C111.038 4.856 110.94 4.788 110.856 4.704C110.772 4.62 110.704 4.522 110.652 4.41C110.604 4.298 110.58 4.178 110.58 4.05C110.58 3.918 110.604 3.794 110.652 3.678C110.704 3.562 110.772 3.462 110.856 3.378C110.94 3.294 111.038 3.228 111.15 3.18C111.266 3.128 111.388 3.102 111.516 3.102C111.648 3.102 111.772 3.128 111.888 3.18C112.004 3.228 112.104 3.294 112.188 3.378C112.276 3.462 112.346 3.562 112.398 3.678C112.45 3.794 112.476 3.918 112.476 4.05ZM119.333 5.844L116.891 12H115.547L113.105 5.844H114.329C114.441 5.844 114.533 5.87 114.605 5.922C114.681 5.974 114.731 6.04 114.755 6.12L115.943 9.408C116.007 9.6 116.063 9.788 116.111 9.972C116.159 10.156 116.201 10.34 116.237 10.524C116.277 10.34 116.321 10.156 116.369 9.972C116.417 9.788 116.475 9.6 116.543 9.408L117.755 6.12C117.783 6.04 117.833 5.974 117.905 5.922C117.977 5.87 118.063 5.844 118.163 5.844H119.333ZM123.738 7.044C123.698 7.108 123.656 7.154 123.612 7.182C123.568 7.206 123.512 7.218 123.444 7.218C123.372 7.218 123.294 7.198 123.21 7.158C123.13 7.118 123.036 7.074 122.928 7.026C122.82 6.974 122.696 6.928 122.556 6.888C122.42 6.848 122.258 6.828 122.07 6.828C121.778 6.828 121.548 6.89 121.38 7.014C121.216 7.138 121.134 7.3 121.134 7.5C121.134 7.632 121.176 7.744 121.26 7.836C121.348 7.924 121.462 8.002 121.602 8.07C121.746 8.138 121.908 8.2 122.088 8.256C122.268 8.308 122.45 8.366 122.634 8.43C122.822 8.494 123.006 8.568 123.186 8.652C123.366 8.732 123.526 8.836 123.666 8.964C123.81 9.088 123.924 9.238 124.008 9.414C124.096 9.59 124.14 9.802 124.14 10.05C124.14 10.346 124.086 10.62 123.978 10.872C123.874 11.12 123.718 11.336 123.51 11.52C123.302 11.7 123.044 11.842 122.736 11.946C122.432 12.046 122.08 12.096 121.68 12.096C121.468 12.096 121.26 12.076 121.056 12.036C120.856 12 120.662 11.948 120.474 11.88C120.29 11.812 120.118 11.732 119.958 11.64C119.802 11.548 119.664 11.448 119.544 11.34L119.886 10.776C119.93 10.708 119.982 10.656 120.042 10.62C120.102 10.584 120.178 10.566 120.27 10.566C120.362 10.566 120.448 10.592 120.528 10.644C120.612 10.696 120.708 10.752 120.816 10.812C120.924 10.872 121.05 10.928 121.194 10.98C121.342 11.032 121.528 11.058 121.752 11.058C121.928 11.058 122.078 11.038 122.202 10.998C122.33 10.954 122.434 10.898 122.514 10.83C122.598 10.762 122.658 10.684 122.694 10.596C122.734 10.504 122.754 10.41 122.754 10.314C122.754 10.17 122.71 10.052 122.622 9.96C122.538 9.868 122.424 9.788 122.28 9.72C122.14 9.652 121.978 9.592 121.794 9.54C121.614 9.484 121.428 9.424 121.236 9.36C121.048 9.296 120.862 9.222 120.678 9.138C120.498 9.05 120.336 8.94 120.192 8.808C120.052 8.676 119.938 8.514 119.85 8.322C119.766 8.13 119.724 7.898 119.724 7.626C119.724 7.374 119.774 7.134 119.874 6.906C119.974 6.678 120.12 6.48 120.312 6.312C120.508 6.14 120.75 6.004 121.038 5.904C121.33 5.8 121.666 5.748 122.046 5.748C122.47 5.748 122.856 5.818 123.204 5.958C123.552 6.098 123.842 6.282 124.074 6.51L123.738 7.044ZM126.737 3.084V8.19H127.013C127.113 8.19 127.191 8.178 127.247 8.154C127.307 8.126 127.367 8.072 127.427 7.992L128.957 6.102C129.021 6.018 129.091 5.954 129.167 5.91C129.247 5.866 129.349 5.844 129.473 5.844H130.829L128.915 8.13C128.779 8.31 128.631 8.448 128.471 8.544C128.555 8.604 128.629 8.674 128.693 8.754C128.761 8.834 128.825 8.92 128.885 9.012L130.937 12H129.599C129.483 12 129.383 11.982 129.299 11.946C129.215 11.906 129.145 11.836 129.089 11.736L127.517 9.402C127.461 9.31 127.403 9.25 127.343 9.222C127.283 9.194 127.193 9.18 127.073 9.18H126.737V12H125.255V3.084H126.737Z" transform="translate(23.5378 0.935791)" fill="#BDBDBD"/>
</svg>
