<svg width="12" height="8" viewBox="0 0 12 8" fill="none" xmlns="http://www.w3.org/2000/svg">
<path fill-rule="evenodd" clip-rule="evenodd" d="M6 0C3.27273 0 0.943636 1.65867 0 4C0.943636 6.34133 3.27273 8 6 8C8.72727 8 11.0564 6.34133 12 4C11.0564 1.65867 8.72727 0 6 0ZM6.00003 6.66663C4.49457 6.66663 3.27275 5.47197 3.27275 3.99997C3.27275 2.52797 4.49457 1.3333 6.00003 1.3333C7.50548 1.3333 8.7273 2.52797 8.7273 3.99997C8.7273 5.47197 7.50548 6.66663 6.00003 6.66663ZM6.00013 2.4C5.09468 2.4 4.36377 3.11467 4.36377 4C4.36377 4.88533 5.09468 5.6 6.00013 5.6C6.90559 5.6 7.6365 4.88533 7.6365 4C7.6365 3.11467 6.90559 2.4 6.00013 2.4Z" fill="#B0B0B0"/>
</svg>
