<svg id="Layer_1" data-name="Layer 1" xmlns="http://www.w3.org/2000/svg" viewBox="0 0 178.08 111.465"><path d="M.16 93.465c2.197.005 4.396-.03 6.592.028 2.18.058 3.577 1.123 4.018 2.924.451 1.842-.161 3.016-2.314 4.3l.83.414a3.908 3.908 0 0 1 .086 6.89 9.552 9.552 0 0 1-3.222.745c-1.99.122-3.993.05-5.99.059zm.875 7.913c0 1.995-.012 4.06.022 6.122.003.183.321.522.484.517a52.814 52.814 0 0 0 6.664-.364c1.672-.27 2.411-1.7 2.297-3.44a2.824 2.824 0 0 0-2.65-2.79c-2.205-.184-4.438-.045-6.817-.045zm.057-.837c2.29-.115 4.523-.087 6.712-.386a2.697 2.697 0 0 0 2.214-2.995 2.537 2.537 0 0 0-2.355-2.717c-2.16-.188-4.347-.047-6.571-.047zm69.121-25.265c1.76-1.308 3.596-2.524 5.264-3.94a35.437 35.437 0 0 0 12.51-23.806c.79-6.882 1.575-13.743 4.125-20.245 3.106-7.92 8.005-14.338 15.693-18.35.777-.405 1.59-.746 2.401-1.079a1.558 1.558 0 0 1 1.045.006c-.234.212-.455.44-.703.633q-2.796 2.168-5.601 4.324c-5.593 4.314-7.87 10.4-9.037 17.049a19.474 19.474 0 0 0 4.216 16.291c.855 1.057 1.668 2.147 2.49 3.229 1.792 2.354 3.618 4.682 5.347 7.08a26.869 26.869 0 0 1 2.13 3.608 12.442 12.442 0 0 1 1.22 9.824c4.546-1.65 11.66-13.132 12.924-21.123 2.378-15.026-2.891-26.939-14.947-36.138l.934-.744c14.744 9.725 21.061 30.724 11.382 48.185a36.801 36.801 0 0 1-47.803 15.695 1.87 1.87 0 0 1 2.326-.434 35.76 35.76 0 0 0 29.392-1.36 5.742 5.742 0 0 0 3.376-5.035 10.482 10.482 0 0 0-.867-5.732 56.828 56.828 0 0 0-8.335-12.834 37.202 37.202 0 0 1-6.456-10.862 3.67 3.67 0 0 0-.263-.537c-.036-.062-.12-.096-.362-.28-.103 1.223-.186 2.338-.293 3.45a67.816 67.816 0 0 1-2.675 14.337 27.768 27.768 0 0 1-7.644 11.728 39.987 39.987 0 0 1-9.402 6.78 11.136 11.136 0 0 1-2.321.608z"/><path d="M111.817 10.582a1.633 1.633 0 0 1 .155-.187c2.712-1.972 2.77-2.034 5.205.247 12.549 11.749 17.162 26.152 12.65 42.683-4.513 16.534-15.79 26.72-32.602 30.271a39.158 39.158 0 0 1-29.177-5.017c-.374-.226-.74-.466-1.133-.715a7.59 7.59 0 0 1 6.53-.203c20.706 9.582 47.372-1.372 53.366-25.946 3.991-16.365-1.215-29.988-14.303-40.585-.215-.175-.434-.344-.691-.548z"/><path d="M108.385 6.026c-.358.224-.704.473-1.077.667a31.658 31.658 0 0 0-12.79 11.65 48.77 48.77 0 0 0-6.54 18.141c-.794 5.165-1.18 10.437-2.492 15.467A34.007 34.007 0 0 1 68.518 73.61a12.102 12.102 0 0 1-6.893 1.624c-.259-.017-.515-.073-1.118-.163.586-.387.882-.62 1.21-.794q16.854-8.977 19.606-27.87c.75-5.092 1.293-10.239 2.444-15.242 1.907-8.294 5.832-15.529 12.553-21.017a18.532 18.532 0 0 1 8.545-4.371 27.406 27.406 0 0 1 3.404-.172z"/><path d="M62.055 70.041l-2.776 1.775C46.155 59.18 42.119 36.335 54.394 18.44 67.498-.663 91.201-3.845 107.011 4.064a52.1 52.1 0 0 1-5.85 1.044 12.56 12.56 0 0 1-3.366-.75 38.716 38.716 0 0 0-46.787 31.17c-2.174 12.768 1.357 23.95 10.095 33.497.291.319.59.631.952 1.016z"/><path d="M64.795 68.21c-.257.202-.405.332-.566.44-.161.11-.336.199-.491.289a36.798 36.798 0 0 1-5.961-46.146C67.953 6.42 86.35 3.018 98.004 6.434a2.793 2.793 0 0 1-2.616.722C76.245 3.565 57.096 17.045 54.135 36.21c-1.874 12.125 1.533 22.595 10.083 31.393.166.17.328.345.577.608zM.487 111.161h177.454v.277H.487zm177.432-19.947H.499v-.238h177.42zM57.204 94.046h-5.31l-.014-.4a3.948 3.948 0 0 1 .8-.17c3.557-.012 7.115-.032 10.67.023a1.765 1.765 0 0 1 1.198.709c1.445 2.059 2.82 4.167 4.222 6.257.218.324.457.635.804 1.116.843-1.25 1.614-2.388 2.38-3.529.892-1.326 1.76-2.669 2.687-3.97a4.155 4.155 0 0 1 .979-.745l.257.281a55.06 55.06 0 0 1-3.353 4.904 10.312 10.312 0 0 0-2.56 8.481 12.048 12.048 0 0 1 .011 1.663l-.347.195c-.182-.269-.513-.532-.522-.805-.05-1.597.018-3.199-.048-4.795a3.43 3.43 0 0 0-.496-1.652 171.188 171.188 0 0 0-4.496-6.65 2.106 2.106 0 0 0-1.418-.731c-1.467-.096-2.944-.034-4.55-.034-.025.559-.063 1.022-.063 1.485-.005 3.997.007 7.993-.02 11.99a3.936 3.936 0 0 1-.353 1.11 3.63 3.63 0 0 1-.438-1.152c-.032-3.956-.02-7.913-.02-11.87v-1.711zm30.842.883v4.507c0 2.798.013 5.596-.019 8.394a2.875 2.875 0 0 1-.394.953 2.89 2.89 0 0 1-.39-.96c-.026-4.516-.019-9.033-.014-13.55 0-.233.046-.465.117-1.14a6.902 6.902 0 0 1 1.501 1.142c2.714 3.952 5.38 7.937 8.062 11.91.239.354.496.696.94 1.315.034-.705.072-1.115.072-1.524.005-3.838-.008-7.675.022-11.512a3.316 3.316 0 0 1 .407-1.059l.385.132v15.186l-.266.27a5.962 5.962 0 0 1-1.263-1.048c-2.753-4.022-5.464-8.072-8.187-12.114-.219-.325-.443-.646-.665-.968zm24.23 2.926c-.193-.218-.48-.405-.565-.66a5.112 5.112 0 0 0-7.612-2.608 2.924 2.924 0 0 0-1.384 2.749 2.432 2.432 0 0 0 1.669 2.285c1.193.434 2.447.701 3.674 1.045.843.236 1.707.42 2.522.732a3.358 3.358 0 0 1 2.398 3.115 3.69 3.69 0 0 1-2.097 3.848 7.477 7.477 0 0 1-7.44-.328 4.277 4.277 0 0 1-2-4.125l.345-.192c.16.256.433.5.462.77a3.86 3.86 0 0 0 2.961 3.527c2.06.602 4.142.722 5.904-.79a2.957 2.957 0 0 0-.692-4.97 27.951 27.951 0 0 0-3.773-1.109 25.737 25.737 0 0 1-2.631-.784 3.122 3.122 0 0 1-2.142-2.774 3.639 3.639 0 0 1 1.566-3.535 7.183 7.183 0 0 1 7.486.205 4.184 4.184 0 0 1 1.634 3.314zm-97.5 10.14c3.143.184 6.173-.084 9.169.153l-.023.525H13.914V93.648c1.81-.451 9.481-.25 10.133.452h-9.234v6.392h8.531l.035.426c-.814.538-1.8.18-2.694.24-.955.065-1.918.015-2.878.015h-3.03zM168.268 93.47c3.1 0 6.166-.003 9.231.004a4.405 4.405 0 0 1 .676.105l.077.335a3.848 3.848 0 0 1-.962.267c-2.238.024-4.476.013-6.714.013h-1.404v6.226c2.857.062 5.713-.028 8.558.05l-.02.623h-8.555v6.898c.442.022.9.062 1.356.063 2.238.007 4.476-.008 6.714.016a4.552 4.552 0 0 1 1.033.255l-.077.358h-9.913zm-25.549-.082c.146.315.413.63.418.947.034 2.558.018 5.117.02 7.676.001.52-.002 1.04.028 1.559.204 3.606 2.733 5.498 6.235 4.672 2.11-.498 3.317-1.99 3.39-4.489.09-3.076.034-6.156.076-9.235a4.077 4.077 0 0 1 .351-1.115l.404.106a4.236 4.236 0 0 1 .102.658c.004 3.04.066 6.08-.019 9.116-.134 4.807-3.223 6.566-7.782 5.588a4.339 4.339 0 0 1-3.419-3.892 29.123 29.123 0 0 1-.249-4.177c-.037-2.394-.01-4.789-.01-7.183zM37.047 108.919c-.276-.266-.663-.483-.805-.807a43.416 43.416 0 0 1-1.291-3.351 1.158 1.158 0 0 0-1.289-.94c-1.838.052-3.68-.027-5.516.053a1.56 1.56 0 0 0-1.096.77c-.538 1.11-.906 2.301-1.405 3.433a3.655 3.655 0 0 1-.765.848l-.33-.25c.264-.692.52-1.387.791-2.077 1.618-4.126 3.23-8.253 4.877-12.367.122-.305.486-.695.753-.706.256-.012.663.365.778.66 1.881 4.79 3.726 9.596 5.58 14.399zm-2.762-5.89l-3.268-8.802-3.39 8.801zm16.031-3.803c0 1.636.1 3.28-.02 4.908-.242 3.273-2.25 4.981-5.689 4.99-3.346.008-5.37-1.694-5.543-4.97-.17-3.266-.104-6.546-.106-9.82 0-.28.261-.56.401-.841.14.273.397.545.4.82.031 2.636.01 5.272.026 7.908a13.076 13.076 0 0 0 .14 1.906c.564 3.67 3.752 5.353 7.135 3.786a3.814 3.814 0 0 0 2.3-3.403c.163-3.145.136-6.3.23-9.45a7.661 7.661 0 0 1 .379-1.569 7.04 7.04 0 0 1 .418 1.542c.059 1.396.02 2.795.02 4.193zm63.674-5.663c3.74-.387 10.942-.158 11.593.546h-5.395v14.502c-.919.119-.935.119-.938-.754-.008-2.955-.003-5.91-.003-8.866V94.33c-1.835-.126-3.546-.243-5.257-.376-.009-.001 0-.222 0-.39zm26.799.504c-1.668.309-3.402-.004-5.234.188v14.413c-.939.03-.952.03-.953-.862q-.008-6.051-.002-12.102v-1.49h-5.253l-.107-.317c.166-.14.33-.4.497-.402 3.664-.023 7.329-.017 10.993-.017zm19.725.218c-1.889-.267-3.634.155-5.274-.403 1.314-.67 10.952-.507 11.606.234h-5.393v14.501c-.92.11-.935.11-.936-.764q-.01-5.272-.003-10.545v-3.023zm-77.249 14.433V93.551l.334-.166c.161.271.461.541.463.814q.043 6.945 0 13.891c-.002.267-.307.533-.471.799zm44.131.178c-.161-.265-.462-.53-.464-.796q-.043-6.957 0-13.915c.001-.268.296-.535.454-.803l.352.164v15.075zM90.234 56.544c2.59 1.069 4.713-.06 6.856-1.205a5.78 5.78 0 0 1 4.64-.48 3.38 3.38 0 0 1 1.348.96c-2.648-1.074-4.709.358-6.925 1.297a12.624 12.624 0 0 1-3.829.76 1.878 1.878 0 0 1-2.09-1.332z"/></svg>