<svg id="Calque_1" data-name="Calque 1" xmlns="http://www.w3.org/2000/svg" viewBox="0 0 417.17 147.67"><defs><style>.cls-1{fill:#1d1d1b}</style></defs><path class="cls-1" d="M320 15.38a3.08 3.08 0 0 1-1-.72c-2.54-3.1-8.2-6.71-19.64-5.12C275.26 13 240.32 23.72 228.22 28c-2.35.84-4.89 1.61-6.78 2.23-1.26.42-3.56 1.08-4.19.9-1.23-.36-6.91-2.44-10.43-3.85-18.35-7.28-36.61-14.5-55.4-20.83-8-2.69-16-5.43-23.92-6.44a6.65 6.65 0 0 0-3.43 1 30.24 30.24 0 0 0-4.37 3.3c-1.42 1.16-3.46 2.6-3.24 4.82a4 4 0 0 0 1.72 2.58c3.56 2.68 38.27 24.94 44.14 28.63 2.25 1.42 2.5 1.56 11.24 7 .23.14 1.12 1.69-.45 2-9.65 4.24-18.43 7.52-29 7.94-7.8.32-17.8-11.86-23.92-16.94-2.71-2.25-5.16-4.27-8-5.45a9.16 9.16 0 0 0-4.69-.62c-5.52.74-12.69 4.52-13.41 7.37s4.44 19.44 4.9 23c-1.35 1.71-3.58 1.92-5.58 3-1.6 1.25.36 2.68-.85 3.15-3.9 2-8.25 2.75-8.29 6.14.55.34.7.67 1.38.88 4.46.8 8.48.53 15.49 1 1.54.2-.87 3.86 3.5 4.57 7.07.42 21.4-.41 36.65-1.61 20.34-1.6 44-4.74 58.42-7.54 4.41-.85 10.41-2.12 13.07-2 1.78.08 8.32 1.71 12.79 2.67 13.77 3 37.89 7.59 58.49 11.6 20.86 4 36.45 7.73 38.82 5.8s-2-9.11-3.21-9c-1.25-.34 1 2.39-1.08 1.29-4.37-2.36-12.23-6.43-17-8.92-4.57-2.41-12-5.9-9.45-6.51.65-.48 15.07 7.31 23.63 11.77 1.24.71 1.35-.13.71-.54-12-7-16-8.5-25.28-13.82a.32.32 0 0 1 0-.47c1.35-1.2 3.36-1.42 4.09-3.45.53-1.49-.26-3.24.17-4.72.6-2 3.4-3 2.56-4.92s-2.53-.52-3.81-1.32c-.34-.22-.8-.54-.9-.94-.26-1.08.41-1.73 1.88-2.54s4.08-2.07 5-2.56c11.36-6.31 15.89-8.85 21.64-14.6a22.45 22.45 0 0 0 3.52-4.87.77.77 0 0 0 .08-.71c-.21-.06-.43-.24-.71 0-2.29 3.18-4.09 5.84-10.7 9.8-9.53 5.71-25.29 11.66-47.42 17.91-1.74.49-3.93 1.35-4.08.18-.51-.81-1.5-1.49-2.37-.93a5 5 0 0 0-1.51.56A82.57 82.57 0 0 1 247 58.12c-7.78 2.69-16.24 4.68-22.3 4.92-.68.06-2.25-.16-2.38-.93-.08-.3.48-.53 1.55-.91 1.72-.48 3.09-.73 5.52-1.43a111.58 111.58 0 0 0 14.07-4.53c6.43-2.83 9.93-5 11-6.33a1 1 0 0 0 .15-1.29c-3.18-4.46-7.22-12.54-5.25-18.7.06-.53-.44-1.22-1.49-1.17-3.37.21-11.08 2.83-16.25 5.89-.84.53-.17 1.2-.74 1.58-.47.62-1.83.29-2.13.16L225 33.75a108.72 108.72 0 0 1 35.64-11.1c.45 0 .89.28.54 1a20.46 20.46 0 0 0 4.73 17.94c2.95 3.38 1.4 4.41 1.91 4.83s1.06.17 1.78 0c10.26-2.38 18.64-5.9 28.16-9.64 7.61-3 25.68-12.3 26.79-15.48.05-.39-.24-.57-.84-.57-9.43 0-19.78 1.66-28.89 2.86-7.38 1-16 2.24-21.22 3.4 0 0-.56.65 0 .91s2.17.87 2.33 1.73a3.64 3.64 0 0 1-.84 2.74s-1.8.95-1.68 1.69c.54 3.35-.28 4.35-1.13 3.42a13.8 13.8 0 0 1-3.28-8.19c0-1.72 2-2.13 1.58-3.74a16.84 16.84 0 0 0-.64-1.87c-.22-.64.32-.69.93-.79l.45-.07c11.4-1.71 19.38-2.42 29.49-3.54a1.13 1.13 0 0 0 .86-1c.36-2.2-1-5.75 1.56-5.71 2.3.57.54 4.36 1.85 5.9-.08.35.58.57 1.07.53 5.65-1.17 18.7-1.33 20.15.54.62 0 .52-.53.54-.53-1.03-2.43-3.63-3.34-6.84-3.63zM271 58.3a7.57 7.57 0 0 1 2.47-.84c.21 0 1.52.08 1.52.71.21 1.2 1.2 2.05.9 3.19-.76.84-3.51-.65-5-2a.84.84 0 0 1 .11-1.06zm-2.16 12.25c3-.54 6.21-1.21 8.35-2.69a4.74 4.74 0 0 1 1.82-.82c1.9-.23 4.08-.3 4.73-1 .67-1.27-2.19-.26-2.87-1.23a15.05 15.05 0 0 1-2.67-7.17c-.15-.94.79-1.51 1.07-1.68 4.51-2.72 3.39-1 5.66-1.18.37 0 .27-.08.79-.28.51 0 .67.31.68.45.37 3.78 2.27 5.39 3.79 7.85a1 1 0 0 1-.4 1.64 19.28 19.28 0 0 0-2.93 1.34c-.09.07-.27.33-.14.51.17.42.47.47.64.88s-.32.87-.57 1c-5.75 2.39-15.3 4.93-21.31 4.17-.54 0-1.05-.32-1-.65.25-1.07 3.16-.91 4.41-1.14zM99.59 68.19c-.72.09-.63-.19.13-.57 7.2-3.61 20.6-4.06 32.38-4.12 3.47 0 9.1.3 12.21-.42 1-.24.61-.72 1.52-1.6 1.45-1.41 7.82-2.65 14.36-5 9.45-3.39 10.73-4.16 15.66-6.18a3.26 3.26 0 0 1 1.85-.3c1.18.18 3.34 1.67 3.56 2.41.35 1.22-1 2-1.66 2.36-3.47 1.88-12.53 5.17-14.46 5.86C159.64 62.51 150.73 65 149 65c-4.43 0-8.55.13-12.82.36-7.95.43-16.5.77-24.42 1.43-4.3.39-8.27 1.11-12.17 1.4zm105.06 2c-7.87 1.5-15.46 2.8-22.89 3.81-16.66 2.26-32 4.48-47.62 5.62-9.63.7-18.08.7-27.91.83-1.43 0-2.67-.2-2.83-1 0-.46 0-.61 1.88-.72 11.48-.66 20.15-1.37 28.91-2.45 14.7-1.81 28.07-4.33 47.75-7.85 6.07-1.08 15.48-3.51 17.44-3.24 1.27-.18 4.8 1.06 7.56 2.85.99.89-.42 1.75-2.3 2.1zm27.77-30.39c.24.27.5.84.27 1.16a1.43 1.43 0 0 1-1.38.33c-7.51-3.33-15.6-6.21-22.74-9C187 24 148 9.3 139.46 6.15c.05-.36.56-.26.92-.31.31-.39 24.37 7.9 48.43 16.75 21.36 7.85 43.02 16.29 43.61 17.21zM295 18.11c-1.69.78-3.63.48-3.51-1.49.28-.58 1.42-.93 2.67-1a1.69 1.69 0 0 1 1 .57 2.9 2.9 0 0 1-.16 1.92zm-150.69 84.51h10.31c3.2 0 4.21-3.37 4.51-4.59l.79-3.2c.31-1.2.86-4.28-2.27-4.28h-10.33c-3.95 0-4.42 4.28-4.42 4.28l-.8 3.17c-.3 1.25-1.1 4.62 2.21 4.62z"/><path class="cls-1" d="M414.92 143.17h-24.16l8-33c.28-1.05.75-3.73-2-3.73h-56.81c-3.16-.19-4 3.27-4 3.27l-8 33.43H313.4l7.87-31.74c.29-1.25 1-4.59-2.22-4.59h-10.3c-3.36 0-4.21 3.34-4.51 4.59l-6.1 25c-.55 1.77-1.72 1.58-1.72 1.58h-7c-1.29.15-.92-1.15-.92-1.15l6.21-25.45c.3-1.25 1.13-4.59-2.27-4.59h-10.37c-3.24 0-4.23 3.34-4.54 4.59l-7.87 31.74H255.5l4.86-19.85c.3-1.18 1-4.36-2.21-4.36h-16.52a3.57 3.57 0 0 0-3 2.78c-.41 1.53.29 2.77 1.57 2.77h3.96l.15.16v.21l-2.89 11.63c-.55 1.68-1.72 1.51-1.72 1.51h-7a1 1 0 0 1-.94-1.39l5.52-22.42c.53-1.75 1.69-1.59 1.69-1.59h21.26a3.87 3.87 0 0 0 3.19-3c.53-1.79-.47-3-1.75-3h-35.83c-3.13 0-4.07 3-4.35 4.17l-8 32.3h-37.25l7.4-29.77s.25-1.19 1.35-1.07h5.89s1.12-.17.83 1.41l-1 4.08c-.28 1.11-1 4.13 2 4.13h9.58c2.85 0 3.74-3 4.05-4.13l1.77-7.13c.23-1 .73-3.75-2.08-3.75h-33.31c-3.17-.18-4 3.25-4 3.25l-8.19 33h-12.62v-.09l8-32c.27-1.16.87-4.25-2.27-4.25h-10.38c-4 0-4.42 4.25-4.42 4.25l-7.93 32v.09h-13.43l7.94-31.95c.93-3.67-2.14-4.23-3.14-4.23H89c-1.26 0-2.62 1.33-3 2.91s.29 2.89 1.57 2.89h20.88a1 1 0 0 1 .93 1.39l-5.31 22.28c-.53 1.74-1.69 1.57-1.69 1.57h-6.92c-1.29.11-.79-1.18-.79-1.18l2.51-10.93a1.81 1.81 0 0 1 1.2-1.33h3.19a3.63 3.63 0 0 0 3-2.87c.38-1.58-.32-2.9-1.6-2.9H86.68c-2.91 0-4.35 4.06-4.69 5.3l-4.69 19H64.8l8.19-33c.27-1.09.75-3.76-2-3.76H53.05s-2.71.23-1.83-3.14l3.23-12.95c.28-1.11 1-4.12-2-4.12h-10.3c-2.91 0-3.77 3-4 4.12l-6.85 27.58-6.3 25.43H2.25a2.25 2.25 0 0 0 0 4.51h34.38c3 0 3.74-3 4-4.09l.11-.41 8.17-30.32a1.31 1.31 0 0 1 1.35-1.05h5.9s1.12-.16.84 1.42l-7.46 29.95-.1.41c-.26 1.08-1 4.05 1.93 4.09h288c3 0 3.78-3 4.06-4.08l.11-.43 7.26-30.25a1.28 1.28 0 0 1 1.34-1.05h5.92s1.13-.16.79 1.4l-7.18 29.9-.1.4c-.26 1.13-1 4.11 2 4.11h9.57c2.52 0 3.51-2.35 4.08-4.51.08-.27.14-.54.2-.8l7-29.11a1.33 1.33 0 0 1 1.1-1.4h5.89s1.12-.16.83 1.4l-7.18 29.9-.09.4c-.28 1.13-1 4.11 2 4.11h37.83a2.25 2.25 0 0 0 0-4.51z"/></svg>