<svg id="Layer_3" data-name="Layer 3" xmlns="http://www.w3.org/2000/svg" viewBox="0 0 351.93 101.364"><path d="M184.615 100.778h-4.814l-.139-2.932h-.083s-1.626 3.431-7.17 3.431a6.416 6.416 0 0 1-6.62-6.381c0-9.216 13.506-6.234 13.506-6.234 0-6.613-6.51-4.384-9.805-3.104l-1.161-3.989c12.971-4.63 16.286 1.19 16.286 7.001zm-5.32-6.556v-2.733a22.53 22.53 0 0 0-4.788.063c-2.122.284-3.45 1.644-3.285 3.28.43 4.27 6.918 2.39 8.073-.61zm40.847-36.852h-4.815l-.138-2.933h-.083s-1.627 3.431-7.17 3.431a6.416 6.416 0 0 1-6.621-6.381c0-9.216 13.506-6.234 13.506-6.234 0-6.613-6.51-4.384-9.805-3.104l-1.161-3.989c12.972-4.63 16.287 1.19 16.287 7.001zm-5.32-6.557V48.08a22.53 22.53 0 0 0-4.788.063c-2.123.284-3.45 1.644-3.286 3.28.43 4.27 6.918 2.39 8.073-.61zm-91.287 49.965V71.43h6.088v13.942l10.995-13.942h7.09l-11.345 14.333 11.937 15.015h-7.506L129.623 86.56v14.217zM70.013 30.767L98.298 2.482H81.145L52.859 30.767h17.154zM0 0v100.778h12.486l.003-63.217-.224-7.737 69.178 70.954h16.855L0 0zm164.08 36.64c5.283 0 8.175 3.606 8.175 8.26v12.45h-5.827V45.654c0-2.725-1.634-3.983-3.898-3.983a5.649 5.649 0 0 0-4.486 2.557v13.123h-5.78V37.227h5.109v2.558a8.706 8.706 0 0 1 6.708-3.145zm25.68 0c5.281 0 8.174 3.606 8.174 8.26v12.45h-5.828V45.654c0-2.725-1.633-3.983-3.898-3.983a5.649 5.649 0 0 0-4.486 2.557v13.123l-5.78-.047V37.181l5.11.046v2.558a8.706 8.706 0 0 1 6.708-3.145zm-25.856 43.362l1.342 5.258a7.993 7.993 0 0 0-8.805 7.488v8.029h-5.828V80.653h4.977v5.679c.656-2.718 4.175-6.638 8.314-6.33zm46.298.651l-8.301 20.124h-6.122l-8.301-20.124h6.206l5.157 13.96 5.155-13.96zm30.706-9.224V82.5a8.719 8.719 0 0 1 6.037-2.433c5.282 0 8.175 3.605 8.175 8.259v12.452h-5.828V89.08c0-2.725-1.634-3.983-3.898-3.983a5.649 5.649 0 0 0-4.486 2.557v13.123h-5.765V71.429zm55.192 8.637c5.282 0 8.175 3.605 8.175 8.259v12.452h-5.828V89.08c0-2.725-1.634-3.983-3.898-3.983a5.649 5.649 0 0 0-4.486 2.557v13.123h-5.783V80.653h5.112v2.557a8.706 8.706 0 0 1 6.708-3.144zm45.185 0c-5.583 0-10.644 3.606-10.644 10.649 0 7.043 5.06 10.649 10.644 10.649 5.624 0 10.645-3.606 10.645-10.65 0-7.042-5.021-10.648-10.645-10.648zm-.001 16.349c-3.221 0-5.016-2.456-5.016-5.7 0-3.245 1.795-5.7 5.016-5.7 3.262 0 5.057 2.455 5.057 5.7 0 3.244-1.795 5.7-5.057 5.7zM269.95 80.083c-6.724-.157-10.81 4.744-10.81 10.603 0 6.497 4.972 10.664 11.14 10.664a12.187 12.187 0 0 0 7.345-2.727l.5-.423-2.364-3.476a7.843 7.843 0 0 1-5.48 1.96c-2.216-.077-5.17-1.464-5.661-4.59h15.17c.1-2.242-.045-11.782-9.84-12.01zm-.248 4.414a4.64 4.64 0 0 1 4.753 4.686h-9.835a4.933 4.933 0 0 1 5.082-4.686zm-47.567 11.495a5.362 5.362 0 0 1-.06-10.722 5.9 5.9 0 0 1 4.642 2.41l4.623-2.625a10.96 10.96 0 0 0-9.265-5.045 10.623 10.623 0 1 0 9.227 16.175l-4.6-2.625a5.635 5.635 0 0 1-4.567 2.432zm-79.407-38.641h6.268l-14.34-29.654h-.437l-14.28 29.654h6.188l2.401-4.978h11.817zm-12.192-9.142l3.155-6.54.67-1.874h.169l.691 1.874 3.13 6.54zm190.713 41.664l6.778-9.234h-5.838l-6.898 9.189V71.429h-5.78v29.348h5.78V90.733l7.511 10.044h6.843l-8.396-10.904z" fill="#1a171b"/></svg>