<svg xmlns="http://www.w3.org/2000/svg" viewBox="0 0 285.3 166.1"><g id="Layer_1" fill="#005758"><path d="M281.9 127.3l-3.2 2.4c-1.7-2.3-3.8-4-6.3-5.2-2.4-1.2-5.1-1.8-8.1-1.8-3.2 0-6.2.8-8.9 2.3-2.7 1.5-4.8 3.6-6.3 6.2s-2.3 5.5-2.3 8.8c0 4.9 1.7 9 5 12.3 3.4 3.3 7.6 4.9 12.7 4.9 5.6 0 10.3-2.2 14.1-6.6l3.2 2.4c-2 2.6-4.5 4.5-7.5 5.9-3 1.4-6.3 2.1-10 2.1-7 0-12.6-2.3-16.6-7-3.4-4-5.1-8.7-5.1-14.3 0-5.9 2.1-10.8 6.2-14.9 4.1-4 9.3-6 15.5-6 3.7 0 7.1.7 10.1 2.2 3.1 1.5 5.6 3.6 7.5 6.3m-50.5-7.5h4V160h-4v-40.2zm-27.2 4v-3.9h22v3.9h-8.9v36.3h-4.1v-36.3h-9zm-26-4h23v3.9h-18.9v12.6H201v3.9h-18.8v15.9H201v3.9h-22.8v-40.2zm-53.1 40.3l5.6-40.2h.8l16.3 33 16.2-33h.6l5.8 40.2h-3.9l-4-28.8-14.2 28.8h-1.1l-14.3-29-3.8 29h-4zm-30.2-7.5l3.4-2.1c2.4 4.4 5.2 6.7 8.3 6.7 1.4 0 2.6-.3 3.8-.9 1.2-.6 2.1-1.5 2.7-2.5.6-1.1.9-2.2.9-3.4 0-1.3-.5-2.7-1.4-4-1.3-1.8-3.5-3.9-6.9-6.5-3.4-2.5-5.4-4.4-6.3-5.5-1.4-1.9-2.1-4-2.1-6.2 0-1.7.4-3.3 1.3-4.8.8-1.4 2-2.6 3.5-3.4 1.5-.8 3.2-1.2 5-1.2 1.9 0 3.7.5 5.3 1.4 1.6.9 3.4 2.7 5.2 5.2l-3.3 2.5c-1.5-2-2.8-3.3-3.9-4-1.1-.6-2.2-1-3.5-1-1.6 0-3 .5-4 1.5s-1.6 2.2-1.6 3.6c0 .9.2 1.7.5 2.5.4.8 1 1.7 2 2.7.5.5 2.3 1.8 5.2 4 3.5 2.6 5.9 4.9 7.2 6.9 1.3 2 1.9 4 1.9 6.1 0 2.9-1.1 5.5-3.3 7.6-2.2 2.2-4.9 3.2-8.1 3.2-2.4 0-4.7-.7-6.6-2-1.7-1.2-3.5-3.4-5.2-6.4zm-25.1-29.8c-3 0-5.8.8-8.4 2.3-2.7 1.6-4.7 3.6-6.2 6.3-1.5 2.6-2.2 5.6-2.2 8.8 0 4.8 1.6 8.8 5 12.1 3.3 3.3 7.3 4.9 11.9 4.9 3.1 0 6-.8 8.6-2.3 2.7-1.5 4.7-3.6 6.2-6.2s2.2-5.5 2.2-8.8c0-3.2-.7-6.1-2.2-8.7-1.5-2.6-3.6-4.6-6.3-6.2-2.8-1.5-5.6-2.2-8.6-2.2zm-.2-4c6.1 0 11.2 2 15.2 6.1 4.1 4.1 6.1 9.1 6.1 15s-2 10.9-6.1 15-9.1 6.2-14.9 6.2c-5.9 0-11-2-15-6.1-4.1-4.1-6.1-9-6.1-14.8 0-3.9.9-7.4 2.8-10.8 1.9-3.3 4.4-5.9 7.6-7.8 3.1-1.8 6.6-2.8 10.4-2.8zm-27.2 8.5l-3.2 2.4c-1.7-2.3-3.8-4-6.3-5.2-2.4-1.2-5.1-1.8-8.1-1.8-3.2 0-6.2.8-8.9 2.3-2.7 1.5-4.8 3.6-6.3 6.2s-2.3 5.5-2.3 8.8c0 4.9 1.7 9 5 12.3 3.4 3.3 7.6 4.9 12.7 4.9 5.6 0 10.3-2.2 14.1-6.6l3.2 2.4c-2 2.6-4.5 4.5-7.5 5.9-3 1.4-6.3 2.1-10 2.1-7 0-12.6-2.3-16.6-7-3.4-4-5.1-8.7-5.1-14.3 0-5.9 2.1-10.8 6.2-14.9 4.1-4 9.3-6 15.5-6 3.7 0 7.1.7 10.1 2.2 3.1 1.5 5.6 3.6 7.5 6.3zm178.5-64.7c0-4.9 1.7-9.2 5.2-12.7 3.4-3.5 7.6-5.3 12.5-5.3h5.7c3.3 0 6.1-1.2 8.4-3.5 2.3-2.3 3.5-5.1 3.5-8.4h-17.6c-8.3 0-15.4 2.9-21.3 8.7-5.9 5.8-8.9 12.9-8.9 21.2v30c3.4 0 6.4-1.2 8.8-3.7 2.5-2.5 3.7-5.4 3.7-8.9V62.6zm13.5-5.9h21.9c0 3.3-1.2 6.1-3.5 8.4-2.3 2.3-5.2 3.4-8.4 3.4h-9.9c-1.6 0-3-.6-4.2-1.7-1.1-1.1-1.7-2.5-1.7-4.2 0-1.7.6-3.1 1.7-4.3 1-1 2.4-1.6 4.1-1.6zm-61.1-12.1c-4.9 0-9.1 1.8-12.5 5.4-3.4 3.6-5.1 7.8-5.1 12.8 0 4.9 1.7 9.2 5.1 12.7 3.4 3.5 7.6 5.3 12.5 5.3s9.1-1.8 12.5-5.3c3.4-3.5 5.2-7.8 5.2-12.7 0-4.9-1.7-9.2-5.2-12.8-3.4-3.6-7.6-5.4-12.5-5.4zm0-11.9c8.3 0 15.4 2.9 21.3 8.8s8.9 12.9 8.9 21.2c0 8.3-3 15.3-8.9 21.2-5.9 5.8-13.1 8.7-21.3 8.7-8.3 0-15.4-2.9-21.3-8.7-5.9-5.8-8.9-12.9-8.9-21.2 0-8.3 3-15.4 8.9-21.2 6-5.9 13.1-8.8 21.3-8.8zm-67.9 29.9c0-4.9 1.7-9.2 5.2-12.7 3.4-3.5 7.6-5.3 12.5-5.3h5.7c3.3 0 6.1-1.2 8.4-3.5 2.3-2.3 3.5-5.1 3.5-8.4h-17.6c-8.3 0-15.4 2.9-21.3 8.7-5.9 5.8-8.9 12.9-8.9 21.2v30c3.4 0 6.4-1.2 8.8-3.7 2.5-2.5 3.7-5.4 3.7-8.9V62.6zM38.9 80.7v-18c0-4.9 1.7-9.2 5.1-12.8 3.4-3.6 7.6-5.4 12.5-5.4s9.1 1.8 12.5 5.4c3.4 3.6 5.1 7.8 5.1 12.8 0 4.9-1.7 9.2-5.1 12.7-3.4 3.5-7.6 5.3-12.5 5.3H38.9zM38.8 95v-2.4h17.7c8.3 0 15.4-2.9 21.4-8.7 5.9-5.8 8.9-12.9 8.9-21.2 0-8.3-3-15.4-9-21.2-6-5.9-13.1-8.8-21.3-8.8-8.3 0-15.4 2.9-21.3 8.8s-8.9 12.9-8.9 21.2v44.9c3.4 0 6.4-1.2 8.8-3.7 2.5-2.5 3.7-5.5 3.7-8.9z"/><path d="M135 13.1l24.3 7 14-18.2 14 18.2 19.6-5.7c.8 3.9-1.9 7.6-5.1 8.5L184.7 28l-11.4-14.8L161.9 28l-12.3-3.6 6 10.4c-3.2 1-7.4.6-9.8-3.6L135 13.1z" fill-rule="evenodd" clip-rule="evenodd"/></g></svg>