<svg id="Layer_1" xmlns="http://www.w3.org/2000/svg" viewBox="0 0 1088.9 515.9"><path d="M593 61c5-5.5 21.1-14.7 30.3-15.6 9.2-.9 27.8-6.1 32.8-9 5-2.9 10.6-4.7 18.9-5.9 8.3-1.1 14.9-11.2 14.9-11.2s-2.3 6.1.1 6.3c1 4 5 8.1 20.5-16.8 0 0-15.1 20.4-19.6 16.7.5-.1 1.1-.4 1.8-.9 6.2-4 12.1-14.8 13.7-19.3 1-3-6.6 4.2-11.8 9.4.5-.7 11.1-15.4 15.5-10.1-.5 1.6-.3 3.6-.3 3.6 4-7.6 15.7 8.5 15.9 9.1-5.3-5.2-12.9-12.4-11.8-9.4 1.6 4.5 7.4 15.2 13.7 19.3.7.5 1.3.7 1.8.9-4.5 3.7-19.6-16.7-19.6-16.7 15.6 24.9 19.5 20.8 20.5 16.8 1.4-.1 1.3-2 .9-3.7 2.8 3 7 6.5 11.7 7.2 8.3 1.1 13.9 3 18.9 5.9s23.6 8.1 32.8 9c9.2.9 25.4 10.2 30.3 15.6 4.9 5.4 33.5 5.4 41.2 5 0 0-30.3-1.4-37-6.4-7.4-3.2-13.6-13.6-32-16.9-18.4-3.3-29-5.4-33.1-8.5-4.1-3.1-14.5-4.5-18.9-5.9-3.6-1.1-9.6-3.3-14.2-6.6-.2-.5-.3-.9-.3-.9l-4.7-4.7c-10-15.1-13.8-16-15.3-14-.4-3.7-2.8-8.9-16.1 11.3-2.7 2.6-4.7 4.7-4.7 4.7-4.6 4.7-12.6 7.6-17 9-4.4 1.3-14.8 2.8-18.9 5.9-4.1 3.1-14.7 5.2-33.1 8.5-18.4 3.3-24.6 13.8-32 16.9-6.7 5-37 6.4-37 6.4 7.7.4 36.3.4 41.2-5zm105.3 89.8c-.1 0-.1-.1-.2-.1.1 0 .1 0 .2.1z"/><path d="M659.5 57.9c13-5.8 44.6-14.3 44.9-39.6 0 0-6.7 18.5-24.1 25.7-17.4 7.2-39.8 14.7-36 25.9 3.8 11.3 36.8 20.9 54.9 22.4 0 0-33.8-9.9-43.2-16.7s-9.5-11.9 3.5-17.7zm105.1 20.4c-9.4 6.8-43.2 16.7-43.2 16.7 18.2-1.5 51.1-11.2 54.9-22.4 3.8-11.2-18.6-18.7-36-25.9-17.4-7.2-24.1-25.7-24.1-25.7.3 25.3 32 33.7 44.9 39.6 13 5.8 12.8 10.9 3.5 17.7zm150.7 317.6c-43.9 0-61.6 32-64.4 62.1l-.1.5c-9.8-11.4-24-21.2-40.9-21.2-2.3 0-4.4.2-6.5.6l-.1-.1-1.5-1.5c-9.1-8.7-23.2-14.6-40.2-14.6-31.5 0-61.5 22.3-94 41.9-33.4 20.1-74.1 42.9-116.2 43.4-42.1-.6-82.8-26.1-116.2-46.2-32.5-19.6-62.5-39.6-94-39.6-17.8 0-32.4 6.7-41.5 16.3l-.5.5c-2-.4-4.1-.5-6.3-.5-16.9 0-31.1 9.7-40.9 21.2l-.5-1c-2.8-30-20.6-61.8-64.3-61.8-26.9 0-48.5 20.6-48.5 44.1 0 32.2 45.2 51.6 68.2 24 13.2-27.3-18.3-28.1-18.3-28.1-3.9 0-2.6 3.2.3 3.9 14.4 3.7 9.3 30.3-12.1 30.3-17 0-30.7-13.2-30.7-29.4 0-21.5 15.8-38.6 41.3-38.6 44.1 0 59.1 31.3 60.5 59.4v1.9c-5.4 7.3-8.9 14.9-10.3 20.7-2.8 12.1 8.1 17.4 11.7 4.2 1.3-4.9 2.2-10.4 2.6-16.2v.2c7.6-13.4 21.4-30.3 40.5-30.3 1.1 0 2.2.1 3.2.2-.5.7-.9 1.4-1.3 2.1-3.2 5.3-4.9 11-4.9 16.9 0 16.8 11.4 27.9 24.5 27.9 7.5 0 14.5-7.3 14.5-18.4 0-8.4-7-23.4-20.9-30-1.2 1.2-2.3 2.5-3.3 3.8 12.9 5.7 18.8 19.8 18.8 26.3 0 7.2-4.8 12.4-9.6 12.4-9.6 0-15.8-9.9-15.8-20.6 0-5.8 2.2-12.1 6.4-17.8.1-.1.2-.2.2-.3 1.1-1.4 2.1-2.7 3.3-3.8 7.4-7.4 18.7-12.8 33.6-12.8 31.5 0 61.4 23.5 94 43.1 38 22.9 74.2 46.4 116.2 45.4 42 1 78.1-22.5 116.2-45.4 32.5-19.6 62.5-43.1 94-43.1 14 0 24.9 4.8 32.2 11.6l.6.6.6.6c-13.9 6.6-20.8 21.6-20.8 30 0 11 7 18.4 14.5 18.4 13.2 0 24.5-11.1 24.5-27.9 0-6.7-2.3-13.2-6.4-18.9 1.1-.1 2.2-.2 3.4-.2 19 0 32.7 16.7 40.4 30.1.1.8.2 1.7.3 2.5.4 4.9 1.3 9.5 2.4 13.7 3.6 13.2 14.5 7.9 11.7-4.2-1.3-5.8-4.9-13.3-10.3-20.7v-.1c.8-28.5 15.5-61.3 60.5-61.3 25.6 0 41.3 17 41.3 38.6 0 16.2-13.7 29.4-30.7 29.4s-26.5-26.6-12.1-30.3c2.8-.7 4.1-3.9.3-3.9-10.1 0-28.3 7.3-18.3 28.1 23 27.7 68.2 8.2 68.2-24 0-23.5-21.6-44.1-48.5-44.1zM245 487.4c.1-.4.2-.9.4-1.5 0-.2.1-.3.1-.5l.3-.7c-.2.4-.3.8-.4 1.2-.1.5-.3 1-.4 1.5zm543.8-4.3c-4.8 0-9.6-5.2-9.6-12.4-.1-6.5 5.8-20.7 18.7-26.3l-.1-.2c4.5 5.8 6.8 12.3 6.8 18.3 0 10.7-6.2 20.6-15.8 20.6zm68.1 4.2l-.2-.8c.1.3.2.6.2.8zm198.2-238.1h29.1l1.9-3.5H1057l25.6-40.9c-4.5 1.2-8.7 1.7-12.9 1.7-4 0-8.2-.5-12.7-1.7l-26 40.9h-22.2l-2.2 3.2h22.7l-28.6 45.4c-.9.8-2 1.8-3.4 3.3-13.6 18.2-26.2 27.3-37.8 27.3-9.3 0-14-5.9-14-17.7 0-4.2 1.1-9.6 3.1-16l2.7-2.1c6.5-3.8 11.5-6.7 14.7-8.6 20.6-12.5 30.9-22.2 30.9-28.9 0-3.8-2.3-5.7-6.9-5.7-6.7 0-14.2 4.2-22.5 12.7-8.4 8.4-15.4 18.9-21 31.4-7 5.4-14.3 12.2-22 20.7 12.1-17.9 18.2-32.2 18.2-43 0-14.5-5.9-21.7-17.8-21.7-8.2 0-23.7 14.4-46.5 43.2l-3 4c-.6.2-1.3.9-2.1 2-13.4 18.9-26.7 34.7-39.8 47.5C820.4 355.6 811 362 805 362c-5.8 0-8.7-3.3-8.7-9.9 0-6.8 6.8-21.1 20.5-42.8l39.3-61.7c-6.4 1-11.5 1.5-15.6 1.5-3.4 0-7.4-.5-11.8-1.5L817.4 268c1.1-4 1.7-7.1 1.7-9.5 0-8.4-4.6-12.6-13.8-12.6-10.8 0-25 4.6-42.7 13.9-40.1 20.8-60.3 44.7-60.3 71.6 0 9.7 2.7 17.8 8 24.2 5.4 6.4 12 9.6 19.8 9.6 7.4 0 15-3.5 22.9-10.4 7.8-6.8 19.2-20.1 34-39.8-4.8 8.8-7.1 17-7.1 24.6 0 7.3 2.1 13.5 6.5 18.3 4.3 4.8 9.9 7.3 16.7 7.3 10 0 23.8-10 41.3-29.9 18.6-20.8 29.2-33.8 31.8-39 .5-.5 1-1.1 1.5-1.9 21.9-30.2 36.9-45.3 45.2-45.3 3.4 0 5.1 1.9 5.1 5.9 0 6.8-9.1 24.2-27.3 52.3l-36.5 56c8.4-.6 13-.9 13.6-.9 1.3 0 5.9.3 13.7.9 14.3-23.3 24.5-38.8 30.4-46.4 5.8-7.6 13.4-15.2 22.8-22.9-1.7 6-2.7 11-2.7 15 0 12.4 5.6 18.6 16.9 18.6 9.9 0 20.5-5.9 31.7-17.7l.5-.5c-7.5 12.3-11.3 22.6-11.3 30.8 0 7.2 2.4 13.2 7 17.9 4.7 4.8 10.5 7.2 17.5 7.2 14.1 0 35.1-18.3 63-55l9.6-12.4c1.3-1.8 2-3 2.2-3.4 0-.8-.5-1.2-1.3-1.2s-1.7.7-2.7 2.1c-32 44.5-54.7 66.8-68.2 66.8-7 0-10.5-3.2-10.5-9.5 0-5.8 3-13.4 9.1-23.2l49.6-80.3zm-270 64.3c-25.2 32.2-42.9 48.3-53.1 48.3-8.6 0-12.9-4.6-12.9-13.7 0-15.7 11-36.1 33.2-61.4 22.2-25.2 40.1-37.9 53.7-37.9 6.7 0 10 3.5 10 10.4 0 9.8-10.4 27.9-30.9 54.3zM604 130c-5.3 2.7-9.1 5.8-9.2 8.1-.1 3.3 2.4 3.6 5.1 3.2 2.8-.5 5.8-1.9 5.8-1.9s4.1-1.2 9.1-2.7c4.7 3.4 9 7.4 13.4 11.2-5.8 3.1-12.6 8.3-10.7 13.6-9.9 3.6-18.8 10-18.6 13.7.5 6.6 11 .4 11 .4 2.1-1 9.9-4.5 16.6-7.5 6-2 13.1-3.8 20.3-5.4 5.8 4.5 11.6 8.9 17.4 13.3-2.2 1.1-4.1 2.2-5.4 3.2-5 3.7-28.7 17.4-21.9 25.9-6.1 4.5-10.5 9.7-10.2 12.7.8 7.1 10.2-.7 10.2-.7s-13.1 2.9 1.4-9c.3-.3.7-.6 1.1-.9h.1v-.1c4.2-3.3 8-5.5 11.3-6.8-.4.2-.8.5-1.2.8-9.1 6.6-11 14.5-11 14.5s3.8-2.9 8.2-6.1c.4 1.1 8.6-3.8 8.6-3.8 6.4-5 15.9-10.3 26.3-15.5 3.1 2.7 5.6 5.3 7.5 7.7 3 3.9 6.7 7.1 10.8 10.9-9.3 11-13.6 16.6-6.7 21-3.6 6-5.4 12.1-3.9 14.7 3.8 6.4 9.2-3.8 9.2-3.8s-10.9 6.8-2.5-8.8c2.7-5.1 5.7-8.6 8.4-11.1-1.1 1.3-2.3 2.8-3.2 4.3-3.6 5.9-3.5 14.1-3.5 14.1s5.8-9.5 9.5-16.2c.4-.9 1-1.9 1.6-3 .2-.5.4-.9.6-1.2.5-1 .7-1.7.6-2 .3-.2.7-.3 1-.5l.1.2c-.6.8-1.1 1.6-1.6 2.4l-.1.1c-.2.4-.4.7-.6 1-.5.9-1 1.9-1.6 3-2.4 4.8-2.5 7.5-2.5 7.5 2.2-3.5 4.4-6.5 6.5-9.2 1.4 2 2.9 4.2 4.4 6.6 0 0-.2-3-3-8.4 3.7 6.7 10 17 10 17s.1-8.2-3.5-14.1c-.9-1.5-2-3-3.2-4.3 2.7 2.5 5.7 6 8.4 11.1 8.5 15.6-2.5 8.8-2.5 8.8s5.5 10.2 9.2 3.8c1.6-2.6-.3-8.7-3.9-14.7 7-5 .8-12.5-4.1-18 3.1-2.8 5.9-5.4 8.3-8.5 2.6-3.3 6.6-7.1 11.3-11.1 8.9 4.6 16.9 9.2 22.5 13.6 0 0 8.2 4.9 8.6 3.8 4.4 3.2 8.2 6.1 8.2 6.1s-1.9-8-11-14.5c-.4-.3-.8-.6-1.2-.8 3.3 1.4 7.1 3.5 11.3 6.8v.1h.1c.3.3.7.6 1.1.9 14.5 11.9 1.4 9 1.4 9s9.4 7.8 10.2.7c.3-3-4.1-8.2-10.2-12.7 6.1-8.1-14.3-21.6-23.3-26.9 2.2-1.7 4.4-3.3 6.4-4.8 6-4.4 10.7-8 15.6-11.9.3 1 1.3 2 1.3 2s23.1 10.3 26.7 12.4c0 0 10.6 6.3 11-.4.4-6-23.7-19.2-36.4-15.9 4.6-3.7 9.5-8 15.9-13.7 3.9-3.5 9.9-7.3 16.9-11.1 1.7 1.1 2.9 2.3 2.4 3.3-.7 1.6-5.5 1.5-5.5 1.5 2.8 1.3 11.1 4.4 10.9-1.3 0-1.6-1.7-3.4-4.4-5.3 19.4-9.9 45.6-19.1 62-21.1 23.6-2.9 83.4-6.3 83.4-6.3-10.6-4.7-90.7-.2-109.2 3.1-18.5 3.3-47.5 21.2-61.7 33.5-14.3 12.3-30.4 27.6-43.4 37.9s-24.8 21.1-24.8 21.1c-6.9 6.3-11.7 11.8-15 16.4h-.2c-1.3-.9-2.1-1.1-1.8.2-6 1.1-12.2 7.2-16.4 13.7-.9-2.7-1-7.4 4.4-14 3.9-4.8 8.5-10.3 12.8-15.4.3-.3.5-.6.7-.9 5-6 9.4-11.4 11.4-14.4l1.8-2.7c.8-.8 1.9-2 2.5-3l-.3-.2c2.8-3.8 5.7-7.6 9-10.3l.6.2c.5-.4 1-.9 1.5-1.4 2-.7 3.5-1.1 4.5-1.4 9.9-2.7 19-10.2 19-10.2-3.9 2.8-29.3 8.8-44 14.4-2.5.9-5.9 2.4-9.8 4.1l-.4.2c-13.6 6.1-33.2 15.8-46.2 23.7-5.7-2.7-15 1-22.6 6.1.4-4.5 3.9-12.5 21.2-20.5 0 0 16.9-10.5 28.3-14.4 7.7-2.6 15.8-6.9 24.5-11.1l.3.2c.7-.3 1.3-.5 2-1l-.3-.1c3.5-1.7 7-3.3 10.7-4.7 0 0-5.2 1.9-11.8 4.3-6.1-2.2-12-4.3-15.6-5.6 4.7 2 9.1 4.1 13.5 6.2-6.2 2.3-13.3 4.8-18.5 6.7-6.7-2.1-14-4.2-20.3-6.1 3-.6 5.6-1.2 7.6-1.7 4.9-1.3 10.9-3.3 17.3-5.3.1 0 .1.1.2.1 9.9-3 20.7-5.8 29.7-5.6 22.8.6 25.7-7.8 25.7-7.8-4.2 2-17.3 3.8-28.9 4.4-11.7.6-43.4 10.8-43.4 10.8-20.4 3.8-34.5 7.6-44 10.8.4-.6 1.1-1.5.9-2.3.7.1 1 .2 1 .2-.4-.3-1-.6-1.5-.9-.1-.1-.2-.1-.4-.2-4.7-2.1-11.4-1.2-18 1 .6-4.2 5.6-11.3 29.8-16.1 0 0 12.5-.8 24.5-5.7s47-14.3 47-14.3-35.2 6.1-49.3 10.7c-13.9 4.5-31 8.3-36.6 9.8-4-3.6-8-7.2-12.2-10.6 17.3-4.9 47.1-5.4 58.8-7.2 13-2 33.8-7.7 48.5-5.8 14.7 1.9 26.7-4.9 26.7-4.9-4.5 1.5-17.8 1.9-29.4 1.2s-44.6 6-44.6 6c-25.9 2-42 5-51.7 7.5l.1-.1c5.8-2.4 5.5-4.4 5.5-4.4-4.5-4-13.2-3.5-21.5-1.2 2.1-4.1 9.1-9.6 30.9-12.1 0 0 12.5.1 25-3.8 12.4-3.9 48.3-10.5 48.3-10.5s-35.7 3.2-50.2 6.7-32.2 5.9-37.7 6.9c-4.5.8-18.7 6.3-18.6 13.4-.3 0-.5.1-.7.2-15.1-10.4-34.9-21.1-48.8-23.6-18.5-3.3-98.6-7.9-109.2-3.1 0 0 59.8 3.4 83.4 6.3 17.8 2.2 47.1 12.8 66.8 23.6zm204.5 34.9c7.2 4.1 8.4 6.2 7.6 7.2-.8 1.1-3.6 1.1-4.9 1 .3-1.1-8.3-10.4-17.4-14.2 4.2.9 9.2 2.7 14.7 6zM760.8 196l-.9-.5c.5 0 1.1.1 1.7.1-.3.1-.6.2-.8.4zm-3.9-17.7c1.1.7 2.3 1.4 3.5 2.2 17.3 8 20.8 16 21.2 20.5-7.5-5.2-16.8-8.8-22.6-6.1-4-2.4-8.6-5-13.5-7.6 3.6-3 7.5-6.1 11.4-9zM721.2 211c3.5 4.5 7.4 10.5 5.3 15.2-2.6-4.2-6.1-8.2-9.8-10.9 1.6-1.5 3.1-2.9 4.5-4.3zm14.1-43.1c-2.1 1.7-5.3 4.7-9.5 9.4-2.4-1.2-4.7-2.3-6.9-3.3 6.3-2.5 12-4.6 16.4-6.1zm-21.8 8.2c3.2 1.4 6.4 2.8 9.7 4.2-2.6 3-5.4 6.5-8.6 10.6-1.1 1.5-2.2 2.9-3.3 4.3-3.6-4.5-7.1-9.2-10.7-13.7 4.4-1.9 8.8-3.7 12.9-5.4zm-15.4 6.6c3.6 5 7.7 9.8 11.7 14.6-2.5 3-4.8 5.8-6.9 8.3-5.2-6.1-11.2-11.7-17.5-17.1 4.2-2 8.4-3.9 12.7-5.8zm-37.4 15.5c-.3.2-.6.3-.9.5-.2-.2-.5-.3-.8-.4.6-.1 1.2-.1 1.7-.1zm26.4-32.3l-.7.3c-.3-.3-.6-.6-.9-.8.5.1 1.1.3 1.6.5zm-19.4-7.3c5 2.5 10.3 4.3 15.7 6.1l.2.1c.6.6 1.3 1.1 1.9 1.7-5.6 2.2-12.3 5-17.8 7.7-5.1-4.1-10.1-8.4-15-12.7 5.3-1.1 10.4-2 15-2.9zm-48.2 5.2c2.7-1.1 5.1-1.8 7.3-2.3-9.1 3.8-17.8 13.1-17.5 14.2-1.3 0-4.1 0-4.9-1-.8-1 .5-3.1 7.6-7.2 2.5-1.5 4.9-2.7 7.2-3.6l.6.6s-.1-.2-.3-.7zm-6.2-34.4c.3.6.7 1.1 1.2 1.7 0 0-.4-.8-.4-2 4.1-1.4 7.7-2.2 10.8-2.6-10.9 2.6-19.2 12.9-19.2 12.9s-4.8 0-5.5-1.5c-.5-1.1 1.2-3.1 8.4-6.5 1.6-.8 3.2-1.4 4.7-2z"/><path d="M331.1 266.7c-30 20.1-44.9 40.9-44.9 62.6 0 9.7 3.1 18 9.4 25s13.9 10.4 22.8 10.4c17.1 0 35.5-13.2 55.1-39.4 3.6 1.7 7.6 2.5 12.2 2.5 10.9 0 23-6.2 36-18.6 1.4-1.4 2.8-2.6 4-3.8-3.5 5.9-6 10.1-7.3 12.6-3.8 7.3-5.7 14.7-5.7 22.4 0 7.1 2 12.8 6.1 17.4 4 4.5 9.3 6.8 15.6 6.8 13 0 32.9-17.3 59.6-51.8-2 5.4-2.9 10.9-2.9 16.4 0 9.7 3.1 18 9.4 25s13.9 10.4 22.8 10.4c17.2 0 35.5-13.2 55.1-39.4 3.6 1.7 7.6 2.5 12.2 2.5 10.9 0 23-6.2 36-18.6 8.8-7.9 13.1-13.2 13.1-15.5 0-.5-.3-.8-.8-.8-.8 0-2 .9-3.6 2.9-5.6 8.3-12.9 15.4-21.8 21.3s-16.7 8.8-23.4 8.8c-3.6 0-7-.9-9.9-2.5 17.9-22.8 26.9-42.2 26.9-58.4 0-12.9-6.4-19.4-19.1-19.4-13.7 0-31 7.1-52 21.3-16.9 11.3-29 22.8-36.3 34.6-30.5 40.1-51.6 60.2-63.5 60.2-5.6 0-8.4-3.2-8.4-9.5 0-5.6 5.2-17 15.5-34.3 10.2-17.3 46.6-75 108.8-173.2-4.7 1.7-9.9 2.5-15.6 2.5-3.4 0-7.3-.5-11.8-1.7-18.4 31.1-41 67.7-67.8 110-9.6 15.1-17.4 27.5-23.5 37.4-.7.3-1.7 1.2-3 2.8-5.6 8.3-12.9 15.4-21.8 21.3s-16.7 8.8-23.4 8.8c-3.6 0-7-.9-9.9-2.5 17.9-22.8 26.9-42.2 26.9-58.4 0-12.9-6.4-19.4-19.1-19.4-13.7 0-31 7.1-52 21.3zM538.3 285c19.4-24.5 35.8-36.7 49.3-36.7 10.8 0 16.2 5.7 16.2 17.1 0 6.1-1.2 11.5-3.5 16.3-1-2.8-2.5-4.2-4.9-4.2-5.5 0-11.1 3.6-16.9 10.9s-8.7 14.5-8.7 21.3c0 4.9 2.2 9.5 6.5 14-19 25-36.5 37.5-52.5 37.5-9.7 0-14.6-4.8-14.6-14.5 0-16.7 9.7-37.3 29.1-61.7zm-139.5-19.6c0 6.1-1.2 11.5-3.5 16.3-1-2.8-2.5-4.2-4.9-4.2-5.5 0-11.1 3.6-16.9 10.9s-8.7 14.5-8.7 21.3c0 4.9 2.2 9.5 6.5 14-19 25-36.5 37.5-52.5 37.5-9.7 0-14.6-4.8-14.6-14.5 0-16.7 9.7-37.3 29.1-61.7 19.4-24.5 35.8-36.7 49.3-36.7 10.8 0 16.2 5.7 16.2 17.1zM94.2 368.8c57.3 0 109.2-20.8 155.4-62.2 16.1-14.3 27.5-28.4 34.5-42.2 7-13.9 14.6-37.3 22.9-70.3 5.2-21.1 9.1-35.6 11.8-43.7 20.7-11.6 38.1-23.8 52.4-36.5 14.4-12.7 21.5-22.4 21.5-29.2 0-5.5-3.5-8.2-10.5-8.2-12 0-26.1 7.9-42.2 23.8-16.2 15.9-29.6 34.8-40.3 56.9-16.7 9.5-36 21.2-57.8 35 2.6-9.5 4-18.8 4-27.6 0-16.6-5.4-29.7-16.1-39.4-10.8-9.7-25.3-14.5-43.5-14.5-33.4 0-67.4 11.9-101.6 35.8-26.8 18.8-47.7 39.9-62.5 63.4S0 257 0 280.7c0 36.9 15.5 62.9 46.4 78-7.5 13.3-11.3 25.4-11.3 36.3 0 7.7 2 15.8 5.9 24.5 3.9 8.7 7.6 13.1 11 13.1 1.4 0 2.2-.6 2.2-1.7 0-1-.5-2-1.4-2.9-8.5-10.1-12.7-21.2-12.7-33.3 0-9.5 3.5-20.8 10.5-33.7 12.6 5.2 27.1 7.8 43.6 7.8zM349 99.6c12.2-13 23.3-19.5 33.2-19.5 4.2 0 6.2 1.6 6.2 5 0 5.9-6.4 14.5-19.1 26-12.9 11.4-29.1 22.7-48.6 34.1 6.6-17.4 16.1-32.6 28.3-45.6zm-52 63.3c-3.7 7.9-6.9 15.6-9.6 23-11.2 29.4-19.4 49.4-24.4 60-5.1 10.6-11.9 22.1-20.7 34.4-18.7 26.6-41.1 47.3-67.1 62.3-26.1 14.9-53.1 22.4-81 22.4-15.4 0-29.2-2.6-41.4-7.8 11.7-18.1 25.9-35.4 42.7-51.8 8.2 3.3 15.7 5 22.5 5 22.6 0 46.1-11.2 70.6-33.7 24.6-22.4 41.7-48.5 51.5-78.3 20.5-13.3 39.5-25.1 56.9-35.5zM98.5 302.4c24.7-24.3 65-54.8 120.9-91.3l14.6-9.4c-10.9 28.9-27.7 53.7-50.4 74.3-22.7 20.6-44.4 31-65.1 31-7.1 0-13.8-1.5-20-4.6zm-82-6.6c0-42.1 18.6-82.8 55.9-122.2 37.3-39.4 75.9-59 115.7-59 16.2 0 29.1 4.5 39 13.5 9.9 9 14.8 20.9 14.8 35.6 0 9-1.9 19.7-5.4 32.2-64.3 39.7-111.4 74.4-141.1 104.2-9-7.2-13.6-15.5-13.6-24.8 0-5 1.3-10 4-15 2.6-5.1 5.2-7.6 7.7-7.6.9 0 1.4.4 1.4 1.3 0 .3-.3 1.3-.9 3.2-1.4 2.4-2.2 4.6-2.2 6.7 0 6.6 3.7 9.9 10.9 9.9 5.1 0 9.4-1.7 13.1-5 3.7-3.4 5.5-7.2 5.5-11.7 0-8.7-5-13.1-14.9-13.1-8 0-14.8 3-20.5 9-5.6 6-8.4 13.2-8.4 21.6 0 11 4.8 20.6 14.6 28.6-18.8 18.7-33.2 35.9-43.3 51.6-21.5-11.7-32.3-31.3-32.3-59z"/></svg>