<svg id="Слой_1" xmlns="http://www.w3.org/2000/svg" viewBox="0 0 344 145.8"><path d="M169.3 27.4l-2.8-1.1c-2.7-1.1-3-2.6-3-3.4 0-1.8 1.3-3.4 4-3.4 1.2 0 2.2.3 3 1 .6.5 1 1.1 1.3 1.8l3.5-2c-.6-1.2-1.4-2.1-2.1-2.8-.7-.6-1.8-1.3-3.6-1.7L178.4.5h-4.9L167 11.7 160.5.5h-4.9l9 15.5c-3.4 1.1-5.3 3.9-5.3 7 0 4.2 3.4 6.1 5.7 7.1l2.7 1.1c1.9.8 4 1.9 4 4.8 0 2.8-2 4.7-4.6 4.7-1.7 0-2.9-.7-3.7-1.7-.7-.9-1.2-2.2-1.2-3.6l-4.3.9c.2 1.9.8 3.8 2.4 5.5 1.4 1.6 3.4 2.8 6.6 2.8 5.3 0 9.1-3.7 9.1-9 0-3.1-1.5-6.1-6.7-8.2m-4.5 17.7v12.1h4.3V45.1l.2-.4h-4.7zm-47.5 100.7v-8l5.4 5.7v-5.2h1.1v7.9l-5.4-5.7v5.3zm15-1.8h-3.2l-.8 1.8H127l3.7-7.9 3.5 7.9H133l-.7-1.8zm-.5-1.1l-1.1-2.5-1.2 2.5h2.3zm5.7-4.6h1.1v7.5h-1.1zm6.3 0v6.4h2.2v1.1h-3.4v-7.5zm14.7 5.7h-3.2l-.8 1.8h-1.2l3.7-7.9 3.5 7.9h-1.2l-.8-1.8zm-.4-1.1l-1.1-2.5-1.2 2.5h2.3zm11-2.9c-.8-.8-1.6-.8-2-.8-1.6 0-2.7 1.2-2.7 2.8s1.1 2.8 2.7 2.8c.9 0 1.6-.5 2-.9v1.4c-.8.4-1.5.6-2.1.6-1.4 0-2.2-.6-2.7-1-.9-.8-1.2-1.8-1.2-2.8 0-1.4.6-2.3 1.2-2.9.8-.7 1.7-1 2.7-1 .7 0 1.3.1 2 .5v1.3h.1zm8.1 4H174l-.8 1.8H172l3.7-7.9 3.5 7.9H178l-.8-1.8zm-.5-1.1l-1.1-2.5-1.2 2.5h2.3zm7.2-4.6c1 0 1.9.1 2.8.7.9.7 1.4 1.8 1.4 3s-.5 2.3-1.5 3c-.9.6-1.7.7-2.7.7h-1.5v-7.5h1.5v.1zm-.4 6.4h.5c.6 0 1.3 0 2-.5.5-.4 1-1.1 1-2.1s-.5-1.8-1-2.2c-.7-.5-1.4-.5-2-.5h-.5v5.3zm12.5-5.3h-3v1.7h2.9v1.1H193v2.5h3v1.1h-4.2v-7.5h4.2zm3.5 6.4l1.5-8.1 2.6 5.8 2.7-5.8 1.4 8.1h-1.2l-.8-4.5-2.1 4.8-2.2-4.8-.8 4.5zm13.5-3.3l-2.4-4.2h1.3l1.7 3 1.7-3h1.3l-2.4 4.2v3.3H213zM22.1 86.2c0 .2-.2.3-.6.3-1.2 0-2 .2-2.3.6-.3.2-1.2 2.1-2.8 5.7-.7 1.6-1.4 2.9-2.1 4.1-.4.8-.7 1.4-.8 1.7-.1.3-.1.9-.1 1.9v6.3c0 .7.1 1.2.3 1.3.2.1.8.2 2 .3.6 0 .9.1.9.3 0 .2-.2.2-.5.2h-.4l-4.6-.1c-1.3 0-2.4 0-3.2.1h-.5c-.3 0-.5-.1-.5-.3 0-.2.3-.3.8-.3 1.2 0 1.9-.2 2.2-.3.2-.2.3-.7.3-1.6v-7c-.2-.4-.8-1.7-1.9-3.8L5 89c-.3-.6-.7-1.4-1.2-2.2-.2-.2-.8-.3-1.6-.3S1 86.4 1 86.1c0-.2.2-.3.5-.3.5 0 1.4 0 2.8.1H6l3.9.1h.5c.4 0 .6.1.6.3 0 .2-.4.3-1.1.3-1.4 0-2.1.2-2.1.7 0 .4.7 1.9 2.1 4.6l3 5.7c.5-1 1.2-2.2 1.9-3.6l2-3.9c.7-1.4 1.1-2.4 1.1-2.8 0-.3-.2-.5-.6-.5-.8-.1-1.3-.2-1.6-.1-.5 0-.7-.1-.7-.3 0-.2.2-.3.6-.3h3c2.3-.2 3.5-.1 3.5.1m96.3 0c0 .2-.2.3-.6.3-1.2 0-2 .2-2.3.6-.3.2-1.2 2.1-2.8 5.7-.7 1.6-1.4 2.9-2.1 4.1-.4.8-.7 1.4-.8 1.7-.1.3-.1.9-.1 1.9v6.3c0 .7.1 1.2.3 1.3.2.1.8.2 2 .3.6 0 .9.1.9.3 0 .2-.2.2-.5.2h-.4l-4.6-.1c-1.3 0-2.4 0-3.2.1h-.5c-.3 0-.5-.1-.5-.3 0-.2.3-.3.8-.3 1.2 0 1.9-.2 2.2-.3.2-.2.3-.7.3-1.6v-7c-.2-.5-.9-1.8-1.9-3.9l-3.3-6.6c-.3-.6-.7-1.4-1.2-2.2-.2-.2-.8-.3-1.6-.3s-1.2-.1-1.2-.4c0-.2.2-.3.5-.3.5 0 1.4 0 2.8.1h1.7l3.8-.1h.5c.4 0 .6.1.6.3 0 .2-.4.3-1.1.3-1.4 0-2.1.2-2.1.7 0 .4.7 1.9 2.1 4.6l3 5.7c.5-1 1.2-2.2 1.9-3.6l2-3.9c.7-1.4 1.1-2.4 1.1-2.8 0-.3-.2-.5-.6-.5-.8-.1-1.3-.2-1.6-.1-.5 0-.7-.1-.7-.3 0-.2.2-.3.6-.3h3c2.5.1 3.6.2 3.6.4m-68.4.1c0 .2-.2.3-.6.3h-1.2c-.6 0-.9.1-1 .4 0 .2-.1.4-.1.8v12.4c0 3.2-.6 5.6-1.8 7-1.2 1.5-3.1 2.2-5.8 2.2-3.2 0-5.5-.9-6.8-2.7-.9-1.2-1.3-3.2-1.3-6V87.4c-.1-.4-.3-.6-.8-.7h-1.2c-.4 0-.6-.2-.6-.3 0-.2.2-.3.5-.3h7.6c.4 0 .6.1.6.4 0 .2-.1.2-.2.3-.1 0-.6 0-1.3.1-.3 0-.5 0-.6.1-.2.1-.3.2-.4.5V101c0 2.9.5 4.9 1.4 6s2.3 1.6 4.1 1.6c3.4 0 5.3-1.9 5.7-5.7.1-.6.1-3 .1-7.3v-8c0-.5-.2-.8-.7-.9-.2 0-.6-.1-1.3-.1-.4 0-.7-.1-.7-.4 0-.2.2-.3.5-.3h5.2c.5.1.7.2.7.4m25.3 20.1c0 .6 0 1.5-.1 2.8h-.4c-.1 0-.5 0-1-.1-.5 0-1.1-.1-1.7-.1H58.4c-.4 0-.6-.1-.6-.3 0-.2.3-.3.9-.3.8 0 1.3-.1 1.5-.3.2-.1.2-.6.2-1.2V88.3c0-.8-.1-1.3-.2-1.4-.2-.1-.8-.2-1.8-.2-.4 0-.6-.1-.6-.4 0-.2.1-.3.4-.3h.3c.7.1 2.2.1 4.3.1H64c.6 0 1-.1 1.4-.1h.4c.4 0 .6.1.6.3 0 .1-.1.2-.2.2s-.5.1-1.1.1-1 .1-1.1.3c-.1.2-.2.8-.2 1.7v19.5h2.5c2.6 0 4.4-.1 5.5-.4s1.8-.8 2.2-1.5c.4-.7.6-1.7.7-2.9 0-.3.1-.4.4-.4s.4.2.4.5v3h-.2zm16.5 2.3c0 .2-.1.3-.4.3H91c-.1-.1-1.6-.1-4.5-.1-.6 0-1.1 0-1.7.1h-1.3c-.3 0-.4-.1-.4-.3 0-.2.3-.3.9-.3.9 0 1.4-.1 1.6-.3.2-.2.2-.8.2-1.9V88.7c0-1.1-.1-1.7-.2-1.8-.1-.2-.7-.4-1.8-.4-.4 0-.6-.1-.6-.2 0-.2.1-.3.4-.3h7.6c.4 0 .5.1.5.3 0 .2-.5.3-1.5.3-.6 0-.9.1-1 .3-.1.2-.2.6-.2 1.4V106c0 1.3.1 1.9.2 2.1.2.2 1 .4 2.2.4.2-.1.4 0 .4.2m48.9.1c0 .2-.2.3-.5.3h-.6l-4.2-.1-4.2.1h-.5c-.4 0-.7-.1-.7-.4s.3-.4.9-.4c1.9 0 2.9-.2 2.9-.6 0 0 0-.1-.1-.3l-.3-.9-.2-.5c-.2-.7-.7-2.2-1.5-4.5h-7.1c-1.3 3.5-2 5.6-2 6.1 0 .3.1.5.4.6.1 0 .6.1 1.7.1.6 0 1 .1 1 .3 0 .2-.3.3-.9.3-1 0-2.2 0-3.5-.1h-1c-.4 0-.7 0-1 .1-.2 0-.3.1-.4.1-.3 0-.5-.1-.5-.3 0-.2.3-.3 1-.3s1.2-.1 1.5-.3c.3-.2.5-.5.7-1.1 2.8-8.1 5.1-14.7 6.9-19.6l.3-.9.1-.6c.1-.2.2-.4.3-.4s.1.1.2.2c.3.9.9 2.7 2 5.4.8 2.1 2.8 7.5 5.9 16.1.2.5.4.8.7 1 .3.1.8.2 1.7.2.7.1 1 .2 1 .4m-9-7.9c-.4-1-1-2.6-1.8-4.9l-1.6-4.6c-.9 2.4-2 5.6-3.4 9.5h6.8zm42.4 1.6c0 1.9-.7 3.5-2.2 4.8-1.4 1.3-3.2 2-5.2 2-1.2 0-2.6-.4-4.3-1.1-.4-.2-.8-.3-1-.3-.3 0-.4.3-.5.9 0 .3-.2.5-.4.5s-.3-.1-.3-.4v-.4c.2-1.4.3-2.6.3-3.7 0-.2 0-.8-.1-1.9v-.5c0-.3.1-.5.4-.5.2 0 .4.3.5.8.6 4 2.4 5.9 5.6 5.9 1.3 0 2.4-.4 3.1-1.1.7-.8 1.1-1.8 1.1-3.2 0-1.2-.4-2.3-1.1-3.2-.7-.9-1.9-1.7-3.7-2.6-2.1-1-3.6-2-4.4-3-.8-1-1.2-2.2-1.2-3.6 0-1.8.6-3.3 1.8-4.5s2.7-1.8 4.5-1.8c.8 0 1.8.3 3.1.8.5.2.8.3 1 .3s.4 0 .5-.1.1-.3.2-.7c0-.2.2-.3.4-.3s.3.1.3.4v.4c-.1.5-.1 1.2-.1 1.9 0 1.1.1 1.9.2 2.5v.5c0 .2-.1.4-.3.4s-.4-.3-.5-.8c-.2-1.3-.8-2.4-1.7-3.3s-1.9-1.3-3-1.3-2 .4-2.6 1.1-1 1.7-1 2.9c0 1.4.5 2.5 1.4 3.4.5.5 1.7 1.2 3.4 2.1 2.1 1 3.6 2.1 4.5 3.2.8 1 1.3 2.2 1.3 3.5m26.5-10.6c0 .3-.1.4-.4.4-.3 0-.5-.3-.6-.9 0-.4-.1-.8-.1-1.2-.2-.8-.4-1.5-.8-2-.5-.7-1.2-1.2-2.3-1.4-.7-.1-1.2-.2-1.7-.2-1 0-1.7.1-1.9.1v20c0 .8.2 1.3.6 1.5.2.1.8.2 1.9.2.3 0 .4.1.4.3 0 .2-.2.3-.5.3h-.5c-1.3 0-2.3-.1-2.8-.1-.7 0-1.4 0-2.1.1h-2.4c-.5 0-.8-.1-.8-.3 0-.2.5-.3 1.4-.3.7 0 1.1-.1 1.3-.4.1-.2.2-.6.2-1.4V86.8c-2.2 0-3.5.1-4.1.3-1.4.5-2.2 1.9-2.4 4.1-.1.7-.2 1-.5 1s-.4-.2-.4-.7v-.7l.1-.8c.1-1 .2-2.4.3-4h1.5l6.8.1h3.7l5.5-.1c0 1.2.2 3.1.4 5.5v.2l.2.2m28.5 16.9c0 .2-.2.3-.5.3h-.6l-4.2-.1-4.2.1h-.5c-.4 0-.7-.1-.7-.4s.3-.4.9-.4c1.9 0 2.9-.2 2.9-.6 0 0 0-.1-.1-.3l-.3-.9-.2-.5c-.2-.7-.7-2.2-1.5-4.5H213c-1.3 3.5-2 5.6-2 6.1 0 .3.1.5.4.6.1 0 .6.1 1.7.1.6 0 1 .1 1 .3 0 .2-.3.3-.9.3-1 0-2.2 0-3.5-.1h-1c-.4 0-.7 0-1 .1-.2 0-.3.1-.4.1-.3 0-.5-.1-.5-.3 0-.2.3-.3 1-.3s1.2-.1 1.5-.3c.3-.2.5-.5.7-1.1 2.8-8.1 5.1-14.7 6.9-19.6l.3-.9.1-.6c.1-.2.2-.4.3-.4s.1.1.2.2c.3.9.9 2.7 2 5.4.8 2.1 2.8 7.5 5.9 16.1.2.5.4.8.7 1 .3.1.8.2 1.7.2.7.1 1 .2 1 .4m-9-7.9c-.4-1-1-2.6-1.8-4.9l-1.6-4.6c-.9 2.4-2.1 5.6-3.4 9.5h6.8zm36.5-3.4c0 3.9-1.4 6.9-4.1 9.1-2 1.6-4.6 2.4-8 2.4h-9c-.4 0-.6-.1-.6-.3 0-.2.4-.3 1.1-.3.9 0 1.5-.2 1.7-.5.1-.2.1-.6.1-1.3V88.8c0-1.1-.1-1.7-.2-1.9-.2-.2-.7-.3-1.7-.3-.5 0-.8-.1-.8-.4 0-.2.2-.3.6-.3h5.7c4 0 6.8.3 8.4.8 2 .7 3.6 2 4.9 3.9 1.2 2.1 1.9 4.4 1.9 6.9m-3.7-.1c0-3.7-.7-6.4-2.2-8.1-1.4-1.7-3.7-2.6-6.7-2.6-1.5 0-2.4.2-2.7.5-.1.2-.2.7-.2 1.6v17.7c0 .6 0 1 .1 1.1 0 .1.1.2.3.3.5.3 1.6.4 3.3.4 2.4 0 4.3-.8 5.8-2.5 1.5-1.8 2.3-4.6 2.3-8.4m32.9-11.1c0 .2-.3.3-.8.3h-1.3c-.4 0-.6.1-.6.2-.1.1-.1.5-.1 1.1v21c0 .2-.1.3-.2.3s-.3-.1-.5-.4l-4.2-6.2c-2.5-3.6-5.4-8.1-8.9-13.5v18.5c0 .3.2.5.5.5.3.1 1.1.1 2.2.1.3 0 .4.1.4.3 0 .2-.3.3-.9.3-.2 0-.8 0-1.9-.1h-1s-.2 0-.6.1c-.4 0-1 .1-1.9.1h-.3c-.5 0-.8-.1-.8-.3 0-.2.2-.3.7-.3 1.3 0 2.1-.1 2.3-.2.2-.1.3-.6.3-1.4V90.4c0-1.8-.4-3-1.1-3.4-.4-.2-1-.3-1.9-.3-.6 0-.9-.1-.9-.4 0-.2.2-.3.5-.3.4 0 1 0 1.7.1.7 0 1 .1 1.1.1h.9c.7 0 1.4 0 2.1-.1l11.4 17v-16c0-.1-.1-.3-.3-.3-.2-.1-.7-.1-1.6-.1-.8 0-1.2-.1-1.2-.3 0-.2.3-.3.8-.3h5.3c.6-.1.8 0 .8.2m16.6 22.4c0 .2-.1.3-.4.3h-.3c-.1-.1-1.6-.1-4.5-.1-.6 0-1.1 0-1.7.1h-1.3c-.3 0-.4-.1-.4-.3 0-.2.3-.3.9-.3.9 0 1.4-.1 1.6-.3.2-.2.2-.8.2-1.9V88.7c0-1.1-.1-1.7-.2-1.8-.1-.2-.7-.4-1.8-.4-.4 0-.6-.1-.6-.2 0-.2.1-.3.4-.3h7.7c.4 0 .5.1.5.3 0 .2-.5.3-1.5.3-.6 0-.9.1-1 .3-.1.2-.2.6-.2 1.4V106c0 1.3.1 1.9.2 2.1.2.2 1 .4 2.2.4.1-.1.2 0 .2.2m30.4 0c0 .2-.2.3-.5.3h-8.6c-.4 0-.6-.1-.6-.3 0-.2.3-.3.8-.3 1.1-.1 1.7-.3 1.7-.6s-3-3.9-9-10.8v9.5c0 .8.1 1.3.4 1.4.2.2.9.3 2 .3.2 0 .4.1.4.3 0 .2-.2.3-.5.3h-7.7c-.3 0-.5-.1-.5-.3 0-.2.4-.3 1.2-.3.7 0 1.2-.2 1.3-.5.1-.1.1-.8.1-2.1V87.4c0-.5-.6-.7-1.8-.7-.5 0-.8-.1-.8-.4 0-.2.2-.3.6-.3h.4c.4 0 1.3.1 3 .1s2.8 0 3.3-.1h.8c.4 0 .6.1.6.4 0 .1-.1.2-.2.2s-.5.1-1.2.1c-.6 0-1 .1-1.2.3-.1.2-.2.7-.2 1.5v8.1l2.8-2.8c4.3-4.3 6.4-6.5 6.4-6.7 0-.3-.5-.4-1.6-.4-.7 0-1-.1-1-.3 0-.2.2-.2.5-.3h6.3c.2 0 .3.2.3.3 0 .2-.2.4-.7.4-1 0-1.7 0-2 .1s-.6.3-.9.6c-1.4 1.5-3.6 3.8-6.5 6.8l-.9.8-.4.5c.1.2.7.8 1.7 1.8 1.9 1.9 4.5 5 8 9.2.7.9 1.2 1.4 1.5 1.6s.8.3 1.6.3c.8-.1 1.1.1 1.1.2m9.6-26c0 1.6-1.2 2.8-2.8 2.8-1.6 0-2.8-1.2-2.8-2.8 0-1.5 1.3-2.8 2.8-2.8 1.5.1 2.8 1.3 2.8 2.8m-5 0c0 1.2.9 2.2 2.2 2.2 1.2 0 2.1-1 2.1-2.2s-.9-2.2-2.1-2.2c-1.3 0-2.2 1-2.2 2.2m1.7 1.5h-.6v-2.8c.3-.1.6-.1 1.1-.1s.8.1 1 .2.3.3.3.6-.2.5-.6.6c.3.1.4.3.5.7.1.4.1.6.2.7h-.7c-.1-.1-.1-.4-.2-.7 0-.3-.2-.4-.6-.4h-.3l-.1 1.2zm0-1.6h.3c.4 0 .6-.1.6-.4s-.2-.4-.6-.4h-.4v.8h.1z"/></svg>